<svg width="579" height="648" viewBox="0 0 579 648" fill="none" xmlns="http://www.w3.org/2000/svg">
<path d="M336.65 604.282C324.34 575.856 320.435 600.178 320.022 615.893C320.284 626.39 305.594 618.848 304.922 602.704C304.251 586.561 319.088 589.253 310.968 575.937C302.848 562.622 302.607 596.015 288.797 591.419C274.986 586.823 281.234 578.901 292.38 562.812C303.526 546.723 285.052 548.943 283.643 557.047C282.234 565.15 273.61 574.731 265.195 571.115C256.78 567.498 263.088 551.227 271.798 545.145C280.508 539.063 274.938 531.086 268.429 528.512C261.92 525.938 262.591 542.081 251.74 548.472C240.889 554.862 233.856 531.295 249.311 526.436C264.765 521.578 258.994 494.756 249.666 508.389C240.339 522.022 233.038 520 229.226 517.916C225.414 515.831 223.804 505.089 237.909 499.986C252.015 494.883 243.163 473.772 233.983 482.555C224.803 491.339 217.912 494.964 211.315 488.891C206.038 484.033 208.941 479.869 211.053 478.395C217.573 474.237 229.993 464.695 227.507 459.786C225.021 454.876 221.448 457.293 219.971 459.115C213.666 464.704 200.146 473.908 196.511 466.003C191.968 456.123 195.048 450.413 208.127 447.213C221.206 444.013 221.118 440.515 214.991 431.74C208.864 422.966 191.733 457.474 181.942 441.765C172.151 426.057 182.297 423.718 197.987 417.509C213.676 411.3 209.28 396.571 194.235 407.076C179.19 417.582 174.264 413.902 169.661 412.37C165.057 410.838 161.131 393.407 186.907 393.208C212.682 393.008 202.307 364.655 183.685 371.725C168.788 377.381 162.093 374.541 160.608 372.414C152.705 357.048 169.77 355.732 179.29 356.995C199.932 366.314 204.045 326.657 179.88 337.598C160.548 346.35 152.159 342.32 150.38 339.211C140.319 323.453 157.099 317.907 166.747 317.103C176.238 317.2 193.104 314.362 184.637 302.238C174.054 287.082 155.661 324.844 146.34 306.434C137.019 288.024 154.292 280.709 172.296 281.19C190.301 281.67 188.69 270.929 182.885 264.303C177.08 257.677 160.774 271.437 150.131 264.629C141.616 259.183 144.923 253.235 147.641 250.942C167.202 238.47 178.255 250.924 186.556 239.195C194.856 227.465 184.535 222.806 169.316 226.314C154.096 229.822 137.561 212.89 149.439 204.596C161.316 196.302 164.658 201.088 181.314 201.324C194.639 201.512 196.153 193.335 195.245 189.223C194.786 185.192 188.89 177.76 168.973 180.276C149.056 182.792 144.528 172.822 144.754 167.522C145.166 162.489 151.877 153.768 175.428 159.156C204.868 165.891 202.935 153.002 200.385 147.663C197.835 142.324 164.403 158.549 160.624 136.269C156.846 113.988 184.232 124.53 202.559 127.159C217.22 129.262 217.114 122.137 215.228 118.312C191.392 99.3585 181.447 120.542 176.642 100.165C172.798 83.8638 185.227 85.4688 191.922 88.309C203.806 94.6451 226.474 104.052 222.066 90.9922C216.556 74.6672 179.225 85.3087 184.506 70.9416C188.731 59.448 197.039 60.2125 200.665 62.0314C213.742 69.5126 238.683 81.0505 233.829 67.3524C227.763 50.2297 193.834 57.3088 201.256 42.6336C208.677 27.9584 218.233 45.0177 233.95 50.6557C246.523 55.1662 234.518 44.7216 226.944 38.9355C205.248 19.6736 237.768 20.698 242.868 31.3758C246.948 39.9182 255.672 35.0923 259.524 31.6116C274.093 55.8498 284.917 37.6123 293.124 54.4268C299.69 67.8784 289.798 68.2197 284.031 66.709C276.594 62.8052 261.642 56.2377 261.336 61.1978C261.03 66.1578 275.243 73.2414 282.387 76.1631C291.769 86.2246 285.756 92.7963 268.047 82.6169C253.879 74.4734 248.928 80.5411 248.224 84.5929C247.832 86.8439 250.556 91.9822 264.584 94.5275C278.612 97.0729 279.283 106.018 277.865 110.173C276.632 114.593 270.942 121.177 258.042 112.149C245.141 103.12 237.223 106.514 234.877 109.339C226.405 122.848 235.919 126.014 241.735 125.908C251.565 123.791 262.29 131.728 266.424 135.961C268.652 139.151 270.621 147.032 260.673 153.029C248.238 160.525 242.702 132.353 226.865 143.412C214.195 152.258 223.832 158.186 230.234 160.045C242.373 162.247 265.279 169.747 259.788 182.126C252.923 197.599 228.852 179.995 225.832 177.358C223.416 175.247 218.374 176.237 216.155 176.995C203.743 187.56 215.243 194.245 222.544 196.266C254.213 199.783 255.97 212.083 252.89 217.794C251.657 222.214 246.905 229.804 237.757 224.801C226.322 218.546 215.592 208.24 211.338 220.703C207.934 230.674 223.797 235.735 232.154 237.019C239.162 238.059 251.694 243.073 245.757 254.813C238.335 269.488 210.835 243.6 205.788 256.617C201.751 267.03 208.464 270.57 212.325 271.038C222.764 269.681 244.317 270.295 247.012 283.601C250.381 300.235 220.942 293.5 214.432 290.925C207.923 288.351 199.562 308.429 212.641 305.229C225.72 302.029 241.349 304.168 243.342 308.71C245.335 313.251 250.288 328.778 234.658 326.639C219.029 324.5 209.91 324.935 209.849 333.283C209.801 339.962 215.498 340.81 218.352 340.399C239.278 335.279 247.597 342.919 249.14 347.378C252.362 368.861 206.709 347.342 213.89 366.06C221.07 384.778 244.651 361.193 253.885 376.103C261.272 388.032 249.846 389.999 243.209 389.492C234.109 387.144 217.106 385.173 221.889 396.072C227.869 409.696 251.214 387.461 260.448 402.372C267.836 414.301 255.724 417.537 248.745 417.664C241.131 417.443 226.272 418.88 227.748 426.393C229.224 433.905 242.478 428.369 248.92 424.661C276.896 415.806 275.454 444.105 264.106 441.349C255.028 439.144 245.896 443.385 242.465 445.781C231.39 458.261 244.632 457.32 252.638 455.29C261.563 450.64 279.8 443.918 281.346 454.23C283.279 467.119 275.978 465.098 263.691 467.744C251.404 470.391 249.82 471.497 254.276 477.878C257.841 482.983 261.156 480.984 262.369 479.347C276.235 466.816 287.227 471.086 290.989 474.788C292.69 478.347 293.157 486.327 281.427 489.771C266.765 494.077 263.919 498.436 269.167 504.265C273.365 508.928 290.153 502.268 298.023 498.355C302.675 498.27 312.191 500.09 313.034 508.045C314.088 517.989 297.258 510.755 290.218 519.23C284.587 526.01 290.471 525.778 294.117 524.814C296.757 522.971 304.176 518.977 312.739 517.744C323.443 516.203 322.59 525.104 321.564 527.008C320.742 528.53 312.033 532.476 307.78 534.259C292.389 545.956 304.611 547.152 312.646 546.288C320.68 545.423 336.147 536.759 344.286 544.366C352.425 551.973 333.424 557.488 322.906 559.295C318.576 561.528 312.724 566.643 323.96 569.239C338.005 572.484 355.956 549.27 360.996 568.296C366.036 587.322 336.657 572.239 338.032 584.331C339.408 596.423 377.323 598.426 363.949 611.325C353.25 621.644 341.292 610.929 336.65 604.282Z" fill="#73628A"/>
<path d="M315.108 610.932C312.538 613.116 314.545 613.62 315.833 614.26C316.056 614.371 316.275 614.493 316.516 614.558C319.935 615.478 318.5 608.051 315.108 610.932Z" fill="#CBC5EA"/>
<path d="M307.501 600.038C304.93 602.222 306.937 602.725 308.225 603.366C308.448 603.476 308.668 603.599 308.908 603.663C312.328 604.583 310.892 597.156 307.501 600.038Z" fill="#CBC5EA"/>
<path d="M316.956 582.631C314.385 584.815 316.392 585.319 317.68 585.959C317.903 586.07 318.123 586.192 318.363 586.257C321.783 587.177 320.348 579.75 316.956 582.631Z" fill="#CBC5EA"/>
<path d="M317.298 598.6C314.727 600.784 316.734 601.288 318.022 601.928C318.245 602.039 318.465 602.161 318.705 602.226C322.125 603.145 320.689 595.719 317.298 598.6Z" fill="#CBC5EA"/>
<path d="M319.147 570.299C316.577 572.483 318.584 572.987 319.872 573.627C320.095 573.738 320.314 573.86 320.555 573.925C323.974 574.845 322.539 567.418 319.147 570.299Z" fill="#CBC5EA"/>
<path d="M324.22 577.561C321.649 579.745 323.656 580.249 324.944 580.889C325.167 581 325.387 581.122 325.627 581.187C329.047 582.106 327.611 574.68 324.22 577.561Z" fill="#CBC5EA"/>
<path d="M328.946 568.858C326.376 571.042 328.382 571.546 329.671 572.186C329.894 572.297 330.113 572.419 330.353 572.483C333.773 573.403 332.338 565.977 328.946 568.858Z" fill="#CBC5EA"/>
<path d="M357.247 570.702C354.676 572.886 356.683 573.389 357.972 574.03C358.194 574.14 358.414 574.263 358.654 574.327C362.074 575.247 360.639 567.82 357.247 570.702Z" fill="#CBC5EA"/>
<path d="M342.376 564.881C339.805 567.065 341.812 567.569 343.1 568.209C343.323 568.32 343.543 568.442 343.783 568.507C347.203 569.427 345.767 562 342.376 564.881Z" fill="#CBC5EA"/>
<path d="M343.065 596.815C340.495 598.999 342.502 599.503 343.79 600.143C344.013 600.254 344.232 600.376 344.473 600.441C347.892 601.36 346.457 593.934 343.065 596.815Z" fill="#CBC5EA"/>
<path d="M348.136 604.077C345.565 606.261 347.572 606.764 348.86 607.405C349.083 607.515 349.303 607.638 349.543 607.702C352.963 608.622 351.527 601.195 348.136 604.077Z" fill="#CBC5EA"/>
<path d="M361.569 600.1C358.999 602.284 361.006 602.788 362.294 603.428C362.517 603.539 362.736 603.661 362.977 603.726C366.396 604.645 364.961 597.219 361.569 600.1Z" fill="#CBC5EA"/>
<path d="M294.823 581.881C292.253 584.065 294.259 584.569 295.548 585.209C295.77 585.32 295.99 585.442 296.23 585.507C299.65 586.427 298.215 579 294.823 581.881Z" fill="#CBC5EA"/>
<path d="M286.118 577.155C283.548 579.339 285.554 579.843 286.843 580.483C287.065 580.594 287.285 580.716 287.525 580.78C290.945 581.7 289.51 574.273 286.118 577.155Z" fill="#CBC5EA"/>
<path d="M290.847 568.452C288.276 570.636 290.283 571.139 291.571 571.78C291.794 571.89 292.014 572.013 292.254 572.077C295.674 572.997 294.238 565.57 290.847 568.452Z" fill="#CBC5EA"/>
<path d="M302.837 554.678C300.266 556.862 302.273 557.366 303.561 558.006C303.784 558.117 304.004 558.239 304.244 558.304C307.664 559.224 306.228 551.797 302.837 554.678Z" fill="#CBC5EA"/>
<path d="M311.538 559.405C308.968 561.589 310.974 562.093 312.263 562.733C312.485 562.844 312.705 562.966 312.945 563.03C316.365 563.95 314.93 556.523 311.538 559.405Z" fill="#CBC5EA"/>
<path d="M310.095 549.604C307.524 551.788 309.531 552.292 310.819 552.932C311.042 553.043 311.262 553.165 311.502 553.23C314.922 554.149 313.486 546.723 310.095 549.604Z" fill="#CBC5EA"/>
<path d="M326.063 549.264C323.493 551.448 325.5 551.952 326.788 552.592C327.011 552.703 327.23 552.825 327.471 552.89C330.89 553.81 329.455 546.383 326.063 549.264Z" fill="#CBC5EA"/>
<path d="M334.425 538.022C331.854 540.206 333.861 540.71 335.149 541.35C335.372 541.461 335.592 541.583 335.832 541.648C339.252 542.567 337.816 535.141 334.425 538.022Z" fill="#CBC5EA"/>
<path d="M315.575 518.772C313.005 520.956 315.011 521.46 316.3 522.1C316.522 522.211 316.742 522.333 316.982 522.398C320.402 523.317 318.967 515.891 315.575 518.772Z" fill="#CBC5EA"/>
<path d="M308.313 523.838C305.743 526.022 307.75 526.526 309.038 527.166C309.261 527.277 309.48 527.399 309.721 527.464C313.14 528.384 311.705 520.957 308.313 523.838Z" fill="#CBC5EA"/>
<path d="M293.79 533.983C291.219 536.167 293.226 536.671 294.514 537.311C294.737 537.422 294.957 537.544 295.197 537.608C298.617 538.528 297.182 531.102 293.79 533.983Z" fill="#CBC5EA"/>
<path d="M298.86 541.245C296.29 543.429 298.297 543.932 299.585 544.573C299.808 544.683 300.027 544.806 300.268 544.87C303.687 545.79 302.252 538.363 298.86 541.245Z" fill="#CBC5EA"/>
<path d="M269.804 561.53C267.233 563.714 269.24 564.218 270.528 564.858C270.751 564.969 270.971 565.091 271.211 565.155C274.631 566.075 273.195 558.648 269.804 561.53Z" fill="#CBC5EA"/>
<path d="M286.522 539.053C283.952 541.237 285.959 541.741 287.247 542.381C287.47 542.492 287.689 542.614 287.93 542.679C291.349 543.599 289.914 536.172 286.522 539.053Z" fill="#CBC5EA"/>
<path d="M274.532 552.827C271.962 555.011 273.968 555.514 275.257 556.155C275.479 556.265 275.699 556.388 275.939 556.452C279.359 557.372 277.924 549.945 274.532 552.827Z" fill="#CBC5EA"/>
<path d="M278.917 528.159C276.346 530.343 278.353 530.846 279.641 531.487C279.864 531.597 280.084 531.72 280.324 531.784C283.744 532.704 282.309 525.277 278.917 528.159Z" fill="#CBC5EA"/>
<path d="M250.616 526.311C248.046 528.495 250.052 528.999 251.341 529.639C251.563 529.75 251.783 529.872 252.023 529.937C255.443 530.856 254.008 523.43 250.616 526.311Z" fill="#CBC5EA"/>
<path d="M255.688 533.577C253.118 535.761 255.125 536.264 256.413 536.905C256.636 537.015 256.855 537.138 257.096 537.202C260.515 538.122 259.08 530.695 255.688 533.577Z" fill="#CBC5EA"/>
<path d="M266.235 509.999C263.665 512.183 265.672 512.686 266.96 513.327C267.183 513.437 267.402 513.559 267.643 513.624C271.062 514.544 269.627 507.117 266.235 509.999Z" fill="#CBC5EA"/>
<path d="M285.835 507.12C283.264 509.304 285.271 509.807 286.559 510.448C286.782 510.558 287.002 510.681 287.242 510.745C290.662 511.665 289.226 504.238 285.835 507.12Z" fill="#CBC5EA"/>
<path d="M309.067 501.706C306.497 503.89 308.504 504.393 309.792 505.034C310.015 505.144 310.234 505.267 310.475 505.331C313.894 506.251 312.459 498.824 309.067 501.706Z" fill="#CBC5EA"/>
<path d="M246.294 496.913C243.723 499.097 245.73 499.6 247.018 500.241C247.241 500.351 247.461 500.474 247.701 500.538C251.121 501.458 249.685 494.031 246.294 496.913Z" fill="#CBC5EA"/>
<path d="M252.118 482.049C249.548 484.233 251.554 484.737 252.843 485.377C253.065 485.488 253.285 485.61 253.525 485.675C256.945 486.595 255.51 479.168 252.118 482.049Z" fill="#CBC5EA"/>
<path d="M265.55 478.069C262.979 480.253 264.986 480.757 266.274 481.397C266.497 481.508 266.717 481.63 266.957 481.694C270.377 482.614 268.941 475.187 265.55 478.069Z" fill="#CBC5EA"/>
<path d="M281.517 477.725C278.946 479.909 280.953 480.413 282.241 481.053C282.464 481.164 282.684 481.286 282.924 481.351C286.343 482.27 284.908 474.844 281.517 477.725Z" fill="#CBC5EA"/>
<path d="M269.931 453.397C267.36 455.581 269.367 456.085 270.655 456.725C270.878 456.836 271.098 456.958 271.338 457.023C274.758 457.942 273.322 450.516 269.931 453.397Z" fill="#CBC5EA"/>
<path d="M259.038 461.006C256.468 463.19 258.474 463.694 259.763 464.334C259.985 464.445 260.205 464.567 260.445 464.632C263.865 465.552 262.43 458.125 259.038 461.006Z" fill="#CBC5EA"/>
<path d="M263.765 452.303C261.194 454.487 263.201 454.991 264.489 455.631C264.712 455.742 264.932 455.864 265.172 455.929C268.592 456.849 267.156 449.422 263.765 452.303Z" fill="#CBC5EA"/>
<path d="M218.747 472.932C216.176 475.116 218.183 475.62 219.472 476.26C219.694 476.371 219.914 476.493 220.154 476.558C223.574 477.478 222.139 470.051 218.747 472.932Z" fill="#CBC5EA"/>
<path d="M234.366 456.624C231.796 458.808 233.802 459.311 235.091 459.952C235.313 460.062 235.533 460.184 235.773 460.249C239.193 461.169 237.758 453.742 234.366 456.624Z" fill="#CBC5EA"/>
<path d="M215.864 453.335C213.294 455.518 215.3 456.022 216.589 456.663C216.811 456.773 217.031 456.895 217.271 456.96C220.691 457.88 219.256 450.453 215.864 453.335Z" fill="#CBC5EA"/>
<path d="M202.433 457.311C199.862 459.495 201.869 459.999 203.157 460.639C203.38 460.75 203.6 460.872 203.84 460.937C207.26 461.856 205.824 454.43 202.433 457.311Z" fill="#CBC5EA"/>
<path d="M203.528 451.143C200.958 453.327 202.964 453.831 204.253 454.471C204.476 454.582 204.695 454.704 204.935 454.769C208.355 455.688 206.92 448.262 203.528 451.143Z" fill="#CBC5EA"/>
<path d="M267.05 433.799C264.479 435.983 266.486 436.487 267.774 437.127C267.997 437.238 268.217 437.36 268.457 437.425C271.877 438.345 270.441 430.918 267.05 433.799Z" fill="#CBC5EA"/>
<path d="M259.444 422.905C256.874 425.089 258.881 425.593 260.169 426.233C260.392 426.344 260.611 426.466 260.852 426.53C264.271 427.45 262.836 420.023 259.444 422.905Z" fill="#CBC5EA"/>
<path d="M243.134 407.284C240.563 409.468 242.57 409.971 243.858 410.612C244.081 410.722 244.301 410.845 244.541 410.909C247.961 411.829 246.525 404.402 243.134 407.284Z" fill="#CBC5EA"/>
<path d="M224.632 403.995C222.061 406.179 224.068 406.682 225.356 407.323C225.579 407.433 225.799 407.556 226.039 407.62C229.459 408.54 228.023 401.113 224.632 403.995Z" fill="#CBC5EA"/>
<path d="M218.809 418.866C216.239 421.05 218.246 421.553 219.534 422.194C219.757 422.305 219.976 422.427 220.217 422.491C223.636 423.411 222.201 415.984 218.809 418.866Z" fill="#CBC5EA"/>
<path d="M213.392 395.635C210.821 397.819 212.828 398.323 214.116 398.963C214.339 399.074 214.559 399.196 214.799 399.261C218.218 400.181 216.783 392.754 213.392 395.635Z" fill="#CBC5EA"/>
<path d="M176.729 405.026C174.159 407.21 176.166 407.714 177.454 408.354C177.677 408.465 177.896 408.587 178.137 408.651C181.556 409.571 180.121 402.145 176.729 405.026Z" fill="#CBC5EA"/>
<path d="M197.425 395.979C194.854 398.163 196.861 398.667 198.149 399.307C198.372 399.418 198.592 399.54 198.832 399.605C202.252 400.524 200.816 393.098 197.425 395.979Z" fill="#CBC5EA"/>
<path d="M213.05 379.671C210.479 381.854 212.486 382.358 213.774 382.998C213.997 383.109 214.217 383.231 214.457 383.296C217.877 384.216 216.441 376.789 213.05 379.671Z" fill="#CBC5EA"/>
<path d="M244.979 378.983C242.409 381.167 244.416 381.671 245.704 382.311C245.927 382.422 246.146 382.544 246.387 382.608C249.806 383.528 248.371 376.102 244.979 378.983Z" fill="#CBC5EA"/>
<path d="M226.479 375.698C223.909 377.882 225.916 378.385 227.204 379.026C227.427 379.137 227.646 379.259 227.887 379.323C231.306 380.243 229.871 372.816 226.479 375.698Z" fill="#CBC5EA"/>
<path d="M246.075 372.815C243.505 374.999 245.511 375.503 246.8 376.143C247.022 376.254 247.242 376.376 247.482 376.441C250.902 377.36 249.467 369.934 246.075 372.815Z" fill="#CBC5EA"/>
<path d="M209.071 366.241C206.501 368.425 208.507 368.928 209.796 369.569C210.019 369.68 210.238 369.802 210.478 369.866C213.898 370.786 212.463 363.359 209.071 366.241Z" fill="#CBC5EA"/>
<path d="M194.2 360.417C191.63 362.6 193.636 363.104 194.925 363.745C195.147 363.855 195.367 363.977 195.607 364.042C199.027 364.962 197.592 357.535 194.2 360.417Z" fill="#CBC5EA"/>
<path d="M167.341 368.366C164.77 370.55 166.777 371.053 168.065 371.694C168.288 371.805 168.508 371.927 168.748 371.991C172.168 372.911 170.732 365.484 167.341 368.366Z" fill="#CBC5EA"/>
<path d="M172.067 359.663C169.497 361.847 171.504 362.35 172.792 362.991C173.015 363.101 173.234 363.224 173.475 363.288C176.894 364.208 175.459 356.781 172.067 359.663Z" fill="#CBC5EA"/>
<path d="M215.989 345.202C213.419 347.386 215.425 347.889 216.714 348.53C216.936 348.64 217.156 348.763 217.396 348.827C220.816 349.747 219.381 342.32 215.989 345.202Z" fill="#CBC5EA"/>
<path d="M229.421 341.225C226.85 343.409 228.857 343.913 230.145 344.553C230.368 344.664 230.588 344.786 230.828 344.851C234.248 345.77 232.812 338.344 229.421 341.225Z" fill="#CBC5EA"/>
<path d="M202.558 349.178C199.987 351.362 201.994 351.866 203.282 352.506C203.505 352.617 203.725 352.739 203.965 352.804C207.385 353.724 205.949 346.297 202.558 349.178Z" fill="#CBC5EA"/>
<path d="M201.118 339.381C198.548 341.565 200.554 342.069 201.843 342.709C202.065 342.82 202.285 342.942 202.525 343.007C205.945 343.927 204.51 336.5 201.118 339.381Z" fill="#CBC5EA"/>
<path d="M188.438 321.221C185.868 323.405 187.875 323.909 189.163 324.549C189.386 324.66 189.605 324.782 189.846 324.847C193.265 325.767 191.83 318.34 188.438 321.221Z" fill="#CBC5EA"/>
<path d="M173.917 331.362C171.346 333.546 173.353 334.05 174.641 334.69C174.864 334.801 175.084 334.923 175.324 334.987C178.744 335.907 177.309 328.48 173.917 331.362Z" fill="#CBC5EA"/>
<path d="M161.579 329.174C159.009 331.358 161.015 331.862 162.304 332.502C162.526 332.613 162.746 332.735 162.986 332.8C166.406 333.72 164.971 326.293 161.579 329.174Z" fill="#CBC5EA"/>
<path d="M154.315 334.245C151.745 336.429 153.752 336.932 155.04 337.573C155.263 337.683 155.482 337.806 155.723 337.87C159.142 338.79 157.707 331.363 154.315 334.245Z" fill="#CBC5EA"/>
<path d="M176.106 319.026C173.536 321.21 175.543 321.714 176.831 322.354C177.054 322.465 177.273 322.587 177.514 322.651C180.933 323.571 179.498 316.145 176.106 319.026Z" fill="#CBC5EA"/>
<path d="M239.972 317.651C237.401 319.835 239.408 320.339 240.696 320.979C240.919 321.09 241.139 321.212 241.379 321.276C244.799 322.196 243.363 314.77 239.972 317.651Z" fill="#CBC5EA"/>
<path d="M230.579 280.991C228.009 283.175 230.015 283.678 231.304 284.319C231.526 284.43 231.746 284.552 231.986 284.616C235.406 285.536 233.971 278.109 230.579 280.991Z" fill="#CBC5EA"/>
<path d="M208.446 280.237C205.876 282.421 207.882 282.925 209.171 283.565C209.394 283.676 209.613 283.798 209.853 283.862C213.273 284.782 211.838 277.355 208.446 280.237Z" fill="#CBC5EA"/>
<path d="M197.55 287.846C194.979 290.03 196.986 290.534 198.274 291.174C198.497 291.285 198.717 291.407 198.957 291.472C202.377 292.392 200.941 284.965 197.55 287.846Z" fill="#CBC5EA"/>
<path d="M179.046 284.561C176.475 286.745 178.482 287.249 179.77 287.889C179.993 288 180.213 288.122 180.453 288.187C183.873 289.106 182.437 281.68 179.046 284.561Z" fill="#CBC5EA"/>
<path d="M164.52 294.702C161.95 296.886 163.957 297.389 165.245 298.03C165.468 298.14 165.687 298.263 165.928 298.327C169.347 299.247 167.912 291.82 164.52 294.702Z" fill="#CBC5EA"/>
<path d="M159.45 287.436C156.88 289.62 158.886 290.124 160.175 290.764C160.397 290.875 160.617 290.997 160.857 291.062C164.277 291.981 162.842 284.555 159.45 287.436Z" fill="#CBC5EA"/>
<path d="M169.655 247.901C167.085 250.085 169.091 250.589 170.38 251.229C170.603 251.34 170.822 251.462 171.062 251.526C174.482 252.446 173.047 245.02 169.655 247.901Z" fill="#CBC5EA"/>
<path d="M190.694 254.815C188.124 256.999 190.131 257.503 191.419 258.143C191.642 258.254 191.861 258.376 192.102 258.441C195.521 259.36 194.086 251.934 190.694 254.815Z" fill="#CBC5EA"/>
<path d="M197.206 271.881C194.635 274.065 196.642 274.569 197.93 275.209C198.153 275.32 198.373 275.442 198.613 275.507C202.033 276.427 200.598 269 197.206 271.881Z" fill="#CBC5EA"/>
<path d="M199.054 243.577C196.483 245.761 198.49 246.264 199.778 246.905C200.001 247.015 200.221 247.138 200.461 247.202C203.881 248.122 202.445 240.695 199.054 243.577Z" fill="#CBC5EA"/>
<path d="M239.686 247.62C237.116 249.804 239.123 250.307 240.411 250.948C240.634 251.058 240.853 251.181 241.094 251.245C244.513 252.165 243.078 244.738 239.686 247.62Z" fill="#CBC5EA"/>
<path d="M227.356 245.424C224.786 247.608 226.793 248.112 228.081 248.752C228.304 248.863 228.523 248.985 228.764 249.05C232.183 249.97 230.748 242.543 227.356 245.424Z" fill="#CBC5EA"/>
<path d="M234.616 240.354C232.046 242.538 234.052 243.042 235.341 243.682C235.563 243.793 235.783 243.915 236.023 243.98C239.443 244.899 238.008 237.473 234.616 240.354Z" fill="#CBC5EA"/>
<path d="M204.878 228.71C202.307 230.893 204.314 231.397 205.602 232.038C205.825 232.148 206.045 232.27 206.285 232.335C209.705 233.255 208.269 225.828 204.878 228.71Z" fill="#CBC5EA"/>
<path d="M188.565 213.088C185.995 215.272 188.002 215.776 189.29 216.416C189.513 216.527 189.732 216.649 189.973 216.714C193.392 217.634 191.957 210.207 188.565 213.088Z" fill="#CBC5EA"/>
<path d="M160.263 211.237C157.692 213.421 159.699 213.925 160.987 214.565C161.21 214.676 161.43 214.798 161.67 214.862C165.09 215.782 163.654 208.355 160.263 211.237Z" fill="#CBC5EA"/>
<path d="M167.524 206.171C164.954 208.354 166.961 208.858 168.249 209.498C168.472 209.609 168.691 209.731 168.932 209.796C172.351 210.716 170.916 203.289 167.524 206.171Z" fill="#CBC5EA"/>
<path d="M205.628 206.573C203.057 208.757 205.064 209.26 206.352 209.901C206.575 210.012 206.795 210.134 207.035 210.198C210.455 211.118 209.019 203.691 205.628 206.573Z" fill="#CBC5EA"/>
<path d="M201.653 193.143C199.083 195.327 201.089 195.831 202.378 196.471C202.601 196.582 202.82 196.704 203.06 196.769C206.48 197.688 205.045 190.262 201.653 193.143Z" fill="#CBC5EA"/>
<path d="M219.058 202.6C216.487 204.784 218.494 205.288 219.782 205.928C220.005 206.039 220.225 206.161 220.465 206.226C223.885 207.145 222.449 199.719 219.058 202.6Z" fill="#CBC5EA"/>
<path d="M241.536 219.319C238.966 221.503 240.972 222.007 242.261 222.647C242.483 222.758 242.703 222.88 242.943 222.944C246.363 223.864 244.928 216.437 241.536 219.319Z" fill="#CBC5EA"/>
<path d="M247.362 204.448C244.792 206.632 246.798 207.135 248.087 207.776C248.31 207.887 248.529 208.009 248.769 208.073C252.189 208.993 250.754 201.566 247.362 204.448Z" fill="#CBC5EA"/>
<path d="M231.392 204.792C228.821 206.975 230.828 207.479 232.116 208.12C232.339 208.23 232.559 208.352 232.799 208.417C236.218 209.337 234.783 201.91 231.392 204.792Z" fill="#CBC5EA"/>
<path d="M201.306 177.178C198.735 179.362 200.742 179.866 202.03 180.506C202.253 180.617 202.473 180.739 202.713 180.804C206.133 181.724 204.697 174.297 201.306 177.178Z" fill="#CBC5EA"/>
<path d="M183.899 167.721C181.329 169.905 183.336 170.409 184.624 171.049C184.847 171.16 185.066 171.282 185.307 171.347C188.726 172.267 187.291 164.84 183.899 167.721Z" fill="#CBC5EA"/>
<path d="M167.936 168.069C165.366 170.253 167.373 170.757 168.661 171.397C168.884 171.508 169.103 171.63 169.344 171.694C172.763 172.614 171.328 165.187 167.936 168.069Z" fill="#CBC5EA"/>
<path d="M207.128 162.311C204.557 164.495 206.564 164.999 207.852 165.639C208.075 165.75 208.295 165.872 208.535 165.937C211.955 166.856 210.519 159.43 207.128 162.311Z" fill="#CBC5EA"/>
<path d="M251.743 179.776C249.173 181.96 251.179 182.464 252.468 183.104C252.69 183.215 252.91 183.337 253.15 183.401C256.57 184.321 255.135 176.895 251.743 179.776Z" fill="#CBC5EA"/>
<path d="M250.302 169.975C247.731 172.159 249.738 172.663 251.026 173.303C251.249 173.414 251.469 173.536 251.709 173.601C255.129 174.52 253.693 167.094 250.302 169.975Z" fill="#CBC5EA"/>
<path d="M212.954 147.436C210.384 149.62 212.39 150.124 213.679 150.764C213.901 150.875 214.121 150.997 214.361 151.062C217.781 151.981 216.346 144.555 212.954 147.436Z" fill="#CBC5EA"/>
<path d="M189.376 136.885C186.805 139.069 188.812 139.573 190.1 140.213C190.323 140.324 190.543 140.446 190.783 140.511C194.203 141.431 192.767 134.004 189.376 136.885Z" fill="#CBC5EA"/>
<path d="M168.341 129.963C165.77 132.147 167.777 132.651 169.065 133.291C169.288 133.402 169.508 133.524 169.748 133.589C173.168 134.509 171.732 127.082 168.341 129.963Z" fill="#CBC5EA"/>
<path d="M200.274 129.28C197.704 131.464 199.711 131.968 200.999 132.608C201.222 132.719 201.441 132.841 201.682 132.905C205.101 133.825 203.666 126.398 200.274 129.28Z" fill="#CBC5EA"/>
<path d="M208.977 134.006C206.407 136.19 208.414 136.694 209.702 137.334C209.925 137.445 210.144 137.567 210.385 137.632C213.804 138.552 212.369 131.125 208.977 134.006Z" fill="#CBC5EA"/>
<path d="M252.147 141.678C249.577 143.862 251.584 144.366 252.872 145.006C253.095 145.117 253.314 145.239 253.555 145.304C256.974 146.224 255.539 138.797 252.147 141.678Z" fill="#CBC5EA"/>
<path d="M199.585 97.3424C197.014 99.5263 199.021 100.03 200.309 100.67C200.532 100.781 200.752 100.903 200.992 100.968C204.412 101.888 202.976 94.4609 199.585 97.3424Z" fill="#CBC5EA"/>
<path d="M186.153 101.323C183.583 103.507 185.589 104.01 186.878 104.651C187.101 104.762 187.32 104.884 187.56 104.948C190.98 105.868 189.545 98.4414 186.153 101.323Z" fill="#CBC5EA"/>
<path d="M184.716 91.5221C182.145 93.7059 184.152 94.2097 185.44 94.85C185.663 94.9608 185.883 95.0829 186.123 95.1475C189.543 96.0673 188.107 88.6406 184.716 91.5221Z" fill="#CBC5EA"/>
<path d="M268.522 103.229C265.952 105.413 267.959 105.917 269.247 106.557C269.47 106.668 269.689 106.79 269.93 106.855C273.349 107.774 271.914 100.348 268.522 103.229Z" fill="#CBC5EA"/>
<path d="M248.235 74.1783C245.665 76.3622 247.672 76.8659 248.96 77.5063C249.183 77.617 249.402 77.7392 249.643 77.8038C253.062 78.7236 251.627 71.2969 248.235 74.1783Z" fill="#CBC5EA"/>
<path d="M261.667 70.2018C259.096 72.3856 261.103 72.8894 262.391 73.5297C262.614 73.6405 262.834 73.7626 263.074 73.8272C266.494 74.747 265.059 67.3203 261.667 70.2018Z" fill="#CBC5EA"/>
<path d="M198.897 65.4088C196.327 67.5927 198.334 68.0964 199.622 68.7368C199.845 68.8475 200.064 68.9696 200.305 69.0343C203.724 69.9541 202.289 62.5273 198.897 65.4088Z" fill="#CBC5EA"/>
<path d="M222.47 75.9635C219.899 78.1473 221.906 78.6511 223.194 79.2914C223.417 79.4022 223.637 79.5243 223.877 79.5889C227.297 80.5088 225.861 73.082 222.47 75.9635Z" fill="#CBC5EA"/>
<path d="M233.708 84.3229C231.137 86.5067 233.144 87.0105 234.432 87.6508C234.655 87.7615 234.875 87.8837 235.115 87.9483C238.535 88.8681 237.1 81.4414 233.708 84.3229Z" fill="#CBC5EA"/>
<path d="M244.263 60.7447C241.692 62.9286 243.699 63.4323 244.987 64.0727C245.21 64.1834 245.43 64.3056 245.67 64.3702C249.09 65.29 247.654 57.8633 244.263 60.7447Z" fill="#CBC5EA"/>
<path d="M224.317 47.6588C221.747 49.8427 223.754 50.3464 225.042 50.9868C225.265 51.0975 225.484 51.2196 225.725 51.2843C229.144 52.2041 227.709 44.7773 224.317 47.6588Z" fill="#CBC5EA"/>
<path d="M209.448 41.8385C206.878 44.0223 208.884 44.5261 210.173 45.1664C210.395 45.2772 210.615 45.3993 210.855 45.4639C214.275 46.3838 212.84 38.957 209.448 41.8385Z" fill="#CBC5EA"/>
<path d="M225.069 25.526C222.499 27.7098 224.506 28.2136 225.794 28.8539C226.017 28.9647 226.236 29.0868 226.477 29.1514C229.896 30.0713 228.461 22.6445 225.069 25.526Z" fill="#CBC5EA"/>
<path d="M236.308 33.8854C233.737 36.0692 235.744 36.573 237.032 37.2133C237.255 37.324 237.475 37.4462 237.715 37.5108C241.135 38.4306 239.699 31.0039 236.308 33.8854Z" fill="#CBC5EA"/>
<path d="M241.38 41.1471C238.809 43.3309 240.816 43.8347 242.104 44.475C242.327 44.5858 242.547 44.7079 242.787 44.7725C246.207 45.6923 244.771 38.2656 241.38 41.1471Z" fill="#CBC5EA"/>
<path d="M283.456 54.9869C280.885 57.1708 282.892 57.6745 284.18 58.3149C284.403 58.4256 284.623 58.5478 284.863 58.6124C288.283 59.5322 286.848 52.1055 283.456 54.9869Z" fill="#CBC5EA"/>
<path d="M260.977 38.2682C258.407 40.452 260.414 40.9558 261.702 41.5961C261.925 41.7069 262.144 41.829 262.385 41.8936C265.804 42.8134 264.369 35.3867 260.977 38.2682Z" fill="#CBC5EA"/>
<path d="M312.227 591.335C309.657 593.518 311.664 594.022 312.952 594.663C313.175 594.773 313.394 594.895 313.635 594.96C317.054 595.88 315.619 588.453 312.227 591.335Z" fill="#CBC5EA"/>
</svg>
