<svg width="959" height="716" viewBox="0 0 959 716" fill="none" xmlns="http://www.w3.org/2000/svg">
<path d="M39.276 30.1083C67.665 60.1083 61.464 27.8533 54.815 7.97534C49.699 -5.05566 71.544 -2.30666 79.748 17.6133C87.952 37.5333 68.134 40.9273 84.381 53.9073C100.628 66.8873 85.699 24.9384 105.099 24.3974C124.498 23.8574 120.284 36.6323 113.657 61.8743C107.03 87.1153 129.164 75.9073 127.233 65.1123C125.303 54.3163 131.737 38.3793 143.93 39.0723C156.122 39.7663 155.64 63.0283 147.501 74.6213C139.362 86.2143 149.979 93.6683 159.309 93.9243C168.638 94.1813 160.434 74.2603 171.115 61.3053C181.795 48.3503 201.356 74.6694 184.209 87.8054C167.062 100.941 186.526 131.913 191.995 110.579C197.463 89.2443 207.533 88.4473 213.259 89.3203C218.986 90.1943 225.903 102.918 210.557 115.744C195.212 128.571 215.931 150.984 223.426 135.793C230.922 120.601 237.903 112.915 248.938 117.516C257.766 121.196 256.026 127.737 254.053 130.547C247.78 138.73 236.572 156.35 241.925 161.367C247.279 166.384 250.654 161.727 251.673 158.771C257.024 148.892 269.765 131.195 277.924 139.44C288.123 149.747 286.868 158.306 271.941 168.281C257.014 178.255 258.719 182.598 270.397 190.797C282.076 198.996 287.801 147.947 307.233 163.163C326.665 178.379 315.019 185.936 298.193 200.871C281.368 215.806 293.594 232.256 307.652 212.232C321.71 192.208 329.56 194.572 336.027 194.392C342.493 194.211 355.362 214.26 323.159 226.265C290.956 238.271 316.886 269.063 336.993 251.712C353.078 237.831 362.762 238.336 365.593 240.323C382.503 255.971 361.722 265.402 349.218 268.162C319.106 265.901 332.04 317.463 357.326 292.734C377.555 272.951 389.904 274.174 393.551 277.259C413.343 292.413 394.849 307.015 383.128 312.422C371.192 316.63 351.356 327.877 367.493 339.207C387.665 353.369 393.487 297.668 413.562 316.482C433.637 335.296 415.332 352.339 392.555 359.949C369.778 367.558 376.695 380.282 386.99 385.936C397.285 391.59 411.44 366.914 427.879 370.588C441.031 373.528 439.6 382.489 437.241 386.601C418.422 411.15 398.893 400.587 393.843 419.068C388.792 437.55 403.849 438.68 421.317 427.343C438.786 416.007 467.226 429.68 456.127 445.488C445.028 461.297 438.658 456.825 417.683 464.126C400.902 469.967 402.734 480.903 405.748 485.641C408.161 490.482 418.938 497.105 442.744 484.868C466.551 472.631 476.771 483.058 478.905 489.801C480.685 496.296 476.254 510.282 444.289 514.273C404.333 519.262 412.633 534.53 418.263 540.056C423.893 545.582 458.38 510.006 473.276 536.197C488.172 562.389 449.052 561.672 424.891 566.737C405.563 570.789 408.945 579.667 413.052 583.599C451.562 596.475 454.36 565.398 469.674 588.737C481.925 607.408 465.621 611.065 455.937 610.56C438.157 608.042 405.467 606.595 416.946 620.947C431.295 638.888 473.213 608.529 473.149 628.938C473.098 645.265 462.34 648.097 456.967 647.472C437.171 644.063 400.661 640.982 412.989 655.931C428.4 674.617 467.68 650.273 465.075 672.044C462.47 693.816 442.716 676.801 420.454 676.905C402.644 676.988 422.448 684.599 434.577 688.394C470.545 702.632 429.334 716.18 418.074 705.128C409.065 696.286 400.336 706.311 397.098 712.429C367.79 688.706 362.546 716.492 344.594 699.169C330.233 685.31 342.471 680.371 350.385 679.633C361.484 681.132 383.212 682.541 381.333 676.187C379.455 669.833 358.417 667.441 348.133 667.038C331.789 658.711 336.325 647.735 363.156 652.412C384.621 656.153 388.057 646.293 387.091 640.895C386.555 637.896 380.799 632.701 362.062 635.91C343.326 639.119 338.405 628.217 338.287 622.365C337.815 616.265 341.942 605.421 362.222 610.848C382.503 616.276 390.876 608.414 392.528 603.804C396.98 583.014 383.616 583.387 376.377 586.172C365.027 593.308 347.97 588.255 340.86 584.837C336.614 581.856 330.552 572.88 340.281 560.829C352.441 545.766 372.227 578.538 387.025 557.46C398.864 540.597 384.087 537.565 375.218 538.156C359.004 540.933 326.884 541.984 328.119 523.97C329.663 501.454 367.85 512.53 372.837 514.457C376.826 515.999 382.692 512.46 385.126 510.498C395.858 491.6 378.402 488.47 368.333 489.268C327.051 499.305 319.239 484.695 320.494 476.135C320.022 470.035 322.514 458.358 336.257 460.455C353.437 463.076 371.581 471.095 371.227 453.539C370.944 439.494 348.761 440.388 337.705 442.591C328.45 444.485 310.462 443.918 312.546 426.501C315.152 404.73 361.414 424.622 361.8 406.012C362.109 391.124 352.084 389.751 347.033 390.925C334.572 397.386 307.289 406.447 297.844 391.005C286.036 371.702 325.993 366.713 335.322 366.969C344.652 367.226 345.971 338.257 331.043 348.231C316.116 358.205 295.559 362.653 290.99 357.872C286.422 353.092 273.135 335.896 293.692 331.448C314.25 327 325.477 322.296 321.745 311.809C318.759 303.419 311.236 304.955 307.847 306.772C283.963 322.73 270.057 316.953 266.089 312.069C252.255 286.623 319.268 292.762 301.734 272.586C284.2 252.409 265.413 292.714 247.043 278.244C232.347 266.667 245.766 258.991 254.313 256.6C266.785 255.391 288.987 250.105 278.023 238.632C264.318 224.29 245.209 262.795 226.839 248.325C212.143 236.749 225.841 227.171 234.527 223.829C244.168 220.632 262.13 212.055 256.854 203.315C251.577 194.576 237.497 207.558 231.117 215.141C200.104 238.996 189.005 202.882 204.479 201.159C216.858 199.781 226.366 190.302 229.572 185.735C237.756 165.048 221.593 172.267 212.489 178.462C203.428 188.359 183.645 205.098 177.005 192.884C168.704 177.616 178.774 176.819 192.961 167.899C207.148 158.979 208.628 156.871 200.135 150.908C193.34 146.138 190.097 150.154 189.325 152.759C177.667 174.783 161.948 174.446 155.546 171.525C151.793 167.841 147.567 158.057 160.693 148.391C177.1 136.309 178.676 129.549 169.443 124.64C162.056 120.713 144.06 136.714 135.985 145.205C130.195 147.433 117.442 149.494 112.758 139.911C106.902 127.934 131.288 129.32 136.242 115.491C140.205 104.428 132.939 107.403 128.81 110.274C126.344 113.787 118.87 122.175 108.704 127.625C95.996 134.437 93.004 122.896 93.422 120.043C93.757 117.761 102.87 108.844 107.384 104.671C121.333 82.9973 105.475 87.0733 95.802 91.8203C86.13 96.5673 70.703 114.477 57.036 108.658C43.37 102.84 64.661 87.2643 77.014 80.2033C81.422 75.4303 86.421 66.3533 71.159 68.2253C52.081 70.5653 40.179 107.837 25.187 86.2983C10.194 64.7583 53.883 70.2573 46.644 55.7343C39.405 41.2123 -9.01198 55.9943 1.86102 33.7343C10.56 15.9263 30.429 23.8963 39.276 30.1083Z" fill="#73628A"/>
<path d="M63.2322 11.9513C65.4572 8.04232 62.7132 8.32732 60.8072 8.11232C60.4772 8.07532 60.1462 8.02231 59.8152 8.05131C55.1112 8.45831 60.2972 17.1083 63.2322 11.9513Z" fill="#CBC5EA"/>
<path d="M77.7332 22.1316C79.9582 18.2226 77.2142 18.5066 75.3082 18.2926C74.9782 18.2546 74.6472 18.2026 74.3162 18.2306C69.6122 18.6376 74.7982 27.2886 77.7332 22.1316Z" fill="#CBC5EA"/>
<path d="M73.823 48.2487C76.047 44.3397 73.303 44.6237 71.397 44.4097C71.068 44.3727 70.7371 44.3197 70.4061 44.3477C65.7021 44.7557 70.888 53.4057 73.823 48.2487Z" fill="#CBC5EA"/>
<path d="M66.1141 28.4005C68.3391 24.4925 65.5941 24.7765 63.6881 24.5615C63.3591 24.5245 63.0281 24.4715 62.6971 24.5005C57.9931 24.9075 63.1791 33.5575 66.1141 28.4005Z" fill="#CBC5EA"/>
<path d="M76.7049 64.7013C78.9289 60.7923 76.1849 61.0773 74.2789 60.8623C73.9499 60.8253 73.6189 60.7723 73.2879 60.8013C68.5839 61.2083 73.7699 69.8583 76.7049 64.7013Z" fill="#CBC5EA"/>
<path d="M67.0379 57.9167C69.2619 54.0077 66.5179 54.2917 64.6119 54.0777C64.2829 54.0407 63.9519 53.9877 63.6209 54.0157C58.9169 54.4237 64.1029 63.0737 67.0379 57.9167Z" fill="#CBC5EA"/>
<path d="M58.5418 68.2326C60.7658 64.3246 58.0218 64.6086 56.1158 64.3936C55.7858 64.3566 55.4548 64.3036 55.1248 64.3326C50.4208 64.7396 55.6068 73.3896 58.5418 68.2326Z" fill="#CBC5EA"/>
<path d="M28.785 81.5724C31.009 77.6644 28.265 77.9484 26.359 77.7334C26.03 77.6964 25.699 77.6434 25.368 77.6724C20.664 78.0794 25.85 86.7294 28.785 81.5724Z" fill="#CBC5EA"/>
<path d="M50.074 82.0807C52.298 78.1717 49.554 78.4567 47.648 78.2417C47.319 78.2047 46.988 78.1517 46.657 78.1797C41.953 78.5877 47.139 87.2377 50.074 82.0807Z" fill="#CBC5EA"/>
<path d="M34.643 42.3898C36.868 38.4808 34.124 38.7648 32.218 38.5498C31.888 38.5128 31.557 38.4598 31.227 38.4888C26.522 38.8958 31.708 47.5468 34.643 42.3898Z" fill="#CBC5EA"/>
<path d="M24.977 35.6037C27.202 31.6957 24.458 31.9796 22.552 31.7646C22.222 31.7276 21.891 31.6747 21.561 31.7037C16.856 32.1107 22.042 40.7607 24.977 35.6037Z" fill="#CBC5EA"/>
<path d="M15.5418 41.2326C17.7658 37.3246 15.0218 37.6086 13.1158 37.3936C12.7858 37.3566 12.4548 37.3036 12.1248 37.3326C7.4208 37.7396 12.6068 46.3896 15.5418 41.2326Z" fill="#CBC5EA"/>
<path d="M101.899 39.0998C104.124 35.1918 101.38 35.4758 99.4742 35.2608C99.1442 35.2238 98.8132 35.1707 98.4822 35.1997C93.7782 35.6067 98.9642 44.2578 101.899 39.0998Z" fill="#CBC5EA"/>
<path d="M114.962 41.0539C117.186 37.1449 114.442 37.4289 112.536 37.2139C112.206 37.1769 111.875 37.1239 111.545 37.1529C106.841 37.5599 112.026 46.2109 114.962 41.0539Z" fill="#CBC5EA"/>
<path d="M113.007 54.1076C115.231 50.1996 112.487 50.4836 110.581 50.2686C110.251 50.2316 109.92 50.1786 109.59 50.2076C104.886 50.6146 110.071 59.2646 113.007 54.1076Z" fill="#CBC5EA"/>
<path d="M104.267 76.8346C106.492 72.9256 103.748 73.2096 101.842 72.9956C101.512 72.9586 101.181 72.9056 100.851 72.9336C96.1466 73.3416 101.332 81.9916 104.267 76.8346Z" fill="#CBC5EA"/>
<path d="M91.2068 74.8816C93.4308 70.9726 90.6868 71.2566 88.7808 71.0426C88.4518 71.0046 88.1208 70.9526 87.7898 70.9806C83.0858 71.3876 88.2718 80.0386 91.2068 74.8816Z" fill="#CBC5EA"/>
<path d="M97.4861 86.5066C99.7111 82.5976 96.9671 82.8816 95.0601 82.6676C94.7311 82.6296 94.4001 82.5776 94.0691 82.6056C89.3651 83.0126 94.5511 91.6636 97.4861 86.5066Z" fill="#CBC5EA"/>
<path d="M77.6338 94.2136C79.8588 90.3046 77.1148 90.5887 75.2088 90.3747C74.8788 90.3367 74.5478 90.2846 74.2178 90.3126C69.5138 90.7206 74.6988 99.3706 77.6338 94.2136Z" fill="#CBC5EA"/>
<path d="M71.5418 102.233C73.7658 98.3246 71.0218 98.6086 69.1158 98.3936C68.7858 98.3566 68.4548 98.3036 68.1248 98.3326C63.4208 98.7396 68.6068 107.39 71.5418 102.233Z" fill="#CBC5EA"/>
<path d="M103.542 124.233C105.766 120.325 103.022 120.609 101.116 120.394C100.786 120.357 100.455 120.304 100.125 120.333C95.4208 120.74 100.607 129.39 103.542 124.233Z" fill="#CBC5EA"/>
<path d="M111.469 117.975C113.694 114.067 110.95 114.351 109.044 114.136C108.714 114.099 108.383 114.046 108.053 114.075C103.349 114.482 108.534 123.133 111.469 117.975Z" fill="#CBC5EA"/>
<path d="M125.039 98.6355C127.263 94.7265 124.519 95.0105 122.613 94.7955C122.284 94.7585 121.953 94.7065 121.622 94.7345C116.918 95.1415 122.104 103.793 125.039 98.6355Z" fill="#CBC5EA"/>
<path d="M115.373 91.8537C117.597 87.9457 114.853 88.2297 112.947 88.0147C112.618 87.9777 112.287 87.9247 111.956 87.9537C107.252 88.3607 112.438 97.0107 115.373 91.8537Z" fill="#CBC5EA"/>
<path d="M142.526 53.1789C144.751 49.2699 142.007 49.5539 140.1 49.3389C139.771 49.3019 139.44 49.2489 139.109 49.2779C134.405 49.6849 139.591 58.3359 142.526 53.1789Z" fill="#CBC5EA"/>
<path d="M131.832 88.9675C134.056 85.0585 131.312 85.3426 129.406 85.1286C129.077 85.0906 128.746 85.0385 128.415 85.0665C123.711 85.4735 128.897 94.1245 131.832 88.9675Z" fill="#CBC5EA"/>
<path d="M140.572 66.2448C142.797 62.3358 140.053 62.6208 138.146 62.4058C137.817 62.3688 137.486 62.3158 137.155 62.3438C132.451 62.7518 137.637 71.4018 140.572 66.2448Z" fill="#CBC5EA"/>
<path d="M146.328 99.1466C148.552 95.2386 145.808 95.5226 143.902 95.3076C143.573 95.2706 143.242 95.2176 142.911 95.2466C138.207 95.6536 143.393 104.304 146.328 99.1466Z" fill="#CBC5EA"/>
<path d="M182.629 88.5539C184.853 84.6449 182.109 84.9289 180.203 84.7139C179.873 84.6769 179.542 84.6239 179.212 84.6529C174.508 85.0599 179.693 93.7109 182.629 88.5539Z" fill="#CBC5EA"/>
<path d="M172.963 81.7677C175.187 77.8597 172.443 78.1437 170.537 77.9287C170.207 77.8917 169.876 77.8387 169.546 77.8677C164.842 78.2747 170.027 86.9257 172.963 81.7677Z" fill="#CBC5EA"/>
<path d="M170.501 116.115C172.725 112.207 169.981 112.491 168.075 112.276C167.745 112.239 167.414 112.186 167.084 112.215C162.38 112.622 167.566 121.272 170.501 116.115Z" fill="#CBC5EA"/>
<path d="M147.257 128.663C149.481 124.754 146.737 125.039 144.831 124.824C144.501 124.787 144.17 124.734 143.84 124.762C139.136 125.17 144.321 133.82 147.257 128.663Z" fill="#CBC5EA"/>
<path d="M126.542 138.233C128.766 134.325 126.022 134.609 124.116 134.394C123.786 134.357 123.455 134.304 123.125 134.333C118.421 134.74 123.607 143.39 126.542 138.233Z" fill="#CBC5EA"/>
<path d="M201.452 123.421C203.676 119.512 200.932 119.796 199.026 119.582C198.697 119.545 198.366 119.492 198.035 119.52C193.331 119.928 198.517 128.578 201.452 123.421Z" fill="#CBC5EA"/>
<path d="M200.937 144.701C203.162 140.792 200.418 141.077 198.512 140.862C198.182 140.825 197.851 140.772 197.521 140.801C192.816 141.208 198.002 149.858 200.937 144.701Z" fill="#CBC5EA"/>
<path d="M185.924 155.811C188.148 151.903 185.404 152.187 183.498 151.972C183.168 151.935 182.837 151.882 182.507 151.911C177.803 152.318 182.988 160.968 185.924 155.811Z" fill="#CBC5EA"/>
<path d="M166.074 163.522C168.298 159.614 165.554 159.898 163.648 159.683C163.319 159.646 162.988 159.593 162.657 159.622C157.953 160.029 163.139 168.679 166.074 163.522Z" fill="#CBC5EA"/>
<path d="M191.686 188.718C193.911 184.809 191.167 185.093 189.261 184.879C188.931 184.841 188.6 184.789 188.27 184.817C183.565 185.224 188.751 193.875 191.686 188.718Z" fill="#CBC5EA"/>
<path d="M201.863 174.222C204.088 170.313 201.344 170.597 199.437 170.382C199.108 170.345 198.777 170.292 198.446 170.321C193.742 170.728 198.928 179.379 201.863 174.222Z" fill="#CBC5EA"/>
<path d="M199.911 187.279C202.135 183.371 199.391 183.655 197.485 183.44C197.156 183.403 196.825 183.35 196.494 183.379C191.79 183.786 196.976 192.436 199.911 187.279Z" fill="#CBC5EA"/>
<path d="M246.906 140.904C249.131 136.996 246.386 137.28 244.48 137.065C244.151 137.028 243.82 136.975 243.489 137.004C238.785 137.411 243.971 146.061 246.906 140.904Z" fill="#CBC5EA"/>
<path d="M234.775 168.464C237 164.555 234.256 164.839 232.349 164.625C232.02 164.587 231.689 164.535 231.358 164.563C226.654 164.971 231.84 173.621 234.775 168.464Z" fill="#CBC5EA"/>
<path d="M259.455 164.14C261.679 160.231 258.935 160.515 257.029 160.3C256.7 160.263 256.369 160.21 256.038 160.239C251.334 160.646 256.52 169.297 259.455 164.14Z" fill="#CBC5EA"/>
<path d="M274.47 153.029C276.695 149.121 273.951 149.405 272.045 149.19C271.715 149.153 271.384 149.1 271.054 149.129C266.35 149.536 271.535 158.186 274.47 153.029Z" fill="#CBC5EA"/>
<path d="M275.91 161.261C278.134 157.352 275.39 157.636 273.484 157.421C273.155 157.384 272.824 157.332 272.493 157.36C267.789 157.767 272.975 166.418 275.91 161.261Z" fill="#CBC5EA"/>
<path d="M204.233 211.96C206.458 208.051 203.714 208.335 201.808 208.121C201.478 208.084 201.147 208.031 200.816 208.059C196.112 208.467 201.298 217.117 204.233 211.96Z" fill="#CBC5EA"/>
<path d="M218.542 214.233C220.766 210.325 218.022 210.609 216.116 210.394C215.786 210.357 215.455 210.304 215.125 210.333C210.421 210.74 215.607 219.39 218.542 214.233Z" fill="#CBC5EA"/>
<path d="M246.293 234.276C248.517 230.368 245.773 230.652 243.867 230.437C243.537 230.4 243.206 230.347 242.876 230.376C238.172 230.783 243.358 239.433 246.293 234.276Z" fill="#CBC5EA"/>
<path d="M270.972 229.96C273.197 226.051 270.453 226.335 268.547 226.121C268.217 226.084 267.886 226.031 267.556 226.059C262.852 226.467 268.037 235.117 270.972 229.96Z" fill="#CBC5EA"/>
<path d="M271.487 208.671C273.712 204.762 270.968 205.046 269.061 204.832C268.732 204.795 268.401 204.742 268.07 204.77C263.366 205.178 268.552 213.828 271.487 208.671Z" fill="#CBC5EA"/>
<path d="M288.869 235.304C291.093 231.395 288.349 231.679 286.443 231.464C286.114 231.427 285.783 231.374 285.452 231.403C280.748 231.81 285.934 240.461 288.869 235.304Z" fill="#CBC5EA"/>
<path d="M330.518 206.815C332.743 202.907 329.999 203.191 328.093 202.976C327.763 202.939 327.432 202.886 327.102 202.915C322.397 203.322 327.583 211.972 330.518 206.815Z" fill="#CBC5EA"/>
<path d="M308.717 227.589C310.941 223.68 308.197 223.964 306.291 223.75C305.961 223.712 305.63 223.66 305.3 223.688C300.596 224.096 305.781 232.746 308.717 227.589Z" fill="#CBC5EA"/>
<path d="M296.578 255.151C298.802 251.243 296.058 251.527 294.152 251.312C293.823 251.275 293.492 251.222 293.161 251.251C288.457 251.658 293.643 260.308 296.578 255.151Z" fill="#CBC5EA"/>
<path d="M256.889 270.576C259.114 266.667 256.37 266.952 254.464 266.737C254.134 266.7 253.803 266.647 253.473 266.676C248.769 267.083 253.954 275.733 256.889 270.576Z" fill="#CBC5EA"/>
<path d="M281.567 266.257C283.792 262.348 281.048 262.632 279.141 262.418C278.812 262.38 278.481 262.328 278.15 262.356C273.446 262.763 278.632 271.414 281.567 266.257Z" fill="#CBC5EA"/>
<path d="M258.327 278.8C260.551 274.891 257.807 275.175 255.901 274.961C255.572 274.923 255.241 274.871 254.91 274.899C250.206 275.306 255.392 283.957 258.327 278.8Z" fill="#CBC5EA"/>
<path d="M307.688 270.167C309.913 266.258 307.169 266.542 305.263 266.328C304.933 266.291 304.602 266.238 304.271 266.266C299.567 266.674 304.753 275.324 307.688 270.167Z" fill="#CBC5EA"/>
<path d="M328.977 270.679C331.202 266.77 328.458 267.054 326.552 266.839C326.222 266.802 325.891 266.749 325.561 266.778C320.856 267.185 326.042 275.836 328.977 270.679Z" fill="#CBC5EA"/>
<path d="M359.004 248.468C361.228 244.559 358.484 244.843 356.578 244.629C356.248 244.591 355.917 244.539 355.587 244.567C350.883 244.974 356.068 253.625 359.004 248.468Z" fill="#CBC5EA"/>
<path d="M357.051 261.522C359.276 257.614 356.532 257.898 354.626 257.683C354.296 257.646 353.965 257.593 353.635 257.622C348.931 258.029 354.116 266.679 357.051 261.522Z" fill="#CBC5EA"/>
<path d="M308.616 299.679C310.84 295.77 308.096 296.054 306.19 295.839C305.861 295.802 305.53 295.749 305.199 295.778C300.495 296.185 305.681 304.836 308.616 299.679Z" fill="#CBC5EA"/>
<path d="M293.603 310.788C295.828 306.879 293.084 307.164 291.178 306.949C290.848 306.912 290.517 306.859 290.187 306.887C285.482 307.295 290.668 315.945 293.603 310.788Z" fill="#CBC5EA"/>
<path d="M323.632 288.569C325.856 284.661 323.112 284.945 321.206 284.73C320.876 284.693 320.545 284.639 320.215 284.668C315.511 285.075 320.696 293.726 323.632 288.569Z" fill="#CBC5EA"/>
<path d="M329.905 300.186C332.13 296.278 329.386 296.562 327.479 296.347C327.15 296.31 326.819 296.257 326.488 296.286C321.784 296.693 326.97 305.343 329.905 300.186Z" fill="#CBC5EA"/>
<path d="M354.072 317.154C356.297 313.246 353.553 313.53 351.646 313.315C351.317 313.278 350.986 313.225 350.655 313.254C345.951 313.661 351.137 322.311 354.072 317.154Z" fill="#CBC5EA"/>
<path d="M367.641 297.826C369.866 293.917 367.122 294.202 365.216 293.987C364.886 293.95 364.555 293.897 364.225 293.926C359.521 294.333 364.706 302.983 367.641 297.826Z" fill="#CBC5EA"/>
<path d="M384.096 294.94C386.321 291.032 383.577 291.316 381.671 291.101C381.341 291.064 381.01 291.011 380.68 291.04C375.976 291.447 381.161 300.097 384.096 294.94Z" fill="#CBC5EA"/>
<path d="M390.884 285.276C393.108 281.368 390.364 281.652 388.458 281.437C388.128 281.4 387.797 281.347 387.467 281.376C382.763 281.783 387.948 290.433 390.884 285.276Z" fill="#CBC5EA"/>
<path d="M370.525 314.279C372.75 310.371 370.006 310.655 368.099 310.44C367.77 310.403 367.439 310.35 367.108 310.379C362.404 310.786 367.59 319.436 370.525 314.279Z" fill="#CBC5EA"/>
<path d="M291.133 345.136C293.357 341.227 290.613 341.51 288.707 341.295C288.377 341.258 288.046 341.207 287.716 341.235C283.012 341.642 288.197 350.293 291.133 345.136Z" fill="#CBC5EA"/>
<path d="M319.624 386.779C321.848 382.871 319.104 383.155 317.198 382.94C316.868 382.903 316.538 382.85 316.207 382.879C311.503 383.286 316.689 391.936 319.624 386.779Z" fill="#CBC5EA"/>
<path d="M347.696 377.628C349.921 373.719 347.177 374.003 345.27 373.789C344.941 373.752 344.61 373.699 344.279 373.727C339.575 374.135 344.761 382.785 347.696 377.628Z" fill="#CBC5EA"/>
<path d="M357.88 363.124C360.104 359.215 357.36 359.499 355.454 359.285C355.124 359.248 354.793 359.195 354.463 359.223C349.759 359.631 354.944 368.281 357.88 363.124Z" fill="#CBC5EA"/>
<path d="M382.561 358.8C384.786 354.891 382.042 355.175 380.136 354.961C379.806 354.923 379.475 354.871 379.145 354.899C374.44 355.306 379.626 363.957 382.561 358.8Z" fill="#CBC5EA"/>
<path d="M396.133 339.472C398.357 335.563 395.613 335.847 393.707 335.632C393.377 335.595 393.046 335.542 392.716 335.571C388.012 335.978 393.197 344.629 396.133 339.472Z" fill="#CBC5EA"/>
<path d="M405.801 346.265C408.026 342.356 405.282 342.64 403.376 342.425C403.046 342.388 402.715 342.335 402.385 342.364C397.681 342.771 402.866 351.422 405.801 346.265Z" fill="#CBC5EA"/>
<path d="M411.045 400.451C413.269 396.542 410.525 396.827 408.619 396.612C408.289 396.575 407.958 396.522 407.628 396.551C402.924 396.958 408.11 405.608 411.045 400.451Z" fill="#CBC5EA"/>
<path d="M381.533 401.382C383.757 397.473 381.013 397.757 379.107 397.543C378.778 397.505 378.447 397.453 378.116 397.481C373.412 397.888 378.598 406.539 381.533 401.382Z" fill="#CBC5EA"/>
<path d="M365.592 382.972C367.817 379.063 365.073 379.347 363.167 379.132C362.837 379.095 362.506 379.042 362.176 379.071C357.472 379.478 362.657 388.129 365.592 382.972Z" fill="#CBC5EA"/>
<path d="M376.183 419.279C378.408 415.371 375.664 415.655 373.758 415.44C373.428 415.403 373.097 415.35 372.767 415.379C368.063 415.786 373.248 424.436 376.183 419.279Z" fill="#CBC5EA"/>
<path d="M323.429 432.745C325.654 428.836 322.91 429.121 321.004 428.906C320.674 428.869 320.343 428.816 320.013 428.844C315.309 429.252 320.494 437.902 323.429 432.745Z" fill="#CBC5EA"/>
<path d="M339.881 429.874C342.105 425.965 339.361 426.249 337.455 426.035C337.125 425.998 336.794 425.945 336.464 425.973C331.76 426.381 336.945 435.031 339.881 429.874Z" fill="#CBC5EA"/>
<path d="M333.098 439.542C335.323 435.633 332.579 435.917 330.673 435.703C330.343 435.666 330.012 435.613 329.682 435.641C324.978 436.049 330.163 444.699 333.098 439.542Z" fill="#CBC5EA"/>
<path d="M375.669 440.561C377.893 436.653 375.149 436.937 373.243 436.722C372.913 436.685 372.582 436.632 372.252 436.661C367.548 437.068 372.734 445.718 375.669 440.561Z" fill="#CBC5EA"/>
<path d="M403.229 452.697C405.454 448.789 402.71 449.073 400.804 448.858C400.474 448.821 400.143 448.768 399.813 448.797C395.108 449.204 400.294 457.854 403.229 452.697Z" fill="#CBC5EA"/>
<path d="M439.536 442.104C441.76 438.196 439.016 438.48 437.11 438.265C436.781 438.228 436.45 438.175 436.119 438.204C431.415 438.611 436.601 447.261 439.536 442.104Z" fill="#CBC5EA"/>
<path d="M432.749 451.765C434.973 447.856 432.229 448.14 430.323 447.925C429.993 447.888 429.663 447.835 429.332 447.864C424.628 448.271 429.814 456.922 432.749 451.765Z" fill="#CBC5EA"/>
<path d="M384.823 468.64C387.047 464.731 384.303 465.015 382.397 464.8C382.068 464.763 381.737 464.71 381.406 464.739C376.702 465.146 381.888 473.797 384.823 468.64Z" fill="#CBC5EA"/>
<path d="M395.931 483.647C398.156 479.739 395.412 480.023 393.506 479.808C393.176 479.771 392.845 479.718 392.515 479.747C387.811 480.154 392.996 488.804 395.931 483.647Z" fill="#CBC5EA"/>
<path d="M369.812 479.74C372.037 475.832 369.293 476.116 367.387 475.901C367.057 475.864 366.726 475.811 366.396 475.84C361.691 476.247 366.877 484.897 369.812 479.74Z" fill="#CBC5EA"/>
<path d="M334.024 469.054C336.249 465.145 333.505 465.429 331.599 465.214C331.269 465.177 330.938 465.124 330.607 465.153C325.903 465.56 331.089 474.211 334.024 469.054Z" fill="#CBC5EA"/>
<path d="M336.542 485.233C338.766 481.325 336.022 481.609 334.116 481.394C333.786 481.357 333.455 481.304 333.125 481.333C328.421 481.74 333.607 490.39 336.542 485.233Z" fill="#CBC5EA"/>
<path d="M353.359 482.624C355.584 478.715 352.84 478.999 350.933 478.785C350.604 478.748 350.273 478.695 349.942 478.723C345.238 479.131 350.424 487.781 353.359 482.624Z" fill="#CBC5EA"/>
<path d="M403.646 503.499C405.871 499.59 403.127 499.874 401.221 499.66C400.891 499.623 400.56 499.57 400.23 499.598C395.525 500.006 400.711 508.656 403.646 503.499Z" fill="#CBC5EA"/>
<path d="M429.77 507.404C431.995 503.496 429.251 503.78 427.345 503.565C427.015 503.528 426.684 503.475 426.354 503.504C421.649 503.911 426.835 512.561 429.77 507.404Z" fill="#CBC5EA"/>
<path d="M449.611 499.69C451.836 495.782 449.092 496.066 447.185 495.851C446.856 495.814 446.525 495.761 446.194 495.79C441.49 496.197 446.676 504.847 449.611 499.69Z" fill="#CBC5EA"/>
<path d="M403.134 524.779C405.358 520.871 402.614 521.155 400.708 520.94C400.378 520.903 400.047 520.85 399.717 520.879C395.013 521.286 400.198 529.936 403.134 524.779Z" fill="#CBC5EA"/>
<path d="M339.27 523.245C341.495 519.336 338.751 519.621 336.845 519.406C336.515 519.369 336.184 519.316 335.854 519.344C331.149 519.752 336.335 528.402 339.27 523.245Z" fill="#CBC5EA"/>
<path d="M345.546 534.87C347.77 530.961 345.026 531.246 343.12 531.031C342.79 530.994 342.459 530.941 342.129 530.969C337.425 531.377 342.61 540.027 345.546 534.87Z" fill="#CBC5EA"/>
<path d="M402.618 546.068C404.842 542.16 402.098 542.444 400.192 542.229C399.863 542.192 399.532 542.14 399.201 542.169C394.497 542.576 399.683 551.225 402.618 546.068Z" fill="#CBC5EA"/>
<path d="M436.969 548.542C439.194 544.633 436.45 544.917 434.544 544.703C434.214 544.666 433.883 544.613 433.553 544.641C428.849 545.049 434.034 553.699 436.969 548.542Z" fill="#CBC5EA"/>
<path d="M466.479 547.615C468.704 543.707 465.96 543.991 464.054 543.776C463.724 543.739 463.393 543.686 463.063 543.715C458.358 544.122 463.544 552.772 466.479 547.615Z" fill="#CBC5EA"/>
<path d="M426.785 563.042C429.009 559.133 426.265 559.417 424.359 559.203C424.03 559.166 423.699 559.113 423.368 559.141C418.664 559.549 423.85 568.199 426.785 563.042Z" fill="#CBC5EA"/>
<path d="M413.726 561.089C415.951 557.18 413.207 557.464 411.301 557.25C410.971 557.212 410.64 557.16 410.31 557.188C405.606 557.596 410.791 566.246 413.726 561.089Z" fill="#CBC5EA"/>
<path d="M356.14 571.167C358.365 567.258 355.621 567.542 353.715 567.328C353.385 567.291 353.054 567.238 352.724 567.266C348.02 567.674 353.205 576.324 356.14 571.167Z" fill="#CBC5EA"/>
<path d="M442.216 602.733C444.44 598.825 441.696 599.109 439.79 598.894C439.46 598.857 439.129 598.804 438.799 598.833C434.095 599.24 439.28 607.89 442.216 602.733Z" fill="#CBC5EA"/>
<path d="M457.228 591.624C459.453 587.715 456.709 587.999 454.803 587.785C454.473 587.748 454.142 587.695 453.812 587.723C449.107 588.131 454.293 596.781 457.228 591.624Z" fill="#CBC5EA"/>
<path d="M463.501 603.249C465.725 599.34 462.981 599.624 461.075 599.41C460.745 599.373 460.414 599.32 460.084 599.348C455.38 599.756 460.566 608.406 463.501 603.249Z" fill="#CBC5EA"/>
<path d="M353.157 626.804C355.381 622.895 352.637 623.179 350.731 622.964C350.402 622.927 350.071 622.874 349.74 622.903C345.036 623.31 350.222 631.961 353.157 626.804Z" fill="#CBC5EA"/>
<path d="M391.828 653.951C394.052 650.042 391.308 650.327 389.402 650.112C389.073 650.075 388.742 650.022 388.411 650.051C383.707 650.458 388.893 659.108 391.828 653.951Z" fill="#CBC5EA"/>
<path d="M376.81 665.054C379.035 661.145 376.291 661.429 374.385 661.214C374.055 661.177 373.724 661.124 373.394 661.153C368.689 661.56 373.875 670.211 376.81 665.054Z" fill="#CBC5EA"/>
<path d="M457.641 642.432C459.866 638.524 457.122 638.808 455.216 638.593C454.886 638.556 454.555 638.503 454.225 638.532C449.521 638.939 454.706 647.59 457.641 642.432Z" fill="#CBC5EA"/>
<path d="M423.292 639.964C425.516 636.055 422.772 636.339 420.866 636.125C420.536 636.087 420.205 636.035 419.875 636.063C415.171 636.471 420.357 645.121 423.292 639.964Z" fill="#CBC5EA"/>
<path d="M405.401 634.611C407.626 630.703 404.882 630.988 402.975 630.773C402.646 630.736 402.315 630.682 401.984 630.711C397.28 631.118 402.466 639.768 405.401 634.611Z" fill="#CBC5EA"/>
<path d="M402.931 668.968C405.156 665.059 402.412 665.343 400.506 665.129C400.176 665.091 399.845 665.039 399.515 665.067C394.811 665.474 399.996 674.125 402.931 668.968Z" fill="#CBC5EA"/>
<path d="M433.886 676.265C436.111 672.356 433.367 672.64 431.461 672.425C431.131 672.388 430.8 672.335 430.47 672.364C425.766 672.771 430.951 681.422 433.886 676.265Z" fill="#CBC5EA"/>
<path d="M455.174 676.779C457.398 672.871 454.654 673.155 452.748 672.94C452.418 672.903 452.087 672.85 451.757 672.879C447.053 673.286 452.238 681.936 455.174 676.779Z" fill="#CBC5EA"/>
<path d="M443.04 704.343C445.264 700.434 442.52 700.718 440.614 700.504C440.285 700.466 439.954 700.414 439.623 700.442C434.919 700.849 440.105 709.5 443.04 704.343Z" fill="#CBC5EA"/>
<path d="M425.147 698.995C427.372 695.086 424.628 695.371 422.722 695.156C422.392 695.119 422.061 695.066 421.73 695.094C417.026 695.502 422.212 704.152 425.147 698.995Z" fill="#CBC5EA"/>
<path d="M415.481 692.206C417.706 688.297 414.962 688.582 413.056 688.367C412.726 688.33 412.395 688.277 412.064 688.305C407.36 688.713 412.546 697.363 415.481 692.206Z" fill="#CBC5EA"/>
<path d="M356.451 694.057C358.675 690.149 355.931 690.433 354.025 690.218C353.696 690.181 353.365 690.128 353.034 690.157C348.33 690.564 353.516 699.215 356.451 694.057Z" fill="#CBC5EA"/>
<path d="M392.542 693.233C394.766 689.325 392.022 689.609 390.116 689.394C389.786 689.357 389.455 689.304 389.125 689.333C384.421 689.74 389.607 698.39 392.542 693.233Z" fill="#CBC5EA"/>
<path d="M75.7801 35.1935C78.0051 31.2855 75.2611 31.5695 73.3541 31.3545C73.0251 31.3175 72.6941 31.2645 72.3631 31.2935C67.6591 31.7005 72.8451 40.3505 75.7801 35.1935Z" fill="#CBC5EA"/>
<path d="M518.239 33.1083C546.628 63.1083 540.427 30.8533 533.778 10.9753C528.662 -2.05566 550.507 0.693338 558.711 20.6133C566.915 40.5333 547.097 43.9273 563.344 56.9073C579.591 69.8873 564.662 27.9384 584.062 27.3974C603.461 26.8574 599.247 39.6323 592.62 64.8743C585.993 90.1153 608.127 78.9073 606.196 68.1123C604.266 57.3163 610.7 41.3793 622.893 42.0723C635.085 42.7663 634.603 66.0283 626.464 77.6213C618.325 89.2143 628.942 96.6683 638.272 96.9243C647.601 97.1813 639.397 77.2603 650.078 64.3053C660.758 51.3503 680.319 77.6694 663.172 90.8054C646.025 103.941 665.489 134.913 670.958 113.579C676.426 92.2443 686.496 91.4473 692.222 92.3203C697.949 93.1943 704.866 105.918 689.52 118.744C674.175 131.571 694.894 153.984 702.389 138.793C709.885 123.601 716.866 115.915 727.901 120.516C736.729 124.196 734.989 130.737 733.016 133.547C726.743 141.73 715.535 159.35 720.888 164.367C726.242 169.384 729.617 164.727 730.636 161.771C735.987 151.892 748.728 134.195 756.887 142.44C767.086 152.747 765.831 161.306 750.904 171.281C735.977 181.255 737.682 185.598 749.36 193.797C761.039 201.996 766.764 150.947 786.196 166.163C805.628 181.379 793.982 188.936 777.156 203.871C760.331 218.806 772.557 235.256 786.615 215.232C800.673 195.208 808.523 197.572 814.99 197.392C821.456 197.211 834.325 217.26 802.122 229.265C769.919 241.271 795.849 272.063 815.956 254.712C832.041 240.831 841.725 241.336 844.556 243.323C861.466 258.971 840.685 268.402 828.181 271.162C798.069 268.901 811.003 320.463 836.289 295.734C856.518 275.951 868.867 277.174 872.514 280.259C892.306 295.413 873.812 310.015 862.091 315.422C850.155 319.63 830.319 330.877 846.456 342.207C866.628 356.369 872.45 300.668 892.525 319.482C912.6 338.296 894.295 355.339 871.518 362.949C848.741 370.558 855.658 383.282 865.953 388.936C876.248 394.59 890.403 369.914 906.842 373.588C919.994 376.528 918.563 385.489 916.204 389.601C897.385 414.15 877.856 403.587 872.806 422.068C867.755 440.55 882.812 441.68 900.28 430.343C917.749 419.007 946.189 432.68 935.09 448.488C923.991 464.297 917.621 459.825 896.646 467.126C879.865 472.967 881.697 483.903 884.711 488.641C887.124 493.482 897.901 500.105 921.707 487.868C945.514 475.631 955.734 486.058 957.868 492.801C959.648 499.296 955.217 513.282 923.252 517.273C883.296 522.262 891.596 537.53 897.226 543.056C902.856 548.582 937.343 513.006 952.239 539.197C967.135 565.389 928.015 564.672 903.854 569.737C884.526 573.789 887.908 582.667 892.015 586.599C930.525 599.475 933.323 568.398 948.637 591.737C960.888 610.408 944.584 614.065 934.9 613.56C917.12 611.042 884.43 609.595 895.909 623.947C910.258 641.888 952.176 611.529 952.112 631.938C952.061 648.265 941.303 651.097 935.93 650.472C916.134 647.063 879.624 643.982 891.952 658.931C907.363 677.617 946.643 653.273 944.038 675.044C941.433 696.816 921.679 679.801 899.417 679.905C881.607 679.988 901.411 687.599 913.54 691.394C949.508 705.632 908.297 719.18 897.037 708.128C888.028 699.286 879.299 709.311 876.061 715.429C846.753 691.706 841.509 719.492 823.557 702.169C809.196 688.31 821.434 683.371 829.348 682.633C840.447 684.132 862.175 685.541 860.296 679.187C858.418 672.833 837.38 670.441 827.096 670.038C810.752 661.711 815.288 650.735 842.119 655.412C863.584 659.153 867.02 649.293 866.054 643.895C865.518 640.896 859.762 635.701 841.025 638.91C822.289 642.119 817.368 631.217 817.25 625.365C816.778 619.265 820.905 608.421 841.185 613.848C861.466 619.276 869.839 611.414 871.491 606.804C875.943 586.014 862.579 586.387 855.34 589.172C843.99 596.308 826.933 591.255 819.823 587.837C815.577 584.856 809.515 575.88 819.244 563.829C831.404 548.766 851.19 581.538 865.988 560.46C877.827 543.597 863.05 540.565 854.181 541.156C837.967 543.933 805.847 544.984 807.082 526.97C808.626 504.454 846.813 515.53 851.8 517.457C855.789 518.999 861.655 515.46 864.089 513.498C874.821 494.6 857.365 491.47 847.296 492.268C806.014 502.305 798.202 487.695 799.457 479.135C798.985 473.035 801.477 461.358 815.22 463.455C832.4 466.076 850.544 474.095 850.19 456.539C849.907 442.494 827.724 443.388 816.668 445.591C807.413 447.485 789.425 446.918 791.509 429.501C794.115 407.73 840.377 427.622 840.763 409.012C841.072 394.124 831.047 392.751 825.996 393.925C813.535 400.386 786.252 409.447 776.807 394.005C764.999 374.702 804.956 369.713 814.285 369.969C823.615 370.226 824.934 341.257 810.006 351.231C795.079 361.205 774.522 365.653 769.953 360.872C765.385 356.092 752.098 338.896 772.655 334.448C793.213 330 804.44 325.296 800.708 314.809C797.722 306.419 790.199 307.955 786.81 309.772C762.926 325.73 749.02 319.953 745.052 315.069C731.218 289.623 798.231 295.762 780.697 275.586C763.163 255.409 744.376 295.714 726.006 281.244C711.31 269.667 724.729 261.991 733.276 259.6C745.748 258.391 767.95 253.105 756.986 241.632C743.281 227.29 724.172 265.795 705.802 251.325C691.106 239.749 704.804 230.171 713.49 226.829C723.131 223.632 741.093 215.055 735.817 206.315C730.54 197.576 716.46 210.558 710.08 218.141C679.067 241.996 667.968 205.882 683.442 204.159C695.821 202.781 705.329 193.302 708.535 188.735C716.719 168.048 700.556 175.267 691.452 181.462C682.391 191.359 662.608 208.098 655.968 195.884C647.667 180.616 657.737 179.819 671.924 170.899C686.111 161.979 687.591 159.871 679.098 153.908C672.303 149.138 669.06 153.154 668.288 155.759C656.63 177.783 640.911 177.446 634.509 174.525C630.756 170.841 626.53 161.057 639.656 151.391C656.063 139.309 657.639 132.549 648.406 127.64C641.019 123.713 623.023 139.714 614.948 148.205C609.158 150.433 596.405 152.494 591.721 142.911C585.865 130.934 610.251 132.32 615.205 118.491C619.168 107.428 611.902 110.403 607.773 113.274C605.307 116.787 597.833 125.175 587.667 130.625C574.959 137.437 571.967 125.896 572.385 123.043C572.72 120.761 581.833 111.844 586.347 107.671C600.296 85.9973 584.438 90.0733 574.765 94.8203C565.093 99.5673 549.666 117.477 535.999 111.658C522.333 105.84 543.624 90.2643 555.977 83.2033C560.385 78.4303 565.384 69.3533 550.122 71.2253C531.044 73.5653 519.142 110.837 504.15 89.2983C489.157 67.7583 532.846 73.2573 525.607 58.7343C518.368 44.2123 469.951 58.9943 480.824 36.7343C489.523 18.9263 509.392 26.8963 518.239 33.1083Z" fill="#73628A"/>
<path d="M692.551 104.908C694.776 100.999 692.032 101.284 690.126 101.069C689.796 101.032 689.465 100.979 689.134 101.008C684.43 101.415 689.616 110.065 692.551 104.908Z" fill="#CBC5EA"/>
<path d="M552.551 40.909C554.776 37 552.032 37.2839 550.126 37.0699C549.796 37.0319 549.465 36.98 549.134 37.008C544.43 37.415 549.616 46.066 552.551 40.909Z" fill="#CBC5EA"/>
<path d="M572.551 71.9089C574.775 67.9999 572.031 68.2839 570.125 68.0699C569.796 68.0329 569.465 67.9799 569.134 68.0079C564.43 68.4159 569.616 77.0659 572.551 71.9089Z" fill="#CBC5EA"/>
<path d="M555.551 22.9083C557.776 19.0003 555.031 19.2843 553.125 19.0693C552.796 19.0323 552.465 18.9793 552.134 19.0083C547.43 19.4153 552.616 28.0653 555.551 22.9083Z" fill="#CBC5EA"/>
<path d="M492.551 38.9084C494.775 34.9994 492.031 35.2843 490.125 35.0693C489.796 35.0323 489.465 34.9793 489.134 35.0083C484.43 35.4153 489.616 44.0654 492.551 38.9084Z" fill="#CBC5EA"/>
<path d="M542.551 57.9089C544.775 53.9999 542.031 54.2839 540.125 54.0699C539.796 54.0329 539.465 53.9799 539.134 54.0079C534.43 54.4159 539.616 63.0659 542.551 57.9089Z" fill="#CBC5EA"/>
<path d="M528.551 73.9083C530.775 70.0003 528.031 70.2843 526.125 70.0693C525.795 70.0323 525.464 69.9793 525.134 70.0083C520.43 70.4153 525.616 79.0653 528.551 73.9083Z" fill="#CBC5EA"/>
<path d="M516.551 84.9084C518.775 81.0004 516.031 81.2843 514.125 81.0693C513.796 81.0323 513.465 80.9793 513.134 81.0083C508.43 81.4153 513.616 90.0654 516.551 84.9084Z" fill="#CBC5EA"/>
<path d="M625.551 67.9089C627.775 63.9999 625.031 64.2848 623.125 64.0698C622.796 64.0328 622.465 63.9799 622.134 64.0079C617.43 64.4159 622.616 73.0659 625.551 67.9089Z" fill="#CBC5EA"/>
<path d="M822.539 339.92C822.173 335.437 820.067 337.218 818.371 338.115C818.078 338.27 817.775 338.413 817.518 338.623C813.861 341.611 823.021 345.834 822.539 339.92Z" fill="#CBC5EA"/>
<path d="M810.73 339.763C810.365 335.28 808.258 337.062 806.563 337.958C806.269 338.114 805.966 338.257 805.71 338.467C802.053 341.455 811.212 345.677 810.73 339.763Z" fill="#CBC5EA"/>
<path d="M584.551 65.9083C586.775 62.0003 584.031 62.2843 582.125 62.0693C581.795 62.0323 581.464 61.9793 581.134 62.0083C576.43 62.4153 581.616 71.0653 584.551 65.9083Z" fill="#CBC5EA"/>
<path d="M552.551 97.9084C554.776 94.0004 552.032 94.2843 550.126 94.0693C549.796 94.0323 549.465 93.9793 549.134 94.0083C544.43 94.4153 549.616 103.066 552.551 97.9084Z" fill="#CBC5EA"/>
<path d="M564.551 95.9093C566.775 92.0003 564.031 92.2843 562.125 92.0693C561.795 92.0323 561.464 91.9793 561.134 92.0083C556.43 92.4153 561.615 101.066 564.551 95.9093Z" fill="#CBC5EA"/>
<path d="M587.551 81.9083C589.775 78.0003 587.031 78.2843 585.125 78.0693C584.795 78.0323 584.464 77.9793 584.134 78.0083C579.43 78.4153 584.615 87.0653 587.551 81.9083Z" fill="#CBC5EA"/>
<path d="M725.275 131.909C727.5 128 724.756 128.284 722.85 128.07C722.52 128.033 722.189 127.98 721.859 128.008C717.155 128.416 722.34 137.066 725.275 131.909Z" fill="#CBC5EA"/>
<path d="M589.551 38.909C591.775 35 589.031 35.2839 587.125 35.0699C586.796 35.0319 586.465 34.98 586.134 35.008C581.43 35.415 586.616 44.066 589.551 38.909Z" fill="#CBC5EA"/>
<path d="M718.495 141.581C720.72 137.672 717.976 137.956 716.069 137.742C715.74 137.704 715.409 137.652 715.078 137.68C710.374 138.087 715.56 146.738 718.495 141.581Z" fill="#CBC5EA"/>
<path d="M698.643 149.288C700.868 145.379 698.124 145.663 696.218 145.449C695.888 145.411 695.557 145.359 695.227 145.387C690.523 145.795 695.708 154.445 698.643 149.288Z" fill="#CBC5EA"/>
<path d="M692.551 157.307C694.775 153.399 692.031 153.683 690.125 153.468C689.795 153.431 689.464 153.378 689.134 153.407C684.43 153.814 689.616 162.464 692.551 157.307Z" fill="#CBC5EA"/>
<path d="M608.551 86.9084C610.775 83.0004 608.031 83.2843 606.125 83.0693C605.795 83.0323 605.464 82.9793 605.134 83.0083C600.43 83.4153 605.616 92.0654 608.551 86.9084Z" fill="#CBC5EA"/>
<path d="M595.55 117.908C597.775 114 595.031 114.284 593.125 114.069C592.795 114.032 592.464 113.979 592.134 114.008C587.43 114.415 592.615 123.066 595.55 117.908Z" fill="#CBC5EA"/>
<path d="M604.002 101.636C606.226 97.7265 603.482 98.0105 601.576 97.7955C601.247 97.7585 600.916 97.7065 600.585 97.7345C595.881 98.1415 601.067 106.793 604.002 101.636Z" fill="#CBC5EA"/>
<path d="M667.551 134.908C669.775 131 667.031 131.284 665.125 131.069C664.796 131.032 664.465 130.979 664.134 131.008C659.43 131.415 664.616 140.065 667.551 134.908Z" fill="#CBC5EA"/>
<path d="M618.551 57.9093C620.776 54.0003 618.032 54.2843 616.125 54.0693C615.796 54.0323 615.465 53.9793 615.134 54.0083C610.43 54.4153 615.616 63.0663 618.551 57.9093Z" fill="#CBC5EA"/>
<path d="M618.551 76.909C620.775 73 618.031 73.284 616.125 73.07C615.796 73.032 615.465 72.98 615.134 73.008C610.43 73.415 615.616 82.066 618.551 76.909Z" fill="#CBC5EA"/>
<path d="M507.551 34.9089C509.776 30.9999 507.032 31.2849 505.125 31.0699C504.796 31.0329 504.465 30.9799 504.134 31.0079C499.43 31.4159 504.616 40.0659 507.551 34.9089Z" fill="#CBC5EA"/>
<path d="M625.291 102.147C627.515 98.2386 624.771 98.5226 622.865 98.3076C622.536 98.2706 622.205 98.2176 621.874 98.2466C617.17 98.6536 622.356 107.304 625.291 102.147Z" fill="#CBC5EA"/>
<path d="M655.551 70.9093C657.775 67.0003 655.031 67.2843 653.125 67.0693C652.795 67.0323 652.464 66.9793 652.134 67.0083C647.43 67.4153 652.615 76.0663 655.551 70.9093Z" fill="#CBC5EA"/>
<path d="M522.551 47.9083C524.775 44.0003 522.031 44.2843 520.125 44.0693C519.795 44.0323 519.464 43.9793 519.134 44.0083C514.43 44.4153 519.615 53.0663 522.551 47.9083Z" fill="#CBC5EA"/>
<path d="M658.551 86.9083C660.775 83.0003 658.031 83.2843 656.125 83.0693C655.795 83.0323 655.464 82.9793 655.134 83.0083C650.43 83.4153 655.616 92.0653 658.551 86.9083Z" fill="#CBC5EA"/>
<path d="M641.551 117.909C643.775 114 641.031 114.285 639.125 114.07C638.795 114.033 638.464 113.98 638.134 114.008C633.43 114.416 638.615 123.066 641.551 117.909Z" fill="#CBC5EA"/>
<path d="M618.551 137.908C620.775 134 618.031 134.284 616.125 134.069C615.795 134.032 615.464 133.979 615.134 134.008C610.43 134.415 615.616 143.065 618.551 137.908Z" fill="#CBC5EA"/>
<path d="M754.551 153.909C756.775 150 754.031 150.284 752.125 150.07C751.796 150.033 751.465 149.98 751.134 150.008C746.43 150.416 751.616 159.066 754.551 153.909Z" fill="#CBC5EA"/>
<path d="M789.414 183.908C791.639 179.999 788.895 180.284 786.989 180.069C786.659 180.032 786.328 179.979 785.998 180.008C781.293 180.415 786.479 189.065 789.414 183.908Z" fill="#CBC5EA"/>
<path d="M774.4 195.018C776.624 191.11 773.88 191.394 771.974 191.179C771.644 191.142 771.313 191.089 770.983 191.118C766.279 191.525 771.464 200.175 774.4 195.018Z" fill="#CBC5EA"/>
<path d="M754.551 202.729C756.775 198.821 754.031 199.105 752.125 198.89C751.796 198.853 751.465 198.8 751.134 198.829C746.43 199.236 751.616 207.886 754.551 202.729Z" fill="#CBC5EA"/>
<path d="M679.55 179.909C681.775 176 679.031 176.284 677.125 176.07C676.795 176.032 676.464 175.98 676.134 176.008C671.429 176.415 676.615 185.066 679.55 179.909Z" fill="#CBC5EA"/>
<path d="M701.551 209.909C703.776 206 701.032 206.284 699.125 206.069C698.796 206.032 698.465 205.979 698.134 206.008C693.43 206.415 698.616 215.066 701.551 209.909Z" fill="#CBC5EA"/>
<path d="M713.551 209.908C715.775 206 713.031 206.284 711.125 206.069C710.796 206.032 710.465 205.979 710.134 206.008C705.43 206.415 710.616 215.065 713.551 209.908Z" fill="#CBC5EA"/>
<path d="M741.551 165.908C743.776 162 741.031 162.284 739.125 162.069C738.796 162.032 738.465 161.979 738.134 162.008C733.43 162.415 738.616 171.065 741.551 165.908Z" fill="#CBC5EA"/>
<path d="M698.551 171.909C700.776 168 698.032 168.284 696.125 168.07C695.796 168.032 695.465 167.98 695.134 168.008C690.43 168.416 695.616 177.066 698.551 171.909Z" fill="#CBC5EA"/>
<path d="M716.551 197.019C718.775 193.11 716.031 193.394 714.125 193.179C713.796 193.142 713.465 193.089 713.134 193.118C708.43 193.525 713.616 202.176 716.551 197.019Z" fill="#CBC5EA"/>
<path d="M731.565 185.908C733.79 182 731.046 182.284 729.14 182.069C728.81 182.032 728.479 181.979 728.149 182.008C723.445 182.415 728.63 191.065 731.565 185.908Z" fill="#CBC5EA"/>
<path d="M733.006 194.139C735.23 190.23 732.486 190.514 730.58 190.299C730.251 190.262 729.92 190.21 729.589 190.238C724.885 190.645 730.071 199.296 733.006 194.139Z" fill="#CBC5EA"/>
<path d="M692.551 220.909C694.776 217 692.032 217.284 690.126 217.07C689.796 217.033 689.465 216.98 689.134 217.008C684.43 217.416 689.616 226.066 692.551 220.909Z" fill="#CBC5EA"/>
<path d="M652.551 159.908C654.775 156 652.031 156.284 650.125 156.069C649.795 156.032 649.464 155.979 649.134 156.008C644.43 156.415 649.616 165.065 652.551 159.908Z" fill="#CBC5EA"/>
<path d="M752.551 220.908C754.775 217 752.031 217.284 750.125 217.069C749.795 217.032 749.464 216.979 749.134 217.008C744.43 217.415 749.616 226.065 752.551 220.908Z" fill="#CBC5EA"/>
<path d="M732.55 232.909C734.775 229 732.031 229.284 730.125 229.07C729.795 229.033 729.464 228.98 729.134 229.008C724.43 229.416 729.615 238.066 732.55 232.909Z" fill="#CBC5EA"/>
<path d="M719.551 248.909C721.776 245 719.032 245.284 717.125 245.07C716.796 245.033 716.465 244.98 716.134 245.008C711.43 245.416 716.616 254.066 719.551 248.909Z" fill="#CBC5EA"/>
<path d="M771.551 240.909C773.775 237 771.031 237.284 769.125 237.069C768.796 237.032 768.465 236.979 768.134 237.008C763.43 237.415 768.616 246.066 771.551 240.909Z" fill="#CBC5EA"/>
<path d="M809.481 209.815C811.706 205.907 808.962 206.191 807.056 205.976C806.726 205.939 806.395 205.886 806.065 205.915C801.36 206.322 806.546 214.972 809.481 209.815Z" fill="#CBC5EA"/>
<path d="M761.551 310.909C763.775 307 761.031 307.284 759.125 307.07C758.795 307.032 758.464 306.98 758.134 307.008C753.43 307.416 758.615 316.066 761.551 310.909Z" fill="#CBC5EA"/>
<path d="M781.551 246.908C783.775 243 781.031 243.284 779.125 243.069C778.796 243.032 778.465 242.979 778.134 243.008C773.43 243.415 778.616 252.065 781.551 246.908Z" fill="#CBC5EA"/>
<path d="M735.852 273.576C738.077 269.667 735.333 269.952 733.427 269.737C733.097 269.7 732.766 269.647 732.436 269.676C727.732 270.083 732.917 278.733 735.852 273.576Z" fill="#CBC5EA"/>
<path d="M758.551 266.909C760.776 263 758.032 263.284 756.125 263.07C755.796 263.032 755.465 262.98 755.134 263.008C750.43 263.415 755.616 272.066 758.551 266.909Z" fill="#CBC5EA"/>
<path d="M793.551 223.909C795.775 220 793.031 220.284 791.125 220.07C790.796 220.032 790.465 219.98 790.134 220.008C785.43 220.415 790.616 229.066 793.551 223.909Z" fill="#CBC5EA"/>
<path d="M787.551 355.909C789.776 352 787.032 352.284 785.126 352.07C784.796 352.033 784.465 351.98 784.134 352.008C779.43 352.416 784.616 361.066 787.551 355.909Z" fill="#CBC5EA"/>
<path d="M789.55 340.909C791.775 337 789.031 337.284 787.125 337.069C786.795 337.032 786.464 336.979 786.134 337.008C781.429 337.415 786.615 346.066 789.55 340.909Z" fill="#CBC5EA"/>
<path d="M781.551 263.909C783.775 260 781.031 260.284 779.125 260.07C778.795 260.032 778.464 259.98 778.134 260.008C773.43 260.415 778.615 269.066 781.551 263.909Z" fill="#CBC5EA"/>
<path d="M790.55 297.908C792.775 294 790.031 294.284 788.125 294.069C787.795 294.032 787.464 293.979 787.134 294.008C782.43 294.415 787.615 303.065 790.55 297.908Z" fill="#CBC5EA"/>
<path d="M815.551 263.909C817.775 260 815.031 260.284 813.125 260.069C812.796 260.032 812.465 259.979 812.134 260.008C807.43 260.415 812.616 269.066 815.551 263.909Z" fill="#CBC5EA"/>
<path d="M832.55 260.909C834.775 257 832.031 257.285 830.125 257.07C829.795 257.033 829.464 256.98 829.134 257.008C824.429 257.416 829.615 266.066 832.55 260.909Z" fill="#CBC5EA"/>
<path d="M793.551 273.908C795.775 270 793.031 270.284 791.125 270.069C790.795 270.032 790.464 269.979 790.134 270.008C785.43 270.415 790.615 279.065 793.551 273.908Z" fill="#CBC5EA"/>
<path d="M808.868 303.186C811.093 299.278 808.349 299.562 806.442 299.347C806.113 299.31 805.782 299.257 805.451 299.286C800.747 299.693 805.933 308.343 808.868 303.186Z" fill="#CBC5EA"/>
<path d="M871.551 352.908C873.776 349 871.032 349.284 869.125 349.069C868.796 349.032 868.465 348.979 868.134 349.008C863.43 349.415 868.616 358.065 871.551 352.908Z" fill="#CBC5EA"/>
<path d="M825.55 319.908C827.775 315.999 825.031 316.284 823.125 316.069C822.795 316.032 822.464 315.979 822.134 316.008C817.43 316.415 822.615 325.065 825.55 319.908Z" fill="#CBC5EA"/>
<path d="M836.55 341.908C838.775 338 836.031 338.284 834.125 338.069C833.795 338.032 833.464 337.979 833.134 338.008C828.43 338.415 833.615 347.065 836.55 341.908Z" fill="#CBC5EA"/>
<path d="M883.551 337.908C885.775 334 883.031 334.284 881.125 334.069C880.795 334.032 880.464 333.979 880.134 334.008C875.43 334.415 880.615 343.065 883.551 337.908Z" fill="#CBC5EA"/>
<path d="M811.551 316.908C813.776 313 811.032 313.284 809.125 313.069C808.796 313.032 808.465 312.979 808.134 313.008C803.43 313.415 808.616 322.065 811.551 316.908Z" fill="#CBC5EA"/>
<path d="M774.551 305.909C776.775 302 774.031 302.284 772.125 302.069C771.795 302.032 771.464 301.98 771.134 302.008C766.43 302.415 771.615 311.066 774.551 305.909Z" fill="#CBC5EA"/>
<path d="M868.551 408.908C870.775 405 868.031 405.284 866.125 405.069C865.795 405.032 865.465 404.979 865.134 405.008C860.43 405.415 865.616 414.065 868.551 408.908Z" fill="#CBC5EA"/>
<path d="M839.551 380.909C841.776 377 839.032 377.284 837.125 377.07C836.796 377.033 836.465 376.98 836.134 377.008C831.43 377.416 836.616 386.066 839.551 380.909Z" fill="#CBC5EA"/>
<path d="M844.551 356.909C846.775 353 844.031 353.284 842.125 353.07C841.795 353.033 841.464 352.98 841.134 353.008C836.43 353.416 841.615 362.066 844.551 356.909Z" fill="#CBC5EA"/>
<path d="M904.55 383.909C906.775 380 904.031 380.284 902.125 380.07C901.795 380.032 901.464 379.98 901.134 380.008C896.429 380.415 901.615 389.066 904.55 383.909Z" fill="#CBC5EA"/>
<path d="M857.551 302.909C859.775 299 857.031 299.284 855.125 299.069C854.795 299.032 854.464 298.979 854.134 299.008C849.43 299.415 854.615 308.066 857.551 302.909Z" fill="#CBC5EA"/>
<path d="M838.55 322.909C840.775 319 838.031 319.284 836.125 319.069C835.795 319.032 835.464 318.979 835.134 319.008C830.43 319.415 835.615 328.066 838.55 322.909Z" fill="#CBC5EA"/>
<path d="M890.008 403.451C892.232 399.542 889.488 399.827 887.582 399.612C887.252 399.575 886.921 399.522 886.591 399.551C881.887 399.958 887.073 408.608 890.008 403.451Z" fill="#CBC5EA"/>
<path d="M814.551 380.909C816.775 377 814.031 377.284 812.125 377.07C811.796 377.032 811.465 376.98 811.134 377.008C806.43 377.415 811.616 386.066 814.551 380.909Z" fill="#CBC5EA"/>
<path d="M842.55 307.909C844.775 304 842.031 304.284 840.125 304.069C839.795 304.032 839.464 303.979 839.134 304.008C834.43 304.415 839.615 313.066 842.55 307.909Z" fill="#CBC5EA"/>
<path d="M793.55 383.908C795.775 380 793.031 380.284 791.125 380.069C790.795 380.032 790.464 379.979 790.134 380.008C785.43 380.415 790.615 389.065 793.55 383.908Z" fill="#CBC5EA"/>
<path d="M857.55 426.909C859.775 423 857.031 423.285 855.125 423.07C854.795 423.033 854.464 422.98 854.134 423.008C849.43 423.416 854.615 432.066 857.55 426.909Z" fill="#CBC5EA"/>
<path d="M806.551 429.909C808.775 426 806.031 426.284 804.125 426.07C803.795 426.033 803.464 425.98 803.134 426.008C798.43 426.416 803.615 435.066 806.551 429.909Z" fill="#CBC5EA"/>
<path d="M807.55 395.909C809.775 392 807.031 392.284 805.125 392.07C804.795 392.033 804.464 391.98 804.134 392.008C799.43 392.416 804.615 401.066 807.55 395.909Z" fill="#CBC5EA"/>
<path d="M829.551 429.908C831.775 426 829.031 426.284 827.125 426.069C826.795 426.032 826.464 425.979 826.134 426.008C821.43 426.415 826.616 435.065 829.551 429.908Z" fill="#CBC5EA"/>
<path d="M882.192 455.697C884.417 451.789 881.673 452.073 879.767 451.858C879.437 451.821 879.106 451.768 878.776 451.797C874.071 452.204 879.257 460.854 882.192 455.697Z" fill="#CBC5EA"/>
<path d="M921.551 444.908C923.775 441 921.031 441.284 919.125 441.069C918.796 441.032 918.465 440.979 918.134 441.008C913.43 441.415 918.616 450.065 921.551 444.908Z" fill="#CBC5EA"/>
<path d="M901.551 447.909C903.775 444 901.031 444.284 899.125 444.069C898.795 444.032 898.465 443.979 898.134 444.008C893.43 444.415 898.616 453.066 901.551 447.909Z" fill="#CBC5EA"/>
<path d="M863.551 444.909C865.775 441 863.031 441.284 861.125 441.069C860.796 441.032 860.465 440.979 860.134 441.008C855.43 441.415 860.616 450.066 863.551 444.909Z" fill="#CBC5EA"/>
<path d="M854.55 485.908C856.775 482 854.031 482.284 852.125 482.069C851.795 482.032 851.464 481.979 851.134 482.008C846.43 482.415 851.615 491.065 854.55 485.908Z" fill="#CBC5EA"/>
<path d="M830.55 482.908C832.775 479 830.031 479.284 828.125 479.069C827.795 479.032 827.464 478.979 827.134 479.008C822.429 479.415 827.615 488.065 830.55 482.908Z" fill="#CBC5EA"/>
<path d="M866.551 468.909C868.776 465 866.032 465.284 864.126 465.069C863.796 465.032 863.465 464.979 863.134 465.008C858.43 465.415 863.616 474.066 866.551 468.909Z" fill="#CBC5EA"/>
<path d="M815.551 471.908C817.775 468 815.031 468.284 813.125 468.069C812.795 468.032 812.464 467.979 812.134 468.008C807.43 468.415 812.616 477.065 815.551 471.908Z" fill="#CBC5EA"/>
<path d="M818.551 485.909C820.776 482 818.032 482.284 816.125 482.07C815.796 482.033 815.465 481.98 815.134 482.008C810.43 482.416 815.616 491.066 818.551 485.909Z" fill="#CBC5EA"/>
<path d="M880.55 496.909C882.775 493 880.031 493.284 878.125 493.07C877.795 493.033 877.464 492.98 877.134 493.008C872.429 493.416 877.615 502.066 880.55 496.909Z" fill="#CBC5EA"/>
<path d="M919.55 505.908C921.775 502 919.031 502.284 917.125 502.069C916.795 502.032 916.464 501.979 916.134 502.008C911.429 502.415 916.615 511.065 919.55 505.908Z" fill="#CBC5EA"/>
<path d="M939.551 502.908C941.776 499 939.032 499.284 937.125 499.069C936.796 499.032 936.465 498.979 936.134 499.008C931.43 499.415 936.616 508.065 939.551 502.908Z" fill="#CBC5EA"/>
<path d="M882.551 516.908C884.775 513 882.031 513.284 880.125 513.069C879.795 513.032 879.464 512.979 879.134 513.008C874.43 513.415 879.615 522.065 882.551 516.908Z" fill="#CBC5EA"/>
<path d="M824.55 528.909C826.775 525 824.031 525.285 822.125 525.07C821.795 525.033 821.464 524.98 821.134 525.008C816.429 525.416 821.615 534.066 824.55 528.909Z" fill="#CBC5EA"/>
<path d="M854.551 531.909C856.775 528 854.031 528.285 852.125 528.07C851.795 528.033 851.464 527.98 851.134 528.008C846.43 528.416 851.615 537.066 854.551 531.909Z" fill="#CBC5EA"/>
<path d="M880.551 537.908C882.775 534 880.031 534.284 878.125 534.069C877.796 534.032 877.465 533.979 877.134 534.008C872.43 534.415 877.616 543.065 880.551 537.908Z" fill="#CBC5EA"/>
<path d="M922.55 552.909C924.775 549 922.031 549.284 920.125 549.07C919.795 549.033 919.464 548.98 919.134 549.008C914.43 549.416 919.615 558.066 922.55 552.909Z" fill="#CBC5EA"/>
<path d="M942.55 543.908C944.775 540 942.031 540.284 940.125 540.069C939.795 540.032 939.464 539.979 939.134 540.008C934.429 540.415 939.615 549.065 942.55 543.908Z" fill="#CBC5EA"/>
<path d="M896.551 558.909C898.775 555 896.031 555.284 894.125 555.07C893.796 555.033 893.465 554.98 893.134 555.008C888.43 555.416 893.616 564.066 896.551 558.909Z" fill="#CBC5EA"/>
<path d="M848.55 574.909C850.775 571 848.031 571.284 846.125 571.07C845.795 571.032 845.464 570.98 845.134 571.008C840.43 571.416 845.615 580.066 848.55 574.909Z" fill="#CBC5EA"/>
<path d="M835.55 580.909C837.775 577 835.031 577.284 833.125 577.07C832.795 577.033 832.464 576.98 832.134 577.008C827.43 577.416 832.615 586.066 835.55 580.909Z" fill="#CBC5EA"/>
<path d="M866.551 621.908C868.775 618 866.031 618.284 864.125 618.069C863.795 618.032 863.464 617.979 863.134 618.008C858.43 618.415 863.615 627.065 866.551 621.908Z" fill="#CBC5EA"/>
<path d="M936.191 594.624C938.416 590.715 935.672 590.999 933.766 590.785C933.436 590.748 933.105 590.695 932.775 590.723C928.07 591.131 933.256 599.781 936.191 594.624Z" fill="#CBC5EA"/>
<path d="M942.464 606.249C944.688 602.34 941.944 602.624 940.038 602.41C939.708 602.373 939.377 602.32 939.047 602.348C934.343 602.756 939.529 611.406 942.464 606.249Z" fill="#CBC5EA"/>
<path d="M832.12 629.804C834.344 625.895 831.6 626.179 829.694 625.964C829.365 625.927 829.034 625.874 828.703 625.903C823.999 626.31 829.185 634.961 832.12 629.804Z" fill="#CBC5EA"/>
<path d="M879.551 639.908C881.775 635.999 879.031 636.284 877.125 636.069C876.796 636.032 876.465 635.979 876.134 636.008C871.43 636.415 876.616 645.065 879.551 639.908Z" fill="#CBC5EA"/>
<path d="M845.55 665.909C847.775 662 845.031 662.284 843.125 662.069C842.795 662.032 842.464 661.979 842.134 662.008C837.429 662.415 842.615 671.066 845.55 665.909Z" fill="#CBC5EA"/>
<path d="M934.55 636.908C936.775 633 934.031 633.284 932.125 633.069C931.795 633.032 931.464 632.979 931.134 633.008C926.43 633.415 931.615 642.066 934.55 636.908Z" fill="#CBC5EA"/>
<path d="M902.255 642.964C904.479 639.055 901.735 639.339 899.829 639.125C899.499 639.087 899.168 639.035 898.838 639.063C894.134 639.471 899.32 648.121 902.255 642.964Z" fill="#CBC5EA"/>
<path d="M893.551 599.908C895.776 596 893.032 596.284 891.125 596.069C890.796 596.032 890.465 595.979 890.134 596.008C885.43 596.415 890.616 605.065 893.551 599.908Z" fill="#CBC5EA"/>
<path d="M880.55 665.909C882.775 662 880.031 662.284 878.125 662.07C877.795 662.032 877.464 661.98 877.134 662.008C872.43 662.415 877.615 671.066 880.55 665.909Z" fill="#CBC5EA"/>
<path d="M883.55 678.909C885.775 675 883.031 675.284 881.125 675.069C880.795 675.032 880.464 674.979 880.134 675.008C875.43 675.415 880.615 684.066 883.55 678.909Z" fill="#CBC5EA"/>
<path d="M934.137 679.779C936.361 675.871 933.617 676.155 931.711 675.94C931.381 675.903 931.05 675.85 930.72 675.879C926.016 676.286 931.201 684.936 934.137 679.779Z" fill="#CBC5EA"/>
<path d="M911.551 701.909C913.775 698 911.031 698.284 909.125 698.07C908.796 698.032 908.465 697.98 908.134 698.008C903.43 698.415 908.616 707.066 911.551 701.909Z" fill="#CBC5EA"/>
<path d="M866.551 668.909C868.776 665 866.032 665.285 864.126 665.07C863.796 665.033 863.465 664.98 863.134 665.008C858.43 665.416 863.616 674.066 866.551 668.909Z" fill="#CBC5EA"/>
<path d="M908.551 672.909C910.776 669 908.032 669.285 906.126 669.07C905.796 669.033 905.465 668.98 905.134 669.008C900.43 669.416 905.616 678.066 908.551 672.909Z" fill="#CBC5EA"/>
<path d="M842.551 695.908C844.775 692 842.031 692.284 840.125 692.069C839.796 692.032 839.465 691.979 839.134 692.008C834.43 692.415 839.616 701.066 842.551 695.908Z" fill="#CBC5EA"/>
<path d="M873.551 701.908C875.775 698 873.031 698.284 871.125 698.069C870.795 698.032 870.464 697.979 870.134 698.008C865.43 698.415 870.616 707.065 873.551 701.908Z" fill="#CBC5EA"/>
<path d="M586.551 51.9083C588.776 48.0003 586.032 48.2843 584.125 48.0693C583.796 48.0323 583.465 47.9793 583.134 48.0083C578.43 48.4153 583.616 57.0653 586.551 51.9083Z" fill="#CBC5EA"/>
</svg>
