<svg width="897" height="1080" viewBox="0 0 897 1080" fill="none" xmlns="http://www.w3.org/2000/svg">
<path d="M186.698 211.832C215.127 241.876 208.917 209.574 202.258 189.668C197.135 176.618 219.011 179.371 227.227 199.32C235.443 219.269 215.597 222.668 231.867 235.666C248.137 248.664 233.187 206.656 252.614 206.114C272.041 205.572 267.821 218.366 261.185 243.644C254.549 268.922 276.714 257.698 274.781 246.887C272.847 236.076 279.291 220.116 291.501 220.81C303.711 221.504 303.229 244.8 295.078 256.41C286.927 268.019 297.559 275.484 306.902 275.74C316.245 275.997 308.029 256.049 318.725 243.075C329.421 230.1 349.01 256.458 331.838 269.613C314.666 282.767 334.159 313.784 339.635 292.419C345.112 271.054 355.196 270.255 360.93 271.13C366.665 272.005 373.592 284.747 358.224 297.592C342.857 310.437 363.605 332.883 371.112 317.669C378.618 302.456 385.609 294.759 396.66 299.366C405.5 303.052 403.759 309.602 401.783 312.416C395.501 320.611 384.276 338.256 389.637 343.281C394.999 348.305 398.379 343.641 399.399 340.681C404.758 330.787 417.517 313.065 425.688 321.322C435.901 331.643 434.645 340.215 419.696 350.204C404.747 360.192 406.455 364.542 418.15 372.752C429.846 380.963 435.579 329.841 455.039 345.079C474.498 360.316 462.836 367.885 445.986 382.841C429.137 397.798 441.38 414.271 455.459 394.218C469.537 374.165 477.398 376.533 483.874 376.352C490.35 376.172 503.237 396.249 470.988 408.272C438.738 420.295 464.706 451.131 484.842 433.755C500.95 419.854 510.648 420.359 513.483 422.35C530.417 438.02 509.607 447.465 497.085 450.228C466.929 447.965 479.882 499.601 505.204 474.836C525.462 455.025 537.829 456.25 541.481 459.338C561.301 474.514 542.781 489.138 531.043 494.553C519.09 498.766 499.225 510.03 515.386 521.376C535.586 535.558 541.416 479.777 561.521 498.618C581.625 517.459 563.293 534.527 540.483 542.147C517.674 549.768 524.601 562.509 534.91 568.172C545.22 573.834 559.395 549.122 575.858 552.802C589.029 555.746 587.596 564.72 585.234 568.838C566.387 593.422 546.831 582.843 541.773 601.352C536.716 619.86 551.793 620.991 569.287 609.639C586.781 598.286 615.261 611.979 604.147 627.81C593.032 643.641 586.653 639.163 565.647 646.474C548.843 652.324 550.677 663.275 553.695 668.02C556.111 672.868 566.904 679.5 590.745 667.246C614.586 654.992 624.82 665.434 626.958 672.186C628.74 678.69 624.303 692.697 592.292 696.694C552.278 701.69 560.591 716.979 566.229 722.513C571.867 728.047 606.403 692.42 621.32 718.649C636.238 744.878 597.061 744.16 572.866 749.232C553.51 753.29 556.897 762.181 561.01 766.119C599.575 779.013 602.377 747.892 617.713 771.264C629.982 789.962 613.654 793.625 603.957 793.119C586.151 790.597 553.414 789.147 564.909 803.521C579.279 821.487 621.257 791.084 621.193 811.523C621.142 827.874 610.369 830.709 604.988 830.083C585.164 826.669 548.601 823.584 560.947 838.554C576.38 857.267 615.717 832.888 613.108 854.691C610.499 876.494 590.717 859.454 568.422 859.559C550.587 859.642 570.42 867.264 582.566 871.064C618.585 885.323 577.315 898.89 566.039 887.822C557.018 878.968 548.276 889.007 545.033 895.134C515.683 871.377 510.432 899.203 492.454 881.855C478.072 867.976 490.327 863.029 498.253 862.291C509.368 863.792 531.127 865.203 529.246 858.84C527.364 852.477 506.296 850.081 495.997 849.678C479.631 841.339 484.173 830.347 511.043 835.031C532.538 838.777 535.979 828.903 535.012 823.497C534.475 820.494 528.71 815.291 509.947 818.505C491.183 821.718 486.256 810.801 486.138 804.941C485.665 798.831 489.797 787.972 510.107 793.407C530.417 798.843 538.802 790.969 540.456 786.353C544.915 765.533 531.531 765.906 524.283 768.695C512.916 775.841 495.835 770.782 488.715 767.359C484.462 764.373 478.392 755.384 488.134 743.317C500.312 728.232 520.126 761.05 534.946 739.942C546.802 723.055 532.003 720.018 523.122 720.611C506.884 723.392 474.718 724.444 475.955 706.405C477.501 683.855 515.744 694.948 520.737 696.878C524.732 698.422 530.606 694.878 533.044 692.913C543.792 673.988 526.31 670.853 516.226 671.652C474.885 681.703 467.062 667.073 468.319 658.501C467.846 652.392 470.342 640.698 484.105 642.798C501.309 645.423 519.48 653.453 519.125 635.872C518.841 621.807 496.626 622.702 485.554 624.908C476.287 626.805 458.273 626.238 460.36 608.795C462.969 586.993 509.298 606.913 509.685 588.277C509.993 573.368 499.955 571.992 494.896 573.168C482.418 579.638 455.095 588.712 445.636 573.248C433.812 553.917 473.826 548.921 483.169 549.178C492.512 549.435 493.832 520.424 478.884 530.413C463.935 540.401 443.348 544.856 438.773 540.068C434.198 535.28 420.892 518.06 441.479 513.606C462.066 509.152 473.309 504.44 469.572 493.938C466.582 485.537 459.047 487.075 455.654 488.894C431.736 504.875 417.809 499.089 413.836 494.199C399.982 468.716 467.091 474.864 449.532 454.659C431.973 434.453 413.159 474.816 394.762 460.325C380.045 448.732 393.484 441.045 402.043 438.65C414.533 437.44 436.767 432.146 425.787 420.656C412.062 406.293 392.926 444.854 374.529 430.363C359.812 418.77 373.53 409.178 382.229 405.832C391.883 402.631 409.871 394.041 404.587 385.289C399.303 376.537 385.203 389.537 378.814 397.131C347.756 421.021 336.641 384.855 352.137 383.13C364.535 381.749 374.056 372.257 377.267 367.684C385.462 346.967 369.276 354.196 360.159 360.4C351.085 370.311 331.273 387.074 324.623 374.843C316.311 359.553 326.395 358.754 340.603 349.821C354.811 340.888 356.292 338.778 347.787 332.806C340.983 328.029 337.735 332.052 336.962 334.66C325.287 356.716 309.545 356.379 303.134 353.453C299.375 349.764 295.144 339.965 308.288 330.286C324.719 318.187 326.298 311.417 317.051 306.501C309.654 302.568 291.632 318.592 283.545 327.095C277.746 329.326 264.975 331.39 260.284 321.794C254.42 309.799 278.841 311.188 283.802 297.339C287.771 286.259 280.495 289.239 276.36 292.114C273.89 295.632 266.405 304.032 256.225 309.49C243.499 316.312 240.502 304.754 240.921 301.897C241.256 299.611 250.382 290.682 254.903 286.503C268.872 264.798 252.991 268.879 243.305 273.633C233.618 278.387 218.169 296.323 204.483 290.496C190.797 284.669 212.118 269.07 224.49 261.999C228.903 257.22 233.91 248.13 218.626 250.004C199.521 252.348 187.601 289.673 172.587 268.103C157.574 246.533 201.325 252.039 194.076 237.496C186.827 222.952 138.34 237.756 149.229 215.464C157.94 197.63 177.838 205.612 186.698 211.832Z" fill="#73628A"/>
<path d="M210.69 193.646C212.918 189.732 210.17 190.016 208.261 189.801C207.931 189.764 207.599 189.711 207.268 189.74C202.557 190.148 207.75 198.81 210.69 193.646Z" fill="#CBC5EA"/>
<path d="M225.211 203.841C227.439 199.927 224.691 200.212 222.782 199.997C222.452 199.959 222.121 199.907 221.79 199.935C217.079 200.343 222.272 209.006 225.211 203.841Z" fill="#CBC5EA"/>
<path d="M221.297 229.998C223.525 226.083 220.777 226.368 218.868 226.153C218.538 226.116 218.207 226.063 217.876 226.091C213.165 226.499 218.358 235.162 221.297 229.998Z" fill="#CBC5EA"/>
<path d="M213.573 210.123C215.8 206.208 213.052 206.493 211.143 206.278C210.813 206.241 210.482 206.188 210.151 206.216C205.44 206.624 210.633 215.287 213.573 210.123Z" fill="#CBC5EA"/>
<path d="M224.178 246.474C226.406 242.56 223.658 242.844 221.749 242.629C221.419 242.592 221.087 242.539 220.756 242.568C216.046 242.976 221.239 251.639 224.178 246.474Z" fill="#CBC5EA"/>
<path d="M214.5 239.681C216.728 235.767 213.98 236.052 212.071 235.837C211.741 235.799 211.41 235.746 211.079 235.775C206.368 236.183 211.561 244.846 214.5 239.681Z" fill="#CBC5EA"/>
<path d="M212.543 252.755C214.771 248.841 212.023 249.126 210.114 248.911C209.784 248.874 209.453 248.821 209.122 248.849C204.411 249.257 209.604 257.92 212.543 252.755Z" fill="#CBC5EA"/>
<path d="M176.192 263.369C178.419 259.455 175.672 259.739 173.763 259.524C173.433 259.487 173.101 259.434 172.77 259.463C168.059 259.87 173.252 268.533 176.192 263.369Z" fill="#CBC5EA"/>
<path d="M197.51 263.88C199.738 259.966 196.99 260.251 195.081 260.036C194.751 259.999 194.419 259.946 194.088 259.974C189.378 260.382 194.571 269.045 197.51 263.88Z" fill="#CBC5EA"/>
<path d="M182.059 224.13C184.287 220.216 181.539 220.501 179.63 220.286C179.3 220.249 178.968 220.196 178.637 220.224C173.926 220.632 179.12 229.295 182.059 224.13Z" fill="#CBC5EA"/>
<path d="M172.379 217.334C174.607 213.419 171.859 213.704 169.95 213.489C169.62 213.452 169.289 213.399 168.958 213.427C164.247 213.835 169.44 222.498 172.379 217.334Z" fill="#CBC5EA"/>
<path d="M157.342 228.459C159.57 224.544 156.822 224.829 154.913 224.614C154.583 224.577 154.251 224.524 153.921 224.552C149.21 224.96 154.403 233.623 157.342 228.459Z" fill="#CBC5EA"/>
<path d="M249.41 220.83C251.638 216.915 248.89 217.2 246.981 216.985C246.651 216.948 246.32 216.895 245.989 216.923C241.278 217.331 246.471 225.994 249.41 220.83Z" fill="#CBC5EA"/>
<path d="M262.493 222.787C264.72 218.872 261.972 219.157 260.063 218.942C259.733 218.905 259.402 218.852 259.071 218.881C254.36 219.288 259.553 227.951 262.493 222.787Z" fill="#CBC5EA"/>
<path d="M260.534 235.865C262.761 231.951 260.013 232.235 258.104 232.02C257.774 231.983 257.443 231.93 257.112 231.959C252.401 232.367 257.594 241.029 260.534 235.865Z" fill="#CBC5EA"/>
<path d="M251.782 258.626C254.009 254.712 251.261 254.997 249.352 254.782C249.022 254.745 248.691 254.692 248.36 254.72C243.649 255.128 248.842 263.791 251.782 258.626Z" fill="#CBC5EA"/>
<path d="M238.703 256.669C240.931 252.755 238.183 253.04 236.274 252.825C235.944 252.788 235.613 252.735 235.282 252.763C230.571 253.171 235.764 261.834 238.703 256.669Z" fill="#CBC5EA"/>
<path d="M244.989 268.306C247.216 264.392 244.468 264.677 242.56 264.462C242.229 264.424 241.898 264.371 241.567 264.4C236.856 264.808 242.049 273.471 244.989 268.306Z" fill="#CBC5EA"/>
<path d="M225.11 276.029C227.337 272.115 224.589 272.399 222.681 272.184C222.351 272.147 222.019 272.094 221.688 272.123C216.977 272.531 222.17 281.193 225.11 276.029Z" fill="#CBC5EA"/>
<path d="M219.754 293.951C221.982 290.037 219.234 290.321 217.325 290.106C216.995 290.069 216.664 290.016 216.333 290.045C211.622 290.452 216.815 299.115 219.754 293.951Z" fill="#CBC5EA"/>
<path d="M252.198 309.498C254.425 305.583 251.677 305.868 249.768 305.653C249.438 305.616 249.107 305.563 248.776 305.591C244.065 305.999 249.258 314.662 252.198 309.498Z" fill="#CBC5EA"/>
<path d="M258.994 299.822C261.222 295.908 258.474 296.192 256.565 295.977C256.235 295.94 255.904 295.887 255.573 295.916C250.862 296.324 256.055 304.986 258.994 299.822Z" fill="#CBC5EA"/>
<path d="M272.584 280.459C274.812 276.544 272.064 276.829 270.155 276.614C269.825 276.577 269.494 276.524 269.163 276.552C264.452 276.96 269.645 285.623 272.584 280.459Z" fill="#CBC5EA"/>
<path d="M262.905 273.666C265.132 269.751 262.384 270.036 260.476 269.821C260.145 269.784 259.814 269.731 259.483 269.759C254.772 270.167 259.965 278.83 262.905 273.666Z" fill="#CBC5EA"/>
<path d="M290.096 234.939C292.324 231.025 289.576 231.309 287.667 231.094C287.337 231.057 287.005 231.004 286.674 231.033C281.964 231.441 287.157 240.103 290.096 234.939Z" fill="#CBC5EA"/>
<path d="M279.385 270.779C281.613 266.865 278.865 267.149 276.956 266.934C276.626 266.897 276.294 266.844 275.963 266.873C271.253 267.281 276.446 275.943 279.385 270.779Z" fill="#CBC5EA"/>
<path d="M288.137 248.017C290.365 244.103 287.617 244.387 285.708 244.172C285.378 244.135 285.046 244.082 284.715 244.111C280.005 244.519 285.198 253.182 288.137 248.017Z" fill="#CBC5EA"/>
<path d="M293.905 280.97C296.132 277.056 293.384 277.341 291.476 277.126C291.145 277.088 290.814 277.035 290.483 277.064C285.772 277.472 290.965 286.135 293.905 280.97Z" fill="#CBC5EA"/>
<path d="M330.256 270.365C332.484 266.451 329.736 266.735 327.827 266.52C327.497 266.483 327.166 266.43 326.835 266.459C322.124 266.867 327.317 275.529 330.256 270.365Z" fill="#CBC5EA"/>
<path d="M320.577 263.564C322.804 259.65 320.056 259.934 318.147 259.719C317.817 259.682 317.486 259.629 317.155 259.658C312.444 260.066 317.637 268.728 320.577 263.564Z" fill="#CBC5EA"/>
<path d="M318.11 297.966C320.337 294.052 317.589 294.337 315.681 294.122C315.351 294.084 315.019 294.032 314.688 294.06C309.977 294.468 315.17 303.131 318.11 297.966Z" fill="#CBC5EA"/>
<path d="M294.834 310.529C297.062 306.615 294.314 306.899 292.405 306.684C292.075 306.647 291.744 306.594 291.413 306.623C286.702 307.031 291.895 315.693 294.834 310.529Z" fill="#CBC5EA"/>
<path d="M268.159 327.935C270.386 324.021 267.638 324.305 265.729 324.09C265.399 324.053 265.068 324 264.737 324.029C260.026 324.437 265.219 333.1 268.159 327.935Z" fill="#CBC5EA"/>
<path d="M349.106 305.275C351.334 301.361 348.586 301.645 346.677 301.43C346.347 301.393 346.015 301.34 345.684 301.369C340.973 301.777 346.166 310.439 349.106 305.275Z" fill="#CBC5EA"/>
<path d="M348.59 326.587C350.818 322.673 348.07 322.958 346.161 322.743C345.831 322.706 345.5 322.653 345.169 322.681C340.458 323.089 345.651 331.752 348.59 326.587Z" fill="#CBC5EA"/>
<path d="M333.557 337.716C335.785 333.802 333.037 334.087 331.128 333.872C330.798 333.834 330.466 333.782 330.135 333.81C325.425 334.218 330.618 342.881 333.557 337.716Z" fill="#CBC5EA"/>
<path d="M313.68 345.439C315.908 341.525 313.16 341.809 311.251 341.594C310.921 341.557 310.589 341.504 310.258 341.533C305.548 341.941 310.741 350.603 313.68 345.439Z" fill="#CBC5EA"/>
<path d="M339.327 370.673C341.554 366.759 338.806 367.044 336.897 366.829C336.567 366.792 336.236 366.739 335.905 366.767C331.194 367.175 336.387 375.838 339.327 370.673Z" fill="#CBC5EA"/>
<path d="M349.52 356.154C351.748 352.24 349 352.524 347.091 352.309C346.761 352.272 346.429 352.219 346.098 352.248C341.387 352.656 346.581 361.318 349.52 356.154Z" fill="#CBC5EA"/>
<path d="M347.563 369.228C349.791 365.314 347.043 365.598 345.134 365.383C344.804 365.346 344.472 365.293 344.141 365.322C339.43 365.73 344.623 374.393 347.563 369.228Z" fill="#CBC5EA"/>
<path d="M394.625 322.783C396.853 318.869 394.105 319.153 392.196 318.938C391.866 318.901 391.535 318.848 391.204 318.877C386.493 319.284 391.686 327.947 394.625 322.783Z" fill="#CBC5EA"/>
<path d="M382.475 350.38C384.703 346.466 381.955 346.751 380.046 346.536C379.716 346.499 379.384 346.446 379.053 346.474C374.342 346.882 379.536 355.545 382.475 350.38Z" fill="#CBC5EA"/>
<path d="M407.192 346.052C409.419 342.138 406.672 342.423 404.763 342.208C404.433 342.17 404.101 342.118 403.77 342.146C399.059 342.554 404.252 351.217 407.192 346.052Z" fill="#CBC5EA"/>
<path d="M422.229 334.931C424.457 331.017 421.709 331.302 419.8 331.087C419.47 331.049 419.138 330.996 418.807 331.025C414.096 331.433 419.289 340.096 422.229 334.931Z" fill="#CBC5EA"/>
<path d="M423.67 343.169C425.898 339.255 423.15 339.54 421.241 339.325C420.911 339.288 420.58 339.235 420.249 339.263C415.538 339.671 420.731 348.334 423.67 343.169Z" fill="#CBC5EA"/>
<path d="M351.891 393.947C354.119 390.033 351.371 390.317 349.462 390.102C349.132 390.065 348.8 390.012 348.469 390.041C343.759 390.449 348.952 399.111 351.891 393.947Z" fill="#CBC5EA"/>
<path d="M366.41 404.138C368.638 400.224 365.89 400.509 363.981 400.294C363.651 400.256 363.32 400.203 362.989 400.232C358.278 400.64 363.471 409.303 366.41 404.138Z" fill="#CBC5EA"/>
<path d="M394.012 416.291C396.24 412.376 393.492 412.661 391.583 412.446C391.253 412.409 390.921 412.356 390.59 412.384C385.88 412.792 391.073 421.455 394.012 416.291Z" fill="#CBC5EA"/>
<path d="M418.727 411.97C420.955 408.056 418.207 408.341 416.298 408.126C415.968 408.088 415.636 408.035 415.305 408.064C410.594 408.472 415.788 417.135 418.727 411.97Z" fill="#CBC5EA"/>
<path d="M419.243 390.65C421.47 386.736 418.722 387.02 416.813 386.805C416.483 386.768 416.152 386.715 415.821 386.744C411.11 387.152 416.303 395.814 419.243 390.65Z" fill="#CBC5EA"/>
<path d="M436.649 417.322C438.877 413.408 436.129 413.692 434.22 413.477C433.89 413.44 433.558 413.387 433.227 413.416C428.516 413.824 433.709 422.486 436.649 417.322Z" fill="#CBC5EA"/>
<path d="M478.358 388.794C480.585 384.88 477.838 385.165 475.929 384.95C475.599 384.913 475.267 384.86 474.936 384.888C470.225 385.296 475.418 393.959 478.358 388.794Z" fill="#CBC5EA"/>
<path d="M456.526 409.595C458.753 405.681 456.006 405.966 454.097 405.751C453.767 405.713 453.435 405.66 453.104 405.689C448.393 406.097 453.586 414.76 456.526 409.595Z" fill="#CBC5EA"/>
<path d="M444.371 437.197C446.599 433.283 443.851 433.567 441.942 433.352C441.612 433.315 441.281 433.262 440.95 433.291C436.239 433.699 441.432 442.361 444.371 437.197Z" fill="#CBC5EA"/>
<path d="M404.623 452.646C406.851 448.732 404.103 449.016 402.194 448.801C401.864 448.764 401.533 448.711 401.202 448.74C396.491 449.148 401.684 457.81 404.623 452.646Z" fill="#CBC5EA"/>
<path d="M429.336 448.318C431.564 444.404 428.816 444.688 426.907 444.473C426.577 444.436 426.246 444.383 425.915 444.412C421.204 444.82 426.397 453.482 429.336 448.318Z" fill="#CBC5EA"/>
<path d="M406.065 460.884C408.293 456.97 405.545 457.255 403.636 457.04C403.306 457.002 402.974 456.95 402.643 456.978C397.932 457.386 403.125 466.049 406.065 460.884Z" fill="#CBC5EA"/>
<path d="M455.496 452.232C457.724 448.318 454.976 448.602 453.067 448.387C452.737 448.35 452.406 448.297 452.075 448.326C447.364 448.734 452.557 457.396 455.496 452.232Z" fill="#CBC5EA"/>
<path d="M476.815 452.748C479.043 448.833 476.295 449.118 474.386 448.903C474.056 448.866 473.724 448.813 473.393 448.841C468.682 449.249 473.875 457.912 476.815 452.748Z" fill="#CBC5EA"/>
<path d="M506.885 430.501C509.113 426.587 506.365 426.872 504.456 426.657C504.126 426.62 503.794 426.567 503.463 426.595C498.753 427.003 503.946 435.666 506.885 430.501Z" fill="#CBC5EA"/>
<path d="M504.93 443.58C507.158 439.665 504.41 439.95 502.501 439.735C502.171 439.698 501.839 439.645 501.508 439.673C496.798 440.081 501.991 448.744 504.93 443.58Z" fill="#CBC5EA"/>
<path d="M456.424 481.787C458.652 477.872 455.904 478.157 453.995 477.942C453.665 477.905 453.334 477.852 453.003 477.881C448.292 478.288 453.485 486.951 456.424 481.787Z" fill="#CBC5EA"/>
<path d="M441.389 492.912C443.617 488.997 440.869 489.282 438.96 489.067C438.63 489.03 438.298 488.977 437.967 489.006C433.257 489.413 438.45 498.076 441.389 492.912Z" fill="#CBC5EA"/>
<path d="M471.461 470.662C473.689 466.747 470.941 467.032 469.032 466.817C468.702 466.78 468.371 466.727 468.04 466.756C463.329 467.163 468.522 475.826 471.461 470.662Z" fill="#CBC5EA"/>
<path d="M477.744 482.302C479.972 478.388 477.224 478.673 475.315 478.458C474.985 478.42 474.654 478.368 474.323 478.396C469.612 478.804 474.805 487.467 477.744 482.302Z" fill="#CBC5EA"/>
<path d="M501.946 499.291C504.173 495.376 501.425 495.661 499.517 495.446C499.186 495.409 498.855 495.356 498.524 495.384C493.813 495.792 499.006 504.455 501.946 499.291Z" fill="#CBC5EA"/>
<path d="M515.537 479.935C517.765 476.021 515.017 476.305 513.108 476.09C512.778 476.053 512.447 476 512.116 476.029C507.405 476.437 512.598 485.1 515.537 479.935Z" fill="#CBC5EA"/>
<path d="M532.014 477.044C534.242 473.13 531.494 473.415 529.585 473.2C529.255 473.163 528.923 473.11 528.592 473.138C523.882 473.546 529.075 482.209 532.014 477.044Z" fill="#CBC5EA"/>
<path d="M538.811 467.365C541.039 463.451 538.291 463.735 536.382 463.52C536.052 463.483 535.72 463.43 535.389 463.459C530.678 463.867 535.872 472.529 538.811 467.365Z" fill="#CBC5EA"/>
<path d="M518.422 496.412C520.65 492.497 517.902 492.782 515.993 492.567C515.663 492.53 515.332 492.477 515.001 492.506C510.29 492.913 515.483 501.576 518.422 496.412Z" fill="#CBC5EA"/>
<path d="M438.918 527.31C441.146 523.396 438.398 523.68 436.489 523.465C436.159 523.428 435.828 523.375 435.497 523.404C430.786 523.812 435.979 532.475 438.918 527.31Z" fill="#CBC5EA"/>
<path d="M467.448 569.017C469.675 565.103 466.927 565.387 465.018 565.172C464.688 565.135 464.357 565.082 464.026 565.111C459.315 565.519 464.508 574.182 467.448 569.017Z" fill="#CBC5EA"/>
<path d="M495.561 559.849C497.789 555.935 495.041 556.219 493.132 556.004C492.802 555.967 492.47 555.914 492.139 555.943C487.428 556.351 492.622 565.014 495.561 559.849Z" fill="#CBC5EA"/>
<path d="M505.758 545.326C507.986 541.412 505.238 541.696 503.329 541.481C502.999 541.444 502.667 541.391 502.337 541.42C497.626 541.827 502.819 550.49 505.758 545.326Z" fill="#CBC5EA"/>
<path d="M530.475 541.001C532.703 537.087 529.955 537.372 528.046 537.157C527.716 537.12 527.384 537.067 527.053 537.095C522.342 537.503 527.536 546.166 530.475 541.001Z" fill="#CBC5EA"/>
<path d="M544.067 521.642C546.294 517.728 543.547 518.012 541.638 517.797C541.308 517.76 540.976 517.707 540.645 517.736C535.934 518.144 541.127 526.807 544.067 521.642Z" fill="#CBC5EA"/>
<path d="M553.748 528.439C555.976 524.525 553.228 524.809 551.319 524.594C550.989 524.557 550.658 524.504 550.327 524.533C545.616 524.941 550.809 533.603 553.748 528.439Z" fill="#CBC5EA"/>
<path d="M559.002 582.709C561.23 578.794 558.482 579.079 556.573 578.864C556.243 578.827 555.912 578.774 555.581 578.802C550.87 579.21 556.063 587.873 559.002 582.709Z" fill="#CBC5EA"/>
<path d="M529.446 583.638C531.673 579.724 528.925 580.009 527.017 579.794C526.686 579.756 526.355 579.703 526.024 579.732C521.313 580.14 526.506 588.803 529.446 583.638Z" fill="#CBC5EA"/>
<path d="M513.483 565.205C515.71 561.29 512.963 561.575 511.054 561.36C510.724 561.323 510.392 561.27 510.061 561.298C505.35 561.706 510.543 570.369 513.483 565.205Z" fill="#CBC5EA"/>
<path d="M524.09 601.56C526.318 597.646 523.57 597.93 521.661 597.715C521.331 597.678 521 597.625 520.669 597.654C515.958 598.062 521.151 606.725 524.09 601.56Z" fill="#CBC5EA"/>
<path d="M471.26 615.048C473.488 611.134 470.74 611.419 468.831 611.204C468.501 611.167 468.169 611.114 467.838 611.142C463.128 611.55 468.321 620.213 471.26 615.048Z" fill="#CBC5EA"/>
<path d="M487.737 612.169C489.964 608.255 487.216 608.54 485.308 608.325C484.977 608.288 484.646 608.235 484.315 608.263C479.604 608.671 484.797 617.334 487.737 612.169Z" fill="#CBC5EA"/>
<path d="M480.942 621.849C483.169 617.935 480.422 618.219 478.513 618.004C478.183 617.967 477.851 617.914 477.52 617.943C472.809 618.351 478.002 627.014 480.942 621.849Z" fill="#CBC5EA"/>
<path d="M523.573 622.876C525.8 618.962 523.052 619.247 521.143 619.032C520.813 618.995 520.482 618.942 520.151 618.97C515.44 619.378 520.633 628.041 523.573 622.876Z" fill="#CBC5EA"/>
<path d="M551.176 635.025C553.404 631.111 550.656 631.395 548.747 631.18C548.417 631.143 548.085 631.09 547.755 631.119C543.044 631.527 548.237 640.189 551.176 635.025Z" fill="#CBC5EA"/>
<path d="M587.532 624.419C589.759 620.505 587.011 620.79 585.102 620.575C584.772 620.538 584.441 620.485 584.11 620.513C579.399 620.921 584.592 629.584 587.532 624.419Z" fill="#CBC5EA"/>
<path d="M580.735 634.095C582.962 630.181 580.214 630.466 578.306 630.251C577.976 630.213 577.644 630.16 577.313 630.189C572.602 630.597 577.795 639.26 580.735 634.095Z" fill="#CBC5EA"/>
<path d="M532.743 650.99C534.97 647.076 532.222 647.36 530.313 647.145C529.983 647.108 529.652 647.055 529.321 647.084C524.61 647.492 529.803 656.154 532.743 650.99Z" fill="#CBC5EA"/>
<path d="M543.866 666.025C546.093 662.111 543.345 662.395 541.436 662.18C541.106 662.143 540.775 662.09 540.444 662.119C535.733 662.527 540.926 671.189 543.866 666.025Z" fill="#CBC5EA"/>
<path d="M517.707 662.115C519.935 658.201 517.187 658.485 515.278 658.27C514.948 658.233 514.617 658.18 514.286 658.209C509.575 658.617 514.768 667.279 517.707 662.115Z" fill="#CBC5EA"/>
<path d="M481.868 651.404C484.095 647.49 481.347 647.774 479.438 647.559C479.108 647.522 478.777 647.469 478.446 647.498C473.735 647.906 478.928 656.568 481.868 651.404Z" fill="#CBC5EA"/>
<path d="M481.352 672.72C483.58 668.806 480.832 669.091 478.923 668.876C478.593 668.838 478.261 668.785 477.93 668.814C473.219 669.222 478.413 677.885 481.352 672.72Z" fill="#CBC5EA"/>
<path d="M501.231 664.998C503.459 661.083 500.711 661.368 498.802 661.153C498.472 661.116 498.14 661.063 497.809 661.091C493.098 661.499 498.291 670.162 501.231 664.998Z" fill="#CBC5EA"/>
<path d="M551.592 685.9C553.82 681.986 551.072 682.27 549.163 682.055C548.833 682.018 548.501 681.965 548.171 681.994C543.46 682.402 548.653 691.064 551.592 685.9Z" fill="#CBC5EA"/>
<path d="M577.75 689.814C579.978 685.9 577.23 686.184 575.321 685.969C574.991 685.932 574.66 685.879 574.329 685.908C569.618 686.316 574.811 694.978 577.75 689.814Z" fill="#CBC5EA"/>
<path d="M597.623 682.087C599.851 678.173 597.103 678.458 595.194 678.243C594.864 678.206 594.533 678.153 594.202 678.181C589.491 678.589 594.684 687.252 597.623 682.087Z" fill="#CBC5EA"/>
<path d="M551.077 707.216C553.304 703.302 550.556 703.587 548.647 703.372C548.317 703.334 547.986 703.282 547.655 703.31C542.944 703.718 548.137 712.381 551.077 707.216Z" fill="#CBC5EA"/>
<path d="M487.121 705.673C489.349 701.759 486.601 702.044 484.692 701.829C484.362 701.792 484.031 701.739 483.7 701.767C478.989 702.175 484.182 710.838 487.121 705.673Z" fill="#CBC5EA"/>
<path d="M493.407 717.318C495.634 713.404 492.886 713.688 490.977 713.473C490.647 713.436 490.316 713.383 489.985 713.412C485.274 713.82 490.467 722.482 493.407 717.318Z" fill="#CBC5EA"/>
<path d="M550.563 728.541C552.791 724.626 550.043 724.911 548.134 724.696C547.804 724.659 547.472 724.606 547.141 724.634C542.43 725.042 547.623 733.705 550.563 728.541Z" fill="#CBC5EA"/>
<path d="M584.963 731.009C587.191 727.095 584.443 727.38 582.534 727.165C582.204 727.127 581.873 727.075 581.542 727.103C576.831 727.511 582.024 736.174 584.963 731.009Z" fill="#CBC5EA"/>
<path d="M614.516 730.084C616.744 726.169 613.996 726.454 612.087 726.239C611.757 726.202 611.425 726.149 611.094 726.177C606.384 726.585 611.577 735.248 614.516 730.084Z" fill="#CBC5EA"/>
<path d="M574.764 745.529C576.992 741.615 574.244 741.899 572.335 741.684C572.005 741.647 571.673 741.594 571.342 741.623C566.632 742.031 571.825 750.693 574.764 745.529Z" fill="#CBC5EA"/>
<path d="M561.686 743.572C563.914 739.658 561.166 739.942 559.257 739.727C558.927 739.69 558.595 739.637 558.264 739.666C553.553 740.074 558.747 748.736 561.686 743.572Z" fill="#CBC5EA"/>
<path d="M504.016 753.666C506.244 749.751 503.496 750.036 501.587 749.821C501.257 749.784 500.925 749.731 500.594 749.759C495.884 750.167 501.077 758.83 504.016 753.666Z" fill="#CBC5EA"/>
<path d="M590.215 785.283C592.443 781.369 589.695 781.653 587.786 781.438C587.456 781.401 587.125 781.348 586.794 781.377C582.083 781.784 587.276 790.447 590.215 785.283Z" fill="#CBC5EA"/>
<path d="M605.25 774.154C607.478 770.24 604.73 770.524 602.821 770.309C602.491 770.272 602.16 770.219 601.829 770.248C597.118 770.656 602.311 779.318 605.25 774.154Z" fill="#CBC5EA"/>
<path d="M611.532 785.794C613.759 781.88 611.011 782.165 609.102 781.95C608.772 781.913 608.441 781.86 608.11 781.888C603.399 782.296 608.592 790.959 611.532 785.794Z" fill="#CBC5EA"/>
<path d="M501.03 809.384C503.257 805.47 500.509 805.755 498.601 805.54C498.27 805.502 497.939 805.45 497.608 805.478C492.897 805.886 498.09 814.549 501.03 809.384Z" fill="#CBC5EA"/>
<path d="M539.754 836.568C541.982 832.654 539.234 832.938 537.325 832.723C536.995 832.686 536.664 832.633 536.333 832.662C531.622 833.07 536.815 841.732 539.754 836.568Z" fill="#CBC5EA"/>
<path d="M524.717 847.693C526.945 843.779 524.197 844.063 522.288 843.848C521.958 843.811 521.626 843.758 521.296 843.787C516.585 844.195 521.778 852.857 524.717 847.693Z" fill="#CBC5EA"/>
<path d="M605.664 825.033C607.892 821.119 605.144 821.403 603.235 821.188C602.905 821.151 602.574 821.098 602.243 821.127C597.532 821.534 602.725 830.197 605.664 825.033Z" fill="#CBC5EA"/>
<path d="M571.266 822.56C573.494 818.646 570.746 818.93 568.837 818.715C568.507 818.678 568.175 818.625 567.844 818.654C563.134 819.062 568.327 827.725 571.266 822.56Z" fill="#CBC5EA"/>
<path d="M553.35 817.209C555.578 813.294 552.83 813.579 550.921 813.364C550.591 813.327 550.259 813.274 549.928 813.302C545.217 813.71 550.411 822.373 553.35 817.209Z" fill="#CBC5EA"/>
<path d="M550.873 851.607C553.101 847.693 550.353 847.977 548.444 847.762C548.114 847.725 547.783 847.672 547.452 847.701C542.741 848.109 547.934 856.771 550.873 851.607Z" fill="#CBC5EA"/>
<path d="M581.875 858.916C584.103 855.001 581.355 855.286 579.446 855.071C579.116 855.034 578.785 854.981 578.454 855.009C573.743 855.417 578.936 864.08 581.875 858.916Z" fill="#CBC5EA"/>
<path d="M603.192 859.431C605.419 855.517 602.672 855.802 600.763 855.587C600.433 855.549 600.101 855.496 599.77 855.525C595.059 855.933 600.252 864.596 603.192 859.431Z" fill="#CBC5EA"/>
<path d="M591.041 887.033C593.269 883.119 590.521 883.403 588.612 883.188C588.282 883.151 587.951 883.098 587.62 883.127C582.909 883.534 588.102 892.197 591.041 887.033Z" fill="#CBC5EA"/>
<path d="M573.123 881.677C575.351 877.763 572.603 878.048 570.694 877.833C570.364 877.795 570.033 877.743 569.702 877.771C564.991 878.179 570.184 886.842 573.123 881.677Z" fill="#CBC5EA"/>
<path d="M563.442 874.88C565.669 870.966 562.922 871.251 561.013 871.036C560.683 870.999 560.351 870.946 560.02 870.974C555.309 871.382 560.502 880.045 563.442 874.88Z" fill="#CBC5EA"/>
<path d="M504.328 876.736C506.556 872.822 503.808 873.106 501.899 872.891C501.569 872.854 501.238 872.801 500.907 872.83C496.196 873.238 501.389 881.9 504.328 876.736Z" fill="#CBC5EA"/>
<path d="M540.168 887.443C542.396 883.529 539.648 883.813 537.739 883.598C537.409 883.561 537.078 883.508 536.747 883.537C532.036 883.945 537.229 892.607 540.168 887.443Z" fill="#CBC5EA"/>
<path d="M223.254 216.919C225.482 213.005 222.734 213.29 220.825 213.075C220.495 213.038 220.164 212.985 219.833 213.013C215.122 213.421 220.315 222.084 223.254 216.919Z" fill="#CBC5EA"/>
</svg>
