<svg width="855" height="1078" viewBox="0 0 855 1078" fill="none" xmlns="http://www.w3.org/2000/svg">
<path d="M146.276 211.626C174.665 241.627 168.464 209.372 161.815 189.494C156.699 176.463 178.544 179.211 186.748 199.132C194.952 219.052 175.134 222.446 191.381 235.426C207.628 248.405 192.699 206.457 212.099 205.916C231.498 205.375 227.284 218.15 220.657 243.392C214.03 268.634 236.164 257.426 234.233 246.63C232.303 235.835 238.737 219.898 250.93 220.591C263.122 221.284 262.64 244.547 254.501 256.14C246.362 267.733 256.979 275.186 266.309 275.443C275.638 275.699 267.434 255.779 278.115 242.824C288.795 229.868 308.356 256.188 291.209 269.324C274.062 282.46 293.526 313.432 298.995 292.097C304.463 270.763 314.533 269.965 320.259 270.839C325.986 271.713 332.903 284.436 317.557 297.263C302.212 310.09 322.931 332.503 330.426 317.312C337.922 302.12 344.903 294.434 355.938 299.035C364.766 302.715 363.026 309.256 361.053 312.066C354.78 320.249 343.572 337.869 348.925 342.886C354.279 347.903 357.654 343.246 358.673 340.29C364.024 330.411 376.765 312.713 384.924 320.959C395.123 331.266 393.868 339.825 378.941 349.799C364.014 359.773 365.719 364.117 377.397 372.316C389.076 380.515 394.801 329.466 414.233 344.682C433.665 359.897 422.019 367.455 405.193 382.39C388.368 397.325 400.594 413.775 414.652 393.751C428.71 373.727 436.56 376.091 443.027 375.91C449.493 375.73 462.362 395.779 430.159 407.784C397.956 419.79 423.886 450.582 443.993 433.231C460.078 419.349 469.762 419.854 472.593 421.842C489.503 437.49 468.722 446.921 456.218 449.68C426.106 447.42 439.04 498.982 464.326 474.253C484.555 454.47 496.904 455.693 500.551 458.777C520.343 473.931 501.849 488.534 490.128 493.941C478.192 498.149 458.356 509.396 474.493 520.726C494.665 534.888 500.487 479.186 520.562 498.001C540.637 516.815 522.332 533.858 499.555 541.468C476.778 549.077 483.695 561.8 493.99 567.455C504.285 573.109 518.44 548.432 534.879 552.107C548.031 555.047 546.6 564.007 544.241 568.12C525.422 592.669 505.893 582.105 500.843 600.587C495.792 619.068 510.849 620.199 528.317 608.862C545.786 597.526 574.226 611.199 563.127 627.007C552.028 642.816 545.658 638.344 524.683 645.645C507.902 651.486 509.734 662.422 512.748 667.16C515.161 672.001 525.938 678.623 549.744 666.387C573.551 654.15 583.771 664.577 585.905 671.32C587.685 677.814 583.254 691.801 551.289 695.792C511.333 700.781 519.633 716.049 525.263 721.575C530.893 727.101 565.38 691.525 580.276 717.716C595.172 743.908 556.052 743.19 531.891 748.255C512.563 752.307 515.945 761.185 520.052 765.118C558.562 777.994 561.36 746.917 576.674 770.256C588.925 788.926 572.621 792.584 562.937 792.079C545.157 789.561 512.467 788.113 523.946 802.466C538.295 820.407 580.213 790.048 580.149 810.457C580.098 826.784 569.34 829.615 563.967 828.99C544.171 825.581 507.661 822.501 519.989 837.449C535.4 856.135 574.68 831.791 572.075 853.563C569.47 875.334 549.716 858.319 527.454 858.424C509.644 858.507 529.448 866.117 541.577 869.912C577.545 884.151 536.334 897.699 525.074 886.647C516.065 877.805 507.336 887.83 504.098 893.948C474.79 870.225 469.546 898.011 451.594 880.688C437.233 866.829 449.471 861.889 457.385 861.152C468.484 862.651 490.212 864.06 488.333 857.706C486.455 851.352 465.417 848.959 455.133 848.557C438.789 840.23 443.325 829.254 470.156 833.931C491.621 837.672 495.057 827.812 494.091 822.414C493.555 819.415 487.799 814.22 469.062 817.429C450.326 820.638 445.405 809.736 445.287 803.884C444.815 797.784 448.942 786.94 469.222 792.367C489.503 797.795 497.876 789.932 499.528 785.323C503.98 764.533 490.616 764.905 483.377 767.69C472.027 774.827 454.97 769.774 447.86 766.356C443.614 763.374 437.552 754.399 447.281 742.348C459.441 727.285 479.227 760.057 494.025 738.978C505.864 722.116 491.087 719.083 482.218 719.675C466.004 722.452 433.884 723.503 435.119 705.489C436.663 682.972 474.85 694.049 479.837 695.976C483.826 697.518 489.692 693.979 492.126 692.017C502.858 673.119 485.402 669.989 475.333 670.786C434.051 680.824 426.239 666.214 427.494 657.654C427.022 651.554 429.514 639.877 443.257 641.974C460.437 644.595 478.581 652.613 478.227 635.057C477.944 621.013 455.761 621.907 444.705 624.109C435.45 626.003 417.462 625.437 419.546 608.02C422.152 586.248 468.414 606.141 468.8 587.531C469.109 572.643 459.084 571.269 454.033 572.444C441.572 578.905 414.289 587.966 404.844 572.523C393.036 553.22 432.993 548.231 442.322 548.488C451.652 548.744 452.971 519.776 438.043 529.75C423.116 539.724 402.559 544.172 397.99 539.391C393.422 534.61 380.135 517.415 400.692 512.967C421.25 508.519 432.477 503.815 428.745 493.328C425.759 484.938 418.236 486.474 414.847 488.29C390.963 504.249 377.057 498.471 373.089 493.588C359.255 468.142 426.268 474.281 408.734 454.104C391.2 433.928 372.413 474.233 354.043 459.762C339.347 448.186 352.766 440.51 361.313 438.119C373.785 436.91 395.987 431.624 385.023 420.15C371.318 405.808 352.209 444.314 333.839 429.844C319.143 418.268 332.841 408.689 341.527 405.347C351.168 402.151 369.13 393.573 363.854 384.834C358.577 376.095 344.497 389.076 338.117 396.66C307.104 420.515 296.005 384.401 311.479 382.678C323.858 381.3 333.366 371.821 336.572 367.254C344.756 346.567 328.593 353.786 319.489 359.981C310.428 369.877 290.645 386.617 284.005 374.403C275.704 359.135 285.774 358.338 299.961 349.418C314.148 340.497 315.628 338.39 307.135 332.427C300.34 327.656 297.097 331.673 296.325 334.278C284.667 356.302 268.948 355.965 262.546 353.044C258.793 349.36 254.567 339.575 267.693 329.91C284.1 317.828 285.676 311.068 276.443 306.159C269.056 302.232 251.06 318.233 242.985 326.724C237.195 328.952 224.442 331.012 219.758 321.43C213.902 309.452 238.288 310.839 243.242 297.01C247.205 285.947 239.939 288.922 235.81 291.792C233.344 295.305 225.87 303.694 215.704 309.144C202.996 315.956 200.004 304.415 200.422 301.562C200.757 299.279 209.87 290.363 214.384 286.19C228.333 264.516 212.475 268.592 202.802 273.339C193.13 278.086 177.703 295.996 164.036 290.177C150.37 284.358 171.661 268.782 184.014 261.722C188.422 256.949 193.421 247.872 178.159 249.744C159.081 252.084 147.179 289.356 132.187 267.816C117.194 246.277 160.883 251.775 153.644 237.253C146.405 222.731 97.9879 237.513 108.861 215.253C117.56 197.444 137.429 205.415 146.276 211.626Z" fill="#73628A"/>
<path d="M170.232 193.47C172.457 189.561 169.713 189.845 167.807 189.631C167.477 189.594 167.146 189.541 166.815 189.569C162.111 189.977 167.297 198.627 170.232 193.47Z" fill="#CBC5EA"/>
<path d="M184.732 203.649C186.957 199.741 184.213 200.025 182.307 199.81C181.977 199.773 181.646 199.72 181.315 199.749C176.611 200.156 181.797 208.807 184.732 203.649Z" fill="#CBC5EA"/>
<path d="M180.824 229.767C183.048 225.858 180.304 226.142 178.398 225.928C178.069 225.89 177.738 225.838 177.407 225.866C172.703 226.273 177.889 234.924 180.824 229.767Z" fill="#CBC5EA"/>
<path d="M173.113 209.919C175.338 206.01 172.594 206.295 170.687 206.08C170.358 206.043 170.027 205.99 169.696 206.018C164.992 206.426 170.178 215.076 173.113 209.919Z" fill="#CBC5EA"/>
<path d="M183.705 246.22C185.929 242.311 183.185 242.595 181.279 242.381C180.95 242.344 180.619 242.291 180.288 242.319C175.584 242.727 180.77 251.377 183.705 246.22Z" fill="#CBC5EA"/>
<path d="M174.039 239.435C176.263 235.526 173.519 235.81 171.613 235.595C171.284 235.558 170.953 235.506 170.622 235.534C165.918 235.941 171.104 244.592 174.039 239.435Z" fill="#CBC5EA"/>
<path d="M164.541 249.751C166.765 245.842 164.021 246.127 162.115 245.912C161.785 245.875 161.455 245.822 161.124 245.851C156.42 246.258 161.606 254.908 164.541 249.751Z" fill="#CBC5EA"/>
<path d="M135.785 263.091C138.009 259.182 135.265 259.466 133.359 259.252C133.03 259.215 132.699 259.162 132.368 259.19C127.664 259.598 132.85 268.248 135.785 263.091Z" fill="#CBC5EA"/>
<path d="M153.541 259.751C155.765 255.842 153.021 256.127 151.115 255.912C150.785 255.875 150.455 255.822 150.124 255.851C145.42 256.258 150.606 264.908 153.541 259.751Z" fill="#CBC5EA"/>
<path d="M141.644 223.907C143.869 219.999 141.125 220.283 139.219 220.068C138.889 220.031 138.558 219.978 138.228 220.007C133.523 220.414 138.709 229.064 141.644 223.907Z" fill="#CBC5EA"/>
<path d="M131.976 217.122C134.201 213.214 131.457 213.498 129.551 213.283C129.221 213.246 128.89 213.193 128.56 213.222C123.856 213.629 129.041 222.279 131.976 217.122Z" fill="#CBC5EA"/>
<path d="M116.541 219.751C118.765 215.842 116.021 216.127 114.115 215.912C113.785 215.875 113.455 215.822 113.124 215.851C108.42 216.258 113.606 224.908 116.541 219.751Z" fill="#CBC5EA"/>
<path d="M208.9 220.618C211.125 216.71 208.381 216.994 206.474 216.779C206.145 216.742 205.814 216.689 205.483 216.718C200.779 217.125 205.965 225.775 208.9 220.618Z" fill="#CBC5EA"/>
<path d="M221.963 222.571C224.187 218.663 221.443 218.947 219.537 218.732C219.207 218.695 218.876 218.642 218.546 218.671C213.842 219.078 219.027 227.728 221.963 222.571Z" fill="#CBC5EA"/>
<path d="M220.008 235.626C222.232 231.717 219.488 232.002 217.582 231.787C217.252 231.75 216.921 231.697 216.591 231.726C211.887 232.133 217.072 240.783 220.008 235.626Z" fill="#CBC5EA"/>
<path d="M211.267 258.353C213.492 254.444 210.748 254.728 208.842 254.513C208.512 254.476 208.181 254.423 207.851 254.452C203.147 254.859 208.332 263.51 211.267 258.353Z" fill="#CBC5EA"/>
<path d="M198.207 256.399C200.431 252.491 197.687 252.775 195.781 252.56C195.452 252.523 195.121 252.47 194.79 252.499C190.086 252.906 195.272 261.557 198.207 256.399Z" fill="#CBC5EA"/>
<path d="M204.486 268.024C206.711 264.116 203.967 264.4 202.06 264.185C201.731 264.148 201.4 264.095 201.069 264.124C196.365 264.531 201.551 273.182 204.486 268.024Z" fill="#CBC5EA"/>
<path d="M184.634 275.731C186.859 271.823 184.115 272.107 182.209 271.892C181.879 271.855 181.548 271.802 181.218 271.831C176.514 272.238 181.699 280.889 184.634 275.731Z" fill="#CBC5EA"/>
<path d="M173.541 281.751C175.765 277.842 173.021 278.127 171.115 277.912C170.785 277.875 170.455 277.822 170.124 277.851C165.42 278.258 170.606 286.908 173.541 281.751Z" fill="#CBC5EA"/>
<path d="M211.683 309.153C213.908 305.245 211.164 305.529 209.258 305.314C208.928 305.277 208.597 305.224 208.267 305.253C203.563 305.66 208.748 314.31 211.683 309.153Z" fill="#CBC5EA"/>
<path d="M218.468 299.493C220.693 295.585 217.949 295.869 216.043 295.654C215.713 295.617 215.382 295.564 215.052 295.593C210.348 296 215.533 304.65 218.468 299.493Z" fill="#CBC5EA"/>
<path d="M232.039 280.153C234.263 276.245 231.519 276.529 229.613 276.314C229.284 276.277 228.953 276.224 228.622 276.253C223.918 276.66 229.104 285.31 232.039 280.153Z" fill="#CBC5EA"/>
<path d="M226.541 267.751C228.765 263.842 226.021 264.127 224.115 263.912C223.785 263.875 223.455 263.822 223.124 263.851C218.42 264.258 223.606 272.908 226.541 267.751Z" fill="#CBC5EA"/>
<path d="M249.527 234.696C251.752 230.788 249.008 231.072 247.101 230.857C246.772 230.82 246.441 230.767 246.11 230.796C241.406 231.203 246.592 239.853 249.527 234.696Z" fill="#CBC5EA"/>
<path d="M238.832 270.485C241.056 266.577 238.312 266.861 236.406 266.646C236.077 266.609 235.746 266.556 235.415 266.585C230.711 266.992 235.897 275.642 238.832 270.485Z" fill="#CBC5EA"/>
<path d="M247.572 247.763C249.797 243.854 247.053 244.138 245.146 243.924C244.817 243.886 244.486 243.834 244.155 243.862C239.451 244.27 244.637 252.92 247.572 247.763Z" fill="#CBC5EA"/>
<path d="M253.328 280.665C255.552 276.757 252.808 277.041 250.902 276.826C250.573 276.789 250.242 276.736 249.911 276.765C245.207 277.172 250.393 285.822 253.328 280.665Z" fill="#CBC5EA"/>
<path d="M289.541 256.751C291.765 252.842 289.021 253.127 287.115 252.912C286.785 252.875 286.455 252.822 286.124 252.851C281.42 253.258 286.606 261.908 289.541 256.751Z" fill="#CBC5EA"/>
<path d="M279.963 263.286C282.187 259.378 279.443 259.662 277.537 259.447C277.207 259.41 276.876 259.357 276.546 259.386C271.842 259.793 277.027 268.443 279.963 263.286Z" fill="#CBC5EA"/>
<path d="M277.5 297.634C279.724 293.725 276.98 294.009 275.074 293.795C274.744 293.758 274.414 293.705 274.083 293.733C269.379 294.141 274.565 302.791 277.5 297.634Z" fill="#CBC5EA"/>
<path d="M254.258 310.181C256.482 306.272 253.738 306.556 251.832 306.342C251.502 306.304 251.171 306.252 250.841 306.28C246.137 306.687 251.322 315.338 254.258 310.181Z" fill="#CBC5EA"/>
<path d="M234.541 321.751C236.765 317.842 234.021 318.127 232.115 317.912C231.785 317.875 231.455 317.822 231.124 317.851C226.42 318.258 231.606 326.908 234.541 321.751Z" fill="#CBC5EA"/>
<path d="M308.453 304.939C310.677 301.03 307.933 301.314 306.027 301.099C305.698 301.062 305.367 301.009 305.036 301.038C300.332 301.445 305.518 310.096 308.453 304.939Z" fill="#CBC5EA"/>
<path d="M307.937 326.22C310.162 322.311 307.418 322.595 305.512 322.381C305.182 322.344 304.851 322.291 304.521 322.319C299.816 322.727 305.002 331.377 307.937 326.22Z" fill="#CBC5EA"/>
<path d="M292.924 337.329C295.148 333.421 292.404 333.705 290.498 333.49C290.168 333.453 289.837 333.4 289.507 333.429C284.803 333.836 289.988 342.486 292.924 337.329Z" fill="#CBC5EA"/>
<path d="M273.074 345.04C275.298 341.132 272.554 341.416 270.648 341.201C270.319 341.164 269.988 341.111 269.657 341.14C264.953 341.547 270.139 350.197 273.074 345.04Z" fill="#CBC5EA"/>
<path d="M298.685 370.235C300.91 366.327 298.166 366.611 296.26 366.396C295.93 366.359 295.599 366.306 295.269 366.335C290.564 366.742 295.75 375.392 298.685 370.235Z" fill="#CBC5EA"/>
<path d="M308.863 355.739C311.088 351.831 308.344 352.115 306.437 351.9C306.108 351.863 305.777 351.81 305.446 351.839C300.742 352.246 305.928 360.896 308.863 355.739Z" fill="#CBC5EA"/>
<path d="M306.91 368.798C309.134 364.889 306.39 365.173 304.484 364.959C304.155 364.922 303.824 364.869 303.493 364.897C298.789 365.305 303.975 373.955 306.91 368.798Z" fill="#CBC5EA"/>
<path d="M353.906 322.423C356.131 318.514 353.386 318.798 351.48 318.584C351.151 318.547 350.82 318.494 350.489 318.522C345.785 318.93 350.971 327.58 353.906 322.423Z" fill="#CBC5EA"/>
<path d="M341.775 349.981C344 346.073 341.256 346.357 339.349 346.142C339.02 346.105 338.689 346.052 338.358 346.081C333.654 346.488 338.84 355.139 341.775 349.981Z" fill="#CBC5EA"/>
<path d="M366.455 345.657C368.679 341.749 365.935 342.033 364.029 341.818C363.7 341.781 363.369 341.728 363.038 341.757C358.334 342.164 363.52 350.814 366.455 345.657Z" fill="#CBC5EA"/>
<path d="M381.47 334.548C383.695 330.639 380.951 330.923 379.045 330.709C378.715 330.672 378.384 330.619 378.054 330.647C373.35 331.055 378.535 339.705 381.47 334.548Z" fill="#CBC5EA"/>
<path d="M382.91 342.778C385.134 338.87 382.39 339.154 380.484 338.939C380.155 338.902 379.824 338.849 379.493 338.878C374.789 339.285 379.975 347.935 382.91 342.778Z" fill="#CBC5EA"/>
<path d="M311.234 393.478C313.459 389.569 310.715 389.853 308.808 389.638C308.479 389.601 308.148 389.548 307.817 389.577C303.113 389.984 308.299 398.635 311.234 393.478Z" fill="#CBC5EA"/>
<path d="M331.541 390.751C333.765 386.842 331.021 387.127 329.115 386.912C328.785 386.875 328.455 386.822 328.124 386.851C323.42 387.258 328.606 395.908 331.541 390.751Z" fill="#CBC5EA"/>
<path d="M353.293 415.794C355.517 411.885 352.773 412.17 350.867 411.955C350.537 411.918 350.206 411.865 349.876 411.893C345.172 412.301 350.358 420.951 353.293 415.794Z" fill="#CBC5EA"/>
<path d="M377.972 411.478C380.197 407.569 377.453 407.853 375.547 407.638C375.217 407.601 374.886 407.548 374.556 407.577C369.852 407.984 375.037 416.635 377.972 411.478Z" fill="#CBC5EA"/>
<path d="M378.488 390.189C380.713 386.28 377.969 386.564 376.062 386.349C375.733 386.312 375.402 386.259 375.071 386.288C370.367 386.695 375.553 395.346 378.488 390.189Z" fill="#CBC5EA"/>
<path d="M395.869 416.821C398.093 412.913 395.349 413.197 393.443 412.982C393.114 412.945 392.783 412.892 392.452 412.921C387.748 413.328 392.934 421.978 395.869 416.821Z" fill="#CBC5EA"/>
<path d="M437.519 388.333C439.744 384.425 437 384.709 435.094 384.494C434.764 384.457 434.433 384.404 434.103 384.433C429.398 384.84 434.584 393.49 437.519 388.333Z" fill="#CBC5EA"/>
<path d="M415.717 409.106C417.941 405.198 415.197 405.482 413.291 405.267C412.961 405.23 412.63 405.177 412.3 405.206C407.596 405.613 412.781 414.264 415.717 409.106Z" fill="#CBC5EA"/>
<path d="M403.578 436.669C405.802 432.76 403.058 433.045 401.152 432.83C400.823 432.793 400.492 432.74 400.161 432.768C395.457 433.176 400.643 441.826 403.578 436.669Z" fill="#CBC5EA"/>
<path d="M363.888 452.095C366.113 448.186 363.369 448.47 361.463 448.256C361.133 448.219 360.802 448.166 360.472 448.194C355.768 448.602 360.953 457.252 363.888 452.095Z" fill="#CBC5EA"/>
<path d="M388.566 447.774C390.791 443.866 388.047 444.15 386.141 443.935C385.811 443.898 385.48 443.845 385.149 443.874C380.445 444.281 385.631 452.932 388.566 447.774Z" fill="#CBC5EA"/>
<path d="M375.541 446.751C377.765 442.842 375.021 443.127 373.115 442.912C372.785 442.875 372.455 442.822 372.124 442.851C367.42 443.258 372.606 451.908 375.541 446.751Z" fill="#CBC5EA"/>
<path d="M414.687 451.685C416.912 447.776 414.168 448.06 412.262 447.845C411.932 447.808 411.601 447.756 411.271 447.784C406.566 448.191 411.752 456.842 414.687 451.685Z" fill="#CBC5EA"/>
<path d="M435.976 452.196C438.201 448.288 435.457 448.572 433.551 448.357C433.221 448.32 432.89 448.267 432.56 448.296C427.856 448.703 433.041 457.353 435.976 452.196Z" fill="#CBC5EA"/>
<path d="M466.004 429.985C468.228 426.077 465.484 426.361 463.578 426.146C463.248 426.109 462.917 426.056 462.587 426.085C457.883 426.492 463.068 435.142 466.004 429.985Z" fill="#CBC5EA"/>
<path d="M464.05 443.04C466.275 439.132 463.531 439.416 461.625 439.201C461.295 439.164 460.964 439.111 460.634 439.14C455.93 439.547 461.115 448.197 464.05 443.04Z" fill="#CBC5EA"/>
<path d="M415.617 481.196C417.841 477.288 415.097 477.572 413.191 477.357C412.862 477.32 412.531 477.267 412.2 477.296C407.496 477.703 412.682 486.353 415.617 481.196Z" fill="#CBC5EA"/>
<path d="M400.603 492.306C402.828 488.397 400.084 488.681 398.178 488.467C397.848 488.429 397.517 488.377 397.187 488.405C392.482 488.812 397.668 497.463 400.603 492.306Z" fill="#CBC5EA"/>
<path d="M430.633 470.087C432.857 466.178 430.113 466.463 428.207 466.248C427.877 466.211 427.546 466.158 427.216 466.186C422.512 466.594 427.697 475.244 430.633 470.087Z" fill="#CBC5EA"/>
<path d="M436.906 481.704C439.131 477.796 436.386 478.08 434.48 477.865C434.151 477.828 433.82 477.775 433.489 477.804C428.785 478.211 433.971 486.861 436.906 481.704Z" fill="#CBC5EA"/>
<path d="M461.072 498.673C463.297 494.764 460.553 495.048 458.646 494.834C458.317 494.797 457.986 494.744 457.655 494.772C452.951 495.18 458.137 503.83 461.072 498.673Z" fill="#CBC5EA"/>
<path d="M474.642 479.345C476.867 475.436 474.123 475.72 472.217 475.506C471.887 475.469 471.556 475.416 471.226 475.444C466.522 475.852 471.707 484.502 474.642 479.345Z" fill="#CBC5EA"/>
<path d="M491.097 476.458C493.322 472.55 490.578 472.834 488.672 472.619C488.342 472.582 488.011 472.529 487.681 472.558C482.977 472.965 488.162 481.615 491.097 476.458Z" fill="#CBC5EA"/>
<path d="M497.884 466.794C500.109 462.885 497.365 463.17 495.459 462.955C495.129 462.918 494.798 462.865 494.468 462.893C489.764 463.301 494.949 471.951 497.884 466.794Z" fill="#CBC5EA"/>
<path d="M477.525 495.798C479.75 491.889 477.006 492.173 475.099 491.959C474.77 491.922 474.439 491.869 474.108 491.897C469.404 492.305 474.59 500.955 477.525 495.798Z" fill="#CBC5EA"/>
<path d="M398.133 526.653C400.357 522.745 397.613 523.029 395.707 522.814C395.377 522.777 395.046 522.724 394.716 522.753C390.012 523.16 395.197 531.81 398.133 526.653Z" fill="#CBC5EA"/>
<path d="M426.625 568.298C428.849 564.389 426.105 564.673 424.199 564.459C423.869 564.422 423.539 564.369 423.208 564.397C418.504 564.805 423.69 573.455 426.625 568.298Z" fill="#CBC5EA"/>
<path d="M454.697 559.146C456.922 555.237 454.178 555.521 452.271 555.306C451.942 555.269 451.611 555.216 451.28 555.245C446.576 555.652 451.762 564.303 454.697 559.146Z" fill="#CBC5EA"/>
<path d="M464.879 544.642C467.103 540.733 464.359 541.017 462.453 540.803C462.123 540.765 461.792 540.713 461.462 540.741C456.758 541.148 461.943 549.799 464.879 544.642Z" fill="#CBC5EA"/>
<path d="M489.56 540.317C491.785 536.409 489.041 536.693 487.135 536.478C486.805 536.441 486.474 536.388 486.144 536.417C481.439 536.824 486.625 545.475 489.56 540.317Z" fill="#CBC5EA"/>
<path d="M503.133 520.989C505.357 517.081 502.613 517.365 500.707 517.15C500.377 517.113 500.046 517.06 499.716 517.089C495.012 517.496 500.197 526.146 503.133 520.989Z" fill="#CBC5EA"/>
<path d="M512.8 527.782C515.025 523.874 512.281 524.158 510.375 523.943C510.045 523.906 509.714 523.853 509.384 523.882C504.68 524.289 509.865 532.939 512.8 527.782Z" fill="#CBC5EA"/>
<path d="M518.045 581.97C520.269 578.061 517.525 578.345 515.619 578.131C515.289 578.094 514.958 578.041 514.628 578.069C509.924 578.477 515.11 587.127 518.045 581.97Z" fill="#CBC5EA"/>
<path d="M488.533 582.899C490.757 578.991 488.013 579.275 486.107 579.06C485.778 579.023 485.447 578.97 485.116 578.999C480.412 579.406 485.598 588.057 488.533 582.899Z" fill="#CBC5EA"/>
<path d="M472.593 564.489C474.818 560.581 472.074 560.865 470.168 560.65C469.838 560.613 469.507 560.56 469.177 560.589C464.473 560.996 469.658 569.646 472.593 564.489Z" fill="#CBC5EA"/>
<path d="M483.183 600.798C485.408 596.889 482.664 597.173 480.758 596.959C480.428 596.922 480.097 596.869 479.767 596.897C475.063 597.305 480.248 605.955 483.183 600.798Z" fill="#CBC5EA"/>
<path d="M430.429 614.263C432.654 610.354 429.91 610.638 428.004 610.424C427.674 610.386 427.343 610.334 427.013 610.362C422.309 610.77 427.494 619.42 430.429 614.263Z" fill="#CBC5EA"/>
<path d="M446.881 611.392C449.105 607.483 446.361 607.767 444.455 607.553C444.125 607.515 443.794 607.463 443.464 607.491C438.76 607.898 443.945 616.549 446.881 611.392Z" fill="#CBC5EA"/>
<path d="M440.097 621.06C442.322 617.151 439.578 617.435 437.672 617.22C437.342 617.183 437.011 617.131 436.681 617.159C431.977 617.566 437.162 626.217 440.097 621.06Z" fill="#CBC5EA"/>
<path d="M482.668 622.079C484.892 618.171 482.148 618.455 480.242 618.24C479.912 618.203 479.581 618.15 479.251 618.179C474.547 618.586 479.733 627.236 482.668 622.079Z" fill="#CBC5EA"/>
<path d="M510.23 634.216C512.455 630.307 509.711 630.591 507.805 630.377C507.475 630.34 507.144 630.287 506.813 630.315C502.109 630.723 507.295 639.373 510.23 634.216Z" fill="#CBC5EA"/>
<path d="M546.535 623.622C548.759 619.714 546.015 619.998 544.109 619.783C543.78 619.746 543.449 619.693 543.118 619.722C538.414 620.129 543.6 628.779 546.535 623.622Z" fill="#CBC5EA"/>
<path d="M539.748 633.282C541.972 629.374 539.228 629.658 537.322 629.443C536.993 629.406 536.662 629.353 536.331 629.382C531.627 629.789 536.813 638.439 539.748 633.282Z" fill="#CBC5EA"/>
<path d="M491.824 650.157C494.048 646.249 491.304 646.533 489.398 646.318C489.069 646.281 488.738 646.228 488.407 646.257C483.703 646.664 488.889 655.314 491.824 650.157Z" fill="#CBC5EA"/>
<path d="M502.931 665.165C505.156 661.257 502.412 661.541 500.506 661.326C500.176 661.289 499.845 661.236 499.515 661.265C494.811 661.672 499.996 670.322 502.931 665.165Z" fill="#CBC5EA"/>
<path d="M476.812 661.259C479.037 657.35 476.293 657.634 474.387 657.42C474.057 657.383 473.726 657.33 473.396 657.358C468.691 657.766 473.877 666.416 476.812 661.259Z" fill="#CBC5EA"/>
<path d="M441.025 650.571C443.25 646.663 440.506 646.947 438.599 646.732C438.27 646.695 437.939 646.642 437.608 646.671C432.904 647.078 438.09 655.728 441.025 650.571Z" fill="#CBC5EA"/>
<path d="M443.541 661.751C445.765 657.842 443.021 658.127 441.115 657.912C440.785 657.875 440.455 657.822 440.124 657.851C435.42 658.258 440.606 666.908 443.541 661.751Z" fill="#CBC5EA"/>
<path d="M460.359 664.142C462.584 660.233 459.84 660.517 457.933 660.303C457.604 660.265 457.273 660.213 456.942 660.241C452.238 660.648 457.424 669.299 460.359 664.142Z" fill="#CBC5EA"/>
<path d="M510.646 685.017C512.871 681.108 510.127 681.392 508.221 681.178C507.891 681.14 507.56 681.088 507.23 681.116C502.525 681.523 507.711 690.174 510.646 685.017Z" fill="#CBC5EA"/>
<path d="M536.769 688.923C538.994 685.014 536.25 685.298 534.344 685.084C534.014 685.047 533.683 684.994 533.353 685.022C528.648 685.43 533.834 694.08 536.769 688.923Z" fill="#CBC5EA"/>
<path d="M556.611 681.208C558.836 677.3 556.092 677.584 554.185 677.369C553.856 677.332 553.525 677.279 553.194 677.308C548.49 677.715 553.676 686.365 556.611 681.208Z" fill="#CBC5EA"/>
<path d="M510.133 706.298C512.357 702.389 509.613 702.673 507.707 702.459C507.377 702.422 507.046 702.369 506.716 702.397C502.012 702.805 507.197 711.455 510.133 706.298Z" fill="#CBC5EA"/>
<path d="M446.269 704.763C448.494 700.854 445.75 701.138 443.844 700.924C443.514 700.886 443.183 700.834 442.853 700.862C438.148 701.27 443.334 709.92 446.269 704.763Z" fill="#CBC5EA"/>
<path d="M452.545 716.388C454.769 712.479 452.025 712.763 450.119 712.549C449.789 712.511 449.458 712.459 449.128 712.487C444.424 712.895 449.61 721.545 452.545 716.388Z" fill="#CBC5EA"/>
<path d="M509.619 727.587C511.843 723.678 509.099 723.963 507.193 723.748C506.864 723.711 506.533 723.658 506.202 723.686C501.498 724.094 506.684 732.744 509.619 727.587Z" fill="#CBC5EA"/>
<path d="M543.97 730.06C546.195 726.151 543.451 726.435 541.545 726.22C541.215 726.183 540.884 726.131 540.554 726.159C535.85 726.566 541.035 735.217 543.97 730.06Z" fill="#CBC5EA"/>
<path d="M573.48 729.134C575.705 725.225 572.961 725.509 571.055 725.295C570.725 725.258 570.394 725.205 570.063 725.233C565.359 725.641 570.545 734.291 573.48 729.134Z" fill="#CBC5EA"/>
<path d="M533.785 744.56C536.009 740.651 533.265 740.935 531.359 740.72C531.03 740.683 530.699 740.631 530.368 740.659C525.664 741.066 530.85 749.717 533.785 744.56Z" fill="#CBC5EA"/>
<path d="M520.726 742.606C522.951 738.698 520.207 738.982 518.301 738.767C517.971 738.73 517.64 738.677 517.31 738.706C512.606 739.113 517.791 747.764 520.726 742.606Z" fill="#CBC5EA"/>
<path d="M463.14 752.685C465.365 748.776 462.621 749.06 460.715 748.845C460.385 748.808 460.054 748.756 459.724 748.784C455.02 749.191 460.205 757.842 463.14 752.685Z" fill="#CBC5EA"/>
<path d="M549.215 784.251C551.439 780.342 548.695 780.627 546.789 780.412C546.459 780.375 546.128 780.322 545.798 780.351C541.094 780.758 546.279 789.408 549.215 784.251Z" fill="#CBC5EA"/>
<path d="M564.228 773.142C566.453 769.233 563.709 769.517 561.803 769.303C561.473 769.265 561.142 769.213 560.812 769.241C556.107 769.648 561.293 778.299 564.228 773.142Z" fill="#CBC5EA"/>
<path d="M570.5 784.767C572.724 780.858 569.98 781.142 568.074 780.928C567.744 780.89 567.414 780.838 567.083 780.866C562.379 781.273 567.565 789.924 570.5 784.767Z" fill="#CBC5EA"/>
<path d="M460.156 808.321C462.381 804.413 459.636 804.697 457.73 804.482C457.401 804.445 457.07 804.392 456.739 804.421C452.035 804.828 457.221 813.478 460.156 808.321Z" fill="#CBC5EA"/>
<path d="M498.828 835.47C501.052 831.561 498.308 831.845 496.402 831.631C496.073 831.594 495.742 831.541 495.411 831.569C490.707 831.977 495.893 840.627 498.828 835.47Z" fill="#CBC5EA"/>
<path d="M483.81 846.571C486.035 842.663 483.291 842.947 481.385 842.732C481.055 842.695 480.724 842.642 480.394 842.671C475.689 843.078 480.875 851.728 483.81 846.571Z" fill="#CBC5EA"/>
<path d="M564.642 823.95C566.867 820.042 564.123 820.326 562.217 820.111C561.887 820.074 561.556 820.021 561.226 820.05C556.522 820.457 561.707 829.107 564.642 823.95Z" fill="#CBC5EA"/>
<path d="M530.293 821.481C532.517 817.573 529.773 817.857 527.867 817.642C527.537 817.605 527.206 817.552 526.876 817.581C522.172 817.988 527.358 826.639 530.293 821.481Z" fill="#CBC5EA"/>
<path d="M512.402 816.13C514.627 812.221 511.883 812.506 509.976 812.291C509.647 812.254 509.316 812.201 508.985 812.229C504.281 812.637 509.467 821.287 512.402 816.13Z" fill="#CBC5EA"/>
<path d="M509.931 850.485C512.156 846.577 509.412 846.861 507.506 846.646C507.176 846.609 506.845 846.556 506.515 846.585C501.811 846.992 506.996 855.642 509.931 850.485Z" fill="#CBC5EA"/>
<path d="M540.886 857.782C543.111 853.874 540.367 854.158 538.461 853.943C538.131 853.906 537.8 853.853 537.47 853.882C532.766 854.289 537.951 862.939 540.886 857.782Z" fill="#CBC5EA"/>
<path d="M562.174 858.298C564.398 854.389 561.654 854.673 559.748 854.459C559.418 854.422 559.087 854.369 558.757 854.397C554.053 854.805 559.238 863.455 562.174 858.298Z" fill="#CBC5EA"/>
<path d="M550.039 885.86C552.263 881.952 549.519 882.236 547.613 882.021C547.284 881.984 546.953 881.931 546.622 881.96C541.918 882.367 547.104 891.017 550.039 885.86Z" fill="#CBC5EA"/>
<path d="M532.146 880.513C534.371 876.604 531.627 876.888 529.721 876.674C529.391 876.636 529.06 876.584 528.73 876.612C524.025 877.02 529.211 885.67 532.146 880.513Z" fill="#CBC5EA"/>
<path d="M522.48 873.724C524.705 869.815 521.961 870.099 520.055 869.885C519.725 869.847 519.394 869.795 519.063 869.823C514.359 870.23 519.545 878.881 522.48 873.724Z" fill="#CBC5EA"/>
<path d="M463.451 875.575C465.675 871.667 462.931 871.951 461.025 871.736C460.696 871.699 460.365 871.646 460.034 871.675C455.33 872.082 460.516 880.732 463.451 875.575Z" fill="#CBC5EA"/>
<path d="M499.541 871.751C501.765 867.842 499.021 868.127 497.115 867.912C496.785 867.875 496.455 867.822 496.124 867.851C491.42 868.258 496.606 876.908 499.541 871.751Z" fill="#CBC5EA"/>
<path d="M182.779 216.712C185.004 212.803 182.26 213.088 180.353 212.873C180.024 212.836 179.693 212.783 179.362 212.811C174.658 213.219 179.844 221.869 182.779 216.712Z" fill="#CBC5EA"/>
</svg>
