<svg width="157" height="108" viewBox="0 0 157 108" fill="none" xmlns="http://www.w3.org/2000/svg">
<path d="M138.273 42.54C144.179 41.0631 155.992 40.3241 155.993 49.184" stroke="#CBC5EA" stroke-width="2"/>
<path d="M138.275 63.5833C143.812 64.6905 155.109 64.9114 155.994 56.9375" stroke="#CBC5EA" stroke-width="2"/>
<path d="M101.726 21.5033C102.834 18.55 107.042 13.0862 115.016 14.8577" stroke="#CBC5EA" stroke-width="2"/>
<path d="M113.907 31.4693C116.122 27.0393 123.874 19.951 137.164 27.0382" stroke="#CBC5EA" stroke-width="2"/>
<path d="M105.05 89.0592C106.896 91.2741 111.917 95.2608 117.233 93.4885" stroke="#CBC5EA" stroke-width="2"/>
<path d="M116.124 80.1965C118.339 85.3646 125.87 92.8213 138.273 81.3028" stroke="#CBC5EA" stroke-width="2"/>
<path d="M130.524 69.1309C127.202 69.8694 120.778 68.6884 121.663 58.0565C122.771 51.4116 137.169 68.0231 130.524 69.1309Z" fill="#01001B"/>
<path d="M99.5149 79.0999C101.73 77.9923 101.73 76.8848 101.73 75.7773C100.844 71.3474 92.4653 72.9655 91.7624 75.7778C90.6551 80.2078 96.5433 80.5859 99.5149 79.0999Z" fill="#73628A"/>
<path d="M93.9781 90.175C96.193 89.0674 96.193 87.9599 96.1929 86.8524C95.3067 82.4226 85.8211 86.2556 85.1182 89.068C84.0109 93.498 91.0065 91.661 93.9781 90.175Z" fill="#73628A"/>
<path d="M111.697 81.3142C113.448 79.563 113.912 79.0991 113.912 77.9916C113.026 73.5618 104.648 78.5023 103.945 81.3146C102.838 85.7446 109.483 83.5293 111.697 81.3142Z" fill="#73628A"/>
<path d="M75.1512 96.8209C76.9022 95.0697 76.2586 94.6059 76.2586 93.4984C75.3723 89.0685 65.8867 91.7941 65.1838 94.6065C64.0765 99.0364 72.9364 99.036 75.1512 96.8209Z" fill="#73628A"/>
<path d="M85.1177 80.2081C86.8687 78.4569 86.2251 77.9931 86.225 76.8856C85.3388 72.4557 75.8532 75.1813 75.1503 77.9937C74.043 82.4237 82.9029 82.4232 85.1177 80.2081Z" fill="#73628A"/>
<path d="M77.3648 69.1337C79.1157 67.3825 78.4721 66.9187 78.4721 65.8112C77.5858 61.3813 63.6703 64.1071 62.9674 66.9195C61.8601 71.3495 75.1499 71.3488 77.3648 69.1337Z" fill="#73628A"/>
<path d="M67.3982 84.639C69.1492 82.8878 68.5056 82.424 68.5055 81.3165C67.6193 76.8866 54.1081 77.9948 53.0008 82.4248C51.8936 86.8548 65.1834 86.8541 67.3982 84.639Z" fill="#73628A"/>
<path d="M58.5392 100.144C60.2902 98.393 59.6465 97.9292 59.6465 96.8217C58.7603 92.3918 46.3566 95.7149 46.3568 99.0374C46.3572 105.774 56.3243 102.359 58.5392 100.144Z" fill="#73628A"/>
<path d="M54.1077 71.3499C55.8587 69.5987 55.5094 68.3917 55.215 66.9199C54.3288 62.49 41.5208 67.4308 40.8179 70.2431C39.7106 74.6731 51.8929 73.565 54.1077 71.3499Z" fill="#73628A"/>
<path d="M36.389 90.178C38.14 88.4269 37.4962 85.7481 37.4962 85.7481C36.3884 79.1032 23.8021 86.2589 23.0991 89.0713C21.9919 93.5013 34.1741 92.3931 36.389 90.178Z" fill="#73628A"/>
<path d="M33.0658 76.8884C34.8168 75.1372 34.1732 73.5659 34.1732 73.5659C33.0653 66.9211 24.9089 74.0765 24.206 76.8889C23.0987 81.3189 30.851 79.1035 33.0658 76.8884Z" fill="#73628A"/>
<path d="M48.5711 85.7475C50.3221 83.9963 49.6783 81.3175 49.6783 81.3175C48.5705 74.6726 42.629 80.7205 41.9261 83.5329C40.8188 87.9628 46.3562 87.9625 48.5711 85.7475Z" fill="#73628A"/>
<path d="M40.8196 103.468C42.5706 101.716 41.9269 99.0376 41.9269 99.0376C40.819 92.3928 34.8775 98.4406 34.1746 101.253C33.0674 105.683 38.6048 105.683 40.8196 103.468Z" fill="#73628A"/>
<path d="M28.6373 103.468C31.7072 100.398 27.5295 97.9309 27.5295 97.9309C24.207 95.7161 20.4802 97.3339 19.7773 100.146C18.67 104.576 26.4225 105.683 28.6373 103.468Z" fill="#73628A"/>
<path d="M21.9914 84.6414C25.0613 81.5711 20.8836 79.104 20.8836 79.104C17.5611 76.8892 11.6195 81.8296 10.9166 84.642C9.80934 89.072 19.7766 86.8565 21.9914 84.6414Z" fill="#73628A"/>
<path d="M15.3471 95.7166C18.417 92.6463 16.0579 90.3921 16.0579 90.3921C12.7354 88.1773 6.7938 93.1177 6.09087 95.9301C4.98362 100.36 13.1323 97.9316 15.3471 95.7166Z" fill="#73628A"/>
<path d="M77.3617 11.5428C79.5767 12.6501 79.5768 13.7576 79.5769 14.8651C78.6911 19.2951 70.3127 17.6779 69.6095 14.8656C68.5018 10.4358 74.39 10.0571 77.3617 11.5428Z" fill="#73628A"/>
<path d="M108.373 39.8927C110.588 41.0001 110.588 42.1076 110.588 43.215C109.702 47.645 100.216 43.8129 99.5127 41.0007C98.405 36.5708 105.401 38.407 108.373 39.8927Z" fill="#73628A"/>
<path d="M109.876 31.4353C111.627 33.1863 112.091 33.6502 112.091 34.7576C111.206 39.1876 102.827 34.248 102.124 31.4357C101.016 27.0059 107.661 29.2205 109.876 31.4353Z" fill="#73628A"/>
<path d="M95.695 40.9699C97.4462 42.7209 96.8026 43.1849 96.8027 44.2923C95.9169 48.7223 86.431 45.9977 85.7278 43.1854C84.6201 38.7555 93.4799 38.755 95.695 40.9699Z" fill="#73628A"/>
<path d="M96.8019 30.3277C98.5531 32.0786 97.9095 32.5426 97.9096 33.65C97.0239 38.08 87.5379 35.3554 86.8347 32.5431C85.727 28.1133 94.5869 28.1128 96.8019 30.3277Z" fill="#73628A"/>
<path d="M64.4685 14.8255C66.5084 16.2296 65.1798 19.2553 65.1798 19.2553C64.2941 23.6853 50.7745 19.8535 50.0713 17.0412C48.9636 12.6113 59.642 11.5033 64.4685 14.8255Z" fill="#73628A"/>
<path d="M47.4603 22.5787C49.2114 24.3297 48.5679 24.7936 48.5679 25.9011C47.6822 30.3311 33.0633 29.2244 33.0631 24.7945C33.0629 20.3645 45.2452 20.3639 47.4603 22.5787Z" fill="#73628A"/>
<path d="M48.5684 35.9116C50.3196 37.6626 49.676 38.1265 49.6761 39.234C48.7903 43.664 36.3864 40.3422 36.3862 37.0197C36.3858 30.2832 46.3534 33.6968 48.5684 35.9116Z" fill="#73628A"/>
<path d="M67.3959 39.8639C69.147 41.6149 68.7979 42.822 68.5036 44.2938C67.6178 48.7238 54.8094 43.7844 54.1061 40.9721C52.9984 36.5422 65.1808 37.6491 67.3959 39.8639Z" fill="#73628A"/>
<path d="M25.31 10.438C27.0611 12.189 26.4177 14.8679 26.4177 14.8679C25.3105 21.5129 12.7235 14.3585 12.0202 11.5462C10.9125 7.11634 23.0949 8.22318 25.31 10.438Z" fill="#73628A"/>
<path d="M80.6855 36.5408C82.4367 38.2918 81.7931 39.8631 81.7931 39.8631C80.686 46.5081 72.5289 39.3535 71.8256 36.5412C70.7179 32.1114 78.4704 34.3259 80.6855 36.5408Z" fill="#73628A"/>
<path d="M64.4691 27.0078C66.2203 28.7588 65.5768 31.4377 65.5768 31.4377C64.4697 38.0826 58.5276 32.0354 57.8243 29.2231C56.7166 24.7932 62.254 24.7929 64.4691 27.0078Z" fill="#73628A"/>
<path d="M36.781 7.07589C38.5322 8.82689 37.8887 11.5057 37.8887 11.5057C36.7816 18.1507 30.8394 12.1035 30.1362 9.29119C29.0285 4.86132 34.5659 4.86104 36.781 7.07589Z" fill="#73628A"/>
<path d="M28.6333 27.0088C31.7035 30.0787 27.5261 32.5463 27.5261 32.5463C24.2038 34.7614 20.4768 33.144 19.7736 30.3317C18.6659 25.9018 26.4182 24.7939 28.6333 27.0088Z" fill="#73628A"/>
<path d="M16.4506 20.3654C19.5209 23.4353 15.3434 25.9029 15.3434 25.9029C12.0211 28.118 6.07902 23.1783 5.37579 20.366C4.26807 15.9361 14.2355 18.1505 16.4506 20.3654Z" fill="#73628A"/>
<path d="M52.2857 5.1134C55.3559 8.18332 52.997 10.4377 52.997 10.4377C49.6747 12.6529 43.7326 7.71317 43.0294 4.90088C41.9217 0.471008 50.0706 2.89855 52.2857 5.1134Z" fill="#73628A"/>
<path d="M96.1918 65.8103C96.561 67.2869 96.1919 68.0252 93.977 69.1328C91.0054 70.6188 84.0097 70.2408 85.117 65.8108C85.8199 62.9985 95.3056 61.3804 96.1918 65.8103Z" fill="#73628A"/>
<path d="M115.019 66.9168C115.388 68.3934 115.019 70.2392 112.804 71.3468C109.833 72.8328 102.837 73.5623 103.944 69.1323C104.647 66.3199 114.133 62.4869 115.019 66.9168Z" fill="#73628A"/>
<path d="M95.4785 23.6837C95.8476 22.207 95.4783 20.3612 93.2633 19.2539C90.2915 17.7682 83.2958 17.0394 84.4035 21.4693C85.1068 24.2816 94.5927 28.1137 95.4785 23.6837Z" fill="#73628A"/>
<path d="M84.0074 27.0067C84.3765 25.5301 84.0073 24.7918 81.7923 23.6844C78.8205 22.1987 70.7173 20.3625 71.825 24.7924C72.5282 27.6047 83.1217 31.4367 84.0074 27.0067Z" fill="#73628A"/>
<path d="M130.522 38.1213C127.2 37.3831 120.776 38.5649 121.663 49.1967C122.771 55.8415 137.167 39.2284 130.522 38.1213Z" fill="#01001B"/>
<path fill-rule="evenodd" clip-rule="evenodd" d="M80.6839 10.4351C69.2395 3.42166 39.0416 -6.8394 9.80487 8.2239C-9.53344 18.1874 3.68845 31.2505 28.6311 39.8659C29.3605 40.1179 30.1 40.3661 30.849 40.6102C34.3507 41.7518 38.0601 42.806 41.924 43.7537C44.7991 44.4589 47.7597 45.1051 50.7839 45.6843C54.3973 46.3764 58.1014 46.9729 61.8589 47.4602C65.5116 47.934 69.2146 48.3046 72.9337 48.5596C75.8827 48.7618 78.8417 48.8914 81.7936 48.942C86.2596 49.0186 90.7093 48.9147 95.0834 48.6087C98.8434 48.3457 102.548 47.9333 106.158 47.358C106.9 47.2397 107.639 47.1146 108.373 46.9824C109.832 46.6529 111.116 46.2824 112.236 45.8747C118.078 43.7497 119.479 40.6145 118.049 37.0145C114.587 28.3017 94.5359 16.8659 80.6839 10.4351ZM93.2633 19.2539C95.4783 20.3612 95.8476 22.207 95.4785 23.6837C94.5927 28.1137 85.1068 24.2816 84.4035 21.4693C83.2958 17.0394 90.2915 17.7682 93.2633 19.2539ZM81.7923 23.6844C84.0073 24.7918 84.3765 25.5301 84.0074 27.0067C83.1217 31.4367 72.5282 27.6047 71.825 24.7924C70.7173 20.3625 78.8205 22.1987 81.7923 23.6844ZM77.3617 11.5428C79.5767 12.6501 79.5768 13.7576 79.5769 14.8651C78.6911 19.2951 70.3127 17.6779 69.6095 14.8656C68.5018 10.4358 74.39 10.0571 77.3617 11.5428ZM108.373 39.8927C110.588 41.0001 110.588 42.1076 110.588 43.215C109.702 47.645 100.216 43.8129 99.5127 41.0007C98.405 36.5708 105.401 38.407 108.373 39.8927ZM109.876 31.4353C111.627 33.1863 112.091 33.6502 112.091 34.7576C111.206 39.1876 102.827 34.248 102.124 31.4357C101.016 27.0059 107.661 29.2205 109.876 31.4353ZM95.695 40.9699C97.4462 42.7209 96.8026 43.1849 96.8027 44.2923C95.9169 48.7223 86.431 45.9977 85.7278 43.1854C84.6201 38.7555 93.4799 38.755 95.695 40.9699ZM96.8019 30.3277C98.5531 32.0786 97.9095 32.5426 97.9096 33.65C97.0239 38.08 87.5379 35.3554 86.8347 32.5431C85.727 28.1133 94.5869 28.1128 96.8019 30.3277ZM64.4685 14.8255C66.5084 16.2296 65.1798 19.2553 65.1798 19.2553C64.2941 23.6853 50.7745 19.8535 50.0713 17.0412C48.9636 12.6113 59.642 11.5033 64.4685 14.8255ZM47.4603 22.5787C49.2114 24.3297 48.5679 24.7936 48.5679 25.9011C47.6822 30.3311 33.0633 29.2244 33.0631 24.7945C33.0629 20.3645 45.2452 20.3639 47.4603 22.5787ZM48.5684 35.9116C50.3196 37.6626 49.676 38.1265 49.6761 39.234C48.7903 43.664 36.3864 40.3422 36.3862 37.0197C36.3858 30.2832 46.3534 33.6968 48.5684 35.9116ZM67.3959 39.8639C69.147 41.6149 68.7979 42.822 68.5036 44.2938C67.6178 48.7238 54.8094 43.7844 54.1061 40.9721C52.9984 36.5422 65.1808 37.6491 67.3959 39.8639ZM25.31 10.438C27.0611 12.189 26.4177 14.8679 26.4177 14.8679C25.3105 21.5129 12.7235 14.3585 12.0202 11.5462C10.9125 7.11634 23.0949 8.22318 25.31 10.438ZM80.6855 36.5408C82.4367 38.2918 81.7931 39.8631 81.7931 39.8631C80.686 46.5081 72.5289 39.3535 71.8256 36.5412C70.7179 32.1114 78.4704 34.3259 80.6855 36.5408ZM64.4691 27.0078C66.2203 28.7588 65.5768 31.4377 65.5768 31.4377C64.4697 38.0826 58.5276 32.0354 57.8243 29.2231C56.7166 24.7932 62.254 24.7929 64.4691 27.0078ZM36.781 7.07589C38.5322 8.82689 37.8887 11.5057 37.8887 11.5057C36.7816 18.1507 30.8394 12.1035 30.1362 9.29119C29.0285 4.86132 34.5659 4.86104 36.781 7.07589ZM28.6333 27.0088C31.7035 30.0787 27.5261 32.5463 27.5261 32.5463C24.2038 34.7614 20.4768 33.144 19.7736 30.3317C18.6659 25.9018 26.4182 24.7939 28.6333 27.0088ZM16.4506 20.3654C19.5209 23.4353 15.3434 25.9029 15.3434 25.9029C12.0211 28.118 6.07902 23.1783 5.37579 20.366C4.26807 15.9361 14.2355 18.1505 16.4506 20.3654ZM52.2857 5.1134C55.3559 8.18332 52.997 10.4377 52.997 10.4377C49.6747 12.6529 43.7326 7.71317 43.0294 4.90088C41.9217 0.471008 50.0706 2.89855 52.2857 5.1134Z" fill="#EAEAEA"/>
<path fill-rule="evenodd" clip-rule="evenodd" d="M2.05492 93.5023C3.1638 120.082 102.836 104.572 120.555 74.6688C120.907 73.8941 121.163 73.1562 121.334 72.4538C122.956 65.7878 116.864 62.322 111.621 60.9145C110.467 60.6048 109.354 60.3947 108.374 60.2722C107.653 60.179 106.914 60.0884 106.159 60.0008C102.772 59.6081 99.0475 59.2762 95.084 59.038C90.8842 58.7856 86.4155 58.6386 81.7941 58.6364C78.8915 58.6349 75.9287 58.6906 72.9343 58.8132C69.2723 58.9631 65.5632 59.2131 61.8595 59.5809C58.1448 59.9499 54.4355 60.4374 50.7847 61.0616C47.7821 61.575 44.819 62.1808 41.925 62.8891C38.0891 63.8278 34.3746 64.9466 30.8503 66.2688C30.1023 66.5495 29.3628 66.8393 28.6325 67.1385C15.5628 72.4931 5.44762 80.8541 2.05492 93.5023ZM112.804 71.3468C115.019 70.2392 115.388 68.3934 115.019 66.9168C114.133 62.4869 104.647 66.3199 103.944 69.1323C102.837 73.5623 109.833 72.8328 112.804 71.3468ZM93.977 69.1328C96.1919 68.0252 96.561 67.2869 96.1918 65.8103C95.3056 61.3804 85.8199 62.9985 85.117 65.8108C84.0097 70.2408 91.0054 70.6188 93.977 69.1328ZM99.5149 79.0999C101.73 77.9923 101.73 76.8848 101.73 75.7773C100.844 71.3474 92.4653 72.9655 91.7624 75.7778C90.6551 80.2078 96.5433 80.5859 99.5149 79.0999ZM93.9781 90.175C96.193 89.0674 96.193 87.9599 96.1929 86.8524C95.3067 82.4226 85.8211 86.2556 85.1182 89.068C84.0109 93.498 91.0065 91.661 93.9781 90.175ZM111.697 81.3142C113.448 79.563 113.912 79.0991 113.912 77.9916C113.026 73.5618 104.648 78.5023 103.945 81.3146C102.838 85.7446 109.483 83.5293 111.697 81.3142ZM75.1512 96.8209C76.9022 95.0697 76.2586 94.6059 76.2586 93.4984C75.3723 89.0685 65.8867 91.7941 65.1838 94.6065C64.0765 99.0364 72.9364 99.036 75.1512 96.8209ZM85.1177 80.2081C86.8687 78.4569 86.2251 77.9931 86.225 76.8856C85.3388 72.4557 75.8532 75.1813 75.1503 77.9937C74.043 82.4237 82.9029 82.4232 85.1177 80.2081ZM77.3648 69.1337C79.1157 67.3825 78.4721 66.9187 78.4721 65.8112C77.5858 61.3813 63.6703 64.1071 62.9674 66.9195C61.8601 71.3495 75.1499 71.3488 77.3648 69.1337ZM67.3982 84.639C69.1492 82.8878 68.5056 82.424 68.5055 81.3165C67.6193 76.8866 54.1081 77.9948 53.0008 82.4248C51.8936 86.8548 65.1834 86.8541 67.3982 84.639ZM58.5392 100.144C60.2902 98.393 59.6465 97.9292 59.6465 96.8217C58.7603 92.3918 46.3566 95.7149 46.3568 99.0374C46.3572 105.774 56.3243 102.359 58.5392 100.144ZM54.1077 71.3499C55.8587 69.5987 55.5094 68.3917 55.215 66.9199C54.3288 62.49 41.5208 67.4308 40.8179 70.2431C39.7106 74.6731 51.8929 73.565 54.1077 71.3499ZM36.389 90.178C38.14 88.4269 37.4962 85.7481 37.4962 85.7481C36.3884 79.1032 23.8021 86.2589 23.0991 89.0713C21.9919 93.5013 34.1741 92.3931 36.389 90.178ZM33.0658 76.8884C34.8168 75.1372 34.1732 73.5659 34.1732 73.5659C33.0653 66.9211 24.9089 74.0765 24.206 76.8889C23.0987 81.3189 30.851 79.1035 33.0658 76.8884ZM48.5711 85.7475C50.3221 83.9963 49.6783 81.3175 49.6783 81.3175C48.5705 74.6726 42.629 80.7205 41.9261 83.5329C40.8188 87.9628 46.3562 87.9625 48.5711 85.7475ZM40.8196 103.468C42.5706 101.716 41.9269 99.0376 41.9269 99.0376C40.819 92.3928 34.8775 98.4406 34.1746 101.253C33.0674 105.683 38.6048 105.683 40.8196 103.468ZM28.6373 103.468C31.7072 100.398 27.5295 97.9309 27.5295 97.9309C24.207 95.7161 20.4802 97.3339 19.7773 100.146C18.67 104.576 26.4225 105.683 28.6373 103.468ZM21.9914 84.6414C25.0613 81.5711 20.8836 79.104 20.8836 79.104C17.5611 76.8892 11.6195 81.8296 10.9166 84.642C9.80934 89.072 19.7766 86.8565 21.9914 84.6414ZM15.3471 95.7166C18.417 92.6463 16.0579 90.3921 16.0579 90.3921C12.7354 88.1773 6.7938 93.1177 6.09087 95.9301C4.98362 100.36 13.1323 97.9316 15.3471 95.7166Z" fill="#EAEAEA"/>
<path d="M112.236 45.8747C111.116 46.2824 109.832 46.6529 108.373 46.9824C107.639 47.1146 106.9 47.2397 106.158 47.358C107.266 50.008 108.817 56.2465 106.159 60.0008C106.914 60.0884 107.653 60.179 108.374 60.2722C109.354 60.3947 110.467 60.6048 111.621 60.9145C117.765 56.1123 114.591 48.887 112.236 45.8747Z" fill="#CBC5EA"/>
<path d="M106.159 60.0008C108.817 56.2465 107.266 50.008 106.158 47.358C102.548 47.9333 98.8434 48.3457 95.0834 48.6087L95.084 59.038C99.0475 59.2762 102.772 59.6081 106.159 60.0008Z" fill="#73628A"/>
<path d="M95.084 59.038L95.0834 48.6087C90.7093 48.9147 86.2596 49.0186 81.7936 48.942L81.7941 58.6364C86.4155 58.6386 90.8842 58.7856 95.084 59.038Z" fill="#CBC5EA"/>
<path d="M72.9343 58.8132L72.9337 48.5596C69.2146 48.3046 65.5116 47.934 61.8589 47.4602L61.8595 59.5809C65.5632 59.2131 69.2723 58.9631 72.9343 58.8132Z" fill="#CBC5EA"/>
<path d="M50.7847 61.0616L50.7839 45.6843C47.7597 45.1051 44.7991 44.4589 41.924 43.7537L41.925 62.8891C44.819 62.1808 47.7821 61.575 50.7847 61.0616Z" fill="#CBC5EA"/>
<path d="M30.849 40.6102C30.1 40.3661 29.3605 40.1179 28.6311 39.8659C26.576 40.1725 24.0626 40.6958 21.4707 41.4513L21.472 66.6535C24.1727 67.1213 26.7237 67.2288 28.6325 67.1385C29.3628 66.8393 30.1023 66.5495 30.8503 66.2688L30.849 40.6102Z" fill="#CBC5EA"/>
<path d="M12.022 45.4666C7.95038 48.0185 5.28057 51.4459 6.48225 55.8476C7.37025 59.1004 9.43396 61.4727 12.0229 63.1789L12.022 45.4666Z" fill="#CBC5EA"/>
<path d="M81.7941 58.6364L81.7936 48.942C78.8417 48.8914 75.8827 48.7618 72.9337 48.5596L72.9343 58.8132C75.9287 58.6906 78.8915 58.6349 81.7941 58.6364Z" fill="#73628A"/>
<path d="M61.8595 59.5809L61.8589 47.4602C58.1014 46.9729 54.3973 46.3764 50.7839 45.6843L50.7847 61.0616C54.4355 60.4374 58.1448 59.9499 61.8595 59.5809Z" fill="#73628A"/>
<path d="M41.925 62.8891L41.924 43.7537C38.0601 42.806 34.3507 41.7518 30.849 40.6102L30.8503 66.2688C34.3746 64.9466 38.0891 63.8278 41.925 62.8891Z" fill="#73628A"/>
<path d="M21.472 66.6535L21.4707 41.4513C18.19 42.4076 14.7836 43.7357 12.022 45.4666L12.0229 63.1789C14.8313 65.0297 18.2577 66.0967 21.472 66.6535Z" fill="#73628A"/>
<path fill-rule="evenodd" clip-rule="evenodd" d="M112.236 45.8747C114.591 48.887 117.765 56.1123 111.621 60.9145C116.864 62.322 122.956 65.7878 121.334 72.4538C125.135 74.2994 133.624 76.2186 137.166 69.1306C140.708 62.0425 135.689 57.3175 132.737 55.841C132.736 55.4718 132.735 54.2905 132.735 52.5185C132.735 50.3036 140.487 46.9806 137.164 38.1209C134.506 31.0332 123.313 34.4301 118.049 37.0145C119.479 40.6145 118.078 43.7497 112.236 45.8747ZM130.522 38.1213C127.2 37.3831 120.776 38.5649 121.663 49.1967C122.771 55.8415 137.167 39.2284 130.522 38.1213ZM130.524 69.1309C127.202 69.8694 120.778 68.6884 121.663 58.0565C122.771 51.4116 137.169 68.0231 130.524 69.1309Z" fill="#73628A"/>
</svg>
