<svg width="287" height="455" viewBox="0 0 287 455" fill="none" xmlns="http://www.w3.org/2000/svg">
<path d="M194.244 404.979C172.217 388.336 127.253 349.605 123.622 327.818C119.991 306.032 169.191 370.181 194.244 404.979C193.483 394.834 192.487 384.198 191.228 373.207C189.717 360.023 187.827 346.328 185.506 332.357C182.294 313.011 178.257 293.136 173.263 273.352C172.498 270.323 171.711 267.296 170.901 264.274C126.395 249.144 42.8305 215.254 64.6171 200.73C86.4036 186.205 144.551 237.041 170.901 264.274C161.042 227.485 147.787 191.345 130.273 159.88C102.336 153.828 45.5538 134.462 41.9227 105.413C38.2916 76.3647 99.3099 129.621 130.273 159.88C126.721 153.498 122.993 147.309 119.084 141.345C117.933 132.186 117 119.016 117.286 105.413C99.73 94.8227 65.5248 67.2869 69.1559 41.8692C72.787 16.4516 102.756 73.6413 117.286 105.413C117 119.016 117.933 132.186 119.084 141.345C122.993 147.309 126.721 153.498 130.273 159.88C147.787 191.345 161.042 227.485 170.901 264.274C171.711 267.296 172.498 270.323 173.263 273.352C178.257 293.136 182.294 313.011 185.506 332.357C187.827 346.328 189.717 360.023 191.228 373.207C200.465 315.714 223.478 205.269 241.633 223.424C259.789 241.58 215.594 330.844 191.228 373.207C192.487 384.198 193.483 394.834 194.244 404.979Z" fill="#698F40"/>
<path d="M196.244 454.907C196.244 440.461 195.637 423.542 194.244 404.979M55.5393 78.1802C80.7424 92.8142 101.713 114.851 119.084 141.345M194.244 404.979C172.217 388.336 127.253 349.605 123.622 327.818C119.991 306.032 169.191 370.181 194.244 404.979ZM194.244 404.979C193.483 394.834 192.487 384.198 191.228 373.207M191.228 373.207C215.594 330.844 259.789 241.58 241.633 223.424C223.478 205.269 200.465 315.714 191.228 373.207ZM191.228 373.207C189.717 360.023 187.827 346.328 185.506 332.357M185.506 332.357C172.443 315.714 140.87 287.876 119.084 291.507M185.506 332.357C182.294 313.011 178.257 293.136 173.263 273.352M170.901 264.274C144.551 237.041 86.4036 186.205 64.6171 200.73C42.8305 215.254 126.395 249.144 170.901 264.274ZM170.901 264.274C171.711 267.296 172.498 270.323 173.263 273.352M170.901 264.274C161.042 227.485 147.787 191.345 130.273 159.88M173.263 273.352C182.436 227.963 207.138 137.186 232.555 137.186M119.084 141.345C122.993 147.309 126.721 153.498 130.273 159.88M119.084 141.345C117.933 132.186 117 119.016 117.286 105.413M132.7 50.947C121.451 59.9466 117.752 83.255 117.286 105.413M130.273 159.88C102.336 153.828 45.5538 134.462 41.9227 105.413C38.2916 76.3647 99.3099 129.621 130.273 159.88ZM117.286 105.413C99.73 94.8227 65.5248 67.2869 69.1559 41.8692C72.787 16.4516 102.756 73.6413 117.286 105.413Z" stroke="#698F40" stroke-width="1.99713"/>
<path d="M145.002 189.02C145.002 155.734 151.765 85.4428 173.552 78.1806C195.339 70.9184 163.157 149.683 145.002 189.02Z" fill="#698F40"/>
<path d="M190.638 205.267C186.099 178.034 181.722 112.676 196.246 105.414C210.771 98.152 198.203 171.982 190.638 205.267Z" fill="#698F40"/>
<path d="M172.939 272.02C183.53 247.812 218.471 167.958 232.995 167.958C247.519 167.958 195.634 247.812 172.939 272.02Z" fill="#698F40"/>
<path d="M170.002 262.02C151.846 239.324 93.6679 152.615 64.6191 159.879M172.939 272.02C183.53 247.812 218.471 167.958 232.995 167.958C247.519 167.958 195.634 247.812 172.939 272.02ZM190.638 205.267C186.099 178.034 181.722 112.676 196.246 105.414C210.771 98.152 198.203 171.982 190.638 205.267ZM145.002 189.02C145.002 155.734 151.765 85.4428 173.552 78.1806C195.339 70.9184 163.157 149.683 145.002 189.02Z" stroke="#698F40" stroke-width="1.99713"/>
<path d="M123.56 4.41437C116.129 15.1928 119.802 51.263 122.567 67.9508C150.01 54.7627 177.807 18.8793 168.801 14.1991C162.744 11.0512 147.423 25.7283 142.698 30.4821C142.225 30.9918 141.754 31.4748 141.288 31.9268C141.288 31.9268 141.803 31.3824 142.698 30.4821C150.006 22.5959 157.557 8.35595 150.79 4.83999C143.585 1.09682 140.082 12.2387 136.962 18.2421C135.591 9.14185 130.992 -6.36409 123.56 4.41437Z" fill="#CBC5EA"/>
<path d="M7.54517 68.6951C15.9292 78.7504 51.6592 84.9086 68.4761 86.7308C63.1503 56.753 36.0598 20.3331 29.1311 27.7492C24.4707 32.7375 34.4892 51.4399 37.7978 57.2693C38.1617 57.8612 38.5003 58.4449 38.8103 59.0156C38.8103 59.0156 38.4244 58.3733 37.7978 57.2693C32.1663 48.1103 20.4804 37.0088 15.2747 42.5819C9.7327 48.5151 19.5229 54.8843 24.4666 59.5033C15.3327 58.3775 -0.838906 58.6397 7.54517 68.6951Z" fill="#CBC5EA"/>
<path d="M20.5429 184.746C33.2648 187.837 65.6434 171.522 80.2424 162.978C58.1217 142.057 14.6764 128.911 13.5219 138.995C12.7453 145.777 31.9268 154.844 38.055 157.56C38.6997 157.819 39.3192 158.087 39.9079 158.361C39.9079 158.361 39.2155 158.074 38.055 157.56C28.0786 153.551 12.0806 151.584 11.2139 159.161C10.2911 167.227 21.9493 166.519 28.6711 167.289C20.6609 171.82 7.82093 181.655 20.5429 184.746Z" fill="#CBC5EA"/>
<path d="M68.0541 304.359C80.1151 309.452 114.692 298.545 130.473 292.455C111.997 268.254 71.2244 248.306 68.4666 258.074C66.6116 264.644 84.0894 276.672 89.7022 280.336C90.297 280.695 90.8656 281.059 91.4026 281.424C91.4026 281.424 90.7652 281.03 89.7022 280.336C80.4986 274.778 65.0236 270.269 62.9521 277.608C60.7468 285.422 72.3675 286.594 78.8787 288.433C70.2451 291.62 55.9932 299.266 68.0541 304.359Z" fill="#CBC5EA"/>
<path d="M282.964 142.887C272.235 150.391 236.141 146.958 219.435 144.304C232.44 116.774 268.137 88.738 272.877 97.7123C276.066 103.749 261.491 119.167 256.769 123.924C256.262 124.4 255.782 124.874 255.334 125.344C255.334 125.344 255.875 124.825 256.769 123.924C264.606 116.564 278.795 108.917 282.356 115.661C286.148 122.84 275.029 126.418 269.047 129.578C278.156 130.888 293.692 135.384 282.964 142.887Z" fill="#CBC5EA"/>
</svg>
