<svg width="288" height="456" viewBox="0 0 288 456" fill="none" xmlns="http://www.w3.org/2000/svg">
<path d="M195.047 405.287C172.988 388.621 127.96 349.833 124.324 328.015C120.688 306.197 169.958 370.439 195.047 405.287C194.285 395.127 193.288 384.476 192.027 373.469C190.513 360.266 188.62 346.552 186.297 332.561C183.079 313.187 179.037 293.283 174.036 273.471C173.27 270.437 172.482 267.406 171.671 264.38C127.101 249.229 43.416 215.29 65.2339 200.744C87.0518 186.199 145.283 237.108 171.671 264.38C161.798 227.538 148.524 191.346 130.984 159.836C103.007 153.775 46.1432 134.382 42.5069 105.291C38.8706 76.2007 99.9765 129.533 130.984 159.836C127.427 153.445 123.694 147.247 119.779 141.275C118.626 132.102 117.693 118.913 117.979 105.291C100.397 94.6852 66.143 67.1099 69.7793 41.6557C73.4156 16.2015 103.428 73.4734 117.979 105.291C117.693 118.913 118.626 132.102 119.779 141.275C123.694 147.247 127.427 153.445 130.984 159.836C148.524 191.346 161.798 227.538 171.671 264.38C172.482 267.406 173.27 270.437 174.036 273.471C179.037 293.283 183.079 313.187 186.297 332.561C188.62 346.552 190.513 360.266 192.027 373.469C201.277 315.894 224.323 205.29 242.504 223.471C260.686 241.653 216.428 331.046 192.027 373.469C193.288 384.476 194.285 395.127 195.047 405.287Z" fill="#698F40"/>
<path d="M197.05 455.286C197.05 440.82 196.442 423.876 195.047 405.287M56.1431 78.0188C81.3823 92.6739 102.383 114.742 119.779 141.275M195.047 405.287C172.988 388.621 127.96 349.833 124.324 328.015C120.688 306.197 169.958 370.439 195.047 405.287ZM195.047 405.287C194.285 395.127 193.288 384.476 192.027 373.469M192.027 373.469C216.428 331.046 260.686 241.653 242.504 223.471C224.323 205.29 201.277 315.894 192.027 373.469ZM192.027 373.469C190.513 360.266 188.62 346.552 186.297 332.561M186.297 332.561C173.215 315.894 141.596 288.016 119.779 291.652M186.297 332.561C183.08 313.187 179.037 293.283 174.036 273.471M171.671 264.38C145.283 237.108 87.0518 186.199 65.2339 200.744C43.416 215.29 127.101 249.229 171.671 264.38ZM171.671 264.38C172.482 267.406 173.27 270.437 174.036 273.471M171.671 264.38C161.798 227.538 148.524 191.346 130.984 159.836M174.036 273.471C183.222 228.017 207.959 137.109 233.413 137.109M119.779 141.275C123.694 147.247 127.427 153.445 130.984 159.836M119.779 141.275C118.626 132.102 117.693 118.913 117.979 105.291M133.415 50.7465C122.149 59.759 118.446 83.1009 117.979 105.291M130.984 159.836C103.007 153.775 46.1432 134.382 42.5069 105.291C38.8706 76.2007 99.9765 129.533 130.984 159.836ZM117.979 105.291C100.397 94.6852 66.143 67.1099 69.7793 41.6557C73.4156 16.2015 103.428 73.4734 117.979 105.291Z" stroke="#698F40" stroke-width="2"/>
<path d="M145.981 191.65C145.981 158.317 152.506 85.2913 174.324 78.0187C196.142 70.7461 164.162 152.257 145.981 191.65Z" fill="#698F40"/>
<path d="M191.434 205.288C186.889 178.016 182.505 112.564 197.051 105.291C211.596 98.0188 199.01 171.955 191.434 205.288Z" fill="#698F40"/>
<path d="M173.253 268.923C183.859 244.681 218.869 168.927 233.414 168.927C247.959 168.927 195.98 244.681 173.253 268.923Z" fill="#698F40"/>
<path d="M168.708 259.833C150.526 237.105 94.3249 152.56 65.2344 159.834M173.253 268.923C183.859 244.681 218.869 168.927 233.414 168.927C247.959 168.927 195.98 244.681 173.253 268.923ZM191.434 205.288C186.889 178.016 182.505 112.564 197.051 105.291C211.596 98.0188 199.01 171.955 191.434 205.288ZM145.981 191.65C145.981 158.317 152.506 85.2913 174.324 78.0187C196.142 70.7461 164.162 152.257 145.981 191.65Z" stroke="#698F40" stroke-width="2"/>
<path d="M123.793 4.49816C116.52 15.4071 120.763 51.4672 123.793 68.1336C151.065 54.4987 178.338 18.1331 169.247 13.5877C163.132 10.5304 148.021 25.4667 143.363 30.3007C142.899 30.8183 142.434 31.3094 141.974 31.7693C141.974 31.7693 142.481 31.2161 143.363 30.3007C150.558 22.2897 157.896 7.91283 151.065 4.49816C143.793 0.862839 140.459 12.0742 137.429 18.1343C135.914 9.04356 131.066 -6.41078 123.793 4.49816Z" fill="#CBC5EA"/>
<path d="M7.55401 66.9081C15.4779 77.3535 50.9375 85.1603 67.6768 87.758C63.7303 57.5235 38.3076 19.8417 31.0346 26.9414C26.1426 31.7168 35.3032 50.8879 38.3444 56.8719C38.6812 57.4808 38.9931 58.0804 39.2769 58.6655C39.2769 58.6655 38.9204 58.0052 38.3444 56.8719C33.1329 47.45 21.954 35.8059 16.4897 41.1412C10.6722 46.8213 20.1725 53.644 24.9053 58.4925C15.8199 56.9454 -0.369913 56.4626 7.55401 66.9081Z" fill="#CBC5EA"/>
<path d="M23.5927 186.283C36.5385 188.358 67.5641 169.497 81.4588 159.807C57.713 140.68 13.2975 131.011 12.9465 141.169C12.7105 148.001 32.5799 155.528 38.9133 157.752C39.5775 157.959 40.2172 158.177 40.8267 158.404C40.8267 158.404 40.1127 158.173 38.9133 157.752C28.6354 154.543 12.5086 153.851 12.2458 161.484C11.9659 169.61 23.5477 167.976 30.3191 168.21C22.6829 173.37 10.647 184.209 23.5927 186.283Z" fill="#CBC5EA"/>
<path d="M68.6775 304.521C80.7558 309.621 115.383 298.698 131.186 292.599C112.683 268.364 71.8523 248.387 69.0905 258.169C67.2329 264.748 84.7358 276.793 90.3567 280.463C90.9523 280.822 91.5217 281.186 92.0595 281.552C92.0595 281.552 91.4212 281.157 90.3567 280.463C81.1398 274.896 65.6426 270.381 63.5682 277.731C61.3597 285.556 72.997 286.73 79.5176 288.571C70.8716 291.763 56.5992 299.42 68.6775 304.521Z" fill="#CBC5EA"/>
<path d="M283.674 143.134C272.851 150.535 236.743 146.717 220.042 143.884C233.355 116.453 269.397 88.7541 274.049 97.7907C277.179 103.869 262.421 119.155 257.642 123.869C257.13 124.34 256.645 124.81 256.19 125.275C256.19 125.275 256.737 124.762 257.642 123.869C265.568 116.581 279.858 109.073 283.352 115.864C287.073 123.093 275.902 126.558 269.878 129.66C278.986 131.068 294.496 135.734 283.674 143.134Z" fill="#CBC5EA"/>
</svg>
