<svg width="216" height="342" viewBox="0 0 216 342" fill="none" xmlns="http://www.w3.org/2000/svg">
<path d="M145.676 303.731C129.155 291.249 95.4328 262.201 92.7094 245.861C89.9861 229.521 126.886 277.633 145.676 303.731C145.105 296.122 144.358 288.145 143.414 279.902C142.28 270.014 140.863 259.743 139.122 249.265C136.713 234.756 133.685 219.849 129.94 205.011C129.366 202.739 128.776 200.469 128.169 198.202C94.7892 186.855 32.1155 161.438 48.4555 150.544C64.7954 139.651 108.406 177.778 128.169 198.202C120.774 170.611 110.833 143.506 97.6973 119.907C76.7445 115.368 34.158 100.844 31.4347 79.0571C28.7114 57.2706 74.4751 97.2126 97.6973 119.907C95.0332 115.121 92.2377 110.479 89.3053 106.006C88.4421 99.1362 87.743 89.2592 87.9575 79.0571C74.7902 71.1141 49.1363 50.4622 51.8596 31.399C54.583 12.3357 77.0596 55.2281 87.9575 79.0571C87.743 89.2592 88.4421 99.1362 89.3053 106.006C92.2377 110.479 95.0332 115.121 97.6973 119.907C110.833 143.506 120.774 170.611 128.169 198.202C128.776 200.469 129.366 202.739 129.94 205.011C133.685 219.849 136.713 234.756 139.122 249.265C140.863 259.743 142.28 270.014 143.414 279.902C150.341 236.783 167.601 153.948 181.217 167.565C194.834 181.182 161.688 248.13 143.414 279.902C144.358 288.145 145.105 296.122 145.676 303.731Z" fill="#698F40"/>
<path d="M147.176 341.177C147.176 330.343 146.721 317.653 145.676 303.731M41.6472 58.6322C60.5494 69.6077 76.2775 86.1352 89.3053 106.006M145.676 303.731C129.155 291.249 95.4328 262.201 92.7095 245.861C89.9861 229.521 126.886 277.633 145.676 303.731ZM145.676 303.731C145.105 296.122 144.358 288.145 143.414 279.902M143.414 279.902C161.688 248.13 194.834 181.182 181.217 167.565C167.601 153.948 150.341 236.783 143.414 279.902ZM143.414 279.902C142.28 270.014 140.863 259.743 139.122 249.265M139.122 249.265C129.325 236.783 105.645 215.904 89.3053 218.627M139.122 249.265C136.713 234.756 133.685 219.849 129.94 205.011M128.169 198.202C108.406 177.778 64.7954 139.651 48.4555 150.544C32.1155 161.438 94.7892 186.855 128.169 198.202ZM128.169 198.202C128.776 200.469 129.366 202.739 129.94 205.011M128.169 198.202C120.774 170.611 110.833 143.506 97.6973 119.907M129.94 205.011C136.82 170.969 155.346 102.886 174.409 102.886M89.3053 106.006C92.2377 110.479 95.0332 115.121 97.6973 119.907M89.3053 106.006C88.4421 99.1362 87.743 89.2592 87.9575 79.0571M99.5178 38.2073C91.0806 44.957 88.3069 62.4383 87.9575 79.0571M97.6973 119.907C76.7445 115.368 34.158 100.844 31.4347 79.0571C28.7114 57.2706 74.4751 97.2126 97.6973 119.907ZM87.9575 79.0571C74.7902 71.1141 49.1363 50.4622 51.8596 31.399C54.583 12.3357 77.0596 55.2281 87.9575 79.0571Z" stroke="#698F40" stroke-width="1.49785"/>
<path d="M108.928 143.732C108.928 118.768 113.815 64.0774 130.155 58.6307C146.495 53.1841 122.544 114.229 108.928 143.732Z" fill="#698F40"/>
<path d="M142.969 153.946C139.565 133.521 136.282 84.5026 147.176 79.0559C158.069 73.6093 148.643 128.982 142.969 153.946Z" fill="#698F40"/>
<path d="M129.353 201.604C137.296 183.448 163.515 126.714 174.409 126.714C185.302 126.714 146.374 183.448 129.353 201.604Z" fill="#698F40"/>
<path d="M125.949 194.796C112.332 177.774 70.2417 114.456 48.4551 119.904M129.353 201.604C137.296 183.448 163.515 126.714 174.409 126.714C185.302 126.714 146.374 183.448 129.353 201.604ZM142.969 153.946C139.565 133.521 136.282 84.5026 147.176 79.0559C158.069 73.6093 148.643 128.982 142.969 153.946ZM108.928 143.732C108.928 118.768 113.815 64.0774 130.155 58.6307C146.495 53.1841 122.544 114.229 108.928 143.732Z" stroke="#698F40" stroke-width="1.49785"/>
<path d="M92.7179 3.28182C87.1246 11.3521 89.8138 38.4114 91.8575 50.9322C112.464 41.0911 133.377 14.2291 126.631 10.7026C122.094 8.33065 110.576 19.3106 107.023 22.8674C106.668 23.2487 106.314 23.6102 105.963 23.9483C105.963 23.9483 106.351 23.541 107.023 22.8674C112.519 16.966 118.208 6.29982 113.139 3.65055C107.743 0.830083 105.095 9.18013 102.744 13.677C101.733 6.8493 98.3111 -4.78849 92.7179 3.28182Z" fill="#CBC5EA"/>
<path d="M5.62924 51.4615C11.899 59.0182 38.6852 63.7017 51.2946 65.0988C47.3546 42.6059 27.1029 15.2419 21.8929 20.7914C18.3885 24.5241 25.8685 38.5691 28.3393 42.9471C28.6112 43.3917 28.8641 43.8301 29.0956 44.2586C29.0956 44.2586 28.8073 43.7762 28.3393 42.9471C24.1324 36.0677 15.3881 27.7204 11.4738 31.8907C7.30649 36.3306 14.6375 41.1252 18.3369 44.5984C11.4886 43.7375 -0.640555 43.9048 5.62924 51.4615Z" fill="#CBC5EA"/>
<path d="M15.6526 138.722C25.2186 140.937 49.3684 128.438 60.2475 121.912C43.4878 106.401 10.7988 96.896 10.015 104.467C9.48772 109.56 23.9468 116.204 28.5647 118.191C29.0503 118.38 29.5171 118.576 29.9608 118.777C29.9608 118.777 29.4393 118.567 28.5647 118.191C21.0503 115.266 9.03648 113.921 8.44812 119.61C7.82173 125.667 16.5591 125.041 21.6064 125.564C15.636 129.027 6.08655 136.507 15.6526 138.722Z" fill="#CBC5EA"/>
<path d="M51.2079 228.427C60.2861 232.168 86.1478 223.766 97.9439 219.097C83.9316 201.066 53.2251 186.368 51.2196 193.711C49.8707 198.65 63.0558 207.559 67.2889 210.27C67.7373 210.536 68.166 210.805 68.5711 211.075C68.5711 211.075 68.0906 210.784 67.2889 210.27C60.3506 206.161 48.7158 202.879 47.2095 208.397C45.6059 214.271 54.3286 215.075 59.2236 216.412C52.7692 218.858 42.1298 224.685 51.2079 228.427Z" fill="#CBC5EA"/>
<path d="M212.332 106.992C204.328 112.679 177.239 110.307 164.695 108.411C174.294 87.6907 200.909 66.4641 204.514 73.168C206.939 77.6772 196.095 89.3225 192.58 92.9167C192.203 93.2763 191.846 93.6348 191.512 93.9893C191.512 93.9893 191.915 93.5974 192.58 92.9167C198.417 87.3525 209.016 81.5383 211.724 86.5759C214.608 91.9391 206.289 94.6843 201.82 97.0879C208.659 98.0194 220.336 101.304 212.332 106.992Z" fill="#CBC5EA"/>
</svg>
