<svg width="2627" height="2181" viewBox="0 0 2627 2181" fill="none" xmlns="http://www.w3.org/2000/svg">
<path d="M1163.83 1781.73C1152.85 1773.5 1174.33 1752.47 1192.85 1767.78C1216.42 1787.26 1194.75 1815.27 1165.44 1815.79C1136.12 1816.31 1108.28 1770.09 1145.07 1741.96C1184.63 1711.72 1236.46 1758.27 1236.74 1777.82M1236.74 1777.82L1247.38 2171.44M1236.74 1777.82L1234.5 1628C1233.82 1570.79 1202.11 1535.86 1130.5 1507.5" stroke="#698F40" stroke-width="1.99713"/>
<path d="M111.826 327.731C100.851 319.505 122.332 298.469 140.852 313.779C164.423 333.264 142.752 361.267 113.436 361.79C84.12 362.313 56.2762 316.09 93.0702 287.963C132.629 257.723 184.461 304.27 184.744 323.823M184.744 323.823L195.375 717.445M184.744 323.823L182.5 174C181.823 116.787 150.113 81.8567 78.5002 53.4974" stroke="#698F40" stroke-width="1.99713"/>
<rect x="11.9043" width="176" height="23.6384" rx="11.8192" transform="rotate(30.2381 11.9043 0)" fill="#73628A"/>
<path d="M637.826 327.731C626.851 319.505 648.332 298.469 666.852 313.779C690.423 333.264 668.752 361.267 639.436 361.79C610.12 362.313 582.276 316.09 619.07 287.963C658.629 257.723 710.461 304.27 710.744 323.823M710.744 323.823L721.375 717.445M710.744 323.823L708.5 174C707.823 116.787 676.113 81.8567 604.5 53.4974" stroke="#698F40" stroke-width="1.99713"/>
<rect x="537.592" width="170" height="23.6384" rx="11.8192" transform="rotate(30.2381 537.592 0)" fill="#73628A"/>
<path d="M374.826 327.731C363.851 319.505 385.332 298.469 403.852 313.779C427.423 333.264 405.752 361.267 376.436 361.79C347.12 362.313 319.276 316.09 356.07 287.963C395.629 257.723 447.461 304.27 447.744 323.823M447.744 323.823L458.375 717.445M447.744 323.823L445.5 174C444.823 116.787 413.113 81.8567 341.5 53.4974" stroke="#698F40" stroke-width="1.99713"/>
<rect x="274.748" width="173" height="23.6384" rx="11.8192" transform="rotate(30.2381 274.748 0)" fill="#73628A"/>
<path d="M900.826 327.731C889.851 319.505 911.332 298.469 929.852 313.779C953.423 333.264 931.752 361.267 902.436 361.79C873.12 362.313 845.276 316.09 882.07 287.963C921.629 257.723 973.461 304.27 973.744 323.823M973.744 323.823L984.375 717.445M973.744 323.823L971.5 174C970.823 116.787 939.113 81.8567 867.5 53.4974" stroke="#698F40" stroke-width="1.99713"/>
<rect x="800.436" width="167" height="23.6384" rx="11.8192" transform="rotate(30.2381 800.436 0)" fill="#73628A"/>
<path d="M1163.83 327.731C1152.85 319.505 1174.33 298.469 1192.85 313.779C1216.42 333.264 1194.75 361.267 1165.44 361.79C1136.12 362.313 1108.28 316.09 1145.07 287.963C1184.63 257.723 1236.46 304.27 1236.74 323.823M1236.74 323.823L1247.38 717.445M1236.74 323.823L1234.5 174C1233.82 116.787 1202.11 81.8567 1130.5 53.4974" stroke="#698F40" stroke-width="1.99713"/>
<rect x="1063.28" width="164" height="23.6384" rx="11.8192" transform="rotate(30.2381 1063.28 0)" fill="#73628A"/>
<path d="M1426.83 327.731C1415.85 319.505 1437.33 298.469 1455.85 313.779C1479.42 333.264 1457.75 361.267 1428.44 361.79C1399.12 362.313 1371.28 316.09 1408.07 287.963C1447.63 257.723 1499.46 304.27 1499.74 323.823M1499.74 323.823L1510.38 717.445M1499.74 323.823L1497.5 174C1496.82 116.787 1465.11 81.8567 1393.5 53.4974" stroke="#698F40" stroke-width="1.99713"/>
<rect x="1326.12" width="161" height="23.6384" rx="11.8192" transform="rotate(30.2381 1326.12 0)" fill="#73628A"/>
<path d="M1688.83 327.731C1677.85 319.505 1699.33 298.469 1717.85 313.779C1741.42 333.264 1719.75 361.267 1690.44 361.79C1661.12 362.313 1633.28 316.09 1670.07 287.963C1709.63 257.723 1761.46 304.27 1761.74 323.823M1761.74 323.823L1772.38 717.445M1761.74 323.823L1759.5 174C1758.82 116.787 1727.11 81.8567 1655.5 53.4974" stroke="#698F40" stroke-width="1.99713"/>
<rect x="1588.97" width="158" height="23.6384" rx="11.8192" transform="rotate(30.2381 1588.97 0)" fill="#73628A"/>
<path d="M1951.83 327.731C1940.85 319.505 1962.33 298.469 1980.85 313.779C2004.42 333.264 1982.75 361.267 1953.44 361.79C1924.12 362.313 1896.28 316.09 1933.07 287.963C1972.63 257.723 2024.46 304.27 2024.74 323.823M2024.74 323.823L2035.38 717.445M2024.74 323.823L2022.5 174C2021.82 116.787 1990.11 81.8567 1918.5 53.4974" stroke="#698F40" stroke-width="1.99713"/>
<rect x="1851.81" width="155" height="23.6384" rx="11.8192" transform="rotate(30.2381 1851.81 0)" fill="#73628A"/>
<path d="M2214.83 327.731C2203.85 319.505 2225.33 298.469 2243.85 313.779C2267.42 333.264 2245.75 361.267 2216.44 361.79C2187.12 362.313 2159.28 316.09 2196.07 287.963C2235.63 257.723 2287.46 304.27 2287.74 323.823M2287.74 323.823L2298.38 717.445M2287.74 323.823L2285.5 174C2284.82 116.787 2253.11 81.8567 2181.5 53.4974" stroke="#698F40" stroke-width="1.99713"/>
<rect x="2114.65" width="152" height="23.6384" rx="11.8192" transform="rotate(30.2381 2114.65 0)" fill="#73628A"/>
<path d="M2477.83 327.731C2466.85 319.505 2488.33 298.469 2506.85 313.779C2530.42 333.264 2508.75 361.267 2479.44 361.79C2450.12 362.313 2422.28 316.09 2459.07 287.963C2498.63 257.723 2550.46 304.27 2550.74 323.823M2550.74 323.823L2561.38 717.445M2550.74 323.823L2548.5 174C2547.82 116.787 2516.11 81.8567 2444.5 53.4974" stroke="#698F40" stroke-width="1.99713"/>
<rect x="2377.5" width="149" height="23.6384" rx="11.8192" transform="rotate(30.2381 2377.5 0)" fill="#73628A"/>
<path d="M111.826 1054.73C100.851 1046.5 122.332 1025.47 140.852 1040.78C164.423 1060.26 142.752 1088.27 113.436 1088.79C84.12 1089.31 56.2762 1043.09 93.0702 1014.96C132.629 984.723 184.461 1031.27 184.744 1050.82M184.744 1050.82L195.375 1444.44M184.744 1050.82L182.5 901C181.823 843.787 150.113 808.857 78.5002 780.497" stroke="#698F40" stroke-width="1.99713"/>
<rect x="11.9043" y="726.785" width="146" height="23.6384" rx="11.8192" transform="rotate(30.2381 11.9043 726.785)" fill="#73628A"/>
<path d="M374.826 1054.73C363.851 1046.5 385.332 1025.47 403.852 1040.78C427.423 1060.26 405.752 1088.27 376.436 1088.79C347.12 1089.31 319.276 1043.09 356.07 1014.96C395.629 984.723 447.461 1031.27 447.744 1050.82M447.744 1050.82L458.375 1444.44M447.744 1050.82L445.5 901C444.823 843.787 413.113 808.857 341.5 780.497" stroke="#698F40" stroke-width="1.99713"/>
<rect x="274.748" y="726.785" width="143" height="23.6384" rx="11.8192" transform="rotate(30.2381 274.748 726.785)" fill="#73628A"/>
<path d="M637.826 1054.73C626.851 1046.5 648.332 1025.47 666.852 1040.78C690.423 1060.26 668.752 1088.27 639.436 1088.79C610.12 1089.31 582.276 1043.09 619.07 1014.96C658.629 984.723 710.461 1031.27 710.744 1050.82M710.744 1050.82L721.375 1444.44M710.744 1050.82L708.5 901C707.823 843.787 676.113 808.857 604.5 780.497" stroke="#698F40" stroke-width="1.99713"/>
<rect x="537.592" y="726.785" width="140" height="23.6384" rx="11.8192" transform="rotate(30.2381 537.592 726.785)" fill="#73628A"/>
<path d="M900.826 1054.73C889.851 1046.5 911.332 1025.47 929.852 1040.78C953.423 1060.26 931.752 1088.27 902.436 1088.79C873.12 1089.31 845.276 1043.09 882.07 1014.96C921.629 984.723 973.461 1031.27 973.744 1050.82M973.744 1050.82L984.375 1444.44M973.744 1050.82L971.5 901C970.823 843.787 939.113 808.857 867.5 780.497" stroke="#698F40" stroke-width="1.99713"/>
<rect x="800.436" y="726.785" width="137" height="23.6384" rx="11.8192" transform="rotate(30.2381 800.436 726.785)" fill="#73628A"/>
<path d="M1163.83 1054.73C1152.85 1046.5 1174.33 1025.47 1192.85 1040.78C1216.42 1060.26 1194.75 1088.27 1165.44 1088.79C1136.12 1089.31 1108.28 1043.09 1145.07 1014.96C1184.63 984.723 1236.46 1031.27 1236.74 1050.82M1236.74 1050.82L1247.38 1444.44M1236.74 1050.82L1234.5 901C1233.82 843.787 1202.11 808.857 1130.5 780.497" stroke="#698F40" stroke-width="1.99713"/>
<rect x="1063.28" y="726.785" width="134" height="23.6384" rx="11.8192" transform="rotate(30.2381 1063.28 726.785)" fill="#73628A"/>
<path d="M1426.83 1054.73C1415.85 1046.5 1437.33 1025.47 1455.85 1040.78C1479.42 1060.26 1457.75 1088.27 1428.44 1088.79C1399.12 1089.31 1371.28 1043.09 1408.07 1014.96C1447.63 984.723 1499.46 1031.27 1499.74 1050.82M1499.74 1050.82L1510.38 1444.44M1499.74 1050.82L1497.5 901C1496.82 843.787 1465.11 808.857 1393.5 780.497" stroke="#698F40" stroke-width="1.99713"/>
<rect x="1326.12" y="726.785" width="131" height="23.6384" rx="11.8192" transform="rotate(30.2381 1326.12 726.785)" fill="#73628A"/>
<path d="M1688.83 1054.73C1677.85 1046.5 1699.33 1025.47 1717.85 1040.78C1741.42 1060.26 1719.75 1088.27 1690.44 1088.79C1661.12 1089.31 1633.28 1043.09 1670.07 1014.96C1709.63 984.723 1761.46 1031.27 1761.74 1050.82M1761.74 1050.82L1772.38 1444.44M1761.74 1050.82L1759.5 901C1758.82 843.787 1727.11 808.857 1655.5 780.497" stroke="#698F40" stroke-width="1.99713"/>
<rect x="1588.97" y="726.785" width="128" height="23.6384" rx="11.8192" transform="rotate(30.2381 1588.97 726.785)" fill="#73628A"/>
<path d="M1951.83 1054.73C1940.85 1046.5 1962.33 1025.47 1980.85 1040.78C2004.42 1060.26 1982.75 1088.27 1953.44 1088.79C1924.12 1089.31 1896.28 1043.09 1933.07 1014.96C1972.63 984.723 2024.46 1031.27 2024.74 1050.82M2024.74 1050.82L2035.38 1444.44M2024.74 1050.82L2022.5 901C2021.82 843.787 1990.11 808.857 1918.5 780.497" stroke="#698F40" stroke-width="1.99713"/>
<rect x="1851.81" y="726.785" width="125" height="23.6384" rx="11.8192" transform="rotate(30.2381 1851.81 726.785)" fill="#73628A"/>
<path d="M2214.83 1054.73C2203.85 1046.5 2225.33 1025.47 2243.85 1040.78C2267.42 1060.26 2245.75 1088.27 2216.44 1088.79C2187.12 1089.31 2159.28 1043.09 2196.07 1014.96C2235.63 984.723 2287.46 1031.27 2287.74 1050.82M2287.74 1050.82L2298.38 1444.44M2287.74 1050.82L2285.5 901C2284.82 843.787 2253.11 808.857 2181.5 780.497" stroke="#698F40" stroke-width="1.99713"/>
<rect x="2114.65" y="726.785" width="122" height="23.6384" rx="11.8192" transform="rotate(30.2381 2114.65 726.785)" fill="#73628A"/>
<path d="M2477.83 1054.73C2466.85 1046.5 2488.33 1025.47 2506.85 1040.78C2530.42 1060.26 2508.75 1088.27 2479.44 1088.79C2450.12 1089.31 2422.28 1043.09 2459.07 1014.96C2498.63 984.723 2550.46 1031.27 2550.74 1050.82M2550.74 1050.82L2561.38 1444.44M2550.74 1050.82L2548.5 901C2547.82 843.787 2516.11 808.857 2444.5 780.497" stroke="#698F40" stroke-width="1.99713"/>
<rect x="2377.5" y="726.785" width="119" height="23.6384" rx="11.8192" transform="rotate(30.2381 2377.5 726.785)" fill="#73628A"/>
<path d="M111.826 1781.73C100.851 1773.5 122.332 1752.47 140.852 1767.78C164.423 1787.26 142.752 1815.27 113.436 1815.79C84.12 1816.31 56.2762 1770.09 93.0702 1741.96C132.629 1711.72 184.461 1758.27 184.744 1777.82M184.744 1777.82L195.375 2171.44M184.744 1777.82L182.5 1628C181.823 1570.79 150.113 1535.86 78.5002 1507.5" stroke="#698F40" stroke-width="1.99713"/>
<rect x="11.9043" y="1453.57" width="116" height="23.6384" rx="11.8192" transform="rotate(30.2381 11.9043 1453.57)" fill="#73628A"/>
<path d="M374.826 1781.73C363.851 1773.5 385.332 1752.47 403.852 1767.78C427.423 1787.26 405.752 1815.27 376.436 1815.79C347.12 1816.31 319.276 1770.09 356.07 1741.96C395.629 1711.72 447.461 1758.27 447.744 1777.82M447.744 1777.82L458.375 2171.44M447.744 1777.82L445.5 1628C444.823 1570.79 413.113 1535.86 341.5 1507.5" stroke="#698F40" stroke-width="1.99713"/>
<rect x="274.748" y="1453.57" width="113" height="23.6384" rx="11.8192" transform="rotate(30.2381 274.748 1453.57)" fill="#73628A"/>
<path d="M637.826 1781.73C626.851 1773.5 648.332 1752.47 666.852 1767.78C690.423 1787.26 668.752 1815.27 639.436 1815.79C610.12 1816.31 582.276 1770.09 619.07 1741.96C658.629 1711.72 710.461 1758.27 710.744 1777.82M710.744 1777.82L721.375 2171.44M710.744 1777.82L708.5 1628C707.823 1570.79 676.113 1535.86 604.5 1507.5" stroke="#698F40" stroke-width="1.99713"/>
<rect x="537.592" y="1453.57" width="110" height="23.6384" rx="11.8192" transform="rotate(30.2381 537.592 1453.57)" fill="#73628A"/>
<path d="M900.826 1781.73C889.851 1773.5 911.332 1752.47 929.852 1767.78C953.423 1787.26 931.752 1815.27 902.436 1815.79C873.12 1816.31 845.276 1770.09 882.07 1741.96C921.629 1711.72 973.461 1758.27 973.744 1777.82M973.744 1777.82L984.375 2171.44M973.744 1777.82L971.5 1628C970.823 1570.79 939.113 1535.86 867.5 1507.5" stroke="#698F40" stroke-width="1.99713"/>
<rect x="800.436" y="1453.57" width="107" height="23.6384" rx="11.8192" transform="rotate(30.2381 800.436 1453.57)" fill="#73628A"/>
<rect x="1063.28" y="1453.57" width="104" height="23.6384" rx="11.8192" transform="rotate(30.2381 1063.28 1453.57)" fill="#73628A"/>
<path d="M1426.83 1781.73C1415.85 1773.5 1437.33 1752.47 1455.85 1767.78C1479.42 1787.26 1457.75 1815.27 1428.44 1815.79C1399.12 1816.31 1371.28 1770.09 1408.07 1741.96C1447.63 1711.72 1499.46 1758.27 1499.74 1777.82M1499.74 1777.82L1510.38 2171.44M1499.74 1777.82L1497.5 1628C1496.82 1570.79 1465.11 1535.86 1393.5 1507.5" stroke="#698F40" stroke-width="1.99713"/>
<rect x="1326.12" y="1453.57" width="101" height="23.6384" rx="11.8192" transform="rotate(30.2381 1326.12 1453.57)" fill="#73628A"/>
<path d="M1688.83 1781.73C1677.85 1773.5 1699.33 1752.47 1717.85 1767.78C1741.42 1787.26 1719.75 1815.27 1690.44 1815.79C1661.12 1816.31 1633.28 1770.09 1670.07 1741.96C1709.63 1711.72 1761.46 1758.27 1761.74 1777.82M1761.74 1777.82L1772.38 2171.44M1761.74 1777.82L1759.5 1628C1758.82 1570.79 1727.11 1535.86 1655.5 1507.5" stroke="#698F40" stroke-width="1.99713"/>
<rect x="1588.97" y="1453.57" width="98" height="23.6384" rx="11.8192" transform="rotate(30.2381 1588.97 1453.57)" fill="#73628A"/>
<path d="M1951.83 1781.73C1940.85 1773.5 1962.33 1752.47 1980.85 1767.78C2004.42 1787.26 1982.75 1815.27 1953.44 1815.79C1924.12 1816.31 1896.28 1770.09 1933.07 1741.96C1972.63 1711.72 2024.46 1758.27 2024.74 1777.82M2024.74 1777.82L2035.38 2171.44M2024.74 1777.82L2022.5 1628C2021.82 1570.79 1990.11 1535.86 1918.5 1507.5" stroke="#698F40" stroke-width="1.99713"/>
<rect x="1851.81" y="1453.57" width="96" height="23.6384" rx="11.8192" transform="rotate(30.2381 1851.81 1453.57)" fill="#73628A"/>
<path d="M2214.83 1781.73C2203.85 1773.5 2225.33 1752.47 2243.85 1767.78C2267.42 1787.26 2245.75 1815.27 2216.44 1815.79C2187.12 1816.31 2159.28 1770.09 2196.07 1741.96C2235.63 1711.72 2287.46 1758.27 2287.74 1777.82M2287.74 1777.82L2298.38 2171.44M2287.74 1777.82L2285.5 1628C2284.82 1570.79 2253.11 1535.86 2181.5 1507.5" stroke="#698F40" stroke-width="1.99713"/>
<rect x="2114.65" y="1453.57" width="93" height="23.6384" rx="11.8192" transform="rotate(30.2381 2114.65 1453.57)" fill="#73628A"/>
<path d="M2477.83 1781.73C2466.85 1773.5 2488.33 1752.47 2506.85 1767.78C2530.42 1787.26 2508.75 1815.27 2479.44 1815.79C2450.12 1816.31 2422.28 1770.09 2459.07 1741.96C2498.63 1711.72 2550.46 1758.27 2550.74 1777.82M2550.74 1777.82L2561.38 2171.44M2550.74 1777.82L2548.5 1628C2547.82 1570.79 2516.11 1535.86 2444.5 1507.5" stroke="#698F40" stroke-width="1.99713"/>
<rect x="2377.5" y="1453.57" width="90" height="23.6384" rx="11.8192" transform="rotate(30.2381 2377.5 1453.57)" fill="#73628A"/>
</svg>
