<svg width="100" height="278" viewBox="0 0 100 278" fill="none" xmlns="http://www.w3.org/2000/svg">
<path d="M14.6875 19.089C18.0346 23.7749 23.5783 29.6349 29.7223 40.3865M62.0152 277.025C64.3746 146.079 50.0098 84.6027 35.985 52.8561M29.7223 40.3865C30.2322 34.865 32.1988 22.402 35.985 16.7227M29.7223 40.3865C31.7631 43.9579 33.8702 48.069 35.985 52.8561M35.985 52.8561C31.2522 50.2771 20.3668 45.5926 14.6875 47.4857" stroke="#698F40" stroke-width="1.49785"/>
<path d="M51 103.5C55.7328 98.7672 56.3342 85.3516 62.0136 85.3516" stroke="#698F40" stroke-width="1.49785"/>
<path d="M39 60.5C43.7328 55.7672 46.8706 35.6523 52.5499 35.6523" stroke="#698F40" stroke-width="1.49785"/>
<path d="M57.2812 146.88C62.014 142.148 63.4339 127.949 69.1132 127.949" stroke="#698F40" stroke-width="1.49785"/>
<path d="M62.0117 241.529C66.7445 236.796 72.8971 222.598 78.5764 222.598" stroke="#698F40" stroke-width="1.49785"/>
<path d="M60.5 180C65.2328 180 77.6299 158.707 83.3092 158.707" stroke="#698F40" stroke-width="1.49785"/>
<path d="M46.5 82.5C41.7672 82.5013 29.8317 61.2085 24.1523 68.781M62.0145 203.667C57.2818 203.668 44.03 181.896 38.3507 189.468M62.0145 246.262C57.2818 246.263 44.03 224.491 38.3507 232.063" stroke="#698F40" stroke-width="1.49785"/>
<path d="M56.5 134.275C51.7672 134.276 38.5155 112.504 32.8361 120.076" stroke="#698F40" stroke-width="1.49785"/>
<path d="M60 171.5C55.2672 171.501 44.0309 150.371 38.3516 157.943" stroke="#698F40" stroke-width="1.49785"/>
<circle cx="85.6784" cy="222.602" r="9.46555" fill="#73628A"/>
<circle cx="33.6179" cy="232.063" r="9.46555" fill="#73628A"/>
<circle cx="33.6179" cy="189.469" r="9.46555" fill="#73628A"/>
<circle cx="33.6179" cy="156.341" r="9.46555" fill="#73628A"/>
<circle cx="90.4128" cy="156.341" r="9.46555" fill="#73628A"/>
<circle cx="76.2155" cy="123.212" r="9.46555" fill="#73628A"/>
<circle cx="66.7468" cy="80.6179" r="9.46555" fill="#73628A"/>
<circle cx="19.4187" cy="75.8835" r="9.46555" fill="#73628A"/>
<circle cx="9.95383" cy="47.489" r="9.46555" fill="#73628A"/>
<circle cx="57.28" cy="33.2898" r="9.46555" fill="#73628A"/>
<circle cx="38.3484" cy="9.62571" r="9.46555" fill="#73628A"/>
<circle cx="9.95383" cy="19.0945" r="9.46555" fill="#73628A"/>
<circle cx="28.8855" cy="118.481" r="9.46555" fill="#73628A"/>
</svg>
