<svg width="134" height="371" viewBox="0 0 134 371" fill="none" xmlns="http://www.w3.org/2000/svg">
<path d="M19.4258 26.2099C23.8885 32.4577 31.2801 40.271 39.4721 54.6065M82.5295 370.125C85.6753 195.53 66.5223 113.561 47.8224 71.2326M39.4721 54.6065C40.1521 47.2444 42.7741 30.6271 47.8224 23.0547M39.4721 54.6065C42.1933 59.3683 45.0027 64.8498 47.8224 71.2326M47.8224 71.2326C41.5121 67.794 26.9982 61.5479 19.4258 64.0721" stroke="#698F40" stroke-width="1.99713"/>
<path d="M67.5 139C73.8104 132.69 74.9554 114.559 82.5279 114.559" stroke="#698F40" stroke-width="1.99713"/>
<path d="M52 81.5C58.3104 75.1896 62.3372 48.2891 69.9096 48.2891" stroke="#698F40" stroke-width="1.99713"/>
<path d="M76.2188 196.593C82.5291 190.283 84.4222 171.352 91.9947 171.352" stroke="#698F40" stroke-width="1.99713"/>
<path d="M82.5273 322.792C88.8377 316.482 97.0412 297.551 104.614 297.551" stroke="#698F40" stroke-width="1.99713"/>
<path d="M80 241C86.3104 241 103.352 212.363 110.924 212.363M82.5 280C88.8104 280 108.428 254 116 254" stroke="#698F40" stroke-width="1.99713"/>
<path d="M62 111C55.6896 111.002 39.6213 82.3726 32.0488 92.4692M82.5318 272.317C76.2214 272.319 58.5524 243.289 50.9799 253.385M82.5318 329.111C76.2214 329.112 58.5524 300.082 50.9799 310.179" stroke="#698F40" stroke-width="1.99713"/>
<path d="M74 180C67.6896 180.002 52.2424 150.766 44.6699 160.863" stroke="#698F40" stroke-width="1.99713"/>
<path d="M79.5 230C73.1896 230.002 58.551 201.248 50.9785 211.345" stroke="#698F40" stroke-width="1.99713"/>
<circle cx="114.08" cy="297.558" r="12.6207" fill="#73628A"/>
<circle cx="44.6696" cy="310.172" r="12.6207" fill="#73628A"/>
<circle cx="44.6696" cy="253.382" r="12.6207" fill="#73628A"/>
<circle cx="44.6696" cy="209.203" r="12.6207" fill="#73628A"/>
<circle cx="120.394" cy="209.203" r="12.6207" fill="#73628A"/>
<circle cx="114.621" cy="253.621" r="12.6207" fill="#73628A"/>
<circle cx="101.463" cy="165.039" r="12.6207" fill="#73628A"/>
<circle cx="88.8395" cy="108.246" r="12.6207" fill="#73628A"/>
<circle cx="25.736" cy="101.941" r="12.6207" fill="#73628A"/>
<circle cx="13.1149" cy="64.0739" r="12.6207" fill="#73628A"/>
<circle cx="76.2164" cy="45.1442" r="12.6207" fill="#73628A"/>
<circle cx="50.9743" cy="13.5895" r="12.6207" fill="#73628A"/>
<circle cx="13.1149" cy="26.2145" r="12.6207" fill="#73628A"/>
<circle cx="38.3571" cy="158.73" r="12.6207" fill="#73628A"/>
</svg>
