<svg width="462" height="387" viewBox="0 0 462 387" fill="none" xmlns="http://www.w3.org/2000/svg">
<path d="M346.426 42.1971C350.889 48.443 358.28 56.2537 366.472 70.5846M409.529 386.001C412.675 211.463 393.522 129.52 374.822 87.2053M366.472 70.5846C367.152 63.2249 369.774 46.613 374.822 39.043M366.472 70.5846C369.193 75.3449 372.003 80.8246 374.822 87.2053M374.822 87.2053C368.512 83.7678 353.998 77.5238 346.426 80.0471" stroke="#698F40" stroke-width="1.99713"/>
<path d="M394.5 154.949C400.81 148.641 401.955 130.516 409.528 130.516" stroke="#698F40" stroke-width="1.99713"/>
<path d="M379 97.4697C385.31 91.1614 389.337 64.2695 396.91 64.2695" stroke="#698F40" stroke-width="1.99713"/>
<path d="M403.219 212.522C409.529 206.214 411.422 187.289 418.995 187.289" stroke="#698F40" stroke-width="1.99713"/>
<path d="M409.527 338.683C415.838 332.374 424.041 313.449 431.614 313.449" stroke="#698F40" stroke-width="1.99713"/>
<path d="M407 256.917C413.31 256.917 430.352 228.289 437.924 228.289M409.5 295.904C415.81 295.904 435.428 269.912 443 269.912" stroke="#698F40" stroke-width="1.99713"/>
<path d="M389 126.958C382.69 126.96 366.621 98.34 359.049 108.433M409.532 288.223C403.221 288.225 385.552 259.204 377.98 269.297M409.532 344.998C403.221 345 385.552 315.979 377.98 326.072" stroke="#698F40" stroke-width="1.99713"/>
<path d="M401 195.938C394.69 195.94 379.242 166.714 371.67 176.807" stroke="#698F40" stroke-width="1.99713"/>
<path d="M406.5 245.919C400.19 245.921 385.551 217.176 377.979 227.27" stroke="#698F40" stroke-width="1.99713"/>
<ellipse cx="441.08" cy="313.456" rx="12.6207" ry="12.6167" fill="#73628A"/>
<ellipse cx="451.5" cy="296.404" rx="7.5" ry="7.49757" fill="#73628A"/>
<ellipse cx="371.67" cy="326.066" rx="12.6207" ry="12.6167" fill="#73628A"/>
<ellipse cx="351" cy="318.895" rx="10" ry="9.99676" fill="#73628A"/>
<ellipse cx="371.67" cy="269.296" rx="12.6207" ry="12.6167" fill="#73628A"/>
<ellipse cx="353.5" cy="261.416" rx="7.5" ry="7.49757" fill="#73628A"/>
<ellipse cx="371.67" cy="225.128" rx="12.6207" ry="12.6167" fill="#73628A"/>
<ellipse cx="354.5" cy="215.431" rx="7.5" ry="7.49757" fill="#73628A"/>
<ellipse cx="447.394" cy="225.128" rx="12.6207" ry="12.6167" fill="#73628A"/>
<ellipse cx="441.621" cy="269.535" rx="12.6207" ry="12.6167" fill="#73628A"/>
<ellipse cx="453.5" cy="253.419" rx="7.5" ry="7.49757" fill="#73628A"/>
<ellipse cx="428.463" cy="180.98" rx="12.6207" ry="12.6167" fill="#73628A"/>
<ellipse cx="440.5" cy="167.447" rx="7.5" ry="7.49757" fill="#73628A"/>
<ellipse cx="415.839" cy="124.206" rx="12.6207" ry="12.6167" fill="#73628A"/>
<ellipse cx="423.5" cy="107.466" rx="7.5" ry="7.49757" fill="#73628A"/>
<ellipse cx="352.736" cy="117.902" rx="12.6207" ry="12.6167" fill="#73628A"/>
<ellipse cx="339.5" cy="136.457" rx="12.5" ry="12.496" fill="#73628A"/>
<ellipse cx="340.115" cy="80.0463" rx="12.6207" ry="12.6167" fill="#73628A"/>
<ellipse cx="320" cy="89.9694" rx="10" ry="9.99676" fill="#73628A"/>
<ellipse cx="313" cy="102.967" rx="5" ry="4.99838" fill="#73628A"/>
<ellipse cx="403.216" cy="61.1245" rx="12.6207" ry="12.6167" fill="#73628A"/>
<ellipse cx="413" cy="41.985" rx="10" ry="9.99676" fill="#73628A"/>
<ellipse cx="377.974" cy="29.5815" rx="12.6207" ry="12.6167" fill="#73628A"/>
<ellipse cx="383.5" cy="10.4976" rx="7.5" ry="7.49757" fill="#73628A"/>
<ellipse cx="374.5" cy="6.49919" rx="2.5" ry="2.49919" fill="#73628A"/>
<ellipse cx="388.5" cy="2.49919" rx="2.5" ry="2.49919" fill="#73628A"/>
<ellipse cx="391.5" cy="24.4914" rx="2.5" ry="2.49919" fill="#73628A"/>
<ellipse cx="368.5" cy="160.448" rx="2.5" ry="2.49919" fill="#73628A"/>
<ellipse cx="374.5" cy="163.448" rx="2.5" ry="2.49919" fill="#73628A"/>
<ellipse cx="425.5" cy="166.445" rx="2.5" ry="2.49919" fill="#73628A"/>
<ellipse cx="444.006" cy="211.433" rx="2.5" ry="2.49919" fill="#73628A"/>
<ellipse cx="452.006" cy="211.433" rx="2.5" ry="2.49919" fill="#73628A"/>
<ellipse cx="445.5" cy="248.421" rx="2.5" ry="2.49919" fill="#73628A"/>
<ellipse cx="384.5" cy="276.409" rx="2.5" ry="2.49919" fill="#73628A"/>
<ellipse cx="437.5" cy="299.402" rx="2.5" ry="2.49919" fill="#73628A"/>
<ellipse cx="432.5" cy="301.402" rx="2.5" ry="2.49919" fill="#73628A"/>
<ellipse cx="428.5" cy="307.402" rx="2.5" ry="2.49919" fill="#73628A"/>
<ellipse cx="380.5" cy="213.433" rx="2.5" ry="2.49919" fill="#73628A"/>
<ellipse cx="397.5" cy="47.4836" rx="2.5" ry="2.49919" fill="#73628A"/>
<ellipse cx="417.5" cy="59.4797" rx="2.5" ry="2.49919" fill="#73628A"/>
<ellipse cx="417" cy="96.9671" rx="5" ry="4.99838" fill="#73628A"/>
<ellipse cx="361" cy="130.959" rx="5" ry="4.99838" fill="#73628A"/>
<ellipse cx="426" cy="196.936" rx="5" ry="4.99838" fill="#73628A"/>
<ellipse cx="379" cy="283.909" rx="5" ry="4.99838" fill="#73628A"/>
<ellipse cx="457" cy="276.909" rx="5" ry="4.99838" fill="#73628A"/>
<ellipse cx="383" cy="312.897" rx="5" ry="4.99838" fill="#73628A"/>
<ellipse cx="348" cy="305.901" rx="5" ry="4.99838" fill="#73628A"/>
<ellipse cx="355" cy="300.901" rx="5" ry="4.99838" fill="#73628A"/>
<ellipse cx="410.5" cy="30.4914" rx="2.5" ry="2.49919" fill="#73628A"/>
<ellipse cx="340.115" cy="42.2026" rx="12.6207" ry="12.6167" fill="#73628A"/>
<ellipse cx="329.5" cy="25.4937" rx="7.5" ry="7.49757" fill="#73628A"/>
<ellipse cx="336.5" cy="19.4953" rx="2.5" ry="2.49919" fill="#73628A"/>
<ellipse cx="365.357" cy="174.675" rx="12.6207" ry="12.6167" fill="#73628A"/>
<ellipse cx="347.5" cy="182.443" rx="7.5" ry="7.49757" fill="#73628A"/>
<path d="M192.426 42.1971C196.889 48.443 204.28 56.2537 212.472 70.5846M255.529 386.001C258.675 211.463 239.522 129.52 220.822 87.2053M212.472 70.5846C213.152 63.2249 215.774 46.613 220.822 39.043M212.472 70.5846C215.193 75.3449 218.003 80.8246 220.822 87.2053M220.822 87.2053C214.512 83.7678 199.998 77.5238 192.426 80.0471" stroke="#698F40" stroke-width="1.99713"/>
<path d="M240.5 154.949C246.81 148.641 247.955 130.516 255.528 130.516" stroke="#698F40" stroke-width="1.99713"/>
<path d="M225 97.4697C231.31 91.1614 235.337 64.2695 242.91 64.2695" stroke="#698F40" stroke-width="1.99713"/>
<path d="M249.219 212.522C255.529 206.214 257.422 187.289 264.995 187.289" stroke="#698F40" stroke-width="1.99713"/>
<path d="M255.527 338.683C261.838 332.374 270.041 313.449 277.614 313.449" stroke="#698F40" stroke-width="1.99713"/>
<path d="M253 256.917C259.31 256.917 276.352 228.289 283.924 228.289M255.5 295.904C261.81 295.904 281.428 269.912 289 269.912" stroke="#698F40" stroke-width="1.99713"/>
<path d="M235 126.958C228.69 126.96 212.621 98.34 205.049 108.433M255.532 288.223C249.221 288.225 231.552 259.204 223.98 269.297M255.532 344.998C249.221 345 231.552 315.979 223.98 326.072" stroke="#698F40" stroke-width="1.99713"/>
<path d="M247 195.938C240.69 195.94 225.242 166.714 217.67 176.807" stroke="#698F40" stroke-width="1.99713"/>
<path d="M252.5 245.919C246.19 245.921 231.551 217.176 223.979 227.27" stroke="#698F40" stroke-width="1.99713"/>
<ellipse cx="287.08" cy="313.456" rx="12.6207" ry="12.6167" fill="#73628A"/>
<ellipse cx="297.5" cy="296.404" rx="7.5" ry="7.49757" fill="#73628A"/>
<ellipse cx="217.67" cy="326.066" rx="12.6207" ry="12.6167" fill="#73628A"/>
<ellipse cx="197" cy="318.899" rx="10" ry="9.99676" fill="#73628A"/>
<ellipse cx="217.67" cy="269.296" rx="12.6207" ry="12.6167" fill="#73628A"/>
<ellipse cx="217.67" cy="225.132" rx="12.6207" ry="12.6167" fill="#73628A"/>
<ellipse cx="200.5" cy="215.431" rx="7.5" ry="7.49757" fill="#73628A"/>
<ellipse cx="293.394" cy="225.132" rx="12.6207" ry="12.6167" fill="#73628A"/>
<ellipse cx="287.621" cy="269.535" rx="12.6207" ry="12.6167" fill="#73628A"/>
<ellipse cx="299.5" cy="253.419" rx="7.5" ry="7.49757" fill="#73628A"/>
<ellipse cx="274.463" cy="180.98" rx="12.6207" ry="12.6167" fill="#73628A"/>
<ellipse cx="286.5" cy="167.447" rx="7.5" ry="7.49757" fill="#73628A"/>
<ellipse cx="261.839" cy="124.206" rx="12.6207" ry="12.6167" fill="#73628A"/>
<ellipse cx="269.5" cy="107.466" rx="7.5" ry="7.49757" fill="#73628A"/>
<ellipse cx="198.736" cy="117.906" rx="12.6207" ry="12.6167" fill="#73628A"/>
<ellipse cx="185.5" cy="136.457" rx="12.5" ry="12.496" fill="#73628A"/>
<ellipse cx="186.115" cy="80.0502" rx="12.6207" ry="12.6167" fill="#73628A"/>
<ellipse cx="166" cy="89.9733" rx="10" ry="9.99676" fill="#73628A"/>
<ellipse cx="249.216" cy="61.1245" rx="12.6207" ry="12.6167" fill="#73628A"/>
<ellipse cx="259" cy="41.989" rx="10" ry="9.99676" fill="#73628A"/>
<ellipse cx="223.974" cy="29.5815" rx="12.6207" ry="12.6167" fill="#73628A"/>
<ellipse cx="229.5" cy="10.4976" rx="7.5" ry="7.49757" fill="#73628A"/>
<ellipse cx="186.115" cy="42.2026" rx="12.6207" ry="12.6167" fill="#73628A"/>
<ellipse cx="175.5" cy="25.4937" rx="7.5" ry="7.49757" fill="#73628A"/>
<ellipse cx="211.357" cy="174.675" rx="12.6207" ry="12.6167" fill="#73628A"/>
<ellipse cx="193.5" cy="182.443" rx="7.5" ry="7.49757" fill="#73628A"/>
<path d="M38.4258 42.1971C42.8885 48.443 50.2801 56.2537 58.4721 70.5846M101.529 386.001C104.675 211.463 85.5223 129.52 66.8224 87.2053M58.4721 70.5846C59.1521 63.2249 61.7741 46.613 66.8224 39.043M58.4721 70.5846C61.1933 75.3449 64.0027 80.8246 66.8224 87.2053M66.8224 87.2053C60.5121 83.7678 45.9982 77.5238 38.4258 80.0471" stroke="#698F40" stroke-width="1.99713"/>
<path d="M86.5 154.949C92.8104 148.641 93.9554 130.516 101.528 130.516" stroke="#698F40" stroke-width="1.99713"/>
<path d="M71 97.4697C77.3104 91.1614 81.3372 64.2695 88.9096 64.2695" stroke="#698F40" stroke-width="1.99713"/>
<path d="M95.2188 212.522C101.529 206.214 103.422 187.289 110.995 187.289" stroke="#698F40" stroke-width="1.99713"/>
<path d="M101.527 338.683C107.838 332.374 116.041 313.449 123.614 313.449" stroke="#698F40" stroke-width="1.99713"/>
<path d="M99 256.917C105.31 256.917 122.352 228.289 129.924 228.289M101.5 295.904C107.81 295.904 127.428 269.912 135 269.912" stroke="#698F40" stroke-width="1.99713"/>
<path d="M81 126.958C74.6896 126.96 58.6213 98.34 51.0488 108.433M101.532 288.223C95.2214 288.225 77.5524 259.204 69.9799 269.297M101.532 344.998C95.2214 345 77.5524 315.979 69.9799 326.072" stroke="#698F40" stroke-width="1.99713"/>
<path d="M93 195.938C86.6896 195.94 71.2424 166.714 63.6699 176.807" stroke="#698F40" stroke-width="1.99713"/>
<path d="M98.5 245.919C92.1896 245.921 77.551 217.176 69.9785 227.27" stroke="#698F40" stroke-width="1.99713"/>
<ellipse cx="133.08" cy="313.456" rx="12.6207" ry="12.6167" fill="#73628A"/>
<ellipse cx="63.6696" cy="326.066" rx="12.6207" ry="12.6167" fill="#73628A"/>
<ellipse cx="63.6696" cy="269.296" rx="12.6207" ry="12.6167" fill="#73628A"/>
<ellipse cx="63.6696" cy="225.132" rx="12.6207" ry="12.6167" fill="#73628A"/>
<ellipse cx="139.394" cy="225.132" rx="12.6207" ry="12.6167" fill="#73628A"/>
<ellipse cx="133.621" cy="269.535" rx="12.6207" ry="12.6167" fill="#73628A"/>
<ellipse cx="120.463" cy="180.98" rx="12.6207" ry="12.6167" fill="#73628A"/>
<ellipse cx="107.839" cy="124.206" rx="12.6207" ry="12.6167" fill="#73628A"/>
<ellipse cx="44.736" cy="117.906" rx="12.6207" ry="12.6167" fill="#73628A"/>
<ellipse cx="32.1149" cy="80.0502" rx="12.6207" ry="12.6167" fill="#73628A"/>
<ellipse cx="95.2164" cy="61.1245" rx="12.6207" ry="12.6167" fill="#73628A"/>
<ellipse cx="69.9743" cy="29.5815" rx="12.6207" ry="12.6167" fill="#73628A"/>
<ellipse cx="32.1149" cy="42.2026" rx="12.6207" ry="12.6167" fill="#73628A"/>
<ellipse cx="57.3571" cy="174.675" rx="12.6207" ry="12.6167" fill="#73628A"/>
</svg>
