<svg width="133" height="370" viewBox="0 0 133 370" fill="none" xmlns="http://www.w3.org/2000/svg">
<path d="M18.959 25.2769C23.4281 31.5337 30.8304 39.3582 39.0341 53.7143M82.1533 369.686C85.3037 194.84 66.1231 112.754 47.3964 70.3643M39.0341 53.7143C39.7151 46.3417 42.3409 29.7005 47.3964 22.1172M39.0341 53.7143C41.7592 58.483 44.5726 63.9723 47.3964 70.3643M47.3964 70.3643C41.077 66.9208 26.5423 60.6657 18.959 63.1935" stroke="#698F40" stroke-width="2"/>
<path d="M66.3535 139.028C72.6729 132.708 74.5688 113.75 82.1521 113.75" stroke="#698F40" stroke-width="2"/>
<path d="M50.5566 82.1475C56.8761 75.8281 61.9316 47.3906 69.5149 47.3906" stroke="#698F40" stroke-width="2"/>
<path d="M75.834 195.907C82.1534 189.587 84.0492 170.629 91.6326 170.629" stroke="#698F40" stroke-width="2"/>
<path d="M82.1504 322.289C88.4698 315.97 96.6851 297.012 104.268 297.012" stroke="#698F40" stroke-width="2"/>
<path d="M82.1504 240.137C88.4698 240.137 103.005 211.699 110.588 211.699" stroke="#698F40" stroke-width="2"/>
<path d="M63.1948 110.587C56.8754 110.589 39.181 81.5169 31.5977 91.628M82.1531 271.734C75.8337 271.736 58.1393 242.664 50.556 252.775M82.1531 328.609C75.8337 328.611 58.1393 299.539 50.556 309.65" stroke="#698F40" stroke-width="2"/>
<path d="M75.8335 179.079C69.5141 179.081 51.8196 150.009 44.2363 160.12" stroke="#698F40" stroke-width="2"/>
<path d="M82.1538 229.638C75.8344 229.64 58.14 200.568 50.5566 210.679" stroke="#698F40" stroke-width="2"/>
<circle cx="113.75" cy="297.014" r="12.6389" fill="#73628A"/>
<circle cx="44.2365" cy="309.651" r="12.6389" fill="#73628A"/>
<circle cx="44.2365" cy="252.776" r="12.6389" fill="#73628A"/>
<circle cx="44.2365" cy="208.537" r="12.6389" fill="#73628A"/>
<circle cx="120.071" cy="208.537" r="12.6389" fill="#73628A"/>
<circle cx="101.113" cy="164.307" r="12.6389" fill="#73628A"/>
<circle cx="88.4728" cy="107.432" r="12.6389" fill="#73628A"/>
<circle cx="25.2775" cy="101.112" r="12.6389" fill="#73628A"/>
<circle cx="12.6389" cy="63.1936" r="12.6389" fill="#73628A"/>
<circle cx="75.8322" cy="44.2365" r="12.6389" fill="#73628A"/>
<circle cx="50.5529" cy="12.6389" r="12.6389" fill="#73628A"/>
<circle cx="12.6389" cy="25.2795" r="12.6389" fill="#73628A"/>
<circle cx="37.9162" cy="157.99" r="12.6389" fill="#73628A"/>
</svg>
