<svg width="218" height="247" viewBox="0 0 218 247" fill="none" xmlns="http://www.w3.org/2000/svg">
<path d="M51.9269 102.816C62.9144 110.508 66.2106 107.211 76.0994 105.014C84.0104 103.256 92.2144 109.043 95.877 112.705V135.779C92.9469 139.075 83.5709 148.085 73.9019 144.569C64.2329 141.053 55.5894 143.836 51.9269 146.766" stroke="#EAEAEA" stroke-width="2"/>
<path d="M164.028 90.7299C167.325 92.1949 171.939 96.8829 164.028 103.915C154.14 112.705 147.546 112.705 148.645 119.297M139.855 87.4336C142.785 87.7998 147.106 90.9496 140.953 100.619C138.316 105.893 142.052 116.001 144.25 118.199" stroke="#EAEAEA" stroke-width="2"/>
<path d="M149.723 126.988C148.991 132.116 150.821 145.887 164.006 146.766C173.675 147.645 169.5 155.922 166.203 159.951" stroke="#EAEAEA" stroke-width="2"/>
<path d="M169.496 129.188C176.821 137.978 196.525 151.822 216.742 136.879" stroke="#EAEAEA" stroke-width="2"/>
<path d="M169.496 120.157C176.088 112.832 194.767 100.819 216.742 111.367" stroke="#EAEAEA" stroke-width="2"/>
<path d="M142.831 129.188C141.366 133.583 139.536 142.373 143.93 145.669C149.056 149.513 145.029 154.825 142.831 157.755" stroke="#EAEAEA" stroke-width="2"/>
<path fill-rule="evenodd" clip-rule="evenodd" d="M69.5104 246.755C69.5104 246.755 91.4854 239.064 102.473 208.299C106.111 198.112 112.134 185.738 118.671 173.625C117.3 172.73 114.999 170.061 116.757 166.545C118.515 163.029 122.184 163.615 123.799 164.348C128.109 156.721 132.434 149.466 136.268 143.243C132.539 136.027 137.675 135.503 140.709 136.143C141.993 134.123 143.175 132.295 144.226 130.695C135.887 132.12 126.423 133.533 116.757 134.68C109.678 138.455 102.441 141.51 95.2141 144.015C94.7125 147.341 92.0585 152.612 85.4555 147.085C81.9447 148.083 78.4544 148.969 75.0041 149.762C76.1029 152.06 76.9819 156.876 71.7079 157.755C66.4339 158.634 66.5804 153.884 67.3129 151.399C64.3359 151.984 61.4014 152.509 58.5228 152.988C57.7903 154.577 55.4463 157.755 51.9303 157.755C48.4144 157.755 47.5354 155.688 47.5354 154.655C24.3535 157.896 6.54301 159.013 2.48647 166.546C-3.34393 177.374 8.12326 181.822 15.574 182.882C16.0066 182.895 16.4095 182.947 16.7702 183.027C16.3862 182.989 15.9862 182.941 15.574 182.882C12.0539 182.776 6.56554 185.253 5.78273 196.213C4.90372 208.519 17.1365 209.398 23.3628 208.299C20.799 211.229 17.2097 219.067 23.3628 226.978C29.5158 234.889 38.9315 228.33 42.8702 224.062C40.3861 227.392 33.5408 232.719 40.9428 239.064C50.0203 246.845 57.7903 240.163 61.8191 234.669C61.8191 248.953 69.5104 246.755 69.5104 246.755ZM126.645 139.076C123.349 138.71 117.196 139.296 118.954 144.57C121.152 151.163 131.04 139.076 126.645 139.076ZM125.547 151.163C122.617 150.43 116.537 150.503 115.658 156.656C114.559 164.348 131.04 153.36 125.547 151.163ZM113.46 144.57C109.432 143.838 101.594 144.131 102.473 151.163C103.572 159.953 121.152 145.669 113.46 144.57ZM102.473 159.953C104.231 158.195 107.6 158.488 109.065 158.854C109.798 158.854 110.384 159.953 106.868 164.348C101.594 170.501 100.275 168.376 100.275 166.545C100.275 165.08 100.715 161.711 102.473 159.953ZM110.164 175.335C106.502 174.603 99.6162 175.335 101.374 184.125C103.572 186.323 115.278 177.046 110.164 175.335ZM95.8804 173.138C94.0492 172.405 89.7274 172.698 87.0904 179.73C83.7941 188.52 100.275 175.335 95.8804 173.138ZM92.5842 155.558C89.6542 154.093 79.3991 157.755 81.5966 162.15C84.8929 165.446 99.1767 159.953 92.5842 155.558ZM39.844 176.434C36.914 174.969 29.9553 179.73 32.1528 184.125C35.449 187.421 46.4366 180.829 39.844 176.434ZM84.8929 195.113C88.4089 189.839 92.2179 189.985 93.6829 190.718C98.9569 192.476 91.4854 199.508 87.0904 202.804C84.8929 202.438 81.3769 200.387 84.8929 195.113ZM60.6082 164.325L60.7203 164.348C65.8342 166.058 54.1278 173.138 51.9303 170.94C50.1901 162.239 56.9194 163.587 60.6082 164.325ZM79.3991 220.384C75.7366 219.652 68.8511 220.384 70.6091 229.174C72.8066 231.372 84.5129 222.094 79.3991 220.384ZM79.3991 186.323C77.5679 185.59 73.2461 185.883 70.6091 192.915C67.3129 201.705 83.7941 188.52 79.3991 186.323ZM60.7203 181.928C58.8891 181.195 54.5673 179.291 51.9303 186.323C48.6341 195.113 65.1153 184.125 60.7203 181.928ZM62.9178 199.508C61.0866 198.775 55.6661 197.969 53.0291 205.001C49.7328 213.792 67.3129 203.903 62.9178 199.508ZM95.2141 208.299C93.3828 207.566 87.2467 207.426 86.4241 214.891C85.4555 223.681 99.6091 210.496 95.2141 208.299ZM61.8191 215.989C59.9878 215.257 54.0912 215.147 53.0291 222.582C51.9303 230.273 67.3129 219.285 61.8191 215.989ZM45.3378 194.014C43.5066 193.281 36.5478 193.096 36.5478 200.606C36.5478 209.396 49.7328 196.211 45.3378 194.014ZM37.6465 209.396C35.8153 208.664 31.3287 209.396 28.8565 215.989C25.5603 224.779 44.2391 213.793 37.6465 209.396ZM75.0041 207.199C73.1729 206.466 69.785 206.1 67.3129 212.693C64.0166 221.483 81.5966 211.595 75.0041 207.199ZM73.9054 236.865C72.0741 236.133 69.9499 233.13 67.3129 240.162C64.0166 248.952 78.3004 239.063 73.9054 236.865ZM53.0291 229.174C51.1978 228.442 45.3012 228.332 44.2391 235.767C43.1403 243.458 58.5228 232.47 53.0291 229.174ZM28.8565 190.718C27.0253 189.985 17.8324 187.678 16.7702 195.113C15.6715 202.804 34.3503 194.014 28.8565 190.718ZM79.3991 168.743C76.4691 167.278 69.5104 172.039 71.7079 176.434C75.0041 179.73 85.9916 173.138 79.3991 168.743ZM38.7453 162.15C35.8153 160.685 27.7578 163.249 29.9553 167.644C33.2515 170.94 45.3378 166.545 38.7453 162.15ZM17.869 170.94C14.939 169.475 6.88148 172.039 9.07898 176.434C12.3752 179.73 24.4615 175.335 17.869 170.94ZM21.1653 162.15C18.2352 160.685 13.474 159.953 15.6715 164.348C18.9678 167.644 27.7578 166.545 21.1653 162.15Z" fill="#73628A"/>
<path fill-rule="evenodd" clip-rule="evenodd" d="M66.2141 1.73337C64.0166 2.46567 60.0611 5.68826 61.8191 12.7203C59.2553 9.4238 53.6768 5.69528 46.4366 10.5221C40.1472 14.715 42.858 19.9079 45.0287 21.3307C45.1355 21.3903 45.2385 21.4501 45.3378 21.5096C45.2367 21.4591 45.1334 21.3993 45.0287 21.3307C41.1969 19.1887 32.6453 17.1093 26.659 24.8059C21.0537 32.0127 24.7493 36.12 27.9437 37.6251C28.2645 37.7462 28.5695 37.8692 28.8565 37.9922C28.5631 37.8944 28.2558 37.7721 27.9437 37.6251C22.5332 35.5826 12.6671 34.0878 10.1777 42.3859C7.54073 51.1759 13.474 57.0359 16.7702 58.8672C12.3752 59.2335 5.12648 61.5373 5.78273 68.756C6.88148 80.8422 102.473 100.62 116.757 113.355C120.849 113.762 124.902 114.229 128.843 114.736C128.11 112.594 127.964 108.531 133.238 109.41C138.332 110.259 137.686 113.909 136.646 115.808C139.257 116.19 141.792 116.583 144.226 116.982C141.599 113.052 138.155 107.683 134.337 101.426C133.238 102.989 130.161 105.015 126.645 100.62C123.129 96.225 126.645 93.195 128.843 92.2294C127.221 89.4552 125.572 86.5805 123.925 83.6403C118.461 90.2328 107.975 75.3487 117.637 72.0525C115.723 68.3994 113.863 64.7168 112.105 61.065C106.641 67.6575 96.9792 52.2749 106.641 48.9787C105.048 45.1758 103.638 41.4882 102.473 37.9922C101.008 38.7243 97.6384 39.3097 95.8804 35.7937C94.1224 32.2776 97.1378 29.7018 98.8653 28.8533C97.4978 25.9006 96.0401 23.2258 94.5277 20.8095C91.0776 25.9846 78.3004 11.2818 84.8929 9.08428C76.2466 1.22281 68.1172 -0.170464 66.2141 1.73337ZM14.5727 63.2622C17.5027 62.896 22.9233 63.2622 21.1653 67.6572C18.9678 73.151 11.2765 63.2622 14.5727 63.2622ZM43.1403 50.0774C46.0703 49.7112 51.4908 50.0774 49.7328 54.4724C47.5353 59.9662 39.844 50.0774 43.1403 50.0774ZM35.449 61.065C38.379 60.6987 43.7996 61.065 42.0415 65.46C39.844 70.9537 32.1528 61.065 35.449 61.065ZM70.6091 77.5462C73.5391 77.18 78.9596 77.5462 77.2016 81.9412C75.0041 87.435 67.3129 77.5462 70.6091 77.5462ZM82.6954 86.3363C85.6254 85.97 91.0459 86.3363 89.2879 90.7313C87.0904 96.225 79.3991 86.3363 82.6954 86.3363ZM17.869 46.7812C23.729 44.5837 36.5478 50.0774 32.1528 56.6699C28.7027 61.8451 11.2765 48.9787 17.869 46.7812ZM48.6341 34.6949C54.4941 32.4974 67.3129 37.9912 62.9178 44.5837C59.4678 49.7588 42.0415 36.8924 48.6341 34.6949ZM65.1153 17.1149C70.9754 14.9174 80.4979 22.6086 76.1029 29.2011C72.6528 34.3763 58.5228 19.3124 65.1153 17.1149ZM69.5104 44.5837C75.3704 42.3862 84.8929 50.0774 80.4979 56.6699C77.0478 61.8451 62.9178 46.7812 69.5104 44.5837ZM82.6954 33.5962C88.5554 31.3986 96.9792 39.0899 92.5842 45.6824C89.1341 50.8575 76.1029 35.7937 82.6954 33.5962ZM59.6216 59.9662C65.4816 57.7687 72.8066 63.2625 68.4116 69.855C64.9615 75.0301 53.0291 62.1637 59.6216 59.9662ZM91.4854 55.5712C95.8804 53.3737 101.374 58.8675 100.275 65.46C99.2529 71.595 84.8929 57.7687 91.4854 55.5712ZM96.9792 76.4475C101.374 74.25 108.058 87.435 101.374 87.435C99.1767 87.435 90.3867 78.645 96.9792 76.4475ZM81.5966 65.46C85.9916 63.2625 91.5763 73.1512 84.8929 73.1512C82.6954 73.1512 75.0041 67.6575 81.5966 65.46ZM111.263 88.5338C113.46 87.8013 121.243 96.225 114.559 96.225C112.362 96.225 104.67 90.7313 111.263 88.5338ZM99.1767 95.1263C103.572 95.1263 109.702 102.818 103.572 102.818C101.374 102.818 92.2275 95.1263 99.1767 95.1263ZM29.9553 27.0036C35.8153 24.8061 43.1403 30.2999 38.7453 36.8924C35.2952 42.0675 23.3628 29.2011 29.9553 27.0036ZM48.6341 12.7203C54.4941 10.5228 61.8191 16.0165 57.4241 22.609C53.974 27.7842 42.0415 14.9178 48.6341 12.7203ZM67.3129 5.0286C70.2429 4.66235 75.6634 5.0286 73.9054 9.4236C71.7079 14.9174 64.0166 5.0286 67.3129 5.0286ZM114.559 102.818C118.954 100.62 126.736 110.509 120.053 110.509C117.855 110.509 107.967 105.015 114.559 102.818ZM47.5353 66.5587C53.3953 64.3612 62.9178 72.0525 58.5228 78.645C55.0728 83.8201 40.9428 68.7562 47.5353 66.5587Z" fill="#73628A"/>
<path d="M164.003 126.99C166.201 128.089 169.277 130.946 164.003 133.583C160.707 133.583 158.509 128.089 164.003 126.99Z" fill="#01001B"/>
<path d="M164.003 116.003C166.201 117.101 169.277 119.958 164.003 122.595C160.707 122.595 158.509 117.101 164.003 116.003Z" fill="#01001B"/>
<path d="M152.613 129.189C151.384 125.332 152.155 121.63 153.947 118.697C150.957 118.129 147.694 117.551 144.226 116.982C141.792 116.583 139.257 116.19 136.646 115.808C134.11 115.437 131.502 115.077 128.843 114.736C124.902 114.229 120.849 113.762 116.757 113.355C84.8953 110.186 50.6055 110.673 47.5354 124.795C44.3393 139.497 81.8692 138.82 116.757 134.68C126.423 133.533 135.887 132.12 144.226 130.695C147.176 130.191 149.985 129.685 152.613 129.189Z" fill="#CBC5EA"/>
<path fill-rule="evenodd" clip-rule="evenodd" d="M152.711 129.487C152.896 130.022 153.247 130.508 153.666 130.888C170.641 146.279 172.407 126.886 170.598 118.206C167.618 109.268 158.074 111.94 153.947 118.697C152.155 121.63 151.384 125.332 152.613 129.189C152.644 129.288 152.677 129.387 152.711 129.487ZM164.003 116.003C166.201 117.101 169.277 119.958 164.003 122.595C160.707 122.595 158.509 117.101 164.003 116.003ZM164.003 126.99C166.201 128.089 169.277 130.946 164.003 133.583C160.707 133.583 158.509 128.089 164.003 126.99Z" fill="#CBC5EA"/>
<path d="M71.7079 157.755C76.9819 156.876 76.1029 152.06 75.0041 149.762C72.4151 150.357 69.8485 150.9 67.3129 151.399C66.5804 153.884 66.4339 158.634 71.7079 157.755Z" fill="#EAEAEA"/>
<path d="M92.5842 155.558C89.6542 154.093 79.3991 157.755 81.5966 162.15C84.8929 165.446 99.1767 159.953 92.5842 155.558Z" fill="#EAEAEA"/>
<path d="M85.4555 147.085C88.696 146.163 91.954 145.145 95.2141 144.015C94.7125 147.341 92.0585 152.612 85.4555 147.085Z" fill="#EAEAEA"/>
<path d="M109.065 158.854C107.6 158.488 104.231 158.195 102.473 159.953C100.715 161.711 100.275 165.08 100.275 166.545C100.275 168.376 101.594 170.501 106.868 164.348C110.384 159.953 109.798 158.854 109.065 158.854Z" fill="#EAEAEA"/>
<path d="M113.46 144.57C109.432 143.838 101.594 144.131 102.473 151.163C103.572 159.953 121.152 145.669 113.46 144.57Z" fill="#EAEAEA"/>
<path d="M110.164 175.335C106.502 174.603 99.6162 175.335 101.374 184.125C103.572 186.323 115.278 177.046 110.164 175.335Z" fill="#EAEAEA"/>
<path d="M93.6829 190.718C92.2179 189.985 88.4089 189.839 84.8929 195.113C81.3769 200.387 84.8929 202.438 87.0904 202.804C91.4854 199.508 98.9569 192.476 93.6829 190.718Z" fill="#EAEAEA"/>
<path d="M95.2141 208.299C93.3828 207.566 87.2467 207.426 86.4241 214.891C85.4555 223.681 99.6091 210.496 95.2141 208.299Z" fill="#EAEAEA"/>
<path d="M79.3991 220.384C75.7366 219.652 68.8511 220.384 70.6091 229.174C72.8066 231.372 84.5129 222.094 79.3991 220.384Z" fill="#EAEAEA"/>
<path d="M79.3991 186.323C77.5679 185.59 73.2461 185.883 70.6091 192.915C67.3129 201.705 83.7941 188.52 79.3991 186.323Z" fill="#EAEAEA"/>
<path d="M95.8804 173.138C94.0492 172.405 89.7274 172.698 87.0904 179.73C83.7941 188.52 100.275 175.335 95.8804 173.138Z" fill="#EAEAEA"/>
<path d="M79.3991 168.743C76.4691 167.278 69.5104 172.039 71.7079 176.434C75.0041 179.73 85.9916 173.138 79.3991 168.743Z" fill="#EAEAEA"/>
<path d="M51.9303 170.94C54.1278 173.138 65.8342 166.058 60.7203 164.348L60.6082 164.325C56.9194 163.587 50.1901 162.239 51.9303 170.94Z" fill="#EAEAEA"/>
<path d="M51.9303 157.755C55.4463 157.755 57.7903 154.577 58.5228 152.988C54.7546 153.614 51.0822 154.159 47.5354 154.655C47.5354 155.688 48.4144 157.755 51.9303 157.755Z" fill="#EAEAEA"/>
<path d="M38.7453 162.15C35.8153 160.685 27.7578 163.249 29.9553 167.644C33.2515 170.94 45.3378 166.545 38.7453 162.15Z" fill="#EAEAEA"/>
<path d="M45.3378 194.014C43.5066 193.281 36.5478 193.096 36.5478 200.606C36.5478 209.396 49.7328 196.211 45.3378 194.014Z" fill="#EAEAEA"/>
<path d="M28.8565 190.718C27.0253 189.985 17.8324 187.678 16.7702 195.113C15.6715 202.804 34.3503 194.014 28.8565 190.718Z" fill="#EAEAEA"/>
<path d="M39.844 176.434C36.914 174.969 29.9553 179.73 32.1528 184.125C35.449 187.421 46.4366 180.829 39.844 176.434Z" fill="#EAEAEA"/>
<path d="M17.869 170.94C14.939 169.475 6.88148 172.039 9.07898 176.434C12.3752 179.73 24.4615 175.335 17.869 170.94Z" fill="#EAEAEA"/>
<path d="M21.1653 162.15C18.2352 160.685 13.474 159.953 15.6715 164.348C18.9678 167.644 27.7578 166.545 21.1653 162.15Z" fill="#EAEAEA"/>
<path d="M75.0041 207.199C73.1729 206.466 69.785 206.1 67.3129 212.693C64.0166 221.483 81.5966 211.595 75.0041 207.199Z" fill="#EAEAEA"/>
<path d="M61.8191 215.989C59.9878 215.257 54.0912 215.147 53.0291 222.582C51.9303 230.273 67.3129 219.285 61.8191 215.989Z" fill="#EAEAEA"/>
<path d="M53.0291 229.174C51.1978 228.442 45.3012 228.332 44.2391 235.767C43.1403 243.458 58.5228 232.47 53.0291 229.174Z" fill="#EAEAEA"/>
<path d="M73.9054 236.865C72.0741 236.133 69.9499 233.13 67.3129 240.162C64.0166 248.952 78.3004 239.063 73.9054 236.865Z" fill="#EAEAEA"/>
<path d="M37.6465 209.396C35.8153 208.664 31.3287 209.396 28.8565 215.989C25.5603 224.779 44.2391 213.793 37.6465 209.396Z" fill="#EAEAEA"/>
<path d="M62.9178 199.508C61.0866 198.775 55.6661 197.969 53.0291 205.001C49.7328 213.792 67.3129 203.903 62.9178 199.508Z" fill="#EAEAEA"/>
<path d="M60.7203 181.928C58.8891 181.195 54.5673 179.291 51.9303 186.323C48.6341 195.113 65.1153 184.125 60.7203 181.928Z" fill="#EAEAEA"/>
<path d="M123.799 164.348C122.184 163.615 118.515 163.029 116.757 166.545C114.999 170.061 117.3 172.73 118.671 173.625C120.357 170.501 122.077 167.395 123.799 164.348Z" fill="#EAEAEA"/>
<path d="M125.547 151.163C122.617 150.43 116.537 150.503 115.658 156.656C114.559 164.348 131.04 153.36 125.547 151.163Z" fill="#EAEAEA"/>
<path d="M126.645 139.076C123.349 138.71 117.196 139.296 118.954 144.57C121.152 151.163 131.04 139.076 126.645 139.076Z" fill="#EAEAEA"/>
<path d="M140.242 136.879C140.399 136.631 140.555 136.386 140.709 136.143C137.675 135.503 132.539 136.027 136.268 143.243C137.666 140.974 138.999 138.842 140.242 136.879Z" fill="#EAEAEA"/>
<path d="M14.5727 63.2622C17.5027 62.896 22.9233 63.2622 21.1653 67.6572C18.9678 73.151 11.2765 63.2622 14.5727 63.2622Z" fill="#EAEAEA"/>
<path d="M17.869 46.7812C23.729 44.5837 36.5478 50.0774 32.1528 56.6699C28.7027 61.8451 11.2765 48.9787 17.869 46.7812Z" fill="#EAEAEA"/>
<path d="M29.9553 27.0036C35.8153 24.8061 43.1403 30.2999 38.7453 36.8924C35.2952 42.0675 23.3628 29.2011 29.9553 27.0036Z" fill="#EAEAEA"/>
<path d="M48.6341 34.6949C54.4941 32.4974 67.3129 37.9912 62.9178 44.5837C59.4678 49.7588 42.0415 36.8924 48.6341 34.6949Z" fill="#EAEAEA"/>
<path d="M48.6341 12.7203C54.4941 10.5228 61.8191 16.0165 57.4241 22.609C53.974 27.7842 42.0415 14.9178 48.6341 12.7203Z" fill="#EAEAEA"/>
<path d="M67.3129 5.0286C70.2429 4.66235 75.6634 5.0286 73.9054 9.4236C71.7079 14.9174 64.0166 5.0286 67.3129 5.0286Z" fill="#EAEAEA"/>
<path d="M94.5277 20.8095C91.0776 25.9846 78.3004 11.2818 84.8929 9.08428C88.132 12.0294 91.4437 15.8822 94.5277 20.8095Z" fill="#EAEAEA"/>
<path d="M102.473 37.9922C101.371 34.6862 100.158 31.6455 98.8653 28.8533C97.1378 29.7018 94.1224 32.2776 95.8804 35.7937C97.6384 39.3097 101.008 38.7243 102.473 37.9922Z" fill="#EAEAEA"/>
<path d="M82.6954 33.5962C88.5554 31.3986 96.9792 39.0899 92.5842 45.6824C89.1341 50.8575 76.1029 35.7937 82.6954 33.5962Z" fill="#EAEAEA"/>
<path d="M69.5104 44.5837C75.3704 42.3862 84.8929 50.0774 80.4979 56.6699C77.0478 61.8451 62.9178 46.7812 69.5104 44.5837Z" fill="#EAEAEA"/>
<path d="M65.1153 17.1149C70.9754 14.9174 80.4979 22.6086 76.1029 29.2011C72.6528 34.3763 58.5228 19.3124 65.1153 17.1149Z" fill="#EAEAEA"/>
<path d="M59.6216 59.9662C65.4816 57.7687 72.8066 63.2625 68.4116 69.855C64.9615 75.0301 53.0291 62.1637 59.6216 59.9662Z" fill="#EAEAEA"/>
<path d="M47.5353 66.5587C53.3953 64.3612 62.9178 72.0525 58.5228 78.645C55.0728 83.8201 40.9428 68.7562 47.5353 66.5587Z" fill="#EAEAEA"/>
<path d="M35.449 61.065C38.379 60.6987 43.7996 61.065 42.0415 65.46C39.844 70.9537 32.1528 61.065 35.449 61.065Z" fill="#EAEAEA"/>
<path d="M43.1403 50.0774C46.0703 49.7112 51.4908 50.0774 49.7328 54.4724C47.5353 59.9662 39.844 50.0774 43.1403 50.0774Z" fill="#EAEAEA"/>
<path d="M70.6091 77.5462C73.5391 77.18 78.9596 77.5462 77.2016 81.9412C75.0041 87.435 67.3129 77.5462 70.6091 77.5462Z" fill="#EAEAEA"/>
<path d="M81.5966 65.46C85.9916 63.2625 91.5763 73.1512 84.8929 73.1512C82.6954 73.1512 75.0041 67.6575 81.5966 65.46Z" fill="#EAEAEA"/>
<path d="M91.4854 55.5712C95.8804 53.3737 101.374 58.8675 100.275 65.46C99.2529 71.595 84.8929 57.7687 91.4854 55.5712Z" fill="#EAEAEA"/>
<path d="M112.105 61.065C106.641 67.6575 96.9792 52.2749 106.641 48.9787C108.289 52.9124 110.133 56.9694 112.105 61.065Z" fill="#EAEAEA"/>
<path d="M123.925 83.6403C118.461 90.2328 107.975 75.3487 117.637 72.0525C119.691 75.9737 121.807 79.8611 123.925 83.6403Z" fill="#EAEAEA"/>
<path d="M96.9792 76.4475C101.374 74.25 108.058 87.435 101.374 87.435C99.1767 87.435 90.3867 78.645 96.9792 76.4475Z" fill="#EAEAEA"/>
<path d="M111.263 88.5338C113.46 87.8013 121.243 96.225 114.559 96.225C112.362 96.225 104.67 90.7313 111.263 88.5338Z" fill="#EAEAEA"/>
<path d="M128.843 92.2294C126.645 93.195 123.129 96.225 126.645 100.62C130.161 105.015 133.238 102.989 134.337 101.426C132.571 98.5322 130.725 95.4484 128.843 92.2294Z" fill="#EAEAEA"/>
<path d="M133.238 109.41C127.964 108.531 128.11 112.594 128.843 114.736C131.502 115.077 134.11 115.437 136.646 115.808C137.686 113.909 138.332 110.259 133.238 109.41Z" fill="#EAEAEA"/>
<path d="M114.559 102.818C118.954 100.62 126.736 110.509 120.053 110.509C117.855 110.509 107.967 105.015 114.559 102.818Z" fill="#EAEAEA"/>
<path d="M99.1767 95.1263C103.572 95.1263 109.702 102.818 103.572 102.818C101.374 102.818 92.2275 95.1263 99.1767 95.1263Z" fill="#EAEAEA"/>
<path d="M82.6954 86.3363C85.6254 85.97 91.0459 86.3363 89.2879 90.7313C87.0904 96.225 79.3991 86.3363 82.6954 86.3363Z" fill="#EAEAEA"/>
</svg>
