<svg width="233" height="712" viewBox="0 0 233 712" fill="none" xmlns="http://www.w3.org/2000/svg">
<path d="M173.944 48.6261C176.782 41.5309 168.268 48.6261 171.106 48.6261H173.944Z" fill="#698F40"/>
<path d="M138.318 141.967C148.725 121.628 170.538 73.6014 173.944 48.6261M173.944 48.6261C176.782 41.5309 168.268 48.6261 171.106 48.6261C173.376 48.6261 173.944 48.6261 173.944 48.6261Z" stroke="#698F40" stroke-width="2"/>
<path d="M71.1125 34.4899C70.1134 26.9137 76.6131 35.8908 73.8628 35.1903L71.1125 34.4899Z" fill="#698F40"/>
<path d="M82.5985 133.736C77.5341 111.458 68.249 59.5331 71.1125 34.4899M71.1125 34.4899C70.1134 26.9137 76.6131 35.8908 73.8628 35.1903C71.6626 34.63 71.1125 34.4899 71.1125 34.4899Z" stroke="#698F40" stroke-width="2"/>
<path d="M79.3346 51.5133C79.0186 45.2127 83.59 52.8865 81.4623 52.1999L79.3346 51.5133Z" fill="#698F40"/>
<path d="M82.2098 133.987C79.6016 115.376 75.5112 72.0986 79.3346 51.5133M79.3346 51.5133C79.0186 45.2127 83.59 52.8865 81.4623 52.1999C79.7602 51.6506 79.3346 51.5133 79.3346 51.5133Z" stroke="#698F40" stroke-width="2"/>
<path d="M75.0404 42.9904C74.2876 35.6094 80.4781 44.6183 77.7593 43.8044L75.0404 42.9904Z" fill="#698F40"/>
<path d="M83.3051 139.601C78.9719 117.791 71.3829 67.0834 75.0404 42.9904M75.0404 42.9904C74.2876 35.6094 80.4781 44.6183 77.7593 43.8044C75.5842 43.1532 75.0404 42.9904 75.0404 42.9904Z" stroke="#698F40" stroke-width="2"/>
<path d="M177.074 58.5016C180.114 52.2102 172.196 58.0516 174.635 58.2766L177.074 58.5016Z" fill="#698F40"/>
<path d="M138.327 141.966C148.993 124.111 172.031 81.1692 177.074 58.5016M177.074 58.5016C180.114 52.2102 172.196 58.0516 174.635 58.2766C176.586 58.4566 177.074 58.5016 177.074 58.5016Z" stroke="#698F40" stroke-width="2"/>
<path d="M127.929 25.6414C128.292 18.6634 132.422 27.5945 130.176 26.618L127.929 25.6414Z" fill="#698F40"/>
<path d="M118.454 113.591C117.696 92.8059 121.442 47.9387 127.929 25.6414M127.929 25.6414C128.292 18.6634 132.422 27.5945 130.176 26.618C128.378 25.8367 127.929 25.6414 127.929 25.6414Z" stroke="#698F40" stroke-width="2"/>
<path d="M124.296 67.3658C125.468 62.671 120.63 67.9132 122.463 67.6395L124.296 67.3658Z" fill="#698F40"/>
<path d="M118.459 113.59C123.287 99.9126 124.42 83.2566 124.296 67.3658M124.296 67.3658C125.468 62.671 120.63 67.9132 122.463 67.6395C123.929 67.4205 124.296 67.3658 124.296 67.3658Z" stroke="#698F40" stroke-width="2"/>
<path d="M184.331 54.508C187.975 47.8565 178.865 53.7972 181.598 54.1526L184.331 54.508Z" fill="#698F40"/>
<path d="M138.324 141.97C150.957 123.187 177.844 78.7459 184.331 54.508M184.331 54.508C187.975 47.8565 178.865 53.7972 181.598 54.1526C183.785 54.4369 184.331 54.508 184.331 54.508Z" stroke="#698F40" stroke-width="2"/>
<path d="M49.0891 96.5628C51.1569 118.564 63.8067 142.961 75.9006 157.504C80.8838 163.496 88.4538 166.327 96.2284 166.868L125.378 168.895C135.882 169.626 146.269 165.938 153.76 158.538C264.114 49.5279 228.126 15.4281 221.137 18.7532C200.761 28.4471 121.967 176.922 141.161 134.877C160.355 92.8321 174.159 3.86938 155.352 15.6758C135.716 28.0027 125.601 111.979 116.004 111.979C106.407 111.979 131.228 -28.3145 100.009 5.86593C71.2743 37.3269 90.6761 125.994 81.079 125.994C71.482 125.994 71.482 -4.1449 49.089 5.86577C26.6959 15.8764 45.89 62.5265 49.0891 96.5628Z" fill="#EAEAEA"/>
<path d="M134.917 161.993C127.453 156.654 106.766 149.179 83.7333 161.993C60.7004 174.807 93.3303 182.015 112.524 184.017C117.021 193.489 116.669 216.742 114.834 245.224C114.229 254.622 113.462 264.589 112.654 274.818C109.235 318.123 115.168 359.955 113.949 392.717C130.966 394.122 165.423 396.09 167.109 392.717C168.321 390.292 159.437 387.359 150.953 385.249C148.772 384.707 148.683 381.416 150.851 380.821C172.445 374.896 203.908 365.169 206.103 360.047C208.126 355.326 192.306 358.382 179.241 361.771C177.067 362.335 175.518 359.528 177.185 358.023L201.982 335.645C203.804 334.001 201.822 331.098 199.627 332.195L169.83 347.094C168.513 347.752 166.945 346.893 166.791 345.429L165.79 335.916C165.567 333.797 162.656 333.288 161.696 335.191C155.196 348.074 145.706 364.645 142.87 361.101C140.591 358.251 138.504 351.71 137.065 346.034C136.547 343.99 133.584 343.732 132.799 345.69L113.949 392.717C115.168 359.955 109.235 318.123 112.654 274.818C113.462 264.589 114.229 254.622 114.834 245.224C116.669 216.742 117.021 193.489 112.524 184.017C127.453 180.68 152.832 171.603 134.917 161.993Z" fill="#698F40"/>
<path d="M112.524 184.017C93.3303 182.015 60.7004 174.807 83.7333 161.993C106.766 149.179 127.453 156.654 134.917 161.993C152.832 171.603 127.453 180.68 112.524 184.017ZM112.524 184.017C117.021 193.489 116.669 216.742 114.834 245.224C114.229 254.622 113.462 264.589 112.654 274.818C109.235 318.123 115.168 359.955 113.949 392.717M113.949 392.717C113.731 398.549 113.288 404.093 112.524 409.307C110.882 437.897 109.039 479.62 108.467 517.454C108.087 542.628 108.27 566.08 109.45 582.795M113.949 392.717C130.966 394.122 165.423 396.09 167.109 392.717C168.321 390.292 159.437 387.359 150.953 385.249C148.772 384.707 148.683 381.416 150.851 380.821C172.445 374.896 203.908 365.169 206.103 360.047C208.126 355.326 192.306 358.382 179.241 361.771C177.067 362.335 175.518 359.528 177.185 358.023L201.982 335.645C203.804 334.001 201.822 331.098 199.627 332.195L169.83 347.094C168.513 347.752 166.945 346.893 166.791 345.429L165.79 335.916C165.567 333.797 162.656 333.288 161.696 335.191C155.196 348.074 145.706 364.645 142.87 361.101C140.591 358.251 138.504 351.71 137.065 346.034C136.547 343.99 133.584 343.732 132.799 345.69L113.949 392.717ZM109.45 582.795C110.438 596.792 107.875 666.093 109.41 672.916C109.439 673.045 109.455 673.141 109.467 673.273L112.654 711.265M109.45 582.795C91.2112 499.728 52.8369 321.838 45.2489 274.818" stroke="#698F40" stroke-width="2"/>
<path d="M25.2528 278.648C19.9836 274.262 14.5624 267.942 11.8817 261.423C6.70244 248.827 4.2955 230.126 11.5811 223.723C14.8784 220.825 17.6877 230.038 20.1112 240.891C18.5356 233.601 18.0245 226.31 20.5216 220.984C28.3188 204.353 35.319 260.667 38.942 259.558C42.565 258.448 24.7036 224.84 30.6782 217.873C32.9043 215.277 36.8451 219.13 40.6917 225.881C40.7002 221.403 41.2397 218.036 42.5447 216.833C44.7073 214.839 82.7721 218.645 61.4438 266.852C58.0385 274.548 50.8036 279.766 42.6034 281.662C36.5349 283.065 30.0399 282.633 25.2528 278.648Z" fill="#EAEAEA"/>
</svg>
