<svg width="174" height="534" viewBox="0 0 174 534" fill="none" xmlns="http://www.w3.org/2000/svg">
<path d="M130.212 36.8929C132.337 31.5792 125.961 36.8929 128.086 36.8929H130.212Z" fill="#698F40"/>
<path d="M103.531 106.799C111.325 91.5659 127.661 55.5975 130.212 36.8929M130.212 36.8929C132.337 31.5792 125.961 36.8929 128.086 36.8929C129.787 36.8929 130.212 36.8929 130.212 36.8929Z" stroke="#698F40" stroke-width="1.49785"/>
<path d="M53.1985 26.3091C52.4503 20.6351 57.318 27.3583 55.2583 26.8337L53.1985 26.3091Z" fill="#698F40"/>
<path d="M61.8007 100.637C58.0078 83.9522 51.054 45.0646 53.1985 26.3091M53.1985 26.3091C52.4503 20.6351 57.318 27.3583 55.2583 26.8337C53.6105 26.414 53.1985 26.3091 53.1985 26.3091Z" stroke="#698F40" stroke-width="1.49785"/>
<path d="M59.3558 39.0586C59.1191 34.3399 62.5427 40.087 60.9492 39.5728L59.3558 39.0586Z" fill="#698F40"/>
<path d="M61.5091 100.825C59.5557 86.8869 56.4923 54.4754 59.3558 39.0586M59.3558 39.0586C59.1191 34.3399 62.5427 40.087 60.9492 39.5728C59.6745 39.1614 59.3558 39.0586 59.3558 39.0586Z" stroke="#698F40" stroke-width="1.49785"/>
<path d="M56.1412 32.6745C55.5774 27.1467 60.2137 33.8937 58.1774 33.2841L56.1412 32.6745Z" fill="#698F40"/>
<path d="M62.3308 105.028C59.0856 88.6945 53.402 50.7183 56.1412 32.6745M56.1412 32.6745C55.5774 27.1467 60.2137 33.8937 58.1774 33.2841C56.5485 32.7964 56.1412 32.6745 56.1412 32.6745Z" stroke="#698F40" stroke-width="1.49785"/>
<path d="M132.556 44.2919C134.833 39.5801 128.903 43.9549 130.729 44.1234L132.556 44.2919Z" fill="#698F40"/>
<path d="M103.537 106.8C111.526 93.4281 128.779 61.2682 132.556 44.2919M132.556 44.2919C134.833 39.5801 128.903 43.9549 130.729 44.1234C132.191 44.2582 132.556 44.2919 132.556 44.2919Z" stroke="#698F40" stroke-width="1.49785"/>
<path d="M95.75 19.6819C96.0215 14.4559 99.1149 21.1446 97.4325 20.4133L95.75 19.6819Z" fill="#698F40"/>
<path d="M88.6538 85.5492C88.086 69.983 90.8915 36.3809 95.75 19.6819M95.75 19.6819C96.0215 14.4559 99.1149 21.1446 97.4325 20.4133C96.0865 19.8282 95.75 19.6819 95.75 19.6819Z" stroke="#698F40" stroke-width="1.49785"/>
<path d="M93.0288 50.9295C93.9071 47.4135 90.2835 51.3395 91.6562 51.1345L93.0288 50.9295Z" fill="#698F40"/>
<path d="M88.6578 85.5478C92.2735 75.3046 93.122 62.8305 93.0288 50.9295M93.0288 50.9295C93.9071 47.4135 90.2835 51.3395 91.6562 51.1345C92.7543 50.9705 93.0288 50.9295 93.0288 50.9295Z" stroke="#698F40" stroke-width="1.49785"/>
<path d="M137.991 41.2977C140.721 36.3162 133.898 40.7653 135.945 41.0315L137.991 41.2977Z" fill="#698F40"/>
<path d="M103.536 106.8C112.997 92.7329 133.133 59.45 137.991 41.2977M137.991 41.2977C140.721 36.3162 133.898 40.7653 135.945 41.0315C137.582 41.2444 137.991 41.2977 137.991 41.2977Z" stroke="#698F40" stroke-width="1.49785"/>
<path d="M36.7047 72.7953C38.2534 89.2725 47.7271 107.544 56.7845 118.435C60.5165 122.923 66.1859 125.043 72.0085 125.448L93.839 126.967C101.706 127.514 109.485 124.752 115.096 119.21C197.742 37.5697 170.789 12.0316 165.555 14.5218C150.296 21.7818 91.285 132.978 105.66 101.49C120.035 70.0013 130.373 3.37497 116.288 12.217C101.582 21.449 94.0066 84.341 86.8192 84.341C79.6317 84.341 98.2207 -20.7283 74.8401 4.87024C53.3197 28.4321 67.8502 94.8369 60.6628 94.8369C53.4753 94.8369 53.4753 -2.62712 36.7046 4.87012C19.9339 12.3673 34.3089 47.3047 36.7047 72.7953Z" fill="#EAEAEA"/>
<path d="M100.985 121.799C95.3943 117.8 79.9014 112.202 62.6515 121.799C45.4016 131.395 69.8389 136.794 84.2138 138.293C87.5813 145.387 87.3182 162.801 85.9439 184.132C85.4904 191.171 84.916 198.635 84.3111 206.296C81.7504 238.728 86.1937 270.057 85.2804 294.594C98.0253 295.646 123.831 297.119 125.094 294.594C126.002 292.778 119.348 290.581 112.994 289.001C111.36 288.594 111.294 286.13 112.918 285.684C129.09 281.247 152.653 273.962 154.297 270.126C155.812 266.591 143.964 268.879 134.179 271.417C132.552 271.84 131.391 269.737 132.639 268.611L151.211 251.851C152.575 250.62 151.091 248.445 149.447 249.267L127.131 260.425C126.145 260.918 124.971 260.275 124.855 259.178L124.105 252.054C123.938 250.466 121.759 250.086 121.04 251.511C116.172 261.159 109.064 273.57 106.941 270.915C105.233 268.781 103.67 263.882 102.593 259.631C102.205 258.1 99.9857 257.907 99.3981 259.373L85.2804 294.594C86.1937 270.057 81.7504 238.728 84.3111 206.296C84.916 198.635 85.4904 191.171 85.9439 184.132C87.3182 162.801 87.5813 145.387 84.2138 138.293C95.3943 135.794 114.401 128.996 100.985 121.799Z" fill="#698F40"/>
<path d="M84.2138 138.293C69.8389 136.794 45.4016 131.395 62.6515 121.799C79.9014 112.202 95.3943 117.8 100.985 121.799C114.401 128.996 95.3943 135.794 84.2138 138.293ZM84.2138 138.293C87.5813 145.387 87.3182 162.801 85.9439 184.132C85.4904 191.171 84.916 198.635 84.3111 206.296C81.7504 238.728 86.1937 270.057 85.2804 294.594M85.2804 294.594C85.1179 298.961 84.7856 303.113 84.2138 307.018C82.9841 328.43 81.6033 359.677 81.1753 388.012C80.8904 406.865 81.0274 424.429 81.9113 436.948M85.2804 294.594C98.0253 295.646 123.831 297.119 125.094 294.594C126.002 292.778 119.348 290.581 112.994 289.001C111.36 288.594 111.294 286.13 112.918 285.684C129.09 281.247 152.653 273.962 154.297 270.126C155.812 266.591 143.964 268.879 134.179 271.417C132.552 271.84 131.391 269.737 132.639 268.611L151.211 251.851C152.575 250.62 151.091 248.445 149.447 249.267L127.131 260.425C126.145 260.918 124.971 260.275 124.855 259.178L124.105 252.054C123.938 250.466 121.759 250.086 121.04 251.511C116.172 261.159 109.064 273.57 106.941 270.915C105.233 268.781 103.67 263.882 102.593 259.631C102.205 258.1 99.9857 257.907 99.3981 259.373L85.2804 294.594ZM81.9113 436.948C82.6514 447.43 80.7315 499.331 81.8816 504.441C81.9033 504.538 81.9155 504.61 81.9237 504.709L84.3111 533.162M81.9113 436.948C68.2519 374.736 39.5124 241.51 33.8296 206.296" stroke="#698F40" stroke-width="1.49785"/>
<path d="M18.8533 209.163C14.9071 205.878 10.847 201.145 8.83937 196.262C4.9605 186.829 3.15789 172.823 8.61422 168.028C11.0837 165.857 13.1876 172.758 15.0026 180.885C13.8226 175.426 13.4399 169.966 15.31 165.977C21.1495 153.521 26.3921 195.696 29.1055 194.865C31.8189 194.034 18.442 168.864 22.9165 163.647C24.5837 161.703 27.5351 164.588 30.4159 169.644C30.4222 166.29 30.8262 163.769 31.8036 162.868C33.4232 161.374 61.9309 164.225 45.9576 200.328C43.4073 206.092 37.9889 210 31.8476 211.42C27.3028 212.47 22.4385 212.147 18.8533 209.163Z" fill="#EAEAEA"/>
</svg>
