<svg width="232" height="711" viewBox="0 0 232 711" fill="none" xmlns="http://www.w3.org/2000/svg">
<path d="M173.455 48.6059C176.289 41.5209 167.787 48.6059 170.621 48.6059H173.455Z" fill="#698F40"/>
<path d="M137.881 141.813C148.272 121.503 170.054 73.5454 173.455 48.6059M173.455 48.6059C176.289 41.5209 167.787 48.6059 170.621 48.6059C172.888 48.6059 173.455 48.6059 173.455 48.6059Z" stroke="#698F40" stroke-width="1.99713"/>
<path d="M70.7706 34.4942C69.7729 26.9289 76.2632 35.8931 73.5169 35.1936L70.7706 34.4942Z" fill="#698F40"/>
<path d="M82.2401 133.598C77.1829 111.352 67.9112 59.5015 70.7706 34.4942M70.7706 34.4942C69.7729 26.9289 76.2632 35.8931 73.5169 35.1936C71.3198 34.6341 70.7706 34.4942 70.7706 34.4942Z" stroke="#698F40" stroke-width="1.99713"/>
<path d="M78.9815 51.4869C78.6659 45.1954 83.2308 52.8581 81.1061 52.1725L78.9815 51.4869Z" fill="#698F40"/>
<path d="M81.8526 133.842C79.2481 115.258 75.1635 72.0427 78.9815 51.4869M78.9815 51.4869C78.6659 45.1954 83.2308 52.8581 81.1061 52.1725C79.4064 51.6241 78.9815 51.4869 78.9815 51.4869Z" stroke="#698F40" stroke-width="1.99713"/>
<path d="M74.6922 42.9813C73.9405 35.6109 80.1221 44.6069 77.4072 43.7941L74.6922 42.9813Z" fill="#698F40"/>
<path d="M82.945 139.453C78.618 117.675 71.0399 67.0398 74.6922 42.9813M74.6922 42.9813C73.9405 35.6109 80.1221 44.6069 77.4072 43.7941C75.2352 43.1439 74.6922 42.9813 74.6922 42.9813Z" stroke="#698F40" stroke-width="1.99713"/>
<path d="M176.581 58.4699C179.617 52.1876 171.71 58.0206 174.146 58.2452L176.581 58.4699Z" fill="#698F40"/>
<path d="M137.889 141.814C148.541 123.985 171.545 81.1051 176.581 58.4699M176.581 58.4699C179.617 52.1876 171.71 58.0206 174.146 58.2452C176.094 58.425 176.581 58.4699 176.581 58.4699Z" stroke="#698F40" stroke-width="1.99713"/>
<path d="M127.505 25.6527C127.867 18.6847 131.991 27.603 129.748 26.6278L127.505 25.6527Z" fill="#698F40"/>
<path d="M118.043 113.476C117.286 92.7208 121.026 47.918 127.505 25.6527M127.505 25.6527C127.867 18.6847 131.991 27.603 129.748 26.6278C127.953 25.8477 127.505 25.6527 127.505 25.6527Z" stroke="#698F40" stroke-width="1.99713"/>
<path d="M123.879 67.3188C125.05 62.6307 120.219 67.8654 122.049 67.5921L123.879 67.3188Z" fill="#698F40"/>
<path d="M118.051 113.477C122.872 99.8189 124.003 83.1868 123.879 67.3188M123.879 67.3188C125.05 62.6307 120.219 67.8654 122.049 67.5921C123.513 67.3734 123.879 67.3188 123.879 67.3188Z" stroke="#698F40" stroke-width="1.99713"/>
<path d="M183.826 54.4815C187.465 47.8396 178.368 53.7718 181.097 54.1267L183.826 54.4815Z" fill="#698F40"/>
<path d="M137.885 141.818C150.5 123.062 177.348 78.6847 183.826 54.4815M183.826 54.4815C187.465 47.8396 178.368 53.7718 181.097 54.1266C183.28 54.4106 183.826 54.4815 183.826 54.4815Z" stroke="#698F40" stroke-width="1.99713"/>
<path d="M48.7788 96.4758C50.8437 118.445 63.4753 142.808 75.5518 157.329C80.5279 163.313 88.087 166.14 95.8506 166.68L124.958 168.704C135.447 169.434 145.82 165.751 153.3 158.362C263.496 49.5084 227.558 15.4575 220.58 18.7778C200.233 28.4578 121.553 176.719 140.719 134.735C159.886 92.7505 173.669 3.91533 154.889 15.7048C135.281 28.014 125.181 111.87 115.598 111.87C106.015 111.87 130.8 -28.2224 99.626 5.90901C70.9322 37.3249 90.3061 125.865 80.7229 125.865C71.1396 125.865 71.1396 -4.08746 48.7787 5.90885C26.4177 15.9052 45.5844 62.4883 48.7788 96.4758Z" fill="#EAEAEA"/>
<path d="M134.481 161.815C127.028 156.484 106.37 149.02 83.3706 161.815C60.3708 174.61 92.9538 181.808 112.12 183.808C116.61 193.266 116.259 216.485 114.427 244.926C113.823 254.311 113.057 264.264 112.25 274.478C108.836 317.721 114.76 359.493 113.543 392.208C130.536 393.611 164.943 395.576 166.627 392.208C167.837 389.787 158.966 386.858 150.494 384.751C148.316 384.209 148.227 380.923 150.392 380.329C171.955 374.412 203.373 364.699 205.565 359.585C207.585 354.871 191.788 357.922 178.741 361.306C176.571 361.87 175.023 359.066 176.688 357.564L201.45 335.218C203.269 333.576 201.29 330.677 199.098 331.773L169.343 346.65C168.029 347.307 166.463 346.449 166.309 344.988L165.309 335.489C165.086 333.372 162.181 332.864 161.222 334.765C154.731 347.629 145.254 364.176 142.423 360.637C140.146 357.792 138.062 351.26 136.626 345.592C136.108 343.551 133.15 343.293 132.366 345.248L113.543 392.208C114.76 359.493 108.836 317.721 112.25 274.478C113.057 264.264 113.823 254.311 114.427 244.926C116.259 216.485 116.61 193.266 112.12 183.808C127.028 180.475 152.37 171.411 134.481 161.815Z" fill="#698F40"/>
<path d="M112.12 183.808C92.9538 181.808 60.3708 174.61 83.3706 161.815C106.37 149.02 127.028 156.484 134.481 161.815C152.37 171.411 127.028 180.475 112.12 183.808ZM112.12 183.808C116.61 193.266 116.259 216.485 114.427 244.926C113.823 254.311 113.057 264.264 112.25 274.478C108.836 317.721 114.76 359.493 113.543 392.208M113.543 392.208C113.326 398.032 112.883 403.568 112.12 408.775C110.481 437.323 108.64 478.987 108.069 516.766C107.689 541.904 107.872 565.322 109.05 582.014M113.543 392.208C130.536 393.611 164.943 395.576 166.627 392.208C167.837 389.787 158.966 386.858 150.494 384.751C148.316 384.209 148.227 380.923 150.392 380.329C171.955 374.412 203.373 364.699 205.565 359.585C207.585 354.871 191.788 357.922 178.741 361.306C176.571 361.87 175.023 359.066 176.688 357.564L201.45 335.218C203.269 333.576 201.29 330.677 199.098 331.773L169.343 346.65C168.029 347.307 166.463 346.449 166.309 344.988L165.309 335.489C165.086 333.372 162.181 332.864 161.222 334.765C154.731 347.629 145.254 364.176 142.423 360.637C140.146 357.792 138.062 351.26 136.626 345.592C136.108 343.551 133.15 343.293 132.366 345.248L113.543 392.208ZM109.05 582.014C110.037 595.99 107.477 665.191 109.011 672.005C109.04 672.134 109.056 672.23 109.067 672.362L112.25 710.299M109.05 582.014C90.8378 499.065 52.5185 321.431 44.9414 274.478" stroke="#698F40" stroke-width="1.99713"/>
<path d="M24.977 278.302C19.7153 273.922 14.3019 267.611 11.625 261.101C6.45319 248.523 4.04971 229.849 11.3248 223.455C14.6174 220.561 17.4227 229.761 19.8427 240.599C18.2694 233.319 17.759 226.039 20.2526 220.72C28.0385 204.113 35.0287 260.346 38.6465 259.238C42.2644 258.13 24.4286 224.57 30.3945 217.614C32.6175 215.022 36.5526 218.869 40.3937 225.61C40.4021 221.138 40.9409 217.776 42.244 216.575C44.4035 214.584 82.4138 218.384 61.116 266.522C57.7156 274.208 50.4911 279.418 42.3027 281.311C36.2429 282.712 29.7572 282.281 24.977 278.302Z" fill="#EAEAEA"/>
</svg>
