<svg width="145" height="145" viewBox="0 0 145 145" fill="none" xmlns="http://www.w3.org/2000/svg">
<path d="M89.2327 49.0601L105.791 27.918" stroke="#73628A" stroke-width="1.99713"/>
<path d="M95.9779 53.8691L116.827 36.5547" stroke="#73628A" stroke-width="1.99713"/>
<path d="M99.1925 58.3315L122.348 43.9531" stroke="#73628A" stroke-width="1.99713"/>
<path d="M83.7121 46.4177L94.751 22.6328" stroke="#73628A" stroke-width="1.99713"/>
<path d="M78.1915 43.7753L83.7109 17.3477" stroke="#73628A" stroke-width="1.99713"/>
<path d="M72.6738 43.7753V17.3477" stroke="#73628A" stroke-width="1.99713"/>
<path d="M67.7414 44.4214L61.6729 18.6406" stroke="#73628A" stroke-width="1.99713"/>
<path d="M62.0579 46.7265L50.5967 19.9805" stroke="#73628A" stroke-width="1.99713"/>
<path d="M56.3827 49.0363L38.9541 27.875" stroke="#73628A" stroke-width="1.99713"/>
<path d="M50.0202 56.532L26.5898 41.6016" stroke="#73628A" stroke-width="1.99713"/>
<path d="M52.8018 53.0675L31.7939 35.9297" stroke="#73628A" stroke-width="1.99713"/>
<path d="M46.0102 59.7485L20.1396 47.6133" stroke="#73628A" stroke-width="1.99713"/>
<path d="M43.9646 65.4146L17.4854 57" stroke="#73628A" stroke-width="1.99713"/>
<path d="M41.9152 71.0702L11.9482 70.2578" stroke="#73628A" stroke-width="1.99713"/>
<path d="M42.7805 76.2909L13.6758 80.6992" stroke="#73628A" stroke-width="1.99713"/>
<path d="M42.4972 84.5071L16.6699 92.3867" stroke="#73628A" stroke-width="1.99713"/>
<path d="M45.5127 89.6373L22.6982 102.637" stroke="#73628A" stroke-width="1.99713"/>
<path d="M48.5253 94.748L28.7236 112.867" stroke="#73628A" stroke-width="1.99713"/>
<path d="M53.0673 97.7603L37.8047 118.887" stroke="#73628A" stroke-width="1.99713"/>
<path d="M59.5774 100.614L49.3154 125.797" stroke="#73628A" stroke-width="1.99713"/>
<path d="M65.6399 101.935L61.4395 128.434" stroke="#73628A" stroke-width="1.99713"/>
<path d="M71.7034 103.252L73.5645 131.066" stroke="#73628A" stroke-width="1.99713"/>
<path d="M77.0448 101.912L84.2471 128.395" stroke="#73628A" stroke-width="1.99713"/>
<path d="M84.2807 100.214L97.2441 124.227" stroke="#73628A" stroke-width="1.99713"/>
<path d="M89.3121 96.7215L107.312 117.246" stroke="#73628A" stroke-width="1.99713"/>
<path d="M94.3494 93.2332L117.385 110.27" stroke="#73628A" stroke-width="1.99713"/>
<path d="M96.8311 86.9532L122.351 99.2695" stroke="#73628A" stroke-width="1.99713"/>
<path d="M100.931 81.201L128.292 87.8516" stroke="#73628A" stroke-width="1.99713"/>
<path d="M101.546 75.2837L129.524 76.0117" stroke="#73628A" stroke-width="1.99713"/>
<path d="M102.166 69.3586L130.762 64.1641" stroke="#73628A" stroke-width="1.99713"/>
<path d="M100.122 64.4462L126.679 54.3398" stroke="#73628A" stroke-width="1.99713"/>
<ellipse cx="5.4887" cy="9.45312" rx="5.4887" ry="9.45312" transform="matrix(-0.935887 -0.3523 -0.379741 0.925093 106.195 7.32422)" fill="#73628A"/>
<ellipse cx="4.16551" cy="8.02553" rx="4.16551" ry="8.02553" transform="matrix(-0.97342 -0.229026 -0.248516 0.968628 91.7617 3.54297)" fill="#73628A"/>
<ellipse cx="5.13259" cy="8.53851" rx="5.13259" ry="8.53851" transform="matrix(-0.999415 -0.0342149 -0.037306 0.999304 78.0498 0.644531)" fill="#73628A"/>
<ellipse cx="5.113" cy="9.26741" rx="5.113" ry="9.26741" transform="matrix(-0.955996 0.29338 0.317349 0.948309 61.2754 0)" fill="#73628A"/>
<ellipse cx="5.08579" cy="10.4076" rx="5.08579" ry="10.4076" transform="matrix(-0.891309 0.453396 0.485074 0.874473 46.0215 1.48828)" fill="#73628A"/>
<ellipse cx="5.63235" cy="10.5073" rx="5.63235" ry="10.5073" transform="matrix(-0.76417 0.645015 0.677229 0.735772 33.375 10.8711)" fill="#73628A"/>
<ellipse cx="4.30287" cy="10.5929" rx="4.30287" ry="10.5929" transform="matrix(-0.628879 0.777503 0.803173 0.595746 22.5469 22.6328)" fill="#73628A"/>
<ellipse cx="3.42745" cy="10.6502" rx="3.42745" ry="10.6502" transform="matrix(-0.514549 0.857461 0.876104 0.482121 15.1484 31.8047)" fill="#73628A"/>
<ellipse cx="3.408" cy="10.7077" rx="3.408" ry="10.7077" transform="matrix(-0.360311 0.932832 0.942614 0.333884 8.56055 39.8086)" fill="#73628A"/>
<ellipse cx="4.65129" cy="10.7481" rx="4.65129" ry="10.7481" transform="matrix(-0.180813 0.983518 0.986085 0.166245 1.68164 49.7305)" fill="#73628A"/>
<ellipse cx="4.45656" cy="10.7615" rx="4.45656" ry="10.7615" transform="matrix(-0.00745009 0.999972 0.999977 0.00683205 1.47754 64.9141)" fill="#73628A"/>
<ellipse cx="3.97516" cy="10.7606" rx="3.97516" ry="10.7606" transform="matrix(0.0474573 0.998873 0.999052 -0.043528 1.12305 76.4219)" fill="#73628A"/>
<ellipse cx="4.12793" cy="10.7496" rx="4.12793" ry="10.7496" transform="matrix(0.170553 0.985349 0.987636 -0.156767 0.654297 89.4297)" fill="#73628A"/>
<ellipse cx="4.14804" cy="10.7011" rx="4.14804" ry="10.7011" transform="matrix(0.381372 0.924421 0.935302 -0.35385 5.33984 104.195)" fill="#73628A"/>
<ellipse cx="4.18235" cy="10.6174" rx="4.18235" ry="10.6174" transform="matrix(0.583072 0.81242 0.835317 -0.549769 11.4277 118.875)" fill="#73628A"/>
<ellipse cx="4.22919" cy="10.5008" rx="4.22919" ry="10.5008" transform="matrix(0.773318 0.634019 0.666506 -0.7455 24.5449 128.145)" fill="#73628A"/>
<ellipse cx="4.28761" cy="10.3518" rx="4.28761" ry="10.3518" transform="matrix(0.952922 0.303217 0.32781 -0.944744 41.1611 137.332)" fill="#73628A"/>
<ellipse cx="4.30002" cy="10.3195" rx="4.30002" ry="10.3195" transform="matrix(0.98607 0.16633 0.180904 -0.983501 53.5723 143.57)" fill="#73628A"/>
<ellipse cx="4.30533" cy="10.3057" rx="4.30533" ry="10.3057" transform="matrix(0.999809 -0.0195287 -0.0212947 -0.999773 69.5879 143.828)" fill="#73628A"/>
<ellipse cx="4.29973" cy="10.3203" rx="4.29973" ry="10.3203" transform="matrix(0.985317 -0.170733 -0.185667 -0.982613 82.3896 144.316)" fill="#73628A"/>
<ellipse cx="4.52008" cy="10.3827" rx="4.52008" ry="10.3827" transform="matrix(0.919526 -0.393029 -0.422459 -0.906382 99.1523 139.43)" fill="#73628A"/>
<ellipse cx="4.4752" cy="10.4908" rx="4.4752" ry="10.4908" transform="matrix(0.787115 -0.616807 -0.649642 -0.76024 111.581 129.113)" fill="#73628A"/>
<ellipse cx="4.31201" cy="10.5872" rx="4.31201" ry="10.5872" transform="matrix(0.638937 -0.769259 -0.795518 -0.60593 123.254 120.305)" fill="#73628A"/>
<ellipse cx="4.95346" cy="10.6662" rx="4.95346" ry="10.6662" transform="matrix(0.476951 -0.87893 -0.895274 -0.445516 132.614 110.117)" fill="#73628A"/>
<ellipse cx="4.37019" cy="10.7354" rx="4.37019" ry="10.7354" transform="matrix(0.251925 -0.967747 -0.972668 -0.2322 140.592 95.4688)" fill="#73628A"/>
<ellipse cx="3.65501" cy="10.7611" rx="3.65501" ry="10.7611" transform="matrix(0.0334278 -0.999441 -0.99953 -0.0306573 144.141 79.5781)" fill="#73628A"/>
<ellipse cx="3.6566" cy="10.7568" rx="3.6566" ry="10.7568" transform="matrix(-0.107769 -0.994176 -0.995095 0.0989199 145 66.5625)" fill="#73628A"/>
<ellipse cx="3.66264" cy="10.7405" rx="3.66264" ry="10.7405" transform="matrix(-0.226455 -0.974022 -0.978018 0.20852 144.664 55.0859)" fill="#73628A"/>
<ellipse cx="3.68652" cy="10.6753" rx="3.68652" ry="10.6753" transform="matrix(-0.454177 -0.890911 -0.905895 0.423503 138.908 39.7695)" fill="#73628A"/>
<ellipse cx="4.99545" cy="10.5528" rx="4.99545" ry="10.5528" transform="matrix(-0.696184 -0.717863 -0.74724 0.664554 133.389 27.9883)" fill="#73628A"/>
<ellipse cx="5.01842" cy="9.38492" rx="5.01842" ry="9.38492" transform="matrix(-0.756759 -0.653694 -0.685665 0.727918 121.343 19.0273)" fill="#73628A"/>
<circle cx="32.0908" cy="32.0908" r="32.0908" transform="matrix(-1 0 0 1 104 40)" fill="#CBC5EA"/>
</svg>
