<svg width="1651" height="787" viewBox="0 0 1651 787" fill="none" xmlns="http://www.w3.org/2000/svg">
<path d="M86.7168 447.886C86.7188 248.011 148.999 243.667 148.997 447.887M148.997 447.887V786.809M148.997 447.887C166.378 384.641 204.035 312.896 215.622 531.89M148.997 447.887V225.535" stroke="#698F40" stroke-width="1.99713"/>
<path d="M52.7973 124.83C-15.0799 146.107 52.4574 200.116 94.7108 224.462C101.456 208.617 126.39 176.926 172.16 176.919C217.93 176.911 217.646 232.657 211.783 260.531C355.6 219.842 318.624 172.318 298.733 182.707C282.821 191.019 283.3 180.304 285.529 173.907C314.565 113.169 262.103 98.0385 242.213 108.428C222.322 118.818 251.536 68.1136 223.014 44.529C194.492 20.9444 187.104 57.2096 166.157 64.6067C145.209 72.0037 176.715 37.3198 134.642 42.0797C92.5697 46.8396 115.462 92.6059 93.2804 86.9763C71.0985 81.3467 58.2495 92.6152 66.5256 106.521C73.1465 117.646 60.1321 123.363 52.7973 124.83Z" fill="#73628A"/>
<path d="M143.112 180.436C57.0709 220.521 101.88 261.982 140.184 278.819C143.291 280.184 146.575 281.106 149.955 281.414C170.503 283.286 190.718 276.738 203.598 270.282C212.086 266.027 217.106 257.432 218.512 248.043C231.97 158.209 163.055 173.4 143.112 180.436Z" fill="#EAEAEA"/>
<path d="M85.2015 197.531C75.6255 200.913 84.0294 206.92 89.4283 209.501C93.4775 211.437 101.398 205.274 102.277 198.233C103.156 191.191 97.1714 193.304 85.2015 197.531Z" fill="#CBC5EA"/>
<path d="M84.4235 201.232C82.3012 199.338 77.7206 194.547 76.3763 190.533C75.0321 186.518 84.7473 193.31 89.773 197.208C88.0927 192.191 85.6693 182.287 89.4187 182.818C93.168 183.348 96.1248 191.734 97.1345 195.861" stroke="#CBC5EA" stroke-width="1.99713"/>
<path d="M104.504 180.174C97.8478 177.419 85.5562 171.329 89.6429 169.006C93.7295 166.684 100.054 172.896 102.705 176.293C99.4538 171.603 94.3331 162.419 99.8596 163.201C105.386 163.982 105.762 171.287 105.259 174.842C102.259 168.375 98.4119 156.832 107.019 162.401C115.627 167.969 112.335 174.634 109.613 177.271" stroke="#CBC5EA" stroke-width="1.99713"/>
<path d="M108.387 173.477C99.3696 168.807 100.738 179.046 102.55 184.75C103.908 189.027 113.822 190.587 119.559 186.411C125.296 182.234 119.66 179.315 108.387 173.477Z" fill="#CBC5EA"/>
<path d="M136.877 160.393C133.789 150.718 127.528 158.935 124.783 164.252C122.725 168.241 128.643 176.346 135.655 177.439C142.666 178.533 140.736 172.486 136.877 160.393Z" fill="#CBC5EA"/>
<path d="M125.205 166.363C119.177 163.917 108.258 157.751 112.803 152.657C117.348 147.564 124.527 159.893 127.548 166.695C121.402 159.451 111.454 145.295 120.827 146.621C130.201 147.947 130.997 159.214 130.223 164.682C128.093 157.21 124.771 142.398 128.52 142.929C133.207 143.592 135.904 158.315 132.898 162.67" stroke="#CBC5EA" stroke-width="1.99713"/>
<path d="M156.417 168.482C164.94 174.004 164.57 163.681 163.32 157.829C162.382 153.44 152.667 150.926 146.552 154.527C140.437 158.128 145.764 161.579 156.417 168.482Z" fill="#CBC5EA"/>
<path d="M150.297 157.959C144.38 154.732 134.15 147.07 140.57 142.242C146.99 137.413 151.513 149.367 152.972 155.948C151.734 147.805 150.597 132.189 155.956 134.859C161.315 137.529 159.103 152.035 157.327 158.954" stroke="#CBC5EA" stroke-width="1.99713"/>
<path d="M192.008 162.268C199.871 155.84 189.928 153.038 183.973 152.44C179.508 151.992 174.146 160.475 175.706 167.398C177.267 174.321 182.181 170.303 192.008 162.268Z" fill="#CBC5EA"/>
<path d="M181.097 159.932C177.855 154.693 172.44 143.41 176.72 140.191C180.999 136.972 181.642 150.449 181.429 157.589C180.861 150.338 181.065 136.504 186.424 139.175C191.783 141.845 186.668 154.347 183.44 160.264C186.108 152.673 192.314 138.093 195.798 140.499C199.282 142.905 190.573 154.898 185.784 160.594" stroke="#CBC5EA" stroke-width="1.99713"/>
<path d="M208.797 180.815C217.523 186.01 216.762 175.708 215.29 169.907C214.187 165.557 204.382 163.414 198.409 167.245C192.435 171.075 197.889 174.322 208.797 180.815Z" fill="#CBC5EA"/>
<path d="M203.53 170.273C201.622 161.238 200.147 143.501 209.521 144.827C218.894 146.154 210.995 162.564 205.874 170.604C208.651 162.233 216.484 146.291 225.592 149.491C234.7 152.692 217.804 165.121 208.217 170.936" stroke="#CBC5EA" stroke-width="1.99713"/>
<path d="M222.314 190.489C212.308 192.221 219.589 199.549 224.48 202.997C228.148 205.583 236.988 200.831 239.032 194.036C241.077 187.24 234.822 188.323 222.314 190.489Z" fill="#CBC5EA"/>
<path d="M226.324 195.02C226.759 186.317 229.971 169.243 239.345 170.569C248.718 171.896 237.915 186.302 231.342 193.34C236.353 186.081 247.515 173.638 252.078 181.932C256.641 190.226 239.935 194.555 231.011 195.683C239.485 192.102 256.235 186.344 255.439 191.968C254.643 197.592 238.601 198.35 230.679 198.026" stroke="#CBC5EA" stroke-width="1.99713"/>
<path d="M241.988 220.701C252.041 219.262 244.978 211.724 240.189 208.135C236.598 205.443 227.623 209.934 225.381 216.667C223.139 223.4 229.422 222.5 241.988 220.701Z" fill="#CBC5EA"/>
<path d="M238.394 211.061C242.292 206.035 251.83 197.187 258.799 201.997C265.767 206.807 247.878 211.606 238.063 213.405C245.535 211.275 260.815 208.019 262.159 212.034C263.503 216.048 246.434 216.183 237.731 215.748C245.653 216.072 261.43 217.189 261.164 219.064C260.833 221.407 242.086 218.755 237.4 218.092" stroke="#CBC5EA" stroke-width="1.99713"/>
<path d="M223.749 245.592C222.888 255.711 231.822 250.526 236.397 246.668C239.828 243.775 237.473 234.019 231.418 230.319C225.362 226.619 224.824 232.944 223.749 245.592Z" fill="#CBC5EA"/>
<path d="M235.081 234.497C236.975 232.375 243.04 228.93 252.148 232.131C261.256 235.332 242.782 236.383 232.406 236.509C242.222 234.71 260.181 232.789 253.496 239.492C246.811 246.195 236.43 241.858 232.075 238.852" stroke="#CBC5EA" stroke-width="1.99713"/>
<path d="M416.9 447.886C416.902 248.011 479.182 243.667 479.181 447.887M479.181 447.887V786.809M479.181 447.887C496.561 384.641 534.219 312.896 545.806 531.89M479.181 447.887V225.535" stroke="#698F40" stroke-width="1.99713"/>
<path d="M382.981 124.83C315.104 146.107 382.641 200.116 424.894 224.462C431.64 208.617 456.574 176.926 502.344 176.919C548.114 176.911 547.83 232.657 541.966 260.531C685.783 219.842 648.807 172.318 628.917 182.707C613.004 191.019 613.484 180.304 615.712 173.907C644.749 113.169 592.287 98.0385 572.396 108.428C552.505 118.818 581.72 68.1136 553.198 44.529C524.675 20.9444 517.288 57.2096 496.34 64.6067C475.393 72.0037 506.898 37.3198 464.826 42.0797C422.753 46.8396 445.646 92.6059 423.464 86.9763C401.282 81.3467 388.433 92.6152 396.709 106.521C403.33 117.646 390.316 123.363 382.981 124.83Z" fill="#73628A"/>
<path d="M520.496 155.43C524.189 145.97 514.151 148.411 508.671 150.814C504.56 152.616 504.054 162.639 508.812 167.903C513.571 173.168 515.879 167.256 520.496 155.43Z" fill="#CBC5EA" stroke="#CBC5EA" stroke-width="1.99713"/>
<path d="M507.67 152.721C504.527 147.025 499.927 135.36 506.665 134.265C513.403 133.169 511.217 147.268 509.281 154.454C509.068 144.957 510.254 127.696 516.7 134.628C523.147 141.56 516.671 150.815 512.627 154.575C515.677 147.429 522.423 133.831 525.001 136.604C528.225 140.07 521.049 153.206 515.971 154.697" stroke="#CBC5EA" stroke-width="1.99713"/>
<path d="M423.252 191.895C415.774 185.025 414.411 195.265 414.665 201.244C414.855 205.728 424.013 209.831 430.644 207.304C437.275 204.777 432.601 200.483 423.252 191.895Z" fill="#CBC5EA" stroke="#CBC5EA" stroke-width="1.99713"/>
<path d="M418.066 200.783C411.708 200.947 398.82 199.167 398.132 190.727C397.443 182.288 412.484 193.097 420.09 199.556C413.711 195.12 401.517 185.354 403.773 181.772C406.03 178.19 416.941 191.317 422.114 198.329C417.35 191.992 408.226 179.072 409.845 178.091C411.868 176.864 421.684 193.054 424.138 197.102" stroke="#CBC5EA" stroke-width="1.99713"/>
<path d="M554.709 221.037C553.637 231.136 562.678 226.138 567.332 222.377C570.823 219.556 568.672 209.754 562.696 205.928C556.719 202.102 556.049 208.414 554.709 221.037Z" fill="#CBC5EA"/>
<path d="M562.085 211.847C569.494 206.337 584.992 197.585 587.705 206.655C590.418 215.724 572.207 215.407 562.763 214.115C571.529 213.139 589.286 213.592 590.185 223.204C591.084 232.817 572.73 222.661 563.441 216.382" stroke="#CBC5EA" stroke-width="1.99713"/>
<path d="M537.458 162.96C529.696 156.411 528.766 166.699 529.272 172.662C529.651 177.134 538.974 180.848 545.493 178.043C552.011 175.239 547.16 171.146 537.458 162.96Z" fill="#CBC5EA"/>
<path d="M533.872 164.16C534.432 161.372 536.247 154.996 539.029 151.806C541.812 148.615 540.869 160.432 540.05 166.739C543.528 162.75 550.843 155.65 552.283 159.152C553.722 162.654 547.985 169.448 544.937 172.406" stroke="#CBC5EA" stroke-width="1.99713"/>
<path d="M473.295 180.436C387.254 220.521 432.063 261.982 470.368 278.819C473.475 280.184 476.759 281.106 480.138 281.414C500.687 283.286 520.901 276.738 533.782 270.282C542.269 266.027 547.289 257.432 548.696 248.043C562.153 158.209 493.239 173.4 473.295 180.436Z" fill="#EAEAEA"/>
<path d="M486.601 168.482C495.124 174.004 494.754 163.681 493.504 157.829C492.566 153.44 482.85 150.926 476.735 154.527C470.621 158.128 475.947 161.579 486.601 168.482Z" fill="#CBC5EA"/>
<path d="M480.481 157.959C474.564 154.732 464.334 147.07 470.753 142.242C477.173 137.413 481.696 149.367 483.156 155.948C481.917 147.805 480.781 132.189 486.139 134.859C491.498 137.529 489.286 152.035 487.511 158.954" stroke="#CBC5EA" stroke-width="1.99713"/>
<path d="M437.023 188.485C438.601 196.224 444.13 190.394 446.697 186.512C448.622 183.601 444.724 176.838 439.394 175.406C434.064 173.974 435.051 178.811 437.023 188.485Z" fill="#CBC5EA"/>
<path d="M440.453 185.26C433.678 185.123 420.33 183.02 421.145 175.703C421.959 168.386 433.408 176.451 439.031 181.398C433.272 177.67 423.341 169.28 429.684 165.542C436.026 161.803 439.777 174.69 440.86 181.601C437.88 175.096 433.018 162.209 437.408 162.697C441.798 163.186 442.758 175.639 442.689 181.805" stroke="#CBC5EA" stroke-width="1.99713"/>
<path d="M468.336 166.081C471.551 156.448 461.648 159.387 456.295 162.061C452.279 164.066 452.275 174.102 457.291 179.122C462.306 184.142 464.316 178.122 468.336 166.081Z" fill="#CBC5EA" stroke="#CBC5EA" stroke-width="1.99713"/>
<path d="M457.863 169.932C452.324 167.233 441.722 160.584 443.622 155.578C445.522 150.571 453.261 161.622 456.892 167.774C452.541 161.946 445.328 150.14 451.284 149.537C457.241 148.933 459.591 162.235 460.022 168.961C458.224 161.119 455.687 145.478 459.917 145.652C464.147 145.826 463.188 160.616 462.179 167.99" stroke="#CBC5EA" stroke-width="1.99713"/>
<path d="M565.03 236.066C569.662 232.61 578.906 226.641 578.828 230.411C578.75 234.181 571.872 235.987 568.443 236.419C573.009 236.105 581.441 236.348 578.633 239.835C575.824 243.322 570.636 240.581 568.394 238.775C574.082 239.364 583.616 241.453 576.244 245.097C568.872 248.741 565.631 243.736 564.932 240.778" stroke="#CBC5EA" stroke-width="1.99713"/>
<path d="M568.049 241.493C574.971 237.197 567.353 233.935 562.679 232.841C559.174 232.021 554.028 238.211 554.55 243.88C555.072 249.548 559.398 246.863 568.049 241.493Z" fill="#CBC5EA"/>
<path d="M550.939 198.214C553.897 207.929 560.268 199.797 563.083 194.517C565.195 190.556 559.386 182.373 552.39 181.185C545.393 179.998 547.242 186.07 550.939 198.214Z" fill="#CBC5EA" stroke="#CBC5EA" stroke-width="1.99713"/>
<path d="M557.34 183.701C558.311 181.027 562.663 175.578 572.309 175.168C581.954 174.759 565.191 182.593 555.603 186.562C564.049 181.248 580.012 172.797 576.294 181.502C572.575 190.208 561.325 190.035 556.165 188.861" stroke="#CBC5EA" stroke-width="1.99713"/>
<path d="M747.084 447.886C747.086 248.011 809.366 243.667 809.364 447.887M809.364 447.887V786.809M809.364 447.887C826.745 384.641 864.403 312.896 875.99 531.89M809.364 447.887V225.535" stroke="#698F40" stroke-width="1.99713"/>
<path d="M713.164 124.83C645.287 146.107 712.825 200.116 755.078 224.462C761.824 208.617 786.757 176.926 832.527 176.919C878.298 176.911 878.013 232.657 872.15 260.531C1015.97 219.842 978.991 172.318 959.1 182.707C943.188 191.019 943.667 180.304 945.896 173.907C974.933 113.169 922.47 98.0385 902.58 108.428C882.689 118.818 911.903 68.1136 883.381 44.529C854.859 20.9444 847.471 57.2096 826.524 64.6067C805.576 72.0037 837.082 37.3198 795.009 42.0797C752.937 46.8396 775.829 92.6059 753.648 86.9763C731.466 81.3467 718.617 92.6152 726.893 106.521C733.514 117.646 720.499 123.363 713.164 124.83Z" fill="#73628A"/>
<path d="M889.241 234.569C882.72 232.513 884.81 239.147 886.671 242.721C888.066 245.401 894.822 245.292 898.146 241.859C901.469 238.425 897.393 237.14 889.241 234.569Z" fill="#CBC5EA" stroke="#CBC5EA" stroke-width="1.99713"/>
<path d="M890.241 238.519C893.191 233.447 900.391 224.227 905.588 227.918C910.785 231.608 899.87 236.887 893.763 239.065C899.004 236.272 909.527 232.278 909.693 238.65C909.858 245.022 898.527 242.448 892.84 240.364C899.016 240.841 910.815 242.574 908.601 245.693C906.386 248.811 896.556 244.306 891.917 241.663" stroke="#CBC5EA" stroke-width="1.99713"/>
<path d="M752.596 191.568C747.353 182.87 743.163 192.313 741.724 198.121C740.644 202.478 748.277 208.993 755.352 208.435C762.426 207.876 759.149 202.44 752.596 191.568Z" fill="#CBC5EA" stroke="#CBC5EA" stroke-width="1.99713"/>
<path d="M742.623 200.077C736.193 199.092 724.143 195.62 727.386 189.613C730.629 183.606 740.466 193.94 744.979 199.857C737.324 194.232 724.37 182.762 733.796 181.884C743.221 181.005 746.603 191.782 747.116 197.28C743.315 190.504 736.655 176.863 740.425 176.511C745.138 176.072 751.17 189.771 749.253 194.704" stroke="#CBC5EA" stroke-width="1.99713"/>
<path d="M901.721 218.928C911.795 217.644 904.849 209.998 900.116 206.335C896.567 203.588 887.524 207.94 885.178 214.637C882.832 221.335 889.128 220.532 901.721 218.928Z" fill="#CBC5EA" stroke="#CBC5EA" stroke-width="1.99713"/>
<path d="M898.275 209.231C902.25 204.267 911.924 195.566 918.817 200.484C925.71 205.401 907.749 209.923 897.907 211.57C905.411 209.556 920.74 206.537 922.022 210.571C923.304 214.606 906.234 214.477 897.539 213.908C905.455 214.354 921.213 215.715 920.919 217.585C920.551 219.923 901.847 216.981 897.172 216.246" stroke="#CBC5EA" stroke-width="1.99713"/>
<path d="M801.53 176.669C811.476 174.615 803.962 167.525 798.963 164.237C795.213 161.771 786.531 166.805 784.706 173.663C782.882 180.52 789.098 179.237 801.53 176.669Z" fill="#CBC5EA" stroke="#CBC5EA" stroke-width="1.99713"/>
<path d="M790.53 172.439C783.026 167.06 769.97 154.963 777.783 149.617C785.596 144.272 790.838 161.714 792.483 171.103C788.885 163.05 783.909 145.999 792.792 142.216C801.674 138.433 797.589 159.007 794.436 169.767" stroke="#CBC5EA" stroke-width="1.99713"/>
<path d="M764.748 182.29C755.647 186.795 764.71 191.752 770.379 193.667C774.631 195.103 781.756 188.036 781.785 180.94C781.814 173.843 776.125 176.659 764.748 182.29Z" fill="#CBC5EA"/>
<path d="M764.42 186.056C762.086 184.43 756.964 180.222 755.148 176.398C753.332 172.573 763.792 178.152 769.248 181.42C766.979 176.64 763.386 167.098 767.172 167.176C770.958 167.253 774.898 175.224 776.395 179.2" stroke="#CBC5EA" stroke-width="1.99713"/>
<path d="M803.479 180.436C717.438 220.521 762.247 261.982 800.552 278.819C803.658 280.184 806.942 281.106 810.322 281.414C830.87 283.286 851.085 276.738 863.966 270.282C872.453 266.027 877.473 257.432 878.879 248.043C892.337 158.209 823.422 173.4 803.479 180.436Z" fill="#EAEAEA"/>
<path d="M860.285 172.748C860.286 182.904 868.748 176.979 872.979 172.747C876.152 169.573 872.977 160.052 866.63 156.879C860.282 153.707 860.283 160.054 860.285 172.748Z" fill="#CBC5EA"/>
<path d="M865.787 161.892C865.277 155.171 866.143 142.42 873.686 145.181C881.229 147.942 873.658 158.239 868.93 163.043C875.089 157.575 887.576 148.128 888.25 154.077C888.923 160.026 875.548 166.059 868.776 168.332" stroke="#CBC5EA" stroke-width="1.99713"/>
<path d="M887.348 195.431C896.35 200.133 895.017 189.889 893.225 184.179C891.882 179.897 881.974 178.302 876.222 182.459C870.47 186.615 876.096 189.554 887.348 195.431Z" fill="#CBC5EA" stroke="#CBC5EA" stroke-width="1.99713"/>
<path d="M885.206 184.482C888.748 179.441 896.994 170.026 901.636 172.696C906.279 175.365 894.14 181.255 887.491 183.866C893.934 180.493 906.735 175.242 906.386 181.219C906.038 187.196 892.532 187.408 885.822 186.767C893.85 186.235 909.696 186.209 908.854 190.359C908.011 194.508 893.56 191.216 886.44 189.052" stroke="#CBC5EA" stroke-width="1.99713"/>
<path d="M841.532 161.232C838.41 156.369 833.106 146.728 836.861 147.071C840.616 147.413 841.934 154.401 842.124 157.853C842.132 153.275 842.967 144.881 846.248 147.928C849.529 150.974 846.43 155.957 844.471 158.067C845.458 152.434 848.212 143.071 851.329 150.68C854.446 158.29 849.226 161.171 846.226 161.661" stroke="#CBC5EA" stroke-width="1.99713"/>
<path d="M847.158 158.6C843.359 151.394 839.57 158.763 838.151 163.349C837.086 166.788 842.899 172.357 848.59 172.234C854.282 172.112 851.907 167.608 847.158 158.6Z" fill="#CBC5EA" stroke="#CBC5EA" stroke-width="1.99713"/>
<path d="M823.559 169.216C833.611 170.664 828.954 161.443 825.37 156.651C822.681 153.058 812.805 154.841 808.759 160.671C804.712 166.501 810.995 167.406 823.559 169.216Z" fill="#CBC5EA" stroke="#CBC5EA" stroke-width="1.99713"/>
<path d="M813.138 157.259C811.13 155.244 808.045 148.989 811.77 140.083C815.496 131.177 815.47 149.681 814.991 160.046C813.767 150.143 812.895 132.102 819.197 139.166C825.5 146.229 820.566 156.341 817.311 160.514" stroke="#CBC5EA" stroke-width="1.99713"/>
<path d="M1077.27 447.886C1077.27 248.011 1139.55 243.667 1139.55 447.887M1139.55 447.887V786.809M1139.55 447.887C1156.93 384.641 1194.59 312.896 1206.17 531.89M1139.55 447.887V225.535" stroke="#698F40" stroke-width="1.99713"/>
<path d="M1043.35 124.83C975.471 146.107 1043.01 200.116 1085.26 224.462C1092.01 208.617 1116.94 176.926 1162.71 176.919C1208.48 176.911 1208.2 232.657 1202.33 260.531C1346.15 219.842 1309.17 172.318 1289.28 182.707C1273.37 191.019 1273.85 180.304 1276.08 173.907C1305.12 113.169 1252.65 98.0385 1232.76 108.428C1212.87 118.818 1242.09 68.1136 1213.56 44.529C1185.04 20.9444 1177.65 57.2096 1156.71 64.6067C1135.76 72.0037 1167.27 37.3198 1125.19 42.0797C1083.12 46.8396 1106.01 92.6059 1083.83 86.9763C1061.65 81.3467 1048.8 92.6152 1057.08 106.521C1063.7 117.646 1050.68 123.363 1043.35 124.83Z" fill="#73628A"/>
<path d="M1145.25 165.225C1142.2 173.137 1150.57 171.063 1155.14 169.037C1158.56 167.518 1158.95 159.148 1154.96 154.77C1150.97 150.391 1149.06 155.336 1145.25 165.225Z" fill="#CBC5EA" stroke="#CBC5EA" stroke-width="1.99713"/>
<path d="M1150.21 164.296C1144.17 160.253 1133.31 150.631 1138.28 144.485C1143.25 138.338 1148.94 152.254 1151.16 159.98C1148.11 153.279 1143.98 139.947 1151.88 140.234C1159.78 140.522 1155.72 154.346 1152.7 161.223C1153.77 153.616 1156.82 139.149 1160.51 142.13C1164.2 145.112 1157.86 156.929 1154.23 162.465" stroke="#CBC5EA" stroke-width="1.99713"/>
<path d="M1206.09 168.764C1211.08 161.905 1201.27 161.005 1195.75 161.413C1191.6 161.718 1189.51 169.987 1193.13 175.806C1196.74 181.625 1199.86 177.338 1206.09 168.764Z" fill="#CBC5EA" stroke="#CBC5EA" stroke-width="1.99713"/>
<path d="M1194.5 162.72C1192.47 157.014 1190.04 145.866 1196.53 146.926C1203.03 147.986 1198.71 159.183 1195.73 164.649C1197.06 156.611 1200.96 142.464 1205.89 150.179C1210.82 157.895 1203.25 163.763 1198.85 165.733C1202.86 160.629 1211.38 151.191 1213.35 154.277C1215.82 158.135 1206.97 167.058 1201.97 166.818" stroke="#CBC5EA" stroke-width="1.99713"/>
<path d="M1225.25 187.076C1233.81 181.611 1224.26 177.666 1218.42 176.377C1214.04 175.411 1207.72 183.209 1208.46 190.267C1209.2 197.325 1214.55 193.908 1225.25 187.076Z" fill="#CBC5EA" stroke="#CBC5EA" stroke-width="1.99713"/>
<path d="M1217.99 179.787C1219.47 173.599 1224.49 161.599 1232.83 163.099C1241.16 164.6 1226.86 176.363 1218.66 182.058C1224.58 177.03 1237.15 167.75 1240.04 170.85C1242.92 173.95 1227.43 181.128 1219.33 184.329C1226.68 181.35 1241.5 175.846 1242.04 177.663C1242.7 179.933 1224.54 185.266 1219.99 186.6" stroke="#CBC5EA" stroke-width="1.99713"/>
<path d="M1176.18 172.418C1183.3 176.33 1181.28 167.84 1179.37 163.106C1177.94 159.556 1170.47 158.217 1166.65 161.65C1162.82 165.084 1167.28 167.529 1176.18 172.418Z" fill="#CBC5EA" stroke="#CBC5EA" stroke-width="1.99713"/>
<path d="M1170.83 163.928C1168.14 156.538 1164.53 141.929 1171.57 142.611C1178.62 143.294 1175.18 157.221 1172.59 164.099C1173.42 157.05 1176.88 143.514 1183.99 145.759C1191.11 148.004 1180.53 159.035 1174.35 164.27" stroke="#CBC5EA" stroke-width="1.99713"/>
<path d="M1227.41 202.832C1225.29 192.899 1218.25 200.458 1214.99 205.479C1212.55 209.244 1217.64 217.894 1224.51 219.674C1231.38 221.455 1230.06 215.247 1227.41 202.832Z" fill="#CBC5EA"/>
<path d="M1223.84 201.584C1225.99 199.723 1231.33 195.799 1235.49 194.984C1239.64 194.17 1231.65 202.927 1227.14 207.408C1232.33 206.389 1242.46 205.264 1241.45 208.913C1240.44 212.563 1231.75 214.413 1227.52 214.881" stroke="#CBC5EA" stroke-width="1.99713"/>
<path d="M1133.66 180.436C1047.62 220.521 1092.43 261.982 1130.74 278.819C1133.84 280.184 1137.13 281.106 1140.51 281.414C1161.05 283.286 1181.27 276.738 1194.15 270.282C1202.64 266.027 1207.66 257.432 1209.06 248.043C1222.52 158.209 1153.61 173.4 1133.66 180.436Z" fill="#EAEAEA"/>
<path d="M1215.22 234.548C1207.75 241.43 1217.84 243.639 1223.82 243.884C1228.31 244.067 1233.16 235.282 1231.19 228.464C1229.23 221.645 1224.56 225.946 1215.22 234.548Z" fill="#CBC5EA"/>
<path d="M1226.94 231.237C1231.53 226.309 1241.5 218.306 1244.58 225.725C1247.66 233.144 1234.96 234.552 1228.22 234.328C1236.41 235.154 1251.82 237.937 1247.9 242.463C1243.98 246.99 1230.48 241.24 1224.22 237.799" stroke="#CBC5EA" stroke-width="1.99713"/>
<path d="M1089.7 202.094C1092.93 192.465 1083.02 195.395 1077.66 198.063C1073.65 200.065 1073.63 210.101 1078.64 215.126C1083.66 220.151 1085.67 214.132 1089.7 202.094Z" fill="#CBC5EA" stroke="#CBC5EA" stroke-width="1.99713"/>
<path d="M1079.22 205.936C1073.69 203.232 1063.09 196.573 1065 191.568C1066.9 186.563 1074.63 197.622 1078.26 203.777C1073.91 197.945 1066.71 186.132 1072.67 185.534C1078.62 184.936 1080.96 198.24 1081.38 204.967C1079.59 197.123 1077.07 181.479 1081.3 181.657C1085.53 181.835 1084.56 196.625 1083.54 203.997" stroke="#CBC5EA" stroke-width="1.99713"/>
<path d="M1095.8 182.374C1090.41 180.281 1080.45 175.612 1083.69 173.677C1086.92 171.743 1092.1 176.615 1094.29 179.293C1091.6 175.589 1087.33 168.312 1091.78 168.843C1096.22 169.373 1096.65 175.225 1096.31 178.085C1093.79 172.95 1090.51 163.761 1097.51 168.076C1104.51 172.392 1101.98 177.794 1099.85 179.956" stroke="#CBC5EA" stroke-width="1.99713"/>
<path d="M1098.8 176.938C1091.48 173.35 1092.76 181.538 1094.31 186.08C1095.48 189.487 1103.46 190.565 1107.98 187.115C1112.51 183.665 1107.94 181.423 1098.8 176.938Z" fill="#CBC5EA" stroke="#CBC5EA" stroke-width="1.99713"/>
<path d="M1131.44 175.539C1142.65 173.226 1135.26 165.926 1130.16 162.565C1126.34 160.044 1116.16 165.455 1113.3 172.665C1110.44 179.874 1117.44 178.429 1131.44 175.539Z" fill="#CBC5EA" stroke="#CBC5EA" stroke-width="1.99713"/>
<path d="M1117.14 167.699C1114.46 166.472 1109.52 161.493 1111.25 151.39C1112.97 141.287 1117.7 159.414 1119.85 169.741C1115.99 160.498 1110.4 143.158 1119.01 147.735C1127.62 152.313 1124.91 164.044 1122.47 169.337" stroke="#CBC5EA" stroke-width="1.99713"/>
<path d="M1407.45 447.886C1407.45 248.011 1469.73 243.667 1469.73 447.887M1469.73 447.887V786.809M1469.73 447.887C1487.11 384.641 1524.77 312.896 1536.36 531.89M1469.73 447.887V225.535" stroke="#698F40" stroke-width="1.99713"/>
<path d="M1373.53 124.83C1305.65 146.107 1373.19 200.116 1415.45 224.462C1422.19 208.617 1447.12 176.926 1492.89 176.919C1538.66 176.911 1538.38 232.657 1532.52 260.531C1676.33 219.842 1639.36 172.318 1619.47 182.707C1603.55 191.019 1604.03 180.304 1606.26 173.907C1635.3 113.169 1582.84 98.0385 1562.95 108.428C1543.06 118.818 1572.27 68.1136 1543.75 44.529C1515.23 20.9444 1507.84 57.2096 1486.89 64.6067C1465.94 72.0037 1497.45 37.3198 1455.38 42.0797C1413.3 46.8396 1436.2 92.6059 1414.01 86.9763C1391.83 81.3467 1378.98 92.6152 1387.26 106.521C1393.88 117.646 1380.87 123.363 1373.53 124.83Z" fill="#73628A"/>
<path d="M1500.43 166.225C1497.38 174.137 1505.76 172.063 1510.32 170.037C1513.75 168.518 1514.13 160.148 1510.14 155.77C1506.15 151.391 1504.25 156.336 1500.43 166.225Z" fill="#CBC5EA" stroke="#CBC5EA" stroke-width="1.99713"/>
<path d="M1505.4 165.296C1499.35 161.253 1488.49 151.631 1493.46 145.485C1498.43 139.338 1504.12 153.254 1506.34 160.98C1503.29 154.279 1499.16 140.947 1507.06 141.234C1514.96 141.522 1510.9 155.346 1507.88 162.223C1508.95 154.616 1512.01 140.149 1515.69 143.13C1519.38 146.112 1513.05 157.929 1509.42 163.465" stroke="#CBC5EA" stroke-width="1.99713"/>
<path d="M1459.78 163.817C1458.83 155.39 1450.99 161.347 1447.18 165.379C1444.33 168.403 1448.37 175.914 1454.97 177.766C1461.56 179.619 1460.97 174.352 1459.78 163.817Z" fill="#CBC5EA" stroke="#CBC5EA" stroke-width="1.99713"/>
<path d="M1447.15 167.183C1441.8 164.343 1432.48 157.762 1437.98 154.159C1443.49 150.556 1447.86 161.734 1449.36 167.774C1444.91 160.946 1438.24 147.88 1447.08 150.245C1455.93 152.61 1454.31 162.046 1452.39 166.469C1451.91 159.994 1451.82 147.282 1455.36 148.228C1459.78 149.41 1459.28 161.965 1455.42 165.165" stroke="#CBC5EA" stroke-width="1.99713"/>
<path d="M1434.69 177.651C1432.71 170.692 1425.95 178.442 1422.82 183.187C1420.47 186.745 1425.3 191.885 1431.85 191.292C1438.41 190.699 1437.17 186.35 1434.69 177.651Z" fill="#CBC5EA" stroke="#CBC5EA" stroke-width="1.99713"/>
<path d="M1425.72 183.536C1420.69 182.333 1411.67 178.233 1415.83 171.467C1420 164.7 1425.66 176.335 1427.97 182.998C1425.49 178.18 1421.45 167.96 1425.2 165.622C1428.95 163.284 1430.11 175.873 1430.23 182.459C1430.06 176.488 1430.16 164.437 1431.97 164.006C1434.22 163.468 1432.83 178.23 1432.48 181.921" stroke="#CBC5EA" stroke-width="1.99713"/>
<path d="M1545.52 212.167C1543.55 220.05 1551.24 215.936 1555.34 212.893C1558.41 210.611 1557.81 203.04 1553.52 200.213C1549.23 197.387 1547.99 202.313 1545.52 212.167Z" fill="#CBC5EA" stroke="#CBC5EA" stroke-width="1.99713"/>
<path d="M1552.38 204.835C1558.85 200.363 1572.06 193.167 1573.19 200.154C1574.32 207.141 1559.97 207.351 1552.66 206.582C1559.69 205.604 1573.66 205.511 1573.29 212.966C1572.93 220.421 1559.57 212.981 1552.94 208.329" stroke="#CBC5EA" stroke-width="1.99713"/>
<path d="M1522.01 163.226C1512.49 159.682 1515.09 169.681 1517.58 175.123C1519.45 179.204 1529.48 179.552 1534.67 174.711C1539.86 169.871 1533.91 167.656 1522.01 163.226Z" fill="#CBC5EA"/>
<path d="M1519.04 165.567C1518.63 162.753 1518.18 156.14 1519.72 152.197C1521.27 148.254 1524.37 159.695 1525.73 165.909C1527.65 160.98 1532.14 151.826 1534.68 154.637C1537.22 157.448 1534.11 165.779 1532.24 169.594" stroke="#CBC5EA" stroke-width="1.99713"/>
<path d="M1463.85 180.436C1377.81 220.521 1422.61 261.982 1460.92 278.819C1464.03 280.184 1467.31 281.106 1470.69 281.414C1491.24 283.286 1511.45 276.738 1524.33 270.282C1532.82 266.027 1537.84 257.432 1539.25 248.043C1552.7 158.209 1483.79 173.4 1463.85 180.436Z" fill="#EAEAEA"/>
<path d="M1414.84 207.291C1423.98 207.783 1420.42 199.717 1417.5 195.623C1415.31 192.552 1406.07 195.008 1401.89 200.689C1397.7 206.37 1403.41 206.677 1414.84 207.291Z" fill="#CBC5EA"/>
<path d="M1406.22 201.705C1400.06 201.848 1388.76 200.433 1392.83 193.633C1396.9 186.833 1404.58 194.292 1407.91 198.871C1404.28 192.945 1398.4 181.009 1403.9 180.678C1409.39 180.347 1412.02 192.935 1412.64 199.27" stroke="#CBC5EA" stroke-width="1.99713"/>
<path d="M1544.5 193.526C1552.98 199.11 1552.69 188.784 1551.48 182.923C1550.57 178.527 1540.87 175.943 1534.73 179.5C1528.59 183.057 1533.89 186.547 1544.5 193.526Z" fill="#CBC5EA" stroke="#CBC5EA" stroke-width="1.99713"/>
<path d="M1543.47 182.413C1547.5 177.754 1556.65 169.217 1561 172.34C1565.35 175.463 1552.68 180.101 1545.8 182.03C1552.55 179.323 1565.82 175.386 1564.87 181.298C1563.92 187.209 1550.46 186.062 1543.85 184.749C1551.89 185.027 1567.66 186.596 1566.4 190.639C1565.15 194.683 1551.1 189.954 1544.23 187.084" stroke="#CBC5EA" stroke-width="1.99713"/>
<path d="M1476.55 159.679C1471.29 154.766 1461.9 144.734 1466.46 143.905C1471.02 143.075 1474.83 151.187 1476.17 155.347C1474.7 149.743 1472.99 139.195 1477.86 141.831C1482.73 144.468 1480.66 151.595 1479.02 154.829C1478.38 147.608 1478.63 135.235 1484.77 143.51C1490.92 151.785 1485.65 157.046 1482.26 158.642" stroke="#CBC5EA" stroke-width="1.99713"/>
<path d="M1482.38 154.589C1475.55 147.035 1473.43 157.312 1473.23 163.395C1473.07 167.957 1481.75 172.837 1488.46 170.795C1495.17 168.753 1490.9 164.032 1482.38 154.589Z" fill="#CBC5EA" stroke="#CBC5EA" stroke-width="1.99713"/>
<path d="M1545.62 241.796C1545.14 253.223 1554.01 247.83 1558.51 243.706C1561.89 240.612 1559.11 229.422 1552.82 224.896C1546.52 220.371 1546.22 227.512 1545.62 241.796Z" fill="#CBC5EA" stroke="#CBC5EA" stroke-width="1.99713"/>
<path d="M1556.7 229.827C1558.54 227.524 1564.57 223.95 1573.95 228.076C1583.33 232.202 1564.6 232.386 1554.06 231.962C1563.96 230.459 1582.14 229.26 1575.61 236.496C1569.08 243.732 1558.36 238.248 1553.81 234.601" stroke="#CBC5EA" stroke-width="1.99713"/>
</svg>
