<svg width="331" height="788" viewBox="0 0 331 788" fill="none" xmlns="http://www.w3.org/2000/svg">
<path d="M86.8828 448.554C86.8848 248.679 149.165 244.335 149.163 448.555M149.163 448.555V787.476M149.163 448.555C166.544 385.308 204.201 313.564 215.788 532.558M149.163 448.555V226.203" stroke="#698F40" stroke-width="1.99713"/>
<path d="M52.9633 125.498C-14.9139 146.775 52.6234 200.784 94.8768 225.13C101.622 209.285 126.556 177.594 172.326 177.587C218.096 177.579 217.812 233.325 211.949 261.199C355.766 220.51 318.79 172.986 298.899 183.375C282.987 191.687 283.466 180.972 285.695 174.575C314.731 113.837 262.269 98.7064 242.379 109.096C222.488 119.486 251.702 68.7815 223.18 45.197C194.658 21.6124 187.27 57.8776 166.323 65.2747C145.375 72.6717 176.881 37.9878 134.808 42.7477C92.7357 47.5076 115.628 93.2739 93.4464 87.6443C71.2645 82.0146 58.4155 93.2832 66.6916 107.189C73.3125 118.314 60.2981 124.03 52.9633 125.498Z" fill="#73628A"/>
<path d="M143.278 181.104C57.2369 221.189 102.046 262.65 140.35 279.487C143.457 280.852 146.741 281.774 150.121 282.082C170.669 283.954 190.884 277.406 203.764 270.95C212.252 266.695 217.272 258.1 218.678 248.711C232.136 158.877 163.221 174.068 143.278 181.104Z" fill="#EAEAEA"/>
<path d="M85.3675 198.199C75.7915 201.581 84.1954 207.588 89.5944 210.169C93.6435 212.105 101.564 205.942 102.443 198.901C103.322 191.859 97.3374 193.972 85.3675 198.199Z" fill="#CBC5EA"/>
<path d="M84.5896 201.9C82.4673 200.006 77.8866 195.215 76.5424 191.201C75.1981 187.186 84.9133 193.978 89.939 197.876C88.2587 192.859 85.8354 182.955 89.5847 183.486C93.334 184.016 96.2908 192.402 97.3005 196.529" stroke="#CBC5EA" stroke-width="1.99713"/>
<path d="M104.67 180.842C98.0138 178.087 85.7223 171.997 89.8089 169.674C93.8955 167.352 100.22 173.564 102.871 176.961C99.6198 172.271 94.4992 163.087 100.026 163.869C105.552 164.65 105.928 171.955 105.425 175.51C102.425 169.043 98.5779 157.5 107.185 163.069C115.793 168.637 112.501 175.302 109.779 177.938" stroke="#CBC5EA" stroke-width="1.99713"/>
<path d="M108.553 174.145C99.5356 169.475 100.904 179.714 102.716 185.417C104.074 189.695 113.988 191.255 119.725 187.079C125.462 182.902 119.826 179.983 108.553 174.145Z" fill="#CBC5EA"/>
<path d="M137.043 161.061C133.955 151.386 127.694 159.603 124.949 164.92C122.891 168.908 128.809 177.014 135.821 178.107C142.832 179.201 140.902 173.154 137.043 161.061Z" fill="#CBC5EA"/>
<path d="M125.371 167.031C119.343 164.585 108.424 158.419 112.969 153.325C117.514 148.232 124.693 160.561 127.714 167.363C121.568 160.119 111.62 145.963 120.993 147.289C130.367 148.615 131.163 159.882 130.389 165.35C128.259 157.878 124.937 143.066 128.686 143.597C133.373 144.26 136.071 158.983 133.064 163.338" stroke="#CBC5EA" stroke-width="1.99713"/>
<path d="M156.583 169.15C165.106 174.672 164.736 164.349 163.486 158.497C162.548 154.107 152.833 151.594 146.718 155.195C140.603 158.796 145.93 162.247 156.583 169.15Z" fill="#CBC5EA"/>
<path d="M150.463 158.627C144.546 155.4 134.316 147.738 140.736 142.91C147.156 138.081 151.679 150.035 153.138 156.616C151.9 148.473 150.763 132.856 156.122 135.527C161.481 138.197 159.269 152.703 157.493 159.622" stroke="#CBC5EA" stroke-width="1.99713"/>
<path d="M192.174 162.936C200.037 156.508 190.094 153.706 184.139 153.108C179.674 152.66 174.312 161.143 175.872 168.066C177.433 174.988 182.347 170.971 192.174 162.936Z" fill="#CBC5EA"/>
<path d="M181.263 160.6C178.021 155.361 172.606 144.078 176.886 140.859C181.165 137.64 181.808 151.117 181.595 158.257C181.027 151.006 181.231 137.172 186.59 139.843C191.949 142.513 186.834 155.015 183.606 160.932C186.274 153.341 192.48 138.761 195.964 141.167C199.448 143.573 190.739 155.566 185.95 161.262" stroke="#CBC5EA" stroke-width="1.99713"/>
<path d="M208.963 181.483C217.689 186.678 216.928 176.376 215.456 170.575C214.353 166.225 204.548 164.082 198.575 167.913C192.601 171.743 198.055 174.99 208.963 181.483Z" fill="#CBC5EA"/>
<path d="M203.696 170.941C201.788 161.906 200.314 144.169 209.687 145.495C219.06 146.822 211.161 163.232 206.04 171.272C208.817 162.901 216.65 146.959 225.758 150.159C234.866 153.36 217.97 165.789 208.383 171.604" stroke="#CBC5EA" stroke-width="1.99713"/>
<path d="M222.48 191.157C212.474 192.889 219.755 200.217 224.646 203.665C228.314 206.25 237.154 201.499 239.198 194.704C241.243 187.908 234.988 188.991 222.48 191.157Z" fill="#CBC5EA"/>
<path d="M226.49 195.688C226.925 186.985 230.137 169.911 239.511 171.237C248.884 172.564 238.081 186.97 231.509 194.008C236.519 186.749 247.681 174.306 252.244 182.6C256.807 190.894 240.101 195.223 231.177 196.351C239.651 192.769 256.401 187.012 255.605 192.636C254.809 198.26 238.767 199.018 230.845 198.694" stroke="#CBC5EA" stroke-width="1.99713"/>
<path d="M242.154 221.369C252.207 219.93 245.144 212.392 240.355 208.803C236.764 206.111 227.789 210.602 225.547 217.335C223.305 224.068 229.588 223.168 242.154 221.369Z" fill="#CBC5EA"/>
<path d="M238.56 211.729C242.458 206.703 251.996 197.855 258.965 202.665C265.933 207.475 248.044 212.274 238.229 214.073C245.701 211.943 260.981 208.687 262.325 212.702C263.669 216.716 246.6 216.851 237.897 216.416C245.819 216.74 261.596 217.857 261.33 219.732C260.999 222.075 242.252 219.423 237.566 218.76" stroke="#CBC5EA" stroke-width="1.99713"/>
<path d="M223.915 246.26C223.054 256.379 231.989 251.194 236.563 247.336C239.994 244.443 237.639 234.687 231.584 230.987C225.528 227.287 224.99 233.612 223.915 246.26Z" fill="#CBC5EA"/>
<path d="M235.247 235.165C237.141 233.043 243.206 229.598 252.314 232.799C261.422 236 242.948 237.051 232.572 237.177C242.388 235.378 260.347 233.457 253.662 240.16C246.977 246.863 236.596 242.526 232.241 239.52" stroke="#CBC5EA" stroke-width="1.99713"/>
</svg>
