<svg width="331" height="788" viewBox="0 0 331 788" fill="none" xmlns="http://www.w3.org/2000/svg">
<path d="M86.8438 448.526C86.8457 248.364 149.215 244.014 149.213 448.527M149.213 448.527V787.935M149.213 448.527C166.619 385.189 204.331 313.341 215.934 532.651M149.213 448.527V225.855" stroke="#698F40" stroke-width="2"/>
<path d="M52.8731 125.012C-15.1016 146.319 52.5328 200.406 94.8468 224.786C101.602 208.919 126.572 177.182 172.408 177.175C218.243 177.167 217.959 232.993 212.087 260.907C356.111 220.16 319.082 172.567 299.162 182.972C283.227 191.295 283.707 180.565 285.939 174.159C315.017 113.334 262.48 98.1813 242.561 108.586C222.641 118.99 251.897 68.2134 223.334 44.5949C194.771 20.9765 187.373 57.2938 166.395 64.7015C145.418 72.1092 176.969 37.3754 134.836 42.1422C92.7027 46.9089 115.628 92.7409 93.4144 87.1032C71.2007 81.4655 58.3332 92.7503 66.6212 106.676C73.2516 117.817 60.2185 123.542 52.8731 125.012Z" fill="#73628A"/>
<path d="M143.318 180.702C57.154 220.845 102.027 262.365 140.387 279.226C143.498 280.594 146.787 281.517 150.171 281.825C170.749 283.699 190.993 277.142 203.892 270.677C212.392 266.416 217.419 257.809 218.827 248.406C232.304 158.443 163.291 173.656 143.318 180.702Z" fill="#EAEAEA"/>
<path d="M85.3243 197.818C75.7346 201.204 84.1505 207.22 89.5572 209.805C93.6122 211.743 101.544 205.572 102.425 198.52C103.305 191.468 97.3114 193.585 85.3243 197.818Z" fill="#CBC5EA"/>
<path d="M84.5429 201.523C82.4175 199.626 77.8303 194.828 76.4841 190.808C75.1379 186.787 84.8671 193.59 89.9 197.493C88.2173 192.468 85.7905 182.551 89.5452 183.082C93.2999 183.613 96.2609 192.011 97.2721 196.144" stroke="#CBC5EA" stroke-width="2"/>
<path d="M104.654 180.431C97.9874 177.672 85.6782 171.573 89.7707 169.247C93.8632 166.921 100.196 173.143 102.852 176.544C99.5957 171.848 94.4677 162.65 100.002 163.433C105.537 164.216 105.913 171.532 105.409 175.092C102.405 168.615 98.5524 157.055 107.172 162.632C115.792 168.209 112.495 174.883 109.77 177.523" stroke="#CBC5EA" stroke-width="2"/>
<path d="M108.543 173.731C99.5122 169.054 100.883 179.308 102.697 185.019C104.057 189.303 113.985 190.866 119.731 186.683C125.476 182.5 119.832 179.577 108.543 173.731Z" fill="#CBC5EA"/>
<path d="M137.075 160.627C133.982 150.938 127.712 159.167 124.964 164.492C122.902 168.486 128.829 176.603 135.851 177.698C142.872 178.793 140.94 172.738 137.075 160.627Z" fill="#CBC5EA"/>
<path d="M125.386 166.603C119.349 164.153 108.414 157.978 112.966 152.877C117.517 147.776 124.706 160.124 127.732 166.935C121.577 159.681 111.615 145.504 121.002 146.832C130.388 148.16 131.186 159.444 130.411 164.919C128.278 157.436 124.951 142.604 128.706 143.135C133.399 143.799 136.1 158.543 133.09 162.904" stroke="#CBC5EA" stroke-width="2"/>
<path d="M156.641 168.728C165.176 174.258 164.806 163.919 163.554 158.059C162.615 153.664 152.885 151.146 146.761 154.752C140.638 158.358 145.972 161.815 156.641 168.728Z" fill="#CBC5EA"/>
<path d="M150.515 158.187C144.589 154.955 134.344 147.282 140.773 142.447C147.202 137.612 151.732 149.583 153.193 156.173C151.953 148.019 150.815 132.379 156.181 135.054C161.548 137.728 159.333 152.254 157.555 159.183" stroke="#CBC5EA" stroke-width="2"/>
<path d="M192.283 162.504C200.157 156.066 190.2 153.26 184.237 152.662C179.765 152.213 174.395 160.708 175.958 167.641C177.521 174.573 182.442 170.55 192.283 162.504Z" fill="#CBC5EA"/>
<path d="M181.356 160.164C178.109 154.917 172.687 143.618 176.973 140.394C181.259 137.171 181.902 150.666 181.688 157.817C181.12 150.556 181.325 136.702 186.691 139.376C192.057 142.05 186.935 154.57 183.703 160.496C186.374 152.894 192.589 138.293 196.078 140.703C199.567 143.112 190.846 155.123 186.05 160.827" stroke="#CBC5EA" stroke-width="2"/>
<path d="M209.097 181.077C217.836 186.279 217.073 175.962 215.599 170.153C214.494 165.797 204.676 163.651 198.693 167.487C192.711 171.323 198.173 174.574 209.097 181.077Z" fill="#CBC5EA"/>
<path d="M203.823 170.517C201.912 161.47 200.435 143.708 209.822 145.036C219.209 146.364 211.298 162.798 206.17 170.849C208.952 162.466 216.796 146.501 225.917 149.706C235.038 152.912 218.117 165.359 208.516 171.181" stroke="#CBC5EA" stroke-width="2"/>
<path d="M222.633 190.761C212.612 192.496 219.903 199.834 224.802 203.287C228.475 205.876 237.328 201.118 239.375 194.313C241.422 187.507 235.159 188.592 222.633 190.761Z" fill="#CBC5EA"/>
<path d="M226.649 195.299C227.085 186.584 230.302 169.486 239.688 170.814C249.075 172.142 238.257 186.569 231.675 193.617C236.693 186.348 247.871 173.886 252.441 182.192C257.01 190.499 240.279 194.834 231.343 195.963C239.829 192.377 256.603 186.611 255.806 192.243C255.009 197.875 238.944 198.634 231.011 198.31" stroke="#CBC5EA" stroke-width="2"/>
<path d="M242.338 221.022C252.405 219.581 245.331 212.032 240.536 208.438C236.939 205.743 227.952 210.24 225.707 216.983C223.461 223.725 229.754 222.824 242.338 221.022Z" fill="#CBC5EA"/>
<path d="M238.737 211.368C242.641 206.335 252.193 197.474 259.171 202.291C266.149 207.108 248.235 211.914 238.405 213.715C245.888 211.583 261.19 208.322 262.536 212.342C263.883 216.362 246.789 216.497 238.073 216.062C246.006 216.387 261.806 217.505 261.54 219.382C261.208 221.729 242.435 219.073 237.741 218.409" stroke="#CBC5EA" stroke-width="2"/>
<path d="M224.072 245.944C223.21 256.077 232.157 250.884 236.738 247.021C240.174 244.124 237.816 234.354 231.752 230.649C225.687 226.944 225.149 233.277 224.072 245.944Z" fill="#CBC5EA"/>
<path d="M235.417 234.833C237.314 232.708 243.387 229.258 252.508 232.464C261.63 235.669 243.129 236.722 232.739 236.847C242.568 235.047 260.553 233.123 253.859 239.836C247.164 246.548 236.768 242.205 232.407 239.194" stroke="#CBC5EA" stroke-width="2"/>
</svg>
