<svg width="248" height="591" viewBox="0 0 248 591" fill="none" xmlns="http://www.w3.org/2000/svg">
<path d="M65.1914 336.791C65.1929 186.885 111.903 183.626 111.902 336.791M111.902 336.791V590.982M111.902 336.791C124.937 289.356 153.18 235.548 161.871 399.794M111.902 336.791V170.027" stroke="#698F40" stroke-width="1.49785"/>
<path d="M39.7483 94.5007C-11.1595 110.458 39.4935 150.965 71.1834 169.224C76.2426 157.341 94.9429 133.572 129.271 133.567C163.598 133.561 163.385 175.371 158.987 196.276C266.85 165.76 239.118 130.116 224.2 137.908C212.266 144.142 212.625 136.106 214.297 131.309C236.074 85.7549 196.728 74.4068 181.81 82.1989C166.892 89.9911 188.802 51.9631 167.411 34.2747C146.019 16.5862 140.478 43.7852 124.768 49.3329C109.057 54.8807 132.686 28.8678 101.132 32.4377C69.5777 36.0077 86.747 70.3324 70.1106 66.1101C53.4743 61.8879 43.8375 70.3394 50.0446 80.7687C55.0102 89.1121 45.2494 93.3998 39.7483 94.5007Z" fill="#73628A"/>
<path d="M107.484 136.21C42.9536 166.274 76.5603 197.369 105.289 209.997C107.619 211.021 110.082 211.712 112.616 211.943C128.028 213.347 143.189 208.436 152.849 203.594C159.215 200.403 162.98 193.957 164.035 186.915C174.128 119.539 122.442 130.933 107.484 136.21Z" fill="#EAEAEA"/>
<path d="M64.0515 149.025C56.8695 151.562 63.1724 156.067 67.2216 158.003C70.2585 159.455 76.1991 154.833 76.8584 149.551C77.5177 144.27 73.0289 145.855 64.0515 149.025Z" fill="#CBC5EA"/>
<path d="M63.4671 151.8C61.8753 150.38 58.4399 146.786 57.4317 143.775C56.4235 140.764 63.7099 145.859 67.4791 148.782C66.2189 145.019 64.4014 137.592 67.2134 137.989C70.0254 138.387 72.243 144.677 73.0003 147.772" stroke="#CBC5EA" stroke-width="1.49785"/>
<path d="M78.5282 136.003C73.5357 133.937 64.3171 129.37 67.3821 127.628C70.447 125.886 75.1901 130.545 77.1786 133.093C74.7402 129.575 70.8998 122.687 75.0446 123.273C79.1895 123.86 79.4713 129.339 79.0941 132.005C76.8444 127.154 73.9588 118.497 80.4143 122.673C86.8698 126.85 84.401 131.849 82.3597 133.826" stroke="#CBC5EA" stroke-width="1.49785"/>
<path d="M81.4415 130.989C74.678 127.486 75.7044 135.165 77.0631 139.443C78.082 142.651 85.5174 143.821 89.8201 140.689C94.1229 137.556 89.8957 135.367 81.4415 130.989Z" fill="#CBC5EA"/>
<path d="M102.808 121.174C100.492 113.918 95.7964 120.081 93.7379 124.069C92.1941 127.06 96.6326 133.139 101.891 133.959C107.15 134.779 105.703 130.244 102.808 121.174Z" fill="#CBC5EA"/>
<path d="M94.0546 125.649C89.5338 123.815 81.3443 119.19 84.753 115.37C88.1617 111.55 93.546 120.797 95.812 125.898C91.2026 120.465 83.7414 109.848 90.7714 110.843C97.8014 111.837 98.3985 120.287 97.8183 124.388C96.2209 118.784 93.7292 107.676 96.5412 108.073C100.056 108.571 102.079 119.613 99.8244 122.879" stroke="#CBC5EA" stroke-width="1.49785"/>
<path d="M117.463 127.24C123.855 131.382 123.578 123.639 122.64 119.25C121.937 115.959 114.65 114.073 110.064 116.774C105.478 119.475 109.473 122.063 117.463 127.24Z" fill="#CBC5EA"/>
<path d="M112.875 119.346C108.437 116.926 100.765 111.18 105.58 107.558C110.394 103.937 113.787 112.902 114.881 117.838C113.953 111.731 113.1 100.018 117.119 102.021C121.138 104.024 119.479 114.903 118.148 120.092" stroke="#CBC5EA" stroke-width="1.49785"/>
<path d="M144.156 122.58C150.053 117.759 142.596 115.657 138.13 115.209C134.781 114.873 130.759 121.235 131.93 126.427C133.1 131.619 136.785 128.606 144.156 122.58Z" fill="#CBC5EA"/>
<path d="M135.973 120.825C133.541 116.896 129.48 108.434 132.69 106.019C135.9 103.605 136.382 113.712 136.222 119.068C135.796 113.63 135.949 103.254 139.968 105.257C143.988 107.26 140.151 116.636 137.731 121.074C139.731 115.381 144.386 104.446 146.999 106.25C149.612 108.055 143.08 117.05 139.488 121.322" stroke="#CBC5EA" stroke-width="1.49785"/>
<path d="M156.748 136.489C163.292 140.385 162.721 132.659 161.618 128.308C160.79 125.046 153.437 123.439 148.956 126.312C144.476 129.185 148.567 131.62 156.748 136.489Z" fill="#CBC5EA"/>
<path d="M152.799 128.582C151.368 121.807 150.262 108.504 157.292 109.499C164.322 110.493 158.397 122.801 154.557 128.831C156.64 122.553 162.514 110.596 169.346 112.997C176.177 115.397 163.504 124.719 156.314 129.08" stroke="#CBC5EA" stroke-width="1.49785"/>
<path d="M166.886 143.743C159.381 145.043 164.842 150.539 168.51 153.125C171.262 155.064 177.892 151.5 179.425 146.404C180.958 141.307 176.267 142.119 166.886 143.743Z" fill="#CBC5EA"/>
<path d="M169.894 147.142C170.22 140.615 172.629 127.809 179.659 128.804C186.689 129.799 178.587 140.604 173.657 145.882C177.415 140.438 185.787 131.105 189.209 137.326C192.631 143.547 180.101 146.793 173.409 147.639C179.764 144.953 192.326 140.635 191.73 144.853C191.133 149.071 179.101 149.64 173.16 149.397" stroke="#CBC5EA" stroke-width="1.49785"/>
<path d="M181.644 166.405C189.183 165.325 183.885 159.672 180.294 156.98C177.601 154.961 170.869 158.33 169.188 163.379C167.507 168.429 172.219 167.754 181.644 166.405Z" fill="#CBC5EA"/>
<path d="M178.947 159.177C181.871 155.407 189.024 148.771 194.25 152.378C199.476 155.986 186.06 159.586 178.698 160.935C184.302 159.337 195.763 156.895 196.771 159.906C197.779 162.917 184.977 163.018 178.45 162.692C184.391 162.935 196.224 163.773 196.025 165.179C195.776 166.936 181.716 164.947 178.201 164.45" stroke="#CBC5EA" stroke-width="1.49785"/>
<path d="M167.964 185.071C167.318 192.661 174.019 188.771 177.45 185.878C180.024 183.708 178.257 176.392 173.716 173.617C169.174 170.842 168.771 175.585 167.964 185.071Z" fill="#CBC5EA"/>
<path d="M176.461 176.747C177.881 175.155 182.43 172.572 189.261 174.972C196.092 177.373 182.236 178.161 174.455 178.255C181.816 176.907 195.286 175.466 190.272 180.493C185.258 185.521 177.472 182.268 174.206 180.013" stroke="#CBC5EA" stroke-width="1.49785"/>
</svg>
