<svg width="271" height="797" viewBox="0 0 271 797" fill="none" xmlns="http://www.w3.org/2000/svg">
<path d="M162.64 508.804C146.891 481.13 113.252 425.783 104.682 425.783C94.4306 425.783 138.83 501.813 159.94 508.356C132.505 503.875 79.016 497.231 64.5108 503.448C45.7642 511.482 105.44 519.516 162.64 508.804C129.037 521.301 61.8327 548.975 61.8327 559.687C61.8327 570.4 129.037 530.228 162.64 508.804C141.535 532.014 100.933 580.576 107.36 589.146C113.787 597.716 146.891 539.155 162.64 508.804C183.492 534.692 224.66 583.254 222.518 570.4C220.375 557.545 181.706 523.98 162.64 508.804C191.526 523.087 248.763 548.975 246.621 538.263C244.478 527.55 189.741 514.16 162.64 508.804C202.238 505.233 278.757 495.949 268.045 487.379C257.333 478.809 193.311 498.091 162.64 508.804C194.204 485.594 251.441 440.245 227.874 444.53C204.306 448.815 174.565 489.165 162.64 508.804Z" fill="#698F40"/>
<path d="M138.781 223.879C131.588 401.317 171.551 408.511 162.64 508.804M162.64 508.804C162.304 631.343 145.488 735.735 102.23 794.72C101.923 795.138 101.76 795.638 101.76 796.157V796.157M162.64 508.804C146.891 481.13 113.252 425.783 104.682 425.783C93.9696 425.783 142.933 508.804 162.64 508.804ZM162.64 508.804C136.179 504.34 79.508 497.02 64.5108 503.448C45.7642 511.482 105.44 519.516 162.64 508.804ZM162.64 508.804C129.037 521.301 61.8327 548.975 61.8327 559.687C61.8327 570.4 129.037 530.228 162.64 508.804ZM162.64 508.804C141.535 532.014 100.933 580.576 107.36 589.146C113.787 597.716 146.891 539.155 162.64 508.804ZM162.64 508.804C174.565 489.165 204.306 448.815 227.874 444.53C251.441 440.245 194.204 485.594 162.64 508.804ZM162.64 508.804C193.311 498.091 257.333 478.809 268.045 487.379C278.757 495.949 202.238 505.233 162.64 508.804ZM162.64 508.804C189.741 514.16 244.478 527.55 246.621 538.263C248.763 548.975 191.526 523.087 162.64 508.804ZM162.64 508.804C181.706 523.98 220.375 557.545 222.518 570.399C224.66 583.254 183.492 534.692 162.64 508.804Z" stroke="#698F40" stroke-width="2"/>
<path d="M166.838 93.8921C156.652 85.4792 143.589 80.425 129.345 80.425C134.701 37.5757 132.023 -7.95162 177.551 2.7607C201.418 8.37662 197.455 34.2555 186.611 58.9722C177.803 69.6073 170.805 83.5676 166.838 93.8921Z" fill="#EAEAEA"/>
<path d="M113.277 0.0820312C132.559 0.0820312 132.023 53.644 129.345 80.425C120.573 80.425 112.248 82.3422 104.767 85.7805C103.096 76.3047 100.221 64.2796 96.2344 52.9674C85.4092 5.70118 93.1199 0.0820312 113.277 0.0820312Z" fill="#EAEAEA"/>
<path d="M104.767 85.7805C101.142 87.4469 97.7145 89.4706 94.5305 91.8065C87.3123 84.0871 75.987 74.1969 64.1475 67.9745C45.4041 52.2532 35.3165 37.7973 57.0374 21.5067C74.4771 8.42686 87.8277 29.1119 96.2344 52.9674C98.3533 62.2194 101.182 73.067 104.767 85.7805Z" fill="#EAEAEA"/>
<path d="M94.5305 91.8065C79.9157 102.528 70.4277 119.827 70.4277 139.343C70.4277 147.586 72.1204 155.433 75.1773 162.557C67.7036 163.852 58.6327 166.093 49.8613 169.318C28.5833 172.818 5.24721 170.819 0.797729 150.054C-5.62964 120.06 46.3251 117.917 73.1058 120.596C49.8958 115.239 7.76074 98.0997 24.9004 72.3901C34.3408 58.2296 49.6307 60.3451 64.1475 67.9745C73.1357 75.5135 84.1144 83.3436 94.5305 91.8065Z" fill="#EAEAEA"/>
<path d="M75.1773 162.557C77.6713 168.369 81.0732 173.698 85.2046 178.368C77.503 188.543 68.0052 202.883 61.4608 216.551C49.3464 229.253 35.088 234.55 22.2224 217.006C5.06685 193.612 26.3917 177.947 49.8613 169.318C59.3199 167.763 68.3718 165.12 75.1773 162.557Z" fill="#EAEAEA"/>
<path d="M85.2046 178.368C90.075 183.873 95.9591 188.459 102.565 191.836C100.523 203.203 98.4807 218.825 97.9227 233.687C93.0238 247.517 83.867 258.252 67.7497 257.178C48.4978 255.894 51.6825 236.973 61.4608 216.551C71.5373 205.986 80.1304 190.297 85.2046 178.368Z" fill="#EAEAEA"/>
<path d="M102.565 191.836C110.6 195.944 119.702 198.26 129.345 198.26C132.071 198.26 134.753 198.075 137.38 197.717C136.028 205.894 135.239 217.319 136.407 228.595C134.122 252.465 127.804 277.149 113.277 278.602C100.02 279.928 97.017 257.808 97.9227 233.687C102.792 219.941 103.455 203.138 102.565 191.836Z" fill="#EAEAEA"/>
<path d="M137.38 197.717C146.181 196.517 154.364 193.373 161.482 188.732C163.385 196.203 166.91 205.786 172.009 214.271C181.519 241.32 186.468 271.077 164.16 267.89C145.518 265.227 138.324 247.113 136.407 228.595C137.492 217.261 137.667 206.11 137.38 197.717Z" fill="#EAEAEA"/>
<path d="M161.482 188.732C166.536 185.437 171.053 181.387 174.873 176.743C179.718 179.422 185.508 182.227 191.748 184.737C215.419 197.382 239.081 216.661 215.044 230.397C195.705 241.448 181.264 229.67 172.009 214.271C168.732 204.95 164.914 195.951 161.482 188.732Z" fill="#EAEAEA"/>
<path d="M174.873 176.743C178.786 171.984 181.968 166.602 184.247 160.767C196.499 156.738 212.526 150.287 226.503 142.436C245.022 138.252 260.304 142.012 257.893 166.123C254.41 200.952 218.843 195.634 191.748 184.737C185.881 181.603 180.014 178.876 174.873 176.743Z" fill="#EAEAEA"/>
<path d="M187.556 130.187C185.287 115.642 177.696 102.859 166.838 93.8921C173.3 84.6522 180.907 71.973 186.611 58.9722C197.626 45.6725 211.471 37.573 225.757 48.2874C238.867 58.12 234.77 74.2115 224.496 90.1764C209.132 96.906 194.917 116.545 187.556 130.187Z" fill="#EAEAEA"/>
<path d="M187.556 130.187C199.046 120.746 214.623 105.519 224.496 90.1764C209.132 96.906 194.917 116.545 187.556 130.187Z" fill="#EAEAEA"/>
<path d="M184.247 160.767C186.84 154.127 188.263 146.901 188.263 139.343C188.263 136.229 188.021 133.171 187.556 130.187C199.046 120.746 214.623 105.519 224.496 90.1764C233.846 86.0812 243.622 86.7665 252.537 96.4928C267.242 112.535 249.695 129.41 226.503 142.436C212.11 145.689 195.763 153.74 184.247 160.767Z" fill="#EAEAEA"/>
<path d="M184.247 160.767C196.499 156.738 212.526 150.287 226.503 142.436C212.11 145.689 195.763 153.74 184.247 160.767Z" fill="#EAEAEA"/>
<path d="M174.873 176.743C179.718 179.422 185.508 182.227 191.748 184.737C185.881 181.603 180.014 178.876 174.873 176.743Z" fill="#EAEAEA"/>
<path d="M161.482 188.732C163.385 196.203 166.91 205.786 172.009 214.271C168.732 204.95 164.914 195.951 161.482 188.732Z" fill="#EAEAEA"/>
<path d="M137.38 197.717C136.028 205.894 135.239 217.319 136.407 228.595C137.492 217.261 137.667 206.11 137.38 197.717Z" fill="#EAEAEA"/>
<path d="M102.565 191.836C100.523 203.203 98.4807 218.825 97.9227 233.687C102.792 219.941 103.455 203.138 102.565 191.836Z" fill="#EAEAEA"/>
<path d="M85.2046 178.368C77.503 188.543 68.0052 202.883 61.4608 216.551C71.5373 205.986 80.1304 190.297 85.2046 178.368Z" fill="#EAEAEA"/>
<path d="M75.1773 162.557C67.7036 163.852 58.6327 166.093 49.8613 169.318C59.3199 167.763 68.3718 165.12 75.1773 162.557Z" fill="#EAEAEA"/>
<path d="M94.5305 91.8065C87.3123 84.0871 75.987 74.1969 64.1475 67.9745C73.1357 75.5135 84.1144 83.3436 94.5305 91.8065Z" fill="#EAEAEA"/>
<path d="M104.767 85.7805C103.096 76.3047 100.221 64.2796 96.2344 52.9674C98.3533 62.2194 101.182 73.067 104.767 85.7805Z" fill="#EAEAEA"/>
<path d="M186.611 58.9722C177.803 69.6073 170.805 83.5676 166.838 93.8921C173.3 84.6522 180.907 71.973 186.611 58.9722Z" fill="#EAEAEA"/>
<path d="M145.414 112.565L161.482 91.1406" stroke="#73628A" stroke-width="2"/>
<path d="M151.961 117.432L172.193 99.8867" stroke="#73628A" stroke-width="2"/>
<path d="M155.081 121.957L177.551 107.387" stroke="#73628A" stroke-width="2"/>
<path d="M140.057 109.888L150.77 85.7852" stroke="#73628A" stroke-width="2"/>
<path d="M134.7 107.207L140.057 80.4258" stroke="#73628A" stroke-width="2"/>
<path d="M129.346 107.207V80.4258" stroke="#73628A" stroke-width="2"/>
<path d="M124.557 107.86L118.668 81.7344" stroke="#73628A" stroke-width="2"/>
<path d="M119.044 110.201L107.922 83.0977" stroke="#73628A" stroke-width="2"/>
<path d="M113.534 112.542L96.6211 91.0977" stroke="#73628A" stroke-width="2"/>
<path d="M107.362 120.13L84.625 105" stroke="#73628A" stroke-width="2"/>
<path d="M110.06 116.621L89.6738 99.2539" stroke="#73628A" stroke-width="2"/>
<path d="M103.469 123.387L78.3633 111.09" stroke="#73628A" stroke-width="2"/>
<path d="M101.479 129.125L75.7832 120.598" stroke="#73628A" stroke-width="2"/>
<path d="M99.4926 134.858L70.4121 134.035" stroke="#73628A" stroke-width="2"/>
<path d="M100.33 140.15L72.0859 144.617" stroke="#73628A" stroke-width="2"/>
<path d="M100.061 148.48L74.998 156.465" stroke="#73628A" stroke-width="2"/>
<path d="M102.987 153.675L80.8477 166.848" stroke="#73628A" stroke-width="2"/>
<path d="M105.909 158.861L86.6934 177.223" stroke="#73628A" stroke-width="2"/>
<path d="M110.317 161.908L95.5059 183.316" stroke="#73628A" stroke-width="2"/>
<path d="M116.634 164.817L106.676 190.336" stroke="#73628A" stroke-width="2"/>
<path d="M122.516 166.147L118.439 193" stroke="#73628A" stroke-width="2"/>
<path d="M128.401 167.477L130.207 195.664" stroke="#73628A" stroke-width="2"/>
<path d="M133.583 166.128L140.572 192.965" stroke="#73628A" stroke-width="2"/>
<path d="M140.604 164.404L153.184 188.738" stroke="#73628A" stroke-width="2"/>
<path d="M145.492 160.865L162.959 181.664" stroke="#73628A" stroke-width="2"/>
<path d="M150.378 157.334L172.732 174.598" stroke="#73628A" stroke-width="2"/>
<path d="M152.788 150.964L177.553 163.445" stroke="#73628A" stroke-width="2"/>
<path d="M156.763 145.139L183.314 151.879" stroke="#73628A" stroke-width="2"/>
<path d="M157.361 139.137L184.512 139.875" stroke="#73628A" stroke-width="2"/>
<path d="M157.959 133.131L185.709 127.867" stroke="#73628A" stroke-width="2"/>
<path d="M155.979 128.156L181.75 117.914" stroke="#73628A" stroke-width="2"/>
<ellipse cx="5.35616" cy="9.52198" rx="5.35616" ry="9.52198" transform="matrix(-0.930677 -0.365843 -0.365843 0.930677 161.873 70.2695)" fill="#73628A"/>
<ellipse cx="4.05187" cy="8.11192" rx="4.05187" ry="8.11192" transform="matrix(-0.971119 -0.238596 -0.238596 0.971119 147.865 66.4414)" fill="#73628A"/>
<ellipse cx="4.98103" cy="8.65212" rx="4.98103" ry="8.65212" transform="matrix(-0.999362 -0.0357271 -0.0357271 0.999362 134.559 63.5)" fill="#73628A"/>
<ellipse cx="4.98103" cy="9.35194" rx="4.98103" ry="9.35194" transform="matrix(-0.952295 0.305178 0.305178 0.952295 118.281 62.8477)" fill="#73628A"/>
<ellipse cx="4.98103" cy="10.4432" rx="4.98103" ry="10.4432" transform="matrix(-0.883135 0.469119 0.469119 0.883135 103.48 64.3555)" fill="#73628A"/>
<ellipse cx="5.56765" cy="10.4432" rx="5.56765" ry="10.4432" transform="matrix(-0.750183 0.661231 0.661231 0.750183 89.6348 74.293)" fill="#73628A"/>
<ellipse cx="4.28824" cy="10.4432" rx="4.28824" ry="10.4432" transform="matrix(-0.612357 0.790581 0.790581 0.612357 80.6973 85.7812)" fill="#73628A"/>
<ellipse cx="3.43489" cy="10.4432" rx="3.43489" ry="10.4432" transform="matrix(-0.498246 0.867036 0.867036 0.498246 73.5195 95.0742)" fill="#73628A"/>
<ellipse cx="3.43489" cy="10.4432" rx="3.43489" ry="10.4432" transform="matrix(-0.346914 0.937897 0.937897 0.346914 67.127 103.184)" fill="#73628A"/>
<ellipse cx="4.70705" cy="10.4432" rx="4.70705" ry="10.4432" transform="matrix(-0.173385 0.984854 0.984854 0.173385 60.4492 113.242)" fill="#73628A"/>
<ellipse cx="4.5161" cy="10.4432" rx="4.5161" ry="10.4432" transform="matrix(-0.00713438 0.999975 0.999975 0.00713438 60.252 128.629)" fill="#73628A"/>
<ellipse cx="4.02791" cy="10.4432" rx="4.02791" ry="10.4432" transform="matrix(0.0454504 0.998967 0.998967 -0.0454504 59.9102 140.289)" fill="#73628A"/>
<ellipse cx="4.17804" cy="10.4432" rx="4.17804" ry="10.4432" transform="matrix(0.163523 0.98654 0.98654 -0.163523 59.4531 153.469)" fill="#73628A"/>
<ellipse cx="4.17804" cy="10.4432" rx="4.17804" ry="10.4432" transform="matrix(0.367434 0.93005 0.93005 -0.367434 64 168.441)" fill="#73628A"/>
<ellipse cx="4.17804" cy="10.4432" rx="4.17804" ry="10.4432" transform="matrix(0.566407 0.824126 0.824126 -0.566407 69.9082 183.309)" fill="#73628A"/>
<ellipse cx="4.17804" cy="10.4432" rx="4.17804" ry="10.4432" transform="matrix(0.759629 0.650357 0.650357 -0.759629 82.6348 192.703)" fill="#73628A"/>
<ellipse cx="4.17804" cy="10.4432" rx="4.17804" ry="10.4432" transform="matrix(0.948983 0.315327 0.315327 -0.948983 98.7637 202.012)" fill="#73628A"/>
<ellipse cx="4.17804" cy="10.4432" rx="4.17804" ry="10.4432" transform="matrix(0.984839 0.173474 0.173474 -0.984839 110.807 208.336)" fill="#73628A"/>
<ellipse cx="4.17804" cy="10.4432" rx="4.17804" ry="10.4432" transform="matrix(0.999792 -0.0203926 -0.0203926 -0.999792 126.348 208.602)" fill="#73628A"/>
<ellipse cx="4.17804" cy="10.4432" rx="4.17804" ry="10.4432" transform="matrix(0.984021 -0.178054 -0.178054 -0.984021 138.771 209.094)" fill="#73628A"/>
<ellipse cx="4.41692" cy="10.4432" rx="4.41692" ry="10.4432" transform="matrix(0.913168 -0.407584 -0.407584 -0.913168 155.037 204.141)" fill="#73628A"/>
<ellipse cx="4.41692" cy="10.4432" rx="4.41692" ry="10.4432" transform="matrix(0.773909 -0.633297 -0.633297 -0.773909 167.1 193.691)" fill="#73628A"/>
<ellipse cx="4.295" cy="10.4432" rx="4.295" ry="10.4432" transform="matrix(0.622492 -0.782626 -0.782626 -0.622492 178.428 184.762)" fill="#73628A"/>
<ellipse cx="4.97207" cy="10.4432" rx="4.97207" ry="10.4432" transform="matrix(0.46111 -0.887343 -0.887343 -0.46111 184.191 172.883)" fill="#73628A"/>
<ellipse cx="4.41692" cy="10.4432" rx="4.41692" ry="10.4432" transform="matrix(0.241887 -0.970305 -0.970305 -0.241887 191.381 159.004)" fill="#73628A"/>
<ellipse cx="3.70368" cy="10.4432" rx="3.70368" ry="10.4432" transform="matrix(0.0320126 -0.999487 -0.999487 -0.0320126 198.695 143.488)" fill="#73628A"/>
<ellipse cx="3.70368" cy="10.4432" rx="3.70368" ry="10.4432" transform="matrix(-0.103252 -0.994655 -0.994655 0.103252 204.547 129.918)" fill="#73628A"/>
<ellipse cx="3.70368" cy="10.4432" rx="3.70368" ry="10.4432" transform="matrix(-0.217321 -0.9761 -0.9761 0.217321 199.205 118.668)" fill="#73628A"/>
<ellipse cx="3.70368" cy="10.4432" rx="3.70368" ry="10.4432" transform="matrix(-0.4387 -0.898634 -0.898634 0.4387 193.617 103.148)" fill="#73628A"/>
<ellipse cx="4.95939" cy="10.4432" rx="4.95939" ry="10.4432" transform="matrix(-0.680503 -0.732746 -0.732746 0.680503 188.264 91.2109)" fill="#73628A"/>
<ellipse cx="4.96321" cy="9.32302" rx="4.96321" ry="9.32302" transform="matrix(-0.742542 -0.669799 -0.669799 0.742542 176.568 82.1328)" fill="#73628A"/>
<circle cx="32.1369" cy="32.1369" r="32.1369" transform="matrix(-1 0 0 1 161.482 107.207)" fill="#CBC5EA"/>
</svg>
