<svg width="203" height="598" viewBox="0 0 203 598" fill="none" xmlns="http://www.w3.org/2000/svg">
<path d="M122.049 381.875C110.255 361.15 85.0616 319.699 78.6434 319.699C70.9659 319.699 104.218 376.639 120.028 381.54C99.481 378.184 59.4216 373.208 48.5583 377.864C34.5185 383.881 79.2114 389.898 122.049 381.875C96.8838 391.235 46.5526 411.96 46.5526 419.983C46.5526 428.006 96.8838 397.921 122.049 381.875C106.244 399.258 75.8355 435.627 80.6491 442.046C85.4627 448.464 110.255 404.606 122.049 381.875C137.666 401.264 168.498 437.633 166.894 428.006C165.289 418.379 136.329 393.241 122.049 381.875C143.683 392.572 186.549 411.96 184.945 403.938C183.34 395.915 142.346 385.887 122.049 381.875C151.706 379.201 209.013 372.248 200.99 365.83C192.967 359.412 145.02 373.853 122.049 381.875C145.689 364.493 188.554 330.53 170.905 333.739C153.255 336.948 130.98 367.167 122.049 381.875Z" fill="#698F40"/>
<path d="M104.181 168.488C98.7939 301.376 128.724 306.763 122.049 381.875M122.049 381.875C121.798 473.648 109.204 551.829 76.8071 596.005C76.5772 596.318 76.4548 596.692 76.4548 597.081V597.081M122.049 381.875C110.255 361.15 85.0616 319.699 78.6434 319.699C70.6207 319.699 107.291 381.875 122.049 381.875ZM122.049 381.875C102.232 378.533 59.7901 373.05 48.5583 377.864C34.5185 383.881 79.2114 389.898 122.049 381.875ZM122.049 381.875C96.8838 391.235 46.5526 411.96 46.5526 419.983C46.5526 428.006 96.8838 397.921 122.049 381.875ZM122.049 381.875C106.244 399.258 75.8355 435.627 80.6491 442.046C85.4627 448.464 110.255 404.606 122.049 381.875ZM122.049 381.875C130.98 367.167 153.255 336.948 170.905 333.739C188.554 330.53 145.689 364.493 122.049 381.875ZM122.049 381.875C145.02 373.853 192.967 359.412 200.99 365.83C209.013 372.248 151.706 379.201 122.049 381.875ZM122.049 381.875C142.346 385.887 183.34 395.915 184.945 403.938C186.549 411.96 143.683 392.572 122.049 381.875ZM122.049 381.875C136.329 393.241 165.289 418.379 166.894 428.006C168.498 437.633 137.666 401.264 122.049 381.875Z" stroke="#698F40" stroke-width="1.49785"/>
<path d="M125.195 71.1394C117.566 64.8388 107.783 61.0535 97.1154 61.0535C101.127 28.9627 99.1211 -5.13378 133.218 2.88893C151.093 7.09482 148.124 26.4761 140.003 44.987C133.407 52.9519 128.166 63.4071 125.195 71.1394Z" fill="#EAEAEA"/>
<path d="M85.0814 0.882812C99.5223 0.882812 99.1211 40.9966 97.1154 61.0535C90.5455 61.0535 84.3109 62.4894 78.7084 65.0645C77.4562 57.9678 75.3033 48.9619 72.3178 40.49C64.2105 5.09113 69.9852 0.882812 85.0814 0.882812Z" fill="#EAEAEA"/>
<path d="M78.7084 65.0645C75.9931 66.3125 73.4263 67.8281 71.0417 69.5775C65.6358 63.7962 57.1541 56.3892 48.2871 51.7291C34.2498 39.955 26.6949 29.1287 42.9622 16.9282C56.0232 7.13245 66.0218 22.624 72.3178 40.49C73.9047 47.419 76.0235 55.543 78.7084 65.0645Z" fill="#EAEAEA"/>
<path d="M71.0417 69.5775C60.0963 77.6073 52.9905 90.563 52.9905 105.178C52.9905 111.352 54.2583 117.229 56.5476 122.564C50.9504 123.534 44.157 125.213 37.5879 127.628C21.6522 130.249 4.17531 128.752 0.842988 113.201C-3.97064 90.7371 34.9395 89.1326 54.9963 91.1383C37.6137 87.1269 6.05775 74.2906 18.8941 55.0361C25.9642 44.4309 37.4152 46.0153 48.2871 51.7291C55.0186 57.3753 63.2408 63.2394 71.0417 69.5775Z" fill="#EAEAEA"/>
<path d="M56.5476 122.564C58.4154 126.917 60.9632 130.908 64.0573 134.405C58.2894 142.025 51.1762 152.765 46.275 163.002C37.2023 172.515 26.5238 176.482 16.8884 163.343C4.04023 145.822 20.0109 134.09 37.5879 127.628C44.6716 126.463 51.4508 124.484 56.5476 122.564Z" fill="#EAEAEA"/>
<path d="M64.0573 134.405C67.7048 138.528 72.1116 141.963 77.0587 144.492C75.5294 153.005 74.0001 164.705 73.5822 175.835C69.9133 186.193 63.0555 194.232 50.9849 193.428C36.5667 192.467 38.9518 178.296 46.275 163.002C53.8216 155.089 60.2571 143.339 64.0573 134.405Z" fill="#EAEAEA"/>
<path d="M77.0587 144.492C83.0763 147.568 89.8932 149.303 97.1154 149.303C99.1564 149.303 101.165 149.165 103.132 148.896C102.12 155.02 101.53 163.577 102.404 172.022C100.693 189.899 95.9609 208.385 85.0814 209.473C75.1532 210.466 72.9039 193.9 73.5822 175.835C77.2289 165.541 77.7252 152.956 77.0587 144.492Z" fill="#EAEAEA"/>
<path d="M103.132 148.896C109.724 147.998 115.853 145.643 121.184 142.167C122.609 147.762 125.249 154.94 129.067 161.294C136.19 181.552 139.896 203.837 123.189 201.45C109.227 199.456 103.84 185.89 102.404 172.022C103.216 163.533 103.348 155.182 103.132 148.896Z" fill="#EAEAEA"/>
<path d="M121.184 142.167C124.968 139.7 128.351 136.667 131.212 133.188C134.841 135.195 139.177 137.296 143.85 139.175C161.578 148.645 179.299 163.084 161.297 173.371C146.814 181.647 135.999 172.827 129.067 161.294C126.613 154.314 123.754 147.574 121.184 142.167Z" fill="#EAEAEA"/>
<path d="M131.212 133.188C134.143 129.624 136.526 125.593 138.232 121.223C147.409 118.207 159.412 113.375 169.879 107.495C183.748 104.361 195.194 107.178 193.388 125.235C190.78 151.319 164.142 147.337 143.85 139.175C139.456 136.828 135.063 134.786 131.212 133.188Z" fill="#EAEAEA"/>
<path d="M140.711 98.3217C139.011 87.4284 133.327 77.8551 125.195 71.1394C130.034 64.2194 135.731 54.7236 140.003 44.987C148.252 35.0266 158.621 28.9607 169.32 36.985C179.138 44.3488 176.07 56.4001 168.376 68.3566C156.87 73.3966 146.224 88.1048 140.711 98.3217Z" fill="#EAEAEA"/>
<path d="M140.711 98.3217C149.316 91.2507 160.982 79.8474 168.376 68.3566C156.87 73.3966 146.224 88.1048 140.711 98.3217Z" fill="#EAEAEA"/>
<path d="M138.232 121.223C140.174 116.251 141.24 110.839 141.24 105.178C141.24 102.846 141.059 100.556 140.711 98.3217C149.316 91.2507 160.982 79.8474 168.376 68.3566C175.378 65.2896 182.7 65.8029 189.377 73.0872C200.39 85.1012 187.248 97.74 169.879 107.495C159.1 109.931 146.857 115.961 138.232 121.223Z" fill="#EAEAEA"/>
<path d="M138.232 121.223C147.409 118.207 159.412 113.375 169.879 107.495C159.1 109.931 146.857 115.961 138.232 121.223Z" fill="#EAEAEA"/>
<path d="M131.212 133.188C134.841 135.195 139.177 137.296 143.85 139.175C139.456 136.828 135.063 134.786 131.212 133.188Z" fill="#EAEAEA"/>
<path d="M121.184 142.167C122.609 147.762 125.249 154.94 129.067 161.294C126.613 154.314 123.754 147.574 121.184 142.167Z" fill="#EAEAEA"/>
<path d="M103.132 148.896C102.12 155.02 101.53 163.577 102.404 172.022C103.216 163.533 103.348 155.182 103.132 148.896Z" fill="#EAEAEA"/>
<path d="M77.0587 144.492C75.5294 153.005 74.0001 164.705 73.5822 175.835C77.2289 165.541 77.7252 152.956 77.0587 144.492Z" fill="#EAEAEA"/>
<path d="M64.0573 134.405C58.2894 142.025 51.1762 152.765 46.275 163.002C53.8216 155.089 60.2571 143.339 64.0573 134.405Z" fill="#EAEAEA"/>
<path d="M56.5476 122.564C50.9504 123.534 44.157 125.213 37.5879 127.628C44.6716 126.463 51.4508 124.484 56.5476 122.564Z" fill="#EAEAEA"/>
<path d="M71.0417 69.5775C65.6358 63.7962 57.1541 56.3892 48.2871 51.7291C55.0186 57.3753 63.2408 63.2394 71.0417 69.5775Z" fill="#EAEAEA"/>
<path d="M78.7084 65.0645C77.4562 57.9678 75.3033 48.9619 72.3178 40.49C73.9047 47.419 76.0235 55.543 78.7084 65.0645Z" fill="#EAEAEA"/>
<path d="M140.003 44.987C133.407 52.9519 128.166 63.4071 125.195 71.1394C130.034 64.2194 135.731 54.7236 140.003 44.987Z" fill="#EAEAEA"/>
<path d="M109.15 85.1235L121.184 69.0781" stroke="#73628A" stroke-width="1.49785"/>
<path d="M114.052 88.7694L129.205 75.6289" stroke="#73628A" stroke-width="1.49785"/>
<path d="M116.388 92.1583L133.217 81.2461" stroke="#73628A" stroke-width="1.49785"/>
<path d="M105.137 83.1214L113.16 65.0703" stroke="#73628A" stroke-width="1.49785"/>
<path d="M101.125 81.1115L105.137 61.0547" stroke="#73628A" stroke-width="1.49785"/>
<path d="M97.1152 81.1115V61.0547" stroke="#73628A" stroke-width="1.49785"/>
<path d="M93.5276 81.5971L89.1172 62.0312" stroke="#73628A" stroke-width="1.49785"/>
<path d="M89.4 83.3531L81.0703 63.0547" stroke="#73628A" stroke-width="1.49785"/>
<path d="M85.274 85.1029L72.6074 69.043" stroke="#73628A" stroke-width="1.49785"/>
<path d="M80.6515 90.7882L63.623 79.457" stroke="#73628A" stroke-width="1.49785"/>
<path d="M82.6721 88.1588L67.4043 75.1523" stroke="#73628A" stroke-width="1.49785"/>
<path d="M77.7355 93.2294L58.9336 84.0195" stroke="#73628A" stroke-width="1.49785"/>
<path d="M76.2463 97.5267L57.002 91.1406" stroke="#73628A" stroke-width="1.49785"/>
<path d="M74.7576 101.824L52.9785 101.207" stroke="#73628A" stroke-width="1.49785"/>
<path d="M75.3849 105.783L54.2324 109.129" stroke="#73628A" stroke-width="1.49785"/>
<path d="M75.1845 112.024L56.4141 118.004" stroke="#73628A" stroke-width="1.49785"/>
<path d="M77.3758 115.912L60.7949 125.777" stroke="#73628A" stroke-width="1.49785"/>
<path d="M79.5631 119.796L65.1719 133.547" stroke="#73628A" stroke-width="1.49785"/>
<path d="M82.8639 122.08L71.7715 138.113" stroke="#73628A" stroke-width="1.49785"/>
<path d="M87.5968 124.255L80.1387 143.367" stroke="#73628A" stroke-width="1.49785"/>
<path d="M92 125.253L88.9473 145.363" stroke="#73628A" stroke-width="1.49785"/>
<path d="M96.4092 126.25L97.7617 147.359" stroke="#73628A" stroke-width="1.49785"/>
<path d="M100.289 125.237L105.523 145.336" stroke="#73628A" stroke-width="1.49785"/>
<path d="M105.547 123.948L114.969 142.172" stroke="#73628A" stroke-width="1.49785"/>
<path d="M109.208 121.298L122.289 136.875" stroke="#73628A" stroke-width="1.49785"/>
<path d="M112.868 118.653L129.609 131.582" stroke="#73628A" stroke-width="1.49785"/>
<path d="M114.672 113.883L133.219 123.23" stroke="#73628A" stroke-width="1.49785"/>
<path d="M117.648 109.519L137.533 114.566" stroke="#73628A" stroke-width="1.49785"/>
<path d="M118.096 105.026L138.43 105.578" stroke="#73628A" stroke-width="1.49785"/>
<path d="M118.544 100.528L139.326 96.5859" stroke="#73628A" stroke-width="1.49785"/>
<path d="M117.06 96.8029L136.361 89.1328" stroke="#73628A" stroke-width="1.49785"/>
<ellipse cx="4.01135" cy="7.13124" rx="4.01135" ry="7.13124" transform="matrix(-0.930677 -0.365843 -0.365843 0.930677 121.475 53.4492)" fill="#73628A"/>
<ellipse cx="3.03454" cy="6.07521" rx="3.03454" ry="6.07521" transform="matrix(-0.971119 -0.238596 -0.238596 0.971119 110.984 50.582)" fill="#73628A"/>
<ellipse cx="3.73041" cy="6.47978" rx="3.73041" ry="6.47978" transform="matrix(-0.999362 -0.0357271 -0.0357271 0.999362 101.02 48.3789)" fill="#73628A"/>
<ellipse cx="3.73041" cy="7.00389" rx="3.73041" ry="7.00389" transform="matrix(-0.952295 0.305178 0.305178 0.952295 88.8281 47.8906)" fill="#73628A"/>
<ellipse cx="3.73041" cy="7.82118" rx="3.73041" ry="7.82118" transform="matrix(-0.883135 0.469119 0.469119 0.883135 77.7441 49.0195)" fill="#73628A"/>
<ellipse cx="4.16975" cy="7.82118" rx="4.16975" ry="7.82118" transform="matrix(-0.750183 0.661231 0.661231 0.750183 67.375 56.4609)" fill="#73628A"/>
<ellipse cx="3.21157" cy="7.82118" rx="3.21157" ry="7.82118" transform="matrix(-0.612357 0.790581 0.790581 0.612357 60.6816 65.0664)" fill="#73628A"/>
<ellipse cx="2.57247" cy="7.82118" rx="2.57247" ry="7.82118" transform="matrix(-0.498246 0.867036 0.867036 0.498246 55.3047 72.0234)" fill="#73628A"/>
<ellipse cx="2.57247" cy="7.82118" rx="2.57247" ry="7.82118" transform="matrix(-0.346914 0.937897 0.937897 0.346914 50.5176 78.0977)" fill="#73628A"/>
<ellipse cx="3.52522" cy="7.82118" rx="3.52522" ry="7.82118" transform="matrix(-0.173385 0.984854 0.984854 0.173385 45.5156 85.6328)" fill="#73628A"/>
<ellipse cx="3.38222" cy="7.82118" rx="3.38222" ry="7.82118" transform="matrix(-0.00713438 0.999975 0.999975 0.00713438 45.3691 97.1562)" fill="#73628A"/>
<ellipse cx="3.01659" cy="7.82118" rx="3.01659" ry="7.82118" transform="matrix(0.0454504 0.998967 0.998967 -0.0454504 45.1133 105.887)" fill="#73628A"/>
<ellipse cx="3.12903" cy="7.82118" rx="3.12903" ry="7.82118" transform="matrix(0.163523 0.98654 0.98654 -0.163523 44.7695 115.758)" fill="#73628A"/>
<ellipse cx="3.12903" cy="7.82118" rx="3.12903" ry="7.82118" transform="matrix(0.367434 0.93005 0.93005 -0.367434 48.1758 126.973)" fill="#73628A"/>
<ellipse cx="3.12903" cy="7.82118" rx="3.12903" ry="7.82118" transform="matrix(0.566407 0.824126 0.824126 -0.566407 52.5996 138.105)" fill="#73628A"/>
<ellipse cx="3.12903" cy="7.82118" rx="3.12903" ry="7.82118" transform="matrix(0.759629 0.650357 0.650357 -0.759629 62.1309 145.141)" fill="#73628A"/>
<ellipse cx="3.12903" cy="7.82118" rx="3.12903" ry="7.82118" transform="matrix(0.948983 0.315327 0.315327 -0.948983 74.2109 152.113)" fill="#73628A"/>
<ellipse cx="3.12903" cy="7.82118" rx="3.12903" ry="7.82118" transform="matrix(0.984839 0.173474 0.173474 -0.984839 83.2305 156.848)" fill="#73628A"/>
<ellipse cx="3.12903" cy="7.82118" rx="3.12903" ry="7.82118" transform="matrix(0.999792 -0.0203926 -0.0203926 -0.999792 94.8691 157.047)" fill="#73628A"/>
<ellipse cx="3.12903" cy="7.82118" rx="3.12903" ry="7.82118" transform="matrix(0.984021 -0.178054 -0.178054 -0.984021 104.174 157.418)" fill="#73628A"/>
<ellipse cx="3.30793" cy="7.82118" rx="3.30793" ry="7.82118" transform="matrix(0.913168 -0.407584 -0.407584 -0.913168 116.355 153.707)" fill="#73628A"/>
<ellipse cx="3.30793" cy="7.82118" rx="3.30793" ry="7.82118" transform="matrix(0.773909 -0.633297 -0.633297 -0.773909 125.389 145.883)" fill="#73628A"/>
<ellipse cx="3.21663" cy="7.82118" rx="3.21663" ry="7.82118" transform="matrix(0.622492 -0.782626 -0.782626 -0.622492 133.873 139.195)" fill="#73628A"/>
<ellipse cx="3.7237" cy="7.82118" rx="3.7237" ry="7.82118" transform="matrix(0.46111 -0.887343 -0.887343 -0.46111 138.189 130.297)" fill="#73628A"/>
<ellipse cx="3.30793" cy="7.82118" rx="3.30793" ry="7.82118" transform="matrix(0.241887 -0.970305 -0.970305 -0.241887 143.574 119.902)" fill="#73628A"/>
<ellipse cx="2.77378" cy="7.82118" rx="2.77378" ry="7.82118" transform="matrix(0.0320126 -0.999487 -0.999487 -0.0320126 149.053 108.281)" fill="#73628A"/>
<ellipse cx="2.77378" cy="7.82118" rx="2.77378" ry="7.82118" transform="matrix(-0.103252 -0.994655 -0.994655 0.103252 153.436 98.1211)" fill="#73628A"/>
<ellipse cx="2.77378" cy="7.82118" rx="2.77378" ry="7.82118" transform="matrix(-0.217321 -0.9761 -0.9761 0.217321 149.434 89.6953)" fill="#73628A"/>
<ellipse cx="2.77378" cy="7.82118" rx="2.77378" ry="7.82118" transform="matrix(-0.4387 -0.898634 -0.898634 0.4387 145.25 78.0703)" fill="#73628A"/>
<ellipse cx="3.7142" cy="7.82118" rx="3.7142" ry="7.82118" transform="matrix(-0.680503 -0.732746 -0.732746 0.680503 141.24 69.1328)" fill="#73628A"/>
<ellipse cx="3.71707" cy="6.98224" rx="3.71707" ry="6.98224" transform="matrix(-0.742542 -0.669799 -0.669799 0.742542 132.48 62.332)" fill="#73628A"/>
<circle cx="24.0681" cy="24.0681" r="24.0681" transform="matrix(-1 0 0 1 121.184 81.1094)" fill="#CBC5EA"/>
</svg>
