<svg width="270" height="795" viewBox="0 0 270 795" fill="none" xmlns="http://www.w3.org/2000/svg">
<path d="M162.157 507.993C146.431 480.359 112.84 425.091 104.282 425.091C94.0453 425.091 138.381 501.012 159.461 507.545C132.065 503.071 78.6528 496.437 64.1684 502.644C45.4488 510.667 105.039 518.69 162.157 507.993C128.603 520.472 61.4942 548.106 61.4942 558.803C61.4942 569.5 128.603 529.387 162.157 507.993C141.082 531.169 100.538 579.662 106.956 588.22C113.374 596.777 146.431 538.301 162.157 507.993C182.979 533.844 224.088 582.336 221.949 569.5C219.809 556.664 181.196 523.147 162.157 507.993C191.002 522.255 248.156 548.106 246.017 537.409C243.878 526.712 189.219 513.341 162.157 507.993C201.698 504.427 278.108 495.156 267.411 486.599C256.714 478.041 192.784 497.296 162.157 507.993C193.676 484.816 250.83 439.532 227.297 443.811C203.764 448.09 174.065 488.382 162.157 507.993Z" fill="#698F40"/>
<path d="M138.332 223.477C131.149 400.66 171.056 407.843 162.157 507.993M162.157 507.993C161.821 630.356 145.029 734.598 101.834 793.498C101.527 793.916 101.364 794.416 101.364 794.934V794.934M162.157 507.993C146.431 480.359 112.84 425.091 104.282 425.091C93.585 425.091 142.479 507.993 162.157 507.993ZM162.157 507.993C135.734 503.536 79.1442 496.226 64.1684 502.644C45.4488 510.667 105.039 518.69 162.157 507.993ZM162.157 507.993C128.603 520.472 61.4942 548.106 61.4942 558.803C61.4942 569.5 128.603 529.387 162.157 507.993ZM162.157 507.993C141.082 531.169 100.538 579.662 106.956 588.22C113.374 596.777 146.431 538.301 162.157 507.993ZM162.157 507.993C174.065 488.382 203.764 448.09 227.297 443.811C250.83 439.532 193.676 484.816 162.157 507.993ZM162.157 507.993C192.784 497.296 256.714 478.041 267.411 486.599C278.108 495.156 201.698 504.427 162.157 507.993ZM162.157 507.993C189.219 513.341 243.878 526.712 246.017 537.409C248.156 548.106 191.002 522.255 162.157 507.993ZM162.157 507.993C181.196 523.147 219.809 556.664 221.949 569.5C224.088 582.336 182.979 533.844 162.157 507.993Z" stroke="#698F40" stroke-width="1.99713"/>
<path d="M166.347 93.6755C156.175 85.2747 143.131 80.2277 128.908 80.2277C134.256 37.4399 131.582 -8.02212 177.044 2.67482C200.878 8.28269 196.92 34.1244 186.092 58.8057C177.296 69.4255 170.308 83.3658 166.347 93.6755Z" fill="#EAEAEA"/>
<path d="M112.863 0C132.117 0 131.582 53.4851 128.908 80.2277C120.148 80.2277 111.835 82.1422 104.365 85.5756C102.696 76.1133 99.8252 64.1055 95.8446 52.8096C85.0349 5.61109 92.7345 0 112.863 0Z" fill="#EAEAEA"/>
<path d="M104.365 85.5756C100.745 87.2396 97.3225 89.2604 94.1431 91.5929C86.9353 83.8845 75.6263 74.0086 63.8037 67.7951C45.0872 52.0963 35.014 37.6612 56.7038 21.3939C74.1185 8.33285 87.4499 28.9882 95.8446 52.8096C97.9604 62.0482 100.786 72.8803 104.365 85.5756Z" fill="#EAEAEA"/>
<path d="M94.1431 91.5929C79.5493 102.299 70.0749 119.574 70.0749 139.061C70.0749 147.292 71.7652 155.128 74.8177 162.242C67.3547 163.535 58.2968 165.773 49.538 168.993C28.2905 172.488 4.98792 170.492 0.544822 149.757C-5.87335 119.806 46.0068 117.666 72.7492 120.341C49.5725 114.992 7.49784 97.877 24.6129 72.2044C34.0398 58.0642 49.3078 60.1766 63.8037 67.7951C72.779 75.3233 83.742 83.1421 94.1431 91.5929Z" fill="#EAEAEA"/>
<path d="M74.8177 162.242C77.3081 168.045 80.7051 173.367 84.8306 178.03C77.1401 188.19 67.6558 202.51 61.1208 216.158C49.0239 228.842 34.7859 234.132 21.9387 216.613C4.80781 193.253 26.1021 177.609 49.538 168.993C58.983 167.44 68.022 164.802 74.8177 162.242Z" fill="#EAEAEA"/>
<path d="M84.8306 178.03C89.694 183.527 95.5697 188.107 102.166 191.479C100.127 202.829 98.0877 218.429 97.5305 233.27C92.6386 247.08 83.4949 257.8 67.4007 256.727C48.1764 255.445 51.3566 236.551 61.1208 216.158C71.1829 205.608 79.7637 189.942 84.8306 178.03Z" fill="#EAEAEA"/>
<path d="M102.166 191.479C110.189 195.581 119.278 197.894 128.908 197.894C131.629 197.894 134.308 197.709 136.931 197.352C135.581 205.517 134.794 216.926 135.96 228.185C133.678 252.021 127.369 276.67 112.863 278.121C99.6251 279.444 96.6261 257.357 97.5305 233.27C102.393 219.544 103.054 202.765 102.166 191.479Z" fill="#EAEAEA"/>
<path d="M136.931 197.352C145.72 196.153 153.891 193.014 160.999 188.379C162.899 195.839 166.419 205.409 171.511 213.882C181.007 240.892 185.949 270.606 163.673 267.424C145.058 264.764 137.874 246.676 135.96 228.185C137.043 216.867 137.218 205.733 136.931 197.352Z" fill="#EAEAEA"/>
<path d="M160.999 188.379C166.045 185.089 170.556 181.045 174.37 176.407C179.209 179.082 184.99 181.884 191.221 184.39C214.858 197.017 238.487 216.268 214.484 229.984C195.172 241.019 180.752 229.259 171.511 213.882C168.239 204.575 164.426 195.588 160.999 188.379Z" fill="#EAEAEA"/>
<path d="M174.37 176.407C178.278 171.656 181.455 166.281 183.731 160.454C195.966 156.432 211.97 149.989 225.926 142.15C244.419 137.971 259.679 141.726 257.272 165.803C253.794 200.582 218.277 195.272 191.221 184.39C185.363 181.26 179.504 178.538 174.37 176.407Z" fill="#EAEAEA"/>
<path d="M187.035 129.919C184.769 115.394 177.19 102.63 166.347 93.6755C172.8 84.4489 180.396 71.7878 186.092 58.8057C197.09 45.5251 210.916 37.4372 225.181 48.1363C238.272 57.9547 234.181 74.0231 223.923 89.9651C208.58 96.6851 194.386 116.296 187.035 129.919Z" fill="#EAEAEA"/>
<path d="M187.035 129.919C198.509 120.491 214.064 105.286 223.923 89.9651C208.58 96.6851 194.386 116.296 187.035 129.919Z" fill="#EAEAEA"/>
<path d="M183.731 160.454C186.32 153.824 187.741 146.608 187.741 139.061C187.741 135.951 187.5 132.898 187.035 129.919C198.509 120.491 214.064 105.286 223.923 89.9651C233.259 85.8758 243.02 86.5601 251.923 96.2725C266.607 112.291 249.085 129.143 225.926 142.15C211.554 145.398 195.23 153.437 183.731 160.454Z" fill="#EAEAEA"/>
<path d="M183.731 160.454C195.966 156.432 211.97 149.989 225.926 142.15C211.554 145.398 195.23 153.437 183.731 160.454Z" fill="#EAEAEA"/>
<path d="M174.37 176.407C179.209 179.082 184.99 181.884 191.221 184.39C185.363 181.26 179.504 178.538 174.37 176.407Z" fill="#EAEAEA"/>
<path d="M160.999 188.379C162.899 195.839 166.419 205.409 171.511 213.882C168.239 204.575 164.426 195.588 160.999 188.379Z" fill="#EAEAEA"/>
<path d="M136.931 197.352C135.581 205.517 134.794 216.926 135.96 228.185C137.043 216.867 137.218 205.733 136.931 197.352Z" fill="#EAEAEA"/>
<path d="M102.166 191.479C100.127 202.829 98.0877 218.429 97.5305 233.27C102.393 219.544 103.054 202.765 102.166 191.479Z" fill="#EAEAEA"/>
<path d="M84.8306 178.03C77.1401 188.19 67.6558 202.51 61.1208 216.158C71.1829 205.608 79.7637 189.942 84.8306 178.03Z" fill="#EAEAEA"/>
<path d="M74.8177 162.242C67.3547 163.535 58.2968 165.773 49.538 168.993C58.983 167.44 68.022 164.802 74.8177 162.242Z" fill="#EAEAEA"/>
<path d="M94.1431 91.5929C86.9353 83.8845 75.6263 74.0086 63.8037 67.7951C72.779 75.3233 83.742 83.1421 94.1431 91.5929Z" fill="#EAEAEA"/>
<path d="M104.365 85.5756C102.696 76.1133 99.8252 64.1055 95.8446 52.8096C97.9604 62.0482 100.786 72.8803 104.365 85.5756Z" fill="#EAEAEA"/>
<path d="M186.092 58.8057C177.296 69.4255 170.308 83.3658 166.347 93.6755C172.8 84.4489 180.396 71.7878 186.092 58.8057Z" fill="#EAEAEA"/>
</svg>
