<svg width="153" height="211" viewBox="0 0 153 211" fill="none" xmlns="http://www.w3.org/2000/svg">
<path d="M125.897 100.797C129.7 94.7679 137.684 76.4355 139.202 51.3414C144.903 35.182 161.647 17.121 145.852 3.81439C130.057 -9.49223 106.672 32.3346 101.92 51.3434C100.24 56.6659 99.8263 63.0481 100.069 69.4057C100.486 80.3075 102.832 91.1367 104.033 96.4257C106.547 96.565 109.395 97.021 112.59 97.9189C114.272 98.4794 115.859 98.941 117.341 99.319C120.803 100.202 123.696 100.629 125.897 100.797Z" fill="#CBC5EA"/>
<path d="M104.034 115.572C95.9065 116.024 91.2815 113.164 89.7777 111.228C86.058 111.384 81.8815 111.532 77.4194 111.655C71.7163 114.048 59.55 123.206 56.5092 140.696C54.6101 178.717 66.0181 209.134 78.3749 207.232C90.7317 205.33 92.6316 181.567 92.6308 167.309C92.6302 155.902 98.8266 142.911 101.925 137.842C102.105 131.083 102.771 123.679 104.034 115.572Z" fill="#73628A"/>
<path d="M89.7772 100.772C91.2807 98.8355 95.9054 95.9749 104.033 96.4257C102.832 91.1367 100.486 80.3075 100.069 69.4057C97.2718 63.3858 91.2962 44.6923 89.7728 18.0775C87.8685 -15.1911 59.3536 4.77306 57.4541 35.1902C55.5547 65.6073 58.4071 81.7657 70.7647 93.1702C73.6164 95.802 76.4681 98.8121 77.4188 100.207C81.891 100.379 86.0689 100.573 89.7772 100.772Z" fill="#73628A"/>
<path d="M130.064 111.225C130.204 108.999 131.284 106.792 132.551 105.524C131.41 104.383 130.178 102.664 129.695 100.817C128.872 100.903 127.588 100.927 125.897 100.797C123.696 100.629 120.803 100.202 117.341 99.319C115.859 98.941 114.272 98.4794 112.59 97.9189C109.395 97.021 106.547 96.565 104.033 96.4257C95.9054 95.9749 91.2807 98.8355 89.7772 100.772C86.0689 100.573 81.891 100.379 77.4188 100.207C46.354 99.0129 1.09173 98.8848 0.427353 105.531C-0.23875 112.194 45.7737 112.528 77.4194 111.655C81.8815 111.532 86.058 111.384 89.7777 111.228C91.2815 113.164 95.9065 116.024 104.034 115.572C106.548 115.432 109.396 114.976 112.591 114.078C118.201 112.207 122.753 111.439 125.898 111.198C127.868 111.047 129.285 111.103 130.064 111.225Z" fill="#EAEAEA"/>
<path fill-rule="evenodd" clip-rule="evenodd" d="M148.71 105.523C146.175 100.771 139.965 91.6457 135.402 93.1668C131.194 94.5697 129.655 96.7002 129.497 98.8685C129.474 99.1853 129.48 99.5028 129.512 99.819C129.546 100.154 129.608 100.488 129.695 100.817C130.178 102.664 131.41 104.383 132.551 105.524C131.284 106.792 130.204 108.999 130.064 111.225C129.888 114.008 131.179 116.823 135.404 117.879C141.487 119.399 146.81 110.275 148.71 105.523ZM139.205 100.769C139.205 99.2482 137.937 98.8681 137.304 98.8681C136.67 98.8681 135.403 99.2484 135.403 100.769C135.403 102.29 136.67 102.67 137.304 102.67C137.938 102.67 139.205 102.29 139.205 100.769ZM139.205 111.225C139.205 109.704 137.938 109.324 137.304 109.324C136.671 109.324 135.403 109.704 135.403 111.225C135.403 112.746 136.671 113.126 137.304 113.126C137.938 113.126 139.205 112.746 139.205 111.225Z" fill="#EAEAEA"/>
<path d="M125.898 111.198C122.753 111.439 118.201 112.207 112.591 114.078C109.396 114.976 106.548 115.432 104.034 115.572C102.771 123.679 102.105 131.083 101.925 137.842C100.615 187.009 125.034 202.101 132.555 206.278C141.11 211.031 144.912 212.932 148.716 206.278C162.022 176.81 140.159 169.207 139.208 154.949C139.207 135.178 130.334 117.544 125.898 111.198Z" fill="#CBC5EA"/>
<path d="M137.304 98.8681C137.937 98.8681 139.205 99.2482 139.205 100.769C139.205 102.29 137.938 102.67 137.304 102.67C136.67 102.67 135.403 102.29 135.403 100.769C135.403 99.2484 136.67 98.8681 137.304 98.8681Z" fill="#01001B"/>
<path d="M93.578 122.534C94.0103 119.783 86.4511 119.706 84.4935 119.783C83.1893 119.838 81.797 119.891 80.3346 119.94C77.8788 120.023 75.4028 120.473 73.4101 121.911C69.5835 124.672 64.7649 130.037 63.2946 138.44C62.0845 162.511 69.3538 181.768 77.2276 180.564C85.1014 179.36 86.312 164.315 86.3115 155.289C86.3113 150.519 88.0337 145.311 89.7721 141.4C91.201 138.186 92.2418 134.778 92.527 131.271C92.7514 128.513 93.0967 125.603 93.578 122.534Z" fill="#CBC5EA"/>
<path d="M123.11 123.32C121.693 119.865 118.019 118.003 114.494 119.238C114.322 119.298 114.148 119.361 113.972 119.426V119.426C111.625 120.157 109.575 121.973 109.321 124.418C109.037 127.157 108.874 129.732 108.815 132.153C108.183 158.486 119.987 166.569 123.623 168.807C127.759 171.352 129.597 172.37 131.436 168.806C137.868 153.024 127.299 148.952 126.839 141.316C126.839 134.361 124.988 127.899 123.11 123.32Z" fill="#73628A"/>
<path d="M93.5758 88.521C94.0084 91.272 86.4491 91.349 84.4916 91.2725C83.1874 91.218 81.795 91.1654 80.3327 91.1161C77.8768 91.0334 75.4007 90.5834 73.4079 89.1458C69.581 86.3851 64.7619 81.0205 63.2907 72.6182C62.0781 48.5467 69.3453 29.2891 77.2192 30.4923C85.0932 31.6955 86.3054 46.7401 86.3058 55.7669C86.3061 60.5367 88.0291 65.7439 89.7679 69.6546C91.1972 72.869 92.2382 76.2772 92.5238 79.7834C92.7485 82.542 93.0941 85.4518 93.5758 88.521Z" fill="#CBC5EA"/>
<path d="M123.108 87.7277C121.691 91.1836 118.017 93.0452 114.492 91.8109C114.32 91.7507 114.146 91.6882 113.969 91.6231V91.6231C111.623 90.8924 109.573 89.0761 109.319 86.6316C109.034 83.8925 108.87 81.3172 108.812 78.8963C108.176 52.5635 119.98 44.4793 123.616 42.2413C127.752 39.6957 129.59 38.6774 131.429 42.2409C137.863 58.0222 127.294 62.0955 126.835 69.7318C126.835 76.687 124.985 83.1487 123.108 87.7277Z" fill="#73628A"/>
<path d="M125.895 102.678C125.578 97.9257 127.415 88.4202 137.3 88.4197C144.144 88.4194 144.588 83.9835 143.954 81.7656" stroke="#EAEAEA" stroke-width="2"/>
<path d="M98.3325 97.926C98.6491 94.1238 97.1912 85.9493 88.8264 83.6685" stroke="#EAEAEA" stroke-width="2"/>
<path d="M98.3301 115.031C98.3303 118.833 96.4296 126.818 88.8255 128.339" stroke="#EAEAEA" stroke-width="2"/>
<path d="M125.894 109.325C125.894 113.127 127.415 120.922 133.499 121.682C139.582 122.442 143.638 125.8 144.905 127.384" stroke="#EAEAEA" stroke-width="2"/>
</svg>
