<svg width="997" height="75" viewBox="0 0 997 75" fill="none" xmlns="http://www.w3.org/2000/svg">
<path d="M27.4371 28.6265C22.6703 33.7616 16.7207 45.6005 31.057 51.8755C33.0747 51.9552 35.0611 51.9025 37.0044 51.7387C51.8788 43.0825 45.3143 31.9174 40.1727 27.4168C35.5529 26.9538 31.289 27.4699 27.4371 28.6265Z" fill="#73628A"/>
<path d="M35.0188 21.6101C34.4453 21.6347 33.8791 21.67 33.3201 21.7155C32.157 21.8104 31.0254 21.9497 29.9248 22.1292C28.1479 22.4192 26.4523 22.8141 24.8371 23.2964C10.8431 27.475 2.88568 38.2114 0.389519 44.0338L7.18736 43.9693C10.8009 38.3671 17.8401 31.5084 27.4371 28.6265C31.289 27.4699 35.5529 26.9538 40.1727 27.4168C48.0515 28.2063 56.9655 31.8433 66.6363 40.0062C60.9352 44.6563 49.9202 50.6504 37.0044 51.7387C35.0611 51.9025 33.0747 51.9552 31.057 51.8755C23.3429 51.571 15.1698 49.3321 7.18736 43.9693L0.389519 44.0338C8.05694 51.5569 15.8949 55.7664 23.4643 57.7231C24.8939 58.0927 26.314 58.3819 27.7216 58.5979C28.8647 58.7733 29.9995 58.9005 31.1245 58.9831C32.5583 59.0885 33.9761 59.1216 35.3745 59.0904C36.4316 59.0669 37.4776 59.0066 38.5112 58.913C39.702 58.8052 40.8764 58.6531 42.032 58.4621C60.5718 55.3975 74.3063 42.3007 74.2919 40.7829C74.2715 38.631 64.4598 25.6724 46.0732 22.3417C44.7025 22.0934 43.2842 21.8986 41.8187 21.7658C40.9836 21.6901 40.1333 21.6345 39.2677 21.6007C37.8898 21.5467 36.4734 21.5478 35.0188 21.6101Z" fill="#CBC5EA"/>
<path d="M66.6363 40.0062C56.9655 31.8433 48.0515 28.2063 40.1727 27.4168C45.3143 31.9174 51.8788 43.0825 37.0044 51.7387C49.9202 50.6504 60.9352 44.6563 66.6363 40.0062Z" fill="#EAEAEA"/>
<path d="M27.4371 28.6265C17.8401 31.5084 10.8009 38.3671 7.18736 43.9693C15.1698 49.3321 23.3429 51.571 31.057 51.8755C16.7207 45.6005 22.6703 33.7616 27.4371 28.6265Z" fill="#EAEAEA"/>
<path d="M27.2744 11.4864C23.2538 17.6432 23.9743 21.9251 24.8371 23.2964C26.4523 22.8141 28.1479 22.4192 29.9248 22.1292C25.6403 18.3911 32.3002 3.79045 27.2744 11.4864Z" fill="#CBC5EA"/>
<path d="M33.3201 21.7155C33.8791 21.67 34.4453 21.6347 35.0188 21.6101C36.4734 21.5478 37.8898 21.5467 39.2677 21.6007C36.6865 18.2561 44.1641 0.278876 41.6392 2.85227C33.5592 11.0871 32.7265 18.859 33.3201 21.7155Z" fill="#CBC5EA"/>
<path d="M52.7421 8.69696C47.3297 11.4677 43.2046 18.564 41.8187 21.7658C43.2842 21.8986 44.7025 22.0934 46.0732 22.3417C46.8827 18.1005 59.5077 5.2335 52.7421 8.69696Z" fill="#CBC5EA"/>
<path d="M23.4643 57.7231C22.0632 59.333 19.6171 64.2489 21.0412 71.0338C21.9071 72.7252 23.5017 61.6626 27.7216 58.5979C26.314 58.3819 24.8939 58.0927 23.4643 57.7231Z" fill="#CBC5EA"/>
<path d="M31.1245 58.9831C30.1097 61.3441 28.9185 70.1321 31.3378 72.2289C31.699 72.542 32.1865 72.2393 32.2849 71.7715C33.7325 64.893 33.7863 63.9212 35.3745 59.0904C33.9761 59.1216 32.5583 59.0885 31.1245 58.9831Z" fill="#CBC5EA"/>
<path d="M38.5112 58.913C37.4923 61.7746 36.9919 68.333 43.1423 71.6738C45.7076 73.3491 40.298 69.0509 42.032 58.4621C40.8764 58.6531 39.702 58.8052 38.5112 58.913Z" fill="#CBC5EA"/>
<path d="M221.568 28.0707C226.431 33.114 232.604 44.837 218.39 51.3827C216.374 51.5006 214.388 51.4856 212.442 51.3588C197.407 42.9871 203.758 31.7001 208.812 27.103C213.422 26.5525 217.695 26.9874 221.568 28.0707Z" fill="#73628A"/>
<path d="M213.855 21.1999C214.429 21.2136 214.995 21.2381 215.555 21.2731C216.72 21.3458 217.854 21.4636 218.957 21.6222C220.739 21.8784 222.442 22.241 224.066 22.6926C238.136 26.6045 246.295 37.1872 248.901 42.9608L242.104 43.0253C238.385 37.4931 231.217 30.7697 221.568 28.0707C217.695 26.9874 213.422 26.5525 208.812 27.103C200.951 28.0419 192.108 31.8472 182.594 40.1917C188.382 44.7324 199.508 50.5159 212.442 51.3588C214.388 51.4856 216.374 51.5006 218.39 51.3827C226.097 50.9318 234.225 48.5383 242.104 43.0253L248.901 42.9608C241.378 50.6276 233.622 54.9848 226.092 57.0847C224.67 57.4813 223.255 57.7974 221.852 58.0401C220.713 58.2372 219.581 58.3858 218.458 58.4898C217.026 58.6223 215.609 58.6824 214.211 58.6777C213.153 58.6743 212.107 58.6338 211.071 58.5599C209.879 58.4747 208.702 58.345 207.543 58.1759C188.95 55.464 174.97 42.6312 174.955 41.1134C174.935 38.9617 184.498 25.82 202.817 22.1412C204.183 21.8669 205.597 21.6452 207.06 21.4846C207.893 21.3931 208.742 21.3214 209.607 21.2711C210.983 21.1911 212.399 21.1652 213.855 21.1999Z" fill="#CBC5EA"/>
<path d="M182.594 40.1917C192.108 31.8472 200.951 28.0419 208.812 27.103C203.758 31.7001 197.407 42.9871 212.442 51.3588C199.508 50.5159 188.382 44.7324 182.594 40.1917Z" fill="#EAEAEA"/>
<path d="M221.568 28.0707C231.217 30.7697 238.385 37.4931 242.104 43.0253C234.225 48.5383 226.097 50.9318 218.39 51.3827C232.604 44.837 226.431 33.114 221.568 28.0707Z" fill="#EAEAEA"/>
<path d="M221.405 10.9317C225.542 17.0107 224.903 21.3052 224.066 22.6926C222.442 22.241 220.739 21.8784 218.957 21.6222C223.17 17.8037 216.235 3.33307 221.405 10.9317Z" fill="#CBC5EA"/>
<path d="M215.555 21.2731C214.995 21.2381 214.429 21.2136 213.855 21.1999C212.399 21.1652 210.983 21.1911 209.607 21.2711C212.124 17.8784 204.307 0.0475722 206.88 2.5724C215.114 10.6518 216.094 18.406 215.555 21.2731Z" fill="#CBC5EA"/>
<path d="M195.891 8.6264C201.354 11.2937 205.613 18.31 207.06 21.4846C205.597 21.6452 204.183 21.8669 202.817 22.1412C201.927 17.9164 189.061 5.29223 195.891 8.6264Z" fill="#CBC5EA"/>
<path d="M226.092 57.0847C227.523 58.6676 230.062 63.5358 228.767 70.3461C227.934 72.0535 226.129 61.0239 221.852 58.0401C223.255 57.7974 224.67 57.4813 226.092 57.0847Z" fill="#CBC5EA"/>
<path d="M218.458 58.4898C219.511 60.8184 220.86 69.5004 218.534 71.7013C218.166 72.0491 217.642 71.7397 217.529 71.2466C215.962 64.4429 215.886 63.4654 214.211 58.6777C215.609 58.6824 217.026 58.6223 218.458 58.4898Z" fill="#CBC5EA"/>
<path d="M211.071 58.5599C212.144 61.4014 212.769 67.9487 206.684 71.4055C204.151 73.129 209.478 68.7292 207.543 58.1759C208.702 58.345 209.879 58.4747 211.071 58.5599Z" fill="#CBC5EA"/>
<path d="M525.789 28.6265C521.022 33.7616 515.072 45.6005 529.409 51.8755C531.426 51.9552 533.413 51.9025 535.356 51.7387C550.23 43.0825 543.666 31.9174 538.524 27.4168C533.904 26.9538 529.641 27.4699 525.789 28.6265Z" fill="#73628A"/>
<path d="M533.37 21.6101C532.797 21.6347 532.231 21.67 531.672 21.7155C530.509 21.8104 529.377 21.9497 528.276 22.1292C526.499 22.4192 524.804 22.8141 523.189 23.2964C509.195 27.475 501.237 38.2114 498.741 44.0338L505.539 43.9693C509.152 38.3671 516.192 31.5084 525.789 28.6265C529.641 27.4699 533.904 26.9538 538.524 27.4168C546.403 28.2063 555.317 31.8433 564.988 40.0062C559.287 44.6563 548.272 50.6504 535.356 51.7387C533.413 51.9025 531.426 51.9552 529.409 51.8755C521.694 51.571 513.521 49.3321 505.539 43.9693L498.741 44.0338C506.409 51.5569 514.246 55.7664 521.816 57.7231C523.246 58.0927 524.666 58.3819 526.073 58.5979C527.216 58.7733 528.351 58.9004 529.476 58.9831C530.91 59.0885 532.328 59.1216 533.726 59.0904C534.783 59.0669 535.829 59.0066 536.863 58.913C538.054 58.8052 539.228 58.6531 540.384 58.4621C558.923 55.3975 572.658 42.3007 572.643 40.7829C572.623 38.631 562.811 25.6724 544.425 22.3417C543.054 22.0934 541.636 21.8986 540.17 21.7658C539.335 21.6901 538.485 21.6345 537.619 21.6007C536.241 21.5467 534.825 21.5478 533.37 21.6101Z" fill="#CBC5EA"/>
<path d="M564.988 40.0062C555.317 31.8433 546.403 28.2063 538.524 27.4168C543.666 31.9174 550.23 43.0825 535.356 51.7387C548.272 50.6504 559.287 44.6563 564.988 40.0062Z" fill="#EAEAEA"/>
<path d="M525.789 28.6265C516.192 31.5084 509.152 38.3671 505.539 43.9693C513.521 49.3321 521.694 51.571 529.409 51.8755C515.072 45.6005 521.022 33.7616 525.789 28.6265Z" fill="#EAEAEA"/>
<path d="M525.626 11.4864C521.605 17.6432 522.326 21.9251 523.189 23.2964C524.804 22.8141 526.499 22.4192 528.276 22.1292C523.992 18.3911 530.652 3.79045 525.626 11.4864Z" fill="#CBC5EA"/>
<path d="M531.672 21.7155C532.231 21.67 532.797 21.6347 533.37 21.6101C534.825 21.5478 536.241 21.5467 537.619 21.6007C535.038 18.2561 542.516 0.278876 539.991 2.85227C531.911 11.0871 531.078 18.859 531.672 21.7155Z" fill="#CBC5EA"/>
<path d="M551.094 8.69696C545.681 11.4677 541.556 18.564 540.17 21.7658C541.636 21.8986 543.054 22.0934 544.425 22.3417C545.234 18.1005 557.859 5.2335 551.094 8.69696Z" fill="#CBC5EA"/>
<path d="M521.816 57.7231C520.415 59.333 517.969 64.2489 519.393 71.0338C520.259 72.7252 521.853 61.6626 526.073 58.5979C524.666 58.3819 523.246 58.0927 521.816 57.7231Z" fill="#CBC5EA"/>
<path d="M529.476 58.9831C528.461 61.3441 527.27 70.1321 529.689 72.2289C530.051 72.542 530.538 72.2393 530.637 71.7715C532.084 64.893 532.138 63.9212 533.726 59.0904C532.328 59.1216 530.91 59.0885 529.476 58.9831Z" fill="#CBC5EA"/>
<path d="M536.863 58.913C535.844 61.7746 535.343 68.333 541.494 71.6738C544.059 73.3491 538.65 69.0509 540.384 58.4621C539.228 58.6531 538.054 58.8052 536.863 58.913Z" fill="#CBC5EA"/>
<path d="M719.919 28.0707C724.783 33.114 730.955 44.837 716.742 51.3827C714.726 51.5006 712.739 51.4856 710.793 51.3588C695.758 42.9871 702.109 31.7001 707.164 27.103C711.774 26.5525 716.047 26.9874 719.919 28.0707Z" fill="#73628A"/>
<path d="M712.206 21.1999C712.78 21.2136 713.347 21.2381 713.907 21.2731C715.071 21.3458 716.205 21.4636 717.309 21.6222C719.091 21.8784 720.794 22.241 722.418 22.6926C736.488 26.6045 744.647 37.1872 747.253 42.9608L740.455 43.0253C736.736 37.4931 729.569 30.7697 719.919 28.0707C716.047 26.9874 711.774 26.5525 707.164 27.103C699.302 28.0419 690.459 31.8472 680.946 40.1917C686.734 44.7324 697.86 50.5159 710.793 51.3588C712.739 51.4856 714.726 51.5006 716.742 51.3827C724.448 50.9318 732.577 48.5383 740.455 43.0253L747.253 42.9608C739.73 50.6276 731.974 54.9848 724.444 57.0847C723.021 57.4813 721.607 57.7974 720.204 58.0401C719.064 58.2372 717.932 58.3858 716.809 58.4898C715.378 58.6223 713.961 58.6824 712.562 58.6777C711.505 58.6743 710.458 58.6338 709.423 58.5599C708.23 58.4747 707.053 58.345 705.894 58.1759C687.301 55.464 673.321 42.6312 673.307 41.1134C673.287 38.9617 682.85 25.82 701.169 22.1412C702.534 21.8669 703.949 21.6452 705.411 21.4846C706.245 21.3931 707.094 21.3214 707.958 21.2711C709.335 21.1911 710.751 21.1652 712.206 21.1999Z" fill="#CBC5EA"/>
<path d="M680.946 40.1917C690.459 31.8472 699.302 28.0419 707.164 27.103C702.109 31.7001 695.758 42.9871 710.793 51.3588C697.86 50.5159 686.734 44.7324 680.946 40.1917Z" fill="#EAEAEA"/>
<path d="M719.919 28.0707C729.569 30.7697 736.736 37.4931 740.455 43.0253C732.577 48.5383 724.448 50.9318 716.742 51.3827C730.955 44.837 724.783 33.114 719.919 28.0707Z" fill="#EAEAEA"/>
<path d="M719.757 10.9317C723.893 17.0107 723.254 21.3052 722.418 22.6926C720.794 22.241 719.091 21.8784 717.309 21.6222C721.521 17.8037 714.586 3.33307 719.757 10.9317Z" fill="#CBC5EA"/>
<path d="M713.907 21.2731C713.347 21.2381 712.78 21.2136 712.206 21.1999C710.751 21.1652 709.335 21.1911 707.958 21.2711C710.475 17.8784 702.658 0.0475722 705.232 2.5724C713.466 10.6518 714.446 18.406 713.907 21.2731Z" fill="#CBC5EA"/>
<path d="M694.242 8.6264C699.706 11.2937 703.965 18.31 705.411 21.4846C703.949 21.6452 702.534 21.8669 701.169 22.1412C700.279 17.9164 687.413 5.29223 694.242 8.6264Z" fill="#CBC5EA"/>
<path d="M724.444 57.0847C725.875 58.6676 728.414 63.5358 727.119 70.3461C726.285 72.0535 724.481 61.0239 720.204 58.0401C721.607 57.7974 723.021 57.4813 724.444 57.0847Z" fill="#CBC5EA"/>
<path d="M716.809 58.4898C717.863 60.8184 719.212 69.5004 716.885 71.7013C716.518 72.0491 715.994 71.7397 715.88 71.2466C714.314 64.4429 714.238 63.4654 712.562 58.6777C713.961 58.6824 715.378 58.6223 716.809 58.4898Z" fill="#CBC5EA"/>
<path d="M709.423 58.5599C710.496 61.4014 711.121 67.9487 705.035 71.4055C702.502 73.129 707.829 68.7292 705.894 58.1759C707.053 58.345 708.23 58.4747 709.423 58.5599Z" fill="#CBC5EA"/>
<path d="M284.195 21.6101C283.621 21.6347 283.055 21.67 282.496 21.7155C281.333 21.8104 280.201 21.9497 279.101 22.1292C277.324 22.4192 275.628 22.8141 274.013 23.2964C260.019 27.475 252.061 38.2114 249.565 44.0338L256.363 43.9693C259.977 38.3671 267.016 31.5084 276.613 28.6265C280.465 27.4699 284.729 26.9538 289.349 27.4168C297.227 28.2063 306.141 31.8433 315.812 40.0062C310.111 44.6563 299.096 50.6504 286.18 51.7387C284.237 51.9025 282.251 51.9552 280.233 51.8755C272.519 51.571 264.346 49.3321 256.363 43.9693L249.565 44.0338C257.233 51.5569 265.071 55.7664 272.64 57.7231C274.07 58.0927 275.49 58.3819 276.897 58.5979C278.04 58.7733 279.175 58.9004 280.3 58.9831C281.734 59.0885 283.152 59.1216 284.55 59.0904C285.607 59.0669 286.653 59.0066 287.687 58.913C288.878 58.8052 290.052 58.6531 291.208 58.4621C309.748 55.3975 323.482 42.3007 323.468 40.7829C323.447 38.631 313.636 25.6724 295.249 22.3417C293.878 22.0934 292.46 21.8986 290.994 21.7658C290.159 21.6901 289.309 21.6345 288.443 21.6007C287.066 21.5467 285.649 21.5478 284.195 21.6101Z" fill="#CBC5EA"/>
<path d="M276.45 11.4864C272.43 17.6432 273.15 21.9251 274.013 23.2964C275.628 22.8141 277.324 22.4192 279.101 22.1292C274.816 18.3911 281.476 3.79045 276.45 11.4864Z" fill="#CBC5EA"/>
<path d="M282.496 21.7155C283.055 21.67 283.621 21.6347 284.195 21.6101C285.649 21.5478 287.066 21.5467 288.443 21.6007C285.862 18.2561 293.34 0.278876 290.815 2.85227C282.735 11.0871 281.902 18.859 282.496 21.7155Z" fill="#CBC5EA"/>
<path d="M301.918 8.69696C296.505 11.4677 292.38 18.564 290.994 21.7658C292.46 21.8986 293.878 22.0934 295.249 22.3417C296.059 18.1005 308.683 5.2335 301.918 8.69696Z" fill="#CBC5EA"/>
<path d="M272.64 57.7231C271.239 59.333 268.793 64.2489 270.217 71.0338C271.083 72.7252 272.677 61.6626 276.897 58.5979C275.49 58.3819 274.07 58.0927 272.64 57.7231Z" fill="#CBC5EA"/>
<path d="M280.3 58.9831C279.285 61.3441 278.094 70.1321 280.514 72.2289C280.875 72.542 281.362 72.2393 281.461 71.7715C282.908 64.893 282.962 63.9212 284.55 59.0904C283.152 59.1216 281.734 59.0885 280.3 58.9831Z" fill="#CBC5EA"/>
<path d="M287.687 58.913C286.668 61.7746 286.168 68.333 292.318 71.6738C294.883 73.3491 289.474 69.0509 291.208 58.4621C290.052 58.6531 288.878 58.8052 287.687 58.913Z" fill="#CBC5EA"/>
<path d="M276.613 28.6265C267.016 31.5084 259.977 38.3671 256.363 43.9693C264.346 49.3321 272.519 51.571 280.233 51.8755C282.251 51.9552 284.237 51.9025 286.18 51.7387C299.096 50.6504 310.111 44.6563 315.812 40.0062C306.141 31.8433 297.227 28.2063 289.349 27.4168C284.729 26.9538 280.465 27.4699 276.613 28.6265Z" fill="#EAEAEA"/>
<path d="M463.031 21.1999C463.604 21.2136 464.171 21.2381 464.731 21.2731C465.895 21.3458 467.03 21.4636 468.133 21.6222C469.915 21.8784 471.618 22.241 473.242 22.6926C487.312 26.6045 495.471 37.1872 498.077 42.9608L491.28 43.0253C487.561 37.4931 480.393 30.7697 470.744 28.0707C466.871 26.9874 462.598 26.5525 457.988 27.103C450.126 28.0419 441.284 31.8472 431.77 40.1917C437.558 44.7324 448.684 50.5159 461.617 51.3588C463.563 51.4856 465.55 51.5006 467.566 51.3827C475.272 50.9318 483.401 48.5383 491.28 43.0253L498.077 42.9608C490.554 50.6276 482.798 54.9848 475.268 57.0847C473.846 57.4813 472.431 57.7974 471.028 58.0401C469.889 58.2372 468.757 58.3858 467.633 58.4898C466.202 58.6223 464.785 58.6824 463.386 58.6777C462.329 58.6743 461.282 58.6338 460.247 58.5599C459.055 58.4747 457.878 58.345 456.719 58.1759C438.125 55.464 424.146 42.6312 424.131 41.1134C424.111 38.9617 433.674 25.82 451.993 22.1412C453.358 21.8669 454.773 21.6452 456.235 21.4846C457.069 21.3931 457.918 21.3214 458.783 21.2711C460.159 21.1911 461.575 21.1652 463.031 21.1999Z" fill="#CBC5EA"/>
<path d="M470.581 10.9317C474.717 17.0107 474.078 21.3052 473.242 22.6926C471.618 22.241 469.915 21.8784 468.133 21.6222C472.346 17.8037 465.41 3.33307 470.581 10.9317Z" fill="#CBC5EA"/>
<path d="M464.731 21.2731C464.171 21.2381 463.604 21.2136 463.031 21.1999C461.575 21.1652 460.159 21.1911 458.783 21.2711C461.3 17.8784 453.483 0.0475721 456.056 2.5724C464.29 10.6518 465.27 18.406 464.731 21.2731Z" fill="#CBC5EA"/>
<path d="M445.067 8.6264C450.53 11.2937 454.789 18.31 456.235 21.4846C454.773 21.6452 453.358 21.8669 451.993 22.1412C451.103 17.9164 438.237 5.29223 445.067 8.6264Z" fill="#CBC5EA"/>
<path d="M475.268 57.0847C476.699 58.6676 479.238 63.5358 477.943 70.3461C477.109 72.0535 475.305 61.0239 471.028 58.0401C472.431 57.7974 473.846 57.4813 475.268 57.0847Z" fill="#CBC5EA"/>
<path d="M467.633 58.4898C468.687 60.8184 470.036 69.5004 467.71 71.7013C467.342 72.0491 466.818 71.7397 466.704 71.2466C465.138 64.4429 465.062 63.4654 463.386 58.6777C464.785 58.6824 466.202 58.6223 467.633 58.4898Z" fill="#CBC5EA"/>
<path d="M460.247 58.5599C461.32 61.4014 461.945 67.9487 455.859 71.4055C453.327 73.129 458.653 68.7292 456.719 58.1759C457.878 58.345 459.055 58.4747 460.247 58.5599Z" fill="#CBC5EA"/>
<path d="M470.744 28.0707C480.393 30.7697 487.561 37.4931 491.28 43.0253C483.401 48.5383 475.272 50.9318 467.566 51.3827C465.55 51.5006 463.563 51.4856 461.617 51.3588C448.684 50.5159 437.558 44.7324 431.77 40.1917C441.284 31.8472 450.126 28.0419 457.988 27.103C462.598 26.5525 466.871 26.9874 470.744 28.0707Z" fill="#EAEAEA"/>
<path d="M460.176 26.6426C465.039 31.6859 471.331 44.2507 457.118 50.7964C455.102 50.9143 451.176 49.6442 449.176 49.1442C434.141 40.7725 445.727 31.1088 447.176 30.1408C448.676 29.1385 454.677 27.1419 460.176 26.6426Z" fill="#73628A"/>
<path d="M267.672 32.6414C265.177 34.134 256.84 44.3655 271.176 50.6406C273.176 51.1406 275.176 51.6406 277.176 51.6406C292.05 42.9844 285.319 32.1448 280.177 27.6442C269.677 30.14 267.672 32.6414 267.672 32.6414Z" fill="#73628A"/>
<path d="M782.546 21.6101C781.973 21.6347 781.406 21.67 780.847 21.7155C779.684 21.8104 778.553 21.9497 777.452 22.1292C775.675 22.4192 773.98 22.8141 772.364 23.2964C758.37 27.475 750.413 38.2114 747.917 44.0338L754.715 43.9693C758.328 38.3671 765.367 31.5084 774.964 28.6265C778.816 27.4699 783.08 26.9538 787.7 27.4168C795.579 28.2063 804.493 31.8433 814.164 40.0062C808.463 44.6563 797.447 50.6504 784.532 51.7387C782.588 51.9025 780.602 51.9552 778.584 51.8755C770.87 51.571 762.697 49.3321 754.715 43.9693L747.917 44.0338C755.584 51.5569 763.422 55.7664 770.992 57.7231C772.421 58.0927 773.841 58.3819 775.249 58.5979C776.392 58.7733 777.527 58.9004 778.652 58.9831C780.086 59.0885 781.503 59.1216 782.902 59.0904C783.959 59.0669 785.005 59.0066 786.039 58.913C787.229 58.8052 788.404 58.6531 789.559 58.4621C808.099 55.3975 821.834 42.3007 821.819 40.7829C821.799 38.631 811.987 25.6724 793.601 22.3417C792.23 22.0934 790.812 21.8986 789.346 21.7658C788.511 21.6901 787.661 21.6345 786.795 21.6007C785.417 21.5467 784.001 21.5478 782.546 21.6101Z" fill="#CBC5EA"/>
<path d="M774.802 11.4864C770.781 17.6432 771.502 21.9251 772.364 23.2964C773.98 22.8141 775.675 22.4192 777.452 22.1292C773.168 18.3911 779.828 3.79045 774.802 11.4864Z" fill="#CBC5EA"/>
<path d="M780.847 21.7155C781.406 21.67 781.973 21.6347 782.546 21.6101C784.001 21.5478 785.417 21.5467 786.795 21.6007C784.214 18.2561 791.691 0.278876 789.166 2.85227C781.087 11.0871 780.254 18.859 780.847 21.7155Z" fill="#CBC5EA"/>
<path d="M800.269 8.69696C794.857 11.4677 790.732 18.564 789.346 21.7658C790.812 21.8986 792.23 22.0934 793.601 22.3417C794.41 18.1005 807.035 5.2335 800.269 8.69696Z" fill="#CBC5EA"/>
<path d="M770.992 57.7231C769.591 59.333 767.144 64.2489 768.569 71.0338C769.434 72.7252 771.029 61.6626 775.249 58.5979C773.841 58.3819 772.421 58.0927 770.992 57.7231Z" fill="#CBC5EA"/>
<path d="M778.652 58.9831C777.637 61.3441 776.446 70.1321 778.865 72.2289C779.226 72.542 779.714 72.2393 779.812 71.7715C781.26 64.893 781.314 63.9212 782.902 59.0904C781.503 59.1216 780.086 59.0885 778.652 58.9831Z" fill="#CBC5EA"/>
<path d="M786.039 58.913C785.02 61.7746 784.519 68.333 790.67 71.6738C793.235 73.3491 787.825 69.0509 789.559 58.4621C788.404 58.6531 787.229 58.8052 786.039 58.913Z" fill="#CBC5EA"/>
<path d="M774.964 28.6265C765.367 31.5084 758.328 38.3671 754.715 43.9693C762.697 49.3321 770.87 51.571 778.584 51.8755C780.602 51.9552 782.588 51.9025 784.532 51.7387C797.447 50.6504 808.463 44.6563 814.164 40.0062C804.493 31.8433 795.579 28.2063 787.7 27.4168C783.08 26.9538 778.816 27.4699 774.964 28.6265Z" fill="#EAEAEA"/>
<path d="M961.382 21.1999C961.956 21.2136 962.523 21.2381 963.082 21.2731C964.247 21.3458 965.381 21.4636 966.485 21.6222C968.267 21.8784 969.969 22.241 971.593 22.6926C985.663 26.6045 993.822 37.1872 996.429 42.9608L989.631 43.0253C985.912 37.4931 978.744 30.7697 969.095 28.0707C965.222 26.9874 960.95 26.5525 956.34 27.103C948.478 28.0419 939.635 31.8472 930.122 40.1917C935.91 44.7324 947.036 50.5159 959.969 51.3588C961.915 51.4856 963.902 51.5006 965.917 51.3827C973.624 50.9318 981.752 48.5383 989.631 43.0253L996.429 42.9608C988.906 50.6276 981.15 54.9848 973.619 57.0847C972.197 57.4813 970.783 57.7974 969.38 58.0401C968.24 58.2372 967.108 58.3858 965.985 58.4898C964.554 58.6223 963.137 58.6824 961.738 58.6777C960.681 58.6743 959.634 58.6338 958.599 58.5599C957.406 58.4747 956.229 58.345 955.07 58.1759C936.477 55.464 922.497 42.6312 922.483 41.1134C922.462 38.9617 932.026 25.82 950.344 22.1412C951.71 21.8669 953.124 21.6452 954.587 21.4846C955.42 21.3931 956.269 21.3214 957.134 21.2711C958.511 21.1911 959.927 21.1652 961.382 21.1999Z" fill="#CBC5EA"/>
<path d="M968.933 10.9317C973.069 17.0107 972.43 21.3052 971.593 22.6926C969.969 22.241 968.267 21.8784 966.485 21.6222C970.697 17.8037 963.762 3.33307 968.933 10.9317Z" fill="#CBC5EA"/>
<path d="M963.082 21.2731C962.523 21.2381 961.956 21.2136 961.382 21.1999C959.927 21.1652 958.511 21.1911 957.134 21.2711C959.651 17.8784 951.834 0.0475721 954.407 2.5724C962.642 10.6518 963.622 18.406 963.082 21.2731Z" fill="#CBC5EA"/>
<path d="M943.418 8.6264C948.882 11.2937 953.141 18.31 954.587 21.4846C953.124 21.6452 951.71 21.8669 950.344 22.1412C949.455 17.9164 936.588 5.29223 943.418 8.6264Z" fill="#CBC5EA"/>
<path d="M973.619 57.0847C975.051 58.6676 977.589 63.5358 976.295 70.3461C975.461 72.0535 973.657 61.0239 969.38 58.0401C970.783 57.7974 972.197 57.4813 973.619 57.0847Z" fill="#CBC5EA"/>
<path d="M965.985 58.4898C967.039 60.8184 968.388 69.5004 966.061 71.7013C965.694 72.0491 965.169 71.7397 965.056 71.2466C963.489 64.4429 963.413 63.4654 961.738 58.6777C963.137 58.6824 964.554 58.6223 965.985 58.4898Z" fill="#CBC5EA"/>
<path d="M958.599 58.5599C959.672 61.4014 960.296 67.9487 954.211 71.4055C951.678 73.129 957.005 68.7292 955.07 58.1759C956.229 58.345 957.406 58.4747 958.599 58.5599Z" fill="#CBC5EA"/>
<path d="M969.095 28.0707C978.744 30.7697 985.912 37.4931 989.631 43.0253C981.752 48.5383 973.624 50.9318 965.917 51.3827C963.902 51.5006 961.915 51.4856 959.969 51.3588C947.036 50.5159 935.91 44.7324 930.122 40.1917C939.635 31.8472 948.478 28.0419 956.34 27.103C960.95 26.5525 965.222 26.9874 969.095 28.0707Z" fill="#EAEAEA"/>
<path d="M965.026 27.1417C960.163 32.1849 953.312 44.7838 967.526 51.3294C969.541 51.4474 974.526 50.1419 976.525 49.642C986.025 44.142 979.974 33.1099 978.525 32.142C977.026 31.1396 970.524 27.641 965.026 27.1417Z" fill="#73628A"/>
<path d="M801.528 31.6433C804.023 33.1359 812.364 42.8669 798.027 49.142C796.027 49.642 793.526 50.6402 791.526 50.6402C776.652 41.984 783.386 32.1441 788.527 27.6435C796.027 28.1406 801.528 31.6433 801.528 31.6433Z" fill="#73628A"/>
</svg>
