<svg width="1799" height="161" viewBox="0 0 1799 161" fill="none" xmlns="http://www.w3.org/2000/svg">
<path d="M596.143 68.7297C595.229 69.9405 592.333 70.6757 591 70.8919C593.971 71.4108 595.19 71.8649 596.143 72.9459C597.286 74.2432 597.794 77.3063 598.048 79C598.143 77.5225 598.638 74.2432 599.857 72.9459C601.076 71.6486 603.794 71.036 605 70.8919C603.762 71 600.72 69.7087 599.857 68.7297C598.714 67.4324 598.238 64.6937 597.952 63C597.762 64.4054 597.286 67.2162 596.143 68.7297Z" fill="#EAEAEA"/>
<path d="M1217.14 136.73C1216.23 137.941 1213.33 138.676 1212 138.892C1214.97 139.411 1216.19 139.865 1217.14 140.946C1218.29 142.243 1218.79 145.306 1219.05 147C1219.14 145.523 1219.64 142.243 1220.86 140.946C1222.08 139.649 1224.79 139.036 1226 138.892C1224.76 139 1221.72 137.709 1220.86 136.73C1219.71 135.432 1219.24 132.694 1218.95 131C1218.76 132.405 1218.29 135.216 1217.14 136.73Z" fill="#EAEAEA"/>
<path d="M1498.14 70.7297C1497.23 71.9405 1494.33 72.6757 1493 72.8919C1495.97 73.4108 1497.19 73.8649 1498.14 74.9459C1499.29 76.2432 1499.79 79.3063 1500.05 81C1500.14 79.5225 1500.64 76.2432 1501.86 74.9459C1503.08 73.6486 1505.79 73.036 1507 72.8919C1505.76 73 1502.72 71.7087 1501.86 70.7297C1500.71 69.4324 1500.24 66.6937 1499.95 65C1499.76 66.4054 1499.29 69.2162 1498.14 70.7297Z" fill="#EAEAEA"/>
<path d="M357.122 49.3986C354.967 52.6527 348.143 54.6284 345 55.2095C352.004 56.6041 354.878 57.8243 357.122 60.7297C359.816 64.2162 361.014 72.4482 361.612 77C361.837 73.0293 363.004 64.2162 365.878 60.7297C368.751 57.2432 375.156 55.5968 378 55.2095C375.082 55.5 367.91 52.0296 365.878 49.3986C363.184 45.9122 362.061 38.5518 361.388 34C360.939 37.777 359.816 45.3311 357.122 49.3986Z" fill="#EAEAEA"/>
<path d="M483.388 121.324C481.363 124.351 474.952 126.189 472 126.73C478.58 128.027 481.279 129.162 483.388 131.865C485.918 135.108 487.043 142.766 487.605 147C487.816 143.306 488.913 135.108 491.612 131.865C494.312 128.622 500.329 127.09 503 126.73C500.259 127 493.522 123.772 491.612 121.324C489.082 118.081 488.027 111.234 487.395 107C486.973 110.514 485.918 117.541 483.388 121.324Z" fill="#EAEAEA"/>
<path d="M1076.35 61.1622C1075.04 62.6757 1070.9 63.5946 1069 63.8649C1073.24 64.5135 1074.99 65.0811 1076.35 66.4324C1077.98 68.0541 1078.71 71.8829 1079.07 74C1079.2 72.1532 1079.91 68.0541 1081.65 66.4324C1083.39 64.8108 1087.28 64.045 1089 63.8649C1087.23 64 1082.89 62.3859 1081.65 61.1622C1080.02 59.5405 1079.34 56.1171 1078.93 54C1078.66 55.7568 1077.98 59.2703 1076.35 61.1622Z" fill="#EAEAEA"/>
<path d="M1418.35 143.162C1417.04 144.676 1412.9 145.595 1411 145.865C1415.24 146.514 1416.99 147.081 1418.35 148.432C1419.98 150.054 1420.71 153.883 1421.07 156C1421.2 154.153 1421.91 150.054 1423.65 148.432C1425.39 146.811 1429.28 146.045 1431 145.865C1429.23 146 1424.89 144.386 1423.65 143.162C1422.02 141.541 1421.34 138.117 1420.93 136C1420.66 137.757 1419.98 141.27 1418.35 143.162Z" fill="#EAEAEA"/>
<path d="M737.49 125.176C735.269 127.749 728.238 129.311 725 129.77C732.216 130.873 735.177 131.838 737.49 134.135C740.265 136.892 741.499 143.401 742.116 147C742.347 143.86 743.55 136.892 746.51 134.135C749.471 131.378 756.07 130.077 759 129.77C755.993 130 748.605 127.256 746.51 125.176C743.735 122.419 742.578 116.599 741.884 113C741.422 115.986 740.265 121.959 737.49 125.176Z" fill="#EAEAEA"/>
<path d="M1665.69 135.324C1663.08 138.351 1654.81 140.189 1651 140.73C1659.49 142.027 1662.97 143.162 1665.69 145.865C1668.96 149.108 1670.41 156.766 1671.14 161C1671.41 157.306 1672.82 149.108 1676.31 145.865C1679.79 142.622 1687.55 141.09 1691 140.73C1687.46 141 1678.77 137.772 1676.31 135.324C1673.04 132.081 1671.68 125.234 1670.86 121C1670.32 124.514 1668.96 131.541 1665.69 135.324Z" fill="#EAEAEA"/>
<path d="M5.14286 19.8784C4.22857 21.5432 1.33333 22.5541 0 22.8514C2.97143 23.5649 4.19048 24.1892 5.14286 25.6757C6.28571 27.4595 6.79365 31.6712 7.04762 34C7.14286 31.9685 7.6381 27.4595 8.85714 25.6757C10.0762 23.8919 12.7937 23.0496 14 22.8514C12.7619 23 9.71956 21.2244 8.85714 19.8784C7.71429 18.0946 7.2381 14.3288 6.95238 12C6.7619 13.9324 6.28571 17.7973 5.14286 19.8784Z" fill="#EAEAEA"/>
<path d="M1790.14 71.8784C1789.23 73.5432 1786.33 74.5541 1785 74.8514C1787.97 75.5649 1789.19 76.1892 1790.14 77.6757C1791.29 79.4595 1791.79 83.6712 1792.05 86C1792.14 83.9685 1792.64 79.4595 1793.86 77.6757C1795.08 75.8919 1797.79 75.0496 1799 74.8514C1797.76 75 1794.72 73.2244 1793.86 71.8784C1792.71 70.0946 1792.24 66.3288 1791.95 64C1791.76 65.9324 1791.29 69.7973 1790.14 71.8784Z" fill="#EAEAEA"/>
<path d="M966.694 135.324C964.082 138.351 955.81 140.189 952 140.73C960.49 142.027 963.973 143.162 966.694 145.865C969.959 149.108 971.41 156.766 972.136 161C972.408 157.306 973.823 149.108 977.306 145.865C980.789 142.622 988.553 141.09 992 140.73C988.463 141 979.77 137.772 977.306 135.324C974.041 132.081 972.68 125.234 971.864 121C971.32 124.514 969.959 131.541 966.694 135.324Z" fill="#EAEAEA"/>
<path d="M1605.02 22.7432C1603.06 25.0135 1596.86 26.3919 1594 26.7973C1600.37 27.7703 1602.98 28.6216 1605.02 30.6486C1607.47 33.0811 1608.56 38.8243 1609.1 42C1609.31 39.2297 1610.37 33.0811 1612.98 30.6486C1615.59 28.2162 1621.41 27.0676 1624 26.7973C1621.35 27 1614.83 24.5788 1612.98 22.7432C1610.53 20.3108 1609.51 15.1757 1608.9 12C1608.49 14.6351 1607.47 19.9054 1605.02 22.7432Z" fill="#EAEAEA"/>
<path d="M839.367 29.9054C836.102 33.6892 825.762 35.9865 821 36.6622C831.612 38.2838 835.966 39.7027 839.367 43.0811C843.449 47.1351 845.263 56.7072 846.17 62C846.51 57.3829 848.279 47.1351 852.633 43.0811C856.986 39.027 866.692 37.1126 871 36.6622C866.578 37 855.713 32.9647 852.633 29.9054C848.551 25.8514 846.85 17.2928 845.83 12C845.15 16.3919 843.449 25.1757 839.367 29.9054Z" fill="#EAEAEA"/>
<path d="M1303.94 44.4122C1300.22 48.7257 1288.43 51.3446 1283 52.1149C1295.1 53.9635 1300.06 55.5811 1303.94 59.4324C1308.59 64.0541 1310.66 74.9662 1311.69 81C1312.08 75.7365 1314.1 64.0541 1319.06 59.4324C1324.02 54.8108 1335.09 52.6284 1340 52.1149C1334.96 52.5 1322.57 47.8997 1319.06 44.4122C1314.41 39.7905 1312.47 30.0338 1311.31 24C1310.53 29.0068 1308.59 39.0203 1303.94 44.4122Z" fill="#EAEAEA"/>
<path d="M188.653 10.3851C186.759 12.5797 180.762 13.9122 178 14.3041C184.155 15.2446 186.68 16.0676 188.653 18.027C191.02 20.3784 192.073 25.9302 192.599 29C192.796 26.3221 193.822 20.3784 196.347 18.027C198.872 15.6757 204.501 14.5653 207 14.3041C204.435 14.5 198.133 12.1595 196.347 10.3851C193.98 8.03378 192.993 3.06982 192.401 0C192.007 2.5473 191.02 7.64189 188.653 10.3851Z" fill="#EAEAEA"/>
</svg>
