<svg width="445" height="320" viewBox="0 0 445 320" fill="none" xmlns="http://www.w3.org/2000/svg">
<path fill-rule="evenodd" clip-rule="evenodd" d="M71.5849 71.833C60.2368 109.098 56.3121 122.607 55.7682 124.703C17.4868 125.067 4.62084 158.454 2.2535 173.54C-0.113844 188.625 17.4708 189.714 13.8657 206.694C10.9816 220.279 15.3057 226.137 17.8283 227.369C10.4502 243.548 -1.28161 277.133 10.8156 282.04C25.9371 288.172 10.2535 288.949 18.5014 298.285C26.7493 307.622 37.9813 300.611 36.8095 309.409C35.6378 318.207 43.1926 320.646 77.6797 317.18C105.269 314.408 80.29 305.649 64.3516 301.616L46.0147 287.354C57.1258 289.759 80.486 295.437 85.0379 298.909C90.7278 303.248 95.7306 301.318 103.25 299.991C109.265 298.93 117.12 306.554 120.296 310.499C127.625 311.267 142.661 312.798 144.167 312.783C146.05 312.765 141.645 311.552 158.56 308.253C172.092 305.614 167.892 299.587 164.101 296.903C164.071 293.765 137.683 290.878 122.633 292.276C107.583 293.674 78.5357 275.12 87.3635 279.43C96.1914 283.74 116.925 286.053 122.58 286.627C128.234 287.201 130.11 286.556 134.486 284.632C138.861 282.707 154.664 294.482 164.024 288.745C173.384 283.007 170.79 274.245 163.887 274.31C156.983 274.376 137.487 270.167 126.8 268.386C116.113 266.604 113.053 274.793 99.8317 270.525C81.7098 265.676 80.0365 256.905 81.4651 253.125C85.2107 250.998 92.4593 247.623 91.4885 251.147C89.7249 263.717 110.423 262.265 119.837 262.176C129.251 262.086 138.096 268.279 139.979 268.261C141.862 268.243 158.209 271.293 195.834 267.731C225.933 264.881 248.988 269.287 256.753 271.846C263.747 271.015 271.541 271.405 273.068 271.391C274.382 271.378 273.799 270.868 278.077 270.155C279.33 269.926 345.623 244.969 349.352 241.168C353.082 237.367 359.358 237.307 362.52 239.788C365.681 242.268 360.673 243.571 360.714 247.964C360.756 252.357 346.346 255.004 341.331 255.68C336.316 256.355 342.687 266.337 306.927 267.931C289.889 268.691 281.97 269.507 278.077 270.155C273.799 270.868 274.382 271.378 273.068 271.391C271.541 271.405 263.747 271.015 256.753 271.846C252.244 272.382 248.067 273.426 246.118 275.413C234.216 291.091 264.679 291.346 281.399 289.513L292.02 284.391L313.986 284.183L327.093 276.527L332.108 275.852L343.984 270.718C333.596 278.348 311.941 293.617 308.427 293.65C304.034 293.692 295.893 295.652 289.635 297.594C283.377 299.537 244.509 304.299 261.501 309.159C287.647 312.928 305.878 311.667 311.725 310.565C314.624 307.399 321.675 300.805 326.686 299.753C332.95 298.438 346.786 301.445 356.17 298.218C363.677 295.636 373.815 283.615 377.945 277.927C376.506 280.66 373.64 287.257 373.683 291.775C373.737 297.424 394.471 299.737 381.955 303.622C371.942 306.73 374.91 310.802 377.645 312.45C413.453 315.876 427.2 309.469 427.176 306.959C427.157 304.95 418.307 298.256 413.884 295.16L413.801 286.374C409.736 281.391 413.271 274.663 415.546 271.921C414.124 254.361 440.477 253.483 433.52 247.901C427.954 243.434 429.818 232.663 431.446 227.836L431.137 195.202C449.158 176.201 441.502 163.094 439.595 160.601C437.688 158.109 430.66 144.995 430.618 140.602C430.577 136.209 422.317 125.618 412.198 117.554C387.627 107.745 376.176 91.5356 366.661 80.957C357.146 70.3784 349.359 43.4621 343.029 37.8735C336.7 32.2848 352.282 20.8393 332.72 9.72748C313.158 -1.38428 293.697 -1.82718 277.582 19.6654C264.691 36.8595 238.452 40.9581 226.945 40.8581C215.224 40.3418 189.778 39.7046 181.759 41.2871C171.736 43.2651 140.053 11.5564 111.811 11.8245C83.5684 12.0926 85.7699 25.2521 71.5849 71.833ZM243.75 92.165C241.471 94.488 238.794 98.9906 246.32 98.417C255.728 97.7001 248.101 87.7303 243.75 92.165ZM172.893 99.114C174.168 101.194 177.585 104.091 181.051 99.0366C185.385 92.7191 170.299 90.3517 172.893 99.114Z" fill="#698F40"/>
<path d="M243.75 92.165C241.471 94.488 238.794 98.9906 246.32 98.417C255.728 97.7001 248.101 87.7303 243.75 92.165Z" fill="#EAEAEA"/>
<path d="M172.893 99.114C174.168 101.194 177.585 104.091 181.051 99.0366C185.385 92.7191 170.299 90.3517 172.893 99.114Z" fill="#EAEAEA"/>
<path d="M133.774 214.424C133.449 214.865 133.679 215.141 133.774 214.424Z" fill="#73628A"/>
<path d="M86.4694 93.6555C79.0126 102.673 68.8377 121.77 83.1137 130.718M341.68 87.467C349.916 88.6441 354.966 105.542 359.431 113.032C361.545 116.577 359.151 119.462 356.046 121.85M83.1137 130.718C84.1939 131.395 85.414 132.014 86.7859 132.566C111.165 142.377 184.036 149.217 192.869 154.154C201.703 159.091 201.614 149.677 209.157 150.861C216.7 152.045 219.264 157.669 225.521 155.727C231.779 153.785 297.574 142.49 299.415 138.079C301.256 133.668 348.307 131.339 348.277 128.201C348.262 126.548 352.593 124.507 356.046 121.85M83.1137 130.718C79.6041 138.309 77.4887 154.395 94.4058 162.149C94.0758 171.514 95.6766 190.35 104.72 190.766C116.025 191.286 133.756 208.064 133.81 213.712M356.046 121.85C357.849 148.194 344.224 164.015 340.182 165.308C336.139 166.602 334.379 184.82 334.415 188.586C334.451 192.351 325.683 194.317 313.22 203.85C300.758 213.383 288.792 209.103 283.239 219.198C278.796 227.274 269.29 226.444 265.093 225.019L270.215 235.64C251.446 242.095 239.475 237.187 226.26 233.547C213.045 229.906 195.664 250.156 179.192 233.994C130.484 202.388 133.368 217.491 133.774 214.424" stroke="#CBC5EA" stroke-width="1.99713"/>
<path d="M113.683 49.5624C108.923 54.6901 102.982 66.512 117.298 72.7781C119.312 72.8576 121.296 72.805 123.236 72.6415C138.09 63.9977 131.534 52.8485 126.4 48.3544C121.787 47.8921 117.529 48.4074 113.683 49.5624Z" fill="#73628A"/>
<path d="M121.254 42.5561C120.681 42.5806 120.116 42.6158 119.558 42.6614C118.396 42.756 117.266 42.8951 116.167 43.0744C114.393 43.364 112.699 43.7583 111.087 44.24C97.1127 48.4126 89.1667 59.1335 86.6741 64.9476L93.4622 64.8832C97.0706 59.289 104.1 52.4402 113.683 49.5624C117.529 48.4074 121.787 47.8921 126.4 48.3544C134.268 49.1428 143.169 52.7746 152.826 60.9258C147.133 65.5692 136.134 71.5547 123.236 72.6415C121.296 72.805 119.312 72.8576 117.298 72.7781C109.595 72.474 101.433 70.2383 93.4622 64.8832L86.6741 64.9476C94.3305 72.4599 102.157 76.6634 109.716 78.6173C111.143 78.9863 112.561 79.2751 113.967 79.4908C115.108 79.666 116.242 79.7929 117.365 79.8755C118.797 79.9807 120.212 80.0137 121.609 79.9826C122.664 79.9591 123.709 79.8989 124.741 79.8054C125.93 79.6978 127.103 79.5459 128.257 79.3552C146.77 76.295 160.485 63.217 160.47 61.7013C160.45 59.5525 150.652 46.6125 132.292 43.2866C130.924 43.0386 129.507 42.8441 128.044 42.7115C127.21 42.6359 126.361 42.5805 125.497 42.5466C124.121 42.4928 122.706 42.4938 121.254 42.5561Z" fill="#CBC5EA"/>
<path d="M152.826 60.9258C143.169 52.7746 134.268 49.1428 126.4 48.3544C131.534 52.8485 138.09 63.9977 123.236 72.6415C136.134 71.5547 147.133 65.5692 152.826 60.9258Z" fill="#EAEAEA"/>
<path d="M113.683 49.5624C104.1 52.4402 97.0706 59.289 93.4622 64.8832C101.433 70.2383 109.595 72.474 117.298 72.7781C102.982 66.512 108.923 54.6901 113.683 49.5624Z" fill="#EAEAEA"/>
<path d="M113.52 32.4469C109.506 38.5949 110.225 42.8706 111.087 44.24C112.699 43.7583 114.393 43.364 116.167 43.0744C111.889 39.3417 118.539 24.762 113.52 32.4469Z" fill="#CBC5EA"/>
<path d="M119.558 42.6614C120.116 42.6158 120.681 42.5806 121.254 42.5561C122.706 42.4938 124.121 42.4928 125.497 42.5466C122.919 39.2068 130.386 21.2554 127.865 23.8251C119.796 32.0482 118.965 39.8089 119.558 42.6614Z" fill="#CBC5EA"/>
<path d="M138.952 29.6614C133.547 32.4282 129.428 39.5143 128.044 42.7115C129.507 42.8441 130.924 43.0386 132.292 43.2866C133.101 39.0515 145.708 26.203 138.952 29.6614Z" fill="#CBC5EA"/>
<path d="M109.716 78.6173C108.317 80.2248 105.874 85.1337 107.296 91.9089C108.161 93.5978 109.753 82.5511 113.967 79.4908C112.561 79.2751 111.143 78.9863 109.716 78.6173Z" fill="#CBC5EA"/>
<path d="M117.365 79.8755C116.352 82.2331 115.162 91.0085 117.578 93.1023C117.939 93.4149 118.425 93.1127 118.524 92.6455C119.969 85.7768 120.023 84.8065 121.609 79.9826C120.212 80.0137 118.797 79.9807 117.365 79.8755Z" fill="#CBC5EA"/>
<path d="M124.741 79.8054C123.724 82.6629 123.224 89.2119 129.366 92.548C131.927 94.2208 126.525 89.9288 128.257 79.3552C127.103 79.5459 125.93 79.6978 124.741 79.8054Z" fill="#CBC5EA"/>
<path d="M307.534 49.0098C312.39 54.0458 318.554 65.752 304.361 72.2883C302.348 72.4061 300.364 72.3911 298.421 72.2645C283.408 63.9048 289.749 52.6339 294.797 48.0435C299.4 47.4937 303.667 47.9281 307.534 49.0098Z" fill="#73628A"/>
<path d="M299.832 42.1488C300.405 42.1625 300.971 42.187 301.53 42.2219C302.693 42.2945 303.825 42.4121 304.928 42.5705C306.707 42.8263 308.407 43.1885 310.029 43.6393C324.079 47.5457 332.226 58.1132 334.828 63.8785L328.041 63.9429C324.327 58.4186 317.17 51.7049 307.534 49.0098C303.667 47.9281 299.4 47.4937 294.797 48.0435C286.947 48.981 278.116 52.7809 268.617 61.1134C274.396 65.6476 285.506 71.4228 298.421 72.2645C300.364 72.3911 302.348 72.4061 304.361 72.2883C312.056 71.8381 320.173 69.4481 328.041 63.9429L334.828 63.8785C327.316 71.5343 319.572 75.8853 312.052 77.9822C310.632 78.3782 309.219 78.6939 307.818 78.9362C306.68 79.133 305.55 79.2814 304.428 79.3852C302.999 79.5176 301.584 79.5775 300.188 79.5729C299.132 79.5694 298.086 79.5291 297.053 79.4552C295.862 79.3701 294.687 79.2406 293.529 79.0718C274.963 76.3638 261.003 63.5494 260.989 62.0338C260.968 59.8852 270.518 46.7623 288.81 43.0887C290.174 42.8149 291.586 42.5935 293.047 42.4332C293.879 42.3418 294.727 42.2702 295.59 42.22C296.965 42.14 298.379 42.1142 299.832 42.1488Z" fill="#CBC5EA"/>
<path d="M268.617 61.1134C278.116 52.7809 286.947 48.981 294.797 48.0435C289.749 52.6339 283.408 63.9048 298.421 72.2645C285.506 71.4228 274.396 65.6476 268.617 61.1134Z" fill="#EAEAEA"/>
<path d="M307.534 49.0098C317.17 51.7049 324.327 58.4186 328.041 63.9429C320.173 69.4481 312.056 71.8381 304.361 72.2883C318.554 65.752 312.39 54.0458 307.534 49.0098Z" fill="#EAEAEA"/>
<path d="M307.372 31.8954C311.502 37.9656 310.864 42.2539 310.029 43.6393C308.407 43.1885 306.707 42.8263 304.928 42.5705C309.134 38.7575 302.209 24.3076 307.372 31.8954Z" fill="#CBC5EA"/>
<path d="M301.53 42.2219C300.971 42.187 300.405 42.1625 299.832 42.1488C298.379 42.1142 296.965 42.14 295.59 42.22C298.104 38.8321 290.298 21.0268 292.868 23.548C301.09 31.6159 302.069 39.3589 301.53 42.2219Z" fill="#CBC5EA"/>
<path d="M281.894 29.5934C287.35 32.2569 291.602 39.263 293.047 42.4332C291.586 42.5935 290.174 42.8149 288.81 43.0887C287.922 38.87 275.074 26.264 281.894 29.5934Z" fill="#CBC5EA"/>
<path d="M312.052 77.9822C313.481 79.5627 316.016 84.424 314.723 91.2245C313.891 92.9295 312.089 81.9157 307.818 78.9362C309.219 78.6939 310.632 78.3782 312.052 77.9822Z" fill="#CBC5EA"/>
<path d="M304.428 79.3852C305.481 81.7105 306.828 90.38 304.504 92.5778C304.137 92.9251 303.614 92.6162 303.501 92.1237C301.936 85.3298 301.861 84.3537 300.188 79.5729C301.584 79.5775 302.999 79.5176 304.428 79.3852Z" fill="#CBC5EA"/>
<path d="M297.053 79.4552C298.124 82.2927 298.748 88.8306 292.671 92.2824C290.142 94.0035 295.461 89.6099 293.529 79.0718C294.687 79.2406 295.862 79.3701 297.053 79.4552Z" fill="#CBC5EA"/>
</svg>
