<svg width="445" height="319" viewBox="0 0 445 319" fill="none" xmlns="http://www.w3.org/2000/svg">
<path fill-rule="evenodd" clip-rule="evenodd" d="M71.2789 70.9952C59.9146 108.313 55.9842 121.842 55.4395 123.942C17.1031 124.306 4.21869 157.741 1.84795 172.848C-0.522797 187.955 17.0871 189.045 13.4768 206.05C10.5886 219.654 14.9189 225.521 17.4451 226.754C10.0564 242.957 -1.69224 276.591 10.4223 281.504C25.5656 287.645 9.85948 288.423 18.1192 297.773C26.379 307.122 37.6271 300.102 36.4536 308.912C35.2802 317.723 42.8458 320.165 77.3825 316.695C105.012 313.918 79.9965 305.147 64.0352 301.108L45.672 286.826C56.7991 289.235 80.1928 294.921 84.7513 298.397C90.4494 302.743 95.4593 300.81 102.989 299.481C109.013 298.418 116.879 306.054 120.06 310.004C127.4 310.773 142.457 312.306 143.966 312.292C145.851 312.274 141.44 311.059 158.379 307.755C171.93 305.112 167.725 299.076 163.928 296.389C163.898 293.246 137.472 290.354 122.401 291.755C107.329 293.155 78.2397 274.575 87.0802 278.891C95.9208 283.206 116.685 285.523 122.347 286.098C128.009 286.673 129.889 286.027 134.27 284.099C138.652 282.172 154.477 293.964 163.85 288.218C173.224 282.473 170.627 273.698 163.713 273.763C156.8 273.829 137.275 269.615 126.573 267.83C115.871 266.046 112.806 274.247 99.5664 269.972C81.4184 265.116 79.7427 256.333 81.1733 252.548C84.9244 250.417 92.1833 247.038 91.2112 250.567C89.445 263.155 110.173 261.701 119.6 261.611C129.027 261.522 137.886 267.723 139.771 267.705C141.657 267.687 158.028 270.742 195.706 267.174C225.849 264.32 248.937 268.733 256.714 271.296C263.718 270.464 271.523 270.854 273.051 270.84C274.367 270.827 273.784 270.316 278.068 269.602C279.323 269.373 345.71 244.38 349.446 240.573C353.181 236.767 359.465 236.707 362.632 239.191C365.798 241.675 360.782 242.98 360.824 247.379C360.866 251.779 346.434 254.43 341.412 255.106C336.391 255.782 342.771 265.778 306.959 267.375C289.897 268.136 281.967 268.953 278.068 269.602C273.784 270.316 274.367 270.827 273.051 270.84C271.523 270.854 263.718 270.464 256.714 271.296C252.198 271.833 248.015 272.878 246.062 274.867C234.143 290.568 264.651 290.823 281.394 288.988L292.031 283.859L314.028 283.65L327.154 275.983L332.176 275.307L344.07 270.166C333.666 277.807 311.981 293.098 308.461 293.131C304.062 293.173 295.909 295.136 289.642 297.081C283.375 299.026 244.451 303.795 261.468 308.662C287.651 312.436 305.909 311.173 311.764 310.07C314.668 306.9 321.728 300.296 326.747 299.243C333.019 297.926 346.876 300.937 356.273 297.705C363.791 295.12 373.943 283.081 378.079 277.385C376.639 280.123 373.768 286.729 373.811 291.254C373.865 296.91 394.629 299.227 382.095 303.117C372.068 306.229 375.04 310.308 377.779 311.958C413.638 315.389 427.405 308.972 427.381 306.459C427.362 304.447 418.499 297.743 414.07 294.643L413.986 285.844C409.916 280.854 413.456 274.116 415.734 271.371C414.31 253.785 440.701 252.906 433.734 247.316C428.16 242.843 430.027 232.056 431.657 227.222L431.347 194.541C449.394 175.514 441.727 162.387 439.818 159.891C437.908 157.395 430.87 144.263 430.828 139.863C430.786 135.464 422.515 124.857 412.381 116.782C387.775 106.959 376.307 90.7261 366.779 80.1324C357.25 69.5386 349.452 42.5836 343.113 36.9869C336.775 31.3903 352.379 19.9282 332.789 8.8005C313.199 -2.32723 293.71 -2.77076 277.572 18.7527C264.662 35.9715 238.386 40.076 226.862 39.9759C215.124 39.4588 189.642 38.8207 181.611 40.4054C171.574 42.3863 139.845 10.632 111.562 10.9005C83.2797 11.169 85.4843 24.3474 71.2789 70.9952ZM243.691 91.3565C241.409 93.6828 238.728 98.1918 246.265 97.6174C255.686 96.8995 248.049 86.9153 243.691 91.3565ZM172.732 98.3154C174.009 100.398 177.431 103.299 180.903 98.2379C185.242 91.9113 170.135 89.5406 172.732 98.3154Z" fill="#698F40"/>
<path d="M243.691 91.3565C241.409 93.6828 238.728 98.1918 246.265 97.6174C255.686 96.8995 248.049 86.9153 243.691 91.3565Z" fill="#EAEAEA"/>
<path d="M172.732 98.3154C174.009 100.398 177.431 103.299 180.903 98.2379C185.242 91.9113 170.135 89.5406 172.732 98.3154Z" fill="#EAEAEA"/>
<path d="M86.186 92.8521C78.7186 101.883 68.529 121.007 82.8256 129.968M341.763 86.6548C350.011 87.8336 355.068 104.756 359.54 112.256C361.657 115.807 359.259 118.696 356.15 121.088M82.8256 129.968C83.9073 130.646 85.1292 131.266 86.5031 131.819C110.917 141.643 183.892 148.493 192.739 153.437C201.585 158.382 201.496 148.955 209.05 150.14C216.603 151.325 219.171 156.958 225.438 155.013C231.705 153.068 297.594 141.757 299.438 137.34C301.281 132.922 348.4 130.59 348.37 127.447C348.354 125.792 352.692 123.748 356.15 121.088M82.8256 129.968C79.311 137.57 77.1925 153.679 94.1339 161.444C93.8034 170.823 95.4065 189.685 104.463 190.102C115.784 190.623 133.541 207.425 133.594 213.081M356.15 121.088C357.955 147.469 344.311 163.312 340.263 164.608C336.215 165.903 334.452 184.148 334.488 187.919C334.524 191.689 325.743 193.658 313.263 203.205C300.783 212.752 288.8 208.465 283.238 218.575C278.789 226.662 269.27 225.831 265.066 224.404L270.195 235.041C251.4 241.505 239.412 236.59 226.178 232.944C212.944 229.299 195.538 249.577 179.042 233.392C130.264 201.741 133.152 216.865 133.559 213.794" stroke="#CBC5EA" stroke-width="2"/>
<path d="M113.437 48.6969C108.67 53.8319 102.721 65.6708 117.057 71.9459C119.075 72.0255 121.061 71.9728 123.004 71.8091C137.879 63.1529 131.314 51.9877 126.173 47.4871C121.553 47.0241 117.289 47.5402 113.437 48.6969Z" fill="#73628A"/>
<path d="M121.019 41.6804C120.445 41.705 119.879 41.7403 119.32 41.7859C118.157 41.8807 117.025 42.02 115.925 42.1995C114.148 42.4895 112.452 42.8844 110.837 43.3667C96.8431 47.5454 88.8857 58.2817 86.3895 64.1041L93.1874 64.0396C96.8009 58.4374 103.84 51.5787 113.437 48.6969C117.289 47.5402 121.553 47.0241 126.173 47.4871C134.052 48.2767 142.965 51.9137 152.636 60.0765C146.935 64.7266 135.92 70.7207 123.004 71.8091C121.061 71.9728 119.075 72.0255 117.057 71.9459C109.343 71.6414 101.17 69.4025 93.1874 64.0396L86.3895 64.1041C94.0569 71.6272 101.895 75.8367 109.464 77.7935C110.894 78.163 112.314 78.4522 113.722 78.6682C114.865 78.8436 116 78.9708 117.124 79.0534C118.558 79.1588 119.976 79.1919 121.375 79.1607C122.432 79.1372 123.478 79.0769 124.511 78.9833C125.702 78.8755 126.876 78.7234 128.032 78.5324C146.572 75.4678 160.306 62.371 160.292 60.8532C160.271 58.7013 150.46 45.7427 132.073 42.412C130.703 42.1637 129.284 41.9689 127.819 41.8361C126.984 41.7604 126.133 41.7048 125.268 41.671C123.89 41.6171 122.473 41.6181 121.019 41.6804Z" fill="#CBC5EA"/>
<path d="M152.636 60.0765C142.965 51.9137 134.052 48.2767 126.173 47.4871C131.314 51.9877 137.879 63.1529 123.004 71.8091C135.92 70.7207 146.935 64.7266 152.636 60.0765Z" fill="#EAEAEA"/>
<path d="M113.437 48.6969C103.84 51.5787 96.8009 58.4374 93.1874 64.0396C101.17 69.4025 109.343 71.6414 117.057 71.9459C102.721 65.6708 108.67 53.8319 113.437 48.6969Z" fill="#EAEAEA"/>
<path d="M113.274 31.5567C109.254 37.7135 109.974 41.9954 110.837 43.3667C112.452 42.8844 114.148 42.4895 115.925 42.1995C111.64 38.4615 118.3 23.8608 113.274 31.5567Z" fill="#CBC5EA"/>
<path d="M119.32 41.7859C119.879 41.7403 120.445 41.705 121.019 41.6804C122.473 41.6181 123.89 41.6171 125.268 41.671C122.687 38.3264 130.164 20.3492 127.639 22.9226C119.559 31.1574 118.726 38.9293 119.32 41.7859Z" fill="#CBC5EA"/>
<path d="M138.742 28.7673C133.33 31.538 129.205 38.6343 127.819 41.8361C129.284 41.9689 130.703 42.1637 132.073 42.412C132.883 38.1708 145.508 25.3038 138.742 28.7673Z" fill="#CBC5EA"/>
<path d="M109.464 77.7935C108.063 79.4033 105.617 84.3192 107.041 91.1041C107.907 92.7955 109.502 81.7329 113.722 78.6682C112.314 78.4522 110.894 78.163 109.464 77.7935Z" fill="#CBC5EA"/>
<path d="M117.124 79.0534C116.11 81.4144 114.918 90.2024 117.338 92.2992C117.699 92.6123 118.186 92.3096 118.285 91.8418C119.733 84.9633 119.786 83.9915 121.375 79.1607C119.976 79.1919 118.558 79.1588 117.124 79.0534Z" fill="#CBC5EA"/>
<path d="M124.511 78.9833C123.492 81.8449 122.992 88.4033 129.142 91.7441C131.708 93.4194 126.298 89.1212 128.032 78.5324C126.876 78.7234 125.702 78.8755 124.511 78.9833Z" fill="#CBC5EA"/>
<path d="M307.568 48.141C312.431 53.1843 318.604 64.9073 304.39 71.453C302.374 71.5709 300.388 71.556 298.442 71.4291C283.407 63.0574 289.758 51.7704 294.812 47.1733C299.422 46.6228 303.695 47.0578 307.568 48.141Z" fill="#73628A"/>
<path d="M299.855 41.2702C300.429 41.2839 300.995 41.3085 301.555 41.3434C302.72 41.4161 303.854 41.5339 304.957 41.6925C306.739 41.9487 308.442 42.3113 310.066 42.7629C324.136 46.6748 332.295 57.2575 334.901 63.0311L328.104 63.0956C324.385 57.5634 317.217 50.84 307.568 48.141C303.695 47.0578 299.422 46.6228 294.812 47.1733C286.951 48.1122 278.108 51.9176 268.594 60.262C274.382 64.8027 285.508 70.5862 298.442 71.4291C300.388 71.556 302.374 71.5709 304.39 71.453C312.097 71.0021 320.225 68.6087 328.104 63.0956L334.901 63.0311C327.378 70.6979 319.622 75.0551 312.092 77.155C310.67 77.5516 309.255 77.8677 307.852 78.1104C306.713 78.3075 305.581 78.4561 304.458 78.5601C303.026 78.6926 301.609 78.7527 300.211 78.7481C299.153 78.7446 298.107 78.7042 297.071 78.6302C295.879 78.545 294.702 78.4153 293.543 78.2462C274.95 75.5343 260.97 62.7015 260.955 61.1838C260.935 59.032 270.498 45.8903 288.817 42.2115C290.183 41.9372 291.597 41.7156 293.06 41.555C293.893 41.4634 294.742 41.3918 295.607 41.3415C296.983 41.2614 298.399 41.2356 299.855 41.2702Z" fill="#CBC5EA"/>
<path d="M268.594 60.262C278.108 51.9176 286.951 48.1122 294.812 47.1733C289.758 51.7704 283.407 63.0574 298.442 71.4291C285.508 70.5862 274.382 64.8027 268.594 60.262Z" fill="#EAEAEA"/>
<path d="M307.568 48.141C317.217 50.84 324.385 57.5634 328.104 63.0956C320.225 68.6087 312.097 71.0021 304.39 71.453C318.604 64.9073 312.431 53.1843 307.568 48.141Z" fill="#EAEAEA"/>
<path d="M307.405 31.0021C311.542 37.081 310.903 41.3755 310.066 42.7629C308.442 42.3113 306.739 41.9487 304.957 41.6925C309.17 37.8741 302.235 23.4034 307.405 31.0021Z" fill="#CBC5EA"/>
<path d="M301.555 41.3434C300.995 41.3085 300.429 41.2839 299.855 41.2702C298.399 41.2356 296.983 41.2614 295.607 41.3415C298.124 37.9487 290.307 20.1179 292.88 22.6427C301.114 30.7221 302.094 38.4763 301.555 41.3434Z" fill="#CBC5EA"/>
<path d="M281.891 28.6967C287.354 31.3641 291.613 38.3803 293.06 41.555C291.597 41.7156 290.183 41.9372 288.817 42.2115C287.927 37.9867 275.061 25.3625 281.891 28.6967Z" fill="#CBC5EA"/>
<path d="M312.092 77.155C313.523 78.7379 316.062 83.6061 314.767 90.4164C313.934 92.1238 312.129 81.0942 307.852 78.1104C309.255 77.8677 310.67 77.5516 312.092 77.155Z" fill="#CBC5EA"/>
<path d="M304.458 78.5601C305.511 80.8887 306.86 89.5707 304.534 91.7717C304.166 92.1194 303.642 91.8101 303.529 91.3169C301.962 84.5132 301.886 83.5357 300.211 78.7481C301.609 78.7527 303.026 78.6926 304.458 78.5601Z" fill="#CBC5EA"/>
<path d="M297.071 78.6302C298.144 81.4718 298.769 88.019 292.684 91.4758C290.151 93.1993 295.478 88.7995 293.543 78.2462C294.702 78.4153 295.879 78.545 297.071 78.6302Z" fill="#CBC5EA"/>
</svg>
