<svg width="187" height="56" viewBox="0 0 187 56" fill="none" xmlns="http://www.w3.org/2000/svg">
<path d="M20.8842 21.6142C17.3142 25.46 12.8585 34.3264 23.5953 39.0259C25.1064 39.0856 26.594 39.0461 28.0494 38.9235C39.1892 32.4407 34.2729 24.0788 30.4222 20.7082C26.9624 20.3615 23.769 20.7479 20.8842 21.6142Z" fill="#73628A"/>
<path d="M26.5623 16.3594C26.1328 16.3778 25.7088 16.4043 25.2902 16.4384C24.4191 16.5094 23.5716 16.6137 22.7474 16.7482C21.4166 16.9654 20.1467 17.2611 18.937 17.6223C8.45656 20.7518 2.49709 28.7925 0.627658 33.1531L5.71873 33.1048C8.42499 28.9091 13.6968 23.7725 20.8842 21.6142C23.769 20.7479 26.9624 20.3615 30.4222 20.7082C36.3229 21.2995 42.9988 24.0233 50.2414 30.1367C45.9718 33.6193 37.7223 38.1084 28.0494 38.9235C26.594 39.0461 25.1064 39.0856 23.5953 39.0259C17.818 38.7979 11.697 37.1211 5.71873 33.1048L0.627658 33.1531C6.36997 38.7873 12.24 41.9399 17.9089 43.4053C18.9796 43.6821 20.0432 43.8987 21.0973 44.0605C21.9534 44.1919 22.8033 44.2871 23.6458 44.349C24.7196 44.4279 25.7814 44.4527 26.8288 44.4293C27.6204 44.4117 28.4038 44.3666 29.1779 44.2965C30.0697 44.2157 30.9492 44.1018 31.8147 43.9588C45.6996 41.6636 55.9857 31.8551 55.9749 30.7184C55.9596 29.1068 48.6114 19.4017 34.8413 16.9073C33.8147 16.7214 32.7525 16.5755 31.655 16.476C31.0296 16.4193 30.3927 16.3777 29.7445 16.3524C28.7125 16.312 27.6517 16.3128 26.5623 16.3594Z" fill="#CBC5EA"/>
<path d="M50.2414 30.1367C42.9988 24.0233 36.3229 21.2995 30.4222 20.7082C34.2729 24.0788 39.1892 32.4407 28.0494 38.9235C37.7223 38.1084 45.9718 33.6193 50.2414 30.1367Z" fill="#EAEAEA"/>
<path d="M20.8842 21.6142C13.6968 23.7725 8.42499 28.9091 5.71873 33.1048C11.697 37.1211 17.818 38.7979 23.5953 39.0259C12.8585 34.3264 17.3142 25.46 20.8842 21.6142Z" fill="#EAEAEA"/>
<path d="M20.7624 8.77756C17.7512 13.3885 18.2908 16.5953 18.937 17.6223C20.1467 17.2611 21.4166 16.9654 22.7474 16.7482C19.5386 13.9487 24.5263 3.01386 20.7624 8.77756Z" fill="#CBC5EA"/>
<path d="M25.2902 16.4384C25.7088 16.4043 26.1328 16.3778 26.5623 16.3594C27.6517 16.3128 28.7125 16.312 29.7445 16.3524C27.8114 13.8475 33.4115 0.38396 31.5205 2.31123C25.4692 8.47851 24.8456 14.299 25.2902 16.4384Z" fill="#CBC5EA"/>
<path d="M39.8358 6.68846C35.7823 8.76355 32.6929 14.0781 31.655 16.476C32.7525 16.5755 33.8147 16.7214 34.8413 16.9073C35.4475 13.731 44.9027 4.0946 39.8358 6.68846Z" fill="#CBC5EA"/>
<path d="M17.9089 43.4053C16.8596 44.611 15.0276 48.2926 16.0942 53.374C16.7427 54.6408 17.9369 46.3557 21.0973 44.0605C20.0432 43.8987 18.9796 43.6821 17.9089 43.4053Z" fill="#CBC5EA"/>
<path d="M23.6458 44.349C22.8858 46.1172 21.9937 52.6987 23.8055 54.2691C24.0761 54.5036 24.4412 54.2769 24.5149 53.9265C25.599 48.775 25.6393 48.0472 26.8288 44.4293C25.7814 44.4527 24.7196 44.4279 23.6458 44.349Z" fill="#CBC5EA"/>
<path d="M29.1779 44.2965C28.4148 46.4396 28.0401 51.3513 32.6462 53.8533C34.5674 55.108 30.516 51.8889 31.8147 43.9588C30.9492 44.1018 30.0697 44.2157 29.1779 44.2965Z" fill="#CBC5EA"/>
<path d="M166.274 21.1987C169.916 24.9758 174.539 33.7554 163.894 38.6576C162.385 38.746 160.897 38.7347 159.439 38.6398C148.179 32.37 152.936 23.9168 156.721 20.474C160.174 20.0617 163.374 20.3874 166.274 21.1987Z" fill="#73628A"/>
<path d="M160.498 16.053C160.928 16.0633 161.352 16.0817 161.771 16.1078C162.643 16.1623 163.493 16.2505 164.319 16.3693C165.654 16.5611 166.929 16.8327 168.145 17.1709C178.682 20.1007 184.793 28.0263 186.745 32.3502L181.654 32.3986C178.869 28.2554 173.501 23.2201 166.274 21.1987C163.374 20.3874 160.174 20.0617 156.721 20.474C150.833 21.1772 144.211 24.0271 137.086 30.2764C141.421 33.6771 149.753 38.0085 159.439 38.6398C160.897 38.7347 162.385 38.746 163.894 38.6576C169.666 38.32 175.754 36.5274 181.654 32.3986L186.745 32.3502C181.111 38.0921 175.302 41.3553 169.662 42.928C168.597 43.2251 167.538 43.4618 166.487 43.6435C165.634 43.7911 164.786 43.9024 163.945 43.9803C162.873 44.0796 161.812 44.1245 160.764 44.1211C159.972 44.1185 159.188 44.0882 158.413 44.0328C157.52 43.969 156.639 43.8719 155.771 43.7452C141.846 41.7142 131.376 32.1034 131.365 30.9667C131.35 29.3553 138.512 19.5131 152.231 16.7579C153.254 16.5526 154.313 16.3865 155.409 16.2663C156.033 16.1977 156.669 16.144 157.316 16.1064C158.347 16.0464 159.408 16.0271 160.498 16.053Z" fill="#CBC5EA"/>
<path d="M137.086 30.2764C144.211 24.0271 150.833 21.1772 156.721 20.474C152.936 23.9168 148.179 32.37 159.439 38.6398C149.753 38.0085 141.421 33.6771 137.086 30.2764Z" fill="#EAEAEA"/>
<path d="M166.274 21.1987C173.501 23.2201 178.869 28.2554 181.654 32.3986C175.754 36.5274 169.666 38.32 163.894 38.6576C174.539 33.7554 169.916 24.9758 166.274 21.1987Z" fill="#EAEAEA"/>
<path d="M166.152 8.36295C169.25 12.9156 168.772 16.1319 168.145 17.1709C166.929 16.8327 165.654 16.5611 164.319 16.3693C167.474 13.5096 162.28 2.67212 166.152 8.36295Z" fill="#CBC5EA"/>
<path d="M161.771 16.1078C161.352 16.0817 160.928 16.0633 160.498 16.053C159.408 16.0271 158.347 16.0464 157.316 16.1064C159.201 13.5654 153.347 0.211532 155.274 2.10243C161.441 8.15332 162.175 13.9606 161.771 16.1078Z" fill="#CBC5EA"/>
<path d="M147.044 6.63642C151.136 8.63406 154.325 13.8887 155.409 16.2663C154.313 16.3865 153.254 16.5526 152.231 16.7579C151.565 13.5939 141.929 4.13938 147.044 6.63642Z" fill="#CBC5EA"/>
<path d="M169.662 42.928C170.734 44.1134 172.636 47.7594 171.666 52.8598C171.042 54.1385 169.69 45.8782 166.487 43.6435C167.538 43.4618 168.597 43.2251 169.662 42.928Z" fill="#CBC5EA"/>
<path d="M163.945 43.9803C164.734 45.7243 165.744 52.2264 164.002 53.8748C163.727 54.1352 163.334 53.9035 163.249 53.5342C162.076 48.4387 162.019 47.7066 160.764 44.1211C161.812 44.1245 162.873 44.0796 163.945 43.9803Z" fill="#CBC5EA"/>
<path d="M158.413 44.0328C159.217 46.1609 159.685 51.0643 155.127 53.6532C153.23 54.944 157.219 51.6488 155.771 43.7452C156.639 43.8719 157.52 43.969 158.413 44.0328Z" fill="#CBC5EA"/>
</svg>
