<svg width="250" height="74" viewBox="0 0 250 74" fill="none" xmlns="http://www.w3.org/2000/svg">
<path d="M27.4371 27.9859C22.6703 33.121 16.7207 44.9598 31.057 51.2349C33.0747 51.3146 35.0611 51.2619 37.0044 51.0981C51.8788 42.4419 45.3143 31.2767 40.1727 26.7762C35.5529 26.3132 31.289 26.8292 27.4371 27.9859Z" fill="#73628A"/>
<path d="M35.0188 20.9695C34.4453 20.994 33.8791 21.0293 33.3201 21.0749C32.157 21.1697 31.0254 21.309 29.9248 21.4886C28.1479 21.7785 26.4523 22.1735 24.8371 22.6558C10.8431 26.8344 2.88568 37.5708 0.389519 43.3932L7.18736 43.3287C10.8009 37.7265 17.8401 30.8678 27.4371 27.9859C31.289 26.8292 35.5529 26.3132 40.1727 26.7762C48.0515 27.5657 56.9655 31.2027 66.6363 39.3656C60.9352 44.0157 49.9202 50.0098 37.0044 51.0981C35.0611 51.2619 33.0747 51.3146 31.057 51.2349C23.3429 50.9304 15.1698 48.6915 7.18736 43.3287L0.389519 43.3932C8.05694 50.9163 15.8949 55.1258 23.4643 57.0825C24.8939 57.4521 26.314 57.7413 27.7216 57.9573C28.8647 58.1327 29.9995 58.2598 31.1245 58.3425C32.5583 58.4478 33.9761 58.481 35.3745 58.4498C36.4316 58.4262 37.4776 58.366 38.5112 58.2724C39.702 58.1645 40.8764 58.0125 42.032 57.8215C60.5718 54.7568 74.3063 41.6601 74.2919 40.1422C74.2715 37.9904 64.4598 25.0317 46.0732 21.701C44.7025 21.4528 43.2842 21.258 41.8187 21.1252C40.9836 21.0495 40.1333 20.9939 39.2677 20.96C37.8898 20.9061 36.4734 20.9072 35.0188 20.9695Z" fill="#CBC5EA"/>
<path d="M66.6363 39.3656C56.9655 31.2027 48.0515 27.5657 40.1727 26.7762C45.3143 31.2767 51.8788 42.4419 37.0044 51.0981C49.9202 50.0098 60.9352 44.0157 66.6363 39.3656Z" fill="#EAEAEA"/>
<path d="M27.4371 27.9859C17.8401 30.8678 10.8009 37.7265 7.18736 43.3287C15.1698 48.6915 23.3429 50.9304 31.057 51.2349C16.7207 44.9598 22.6703 33.121 27.4371 27.9859Z" fill="#EAEAEA"/>
<path d="M27.2744 10.8458C23.2538 17.0026 23.9743 21.2844 24.8371 22.6558C26.4523 22.1735 28.1479 21.7785 29.9248 21.4886C25.6403 17.7505 32.3002 3.14982 27.2744 10.8458Z" fill="#CBC5EA"/>
<path d="M33.3201 21.0749C33.8791 21.0293 34.4453 20.994 35.0188 20.9695C36.4734 20.9072 37.8898 20.9061 39.2677 20.96C36.6865 17.6154 44.1641 -0.361749 41.6392 2.21164C33.5592 10.4465 32.7265 18.2183 33.3201 21.0749Z" fill="#CBC5EA"/>
<path d="M52.7421 8.05633C47.3297 10.8271 43.2046 17.9234 41.8187 21.1252C43.2842 21.258 44.7025 21.4528 46.0732 21.701C46.8827 17.4598 59.5077 4.59288 52.7421 8.05633Z" fill="#CBC5EA"/>
<path d="M23.4643 57.0825C22.0632 58.6923 19.6171 63.6082 21.0412 70.3932C21.9071 72.0846 23.5017 61.022 27.7216 57.9573C26.314 57.7413 24.8939 57.4521 23.4643 57.0825Z" fill="#CBC5EA"/>
<path d="M31.1245 58.3425C30.1097 60.7035 28.9185 69.4915 31.3378 71.5883C31.699 71.9014 32.1865 71.5987 32.2849 71.1309C33.7325 64.2523 33.7863 63.2806 35.3745 58.4498C33.9761 58.481 32.5583 58.4478 31.1245 58.3425Z" fill="#CBC5EA"/>
<path d="M38.5112 58.2724C37.4923 61.134 36.9919 67.6924 43.1423 71.0332C45.7076 72.7085 40.298 68.4102 42.032 57.8215C40.8764 58.0125 39.702 58.1645 38.5112 58.2724Z" fill="#CBC5EA"/>
<path d="M221.568 27.4301C226.431 32.4734 232.604 44.1964 218.39 50.7421C216.374 50.86 214.388 50.845 212.442 50.7182C197.407 42.3465 203.758 31.0594 208.812 26.4624C213.422 25.9118 217.695 26.3468 221.568 27.4301Z" fill="#73628A"/>
<path d="M213.855 20.5593C214.429 20.573 214.995 20.5975 215.555 20.6325C216.72 20.7052 217.854 20.823 218.957 20.9816C220.739 21.2377 222.442 21.6004 224.066 22.0519C238.136 25.9639 246.295 36.5465 248.901 42.3201L242.104 42.3847C238.385 36.8524 231.217 30.1291 221.568 27.4301C217.695 26.3468 213.422 25.9118 208.812 26.4624C200.951 27.4013 192.108 31.2066 182.594 39.551C188.382 44.0918 199.508 49.8753 212.442 50.7182C214.388 50.845 216.374 50.86 218.39 50.7421C226.097 50.2912 234.225 47.8977 242.104 42.3847L248.901 42.3201C241.378 49.9869 233.622 54.3442 226.092 56.4441C224.67 56.8407 223.255 57.1568 221.852 57.3995C220.713 57.5965 219.581 57.7452 218.458 57.8492C217.026 57.9817 215.609 58.0417 214.211 58.0371C213.153 58.0336 212.107 57.9932 211.071 57.9193C209.879 57.8341 208.702 57.7043 207.543 57.5353C188.95 54.8234 174.97 41.9906 174.955 40.4728C174.935 38.3211 184.498 25.1794 202.817 21.5005C204.183 21.2263 205.597 21.0046 207.06 20.844C207.893 20.7525 208.742 20.6808 209.607 20.6305C210.983 20.5505 212.399 20.5246 213.855 20.5593Z" fill="#CBC5EA"/>
<path d="M182.594 39.551C192.108 31.2066 200.951 27.4013 208.812 26.4624C203.758 31.0594 197.407 42.3465 212.442 50.7182C199.508 49.8753 188.382 44.0918 182.594 39.551Z" fill="#EAEAEA"/>
<path d="M221.568 27.4301C231.217 30.1291 238.385 36.8524 242.104 42.3847C234.225 47.8977 226.097 50.2912 218.39 50.7421C232.604 44.1964 226.431 32.4734 221.568 27.4301Z" fill="#EAEAEA"/>
<path d="M221.405 10.2911C225.542 16.3701 224.903 20.6645 224.066 22.0519C222.442 21.6004 220.739 21.2377 218.957 20.9816C223.17 17.1631 216.235 2.69245 221.405 10.2911Z" fill="#CBC5EA"/>
<path d="M215.555 20.6325C214.995 20.5975 214.429 20.573 213.855 20.5593C212.399 20.5246 210.983 20.5505 209.607 20.6305C212.124 17.2378 204.307 -0.593053 206.88 1.93177C215.114 10.0112 216.094 17.7653 215.555 20.6325Z" fill="#CBC5EA"/>
<path d="M195.891 7.98578C201.354 10.6531 205.613 17.6693 207.06 20.844C205.597 21.0046 204.183 21.2263 202.817 21.5005C201.927 17.2757 189.061 4.65161 195.891 7.98578Z" fill="#CBC5EA"/>
<path d="M226.092 56.4441C227.523 58.0269 230.062 62.8952 228.767 69.7055C227.934 71.4129 226.129 60.3833 221.852 57.3995C223.255 57.1568 224.67 56.8407 226.092 56.4441Z" fill="#CBC5EA"/>
<path d="M218.458 57.8492C219.511 60.1778 220.86 68.8598 218.534 71.0607C218.166 71.4085 217.642 71.0991 217.529 70.606C215.962 63.8022 215.886 62.8247 214.211 58.0371C215.609 58.0417 217.026 57.9817 218.458 57.8492Z" fill="#CBC5EA"/>
<path d="M211.071 57.9193C212.144 60.7608 212.769 67.3081 206.684 70.7649C204.151 72.4884 209.478 68.0885 207.543 57.5353C208.702 57.7043 209.879 57.8341 211.071 57.9193Z" fill="#CBC5EA"/>
</svg>
