<svg width="445" height="320" viewBox="0 0 445 320" fill="none" xmlns="http://www.w3.org/2000/svg">
<path fill-rule="evenodd" clip-rule="evenodd" d="M71.5849 71.833C60.2368 109.098 56.3121 122.607 55.7682 124.703C17.4868 125.067 4.62084 158.454 2.2535 173.54C-0.113844 188.625 17.4708 189.714 13.8657 206.694C10.9816 220.279 15.3057 226.137 17.8283 227.369C10.4502 243.548 -1.28161 277.133 10.8156 282.04C25.9371 288.172 10.2535 288.949 18.5014 298.285C26.7493 307.622 37.9813 300.611 36.8095 309.409C35.6378 318.207 43.1926 320.646 77.6797 317.18C105.269 314.408 80.29 305.649 64.3516 301.616L46.0147 287.354C57.1258 289.759 80.486 295.437 85.0379 298.909C90.7278 303.248 95.7306 301.318 103.25 299.991C109.265 298.93 117.12 306.554 120.296 310.499C127.625 311.267 142.661 312.798 144.167 312.783C146.05 312.765 141.645 311.552 158.56 308.253C172.092 305.614 167.892 299.587 164.101 296.903C164.071 293.765 137.683 290.878 122.633 292.276C107.583 293.674 78.5357 275.12 87.3635 279.43C96.1914 283.74 116.925 286.053 122.58 286.627C128.234 287.201 130.11 286.556 134.486 284.632C138.861 282.707 154.664 294.482 164.024 288.745C173.384 283.007 170.79 274.245 163.887 274.31C156.983 274.376 137.487 270.167 126.8 268.386C116.113 266.604 113.053 274.793 99.8317 270.525C81.7098 265.676 80.0365 256.905 81.4651 253.125C85.2107 250.998 92.4593 247.623 91.4885 251.147C89.7249 263.717 110.423 262.265 119.837 262.176C129.251 262.086 138.096 268.279 139.979 268.261C141.862 268.243 158.209 271.293 195.834 267.731C225.933 264.881 248.988 269.287 256.753 271.846C263.747 271.015 271.541 271.405 273.068 271.391C274.382 271.378 273.799 270.868 278.077 270.155C279.33 269.926 345.623 244.969 349.352 241.168C353.082 237.367 359.358 237.307 362.52 239.788C365.681 242.268 360.673 243.571 360.714 247.964C360.756 252.357 346.346 255.004 341.331 255.68C336.316 256.355 342.687 266.337 306.927 267.931C289.889 268.691 281.97 269.507 278.077 270.155C273.799 270.868 274.382 271.378 273.068 271.391C271.541 271.405 263.747 271.015 256.753 271.846C252.244 272.382 248.067 273.426 246.118 275.413C234.216 291.091 264.679 291.346 281.399 289.513L292.02 284.391L313.986 284.183L327.093 276.527L332.108 275.852L343.984 270.718C333.596 278.348 311.941 293.617 308.427 293.65C304.034 293.692 295.893 295.652 289.635 297.594C283.377 299.537 244.509 304.299 261.501 309.159C287.647 312.928 305.878 311.667 311.725 310.565C314.624 307.399 321.675 300.805 326.686 299.753C332.95 298.439 346.786 301.445 356.17 298.218C363.677 295.636 373.815 283.615 377.945 277.927C376.506 280.66 373.64 287.257 373.683 291.775C373.737 297.424 394.471 299.737 381.955 303.622C371.942 306.73 374.91 310.802 377.645 312.45C413.453 315.876 427.2 309.469 427.176 306.959C427.157 304.95 418.307 298.256 413.884 295.16L413.801 286.374C409.736 281.391 413.271 274.663 415.546 271.921C414.124 254.361 440.477 253.483 433.52 247.9C427.954 243.434 429.818 232.663 431.446 227.836L431.137 195.202C449.158 176.201 441.502 163.094 439.595 160.601C437.688 158.109 430.66 144.995 430.618 140.602C430.577 136.209 422.317 125.618 412.198 117.554C387.627 107.745 376.176 91.5356 366.661 80.957C357.146 70.3784 349.359 43.4621 343.029 37.8735C336.7 32.2848 352.282 20.8393 332.72 9.72749C313.158 -1.38428 293.697 -1.82718 277.582 19.6654C264.691 36.8595 238.452 40.9581 226.945 40.8581C215.224 40.3418 189.778 39.7046 181.759 41.2871C171.736 43.2651 140.053 11.5564 111.811 11.8245C83.5684 12.0926 85.7699 25.2521 71.5849 71.833ZM243.75 92.165C241.471 94.488 238.794 98.9906 246.32 98.417C255.728 97.7001 248.101 87.7303 243.75 92.165ZM172.893 99.114C174.168 101.194 177.585 104.091 181.051 99.0366C185.385 92.7191 170.299 90.3517 172.893 99.114Z" fill="#698F40"/>
<path d="M243.75 92.165C241.471 94.488 238.794 98.9906 246.32 98.417C255.728 97.7001 248.101 87.7303 243.75 92.165Z" fill="#EAEAEA"/>
<path d="M172.893 99.114C174.168 101.194 177.585 104.091 181.051 99.0366C185.385 92.7191 170.299 90.3517 172.893 99.114Z" fill="#EAEAEA"/>
<path d="M133.774 214.424C133.449 214.865 133.679 215.141 133.774 214.424V214.424Z" fill="#73628A"/>
<path d="M86.4694 93.6555C79.0126 102.673 68.8377 121.77 83.1137 130.718M341.68 87.467C349.916 88.6441 354.966 105.542 359.431 113.032C361.545 116.577 359.151 119.462 356.046 121.85M83.1137 130.718C84.1939 131.395 85.414 132.014 86.7859 132.566C111.165 142.377 184.036 149.217 192.869 154.154C201.703 159.091 201.614 149.677 209.157 150.861C216.7 152.045 219.264 157.669 225.521 155.727C231.779 153.785 297.574 142.49 299.415 138.079C301.256 133.668 348.307 131.339 348.277 128.201C348.262 126.548 352.593 124.507 356.046 121.85M83.1137 130.718C79.6041 138.309 77.4887 154.395 94.4058 162.149C94.0758 171.514 95.6766 190.35 104.72 190.766C116.025 191.286 133.756 208.064 133.81 213.712M356.046 121.85C357.849 148.194 344.224 164.015 340.182 165.308C336.139 166.602 334.379 184.82 334.415 188.586C334.451 192.351 325.683 194.317 313.22 203.85C300.758 213.383 288.792 209.103 283.239 219.198C278.796 227.274 269.29 226.444 265.093 225.019L270.215 235.64C251.446 242.095 239.475 237.187 226.26 233.547C213.045 229.906 195.664 250.156 179.192 233.994C130.484 202.388 133.368 217.491 133.774 214.424" stroke="#CBC5EA" stroke-width="1.99713"/>
</svg>
