<svg width="334" height="239" viewBox="0 0 334 239" fill="none" xmlns="http://www.w3.org/2000/svg">
<path fill-rule="evenodd" clip-rule="evenodd" d="M54.3102 53.3161C45.7992 81.2646 42.8556 91.3966 42.4477 92.969C13.7367 93.2415 4.08721 118.282 2.31171 129.596C0.536199 140.91 13.7247 141.727 11.0208 154.462C8.85777 164.65 12.1008 169.044 13.9928 169.968C8.45923 182.102 -0.339627 207.291 8.73327 210.971C20.0744 215.571 8.31174 216.153 14.4977 223.155C20.6836 230.157 29.1075 224.899 28.2287 231.498C27.3499 238.097 33.016 239.926 58.8813 237.327C79.5736 235.247 60.8391 228.678 48.8853 225.653L35.1326 214.957C43.4659 216.761 60.986 221.019 64.4 223.623C68.6674 226.878 72.4195 225.43 78.0588 224.435C82.5702 223.639 88.4615 229.357 90.8433 232.316C96.3405 232.891 107.618 234.04 108.747 234.029C110.159 234.015 106.855 233.105 119.542 230.631C129.691 228.652 126.541 224.132 123.697 222.119C123.675 219.765 103.884 217.599 92.5964 218.648C81.3089 219.697 59.5234 205.782 66.1442 209.014C72.7651 212.246 88.3156 213.981 92.5562 214.412C96.7968 214.842 98.2044 214.358 101.486 212.915C104.767 211.472 116.619 220.303 123.639 216C130.659 211.697 128.714 205.125 123.537 205.174C118.359 205.223 103.736 202.067 95.7214 200.731C87.7064 199.395 85.411 205.536 75.4954 202.335C61.9039 198.698 60.6489 192.12 61.7204 189.285C64.5296 187.69 69.966 185.159 69.238 187.802C67.9153 197.229 83.4389 196.14 90.4992 196.073C97.5595 196.006 104.194 200.65 105.606 200.637C107.018 200.624 119.278 202.911 147.497 200.239C170.071 198.102 187.363 201.407 193.187 203.326C198.432 202.703 204.278 202.995 205.422 202.985C206.408 202.975 205.971 202.592 209.179 202.058C210.119 201.886 259.839 183.168 262.636 180.317C265.433 177.466 270.14 177.422 272.511 179.282C274.883 181.142 271.126 182.12 271.157 185.414C271.189 188.709 260.381 190.695 256.62 191.201C252.859 191.707 257.637 199.194 230.817 200.39C218.038 200.96 212.099 201.571 209.179 202.058C205.971 202.592 206.408 202.975 205.422 202.985C204.278 202.995 198.432 202.703 193.187 203.326C189.804 203.728 186.672 204.511 185.21 206.001C176.283 217.76 199.131 217.951 211.671 216.576L219.637 212.735L236.111 212.578L245.941 206.836L249.702 206.33L258.61 202.48C250.819 208.202 234.577 219.654 231.942 219.679C228.647 219.71 222.541 221.18 217.848 222.637C213.154 224.094 184.003 227.666 196.747 231.311C216.357 234.137 230.03 233.191 234.416 232.365C236.59 229.991 241.878 225.045 245.636 224.256C250.334 223.27 260.711 225.525 267.749 223.105C273.38 221.169 280.983 212.153 284.08 207.887C283.001 209.937 280.852 214.884 280.884 218.273C280.924 222.509 296.475 224.244 287.088 227.158C279.578 229.489 281.804 232.543 283.855 233.779C310.711 236.348 321.022 231.543 321.004 229.66C320.989 228.154 314.352 223.133 311.034 220.811L310.972 214.221C307.924 210.485 310.575 205.438 312.281 203.382C311.215 190.212 330.979 189.554 325.761 185.367C321.587 182.017 322.985 173.939 324.206 170.318L323.974 145.843C337.49 131.592 331.748 121.762 330.318 119.892C328.888 118.023 323.616 108.188 323.585 104.893C323.554 101.598 317.359 93.6546 309.77 87.6072C291.342 80.2505 282.753 68.0931 275.617 60.1592C268.481 52.2252 262.64 32.038 257.893 27.8465C253.146 23.655 264.833 15.0708 250.161 6.73702C235.49 -1.59681 220.894 -1.92898 208.808 14.1905C199.139 27.0861 179.461 30.16 170.83 30.085C162.04 29.6977 142.955 29.2199 136.941 30.4067C129.423 31.8902 105.661 8.10871 84.4795 8.30978C63.2979 8.51085 64.949 18.3804 54.3102 53.3161ZM183.434 68.5652C181.725 70.3074 179.717 73.6843 185.361 73.2541C192.417 72.7164 186.697 65.2391 183.434 68.5652ZM130.291 73.7769C131.247 75.3369 133.81 77.5093 136.41 73.7188C139.66 68.9807 128.346 67.2052 130.291 73.7769Z" fill="#698F40"/>
<path d="M183.434 68.5652C181.725 70.3074 179.717 73.6843 185.361 73.2541C192.417 72.7164 186.697 65.2391 183.434 68.5652Z" fill="#EAEAEA"/>
<path d="M130.291 73.7769C131.247 75.3369 133.81 77.5093 136.41 73.7188C139.66 68.9807 128.346 67.2052 130.291 73.7769Z" fill="#EAEAEA"/>
<path d="M100.953 160.262C100.709 160.592 100.882 160.799 100.953 160.262Z" fill="#73628A"/>
<path d="M65.4741 69.685C59.8815 76.4482 52.2503 90.7707 62.9574 97.4818M256.882 65.0436C263.059 65.9265 266.846 78.6001 270.195 84.2171C271.781 86.8763 269.985 89.0401 267.657 90.8312M62.9574 97.4818C63.7675 97.9896 64.6826 98.4538 65.7115 98.8678C83.9961 106.226 138.649 111.356 145.274 115.059C151.899 118.762 151.832 111.701 157.49 112.589C163.147 113.477 165.07 117.695 169.763 116.238C174.457 114.782 223.803 106.311 225.183 103.003C226.564 99.6945 261.852 97.9474 261.83 95.594C261.818 94.3547 265.067 92.8235 267.657 90.8312M62.9574 97.4818C60.3252 103.175 58.7386 115.24 71.4264 121.055C71.1789 128.079 72.3795 142.206 79.1622 142.518C87.6405 142.908 100.939 155.491 100.979 159.728M267.657 90.8312C269.009 110.589 258.79 122.454 255.758 123.425C252.727 124.395 251.406 138.058 251.433 140.882C251.46 143.707 244.884 145.181 235.537 152.331C226.191 159.48 217.216 156.271 213.051 163.842C209.719 169.899 202.59 169.276 199.442 168.207L203.283 176.173C189.207 181.014 180.228 177.334 170.317 174.603C160.406 171.873 147.37 187.06 135.016 174.939C98.4852 151.235 100.648 162.561 100.953 160.262" stroke="#CBC5EA" stroke-width="1.49785"/>
<path d="M85.8842 36.6181C82.3142 40.4639 77.8585 49.3303 88.5953 54.0298C90.1064 54.0895 91.594 54.05 93.0494 53.9274C104.189 47.4446 99.2729 39.0827 95.4222 35.7121C91.9624 35.3654 88.769 35.7518 85.8842 36.6181Z" fill="#73628A"/>
<path d="M91.5623 31.3633C91.1328 31.3817 90.7088 31.4082 90.2902 31.4423C89.4191 31.5133 88.5716 31.6176 87.7474 31.7521C86.4166 31.9693 85.1467 32.265 83.937 32.6263C73.4566 35.7557 67.4971 43.7964 65.6277 48.157L70.7187 48.1087C73.425 43.913 78.6968 38.7764 85.8842 36.6181C88.769 35.7518 91.9624 35.3654 95.4222 35.7121C101.323 36.3034 107.999 39.0273 115.241 45.1406C110.972 48.6232 102.722 53.1123 93.0494 53.9274C91.594 54.05 90.1064 54.0895 88.5953 54.0298C82.818 53.8018 76.697 52.125 70.7187 48.1087L65.6277 48.157C71.37 53.7912 77.24 56.9438 82.9089 58.4093C83.9796 58.686 85.0432 58.9026 86.0973 59.0644C86.9534 59.1958 87.8033 59.291 88.6458 59.3529C89.7196 59.4318 90.7814 59.4566 91.8288 59.4332C92.6204 59.4156 93.4038 59.3705 94.1779 59.3004C95.0697 59.2196 95.9492 59.1057 96.8147 58.9627C110.7 56.6675 120.986 46.859 120.975 45.7223C120.96 44.1107 113.611 34.4057 99.8413 31.9112C98.8147 31.7253 97.7525 31.5794 96.655 31.4799C96.0296 31.4232 95.3927 31.3816 94.7445 31.3563C93.7125 31.3159 92.6517 31.3167 91.5623 31.3633Z" fill="#CBC5EA"/>
<path d="M115.241 45.1406C107.999 39.0273 101.323 36.3034 95.4222 35.7121C99.2729 39.0827 104.189 47.4446 93.0494 53.9274C102.722 53.1123 110.972 48.6232 115.241 45.1406Z" fill="#EAEAEA"/>
<path d="M85.8842 36.6181C78.6968 38.7764 73.425 43.913 70.7187 48.1087C76.697 52.125 82.818 53.8018 88.5953 54.0298C77.8585 49.3303 82.3142 40.4639 85.8842 36.6181Z" fill="#EAEAEA"/>
<path d="M85.7624 23.7815C82.7512 28.3924 83.2908 31.5992 83.937 32.6263C85.1467 32.265 86.4166 31.9693 87.7474 31.7521C84.5386 28.9526 89.5263 18.0178 85.7624 23.7815Z" fill="#CBC5EA"/>
<path d="M90.2902 31.4423C90.7088 31.4082 91.1328 31.3817 91.5623 31.3633C92.6517 31.3167 93.7125 31.3159 94.7445 31.3563C92.8114 28.8514 98.4115 15.3879 96.5205 17.3151C90.4692 23.4824 89.8456 29.3029 90.2902 31.4423Z" fill="#CBC5EA"/>
<path d="M104.836 21.6924C100.782 23.7675 97.6929 29.082 96.655 31.4799C97.7525 31.5794 98.8147 31.7253 99.8413 31.9112C100.448 28.7349 109.903 19.0985 104.836 21.6924Z" fill="#CBC5EA"/>
<path d="M82.9089 58.4093C81.8596 59.6149 80.0276 63.2965 81.0942 68.3779C81.7427 69.6447 82.9369 61.3596 86.0973 59.0644C85.0432 58.9026 83.9796 58.686 82.9089 58.4093Z" fill="#CBC5EA"/>
<path d="M88.6458 59.3529C87.8858 61.1211 86.9937 67.7026 88.8055 69.273C89.0761 69.5075 89.4412 69.2808 89.5149 68.9304C90.599 63.7789 90.6393 63.0511 91.8288 59.4332C90.7814 59.4566 89.7196 59.4318 88.6458 59.3529Z" fill="#CBC5EA"/>
<path d="M94.1779 59.3004C93.4148 61.4435 93.0401 66.3552 97.6462 68.8573C99.5674 70.1119 95.516 66.8929 96.8147 58.9627C95.9492 59.1057 95.0697 59.2196 94.1779 59.3004Z" fill="#CBC5EA"/>
<path d="M231.272 36.1987C234.914 39.9758 239.537 48.7554 228.892 53.6576C227.383 53.746 225.895 53.7347 224.437 53.6398C213.177 47.37 217.934 38.9168 221.719 35.474C225.172 35.0617 228.372 35.3874 231.272 36.1987Z" fill="#73628A"/>
<path d="M225.496 31.053C225.926 31.0633 226.35 31.0817 226.769 31.1078C227.641 31.1623 228.491 31.2505 229.317 31.3693C230.652 31.5611 231.927 31.8327 233.143 32.1709C243.681 35.1007 249.791 43.0263 251.743 47.3502L246.652 47.3986C243.867 43.2554 238.499 38.2201 231.272 36.1987C228.372 35.3874 225.172 35.0617 221.719 35.474C215.831 36.1772 209.209 39.0271 202.084 45.2764C206.419 48.6771 214.751 53.0085 224.437 53.6398C225.895 53.7347 227.383 53.746 228.892 53.6576C234.664 53.32 240.752 51.5274 246.652 47.3986L251.743 47.3502C246.109 53.0921 240.3 56.3553 234.661 57.928C233.595 58.2251 232.536 58.4618 231.485 58.6435C230.632 58.7911 229.784 58.9024 228.943 58.9803C227.871 59.0796 226.81 59.1245 225.762 59.1211C224.97 59.1185 224.186 59.0882 223.411 59.0328C222.518 58.969 221.637 58.8719 220.769 58.7452C206.844 56.7142 196.374 47.1034 196.363 45.9667C196.348 44.3553 203.51 34.5131 217.229 31.7579C218.252 31.5526 219.311 31.3865 220.407 31.2663C221.031 31.1977 221.667 31.144 222.314 31.1064C223.345 31.0464 224.406 31.0271 225.496 31.053Z" fill="#CBC5EA"/>
<path d="M202.084 45.2764C209.209 39.0271 215.831 36.1772 221.719 35.474C217.934 38.9168 213.177 47.37 224.437 53.6398C214.751 53.0085 206.419 48.6771 202.084 45.2764Z" fill="#EAEAEA"/>
<path d="M231.272 36.1987C238.499 38.2201 243.867 43.2554 246.652 47.3986C240.752 51.5274 234.664 53.32 228.892 53.6576C239.537 48.7554 234.914 39.9758 231.272 36.1987Z" fill="#EAEAEA"/>
<path d="M231.15 23.3629C234.248 27.9156 233.77 31.1319 233.143 32.1709C231.927 31.8327 230.652 31.5611 229.317 31.3693C232.472 28.5096 227.278 17.6721 231.15 23.3629Z" fill="#CBC5EA"/>
<path d="M226.769 31.1078C226.35 31.0817 225.926 31.0633 225.496 31.053C224.406 31.0271 223.345 31.0464 222.314 31.1064C224.199 28.5654 218.345 15.2115 220.272 17.1024C226.439 23.1533 227.173 28.9606 226.769 31.1078Z" fill="#CBC5EA"/>
<path d="M212.042 21.6364C216.134 23.6341 219.323 28.8887 220.407 31.2663C219.311 31.3865 218.252 31.5526 217.229 31.7579C216.563 28.5939 206.927 19.1394 212.042 21.6364Z" fill="#CBC5EA"/>
<path d="M234.661 57.928C235.732 59.1134 237.634 62.7594 236.664 67.8598C236.04 69.1385 234.689 60.8782 231.485 58.6435C232.536 58.4618 233.595 58.2251 234.661 57.928Z" fill="#CBC5EA"/>
<path d="M228.943 58.9803C229.732 60.7243 230.742 67.2264 229 68.8748C228.725 69.1352 228.332 68.9035 228.247 68.5342C227.074 63.4387 227.017 62.7066 225.762 59.1211C226.81 59.1245 227.871 59.0796 228.943 58.9803Z" fill="#CBC5EA"/>
<path d="M223.411 59.0328C224.215 61.1609 224.683 66.0643 220.125 68.6532C218.228 69.944 222.218 66.6488 220.769 58.7452C221.637 58.8719 222.518 58.969 223.411 59.0328Z" fill="#CBC5EA"/>
</svg>
