<svg width="250" height="75" viewBox="0 0 250 75" fill="none" xmlns="http://www.w3.org/2000/svg">
<path d="M27.4371 28.6969C22.6703 33.8319 16.7207 45.6708 31.057 51.9459C33.0747 52.0255 35.0611 51.9728 37.0044 51.8091C51.8788 43.1529 45.3143 31.9877 40.1727 27.4871C35.5529 27.0241 31.289 27.5402 27.4371 28.6969Z" fill="#73628A"/>
<path d="M35.0188 21.6804C34.4453 21.705 33.8791 21.7403 33.3201 21.7859C32.157 21.8807 31.0254 22.02 29.9248 22.1995C28.1479 22.4895 26.4523 22.8844 24.8371 23.3667C10.8431 27.5454 2.88568 38.2817 0.389519 44.1041L7.18736 44.0396C10.8009 38.4374 17.8401 31.5787 27.4371 28.6969C31.289 27.5402 35.5529 27.0241 40.1727 27.4871C48.0515 28.2767 56.9655 31.9137 66.6363 40.0765C60.9352 44.7266 49.9202 50.7207 37.0044 51.8091C35.0611 51.9728 33.0747 52.0255 31.057 51.9459C23.3429 51.6414 15.1698 49.4025 7.18736 44.0396L0.389519 44.1041C8.05694 51.6272 15.8949 55.8367 23.4643 57.7935C24.8939 58.163 26.314 58.4522 27.7216 58.6682C28.8647 58.8436 29.9995 58.9708 31.1245 59.0534C32.5583 59.1588 33.9761 59.1919 35.3745 59.1607C36.4316 59.1372 37.4776 59.0769 38.5112 58.9833C39.702 58.8755 40.8764 58.7234 42.032 58.5324C60.5718 55.4678 74.3063 42.371 74.2919 40.8532C74.2715 38.7013 64.4598 25.7427 46.0732 22.412C44.7025 22.1637 43.2842 21.9689 41.8187 21.8361C40.9836 21.7604 40.1333 21.7048 39.2677 21.671C37.8898 21.6171 36.4734 21.6181 35.0188 21.6804Z" fill="#CBC5EA"/>
<path d="M66.6363 40.0765C56.9655 31.9137 48.0515 28.2767 40.1727 27.4871C45.3143 31.9877 51.8788 43.1529 37.0044 51.8091C49.9202 50.7207 60.9352 44.7266 66.6363 40.0765Z" fill="#EAEAEA"/>
<path d="M27.4371 28.6969C17.8401 31.5787 10.8009 38.4374 7.18736 44.0396C15.1698 49.4025 23.3429 51.6414 31.057 51.9459C16.7207 45.6708 22.6703 33.8319 27.4371 28.6969Z" fill="#EAEAEA"/>
<path d="M27.2744 11.5567C23.2538 17.7135 23.9743 21.9954 24.8371 23.3667C26.4523 22.8844 28.1479 22.4895 29.9248 22.1995C25.6403 18.4615 32.3002 3.86076 27.2744 11.5567Z" fill="#CBC5EA"/>
<path d="M33.3201 21.7859C33.8791 21.7403 34.4453 21.705 35.0188 21.6804C36.4734 21.6181 37.8898 21.6171 39.2677 21.671C36.6865 18.3264 44.1641 0.349188 41.6392 2.92258C33.5592 11.1574 32.7265 18.9293 33.3201 21.7859Z" fill="#CBC5EA"/>
<path d="M52.7421 8.76727C47.3297 11.538 43.2046 18.6343 41.8187 21.8361C43.2842 21.9689 44.7025 22.1637 46.0732 22.412C46.8827 18.1708 59.5077 5.30382 52.7421 8.76727Z" fill="#CBC5EA"/>
<path d="M23.4643 57.7935C22.0632 59.4033 19.6171 64.3192 21.0412 71.1041C21.9071 72.7955 23.5017 61.7329 27.7216 58.6682C26.314 58.4522 24.8939 58.163 23.4643 57.7935Z" fill="#CBC5EA"/>
<path d="M31.1245 59.0534C30.1097 61.4144 28.9185 70.2024 31.3378 72.2992C31.699 72.6123 32.1865 72.3096 32.2849 71.8418C33.7325 64.9633 33.7863 63.9915 35.3745 59.1607C33.9761 59.1919 32.5583 59.1588 31.1245 59.0534Z" fill="#CBC5EA"/>
<path d="M38.5112 58.9833C37.4923 61.8449 36.9919 68.4033 43.1423 71.7441C45.7076 73.4194 40.298 69.1212 42.032 58.5324C40.8764 58.7234 39.702 58.8755 38.5112 58.9833Z" fill="#CBC5EA"/>
<path d="M221.568 28.141C226.431 33.1843 232.604 44.9073 218.39 51.453C216.374 51.5709 214.388 51.556 212.442 51.4291C197.407 43.0574 203.758 31.7704 208.812 27.1733C213.422 26.6228 217.695 27.0578 221.568 28.141Z" fill="#73628A"/>
<path d="M213.855 21.2702C214.429 21.2839 214.995 21.3085 215.555 21.3434C216.72 21.4161 217.854 21.5339 218.957 21.6925C220.739 21.9487 222.442 22.3113 224.066 22.7629C238.136 26.6748 246.295 37.2575 248.901 43.0311L242.104 43.0956C238.385 37.5634 231.217 30.84 221.568 28.141C217.695 27.0578 213.422 26.6228 208.812 27.1733C200.951 28.1122 192.108 31.9176 182.594 40.262C188.382 44.8027 199.508 50.5862 212.442 51.4291C214.388 51.556 216.374 51.5709 218.39 51.453C226.097 51.0021 234.225 48.6087 242.104 43.0956L248.901 43.0311C241.378 50.6979 233.622 55.0551 226.092 57.155C224.67 57.5516 223.255 57.8677 221.852 58.1104C220.713 58.3075 219.581 58.4561 218.458 58.5601C217.026 58.6926 215.609 58.7527 214.211 58.7481C213.153 58.7446 212.107 58.7042 211.071 58.6302C209.879 58.545 208.702 58.4153 207.543 58.2462C188.95 55.5343 174.97 42.7015 174.955 41.1838C174.935 39.032 184.498 25.8903 202.817 22.2115C204.183 21.9372 205.597 21.7156 207.06 21.555C207.893 21.4634 208.742 21.3918 209.607 21.3415C210.983 21.2614 212.399 21.2356 213.855 21.2702Z" fill="#CBC5EA"/>
<path d="M182.594 40.262C192.108 31.9176 200.951 28.1122 208.812 27.1733C203.758 31.7704 197.407 43.0574 212.442 51.4291C199.508 50.5862 188.382 44.8027 182.594 40.262Z" fill="#EAEAEA"/>
<path d="M221.568 28.141C231.217 30.84 238.385 37.5634 242.104 43.0956C234.225 48.6087 226.097 51.0021 218.39 51.453C232.604 44.9073 226.431 33.1843 221.568 28.141Z" fill="#EAEAEA"/>
<path d="M221.405 11.0021C225.542 17.081 224.903 21.3755 224.066 22.7629C222.442 22.3113 220.739 21.9487 218.957 21.6925C223.17 17.8741 216.235 3.40338 221.405 11.0021Z" fill="#CBC5EA"/>
<path d="M215.555 21.3434C214.995 21.3085 214.429 21.2839 213.855 21.2702C212.399 21.2356 210.983 21.2614 209.607 21.3415C212.124 17.9487 204.307 0.117885 206.88 2.64271C215.114 10.7221 216.094 18.4763 215.555 21.3434Z" fill="#CBC5EA"/>
<path d="M195.891 8.69672C201.354 11.3641 205.613 18.3803 207.06 21.555C205.597 21.7156 204.183 21.9372 202.817 22.2115C201.927 17.9867 189.061 5.36254 195.891 8.69672Z" fill="#CBC5EA"/>
<path d="M226.092 57.155C227.523 58.7379 230.062 63.6061 228.767 70.4164C227.934 72.1238 226.129 61.0942 221.852 58.1104C223.255 57.8677 224.67 57.5516 226.092 57.155Z" fill="#CBC5EA"/>
<path d="M218.458 58.5601C219.511 60.8887 220.86 69.5707 218.534 71.7717C218.166 72.1194 217.642 71.8101 217.529 71.3169C215.962 64.5132 215.886 63.5357 214.211 58.7481C215.609 58.7527 217.026 58.6926 218.458 58.5601Z" fill="#CBC5EA"/>
<path d="M211.071 58.6302C212.144 61.4718 212.769 68.019 206.684 71.4758C204.151 73.1993 209.478 68.7995 207.543 58.2462C208.702 58.4153 209.879 58.545 211.071 58.6302Z" fill="#CBC5EA"/>
</svg>
