<svg width="969" height="242" viewBox="0 0 969 242" fill="none" xmlns="http://www.w3.org/2000/svg">
<ellipse cx="60.7782" cy="60.7773" rx="53.7782" ry="53.7773" fill="#73628A"/>
<ellipse cx="61.1938" cy="60.498" rx="26.8891" ry="26.8887" fill="#EAEAEA"/>
<ellipse cx="88.0836" cy="13.4448" rx="6.72227" ry="6.72217" fill="#EAEAEA"/>
<ellipse cx="61.1949" cy="6.72217" rx="6.72227" ry="6.72217" fill="#EAEAEA"/>
<ellipse cx="34.3043" cy="13.4448" rx="6.72227" ry="6.72217" fill="#EAEAEA"/>
<ellipse cx="14.1402" cy="33.6128" rx="6.72227" ry="6.72217" fill="#EAEAEA"/>
<ellipse cx="7.41563" cy="60.4995" rx="6.72227" ry="6.72217" fill="#EAEAEA"/>
<ellipse cx="14.1402" cy="87.3901" rx="6.72227" ry="6.72217" fill="#EAEAEA"/>
<ellipse cx="34.3043" cy="107.554" rx="6.72227" ry="6.72217" fill="#EAEAEA"/>
<ellipse cx="61.1949" cy="114.277" rx="6.72227" ry="6.72217" fill="#EAEAEA"/>
<ellipse cx="88.0836" cy="107.554" rx="6.72227" ry="6.72217" fill="#EAEAEA"/>
<ellipse cx="108.252" cy="87.3901" rx="6.72227" ry="6.72217" fill="#EAEAEA"/>
<ellipse cx="114.97" cy="60.4995" rx="6.72227" ry="6.72217" fill="#EAEAEA"/>
<ellipse cx="108.252" cy="33.6128" rx="6.72227" ry="6.72217" fill="#EAEAEA"/>
<ellipse cx="61.7782" cy="181.777" rx="53.7782" ry="53.7773" fill="#73628A"/>
<ellipse cx="61.5004" cy="181.498" rx="26.8891" ry="26.8887" fill="#EAEAEA"/>
<ellipse cx="88.3902" cy="134.445" rx="6.72227" ry="6.72217" fill="#EAEAEA"/>
<ellipse cx="61.5016" cy="127.722" rx="6.72227" ry="6.72217" fill="#EAEAEA"/>
<ellipse cx="34.6109" cy="134.445" rx="6.72227" ry="6.72217" fill="#EAEAEA"/>
<ellipse cx="14.4469" cy="154.613" rx="6.72227" ry="6.72217" fill="#73628A"/>
<ellipse cx="7.72227" cy="181.5" rx="6.72227" ry="6.72217" fill="#73628A"/>
<ellipse cx="14.4469" cy="208.39" rx="6.72227" ry="6.72217" fill="#EAEAEA"/>
<ellipse cx="34.6109" cy="228.554" rx="6.72227" ry="6.72217" fill="#EAEAEA"/>
<ellipse cx="61.5016" cy="235.277" rx="6.72227" ry="6.72217" fill="#73628A"/>
<ellipse cx="88.3902" cy="228.554" rx="6.72227" ry="6.72217" fill="#73628A"/>
<ellipse cx="108.558" cy="208.39" rx="6.72227" ry="6.72217" fill="#EAEAEA"/>
<ellipse cx="115.277" cy="181.5" rx="6.72227" ry="6.72217" fill="#EAEAEA"/>
<ellipse cx="108.558" cy="154.613" rx="6.72227" ry="6.72217" fill="#EAEAEA"/>
<ellipse cx="182.778" cy="181.777" rx="53.7782" ry="53.7773" fill="#73628A"/>
<ellipse cx="182.5" cy="181.498" rx="26.8891" ry="26.8887" fill="#EAEAEA"/>
<ellipse cx="209.39" cy="134.445" rx="6.72227" ry="6.72217" fill="#EAEAEA"/>
<ellipse cx="182.502" cy="127.722" rx="6.72227" ry="6.72217" fill="#EAEAEA"/>
<ellipse cx="155.611" cy="134.445" rx="6.72227" ry="6.72217" fill="#73628A"/>
<ellipse cx="135.447" cy="154.613" rx="6.72227" ry="6.72217" fill="#73628A"/>
<ellipse cx="128.722" cy="181.5" rx="6.72227" ry="6.72217" fill="#EAEAEA"/>
<ellipse cx="135.447" cy="208.39" rx="6.72227" ry="6.72217" fill="#EAEAEA"/>
<ellipse cx="155.611" cy="228.554" rx="6.72227" ry="6.72217" fill="#73628A"/>
<ellipse cx="182.502" cy="235.277" rx="6.72227" ry="6.72217" fill="#73628A"/>
<ellipse cx="209.39" cy="228.554" rx="6.72227" ry="6.72217" fill="#EAEAEA"/>
<ellipse cx="229.558" cy="208.39" rx="6.72227" ry="6.72217" fill="#EAEAEA"/>
<ellipse cx="236.277" cy="181.5" rx="6.72227" ry="6.72217" fill="#EAEAEA"/>
<ellipse cx="229.558" cy="154.613" rx="6.72227" ry="6.72217" fill="#EAEAEA"/>
<ellipse cx="303.778" cy="181.777" rx="53.7782" ry="53.7773" fill="#73628A"/>
<ellipse cx="303.5" cy="181.498" rx="26.8891" ry="26.8887" fill="#EAEAEA"/>
<ellipse cx="330.39" cy="134.445" rx="6.72227" ry="6.72217" fill="#EAEAEA"/>
<ellipse cx="303.502" cy="127.722" rx="6.72227" ry="6.72217" fill="#73628A"/>
<ellipse cx="276.611" cy="134.445" rx="6.72227" ry="6.72217" fill="#EAEAEA"/>
<ellipse cx="256.447" cy="154.613" rx="6.72227" ry="6.72217" fill="#73628A"/>
<ellipse cx="249.722" cy="181.5" rx="6.72227" ry="6.72217" fill="#EAEAEA"/>
<ellipse cx="256.447" cy="208.39" rx="6.72227" ry="6.72217" fill="#73628A"/>
<ellipse cx="276.611" cy="228.554" rx="6.72227" ry="6.72217" fill="#EAEAEA"/>
<ellipse cx="303.502" cy="235.277" rx="6.72227" ry="6.72217" fill="#73628A"/>
<ellipse cx="330.39" cy="228.554" rx="6.72227" ry="6.72217" fill="#EAEAEA"/>
<ellipse cx="350.558" cy="208.39" rx="6.72227" ry="6.72217" fill="#73628A"/>
<ellipse cx="357.277" cy="181.5" rx="6.72227" ry="6.72217" fill="#EAEAEA"/>
<ellipse cx="350.558" cy="154.613" rx="6.72227" ry="6.72217" fill="#73628A"/>
<ellipse cx="424.778" cy="181.777" rx="53.7782" ry="53.7773" fill="#73628A"/>
<ellipse cx="424.5" cy="181.498" rx="26.8891" ry="26.8887" fill="#EAEAEA"/>
<ellipse cx="451.39" cy="134.445" rx="6.72227" ry="6.72217" fill="#EAEAEA"/>
<ellipse cx="424.502" cy="127.722" rx="6.72227" ry="6.72217" fill="#EAEAEA"/>
<ellipse cx="397.611" cy="134.445" rx="6.72227" ry="6.72217" fill="#73628A"/>
<ellipse cx="377.447" cy="154.613" rx="6.72227" ry="6.72217" fill="#EAEAEA"/>
<ellipse cx="370.722" cy="181.5" rx="6.72227" ry="6.72217" fill="#EAEAEA"/>
<ellipse cx="377.447" cy="208.39" rx="6.72227" ry="6.72217" fill="#73628A"/>
<ellipse cx="397.611" cy="228.554" rx="6.72227" ry="6.72217" fill="#73628A"/>
<ellipse cx="424.502" cy="235.277" rx="6.72227" ry="6.72217" fill="#EAEAEA"/>
<ellipse cx="451.39" cy="228.554" rx="6.72227" ry="6.72217" fill="#EAEAEA"/>
<ellipse cx="471.558" cy="208.39" rx="6.72227" ry="6.72217" fill="#EAEAEA"/>
<ellipse cx="478.277" cy="181.5" rx="6.72227" ry="6.72217" fill="#EAEAEA"/>
<ellipse cx="471.558" cy="154.613" rx="6.72227" ry="6.72217" fill="#EAEAEA"/>
<ellipse cx="545.778" cy="181.777" rx="53.7782" ry="53.7773" fill="#73628A"/>
<ellipse cx="545.5" cy="181.498" rx="26.8891" ry="26.8887" fill="#EAEAEA"/>
<ellipse cx="572.39" cy="134.445" rx="6.72227" ry="6.72217" fill="#EAEAEA"/>
<ellipse cx="545.502" cy="127.722" rx="6.72227" ry="6.72217" fill="#EAEAEA"/>
<ellipse cx="518.611" cy="134.445" rx="6.72227" ry="6.72217" fill="#EAEAEA"/>
<ellipse cx="498.447" cy="154.613" rx="6.72227" ry="6.72217" fill="#73628A"/>
<ellipse cx="491.722" cy="181.5" rx="6.72227" ry="6.72217" fill="#73628A"/>
<ellipse cx="498.447" cy="208.39" rx="6.72227" ry="6.72217" fill="#EAEAEA"/>
<ellipse cx="518.611" cy="228.554" rx="6.72227" ry="6.72217" fill="#73628A"/>
<ellipse cx="545.502" cy="235.277" rx="6.72227" ry="6.72217" fill="#73628A"/>
<ellipse cx="572.39" cy="228.554" rx="6.72227" ry="6.72217" fill="#73628A"/>
<ellipse cx="592.558" cy="208.39" rx="6.72227" ry="6.72217" fill="#EAEAEA"/>
<ellipse cx="599.277" cy="181.5" rx="6.72227" ry="6.72217" fill="#73628A"/>
<ellipse cx="592.558" cy="154.613" rx="6.72227" ry="6.72217" fill="#73628A"/>
<ellipse cx="666.778" cy="181.777" rx="53.7782" ry="53.7773" fill="#73628A"/>
<ellipse cx="666.5" cy="181.498" rx="26.8891" ry="26.8887" fill="#EAEAEA"/>
<ellipse cx="693.39" cy="134.445" rx="6.72227" ry="6.72217" fill="#EAEAEA"/>
<ellipse cx="666.502" cy="127.722" rx="6.72227" ry="6.72217" fill="#EAEAEA"/>
<ellipse cx="639.611" cy="134.445" rx="6.72227" ry="6.72217" fill="#EAEAEA"/>
<ellipse cx="619.447" cy="154.613" rx="6.72227" ry="6.72217" fill="#EAEAEA"/>
<ellipse cx="612.722" cy="181.5" rx="6.72227" ry="6.72217" fill="#EAEAEA"/>
<ellipse cx="619.447" cy="208.39" rx="6.72227" ry="6.72217" fill="#73628A"/>
<ellipse cx="639.611" cy="228.554" rx="6.72227" ry="6.72217" fill="#EAEAEA"/>
<ellipse cx="666.502" cy="235.277" rx="6.72227" ry="6.72217" fill="#73628A"/>
<ellipse cx="693.39" cy="228.554" rx="6.72227" ry="6.72217" fill="#EAEAEA"/>
<ellipse cx="713.558" cy="208.39" rx="6.72227" ry="6.72217" fill="#73628A"/>
<ellipse cx="720.277" cy="181.5" rx="6.72227" ry="6.72217" fill="#EAEAEA"/>
<ellipse cx="713.558" cy="154.613" rx="6.72227" ry="6.72217" fill="#EAEAEA"/>
<ellipse cx="787.778" cy="181.777" rx="53.7782" ry="53.7773" fill="#73628A"/>
<ellipse cx="787.5" cy="181.498" rx="26.8891" ry="26.8887" fill="#EAEAEA"/>
<ellipse cx="814.39" cy="134.445" rx="6.72227" ry="6.72217" fill="#EAEAEA"/>
<ellipse cx="787.502" cy="127.722" rx="6.72227" ry="6.72217" fill="#EAEAEA"/>
<ellipse cx="760.611" cy="134.445" rx="6.72227" ry="6.72217" fill="#EAEAEA"/>
<ellipse cx="740.447" cy="154.613" rx="6.72227" ry="6.72217" fill="#EAEAEA"/>
<ellipse cx="733.722" cy="181.5" rx="6.72227" ry="6.72217" fill="#EAEAEA"/>
<ellipse cx="740.447" cy="208.39" rx="6.72227" ry="6.72217" fill="#EAEAEA"/>
<ellipse cx="760.611" cy="228.554" rx="6.72227" ry="6.72217" fill="#73628A"/>
<ellipse cx="787.502" cy="235.277" rx="6.72227" ry="6.72217" fill="#EAEAEA"/>
<ellipse cx="814.39" cy="228.554" rx="6.72227" ry="6.72217" fill="#EAEAEA"/>
<ellipse cx="834.558" cy="208.39" rx="6.72227" ry="6.72217" fill="#EAEAEA"/>
<ellipse cx="841.277" cy="181.5" rx="6.72227" ry="6.72217" fill="#EAEAEA"/>
<ellipse cx="834.558" cy="154.613" rx="6.72227" ry="6.72217" fill="#EAEAEA"/>
<ellipse cx="908.778" cy="181.777" rx="53.7782" ry="53.7773" fill="#73628A"/>
<ellipse cx="908.5" cy="181.498" rx="26.8891" ry="26.8887" fill="#EAEAEA"/>
<ellipse cx="935.39" cy="134.445" rx="6.72227" ry="6.72217" fill="#EAEAEA"/>
<ellipse cx="908.502" cy="127.722" rx="6.72227" ry="6.72217" fill="#EAEAEA"/>
<ellipse cx="881.611" cy="134.445" rx="6.72227" ry="6.72217" fill="#73628A"/>
<ellipse cx="861.447" cy="154.613" rx="6.72227" ry="6.72217" fill="#EAEAEA"/>
<ellipse cx="854.722" cy="181.5" rx="6.72227" ry="6.72217" fill="#EAEAEA"/>
<ellipse cx="861.447" cy="208.39" rx="6.72227" ry="6.72217" fill="#EAEAEA"/>
<ellipse cx="881.611" cy="228.554" rx="6.72227" ry="6.72217" fill="#EAEAEA"/>
<ellipse cx="908.502" cy="235.277" rx="6.72227" ry="6.72217" fill="#EAEAEA"/>
<ellipse cx="935.39" cy="228.554" rx="6.72227" ry="6.72217" fill="#EAEAEA"/>
<ellipse cx="955.558" cy="208.39" rx="6.72227" ry="6.72217" fill="#EAEAEA"/>
<ellipse cx="962.277" cy="181.5" rx="6.72227" ry="6.72217" fill="#73628A"/>
<ellipse cx="955.558" cy="154.613" rx="6.72227" ry="6.72217" fill="#EAEAEA"/>
<ellipse cx="907.778" cy="60.7773" rx="53.7782" ry="53.7773" fill="#73628A"/>
<ellipse cx="908.194" cy="60.498" rx="26.8891" ry="26.8887" fill="#EAEAEA"/>
<ellipse cx="935.084" cy="13.4448" rx="6.72227" ry="6.72217" fill="#EAEAEA"/>
<ellipse cx="908.195" cy="6.72217" rx="6.72227" ry="6.72217" fill="#EAEAEA"/>
<ellipse cx="881.304" cy="13.4448" rx="6.72227" ry="6.72217" fill="#EAEAEA"/>
<ellipse cx="861.14" cy="33.6128" rx="6.72227" ry="6.72217" fill="#EAEAEA"/>
<ellipse cx="854.416" cy="60.4995" rx="6.72227" ry="6.72217" fill="#EAEAEA"/>
<ellipse cx="861.14" cy="87.3901" rx="6.72227" ry="6.72217" fill="#EAEAEA"/>
<ellipse cx="881.304" cy="107.554" rx="6.72227" ry="6.72217" fill="#73628A"/>
<ellipse cx="908.195" cy="114.277" rx="6.72227" ry="6.72217" fill="#73628A"/>
<ellipse cx="935.084" cy="107.554" rx="6.72227" ry="6.72217" fill="#73628A"/>
<ellipse cx="955.252" cy="87.3901" rx="6.72227" ry="6.72217" fill="#EAEAEA"/>
<ellipse cx="961.97" cy="60.4995" rx="6.72227" ry="6.72217" fill="#EAEAEA"/>
<ellipse cx="955.252" cy="33.6128" rx="6.72227" ry="6.72217" fill="#EAEAEA"/>
<ellipse cx="181.778" cy="60.7773" rx="53.7782" ry="53.7773" fill="#73628A"/>
<ellipse cx="182.194" cy="60.498" rx="26.8891" ry="26.8887" fill="#EAEAEA"/>
<ellipse cx="209.084" cy="13.4448" rx="6.72227" ry="6.72217" fill="#EAEAEA"/>
<ellipse cx="182.195" cy="6.72217" rx="6.72227" ry="6.72217" fill="#EAEAEA"/>
<ellipse cx="155.304" cy="13.4448" rx="6.72227" ry="6.72217" fill="#73628A"/>
<ellipse cx="135.14" cy="33.6128" rx="6.72227" ry="6.72217" fill="#EAEAEA"/>
<ellipse cx="128.416" cy="60.4995" rx="6.72227" ry="6.72217" fill="#EAEAEA"/>
<ellipse cx="135.14" cy="87.3901" rx="6.72227" ry="6.72217" fill="#EAEAEA"/>
<ellipse cx="155.304" cy="107.554" rx="6.72227" ry="6.72217" fill="#EAEAEA"/>
<ellipse cx="182.195" cy="114.277" rx="6.72227" ry="6.72217" fill="#73628A"/>
<ellipse cx="209.084" cy="107.554" rx="6.72227" ry="6.72217" fill="#EAEAEA"/>
<ellipse cx="229.252" cy="87.3901" rx="6.72227" ry="6.72217" fill="#73628A"/>
<ellipse cx="235.97" cy="60.4995" rx="6.72227" ry="6.72217" fill="#EAEAEA"/>
<ellipse cx="229.252" cy="33.6128" rx="6.72227" ry="6.72217" fill="#EAEAEA"/>
<ellipse cx="302.778" cy="60.7773" rx="53.7782" ry="53.7773" fill="#73628A"/>
<ellipse cx="303.194" cy="60.498" rx="26.8891" ry="26.8887" fill="#EAEAEA"/>
<ellipse cx="330.084" cy="13.4448" rx="6.72227" ry="6.72217" fill="#73628A"/>
<ellipse cx="303.195" cy="6.72217" rx="6.72227" ry="6.72217" fill="#EAEAEA"/>
<ellipse cx="276.304" cy="13.4448" rx="6.72227" ry="6.72217" fill="#EAEAEA"/>
<ellipse cx="256.14" cy="33.6128" rx="6.72227" ry="6.72217" fill="#73628A"/>
<ellipse cx="249.416" cy="60.4995" rx="6.72227" ry="6.72217" fill="#EAEAEA"/>
<ellipse cx="256.14" cy="87.3901" rx="6.72227" ry="6.72217" fill="#73628A"/>
<ellipse cx="276.304" cy="107.554" rx="6.72227" ry="6.72217" fill="#EAEAEA"/>
<ellipse cx="303.195" cy="114.277" rx="6.72227" ry="6.72217" fill="#73628A"/>
<ellipse cx="330.084" cy="107.554" rx="6.72227" ry="6.72217" fill="#EAEAEA"/>
<ellipse cx="350.252" cy="87.3901" rx="6.72227" ry="6.72217" fill="#73628A"/>
<ellipse cx="356.97" cy="60.4995" rx="6.72227" ry="6.72217" fill="#EAEAEA"/>
<ellipse cx="350.252" cy="33.6128" rx="6.72227" ry="6.72217" fill="#EAEAEA"/>
<ellipse cx="423.778" cy="60.7773" rx="53.7782" ry="53.7773" fill="#73628A"/>
<ellipse cx="424.194" cy="60.498" rx="26.8891" ry="26.8887" fill="#EAEAEA"/>
<ellipse cx="451.084" cy="13.4448" rx="6.72227" ry="6.72217" fill="#EAEAEA"/>
<ellipse cx="424.195" cy="6.72217" rx="6.72227" ry="6.72217" fill="#EAEAEA"/>
<ellipse cx="397.304" cy="13.4448" rx="6.72227" ry="6.72217" fill="#73628A"/>
<ellipse cx="377.14" cy="33.6128" rx="6.72227" ry="6.72217" fill="#EAEAEA"/>
<ellipse cx="370.416" cy="60.4995" rx="6.72227" ry="6.72217" fill="#EAEAEA"/>
<ellipse cx="377.14" cy="87.3901" rx="6.72227" ry="6.72217" fill="#73628A"/>
<ellipse cx="397.304" cy="107.554" rx="6.72227" ry="6.72217" fill="#EAEAEA"/>
<ellipse cx="424.195" cy="114.277" rx="6.72227" ry="6.72217" fill="#EAEAEA"/>
<ellipse cx="451.084" cy="107.554" rx="6.72227" ry="6.72217" fill="#73628A"/>
<ellipse cx="471.252" cy="87.3901" rx="6.72227" ry="6.72217" fill="#EAEAEA"/>
<ellipse cx="477.97" cy="60.4995" rx="6.72227" ry="6.72217" fill="#EAEAEA"/>
<ellipse cx="471.252" cy="33.6128" rx="6.72227" ry="6.72217" fill="#73628A"/>
<ellipse cx="544.778" cy="60.7773" rx="53.7782" ry="53.7773" fill="#73628A"/>
<ellipse cx="545.194" cy="60.498" rx="26.8891" ry="26.8887" fill="#EAEAEA"/>
<ellipse cx="572.084" cy="13.4448" rx="6.72227" ry="6.72217" fill="#EAEAEA"/>
<ellipse cx="545.195" cy="6.72217" rx="6.72227" ry="6.72217" fill="#EAEAEA"/>
<ellipse cx="518.304" cy="13.4448" rx="6.72227" ry="6.72217" fill="#EAEAEA"/>
<ellipse cx="498.14" cy="33.6128" rx="6.72227" ry="6.72217" fill="#73628A"/>
<ellipse cx="491.416" cy="60.4995" rx="6.72227" ry="6.72217" fill="#EAEAEA"/>
<ellipse cx="498.14" cy="87.3901" rx="6.72227" ry="6.72217" fill="#EAEAEA"/>
<ellipse cx="518.304" cy="107.554" rx="6.72227" ry="6.72217" fill="#EAEAEA"/>
<ellipse cx="545.195" cy="114.277" rx="6.72227" ry="6.72217" fill="#EAEAEA"/>
<ellipse cx="572.084" cy="107.554" rx="6.72227" ry="6.72217" fill="#73628A"/>
<ellipse cx="592.252" cy="87.3901" rx="6.72227" ry="6.72217" fill="#EAEAEA"/>
<ellipse cx="598.97" cy="60.4995" rx="6.72227" ry="6.72217" fill="#EAEAEA"/>
<ellipse cx="592.252" cy="33.6128" rx="6.72227" ry="6.72217" fill="#EAEAEA"/>
<ellipse cx="665.778" cy="60.7773" rx="53.7782" ry="53.7773" fill="#73628A"/>
<ellipse cx="666.194" cy="60.498" rx="26.8891" ry="26.8887" fill="#EAEAEA"/>
<ellipse cx="693.084" cy="13.4448" rx="6.72227" ry="6.72217" fill="#EAEAEA"/>
<ellipse cx="666.195" cy="6.72217" rx="6.72227" ry="6.72217" fill="#73628A"/>
<ellipse cx="639.304" cy="13.4448" rx="6.72227" ry="6.72217" fill="#EAEAEA"/>
<ellipse cx="619.14" cy="33.6128" rx="6.72227" ry="6.72217" fill="#EAEAEA"/>
<ellipse cx="612.416" cy="60.4995" rx="6.72227" ry="6.72217" fill="#EAEAEA"/>
<ellipse cx="619.14" cy="87.3901" rx="6.72227" ry="6.72217" fill="#EAEAEA"/>
<ellipse cx="639.304" cy="107.554" rx="6.72227" ry="6.72217" fill="#EAEAEA"/>
<ellipse cx="666.195" cy="114.277" rx="6.72227" ry="6.72217" fill="#73628A"/>
<ellipse cx="693.084" cy="107.554" rx="6.72227" ry="6.72217" fill="#EAEAEA"/>
<ellipse cx="713.252" cy="87.3901" rx="6.72227" ry="6.72217" fill="#EAEAEA"/>
<ellipse cx="719.97" cy="60.4995" rx="6.72227" ry="6.72217" fill="#EAEAEA"/>
<ellipse cx="713.252" cy="33.6128" rx="6.72227" ry="6.72217" fill="#EAEAEA"/>
<ellipse cx="786.778" cy="60.7773" rx="53.7782" ry="53.7773" fill="#73628A"/>
<ellipse cx="787.194" cy="60.498" rx="26.8891" ry="26.8887" fill="#EAEAEA"/>
<ellipse cx="814.084" cy="13.4448" rx="6.72227" ry="6.72217" fill="#73628A"/>
<ellipse cx="787.195" cy="6.72217" rx="6.72227" ry="6.72217" fill="#73628A"/>
<ellipse cx="760.304" cy="13.4448" rx="6.72227" ry="6.72217" fill="#EAEAEA"/>
<ellipse cx="740.14" cy="33.6128" rx="6.72227" ry="6.72217" fill="#73628A"/>
<ellipse cx="733.416" cy="60.4995" rx="6.72227" ry="6.72217" fill="#EAEAEA"/>
<ellipse cx="740.14" cy="87.3901" rx="6.72227" ry="6.72217" fill="#73628A"/>
<ellipse cx="760.304" cy="107.554" rx="6.72227" ry="6.72217" fill="#EAEAEA"/>
<ellipse cx="787.195" cy="114.277" rx="6.72227" ry="6.72217" fill="#EAEAEA"/>
<ellipse cx="814.084" cy="107.554" rx="6.72227" ry="6.72217" fill="#EAEAEA"/>
<ellipse cx="834.252" cy="87.3901" rx="6.72227" ry="6.72217" fill="#EAEAEA"/>
<ellipse cx="840.97" cy="60.4995" rx="6.72227" ry="6.72217" fill="#EAEAEA"/>
<ellipse cx="834.252" cy="33.6128" rx="6.72227" ry="6.72217" fill="#EAEAEA"/>
</svg>
