<svg width="137" height="68" viewBox="0 0 137 68" fill="none" xmlns="http://www.w3.org/2000/svg">
<path d="M114.268 58.7122C114.694 58.2329 115.099 57.7564 115.477 57.2887C117.158 53.369 119.461 47.0628 121.161 40.3648C122.292 35.91 123.156 31.2819 123.392 27.0673C121.963 23.8437 116.687 20.5395 107.012 33.1116C97.3368 45.6837 107.818 55.417 114.268 58.7122Z" fill="#73628A"/>
<path d="M10.5357 21.0231C9.18061 25.9472 8.86725 32.2825 10.2613 40.3648C11.0066 44.6853 11.991 48.2771 13.1483 51.2445C17.243 57.2888 36.8688 57.2888 32.0314 30.6939C28.1614 9.41803 16.0884 15.3817 10.5357 21.0231Z" fill="#73628A"/>
<path d="M104.593 12.561C102.174 12.561 80.4058 27.0673 87.662 54.871C90.5263 65.8464 95.6677 68.6395 100.965 67.6363C105.81 66.7188 110.785 62.6255 114.268 58.7122C107.818 55.417 97.3368 45.6837 107.012 33.1116C116.687 20.5395 121.963 23.8437 123.392 27.0673C123.532 24.5762 123.452 22.2296 123.079 20.1486C122.983 19.6161 122.869 19.101 122.733 18.6053C122.362 17.2447 121.868 16.0938 121.279 15.1261C121.146 14.9082 121.009 14.6996 120.867 14.5C119.561 12.6654 117.874 11.5906 116.047 11.0424C112.053 9.84423 107.392 11.1622 104.593 12.561Z" fill="#EAEAEA"/>
<path d="M36.8688 60.9153C42.1094 58.0947 51.623 48.1014 47.7531 30.6939C44.6298 16.6448 41.001 10.1548 36.8688 7.31937C34.6011 5.76326 32.1817 5.30791 29.6111 5.30791C27.2103 5.30791 24.226 5.87178 21.2925 7.31937C20.707 7.60832 20.1234 7.93249 19.547 8.29442C18.3718 9.0322 17.2261 9.92688 16.1525 11C15.6865 11.4658 14.9823 12.4652 14.547 13C13.8163 13.8976 13.3856 14.3948 12.7677 15.5C12.4997 15.9794 12.2438 16.4792 12.0014 17C11.4326 18.2224 10.9382 19.5605 10.5357 21.0231C16.0884 15.3817 28.1614 9.41803 32.0314 30.6939C36.8688 57.2888 17.243 57.2888 13.1483 51.2445C17.7082 62.9364 24.9518 64.9347 30.822 63.6197C33.133 63.102 35.2311 62.0708 36.8688 60.9153Z" fill="#EAEAEA"/>
<path d="M0.0469772 2.5C1.64698 11.9463 9.01661 17.0386 12.0014 17C12.2438 16.4792 12.4997 15.9794 12.7677 15.5C2.9884 13.5 -0.453023 0.692094 0.0469772 2.5Z" fill="#CBC5EA"/>
<path d="M6.54698 0.5C6.94698 6.80315 11.6297 11.9193 14.547 13C14.9823 12.4652 15.6865 11.4658 16.1525 11C10.047 10.5 6.04698 -1.5 6.54698 0.5Z" fill="#CBC5EA"/>
<path d="M13.547 0C13.547 4.70315 17.4141 7.9489 19.547 8.29442C20.1234 7.93249 20.707 7.60832 21.2925 7.31937C17.489 7.31937 14.6769 1.98014 13.547 0Z" fill="#CBC5EA"/>
<path d="M116.047 11.0424C116.714 11.2426 117.363 11.5129 117.981 11.8648C121.981 10.5003 122.714 4.69628 123.047 2.5C121.047 8.1 117.88 10.8616 116.047 11.0424Z" fill="#CBC5EA"/>
<path d="M120.867 14.5C121.002 14.6942 121.279 15.1261 121.279 15.1261C121.522 15.5458 121.775 16.0056 121.994 16.5C127.047 13.5 130.047 6 130.547 2.5C128.547 8 123.594 13.5 120.867 14.5Z" fill="#CBC5EA"/>
<path d="M123.079 20.1486C123.129 20.4277 123.174 20.7116 123.214 21C134.547 15 136.047 6 136.547 2.5C134.147 11.7 127.047 17.5 122.927 19.3893C123.007 19.7702 123.029 19.8694 123.079 20.1486Z" fill="#CBC5EA"/>
</svg>
