<svg width="104" height="52" viewBox="0 0 104 52" fill="none" xmlns="http://www.w3.org/2000/svg">
<path d="M86.4139 44.5256C86.7333 44.1667 87.036 43.8099 87.3196 43.4596C88.5783 40.524 90.3033 35.8011 91.5766 30.7848C92.4234 27.4485 93.0704 23.9825 93.2473 20.8261C92.1772 18.4118 88.2253 15.9372 80.9796 25.3528C73.7338 34.7683 81.5834 42.0578 86.4139 44.5256Z" fill="#73628A"/>
<path d="M8.72636 16.2994C7.71152 19.9871 7.47684 24.7318 8.52089 30.7848C9.07901 34.0206 9.81626 36.7105 10.683 38.9329C13.7496 43.4596 28.4479 43.4596 24.825 23.5421C21.9267 7.60807 12.885 12.0744 8.72636 16.2994Z" fill="#73628A"/>
<path d="M79.1681 9.96196C77.3567 9.96196 61.0538 20.8261 66.4881 41.6489C68.6333 49.8686 72.4838 51.9605 76.451 51.2091C80.0795 50.522 83.8056 47.4564 86.4139 44.5256C81.5834 42.0578 73.7338 34.7683 80.9796 25.3528C88.2253 15.9372 92.1772 18.4118 93.2473 20.8261C93.3519 18.9604 93.2923 17.203 93.0127 15.6444C92.9412 15.2456 92.8552 14.8599 92.7539 14.4887C92.4759 13.4697 92.106 12.6077 91.6648 11.883C91.5654 11.7198 91.4624 11.5636 91.356 11.4141C90.3784 10.0401 89.1147 9.23517 87.7463 8.82463C84.7553 7.92727 81.2643 8.9143 79.1681 9.96196Z" fill="#EAEAEA"/>
<path d="M28.4479 46.1756C32.3727 44.0632 39.4977 36.579 36.5994 23.5421C34.2602 13.0204 31.5425 8.15984 28.4479 6.03634C26.7495 4.87093 24.9376 4.52991 23.0124 4.52991C21.2144 4.52991 18.9794 4.95221 16.7824 6.03634C16.3439 6.25274 15.9069 6.49552 15.4751 6.76658C14.5951 7.31912 13.737 7.98917 12.9329 8.79285C12.5839 9.14169 12.0566 9.89018 11.7305 10.2907C11.1833 10.9629 10.8607 11.3353 10.398 12.163C10.1972 12.5221 10.0056 12.8964 9.8241 13.2864C9.39806 14.2019 9.0278 15.204 8.72636 16.2994C12.885 12.0744 21.9267 7.60807 24.825 23.5421C28.4479 43.4596 13.7496 43.4596 10.683 38.9329C14.098 47.6892 19.523 49.1859 23.9193 48.201C25.65 47.8133 27.2214 47.041 28.4479 46.1756Z" fill="#EAEAEA"/>
<path d="M0.87112 2.427C2.0694 9.50158 7.58869 13.3153 9.8241 13.2864C10.0056 12.8964 10.1972 12.5221 10.398 12.163C3.07402 10.6652 0.496658 1.07301 0.87112 2.427Z" fill="#CBC5EA"/>
<path d="M5.73913 0.929149C6.0387 5.64973 9.54572 9.48133 11.7305 10.2907C12.0566 9.89018 12.5839 9.14169 12.9329 8.79285C8.36036 8.41839 5.36466 -0.568698 5.73913 0.929149Z" fill="#CBC5EA"/>
<path d="M10.9816 0.554688C10.9816 4.07699 13.8778 6.50781 15.4751 6.76658C15.9069 6.49552 16.3439 6.25274 16.7824 6.03634C13.9339 6.03634 11.8278 2.03766 10.9816 0.554688Z" fill="#CBC5EA"/>
<path d="M87.7463 8.82463C88.2459 8.97452 88.7315 9.17698 89.1944 9.44051C92.1901 8.41863 92.7391 4.07184 92.9888 2.427C91.4909 6.62097 89.1193 8.68922 87.7463 8.82463Z" fill="#CBC5EA"/>
<path d="M91.356 11.4141C91.457 11.5595 91.6648 11.883 91.6648 11.883C91.8469 12.1973 92.0363 12.5417 92.2 12.9119C95.9845 10.6652 98.2312 5.04823 98.6057 2.427C97.1079 6.54608 93.3981 10.6652 91.356 11.4141Z" fill="#CBC5EA"/>
<path d="M93.0127 15.6444C93.0502 15.8535 93.0838 16.0661 93.1135 16.2821C101.601 11.7885 102.725 5.04823 103.099 2.427C101.302 9.3171 95.9845 13.6609 92.8988 15.0758C92.959 15.3611 92.9752 15.4354 93.0127 15.6444Z" fill="#CBC5EA"/>
</svg>
