<svg width="577" height="634" viewBox="0 0 577 634" fill="none" xmlns="http://www.w3.org/2000/svg">
<path d="M352.709 379.888C380.726 421.413 332.179 392.687 304.404 373.134C314.122 384.125 325.294 395.063 337.866 405.238C340.768 406.445 348.765 408.859 357.539 408.859C366.313 408.859 366.831 398.397 365.993 393.166C364.825 389.082 365.068 389.228 367.132 390.47C369.337 391.796 373.622 394.374 380.484 394.374C393.538 394.374 391.432 383.882 390.209 377.792L390.145 377.474C389.438 373.939 392.458 374.545 396.78 375.411C399.838 376.023 403.549 376.767 407.052 376.267C412.421 375.5 410.483 371.325 408.973 368.071C408.105 366.202 407.378 364.636 408.259 364.195C421.785 363.23 420.548 354.136 418.239 349.71C416.935 349.155 415.62 348.591 414.298 348.021C418.604 359.73 410.011 359.281 403.413 358.935C400.76 358.797 398.43 358.675 397.391 359.367C395.578 360.575 397.091 361.783 399.173 363.445C401.252 365.104 403.897 367.216 404.364 370.231C404.912 373.769 397.029 371.086 389.437 368.502C384.076 366.678 378.86 364.903 376.861 365.403C374.876 365.899 376.563 367.823 378.987 370.587C382.461 374.548 387.448 380.236 385.315 385.924C383.393 391.046 372.611 385.641 363.824 381.236C356.043 377.336 349.827 374.219 352.709 379.888Z" fill="#CBC5EA"/>
<path d="M380.484 433.15C386.677 436.33 393.089 439.27 399.717 441.922C404.851 443.976 410.114 445.858 415.505 447.545C425.166 448.865 444.247 449.172 443.281 439.839C442.728 434.498 439.39 429.831 436.977 426.456C434.119 422.46 432.557 420.276 438.45 420.93C440.217 421.126 442.334 421.45 444.642 421.803C456.532 423.621 473.471 426.211 473.471 416.102C473.471 409.723 468.749 405.029 465.544 401.843C462.684 399 461.032 397.357 465.018 396.788C467.377 396.451 470.111 396.584 472.803 396.715C479.756 397.053 486.418 397.378 485.547 389.545C484.892 383.649 480.68 380.449 478.123 378.506C475.968 376.868 474.988 376.123 478.302 375.411C484.098 374.164 491.988 374.199 495.208 374.373C490.722 373.019 486.368 371.751 482.248 370.587C473.285 370.468 457.289 371.267 465.018 375.411C491.988 390.229 472.624 389.128 461.978 388.523L461.974 388.523C460.228 388.424 458.716 388.338 457.683 388.338C456.485 388.338 455.295 388.241 454.21 388.154C448.647 387.702 445.843 387.475 458.98 401.616C486.755 429.38 434.827 413.688 419.128 408.859C405.093 404.542 408.036 406.979 426.43 422.208L426.438 422.215C428.616 424.018 431.011 426.001 433.62 428.173C451.009 448.453 405.442 439.941 380.484 433.15Z" fill="#CBC5EA"/>
<path d="M487.963 433.001C516.946 445.784 477.537 453.518 454.21 455.787C462.791 456.785 471.628 457.279 480.717 457.205C490.378 455.575 508.251 449.418 502.454 437.83C500.92 433.996 505.233 433.085 508.893 432.311C510.995 431.867 512.882 431.468 513.323 430.587C514.716 429.195 514.502 426.597 514.303 424.184C514.157 422.415 514.02 420.745 514.531 419.723C515.047 418.691 517.552 417.879 520.25 417.004C523.859 415.835 527.814 414.553 527.814 412.48C527.814 410.899 525.652 408.484 523.738 406.346C521.269 403.587 519.213 401.29 522.747 401.843C523.3 401.929 523.86 402.031 524.423 402.133L524.426 402.134C530.262 403.194 536.481 404.323 538.683 389.215C536.913 388.516 535.11 387.821 533.282 387.131C533.874 393.971 531.437 404.996 516.946 394.374C502.454 383.751 496.416 385.119 495.208 387.131C491.838 389.183 500.814 395.109 509.009 400.519C515.279 404.659 521.092 408.496 520.569 410.066C520.266 410.975 516.985 411.846 513.363 412.809C506.778 414.559 499.065 416.608 506.077 419.723C516.946 424.552 506.077 430.587 492.793 429.38C482.166 428.414 485.145 431.392 487.963 433.001Z" fill="#CBC5EA"/>
<path d="M377.979 431.844C385.628 461.603 405.513 522.811 423.869 529.571C435.618 528.397 455.082 515.226 474.616 502.008C495.239 488.052 515.941 474.044 527.725 474.044C515.649 503.015 502.365 586.306 505.988 624.934C495.119 626.946 476.039 631.452 486.666 633.384C497.293 635.315 508 631.774 512.026 629.763C510.818 602.664 513.717 533.582 534.971 474.044C538.762 465.352 525.279 468.008 518.064 470.422C509.208 473.641 480.145 488.046 434.738 519.914C429.733 518.038 428.941 515.766 424.974 504.378C424.052 501.73 422.958 498.589 421.599 494.845C417.523 483.614 411.065 466.96 399.717 441.922C393.089 439.27 386.677 436.33 380.484 433.15C379.645 432.719 378.81 432.284 377.979 431.844Z" fill="#698F40"/>
<path d="M276.529 335.762C276.932 339.607 276.046 347.779 269.283 349.71C264.396 351.106 270.813 375.91 276.162 396.585C280.064 411.667 283.397 424.552 281.36 424.552C276.529 424.552 187.165 424.552 185.957 430.587C184.991 435.416 216.953 542.85 233.055 595.963C233.86 599.182 233.296 605.62 224.601 605.62C213.733 605.62 205.279 608.034 205.279 609.241C205.279 610.449 205.279 611.656 208.902 611.656H245.131C246.741 612.058 248.512 609.724 242.716 597.17C235.47 581.478 190.788 435.416 195.618 435.416C199.483 435.416 252.779 433.806 278.944 433.001C287.398 432.599 304.546 430.346 305.512 424.552C306.126 420.867 301.741 406.876 297.761 394.176C293.916 381.908 290.448 370.845 292.228 371.438C295.127 372.404 315.173 392.764 324.834 402.823C326.847 405.238 329.182 410.79 322.419 413.688C319.992 414.9 327.015 427.692 333.839 440.122C340.597 452.432 347.161 464.387 344.156 464.387C343.752 464.387 343.142 464.382 342.356 464.375C331.409 464.286 286.257 463.917 284.983 472.837C283.775 481.286 302.525 528.364 313.966 550.092C316.419 554.752 319.421 560.309 322.607 566.206C335.101 589.333 350.421 617.691 346.571 617.691C345.518 617.691 344.134 617.654 342.573 617.613C335.186 617.417 323.837 617.116 324.834 620.106C326.042 623.727 356.232 622.52 356.232 621.313C356.232 620.105 350.194 603.206 345.364 595.963C340.533 588.72 285.02 478.872 292.228 476.458C308.58 470.982 336.595 471.414 347.884 471.588C349.367 471.611 350.561 471.629 351.402 471.629C354.22 474.446 360.58 479.596 363.478 477.665C366.377 475.734 364.686 465.594 363.478 460.765C361.743 455.128 358.075 447.443 354.445 439.839C347.971 426.277 341.619 412.971 346.571 411.986C343.599 409.781 340.697 407.529 337.866 405.238C325.294 395.063 314.122 384.125 304.404 373.134C293.127 360.38 283.808 347.553 276.529 335.762Z" fill="#698F40"/>
<path d="M193.213 254.842C189.251 253.62 185.181 251.696 181.136 249.311C175.096 277.303 168.063 336.222 184.75 360.958C185.854 362.596 187.063 364.084 188.382 365.403C209.636 386.648 200.458 300.548 193.213 254.842Z" fill="#698F40"/>
<path d="M160.847 233.824C156.713 230.014 152.939 226.151 149.738 222.618C141.894 240.274 131.553 283.879 147.862 325.568C148.8 327.965 149.826 330.356 150.946 332.736C151.337 333.567 151.739 334.397 152.153 335.225C159.882 340.053 161.169 269.636 160.847 233.824Z" fill="#698F40"/>
<path d="M188.382 365.403C187.063 364.084 185.854 362.596 184.75 360.958C155.364 371.694 95.3854 395.339 90.5549 404.031C89.293 410.968 90.0089 428.779 90.6361 444.38C91.2092 458.639 91.7082 471.053 90.5549 471.629C89.705 472.054 87.2105 472.18 84.3865 472.322C79.1848 472.585 72.8654 472.904 73.6481 475.251C74.8557 478.872 100.216 477.665 100.216 476.458C100.216 476.325 100.172 475.402 100.099 473.861L100.098 473.857L100.098 473.853C99.5048 461.383 96.9926 408.593 100.216 406.445C102.148 402.582 159.799 377.474 188.382 365.403Z" fill="#698F40"/>
<path d="M150.946 332.736C149.826 330.356 148.8 327.965 147.862 325.568C116.793 336.122 53.2614 358.297 40.8066 364.865C40.1807 365.196 39.7871 365.806 39.6093 366.491C38.9336 369.093 37.1566 373.015 33.8062 373.852C31.4995 374.429 29.365 374.747 27.7621 374.91C26.4351 375.045 25.3528 376.14 25.3528 377.474V457.144C25.3528 460.363 24.1354 465.594 15.6918 466.801C2.5401 468.681 -3.63023 471.629 2.4079 472.837C8.44602 474.044 33.8069 475.251 33.8062 468.008V383.3V382.007C33.8062 381.491 34.2003 381.061 34.7124 380.995C35.115 380.942 35.5427 380.877 35.9889 380.798C40.7025 379.965 47.4717 377.599 48.2977 372.645C49.2638 366.851 117.132 343.625 150.946 332.736Z" fill="#698F40"/>
<path d="M123.17 133.981C123.573 110.125 121.963 64.8291 114.717 58.7935C111.839 55.3417 105.396 52.7125 99.0471 50.1218C92.0742 47.2765 85.2151 44.4776 83.3188 40.6866C80.4205 34.8924 79.6959 11.7157 79.6959 0.851562C75.268 2.05869 66.6536 10.5085 67.6197 34.651C68.4783 45.8083 78.4938 49.643 86.3814 52.6631C89.5877 53.8907 92.4423 54.9837 94.1874 56.3792C94.7986 56.868 95.4593 57.3691 96.1545 57.8964C102.327 62.578 111.216 69.3206 112.302 87.7644C113.268 104.181 113.509 125.787 113.509 134.538C116.597 134.166 119.838 133.959 123.17 133.981Z" fill="#698F40"/>
<path d="M144.908 137.772C146.518 115.872 152.153 72.0718 155.776 68.4504C156.581 65.6338 163.988 58.552 187.175 52.7578C193.937 49.8607 192.408 22.5798 190.797 9.30142C190.554 10.5589 190.298 11.9186 190.03 13.3508L189.845 14.3401L189.842 14.3547L189.841 14.3603C187.463 27.0816 184.159 44.7579 179.929 47.9293C178.377 49.0931 175.09 49.6991 171.068 50.4406C166.065 51.3631 159.924 52.4954 154.569 55.1721C151.153 56.8792 141.145 64.8291 137.662 95.0071C134.764 120.115 134.039 132.067 134.039 134.904C137.654 135.511 141.3 136.443 144.908 137.772Z" fill="#698F40"/>
<path d="M170.268 190.368C169.89 190.835 169.486 191.311 169.06 191.789C165.583 195.697 160.614 199.785 155.776 200.701C153.641 205.042 149.871 211.194 144.908 217.023C146.309 218.737 147.932 220.625 149.738 222.618C152.939 226.151 156.713 230.014 160.847 233.824C167.045 239.538 174.051 245.132 181.136 249.311C185.181 251.696 189.251 253.62 193.213 254.842C198.32 256.418 203.247 256.827 207.704 255.554C224.129 250.864 233.462 241.19 236.687 231.651C238.442 226.461 238.389 221.31 236.687 217.023C231.857 204.855 204.565 173.468 175.944 173.468C174.246 180.157 171.946 186.454 170.268 190.368Z" fill="#698F40"/>
<path d="M236.687 231.651C233.462 241.19 224.129 250.864 207.704 255.554C207.704 266.718 235.096 294.835 266.878 318.439C303.15 345.377 345.141 366.438 358.657 349.71C364.769 342.146 360.586 331.047 350.413 318.439C326.818 289.196 271.002 251.838 236.687 231.651Z" fill="#698F40"/>
<path d="M358.657 349.71C345.141 366.438 303.15 345.377 266.878 318.439C269.541 323.833 272.761 329.659 276.529 335.762C283.808 347.553 293.127 360.38 304.404 373.134C332.179 392.687 380.726 421.413 352.709 379.888C349.827 374.219 356.043 377.336 363.824 381.236C372.611 385.641 383.393 391.046 385.315 385.924C387.448 380.236 382.461 374.548 378.987 370.587C376.563 367.823 374.876 365.899 376.861 365.403C378.86 364.903 384.076 366.678 389.437 368.502C397.029 371.086 404.912 373.769 404.364 370.231C403.897 367.216 401.252 365.104 399.173 363.445C397.091 361.783 395.578 360.575 397.391 359.367C398.43 358.675 400.76 358.797 403.413 358.935C410.011 359.281 418.604 359.73 414.298 348.021C411.022 346.609 407.699 345.153 404.364 343.674C384.133 334.703 363.475 324.868 350.413 318.439C360.586 331.047 364.769 342.146 358.657 349.71Z" fill="#698F40"/>
<path d="M457.683 364.195C450.356 362.531 438.531 358.15 425.077 352.581C422.838 351.655 420.555 350.695 418.239 349.71C420.548 354.136 421.785 363.23 408.259 364.195C407.378 364.636 408.105 366.202 408.973 368.071C410.483 371.325 412.421 375.5 407.052 376.267C403.549 376.767 399.838 376.023 396.78 375.411C392.458 374.545 389.438 373.939 390.145 377.474L390.209 377.792C391.432 383.882 393.538 394.374 380.484 394.374C373.622 394.374 369.337 391.796 367.132 390.47C365.068 389.228 364.825 389.082 365.993 393.166C366.831 398.397 366.313 408.859 357.539 408.859C348.765 408.859 340.768 406.445 337.866 405.238C340.697 407.529 343.599 409.781 346.571 411.986C356.295 419.201 366.771 425.915 377.979 431.844C378.81 432.284 379.645 432.719 380.484 433.15C405.442 439.941 451.009 448.453 433.62 428.173C431.011 426.001 428.616 424.018 426.438 422.215L426.43 422.208C408.036 406.979 405.093 404.542 419.128 408.859C434.827 413.688 486.755 429.38 458.98 401.616C445.843 387.475 448.647 387.702 454.21 388.154C455.295 388.241 456.485 388.338 457.683 388.338C458.716 388.338 460.228 388.424 461.974 388.523L461.978 388.523C472.624 389.128 491.988 390.229 465.018 375.411C457.289 371.267 473.285 370.468 482.248 370.587C472.149 367.734 463.46 365.508 457.683 364.195Z" fill="#698F40"/>
<path d="M443.281 439.839C444.247 449.172 425.166 448.865 415.505 447.545C427.754 451.38 440.662 454.211 454.21 455.787C477.537 453.518 516.946 445.784 487.963 433.001C485.145 431.392 482.166 428.414 492.793 429.38C506.077 430.587 516.946 424.552 506.077 419.723C499.065 416.608 506.778 414.559 513.363 412.809C516.985 411.846 520.266 410.975 520.569 410.066C521.092 408.496 515.279 404.659 509.009 400.519C500.814 395.109 491.838 389.183 495.208 387.131C496.416 385.119 502.454 383.751 516.946 394.374C531.437 404.996 533.874 393.971 533.282 387.131C521.012 382.501 507.604 378.112 495.208 374.373C491.988 374.199 484.098 374.164 478.302 375.411C474.988 376.123 475.968 376.868 478.123 378.506C480.68 380.449 484.892 383.649 485.547 389.545C486.418 397.378 479.756 397.053 472.803 396.715C470.111 396.584 467.377 396.451 465.018 396.788C461.032 397.357 462.684 399 465.544 401.843C468.749 405.029 473.471 409.723 473.471 416.102C473.471 426.211 456.532 423.621 444.642 421.803C442.334 421.45 440.217 421.126 438.45 420.93C432.557 420.276 434.119 422.46 436.977 426.456C439.39 429.831 442.728 434.498 443.281 439.839Z" fill="#698F40"/>
<path d="M509.611 284.525C490.289 276.076 424.149 321.141 404.364 343.674C407.699 345.153 411.022 346.609 414.298 348.021C415.62 348.591 416.935 349.155 418.239 349.71C420.555 350.695 422.838 351.655 425.077 352.581C467.344 314.703 477.005 309.875 501.157 297.804C510.819 292.975 523.241 333.873 531.42 360.803C537.554 380.998 541.302 393.338 539.71 372.645C535.996 324.36 519.272 288.75 509.611 284.525Z" fill="#698F40"/>
<path d="M531.348 451.108C546.226 445.935 547.591 433.835 539.71 420.93C553.024 423.747 578.928 426 576.03 412.48C574.536 405.513 558.674 397.109 538.683 389.215C536.481 404.323 530.262 403.194 524.426 402.134L524.423 402.133C523.86 402.031 523.3 401.929 522.747 401.843C519.213 401.29 521.269 403.587 523.738 406.346C525.652 408.484 527.814 410.899 527.814 412.48C527.814 414.553 523.859 415.835 520.25 417.004C517.552 417.879 515.047 418.691 514.531 419.723C514.02 420.745 514.157 422.415 514.303 424.184C514.502 426.597 514.716 429.195 513.323 430.587C512.882 431.468 510.995 431.867 508.893 432.311C505.233 433.085 500.92 433.996 502.454 437.83C508.251 449.418 490.378 455.575 480.717 457.205C496.813 457.074 513.699 455.161 531.348 451.108Z" fill="#698F40"/>
<path d="M169.06 191.789C169.486 191.311 169.89 190.835 170.268 190.368C171.946 186.454 174.246 180.157 175.944 173.468C171.79 156.243 163.183 147.782 159.399 145.705C154.761 142.181 149.871 139.6 144.908 137.772C141.3 136.443 137.654 135.511 134.039 134.904C130.36 134.286 126.713 134.004 123.17 133.981C119.838 133.959 116.597 134.166 113.509 134.538C104.431 135.633 96.6735 138.153 91.7722 140.47C85.6708 143.94 75.9213 160.042 85.734 196.69C88.5518 209.471 98.7764 234.79 117.132 233.824C127.998 233.253 137.708 225.479 144.908 217.023C149.871 211.194 153.641 205.042 155.776 200.701C160.614 199.785 165.583 195.697 169.06 191.789Z" fill="#698F40"/>
</svg>
