<svg width="138" height="69" viewBox="0 0 138 69" fill="none" xmlns="http://www.w3.org/2000/svg">
<path d="M115.221 59.2122C115.648 58.7329 116.052 58.2564 116.43 57.7887C118.111 53.869 120.414 47.5628 122.114 40.8648C123.245 36.41 124.109 31.7819 124.345 27.5673C122.916 24.3437 117.64 21.0395 107.965 33.6116C98.29 46.1837 108.771 55.917 115.221 59.2122Z" fill="#73628A"/>
<path d="M11.4888 21.5231C10.1337 26.4472 9.82038 32.7825 11.2144 40.8648C11.9597 45.1853 12.9441 48.7771 14.1014 51.7445C18.1961 57.7887 37.822 57.7887 32.9845 31.1939C29.1146 9.91803 17.0416 15.8817 11.4888 21.5231Z" fill="#73628A"/>
<path d="M105.546 13.061C103.127 13.061 81.3589 27.5673 88.6151 55.371C91.4794 66.3464 96.6208 69.1395 101.918 68.1363C106.763 67.2188 111.738 63.1255 115.221 59.2122C108.771 55.917 98.29 46.1837 107.965 33.6116C117.64 21.0395 122.916 24.3437 124.345 27.5673C124.485 25.0762 124.405 22.7296 124.032 20.6486C123.937 20.1161 123.822 19.601 123.687 19.1053C123.315 17.7447 122.821 16.5938 122.232 15.6261C122.1 15.4082 121.962 15.1996 121.82 15C120.515 13.1654 118.827 12.0906 117 11.5424C113.006 10.3442 108.345 11.6622 105.546 13.061Z" fill="#EAEAEA"/>
<path d="M37.822 61.4153C43.0625 58.5947 52.5762 48.6014 48.7062 31.1939C45.5829 17.1448 41.9541 10.6548 37.822 7.81937C35.5542 6.26326 33.1348 5.80791 30.5642 5.80791C28.1635 5.80791 25.1792 6.37178 22.2457 7.81937C21.6601 8.10832 21.0766 8.43249 20.5001 8.79442C19.325 9.5322 18.1792 10.4269 17.1056 11.5C16.6396 11.9658 15.9354 12.9652 15.5001 13.5C14.7695 14.3976 14.3387 14.8948 13.7208 16C13.4528 16.4794 13.1969 16.9792 12.9546 17.5C12.3857 18.7224 11.8913 20.0605 11.4888 21.5231C17.0416 15.8817 29.1146 9.91803 32.9845 31.1939C37.822 57.7887 18.1961 57.7887 14.1014 51.7445C18.6613 63.4364 25.9049 65.4347 31.7752 64.1197C34.0861 63.602 36.1842 62.5708 37.822 61.4153Z" fill="#EAEAEA"/>
<path d="M1.0001 3C2.6001 12.4463 9.96974 17.5386 12.9546 17.5C13.1969 16.9792 13.4528 16.4794 13.7208 16C3.94152 14 0.500102 1.19209 1.0001 3Z" fill="#CBC5EA"/>
<path d="M7.5001 1C7.9001 7.30315 12.5829 12.4193 15.5001 13.5C15.9354 12.9652 16.6396 11.9658 17.1056 11.5C11.0001 11 7.0001 -1 7.5001 1Z" fill="#CBC5EA"/>
<path d="M14.5001 0.5C14.5001 5.20315 18.3672 8.4489 20.5001 8.79442C21.0766 8.43249 21.6601 8.10832 22.2457 7.81937C18.4421 7.81937 15.63 2.48014 14.5001 0.5Z" fill="#CBC5EA"/>
<path d="M117 11.5424C117.667 11.7426 118.316 12.0129 118.934 12.3648C122.934 11.0003 123.667 5.19628 124 3C122 8.6 118.833 11.3616 117 11.5424Z" fill="#CBC5EA"/>
<path d="M121.82 15C121.955 15.1942 122.232 15.6261 122.232 15.6261C122.475 16.0458 122.728 16.5056 122.947 17C128 14 131 6.5 131.5 3C129.5 8.5 124.547 14 121.82 15Z" fill="#CBC5EA"/>
<path d="M124.032 20.6486C124.082 20.9277 124.127 21.2116 124.167 21.5C135.5 15.5 137 6.5 137.5 3C135.1 12.2 128 18 123.88 19.8893C123.96 20.2702 123.982 20.3694 124.032 20.6486Z" fill="#CBC5EA"/>
</svg>
