<svg width="577" height="634" viewBox="0 0 577 634" fill="none" xmlns="http://www.w3.org/2000/svg">
<path d="M169.221 191.212C169.647 190.733 170.052 190.256 170.43 189.789C172.111 185.869 174.414 179.563 176.114 172.865C177.245 168.41 178.109 163.782 178.345 159.567C176.916 156.344 171.64 153.04 161.965 165.612C152.29 178.184 162.771 187.917 169.221 191.212Z" fill="#73628A"/>
<path d="M65.4887 153.523C64.1336 158.447 63.8203 164.783 65.2143 172.865C65.9596 177.185 66.944 180.777 68.1013 183.744C72.196 189.789 91.8219 189.789 86.9844 163.194C83.1145 141.918 71.0415 147.882 65.4887 153.523Z" fill="#73628A"/>
<path d="M159.546 145.061C157.127 145.061 135.359 159.567 142.615 187.371C145.479 198.346 150.621 201.14 155.918 200.136C160.763 199.219 165.738 195.126 169.221 191.212C162.771 187.917 152.29 178.184 161.965 165.612C171.64 153.04 176.916 156.344 178.345 159.567C178.485 157.076 178.405 154.73 178.032 152.649C177.936 152.116 177.822 151.601 177.686 151.105C177.315 149.745 176.821 148.594 176.232 147.626C176.099 147.408 175.962 147.2 175.82 147C174.514 145.165 172.827 144.091 171 143.542C167.006 142.344 162.345 143.662 159.546 145.061Z" fill="#EAEAEA"/>
<path d="M91.8219 193.415C97.0624 190.595 106.576 180.601 102.706 163.194C99.5828 149.145 95.954 142.655 91.8219 139.819C89.5541 138.263 87.1347 137.808 84.5641 137.808C82.1634 137.808 79.1791 138.372 76.2456 139.819C75.66 140.108 75.0765 140.432 74.5 140.794C73.3249 141.532 72.1791 142.427 71.1055 143.5C70.6395 143.966 69.9353 144.965 69.5 145.5C68.7694 146.398 68.3386 146.895 67.7207 148C67.4527 148.479 67.1968 148.979 66.9545 149.5C66.3856 150.722 65.8912 152.06 65.4887 153.523C71.0415 147.882 83.1145 141.918 86.9844 163.194C91.8219 189.789 72.196 189.789 68.1013 183.744C72.6612 195.436 79.9048 197.435 85.7751 196.12C88.086 195.602 90.1841 194.571 91.8219 193.415Z" fill="#EAEAEA"/>
<path d="M353.133 379.581C381.19 421.166 332.574 392.399 304.759 372.817C314.491 383.824 325.679 394.778 338.269 404.967C341.175 406.176 349.184 408.594 357.971 408.594C366.757 408.594 367.275 398.117 366.436 392.878C365.267 388.788 365.511 388.935 367.577 390.178C369.786 391.506 374.076 394.087 380.948 394.087C394.021 394.087 391.912 383.581 390.687 377.482L390.623 377.163C389.915 373.624 392.94 374.23 397.268 375.097C400.331 375.711 404.046 376.455 407.554 375.954C412.931 375.187 410.99 371.006 409.478 367.747C408.609 365.875 407.881 364.307 408.764 363.866C422.309 362.899 421.07 353.792 418.758 349.36C417.452 348.804 416.135 348.239 414.811 347.668C419.123 359.394 410.518 358.944 403.911 358.598C401.254 358.459 398.92 358.337 397.879 359.03C396.064 360.24 397.58 361.45 399.664 363.114C401.746 364.776 404.395 366.89 404.862 369.91C405.411 373.453 397.517 370.766 389.914 368.179C384.546 366.352 379.323 364.574 377.32 365.075C375.332 365.572 377.021 367.498 379.449 370.267C382.928 374.234 387.923 379.929 385.786 385.625C383.862 390.755 373.064 385.342 364.264 380.931C356.473 377.025 350.247 373.904 353.133 379.581Z" fill="#CBC5EA"/>
<path d="M380.948 432.919C387.151 436.104 393.572 439.048 400.209 441.704C405.35 443.761 410.621 445.646 416.02 447.335C425.695 448.657 444.803 448.964 443.835 439.618C443.281 434.269 439.939 429.596 437.523 426.216C434.661 422.214 433.097 420.027 438.998 420.682C440.767 420.879 442.887 421.203 445.198 421.556C457.105 423.377 474.069 425.97 474.069 415.847C474.069 409.458 469.341 404.758 466.131 401.567C463.267 398.72 461.612 397.075 465.604 396.505C467.966 396.168 470.705 396.301 473.4 396.432C480.363 396.771 487.035 397.096 486.163 389.252C485.507 383.348 481.289 380.143 478.728 378.197C476.57 376.557 475.588 375.811 478.907 375.097C484.712 373.849 492.613 373.884 495.838 374.058C491.345 372.702 486.984 371.432 482.859 370.267C473.882 370.148 457.864 370.948 465.604 375.097C492.613 389.936 473.221 388.834 462.559 388.229C460.809 388.129 459.294 388.043 458.258 388.043C457.059 388.043 455.867 387.946 454.78 387.858C449.209 387.407 446.401 387.179 459.557 401.34C487.372 429.144 435.37 413.429 419.648 408.594C405.592 404.271 408.54 406.711 426.96 421.962L426.969 421.969C429.15 423.775 431.548 425.76 434.16 427.935C451.575 448.244 405.942 439.72 380.948 432.919Z" fill="#CBC5EA"/>
<path d="M488.582 432.771C517.606 445.572 478.141 453.317 454.78 455.589C463.373 456.589 472.223 457.083 481.325 457.009C491 455.377 508.899 449.211 503.094 437.606C501.557 433.767 505.877 432.854 509.542 432.079C511.647 431.634 513.537 431.235 513.978 430.353C515.373 428.958 515.159 426.357 514.96 423.941C514.814 422.169 514.676 420.496 515.187 419.473C515.705 418.439 518.213 417.626 520.915 416.751C524.53 415.579 528.49 414.296 528.49 412.22C528.49 410.637 526.325 408.218 524.408 406.077C521.935 403.314 519.876 401.014 523.416 401.567C523.969 401.654 524.53 401.755 525.094 401.858L525.097 401.858C530.942 402.92 537.169 404.051 539.375 388.921C537.602 388.221 535.796 387.525 533.965 386.834C534.559 393.684 532.118 404.725 517.606 394.087C503.094 383.449 497.047 384.819 495.838 386.834C492.463 388.889 501.452 394.824 509.659 400.242C515.937 404.387 521.758 408.23 521.234 409.802C520.931 410.712 517.645 411.585 514.018 412.549C507.424 414.301 499.7 416.354 506.722 419.473C517.606 424.309 506.722 430.353 493.419 429.144C482.777 428.177 485.76 431.159 488.582 432.771Z" fill="#CBC5EA"/>
<path fill-rule="evenodd" clip-rule="evenodd" d="M91.8219 139.819C95.954 142.655 99.5828 149.145 102.706 163.194C106.576 180.601 97.0624 190.595 91.8219 193.415C90.1841 194.571 88.086 195.602 85.7751 196.12C88.5969 208.919 98.8362 234.275 117.218 233.308C128.1 232.735 137.823 224.95 145.034 216.482C146.437 218.198 148.063 220.089 149.871 222.085C153.076 225.623 156.856 229.492 160.996 233.308C167.203 239.03 174.218 244.631 181.315 248.816C185.365 251.204 189.441 253.131 193.408 254.355C198.523 255.933 203.457 256.343 207.92 255.069C207.92 266.248 235.351 294.405 267.179 318.043C269.846 323.445 273.071 329.28 276.844 335.392C284.133 347.199 293.466 360.045 304.759 372.817C332.574 392.399 381.19 421.166 353.133 379.581C350.247 373.904 356.473 377.025 364.264 380.931C373.064 385.342 383.862 390.755 385.786 385.625C387.923 379.929 382.928 374.234 379.449 370.267C377.021 367.498 375.332 365.572 377.32 365.075C379.323 364.574 384.546 366.352 389.914 368.179C397.517 370.766 405.411 373.453 404.862 369.91C404.395 366.89 401.746 364.776 399.664 363.114C397.58 361.45 396.064 360.24 397.879 359.03C398.92 358.337 401.254 358.459 403.911 358.598C410.518 358.944 419.123 359.394 414.811 347.668C416.135 348.239 417.452 348.804 418.758 349.36C421.07 353.792 422.309 362.899 408.764 363.866C407.881 364.307 408.609 365.875 409.478 367.747C410.99 371.006 412.931 375.187 407.554 375.954C404.046 376.455 400.331 375.711 397.268 375.097C392.94 374.23 389.915 373.624 390.623 377.163L390.687 377.482C391.912 383.581 394.021 394.087 380.948 394.087C374.076 394.087 369.786 391.506 367.577 390.178C365.511 388.935 365.267 388.788 366.436 392.878C367.275 398.117 366.757 408.594 357.971 408.594C349.184 408.594 341.175 406.176 338.269 404.967C341.104 407.261 344.011 409.517 346.987 411.725C356.724 418.95 367.216 425.674 378.44 431.612C379.272 432.052 380.108 432.488 380.948 432.919C405.942 439.72 451.575 448.244 434.16 427.935C431.548 425.76 429.15 423.775 426.969 421.969L426.96 421.962C408.54 406.711 405.592 404.271 419.648 408.594C435.37 413.429 487.372 429.144 459.557 401.34C446.401 387.179 449.209 387.407 454.78 387.858C455.867 387.946 457.059 388.043 458.258 388.043C459.294 388.043 460.809 388.129 462.559 388.229C473.221 388.834 492.613 389.936 465.604 375.097C457.864 370.948 473.882 370.148 482.859 370.267C472.745 367.409 464.043 365.18 458.258 363.866C450.921 362.199 439.079 357.812 425.605 352.235C467.933 314.303 477.608 309.467 501.795 297.379C511.47 292.543 523.91 333.5 532.101 360.469C538.244 380.693 541.997 393.05 540.403 372.328C536.684 323.974 519.935 288.312 510.261 284.081C490.911 275.619 424.677 320.75 404.862 343.315C384.603 334.332 363.915 324.482 350.834 318.043C327.206 288.759 271.309 251.347 236.945 231.131C238.702 225.933 238.65 220.775 236.945 216.482C232.108 204.297 204.776 172.865 176.114 172.865C174.414 179.563 172.111 185.869 170.43 189.789C170.052 190.256 169.647 190.733 169.221 191.212C165.738 195.126 160.763 199.219 155.918 200.136C150.621 201.14 145.479 198.346 142.615 187.371C135.359 159.567 157.127 145.061 159.546 145.061C154.901 141.533 150.004 138.948 145.034 137.117C141.421 135.786 137.77 134.853 134.149 134.245C130.465 133.626 126.813 133.344 123.265 133.321C119.928 133.299 116.683 133.506 113.59 133.879C104.499 134.975 96.7302 137.499 91.8219 139.819ZM35.9585 380.492C34.7266 380.71 33.7726 381.747 33.7726 382.998V381.703C33.7726 381.186 34.1672 380.756 34.6801 380.689C35.0833 380.637 35.5116 380.571 35.9585 380.492ZM495.838 374.058C492.613 373.884 484.712 373.849 478.907 375.097C475.588 375.811 476.57 376.557 478.728 378.197C481.289 380.143 485.507 383.348 486.163 389.252C487.035 397.096 480.363 396.771 473.4 396.432C470.705 396.301 467.966 396.168 465.604 396.505C461.612 397.075 463.267 398.72 466.131 401.567C469.341 404.758 474.069 409.458 474.069 415.847C474.069 425.97 457.105 423.377 445.198 421.556C442.887 421.203 440.767 420.879 438.998 420.682C433.097 420.027 434.661 422.214 437.523 426.216C439.939 429.596 443.281 434.269 443.835 439.618C444.803 448.964 425.695 448.657 416.02 447.335C428.287 451.175 441.213 454.011 454.78 455.589C478.141 453.317 517.606 445.572 488.582 432.771C485.76 431.159 482.777 428.177 493.419 429.144C506.722 430.353 517.606 424.309 506.722 419.473C499.7 416.354 507.424 414.301 514.018 412.549C517.645 411.585 520.931 410.712 521.234 409.802C521.758 408.23 515.937 404.387 509.659 400.242C501.452 394.824 492.463 388.889 495.838 386.834C497.047 384.819 503.094 383.449 517.606 394.087C532.118 404.725 534.559 393.684 533.965 386.834C521.678 382.198 508.251 377.803 495.838 374.058ZM532.029 450.904C514.355 454.962 497.445 456.878 481.325 457.009C491 455.377 508.899 449.211 503.094 437.606C501.557 433.767 505.877 432.854 509.542 432.079C511.647 431.634 513.537 431.235 513.978 430.353C515.373 428.958 515.159 426.357 514.96 423.941C514.814 422.169 514.676 420.496 515.187 419.473C515.705 418.439 518.213 417.626 520.915 416.751C524.53 415.579 528.49 414.296 528.49 412.22C528.49 410.637 526.325 408.218 524.408 406.077C521.935 403.314 519.876 401.014 523.416 401.567C523.969 401.654 524.53 401.755 525.094 401.858L525.097 401.858C530.942 402.92 537.169 404.051 539.375 388.921C559.394 396.827 575.28 405.243 576.775 412.22C579.678 425.759 553.737 423.503 540.403 420.682C548.295 433.606 546.929 445.723 532.029 450.904Z" fill="#698F40"/>
<path d="M378.44 431.612C386.1 461.414 406.014 522.71 424.396 529.479C436.161 528.303 455.653 515.113 475.215 501.876C495.869 487.901 516.6 473.872 528.401 473.872C516.307 502.884 503.004 586.296 506.632 624.979C495.748 626.994 476.64 631.507 487.283 633.441C497.925 635.375 508.648 631.829 512.679 629.814C511.47 602.677 514.372 533.496 535.657 473.872C539.454 465.168 525.952 467.828 518.726 470.245C509.857 473.469 480.752 487.895 435.28 519.808C430.268 517.929 429.475 515.654 425.503 504.25C424.579 501.598 423.483 498.452 422.122 494.703C418.04 483.456 411.573 466.778 400.209 441.704C393.572 439.048 387.151 436.104 380.948 432.919C380.108 432.488 379.272 432.052 378.44 431.612Z" fill="#698F40"/>
<path d="M276.844 335.392C277.247 339.242 276.361 347.425 269.588 349.36C264.693 350.758 271.12 375.597 276.476 396.302C280.384 411.405 283.722 424.309 281.682 424.309C276.844 424.309 187.352 424.309 186.142 430.353C185.175 435.188 217.182 542.777 233.307 595.966C234.114 599.19 233.549 605.637 224.842 605.637C213.958 605.637 205.492 608.055 205.492 609.264C205.492 610.473 205.492 611.682 209.12 611.682H245.401C247.013 612.084 248.787 609.747 242.982 597.175C235.726 581.46 190.98 435.188 195.817 435.188C199.687 435.188 253.06 433.577 279.263 432.771C287.728 432.368 304.901 430.111 305.869 424.309C306.484 420.619 302.093 406.608 298.106 393.889C294.256 381.604 290.783 370.525 292.566 371.119C295.468 372.086 315.544 392.475 325.219 402.549C327.234 404.967 329.572 410.528 322.8 413.429C320.37 414.644 327.402 427.454 334.236 439.901C341.004 452.229 347.577 464.201 344.568 464.201C344.163 464.201 343.553 464.196 342.766 464.19C331.803 464.1 286.586 463.731 285.31 472.663C284.1 481.125 302.877 528.27 314.334 550.03C316.791 554.696 319.798 560.261 322.988 566.166C335.5 589.327 350.842 617.726 346.987 617.726C345.932 617.726 344.546 617.689 342.983 617.647C335.585 617.451 324.22 617.15 325.219 620.143C326.428 623.77 356.662 622.561 356.662 621.352C356.662 620.143 350.615 603.219 345.778 595.966C340.94 588.713 285.347 478.707 292.566 476.29C308.941 470.805 336.997 471.238 348.301 471.413C349.786 471.436 350.982 471.454 351.825 471.454C354.646 474.275 361.016 479.433 363.918 477.498C366.821 475.564 365.128 465.41 363.918 460.574C362.18 454.929 358.507 447.233 354.872 439.618C348.389 426.037 342.028 412.711 346.987 411.725C344.011 409.517 341.104 407.261 338.269 404.967C325.679 394.778 314.491 383.824 304.759 372.817C293.466 360.045 284.133 347.199 276.844 335.392Z" fill="#698F40"/>
<path d="M193.408 254.355C189.441 253.131 185.365 251.204 181.315 248.816C175.265 276.848 168.223 335.852 184.933 360.624C186.039 362.264 187.249 363.754 188.571 365.075C209.855 386.351 200.664 300.127 193.408 254.355Z" fill="#698F40"/>
<path d="M160.996 233.308C156.856 229.492 153.076 225.623 149.871 222.085C142.015 239.767 131.66 283.434 147.992 325.182C148.931 327.584 149.959 329.978 151.081 332.361C151.472 333.193 151.875 334.024 152.29 334.853C160.03 339.689 161.319 269.171 160.996 233.308Z" fill="#698F40"/>
<path d="M188.571 365.075C187.249 363.754 186.039 362.264 184.933 360.624C155.505 371.376 95.4402 395.054 90.6028 403.758C89.3391 410.705 90.0561 428.542 90.6841 444.165C91.2581 458.445 91.7578 470.877 90.6028 471.454C89.7517 471.879 87.2536 472.005 84.4256 472.148C79.2164 472.411 72.8879 472.73 73.6717 475.081C74.8811 478.707 100.278 477.498 100.278 476.29C100.278 476.156 100.234 475.232 100.16 473.689L100.16 473.685L100.16 473.681C99.5656 461.193 97.0498 408.327 100.278 406.176C102.213 402.308 159.946 377.163 188.571 365.075Z" fill="#698F40"/>
<path d="M151.081 332.361C149.959 329.978 148.931 327.584 147.992 325.182C116.879 335.752 53.2557 357.959 40.783 364.537C40.1562 364.867 39.7621 365.479 39.5841 366.165C38.9073 368.77 37.1278 372.698 33.7726 373.537C31.4626 374.114 29.325 374.433 27.7199 374.596C26.3909 374.731 25.3071 375.828 25.3071 377.163V456.948C25.3071 460.171 24.088 465.41 15.6322 466.619C2.4616 468.502 -3.7176 471.454 2.32921 472.663C8.37601 473.872 33.7734 475.081 33.7726 467.828V382.998V381.703C33.7726 381.186 34.1672 380.756 34.6801 380.689C35.0833 380.637 35.5116 380.571 35.9585 380.492C40.6788 379.658 47.4578 377.289 48.2849 372.328C49.2524 366.525 117.218 343.266 151.081 332.361Z" fill="#698F40"/>
<path d="M123.265 133.321C123.668 109.431 122.056 64.0694 114.8 58.0251C111.918 54.5684 105.465 51.9354 99.1072 49.341C92.1243 46.4916 85.2553 43.6887 83.3563 39.8923C80.4539 34.0898 79.7282 10.8797 79.7282 0C75.2939 1.20886 66.6672 9.67086 67.6347 33.848C68.4945 45.0213 78.5244 48.8616 86.4233 51.8859C89.6342 53.1153 92.493 54.2099 94.2406 55.6074C94.8527 56.0969 95.5143 56.5987 96.2105 57.1268C102.392 61.8151 111.294 68.5674 112.381 87.0377C113.348 103.478 113.59 125.115 113.59 133.879C116.683 133.506 119.928 133.299 123.265 133.321Z" fill="#698F40"/>
<path d="M145.034 137.117C146.646 115.185 152.29 71.3225 155.918 67.696C156.724 64.8753 164.142 57.7833 187.361 51.9808C194.134 49.0796 192.602 21.7594 190.989 8.462C190.746 9.72125 190.489 11.0829 190.221 12.5172L190.036 13.5079L190.033 13.5225L190.032 13.5282C187.651 26.2677 184.342 43.9694 180.105 47.1454C178.551 48.3108 175.259 48.9177 171.232 49.6603C166.222 50.5841 160.072 51.718 154.709 54.3985C151.288 56.1081 141.266 64.0694 137.778 94.2908C134.875 119.435 134.149 131.404 134.149 134.245C137.77 134.853 141.421 135.786 145.034 137.117Z" fill="#698F40"/>
<path d="M55 135C56.6 144.446 63.9696 149.539 66.9545 149.5C67.1968 148.979 67.4527 148.479 67.7207 148C57.9414 146 54.5 133.192 55 135Z" fill="#CBC5EA"/>
<path d="M61.5 133C61.9 139.303 66.5828 144.419 69.5 145.5C69.9353 144.965 70.6395 143.966 71.1055 143.5C65 143 61 131 61.5 133Z" fill="#CBC5EA"/>
<path d="M68.5 132.5C68.5 137.203 72.3671 140.449 74.5 140.794C75.0765 140.432 75.66 140.108 76.2456 139.819C72.442 139.819 69.6299 134.48 68.5 132.5Z" fill="#CBC5EA"/>
<path d="M171 143.542C171.667 143.743 172.316 144.013 172.934 144.365C176.934 143 177.667 137.196 178 135C176 140.6 172.833 143.362 171 143.542Z" fill="#CBC5EA"/>
<path d="M175.82 147C175.955 147.194 176.232 147.626 176.232 147.626C176.475 148.046 176.728 148.506 176.947 149C182 146 185 138.5 185.5 135C183.5 140.5 178.547 146 175.82 147Z" fill="#CBC5EA"/>
<path d="M178.032 152.649C178.082 152.928 178.127 153.212 178.167 153.5C189.5 147.5 191 138.5 191.5 135C189.1 144.2 182 150 177.88 151.889C177.96 152.27 177.982 152.369 178.032 152.649Z" fill="#CBC5EA"/>
</svg>
