<svg width="433" height="476" viewBox="0 0 433 476" fill="none" xmlns="http://www.w3.org/2000/svg">
<path d="M127.415 143.528C127.735 143.169 128.037 142.812 128.321 142.462C129.58 139.526 131.305 134.803 132.578 129.787C133.425 126.451 134.072 122.984 134.249 119.828C133.178 117.414 129.227 114.939 121.981 124.355C114.735 133.77 122.585 141.06 127.415 143.528Z" fill="#73628A"/>
<path d="M49.7277 115.301C48.7129 118.989 48.4782 123.734 49.5222 129.787C50.0803 133.023 50.8176 135.713 51.6843 137.935C54.751 142.462 69.4492 142.462 65.8264 122.544C62.9281 106.61 53.8863 111.076 49.7277 115.301Z" fill="#73628A"/>
<path d="M120.169 108.964C118.358 108.964 102.055 119.828 107.489 140.651C109.635 148.871 113.485 150.962 117.452 150.211C121.081 149.524 124.807 146.458 127.415 143.528C122.585 141.06 114.735 133.77 121.981 124.355C129.227 114.939 133.178 117.414 134.249 119.828C134.353 117.962 134.294 116.205 134.014 114.646C133.943 114.248 133.857 113.862 133.755 113.491C133.477 112.472 133.107 111.61 132.666 110.885C132.567 110.722 132.464 110.566 132.357 110.416C131.38 109.042 130.116 108.237 128.748 107.827C125.757 106.929 122.266 107.916 120.169 108.964Z" fill="#EAEAEA"/>
<path d="M69.4492 145.178C73.374 143.065 80.499 135.581 77.6007 122.544C75.2616 112.022 72.5439 107.162 69.4492 105.038C67.7508 103.873 65.9389 103.532 64.0137 103.532C62.2158 103.532 59.9807 103.954 57.7838 105.038C57.3452 105.255 56.9082 105.497 56.4765 105.769C55.5964 106.321 54.7383 106.991 53.9343 107.795C53.5853 108.144 53.0579 108.892 52.7319 109.293C52.1847 109.965 51.862 110.337 51.3993 111.165C51.1986 111.524 51.0069 111.898 50.8254 112.288C50.3994 113.204 50.0291 114.206 49.7277 115.301C53.8863 111.076 62.9281 106.61 65.8264 122.544C69.4492 142.462 54.751 142.462 51.6843 137.935C55.0993 146.691 60.5243 148.188 64.9206 147.203C66.6514 146.815 68.2227 146.043 69.4492 145.178Z" fill="#EAEAEA"/>
<path d="M265.152 284.602C286.164 315.745 249.754 294.201 228.923 279.536C236.211 287.78 244.59 295.983 254.02 303.614C256.196 304.519 262.194 306.33 268.774 306.33C275.355 306.33 275.743 298.483 275.114 294.56C274.239 291.497 274.421 291.607 275.969 292.538C277.623 293.533 280.836 295.466 285.983 295.466C295.773 295.466 294.194 287.597 293.277 283.029L293.229 282.791C292.698 280.14 294.963 280.594 298.205 281.243C300.499 281.703 303.282 282.261 305.909 281.886C309.935 281.311 308.482 278.179 307.349 275.739C306.699 274.337 306.154 273.162 306.815 272.832C316.959 272.108 316.031 265.288 314.3 261.968C313.321 261.552 312.335 261.129 311.343 260.701C314.573 269.483 308.128 269.146 303.18 268.887C301.19 268.783 299.442 268.691 298.663 269.211C297.303 270.117 298.438 271.023 300 272.269C301.559 273.514 303.543 275.097 303.893 277.359C304.304 280.012 298.392 278 292.698 276.062C288.677 274.694 284.765 273.363 283.266 273.737C281.777 274.11 283.042 275.552 284.86 277.626C287.466 280.597 291.206 284.863 289.606 289.128C288.165 292.97 280.078 288.916 273.488 285.612C267.653 282.687 262.99 280.35 265.152 284.602Z" fill="#CBC5EA"/>
<path d="M285.983 324.548C290.628 326.933 295.437 329.138 300.408 331.127C304.258 332.667 308.206 334.079 312.249 335.344C319.495 336.334 333.805 336.564 333.08 329.565C332.666 325.559 330.163 322.059 328.353 319.528C326.21 316.53 325.038 314.892 329.458 315.383C330.782 315.53 332.371 315.773 334.101 316.038C343.019 317.401 355.723 319.344 355.723 311.762C355.723 306.977 352.182 303.457 349.778 301.067C347.633 298.935 346.394 297.703 349.383 297.276C351.152 297.024 353.204 297.124 355.222 297.222C360.437 297.476 365.434 297.719 364.781 291.844C364.289 287.423 361.13 285.022 359.212 283.565C357.596 282.336 356.861 281.778 359.346 281.243C363.694 280.309 369.611 280.335 372.026 280.465C368.661 279.45 365.396 278.499 362.306 277.626C355.583 277.537 343.587 278.136 349.383 281.243C369.611 292.357 355.088 291.532 347.103 291.078C345.793 291.003 344.658 290.939 343.882 290.939C342.984 290.939 342.091 290.867 341.278 290.801C337.105 290.462 335.002 290.292 344.855 300.898C365.686 321.721 326.74 309.951 314.966 306.33C304.44 303.092 306.647 304.92 320.442 316.342L320.449 316.347C322.082 317.699 323.878 319.186 325.835 320.815C338.877 336.025 304.701 329.641 285.983 324.548Z" fill="#CBC5EA"/>
<path d="M366.592 324.437C388.329 334.024 358.773 339.824 341.278 341.526C347.713 342.274 354.341 342.645 361.158 342.589C368.403 341.367 381.808 336.749 377.461 328.058C376.31 325.183 379.545 324.499 382.29 323.919C383.867 323.585 385.282 323.286 385.612 322.626C386.657 321.581 386.496 319.633 386.347 317.824C386.238 316.496 386.135 315.244 386.518 314.478C386.905 313.703 388.784 313.095 390.807 312.439C393.514 311.561 396.481 310.6 396.481 309.046C396.481 307.86 394.859 306.048 393.424 304.445C391.572 302.376 390.029 300.653 392.681 301.067C393.095 301.132 393.515 301.208 393.937 301.285L393.939 301.286C398.317 302.081 402.981 302.928 404.632 291.597C403.304 291.072 401.952 290.551 400.581 290.034C401.026 295.164 399.198 303.433 388.329 295.466C377.461 287.499 372.932 288.525 372.026 290.034C369.499 291.572 376.231 296.017 382.377 300.075C387.08 303.18 391.439 306.058 391.046 307.235C390.819 307.917 388.359 308.57 385.642 309.292C380.703 310.604 374.919 312.141 380.178 314.478C388.329 318.099 380.178 322.626 370.215 321.721C362.245 320.996 364.479 323.229 366.592 324.437Z" fill="#CBC5EA"/>
<path fill-rule="evenodd" clip-rule="evenodd" d="M69.4492 105.038C72.5439 107.162 75.2616 112.022 77.6007 122.544C80.499 135.581 73.374 143.065 69.4492 145.178C68.2227 146.043 66.6514 146.815 64.9206 147.203C67.034 156.788 74.7024 175.778 88.4693 175.054C96.6189 174.625 103.901 168.795 109.301 162.453C110.352 163.738 111.569 165.154 112.924 166.649C115.324 169.299 118.155 172.196 121.255 175.054C125.904 179.339 131.158 183.534 136.472 186.668C139.506 188.457 142.558 189.9 145.53 190.817C149.36 191.999 153.056 192.306 156.398 191.351C156.398 199.724 176.942 220.811 200.778 238.514C202.775 242.56 205.191 246.93 208.017 251.507C213.476 260.35 220.465 269.97 228.923 279.536C249.754 294.201 286.164 315.745 265.152 284.602C262.99 280.35 267.653 282.687 273.488 285.612C280.078 288.916 288.165 292.97 289.606 289.128C291.206 284.863 287.466 280.597 284.86 277.626C283.042 275.552 281.777 274.11 283.266 273.737C284.765 273.363 288.677 274.694 292.698 276.062C298.392 278 304.304 280.012 303.893 277.359C303.543 275.097 301.559 273.514 300 272.269C298.438 271.023 297.303 270.117 298.663 269.211C299.442 268.691 301.19 268.783 303.18 268.887C308.128 269.146 314.573 269.483 311.343 260.701C312.335 261.129 313.321 261.552 314.3 261.968C316.031 265.288 316.959 272.108 306.815 272.832C306.154 273.162 306.699 274.337 307.349 275.739C308.482 278.179 309.935 281.311 305.909 281.886C303.282 282.261 300.499 281.703 298.205 281.243C294.963 280.594 292.698 280.14 293.229 282.791L293.277 283.029C294.194 287.597 295.773 295.466 285.983 295.466C280.836 295.466 277.623 293.533 275.969 292.538C274.421 291.607 274.239 291.497 275.114 294.56C275.743 298.483 275.355 306.33 268.774 306.33C262.194 306.33 256.196 304.519 254.02 303.614C256.143 305.332 258.319 307.021 260.549 308.675C267.841 314.086 275.698 319.121 284.105 323.569C284.728 323.898 285.354 324.225 285.983 324.548C304.701 329.641 338.877 336.025 325.835 320.815C323.878 319.186 322.082 317.699 320.449 316.347L320.442 316.342C306.647 304.92 304.44 303.092 314.966 306.33C326.74 309.951 365.686 321.721 344.855 300.898C335.002 290.292 337.105 290.462 341.278 290.801C342.091 290.867 342.984 290.939 343.882 290.939C344.658 290.939 345.793 291.003 347.103 291.078C355.088 291.532 369.611 292.357 349.383 281.243C343.587 278.136 355.583 277.537 362.306 277.626C354.732 275.486 348.215 273.816 343.882 272.832C338.387 271.584 329.518 268.298 319.428 264.122C351.128 235.713 358.374 232.092 376.488 223.038C383.734 219.417 393.051 250.091 399.185 270.288C403.785 285.434 406.596 294.689 405.402 279.169C402.617 242.956 390.074 216.248 382.828 213.08C368.336 206.742 318.732 240.542 303.893 257.441C288.72 250.713 273.227 243.336 263.43 238.514C245.734 216.583 203.872 188.564 178.136 173.424C179.452 169.531 179.412 165.668 178.136 162.453C174.513 153.327 154.044 129.787 132.578 129.787C131.305 134.803 129.58 139.526 128.321 142.462C128.037 142.812 127.735 143.169 127.415 143.528C124.807 146.458 121.081 149.524 117.452 150.211C113.485 150.962 109.635 148.871 107.489 140.651C102.055 119.828 118.358 108.964 120.169 108.964C116.691 106.321 113.023 104.386 109.301 103.014C106.595 102.018 103.861 101.319 101.149 100.863C98.3904 100.4 95.6551 100.189 92.9979 100.171C90.4984 100.155 88.068 100.31 85.7522 100.589C78.9437 101.41 73.1252 103.3 69.4492 105.038ZM27.6118 285.284C26.6892 285.447 25.9747 286.224 25.9747 287.16V286.191C25.9747 285.803 26.2703 285.481 26.6544 285.431C26.9563 285.392 27.2772 285.343 27.6118 285.284ZM372.026 280.465C369.611 280.335 363.694 280.309 359.346 281.243C356.861 281.778 357.596 282.336 359.212 283.565C361.13 285.022 364.289 287.423 364.781 291.844C365.434 297.719 360.437 297.476 355.222 297.222C353.204 297.124 351.152 297.024 349.383 297.276C346.394 297.703 347.633 298.935 349.778 301.067C352.182 303.457 355.723 306.977 355.723 311.762C355.723 319.344 343.019 317.401 334.101 316.038C332.371 315.773 330.782 315.53 329.458 315.383C325.038 314.892 326.21 316.53 328.353 319.528C330.163 322.059 332.666 325.559 333.08 329.565C333.805 336.564 319.495 336.334 312.249 335.344C321.436 338.22 331.117 340.344 341.278 341.526C358.773 339.824 388.329 334.024 366.592 324.437C364.479 323.229 362.245 320.996 370.215 321.721C380.178 322.626 388.329 318.099 380.178 314.478C374.919 312.141 380.703 310.604 385.642 309.292C388.359 308.57 390.819 307.917 391.046 307.235C391.439 306.058 387.08 303.18 382.377 300.075C376.231 296.017 369.499 291.572 372.026 290.034C372.932 288.525 377.461 287.499 388.329 295.466C399.198 303.433 401.026 295.164 400.581 290.034C391.379 286.561 381.323 283.27 372.026 280.465ZM399.131 338.017C385.894 341.056 373.23 342.491 361.158 342.589C368.403 341.367 381.808 336.749 377.461 328.058C376.31 325.183 379.545 324.499 382.29 323.919C383.867 323.585 385.282 323.286 385.612 322.626C386.657 321.581 386.496 319.633 386.347 317.824C386.238 316.496 386.135 315.244 386.518 314.478C386.905 313.703 388.784 313.095 390.807 312.439C393.514 311.561 396.481 310.6 396.481 309.046C396.481 307.86 394.859 306.048 393.424 304.445C391.572 302.376 390.029 300.653 392.681 301.067C393.095 301.132 393.515 301.208 393.937 301.285L393.939 301.286C398.317 302.081 402.981 302.928 404.632 291.597C419.626 297.517 431.522 303.82 432.643 309.046C434.816 319.186 415.388 317.496 405.402 315.383C411.313 325.062 410.29 334.137 399.131 338.017Z" fill="#698F40"/>
<path d="M284.105 323.569C289.841 345.888 304.755 391.794 318.522 396.864C327.333 395.983 341.931 386.105 356.582 376.191C372.05 365.725 387.576 355.218 396.414 355.218C387.357 376.946 377.394 439.415 380.111 468.386C371.959 469.895 357.649 473.275 365.619 474.723C373.59 476.172 381.62 473.516 384.639 472.007C383.734 451.683 385.907 399.872 401.848 355.218C404.692 348.7 394.58 350.691 389.168 352.502C382.526 354.916 360.728 365.72 326.673 389.621C322.919 388.214 322.326 386.51 319.351 377.969C318.659 375.983 317.838 373.627 316.819 370.819C313.762 362.396 308.919 349.905 300.408 331.127C295.437 329.138 290.628 326.933 285.983 324.548C285.354 324.225 284.728 323.898 284.105 323.569Z" fill="#698F40"/>
<path d="M208.017 251.507C208.319 254.391 207.655 260.519 202.583 261.968C198.917 263.015 203.73 281.618 207.741 297.124C210.668 308.435 213.168 318.099 211.64 318.099C208.017 318.099 140.994 318.099 140.088 322.626C139.363 326.247 163.335 406.823 175.411 446.658C176.015 449.072 175.592 453.9 169.071 453.9C160.92 453.9 154.58 455.711 154.58 456.616C154.58 457.522 154.58 458.427 157.297 458.427H184.468C185.676 458.729 187.004 456.979 182.657 447.563C177.222 435.794 143.711 326.247 147.334 326.247C150.232 326.247 190.204 325.04 209.828 324.437C216.168 324.135 229.03 322.445 229.754 318.099C230.215 315.336 226.926 304.842 223.94 295.317C221.057 286.117 218.456 277.819 219.791 278.264C221.965 278.988 237 294.259 244.246 301.803C245.755 303.614 247.506 307.778 242.434 309.951C240.614 310.861 245.881 320.455 250.999 329.777C256.068 339.009 260.991 347.975 258.737 347.975C258.434 347.975 257.977 347.972 257.387 347.967C249.177 347.9 215.313 347.623 214.357 354.313C213.451 360.65 227.514 395.959 236.094 412.255C237.934 415.75 240.186 419.917 242.575 424.34C251.945 441.685 263.435 462.954 260.549 462.954C259.759 462.954 258.721 462.926 257.55 462.895C252.01 462.748 243.498 462.522 244.246 464.765C245.151 467.481 267.794 466.575 267.794 465.67C267.794 464.765 263.266 452.09 259.643 446.658C256.02 441.226 214.385 358.84 219.791 357.029C232.055 352.922 253.066 353.246 261.533 353.377C262.645 353.394 263.541 353.408 264.172 353.408C266.285 355.52 271.055 359.383 273.229 357.934C275.402 356.486 274.134 348.881 273.229 345.259C271.927 341.031 269.176 335.268 266.454 329.565C261.598 319.393 256.835 309.413 260.549 308.675C258.319 307.021 256.143 305.332 254.02 303.614C244.59 295.983 236.211 287.78 228.923 279.536C220.465 269.97 213.476 260.35 208.017 251.507Z" fill="#698F40"/>
<path d="M145.53 190.817C142.558 189.9 139.506 188.457 136.472 186.668C131.942 207.663 126.668 251.852 139.182 270.404C140.011 271.632 140.917 272.748 141.907 273.737C157.847 289.671 150.964 225.096 145.53 190.817Z" fill="#698F40"/>
<path d="M121.255 175.054C118.155 172.196 115.324 169.299 112.924 166.649C107.04 179.891 99.2848 212.595 111.517 243.861C112.22 245.659 112.99 247.453 113.829 249.238C114.123 249.861 114.425 250.483 114.735 251.104C120.532 254.725 121.497 201.913 121.255 175.054Z" fill="#698F40"/>
<path d="M141.907 273.737C140.917 272.748 140.011 271.632 139.182 270.404C117.143 278.456 72.1591 296.19 68.5362 302.708C67.5898 307.911 68.1268 321.269 68.5971 332.97C69.027 343.665 69.4013 352.975 68.5362 353.408C67.8988 353.726 66.028 353.82 63.91 353.927C60.0087 354.124 55.2691 354.363 55.8562 356.124C56.7619 358.84 75.782 357.934 75.782 357.029C75.782 356.929 75.749 356.237 75.694 355.081L75.6939 355.078L75.6938 355.075C75.2487 345.723 73.3645 306.13 75.782 304.519C77.2311 301.622 120.469 282.791 141.907 273.737Z" fill="#698F40"/>
<path d="M113.829 249.238C112.99 247.453 112.22 245.659 111.517 243.861C88.2149 251.777 40.5661 268.408 31.225 273.335C30.7556 273.582 30.4605 274.04 30.3271 274.554C29.8203 276.505 28.4875 279.447 25.9747 280.075C24.2448 280.507 22.6439 280.746 21.4417 280.868C20.4464 280.969 19.6347 281.791 19.6347 282.791V342.543C19.6347 344.958 18.7217 348.881 12.3889 349.786C2.52519 351.196 -2.10256 353.408 2.42604 354.313C6.95463 355.218 25.9753 356.124 25.9747 350.691V287.16V286.191C25.9747 285.803 26.2703 285.481 26.6544 285.431C26.9563 285.392 27.2772 285.343 27.6118 285.284C31.147 284.659 36.2239 282.885 36.8434 279.169C37.5679 274.824 88.4693 257.404 113.829 249.238Z" fill="#698F40"/>
<path d="M92.9979 100.171C93.2998 82.2796 92.0922 48.3073 86.6579 43.7806C84.4997 41.1918 79.6671 39.2199 74.9054 37.2769C69.6757 35.1429 64.5314 33.0437 63.1092 30.2005C60.9355 25.8549 60.392 8.47229 60.392 0.324219C57.0711 1.22956 50.6103 7.56695 51.3349 25.6738C51.9788 34.0417 59.4904 36.9178 65.4062 39.1828C67.8109 40.1036 69.9518 40.9233 71.2607 41.9699C71.7191 42.3365 72.2146 42.7124 72.736 43.1078C77.3653 46.6191 84.0324 51.676 84.8464 65.5088C85.571 77.8215 85.7522 94.0261 85.7522 100.589C88.068 100.31 90.4984 100.155 92.9979 100.171Z" fill="#698F40"/>
<path d="M109.301 103.014C110.508 86.5894 114.735 53.7394 117.452 51.0234C118.056 48.9109 123.611 43.5996 141.001 39.2539C146.073 37.0811 144.926 16.6204 143.718 6.66161C143.536 7.6047 143.344 8.62446 143.143 9.69863L143.004 10.4406L143.002 10.4515L143.001 10.4558C141.218 19.9968 138.74 33.2539 135.567 35.6325C134.402 36.5054 131.938 36.9598 128.921 37.516C125.169 38.2079 120.563 39.0571 116.547 41.0646C113.985 42.3449 106.479 48.3073 103.867 70.9409C101.693 89.772 101.149 98.7356 101.149 100.863C103.861 101.319 106.595 102.018 109.301 103.014Z" fill="#698F40"/>
<path d="M41.8725 101.429C43.0707 108.504 48.59 112.317 50.8254 112.288C51.0069 111.898 51.1986 111.524 51.3993 111.165C44.0754 109.667 41.498 100.075 41.8725 101.429Z" fill="#CBC5EA"/>
<path d="M46.7405 99.9311C47.04 104.652 50.5471 108.483 52.7319 109.293C53.0579 108.892 53.5853 108.144 53.9343 107.795C49.3617 107.42 46.366 98.4333 46.7405 99.9311Z" fill="#CBC5EA"/>
<path d="M51.9829 99.5566C51.9829 103.079 54.8791 105.51 56.4765 105.769C56.9082 105.497 57.3452 105.255 57.7838 105.038C54.9352 105.038 52.8292 101.04 51.9829 99.5566Z" fill="#CBC5EA"/>
<path d="M128.748 107.827C129.247 107.976 129.733 108.179 130.196 108.442C133.191 107.421 133.74 103.074 133.99 101.429C132.492 105.623 130.121 107.691 128.748 107.827Z" fill="#CBC5EA"/>
<path d="M132.357 110.416C132.458 110.561 132.666 110.885 132.666 110.885C132.848 111.199 133.038 111.544 133.201 111.914C136.986 109.667 139.233 104.05 139.607 101.429C138.109 105.548 134.399 109.667 132.357 110.416Z" fill="#CBC5EA"/>
<path d="M134.014 114.646C134.052 114.855 134.085 115.068 134.115 115.284C142.603 110.791 143.726 104.05 144.101 101.429C142.303 108.319 136.986 112.663 133.9 114.078C133.96 114.363 133.977 114.437 134.014 114.646Z" fill="#CBC5EA"/>
</svg>
