<svg width="210" height="370" viewBox="0 0 210 370" fill="none" xmlns="http://www.w3.org/2000/svg">
<path d="M192.193 20.7359C176.906 17.9564 142.996 11.5635 129.654 8.22807C112.977 4.05878 87.9612 -8.44906 67.1147 12.3973C53.773 25.7389 33.7605 26.2948 25.4219 24.905C17.4193 23.5712 1.73659 24.0295 0.485833 35.8617L44.1784 30.5967C50.4376 29.0743 54.6069 30.6232 71.284 24.905C87.9612 19.1868 101.248 18.3717 105.806 18.6789C116.089 20.1619 130.708 23.9163 141.104 29.0743C151.185 36.2661 178.018 50.5768 204.701 50.2852C212.597 40.44 213.803 20.7359 192.193 20.7359Z" fill="#698F40"/>
<path d="M0.40625 37.4128C0.40625 38.9241 0.46213 40.775 0.626381 42.8902C4.01202 41.7634 11.3929 39.9411 21.2527 38.711C27.3684 37.948 34.4378 37.4128 42.0991 37.4128C42.7947 37.4128 43.4878 37.4013 44.1784 37.3789C53.7309 37.0687 62.7965 34.6799 71.284 32.0527C83.0752 28.403 93.7508 24.2934 103.066 24.6584C103.993 24.6947 104.907 24.7753 105.806 24.905C116.089 26.3879 130.708 30.1423 141.104 35.3003C144.964 37.2156 148.243 39.3243 150.5 41.5821C155.891 46.9724 166.601 51.0601 177.021 53.2542C183.844 54.6909 190.543 55.3157 195.542 54.9626C197.497 54.8246 199.191 54.5371 200.532 54.0902C202.046 53.144 203.456 51.8371 204.701 50.2852C178.018 50.5768 151.185 36.2661 141.104 29.0743C130.708 23.9163 116.089 20.1619 105.806 18.6789C101.248 18.3717 87.9612 19.1868 71.284 24.905C54.6069 30.6232 50.4376 29.0743 44.1784 30.5967L0.485833 35.8617C0.433323 36.3585 0.40625 36.8753 0.40625 37.4128Z" fill="#EAEAEA"/>
<path d="M105.806 24.905C104.907 24.7753 103.993 24.6947 103.066 24.6584C99.4211 33.0791 94.632 54.9238 104.638 74.9364C107.974 81.6072 108.151 88.8339 107.823 91.6134C109.01 91.7025 110.261 91.951 111.516 92.399C112.003 87.9679 115.478 77.4379 125.485 70.7671C145.497 60.7608 144.236 42.9533 141.104 35.3003C130.708 30.1423 116.089 26.3879 105.806 24.905Z" fill="#CBC5EA"/>
<path d="M71.284 32.0527C70.7168 42.7753 74.092 67.1974 92.1304 79.1057C98.8013 82.4411 102.201 89.0237 103.066 91.8981C103.928 91.7109 104.841 91.6134 105.806 91.6134C106.448 91.5636 107.125 91.5609 107.823 91.6134C108.151 88.8339 107.974 81.6072 104.638 74.9364C94.632 54.9238 99.4211 33.0791 103.066 24.6584C93.7508 24.2934 83.0752 28.403 71.284 32.0527Z" fill="#73628A"/>
<path d="M44.1784 37.3789C44.8751 52.6776 52.1053 83.2749 75.4533 83.2749C85.4596 83.2749 94.0218 91.3183 97.0522 95.3399C98.6874 93.6187 100.683 92.4157 103.066 91.8981C102.201 89.0237 98.8013 82.4411 92.1304 79.1057C74.092 67.1974 70.7168 42.7753 71.284 32.0527C62.7965 34.6799 53.7309 37.0687 44.1784 37.3789Z" fill="#CBC5EA"/>
<path d="M42.0991 37.4128C34.4378 37.4128 27.3684 37.948 21.2527 38.711C18.4731 56.3452 22.0865 91.6135 58.7762 91.6135C72.1179 91.6135 88.2402 96.3367 94.6336 98.6984C95.3298 97.4354 96.1343 96.306 97.0522 95.3399C94.0218 91.3183 85.4596 83.2749 75.4533 83.2749C52.1053 83.2749 44.8751 52.6776 44.1784 37.3789C43.4878 37.4013 42.7947 37.4128 42.0991 37.4128Z" fill="#73628A"/>
<path d="M0.626381 42.8902C2.2747 64.1168 14.8369 111.957 91.3636 110.211C91.8301 105.847 92.8936 101.855 94.6336 98.6984C88.2402 96.3367 72.1179 91.6135 58.7762 91.6135C22.0865 91.6135 18.4731 56.3452 21.2527 38.711C11.3929 39.9411 4.01202 41.7634 0.626381 42.8902Z" fill="#CBC5EA"/>
<path d="M97.1979 141.645C106.745 125.579 115.295 129.845 118.509 134.265C119.122 134.972 119.754 135.705 120.402 136.46C123.452 124.129 123.862 114.986 122.728 108.291C122.158 104.923 121.197 102.175 119.985 99.9521C118.947 98.0493 117.726 96.5316 116.407 95.3399C114.863 93.9434 113.185 92.9948 111.516 92.399C110.261 91.951 109.01 91.7025 107.823 91.6134C107.125 91.5609 106.448 91.5636 105.806 91.6134C104.841 91.6134 103.928 91.7109 103.066 91.8981C100.683 92.4157 98.6874 93.6187 97.0522 95.3399C96.1343 96.306 95.3298 97.4354 94.6336 98.6984C92.8936 101.855 91.8301 105.847 91.3636 110.211C90.2461 120.667 92.5552 133.263 97.1979 141.645Z" fill="#EAEAEA"/>
<path d="M150.5 41.5821C148.243 39.3243 144.964 37.2156 141.104 35.3003C144.236 42.9533 145.497 60.7608 125.485 70.7671C115.478 77.4379 112.003 87.9679 111.516 92.399C113.185 92.9948 114.863 93.9434 116.407 95.3399C120.823 88.5387 133.823 74.9364 150.5 74.9364C167.177 74.9364 175.13 60.4816 177.021 53.2542C166.601 51.0601 155.891 46.9724 150.5 41.5821Z" fill="#73628A"/>
<path d="M150.5 74.9364C133.823 74.9364 120.823 88.5387 116.407 95.3399C117.726 96.5316 118.947 98.0493 119.985 99.9521C120.899 99.2424 128.282 97.4149 150.5 95.7828C172.718 94.1506 189.786 67.8893 195.542 54.9626C190.543 55.3157 183.844 54.6909 177.021 53.2542C175.13 60.4816 167.177 74.9364 150.5 74.9364Z" fill="#CBC5EA"/>
<path d="M122.728 108.291C143.104 112.46 187.19 107.457 200.532 54.0902C199.191 54.5371 197.497 54.8246 195.542 54.9626C189.786 67.8893 172.718 94.1506 150.5 95.7828C128.282 97.4149 120.899 99.2424 119.985 99.9521C121.197 102.175 122.158 104.923 122.728 108.291Z" fill="#73628A"/>
<path d="M95.6442 144.427C95.4023 144.887 95.1598 145.349 94.9171 145.814C100.869 144.44 112.705 144.153 112.972 153.817C113.037 151.268 115.265 145.582 123.987 140.679C122.753 139.214 121.553 137.802 120.402 136.46C119.754 135.705 119.122 134.972 118.509 134.265C115.295 129.845 106.745 125.579 97.1979 141.645C96.6827 142.512 96.1646 143.438 95.6442 144.427Z" fill="#CBC5EA"/>
<path d="M88.0226 159.697C92.95 156.525 103.405 153.081 105.806 164.675C109.604 161.234 118.445 156.416 123.427 164.675C126.133 159.94 132.607 151.67 136.853 156.48C132.585 151.037 128.099 145.562 123.987 140.679C115.265 145.582 113.037 151.268 112.972 153.817C112.975 153.928 112.977 154.039 112.977 154.153C112.971 154.048 112.969 153.936 112.972 153.817C112.705 144.153 100.869 144.44 94.9171 145.814C92.5682 150.315 90.1984 155.043 88.0226 159.697Z" fill="#698F40"/>
<path d="M133.823 183.338C133.823 169.996 142.162 168.286 146.331 169.099C143.509 165.123 140.25 160.811 136.853 156.48C132.607 151.67 126.133 159.94 123.427 164.675C118.445 156.416 109.604 161.234 105.806 164.675C103.405 153.081 92.95 156.525 88.0226 159.697C85.7664 164.522 83.7189 169.268 82.1197 173.595C90.7883 165.801 97.9645 176.843 100.469 183.338C117.146 163.325 129.654 174.999 133.823 183.338Z" fill="#CBC5EA"/>
<path d="M136.293 193.968C136.717 190.581 140.612 184.568 152.807 187.617C158.927 189.147 154.424 180.501 146.331 169.099C142.162 168.286 133.823 169.996 133.823 183.338C129.654 174.999 117.146 163.325 100.469 183.338C97.9645 176.843 90.7883 165.801 82.1197 173.595C77.0565 187.297 76.4879 196.81 88.0226 191.427C103.266 184.314 106.23 190.157 105.806 193.968C109.194 189.31 116.038 182.97 121.05 183.806C128.671 185.076 132.906 191.851 136.293 193.968Z" fill="#698F40"/>
<path d="M105.806 193.968C96.0674 238.004 78.1141 330.142 84.2115 346.401C91.8331 366.726 109.617 389.591 136.293 338.78C157.634 298.131 145.185 225.302 136.293 193.968C132.906 191.851 128.671 185.076 121.05 183.806C116.038 182.97 109.194 189.31 105.806 193.968Z" fill="#EAEAEA"/>
</svg>
