<svg width="158" height="278" viewBox="0 0 158 278" fill="none" xmlns="http://www.w3.org/2000/svg">
<path d="M144.012 15.4826C132.547 13.398 107.114 8.60328 97.1076 6.10171C84.5998 2.97475 65.838 -6.40613 50.2032 9.22867C40.197 19.2348 25.1876 19.6517 18.9336 18.6094C12.9317 17.6091 1.16963 17.9528 0.231562 26.827L33.001 22.8782C37.6954 21.7364 40.8224 22.898 53.3302 18.6094C65.838 14.3208 75.8029 13.7094 79.2218 13.9399C86.934 15.0521 97.8981 17.8678 105.695 21.7364C113.256 27.1302 133.38 37.8633 153.393 37.6446C159.315 30.2607 160.219 15.4826 144.012 15.4826Z" fill="#698F40"/>
<path d="M0.171875 27.9903C0.171875 29.1237 0.213785 30.5119 0.336973 32.0983C2.8762 31.2532 8.41189 29.8864 15.8067 28.9639C20.3935 28.3916 25.6956 27.9903 31.4415 27.9903C31.9632 27.9903 32.4831 27.9816 33.001 27.9648C40.1653 27.7322 46.9645 25.9405 53.3302 23.9702C62.1736 21.2329 70.1803 18.1507 77.167 18.4244C77.8621 18.4517 78.5471 18.5121 79.2218 18.6094C86.934 19.7216 97.8981 22.5374 105.695 26.4059C108.591 27.8423 111.049 29.4239 112.742 31.1172C116.785 35.16 124.818 38.2257 132.633 39.8713C137.75 40.9488 142.775 41.4174 146.524 41.1526C147.99 41.0491 149.261 40.8334 150.266 40.4983C151.401 39.7886 152.459 38.8085 153.393 37.6446C133.38 37.8633 113.256 27.1302 105.695 21.7364C97.8981 17.8678 86.934 15.0521 79.2218 13.9399C75.8029 13.7094 65.838 14.3208 53.3302 18.6094C40.8224 22.898 37.6954 21.7364 33.001 22.8782L0.231562 26.827C0.19218 27.1995 0.171875 27.5871 0.171875 27.9903Z" fill="#EAEAEA"/>
<path d="M79.2218 18.6094C78.5471 18.5121 77.8621 18.4517 77.167 18.4244C74.433 24.74 70.8412 41.1235 78.3459 56.1329C80.8475 61.1361 80.9808 66.5561 80.7348 68.6407C81.6245 68.7076 82.5626 68.8939 83.5042 69.2299C83.8694 65.9066 86.476 58.0091 93.9807 53.006C108.99 45.5013 108.044 32.1456 105.695 26.4059C97.8981 22.5374 86.934 19.7216 79.2218 18.6094Z" fill="#CBC5EA"/>
<path d="M53.3302 23.9702C52.9048 32.0121 55.4362 50.3287 68.965 59.2599C73.9681 61.7615 76.5177 66.6984 77.167 68.8542C77.8135 68.7138 78.4981 68.6407 79.2218 68.6407C79.7032 68.6034 80.2106 68.6013 80.7348 68.6407C80.9808 66.5561 80.8475 61.1361 78.3459 56.1329C70.8412 41.1235 74.433 24.74 77.167 18.4244C70.1803 18.1507 62.1736 21.2329 53.3302 23.9702Z" fill="#73628A"/>
<path d="M33.001 27.9648C33.5235 39.4388 38.9462 62.3869 56.4572 62.3869C63.9619 62.3869 70.3836 68.4193 72.6563 71.4356C73.8828 70.1447 75.3791 69.2424 77.167 68.8542C76.5177 66.6984 73.9681 61.7615 68.965 59.2599C55.4362 50.3287 52.9048 32.0121 53.3302 23.9702C46.9645 25.9405 40.1653 27.7322 33.001 27.9648Z" fill="#CBC5EA"/>
<path d="M31.4415 27.9903C25.6956 27.9903 20.3935 28.3916 15.8067 28.9639C13.722 42.1895 16.4321 68.6408 43.9493 68.6408C53.9556 68.6408 66.0473 72.1832 70.8424 73.9544C71.3645 73.0072 71.9679 72.1602 72.6563 71.4356C70.3836 68.4193 63.9619 62.3869 56.4572 62.3869C38.9462 62.3869 33.5235 39.4388 33.001 27.9648C32.4831 27.9816 31.9632 27.9903 31.4415 27.9903Z" fill="#73628A"/>
<path d="M0.336973 32.0983C1.57321 48.0182 10.9949 83.8987 68.3899 82.5889C68.7398 79.3156 69.5374 76.3219 70.8424 73.9544C66.0473 72.1832 53.9556 68.6408 43.9493 68.6408C16.4321 68.6408 13.722 42.1895 15.8067 28.9639C8.41189 29.8864 2.8762 31.2532 0.336973 32.0983Z" fill="#CBC5EA"/>
<path d="M72.7656 106.164C79.9258 94.1146 86.3386 97.3146 88.7491 100.629C89.209 101.16 89.6829 101.709 90.1686 102.276C92.4559 93.0277 92.7634 86.1701 91.9132 81.1488C91.4855 78.623 90.7648 76.5618 89.8558 74.8947C89.0776 73.4676 88.1614 72.3293 87.1728 71.4356C86.0142 70.3882 84.7561 69.6767 83.5042 69.2299C82.5626 68.8939 81.6245 68.7076 80.7348 68.6407C80.2106 68.6013 79.7032 68.6034 79.2218 68.6407C78.4981 68.6407 77.8135 68.7138 77.167 68.8542C75.3791 69.2424 73.8828 70.1447 72.6563 71.4356C71.9679 72.1602 71.3645 73.0072 70.8424 73.9544C69.5374 76.3219 68.7398 79.3156 68.3899 82.5889C67.5518 90.4309 69.2836 99.8777 72.7656 106.164Z" fill="#EAEAEA"/>
<path d="M112.742 31.1172C111.049 29.4239 108.591 27.8423 105.695 26.4059C108.044 32.1456 108.99 45.5013 93.9807 53.006C86.476 58.0091 83.8694 65.9066 83.5042 69.2299C84.7561 69.6767 86.0142 70.3882 87.1728 71.4356C90.4844 66.3347 100.235 56.1329 112.742 56.1329C125.25 56.1329 131.214 45.2918 132.633 39.8713C124.818 38.2257 116.785 35.16 112.742 31.1172Z" fill="#73628A"/>
<path d="M112.742 56.1329C100.235 56.1329 90.4844 66.3347 87.1728 71.4356C88.1614 72.3293 89.0776 73.4676 89.8558 74.8947C90.5416 74.3624 96.079 72.9918 112.742 71.7677C129.406 70.5436 142.206 50.8476 146.524 41.1526C142.775 41.4174 137.75 40.9488 132.633 39.8713C131.214 45.2918 125.25 56.1329 112.742 56.1329Z" fill="#CBC5EA"/>
<path d="M91.9132 81.1488C107.195 84.2757 140.26 80.5234 150.266 40.4983C149.261 40.8334 147.99 41.0491 146.524 41.1526C142.206 50.8476 129.406 70.5436 112.742 71.7677C96.079 72.9918 90.5416 74.3624 89.8558 74.8947C90.7648 76.5618 91.4855 78.623 91.9132 81.1488Z" fill="#73628A"/>
<path d="M71.6004 108.251C71.4189 108.596 71.237 108.942 71.055 109.291C75.5189 108.261 84.3961 108.045 84.5964 115.293C84.6449 113.381 86.3159 109.117 92.8573 105.44C91.9318 104.341 91.0316 103.282 90.1686 102.276C89.6829 101.709 89.209 101.16 88.7491 100.629C86.3386 97.3146 79.9258 94.1146 72.7656 106.164C72.3792 106.814 71.9906 107.509 71.6004 108.251Z" fill="#CBC5EA"/>
<path d="M65.8841 119.703C69.5797 117.325 77.4209 114.741 79.2218 123.437C82.07 120.856 88.7006 117.243 92.4371 123.437C94.4667 119.885 99.3221 113.683 102.507 117.29C99.3062 113.208 95.9416 109.102 92.8573 105.44C86.3159 109.117 84.6449 113.381 84.5964 115.293C84.5986 115.376 84.5998 115.46 84.5998 115.545C84.5953 115.466 84.5941 115.382 84.5964 115.293C84.3961 108.045 75.5189 108.261 71.055 109.291C69.2934 112.667 67.516 116.213 65.8841 119.703Z" fill="#698F40"/>
<path d="M100.235 137.434C100.235 127.428 106.489 126.145 109.615 126.755C107.499 123.773 105.055 120.539 102.507 117.29C99.3221 113.683 94.4667 119.885 92.4371 123.437C88.7006 117.243 82.07 120.856 79.2218 123.437C77.4209 114.741 69.5797 117.325 65.8841 119.703C64.192 123.322 62.6564 126.881 61.457 130.127C67.9584 124.281 73.3405 132.563 75.2189 137.434C87.7268 122.424 97.1076 131.18 100.235 137.434Z" fill="#CBC5EA"/>
<path d="M102.087 145.407C102.405 142.866 105.326 138.357 114.472 140.643C119.063 141.791 115.685 135.306 109.615 126.755C106.489 126.145 100.235 127.428 100.235 137.434C97.1076 131.18 87.7268 122.424 75.2189 137.434C73.3405 132.563 67.9584 124.281 61.457 130.127C57.6596 140.403 57.2331 147.538 65.8841 143.501C77.3166 138.166 79.5394 142.548 79.2218 145.407C81.7624 141.913 86.8954 137.158 90.6544 137.785C96.3706 138.738 99.5464 143.819 102.087 145.407Z" fill="#698F40"/>
<path d="M79.2218 145.407C71.9177 178.434 58.4528 247.537 63.0258 259.732C68.742 274.975 82.0801 292.124 102.087 254.015C118.092 223.529 108.756 168.907 102.087 145.407C99.5464 143.819 96.3706 138.738 90.6544 137.785C86.8954 137.158 81.7624 141.913 79.2218 145.407Z" fill="#EAEAEA"/>
</svg>
