<svg width="210" height="371" viewBox="0 0 210 371" fill="none" xmlns="http://www.w3.org/2000/svg">
<path d="M192.098 20.796C176.788 18.0124 142.829 11.6104 129.469 8.27014C112.767 4.09487 87.7158 -8.43094 66.8395 12.4454C53.4786 25.8061 33.4373 26.3628 25.0868 24.971C17.0727 23.6353 1.36741 24.0943 0.114854 35.9435L43.8702 30.6709C50.1384 29.1463 54.3137 30.6974 71.0148 24.971C87.7158 19.2446 101.021 18.4284 105.586 18.736C115.884 20.2211 130.524 23.9809 140.935 29.1463C151.031 36.3484 177.902 50.6797 204.623 50.3877C212.531 40.5284 213.738 20.796 192.098 20.796Z" fill="#698F40"/>
<path d="M0.0351562 37.4968C0.0351562 39.0103 0.0911163 40.8638 0.255604 42.9821C3.6461 41.8536 11.0376 40.0287 20.9115 38.7968C27.036 38.0328 34.1156 37.4968 41.7879 37.4968C42.4845 37.4968 43.1786 37.4853 43.8702 37.4628C53.4364 37.1522 62.515 34.7599 71.0148 32.129C82.8229 28.4741 93.5139 24.3586 102.843 24.724C103.771 24.7604 104.686 24.8411 105.586 24.971C115.884 26.4561 130.524 30.2159 140.935 35.3813C144.801 37.2993 148.084 39.411 150.345 41.6721C155.743 47.0702 166.469 51.1637 176.904 53.3609C183.737 54.7997 190.445 55.4254 195.451 55.0718C197.409 54.9336 199.106 54.6456 200.448 54.1981C201.964 53.2506 203.377 51.9418 204.623 50.3877C177.902 50.6797 151.031 36.3484 140.935 29.1463C130.524 23.9809 115.884 20.2211 105.586 18.736C101.021 18.4284 87.7158 19.2446 71.0148 24.971C54.3137 30.6974 50.1384 29.1463 43.8702 30.6709L0.114854 35.9435C0.0622683 36.441 0.0351562 36.9585 0.0351562 37.4968Z" fill="#EAEAEA"/>
<path d="M105.586 24.971C104.686 24.8411 103.771 24.7604 102.843 24.724C99.1923 33.1569 94.3963 55.033 104.417 75.0743C107.757 81.7547 107.935 88.9918 107.607 91.7752C108.795 91.8645 110.047 92.1133 111.305 92.562C111.792 88.1245 115.273 77.5794 125.293 70.899C145.335 60.8784 144.072 43.0453 140.935 35.3813C130.524 30.2159 115.884 26.4561 105.586 24.971Z" fill="#CBC5EA"/>
<path d="M71.0148 32.129C70.4467 42.867 73.8267 67.3242 91.8911 79.2495C98.5715 82.5898 101.976 89.1818 102.843 92.0603C103.706 91.8729 104.62 91.7752 105.586 91.7752C106.229 91.7254 106.907 91.7226 107.607 91.7752C107.935 88.9918 107.757 81.7547 104.417 75.0743C94.3963 55.033 99.1923 33.1569 102.843 24.724C93.5139 24.3586 82.8229 28.4741 71.0148 32.129Z" fill="#73628A"/>
<path d="M43.8702 37.4628C44.5678 52.7835 51.8085 83.4248 75.19 83.4248C85.2107 83.4248 93.7852 91.4797 96.8199 95.5071C98.4575 93.7835 100.456 92.5787 102.843 92.0603C101.976 89.1818 98.5715 82.5898 91.8911 79.2495C73.8267 67.3242 70.4467 42.867 71.0148 32.129C62.515 34.7599 53.4364 37.1522 43.8702 37.4628Z" fill="#CBC5EA"/>
<path d="M41.7879 37.4968C34.1156 37.4968 27.036 38.0328 20.9115 38.7968C18.128 56.4563 21.7466 91.7754 58.4889 91.7754C71.8498 91.7754 87.9953 96.5054 94.3979 98.8704C95.0951 97.6056 95.9007 96.4746 96.8199 95.5071C93.7852 91.4797 85.2107 83.4248 75.19 83.4248C51.8085 83.4248 44.5678 52.7835 43.8702 37.4628C43.1786 37.4853 42.4845 37.4968 41.7879 37.4968Z" fill="#73628A"/>
<path d="M0.255604 42.9821C1.90629 64.2391 14.4866 112.149 91.1232 110.4C91.5904 106.029 92.6554 102.032 94.3979 98.8704C87.9953 96.5054 71.8498 91.7754 58.4889 91.7754C21.7466 91.7754 18.128 56.4563 20.9115 38.7968C11.0376 40.0287 3.6461 41.8536 0.255604 42.9821Z" fill="#CBC5EA"/>
<path d="M96.9659 141.878C106.527 125.789 115.089 130.062 118.308 134.488C118.922 135.196 119.555 135.93 120.203 136.686C123.257 124.338 123.668 115.181 122.533 108.477C121.962 105.104 120.999 102.352 119.785 100.126C118.746 98.2204 117.523 96.7005 116.203 95.5071C114.656 94.1086 112.976 93.1586 111.305 92.562C110.047 92.1133 108.795 91.8645 107.607 91.7752C106.907 91.7226 106.229 91.7254 105.586 91.7752C104.62 91.7752 103.706 91.8729 102.843 92.0603C100.456 92.5787 98.4575 93.7835 96.8199 95.5071C95.9007 96.4746 95.0951 97.6056 94.3979 98.8704C92.6554 102.032 91.5904 106.029 91.1232 110.4C90.0041 120.871 92.3165 133.484 96.9659 141.878Z" fill="#EAEAEA"/>
<path d="M150.345 41.6721C148.084 39.411 144.801 37.2993 140.935 35.3813C144.072 43.0453 145.335 60.8784 125.293 70.899C115.273 77.5794 111.792 88.1245 111.305 92.562C112.976 93.1586 114.656 94.1086 116.203 95.5071C120.625 88.6962 133.644 75.0743 150.345 75.0743C167.046 75.0743 175.01 60.5987 176.904 53.3609C166.469 51.1637 155.743 47.0702 150.345 41.6721Z" fill="#73628A"/>
<path d="M150.345 75.0743C133.644 75.0743 120.625 88.6962 116.203 95.5071C117.523 96.7005 118.746 98.2204 119.785 100.126C120.701 99.4152 128.095 97.5851 150.345 95.9506C172.595 94.3161 189.687 68.017 195.451 55.0718C190.445 55.4254 183.737 54.7997 176.904 53.3609C175.01 60.5987 167.046 75.0743 150.345 75.0743Z" fill="#CBC5EA"/>
<path d="M122.533 108.477C142.937 112.652 187.087 107.642 200.448 54.1981C199.106 54.6456 197.409 54.9336 195.451 55.0718C189.687 68.017 172.595 94.3161 150.345 95.9506C128.095 97.5851 120.701 99.4152 119.785 100.126C120.999 102.352 121.962 105.104 122.533 108.477Z" fill="#73628A"/>
<path d="M95.41 144.664C95.1676 145.125 94.9248 145.588 94.6818 146.054C100.642 144.678 112.495 144.39 112.763 154.068C112.828 151.515 115.059 145.821 123.793 140.911C122.558 139.444 121.355 138.03 120.203 136.686C119.555 135.93 118.922 135.196 118.308 134.488C115.089 130.062 106.527 125.789 96.9659 141.878C96.4499 142.747 95.9311 143.674 95.41 144.664Z" fill="#CBC5EA"/>
<path d="M87.7774 159.956C92.7118 156.78 103.182 153.331 105.586 164.942C109.39 161.496 118.243 156.671 123.232 164.942C125.942 160.2 132.425 151.918 136.678 156.735C132.404 151.284 127.912 145.801 123.793 140.911C115.059 145.821 112.828 151.515 112.763 154.068C112.766 154.179 112.767 154.291 112.767 154.404C112.762 154.299 112.76 154.187 112.763 154.068C112.495 144.39 100.642 144.678 94.6818 146.054C92.3295 150.561 89.9563 155.296 87.7774 159.956Z" fill="#698F40"/>
<path d="M133.644 183.631C133.644 170.27 141.994 168.558 146.17 169.372C143.343 165.39 140.08 161.073 136.678 156.735C132.425 151.918 125.942 160.2 123.232 164.942C118.243 156.671 109.39 161.496 105.586 164.942C103.182 153.331 92.7118 156.78 87.7774 159.956C85.518 164.789 83.4675 169.541 81.866 173.875C90.547 166.07 97.7335 177.127 100.242 183.631C116.943 163.59 129.469 175.281 133.644 183.631Z" fill="#CBC5EA"/>
<path d="M136.117 194.277C136.541 190.885 140.442 184.863 152.655 187.916C158.784 189.449 154.274 180.79 146.17 169.372C141.994 168.558 133.644 170.27 133.644 183.631C129.469 175.281 116.943 163.59 100.242 183.631C97.7335 177.127 90.547 166.07 81.866 173.875C76.7955 187.596 76.2261 197.123 87.7774 191.733C103.043 184.609 106.011 190.461 105.586 194.277C108.979 189.613 115.833 183.263 120.852 184.1C128.484 185.372 132.725 192.157 136.117 194.277Z" fill="#698F40"/>
<path d="M105.586 194.277C95.8337 238.376 77.8547 330.646 83.9608 346.929C91.5934 367.283 109.403 390.181 136.117 339.296C157.489 298.589 145.022 225.655 136.117 194.277C132.725 192.157 128.484 185.372 120.852 184.1C115.833 183.263 108.979 189.613 105.586 194.277Z" fill="#EAEAEA"/>
</svg>
