<svg width="1735" height="312" viewBox="0 0 1735 312" fill="none" xmlns="http://www.w3.org/2000/svg">
<path d="M565.143 121.73C564.229 122.941 561.333 123.676 560 123.892C562.971 124.411 564.19 124.865 565.143 125.946C566.286 127.243 566.794 130.306 567.048 132C567.143 130.523 567.638 127.243 568.857 125.946C570.076 124.649 572.794 124.036 574 123.892C572.762 124 569.72 122.709 568.857 121.73C567.714 120.432 567.238 117.694 566.952 116C566.762 117.405 566.286 120.216 565.143 121.73Z" fill="#EAEAEA"/>
<path d="M317.122 15.3986C314.967 18.6527 308.143 20.6284 305 21.2095C312.004 22.6041 314.878 23.8243 317.122 26.7297C319.816 30.2162 321.014 38.4482 321.612 43C321.837 39.0293 323.004 30.2162 325.878 26.7297C328.751 23.2432 335.156 21.5968 338 21.2095C335.082 21.5 327.91 18.0296 325.878 15.3986C323.184 11.9122 322.061 4.5518 321.388 0C320.939 3.77703 319.816 11.3311 317.122 15.3986Z" fill="#EAEAEA"/>
<path d="M1529.35 145.162C1528.04 146.676 1523.9 147.595 1522 147.865C1526.24 148.514 1527.99 149.081 1529.35 150.432C1530.98 152.054 1531.71 155.883 1532.07 158C1532.2 156.153 1532.91 152.054 1534.65 150.432C1536.39 148.811 1540.28 148.045 1542 147.865C1540.23 148 1535.89 146.386 1534.65 145.162C1533.02 143.541 1532.34 140.117 1531.93 138C1531.66 139.757 1530.98 143.27 1529.35 145.162Z" fill="#EAEAEA"/>
<path d="M5.14286 7.87838C4.22857 9.54324 1.33333 10.5541 0 10.8514C2.97143 11.5649 4.19048 12.1892 5.14286 13.6757C6.28571 15.4595 6.79365 19.6712 7.04762 22C7.14286 19.9685 7.6381 15.4595 8.85714 13.6757C10.0762 11.8919 12.7937 11.0496 14 10.8514C12.7619 11 9.71956 9.22445 8.85714 7.87838C7.71429 6.09459 7.2381 2.32883 6.95238 0C6.7619 1.93243 6.28571 5.7973 5.14286 7.87838Z" fill="#EAEAEA"/>
<path d="M1082.02 143.743C1080.06 146.014 1073.86 147.392 1071 147.797C1077.37 148.77 1079.98 149.622 1082.02 151.649C1084.47 154.081 1085.56 159.824 1086.1 163C1086.31 160.23 1087.37 154.081 1089.98 151.649C1092.59 149.216 1098.41 148.068 1101 147.797C1098.35 148 1091.83 145.579 1089.98 143.743C1087.53 141.311 1086.51 136.176 1085.9 133C1085.49 135.635 1084.47 140.905 1082.02 143.743Z" fill="#EAEAEA"/>
<path d="M1704 222.547C1700.8 226.255 1690.67 228.507 1686 229.169C1696.4 230.758 1700.67 232.149 1704 235.459C1708 239.432 1709.78 248.813 1710.67 254C1711 249.475 1712.73 239.432 1717 235.459C1721.27 231.486 1730.78 229.61 1735 229.169C1730.67 229.5 1720.02 225.545 1717 222.547C1713 218.574 1711.33 210.187 1710.33 205C1709.67 209.304 1708 217.912 1704 222.547Z" fill="#EAEAEA"/>
<path d="M1313.96 37.6081C1311.48 40.4838 1303.62 42.2297 1300 42.7432C1308.07 43.9757 1311.37 45.0541 1313.96 47.6216C1317.06 50.7027 1318.44 57.9775 1319.13 62C1319.39 58.491 1320.73 50.7027 1324.04 47.6216C1327.35 44.5405 1334.73 43.0856 1338 42.7432C1334.64 43 1326.38 39.9331 1324.04 37.6081C1320.94 34.527 1319.65 28.0225 1318.87 24C1318.35 27.3378 1317.06 34.0135 1313.96 37.6081Z" fill="#EAEAEA"/>
<path d="M851.388 234.101C849.363 236.447 842.952 237.872 840 238.291C846.58 239.296 849.279 240.176 851.388 242.27C853.918 244.784 855.043 250.718 855.605 254C855.816 251.137 856.913 244.784 859.612 242.27C862.312 239.757 868.329 238.57 871 238.291C868.259 238.5 861.522 235.998 859.612 234.101C857.082 231.588 856.027 226.282 855.395 223C854.973 225.723 853.918 231.169 851.388 234.101Z" fill="#EAEAEA"/>
<path d="M767.367 48.9054C764.102 52.6892 753.762 54.9865 749 55.6622C759.612 57.2838 763.966 58.7027 767.367 62.0811C771.449 66.1351 773.263 75.7072 774.17 81C774.51 76.3829 776.279 66.1351 780.633 62.0811C784.986 58.027 794.692 56.1126 799 55.6622C794.578 56 783.713 51.9647 780.633 48.9054C776.551 44.8514 774.85 36.2928 773.83 31C773.15 35.3919 771.449 44.1757 767.367 48.9054Z" fill="#EAEAEA"/>
<path d="M1277.94 275.412C1274.22 279.726 1262.43 282.345 1257 283.115C1269.1 284.964 1274.06 286.581 1277.94 290.432C1282.59 295.054 1284.66 305.966 1285.69 312C1286.08 306.736 1288.1 295.054 1293.06 290.432C1298.02 285.811 1309.09 283.628 1314 283.115C1308.96 283.5 1296.57 278.9 1293.06 275.412C1288.41 270.791 1286.47 261.034 1285.31 255C1284.53 260.007 1282.59 270.02 1277.94 275.412Z" fill="#EAEAEA"/>
<path d="M1682.45 12.2365C1680.95 13.977 1676.19 15.0338 1674 15.3446C1678.88 16.0905 1680.88 16.7432 1682.45 18.2973C1684.33 20.1622 1685.16 24.5653 1685.58 27C1685.73 24.8761 1686.55 20.1622 1688.55 18.2973C1690.55 16.4324 1695.02 15.5518 1697 15.3446C1694.97 15.5 1689.97 13.6437 1688.55 12.2365C1686.67 10.3716 1685.89 6.43468 1685.42 4C1685.11 6.02027 1684.33 10.0608 1682.45 12.2365Z" fill="#EAEAEA"/>
<path d="M140.653 185.385C138.759 187.58 132.762 188.912 130 189.304C136.155 190.245 138.68 191.068 140.653 193.027C143.02 195.378 144.073 200.93 144.599 204C144.796 201.322 145.822 195.378 148.347 193.027C150.872 190.676 156.501 189.565 159 189.304C156.435 189.5 150.133 187.16 148.347 185.385C145.98 183.034 144.993 178.07 144.401 175C144.007 177.547 143.02 182.642 140.653 185.385Z" fill="#EAEAEA"/>
<path d="M431.837 249.338C428.31 253.424 417.143 255.905 412 256.635C423.461 258.386 428.163 259.919 431.837 263.568C436.245 267.946 438.204 278.284 439.184 284C439.551 279.014 441.461 267.946 446.163 263.568C450.865 259.189 461.347 257.122 466 256.635C461.224 257 449.49 252.642 446.163 249.338C441.755 244.959 439.918 235.716 438.816 230C438.082 234.743 436.245 244.23 431.837 249.338Z" fill="#EAEAEA"/>
</svg>
