<svg width="319" height="679" viewBox="0 0 319 679" fill="none" xmlns="http://www.w3.org/2000/svg">
<path d="M208.607 125.59L189.264 170.11" stroke="#698F40" stroke-width="2"/>
<path d="M192.267 179.407L179.541 226.063" stroke="#698F40" stroke-width="2"/>
<path d="M176.752 235.751L164.025 282.406" stroke="#698F40" stroke-width="2"/>
<path d="M158.886 301.766L146.16 348.422" stroke="#698F40" stroke-width="2"/>
<path d="M118.855 602.241C106.216 590.361 81.2548 555.95 82.5257 513.346C95.6924 530.13 121.392 571.406 118.855 602.241Z" fill="#698F40"/>
<path d="M155.803 552.403C137.188 559.175 123.415 588.45 118.855 602.241C165.556 594.279 189.167 539.476 195.135 513.07C189.781 523.36 174.419 545.631 155.803 552.403Z" fill="#698F40"/>
<path d="M149.222 355.818L140.906 403.37C134.6 454.317 124.558 540.285 118.855 602.241M114.81 673.718C113.782 664.795 115.621 637.38 118.855 602.241M118.855 602.241C123.415 588.45 137.188 559.175 155.803 552.403C174.419 545.631 189.781 523.36 195.135 513.07C189.167 539.476 165.556 594.279 118.855 602.241ZM118.855 602.241C106.216 590.361 81.2548 555.95 82.5257 513.347C95.6924 530.13 121.392 571.406 118.855 602.241Z" stroke="#698F40" stroke-width="2"/>
<path d="M232.047 59.1956L213.442 114.462" stroke="#698F40" stroke-width="2"/>
<path d="M118.203 358.55C106.302 380.963 131.183 411.649 144.926 421.503C156.948 406.28 183.818 368.082 174.309 360.097C164.801 352.112 149.037 372.63 142.343 383.887C139.255 366.102 130.104 336.137 118.203 358.55Z" fill="#EAEAEA"/>
<path d="M130.763 302.222C115.388 322.585 134.975 356.666 146.943 368.477C161.272 355.24 193.978 321.528 185.886 312.202C177.795 302.877 158.914 320.784 150.485 330.904C150.317 312.859 146.138 281.859 130.763 302.222Z" fill="#EAEAEA"/>
<path d="M145.805 244.396C129.619 264.167 147.803 298.968 159.28 311.224C174.133 298.536 208.176 266.078 200.471 256.452C192.766 246.826 173.176 264.011 164.344 273.806C164.909 255.765 161.992 224.626 145.805 244.396Z" fill="#EAEAEA"/>
<path d="M161.161 186.447C144.974 206.218 163.158 241.019 174.636 253.275C189.489 240.587 223.531 208.129 215.826 198.503C208.122 188.877 188.531 206.061 179.699 215.857C180.264 197.816 177.348 166.676 161.161 186.447Z" fill="#EAEAEA"/>
<path d="M178.185 127.442C161.001 146.415 177.361 182.055 188.188 194.85C203.675 182.888 239.342 152.098 232.146 142.111C224.95 132.125 204.502 148.351 195.177 157.713C196.673 139.717 195.369 108.468 178.185 127.442Z" fill="#EAEAEA"/>
<path d="M197.105 69.7622C179.921 88.7356 196.281 124.376 207.108 137.171C222.594 125.209 258.262 94.4181 251.066 84.4317C243.87 74.4453 223.421 90.6718 214.097 100.033C215.593 82.0373 214.288 50.7887 197.105 69.7622Z" fill="#EAEAEA"/>
<path d="M216.021 12.0786C198.837 31.0521 215.197 66.6919 226.024 79.487C241.51 67.525 277.178 36.7345 269.982 26.7481C262.786 16.7617 242.337 32.9882 233.013 42.3497C234.509 24.3537 233.204 -6.89493 216.021 12.0786Z" fill="#EAEAEA"/>
</svg>
