<svg width="240" height="510" viewBox="0 0 240 510" fill="none" xmlns="http://www.w3.org/2000/svg">
<path d="M156.98 94.994L142.494 128.336" stroke="#698F40" stroke-width="1.49785"/>
<path d="M144.743 135.298L135.212 170.24" stroke="#698F40" stroke-width="1.49785"/>
<path d="M133.122 177.494L123.591 212.435" stroke="#698F40" stroke-width="1.49785"/>
<path d="M119.743 226.935L110.212 261.877" stroke="#698F40" stroke-width="1.49785"/>
<path d="M89.7619 451.966C80.2959 443.069 61.6021 417.297 62.5538 385.391C72.4147 397.96 91.6615 428.873 89.7619 451.966Z" fill="#698F40"/>
<path d="M117.433 414.642C103.491 419.713 93.1766 441.638 89.7619 451.966C124.737 446.003 142.42 404.96 146.89 385.184C142.88 392.89 131.375 409.57 117.433 414.642Z" fill="#698F40"/>
<path d="M112.505 267.414L106.276 303.027C101.553 341.183 94.0331 405.565 89.7619 451.966M86.7327 505.497C85.9621 498.814 87.3394 478.282 89.7619 451.966M89.7619 451.966C93.1766 441.638 103.491 419.713 117.433 414.642C131.375 409.57 142.88 392.89 146.89 385.184C142.42 404.96 124.737 446.003 89.7619 451.966ZM89.7619 451.966C80.2959 443.069 61.6021 417.297 62.5538 385.391C72.4147 397.96 91.6615 428.873 89.7619 451.966Z" stroke="#698F40" stroke-width="1.49785"/>
<path d="M174.535 45.2675L160.601 86.6579" stroke="#698F40" stroke-width="1.49785"/>
<path d="M89.2747 269.463C80.3619 286.249 98.9957 309.23 109.288 316.61C118.291 305.21 138.415 276.602 131.294 270.622C124.173 264.642 112.367 280.008 107.354 288.439C105.041 275.12 98.1876 252.678 89.2747 269.463Z" fill="#EAEAEA"/>
<path d="M98.6798 227.276C87.165 242.526 101.834 268.05 110.797 276.895C121.529 266.982 146.023 241.734 139.963 234.75C133.904 227.766 119.763 241.177 113.45 248.756C113.324 235.242 110.195 212.025 98.6798 227.276Z" fill="#EAEAEA"/>
<path d="M109.946 183.969C97.8237 198.776 111.443 224.839 120.038 234.018C131.162 224.516 156.657 200.207 150.887 192.998C145.116 185.789 130.445 198.659 123.83 205.995C124.254 192.484 122.069 169.163 109.946 183.969Z" fill="#EAEAEA"/>
<path d="M121.446 140.571C109.324 155.378 122.943 181.441 131.538 190.62C142.662 181.117 168.157 156.809 162.387 149.6C156.616 142.391 141.945 155.261 135.33 162.597C135.754 149.085 133.569 125.764 121.446 140.571Z" fill="#EAEAEA"/>
<path d="M134.196 96.3785C121.327 110.588 133.579 137.28 141.688 146.862C153.286 137.904 179.999 114.844 174.609 107.365C169.22 99.8858 153.906 112.038 146.922 119.049C148.042 105.572 147.066 82.1688 134.196 96.3785Z" fill="#EAEAEA"/>
<path d="M148.364 53.1831C135.495 67.3928 147.747 94.0844 155.856 103.667C167.454 94.7083 194.167 71.6486 188.777 64.1695C183.388 56.6905 168.073 68.8429 161.09 75.854C162.21 62.3763 161.234 38.9734 148.364 53.1831Z" fill="#EAEAEA"/>
<path d="M162.532 9.98002C149.663 24.1897 161.915 50.8813 170.024 60.4638C181.622 51.5052 208.335 28.4455 202.945 20.9664C197.556 13.4874 182.241 25.6397 175.258 32.6508C176.378 19.1732 175.402 -4.22968 162.532 9.98002Z" fill="#EAEAEA"/>
</svg>
