<svg width="286" height="678" viewBox="0 0 286 678" fill="none" xmlns="http://www.w3.org/2000/svg">
<path d="M176.146 125.413L156.831 169.868" stroke="#698F40" stroke-width="1.99713"/>
<path d="M159.828 179.152L147.119 225.74" stroke="#698F40" stroke-width="1.99713"/>
<path d="M144.336 235.417L131.627 282.006" stroke="#698F40" stroke-width="1.99713"/>
<path d="M126.496 301.335L113.787 347.924" stroke="#698F40" stroke-width="1.99713"/>
<path d="M86.5185 601.382C73.8972 589.519 48.972 555.157 50.2411 512.615C63.3889 529.374 89.0513 570.591 86.5185 601.382Z" fill="#698F40"/>
<path d="M123.414 551.616C104.825 558.378 91.0714 587.611 86.5185 601.382C133.153 593.431 156.73 538.707 162.689 512.339C157.343 522.614 142.003 544.854 123.414 551.616Z" fill="#698F40"/>
<path d="M116.842 355.313L108.538 402.796C102.24 453.671 92.2134 539.514 86.5185 601.382M82.4795 672.756C81.452 663.846 83.2886 636.47 86.5185 601.382M86.5185 601.382C91.0714 587.611 104.825 558.378 123.414 551.616C142.003 544.854 157.343 522.614 162.689 512.339C156.73 538.707 133.153 593.431 86.5185 601.382ZM86.5185 601.382C73.8972 589.519 48.972 555.157 50.2411 512.615C63.3889 529.374 89.0513 570.591 86.5185 601.382Z" stroke="#698F40" stroke-width="1.99713"/>
<path d="M199.55 59.1157L180.972 114.303" stroke="#698F40" stroke-width="1.99713"/>
<path d="M85.8702 358.036C73.9864 380.416 98.8315 411.058 112.555 420.898C124.559 405.698 151.391 367.555 141.896 359.581C132.402 351.607 116.66 372.095 109.975 383.336C106.892 365.577 97.754 335.655 85.8702 358.036Z" fill="#73628A"/>
<path d="M98.4103 301.789C83.0573 322.123 102.616 356.155 114.567 367.949C128.876 354.731 161.534 321.067 153.455 311.755C145.375 302.443 126.521 320.325 118.104 330.43C117.936 312.411 113.763 281.456 98.4103 301.789Z" fill="#73628A"/>
<path d="M113.432 244.049C97.2682 263.791 115.427 298.542 126.887 310.781C141.719 298.111 175.713 265.7 168.019 256.088C160.325 246.475 140.763 263.635 131.944 273.417C132.508 255.402 129.596 224.307 113.432 244.049Z" fill="#73628A"/>
<path d="M128.764 186.186C112.6 205.928 130.759 240.679 142.219 252.917C157.051 240.248 191.045 207.836 183.351 198.224C175.657 188.612 156.095 205.772 147.276 215.553C147.84 197.538 144.928 166.444 128.764 186.186Z" fill="#73628A"/>
<path d="M145.767 127.262C128.608 146.209 144.945 181.797 155.756 194.574C171.22 182.629 206.837 151.883 199.651 141.911C192.465 131.939 172.046 148.142 162.735 157.49C164.228 139.52 162.926 108.316 145.767 127.262Z" fill="#73628A"/>
<path d="M164.656 69.6648C147.496 88.611 163.833 124.2 174.645 136.977C190.109 125.032 225.725 94.2854 218.54 84.3133C211.354 74.3412 190.935 90.5444 181.623 99.8925C183.117 81.9223 181.815 50.7185 164.656 69.6648Z" fill="#73628A"/>
<path d="M183.546 12.0632C166.387 31.0095 182.724 66.5982 193.535 79.375C208.999 67.4301 244.616 36.6838 237.43 26.7117C230.244 16.7397 209.825 32.9428 200.514 42.291C202.008 24.3208 200.705 -6.88307 183.546 12.0632Z" fill="#73628A"/>
</svg>
