<svg width="455" height="808" viewBox="0 0 455 808" fill="none" xmlns="http://www.w3.org/2000/svg">
<path d="M84.0677 262.777C75.6622 263.123 61.3242 260.938 71.216 249.433C81.1078 237.927 83.9054 253.535 84.0677 262.777Z" fill="#EAEAEA"/>
<path d="M87.9843 268.898L84.0677 262.777M84.0677 262.777C75.6622 263.123 61.3242 260.938 71.216 249.433C81.1078 237.927 83.9054 253.535 84.0677 262.777Z" stroke="#EAEAEA" stroke-width="1.99713"/>
<path d="M78.0068 236.458C78.5579 233.948 79.355 218.341 66.6852 222.135C54.0155 225.928 71.886 240.374 78.0068 236.458Z" fill="#EAEAEA"/>
<path d="M101.078 269.143C93.2039 259.085 77.5659 238.465 78.0068 236.458M78.0068 236.458C78.5579 233.948 79.355 218.341 66.6852 222.135C54.0155 225.928 71.886 240.374 78.0068 236.458Z" stroke="#EAEAEA" stroke-width="1.99713"/>
<path d="M133.342 188.11C128.874 184.499 112.716 186.211 122.571 171.278C130.456 159.331 133.037 177.522 133.342 188.11Z" fill="#EAEAEA"/>
<path d="M149.928 190.437C149.5 186.397 151.03 171.936 142.095 178.195C134.946 183.202 144.338 188.442 149.928 190.437Z" fill="#EAEAEA"/>
<path d="M151.945 217.184C147.233 208.697 136.916 190.999 133.342 188.11M133.342 188.11C128.874 184.499 112.716 186.211 122.571 171.278C130.456 159.331 133.037 177.522 133.342 188.11ZM158.74 204.209C155.945 200.965 150.27 193.668 149.928 190.437M149.928 190.437C149.5 186.397 151.03 171.936 142.095 178.195C134.946 183.202 144.338 188.442 149.928 190.437Z" stroke="#EAEAEA" stroke-width="1.99713"/>
<path d="M179.522 161.129C214.334 175.087 202.342 260.834 191.994 301.963C142.418 312.118 44.305 325.292 48.4696 296.747C53.6754 261.065 94.3762 267.373 114.574 265.233C134.772 263.093 38.3195 193.249 78.9612 175.87C119.603 158.492 139.485 253.606 151.486 204.949C161.087 166.024 174.177 159.517 179.522 161.129Z" fill="#73628A"/>
<path d="M194.662 304.168L130.457 315.057C122.526 308.055 127.316 303.407 130.702 301.958C134.925 300.693 141.891 296.524 135.967 289.962C130.043 283.4 137.009 279.232 141.232 277.967C144.251 278.192 149.923 276.719 148.455 269.032C146.987 261.345 154.699 258.567 158.738 258.138C161.248 258.689 167.209 257.894 170.98 250.305C174.751 242.716 179.978 245.267 182.12 247.491C184.262 249.715 189.489 252.266 193.26 244.677C197.03 237.088 202.91 240.659 205.378 243.393L194.662 304.168Z" fill="#698F40"/>
<path d="M267.912 106.76C262.134 98.7421 254.998 83.2699 272.68 85.5248C290.362 87.7796 276.868 100.621 267.912 106.76Z" fill="#EAEAEA"/>
<path d="M264.444 114.561L267.912 106.76M267.912 106.76C262.134 98.7421 254.998 83.2699 272.68 85.5248C290.362 87.7796 276.868 100.621 267.912 106.76Z" stroke="#EAEAEA" stroke-width="1.99713"/>
<path d="M289.8 83.7979C292.617 82.7146 308.436 73.3981 296.519 63.4295C284.601 53.4609 281.999 80.3303 289.8 83.7979Z" fill="#EAEAEA"/>
<path d="M272.678 127.568C277.446 113.339 287.546 84.6644 289.8 83.7979M289.8 83.7979C292.617 82.7146 308.436 73.3981 296.519 63.4295C284.601 53.4609 281.999 80.3303 289.8 83.7979Z" stroke="#EAEAEA" stroke-width="1.99713"/>
<path d="M373.005 106.768C373.656 100.05 361.522 85.3146 382.541 85.3161C399.356 85.3173 383.19 99.6177 373.005 106.768Z" fill="#EAEAEA"/>
<path d="M381.455 124.536C385.139 121.503 400.309 113.647 388.39 108.935C378.855 105.165 379.794 117.765 381.455 124.536Z" fill="#EAEAEA"/>
<path d="M356.534 143.821C361.807 133.709 372.485 112.142 373.005 106.768M373.005 106.768C373.656 100.05 361.522 85.3146 382.541 85.3161C399.356 85.3173 383.19 99.6177 373.005 106.768ZM373.653 142.087C375.026 137.248 378.508 126.963 381.455 124.536M381.455 124.536C385.139 121.503 400.309 113.647 388.39 108.935C378.855 105.165 379.794 117.765 381.455 124.536Z" stroke="#EAEAEA" stroke-width="1.99713"/>
<path d="M429.343 134.592C438.181 177.757 346.344 221.479 299.321 237.944C257.287 195.903 180.888 108.225 211.572 93.8388C249.928 75.8563 270.077 119.846 285.244 138.266C300.411 156.686 306.488 16.9209 349.824 45.5271C393.16 74.1333 312.762 155.169 368.236 135.454C412.616 119.683 427.465 128.308 429.343 134.592Z" fill="#73628A"/>
<path d="M298.885 241.978L246.667 186.069C248.401 173.762 256.057 175.451 259.669 177.834C263.642 181.157 272.237 185.289 274.838 175.235C277.439 165.181 286.033 169.314 290.006 172.637C291.739 175.743 296.853 180.35 303.441 173.938C310.028 167.525 317.742 173.289 320.776 176.972C321.859 179.79 326.496 185.12 336.377 183.908C346.258 182.695 347.139 189.47 346.344 193.009C345.549 196.549 346.43 203.324 356.311 202.112C366.192 200.899 366.495 208.974 365.411 213.163L298.885 241.978Z" fill="#698F40"/>
<path d="M375.627 605.48C364.848 664.766 317.24 684.079 294.783 686.324C303 678.107 314.113 663.877 323.684 645.534C342.091 626.767 363.34 612.306 375.627 605.48Z" fill="#698F40"/>
<path d="M294.783 686.324C303 678.107 314.113 663.877 323.684 645.534C311.812 657.638 301.123 671.532 294.783 686.324Z" fill="#698F40"/>
<path d="M294.783 686.324C289.394 632.428 323.977 569.55 341.942 544.848C348.339 583.228 337.653 618.761 323.684 645.534C311.812 657.638 301.123 671.532 294.783 686.324Z" fill="#698F40"/>
<path d="M288.049 672.855C283.558 654.89 254.364 592.012 200.468 592.012C220.679 645.908 239.543 672.855 288.049 672.855Z" fill="#698F40"/>
<path d="M308.262 214.738C278.576 282.591 283.094 514.57 292.932 685.183M166.785 288.845C221.175 284.661 262.844 494.02 286.119 669.845C292.828 720.517 298.008 768.405 301.525 807.593C298.817 775.549 295.946 736.196 293.393 693.064M293.393 693.064C293.238 690.45 293.084 687.823 292.932 685.183M293.393 693.064C293.203 690.402 293.05 687.775 292.932 685.183" stroke="#698F40" stroke-width="1.99713"/>
</svg>
