<svg width="456" height="809" viewBox="0 0 456 809" fill="none" xmlns="http://www.w3.org/2000/svg">
<path d="M84.0896 262.569C75.6721 262.915 61.3134 260.728 71.2194 249.206C81.1254 237.684 83.9271 253.313 84.0896 262.569Z" fill="#EAEAEA"/>
<path d="M88.0118 268.698L84.0896 262.569M84.0896 262.569C75.6721 262.915 61.3134 260.728 71.2194 249.206C81.1254 237.684 83.9271 253.313 84.0896 262.569Z" stroke="#EAEAEA" stroke-width="2"/>
<path d="M78.022 236.212C78.5739 233.699 79.3722 218.069 66.6842 221.868C53.9962 225.667 71.8924 240.134 78.022 236.212Z" fill="#EAEAEA"/>
<path d="M101.126 268.944C93.2409 258.871 77.5805 238.222 78.022 236.212M78.022 236.212C78.5739 233.699 79.3722 218.069 66.6842 221.868C53.9962 225.667 71.8924 240.134 78.022 236.212Z" stroke="#EAEAEA" stroke-width="2"/>
<path d="M133.436 187.794C128.962 184.177 112.78 185.892 122.65 170.937C130.546 158.974 133.13 177.19 133.436 187.794Z" fill="#EAEAEA"/>
<path d="M150.046 190.124C149.617 186.078 151.15 171.597 142.201 177.865C135.043 182.879 144.448 188.127 150.046 190.124Z" fill="#EAEAEA"/>
<path d="M152.066 216.91C147.347 208.41 137.015 190.687 133.436 187.794M133.436 187.794C128.962 184.177 112.78 185.892 122.65 170.937C130.546 158.974 133.13 177.19 133.436 187.794ZM158.87 203.916C156.072 200.667 150.388 193.36 150.046 190.124M150.046 190.124C149.617 186.078 151.15 171.597 142.201 177.865C135.043 182.879 144.448 188.127 150.046 190.124Z" stroke="#EAEAEA" stroke-width="2"/>
<path d="M179.682 160.774C214.544 174.752 202.535 260.622 192.172 301.81C142.524 311.98 44.2708 325.173 48.4414 296.587C53.6547 260.854 94.4139 267.171 114.641 265.028C134.868 262.884 38.2768 192.94 78.9768 175.537C119.677 158.134 139.588 253.384 151.606 204.657C161.22 165.676 174.329 159.16 179.682 160.774Z" fill="#73628A"/>
<path d="M194.844 304.018L130.547 314.922C122.604 307.91 127.401 303.255 130.792 301.804C135.022 300.538 141.997 296.362 136.065 289.791C130.132 283.22 137.108 279.045 141.338 277.779C144.361 278.004 150.041 276.529 148.571 268.831C147.101 261.133 154.824 258.351 158.869 257.922C161.382 258.474 167.352 257.678 171.128 250.078C174.905 242.478 180.139 245.032 182.284 247.259C184.429 249.486 189.663 252.041 193.44 244.441C197.216 236.841 203.104 240.417 205.576 243.155L194.844 304.018Z" fill="#698F40"/>
<path d="M268.196 106.328C262.41 98.2985 255.265 82.8041 272.972 85.0622C290.679 87.3203 277.166 100.18 268.196 106.328Z" fill="#EAEAEA"/>
<path d="M264.724 114.14L268.196 106.328M268.196 106.328C262.41 98.2985 255.265 82.8041 272.972 85.0622C290.679 87.3203 277.166 100.18 268.196 106.328Z" stroke="#EAEAEA" stroke-width="2"/>
<path d="M290.117 83.3286C292.938 82.2438 308.78 72.9139 296.845 62.9309C284.911 52.948 282.305 79.856 290.117 83.3286Z" fill="#EAEAEA"/>
<path d="M272.971 127.162C277.746 112.912 287.86 84.1964 290.117 83.3286M290.117 83.3286C292.938 82.2438 308.78 72.9139 296.845 62.9309C284.911 52.948 282.305 79.856 290.117 83.3286Z" stroke="#EAEAEA" stroke-width="2"/>
<path d="M373.44 106.333C374.091 99.6061 361.94 84.8491 382.989 84.8506C399.829 84.8518 383.639 99.1727 373.44 106.333Z" fill="#EAEAEA"/>
<path d="M381.902 124.127C385.591 121.089 400.783 113.222 388.847 108.503C379.299 104.728 380.239 117.346 381.902 124.127Z" fill="#EAEAEA"/>
<path d="M356.945 143.439C362.226 133.313 372.919 111.715 373.44 106.333M373.44 106.333C374.091 99.6061 361.94 84.8491 382.989 84.8506C399.829 84.8518 383.639 99.1727 373.44 106.333ZM374.089 141.703C375.463 136.857 378.951 126.557 381.902 124.127M381.902 124.127C385.591 121.089 400.783 113.222 388.847 108.503C379.299 104.728 380.239 117.346 381.902 124.127Z" stroke="#EAEAEA" stroke-width="2"/>
<path d="M429.859 134.199C438.709 177.426 346.741 221.21 299.651 237.699C257.555 195.598 181.047 107.793 211.775 93.3868C250.186 75.3784 270.364 119.431 285.552 137.878C300.741 156.324 306.827 16.3585 350.226 45.0058C393.624 73.6531 313.111 154.805 368.664 135.062C413.107 119.268 427.979 127.905 429.859 134.199Z" fill="#73628A"/>
<path d="M299.215 241.745L246.921 185.755C248.658 173.431 256.326 175.122 259.943 177.509C263.921 180.836 272.528 184.974 275.133 174.906C277.738 164.837 286.345 168.976 290.323 172.304C292.059 175.414 297.18 180.029 303.777 173.607C310.374 167.184 318.099 172.957 321.137 176.646C322.222 179.467 326.865 184.805 336.76 183.591C346.656 182.376 347.538 189.161 346.742 192.706C345.946 196.25 346.828 203.036 356.723 201.821C366.618 200.607 366.922 208.693 365.836 212.889L299.215 241.745Z" fill="#698F40"/>
<path d="M376.068 605.759C365.274 665.13 317.597 684.47 295.108 686.719C303.337 678.49 314.466 664.239 324.05 645.87C342.484 627.077 363.764 612.595 376.068 605.759Z" fill="#698F40"/>
<path d="M295.108 686.719C303.337 678.49 314.466 664.239 324.05 645.87C312.162 657.991 301.457 671.906 295.108 686.719Z" fill="#698F40"/>
<path d="M295.108 686.719C289.711 632.746 324.344 569.777 342.335 545.039C348.741 583.474 338.04 619.059 324.05 645.87C312.162 657.991 301.457 671.906 295.108 686.719Z" fill="#698F40"/>
<path d="M288.363 673.226C283.866 655.234 254.63 592.266 200.657 592.266C220.897 646.239 239.787 673.226 288.363 673.226Z" fill="#698F40"/>
<path d="M308.607 214.453C278.879 282.403 283.403 514.716 293.256 685.573M166.928 288.666C221.395 284.477 263.124 494.136 286.433 670.213C293.151 720.959 298.339 768.915 301.861 808.159C299.149 776.07 296.274 736.659 293.717 693.466M293.717 693.466C293.562 690.849 293.408 688.217 293.256 685.573M293.717 693.466C293.528 690.8 293.374 688.169 293.256 685.573" stroke="#698F40" stroke-width="2"/>
</svg>
