<svg width="342" height="607" viewBox="0 0 342 607" fill="none" xmlns="http://www.w3.org/2000/svg">
<path d="M63.6729 197.524C57.3688 197.783 46.6152 196.145 54.0341 187.516C61.4529 178.887 63.5511 190.592 63.6729 197.524Z" fill="#EAEAEA"/>
<path d="M66.6103 202.115L63.6729 197.524M63.6729 197.524C57.3688 197.783 46.6152 196.145 54.0341 187.516C61.4529 178.887 63.5511 190.592 63.6729 197.524Z" stroke="#EAEAEA" stroke-width="1.49785"/>
<path d="M59.1272 177.786C59.5405 175.904 60.1383 164.198 50.636 167.044C41.1337 169.889 54.5365 180.723 59.1272 177.786Z" fill="#EAEAEA"/>
<path d="M76.4305 202.3C70.525 194.756 58.7965 179.291 59.1272 177.786M59.1272 177.786C59.5405 175.904 60.1383 164.198 50.636 167.044C41.1337 169.889 54.5365 180.723 59.1272 177.786Z" stroke="#EAEAEA" stroke-width="1.49785"/>
<path d="M100.628 141.525C97.2777 138.816 85.1591 140.1 92.5506 128.901C98.4638 119.941 100.4 133.584 100.628 141.525Z" fill="#EAEAEA"/>
<path d="M113.068 143.27C112.747 140.24 113.895 129.394 107.193 134.089C101.832 137.844 108.876 141.774 113.068 143.27Z" fill="#EAEAEA"/>
<path d="M114.581 163.33C111.047 156.965 103.309 143.692 100.628 141.525M100.628 141.525C97.2777 138.816 85.1591 140.1 92.5506 128.901C98.4638 119.941 100.4 133.584 100.628 141.525ZM119.677 153.599C117.581 151.166 113.325 145.694 113.068 143.27M113.068 143.27C112.747 140.24 113.895 129.394 107.193 134.089C101.832 137.844 108.876 141.774 113.068 143.27Z" stroke="#EAEAEA" stroke-width="1.49785"/>
<path d="M135.263 121.289C161.372 131.758 152.378 196.068 144.618 226.914C107.435 234.531 33.8508 244.412 36.9742 223.003C40.8786 196.241 71.4042 200.972 86.5525 199.367C101.701 197.762 29.3617 145.379 59.8429 132.345C90.3242 119.311 105.236 190.647 114.236 154.154C121.437 124.96 131.255 120.08 135.263 121.289Z" fill="#73628A"/>
<path d="M146.619 228.569L98.4656 236.735C92.5174 231.484 96.1098 227.997 98.6496 226.911C101.817 225.962 107.041 222.835 102.598 217.914C98.1552 212.993 103.38 209.866 106.547 208.918C108.812 209.086 113.065 207.981 111.964 202.216C110.863 196.451 116.647 194.367 119.677 194.046C121.559 194.459 126.03 193.863 128.858 188.171C131.686 182.48 135.606 184.393 137.213 186.061C138.819 187.729 142.739 189.642 145.568 183.95C148.396 178.258 152.805 180.936 154.657 182.987L146.619 228.569Z" fill="#698F40"/>
<path d="M201.553 80.5124C197.22 74.499 191.868 62.8948 205.13 64.586C218.391 66.2771 208.271 75.9083 201.553 80.5124Z" fill="#EAEAEA"/>
<path d="M198.953 86.3629L201.553 80.5124M201.553 80.5124C197.22 74.499 191.868 62.8948 205.13 64.586C218.391 66.2771 208.271 75.9083 201.553 80.5124Z" stroke="#EAEAEA" stroke-width="1.49785"/>
<path d="M217.97 63.2908C220.083 62.4783 231.948 55.4909 223.01 48.0145C214.072 40.538 212.12 60.6901 217.97 63.2908Z" fill="#EAEAEA"/>
<path d="M205.129 96.1184C208.705 85.4467 216.28 63.9407 217.97 63.2908M217.97 63.2908C220.083 62.4783 231.948 55.4909 223.01 48.0145C214.072 40.538 212.12 60.6901 217.97 63.2908Z" stroke="#EAEAEA" stroke-width="1.49785"/>
<path d="M280.371 80.5172C280.859 75.4792 271.759 64.4274 287.523 64.4285C300.135 64.4294 288.01 75.1547 280.371 80.5172Z" fill="#EAEAEA"/>
<path d="M286.709 93.8434C289.472 91.5684 300.849 85.6765 291.91 82.1425C284.759 79.3154 285.463 88.7651 286.709 93.8434Z" fill="#EAEAEA"/>
<path d="M268.018 108.307C271.973 100.723 279.981 84.5476 280.371 80.5172M280.371 80.5172C280.859 75.4792 271.759 64.4274 287.523 64.4285C300.135 64.4294 288.01 75.1547 280.371 80.5172ZM280.857 107.007C281.887 103.377 284.499 95.6634 286.709 93.8434M286.709 93.8434C289.472 91.5684 300.849 85.6765 291.91 82.1425C284.759 79.3154 285.463 88.7651 286.709 93.8434Z" stroke="#EAEAEA" stroke-width="1.49785"/>
<path d="M322.626 101.387C329.254 133.761 260.377 166.552 225.11 178.901C193.584 147.371 136.285 81.6119 159.298 70.8224C188.064 57.3355 203.176 90.3279 214.551 104.143C225.927 117.958 230.485 13.1341 262.987 34.5887C295.489 56.0434 235.19 116.82 276.796 102.034C310.08 90.2052 321.218 96.6742 322.626 101.387Z" fill="#73628A"/>
<path d="M224.783 181.932L185.619 140C186.92 130.77 192.662 132.037 195.371 133.824C198.35 136.316 204.797 139.415 206.747 131.874C208.698 124.334 215.144 127.433 218.123 129.926C219.423 132.255 223.259 135.711 228.2 130.901C233.14 126.092 238.926 130.415 241.201 133.178C242.013 135.29 245.491 139.289 252.902 138.379C260.313 137.469 260.973 142.551 260.377 145.205C259.781 147.86 260.441 152.942 267.852 152.032C275.263 151.122 275.49 157.179 274.677 160.321L224.783 181.932Z" fill="#698F40"/>
<path d="M281.342 454.549C273.257 499.013 237.551 513.497 220.709 515.182C226.872 509.019 235.206 498.346 242.384 484.589C256.19 470.514 272.127 459.668 281.342 454.549Z" fill="#698F40"/>
<path d="M220.709 515.182C226.872 509.019 235.206 498.346 242.384 484.589C233.481 493.667 225.464 504.088 220.709 515.182Z" fill="#698F40"/>
<path d="M220.709 515.182C216.667 474.76 242.604 427.601 256.078 409.074C260.876 437.859 252.862 464.509 242.384 484.589C233.481 493.667 225.464 504.088 220.709 515.182Z" fill="#698F40"/>
<path d="M215.658 505.078C212.29 491.604 190.395 444.445 149.973 444.445C165.131 484.867 179.279 505.078 215.658 505.078Z" fill="#698F40"/>
<path d="M231.818 161.492C209.554 212.382 212.942 386.366 220.321 514.325M125.711 217.072C166.503 213.934 197.755 370.953 215.212 502.822C220.243 540.826 224.128 576.742 226.766 606.133C224.735 582.1 222.581 552.585 220.666 520.236M220.666 520.236C220.55 518.276 220.435 516.306 220.321 514.325M220.666 520.236C220.525 518.24 220.41 516.269 220.321 514.325" stroke="#698F40" stroke-width="1.49785"/>
</svg>
