<svg width="258" height="507" viewBox="0 0 258 507" fill="none" xmlns="http://www.w3.org/2000/svg">
<path d="M166.207 294.044C152.687 287.517 131.369 275.336 129.132 282.049C126.894 288.763 150.822 293.112 166.207 294.044C173.666 287.517 194.644 276.28 191.287 267.328C187.931 258.377 170.869 280.058 166.207 294.044Z" fill="#698F40"/>
<path d="M161.3 274.25C152.442 267.256 132.695 254.412 124.863 258.888C117.031 263.363 145.915 270.986 161.3 274.25C166.894 267.256 185.593 252.835 179.998 243.884C174.404 234.933 162.232 259.797 161.3 274.25Z" fill="#698F40"/>
<circle cx="11.1889" cy="11.1889" r="11.1889" transform="matrix(-1 0 0 1 163.791 232.41)" fill="#698F40"/>
<path d="M124.048 135.957C121.867 161.583 133.35 204.861 151.309 242.276C170.936 283.167 184.931 431.468 188.929 506.163" stroke="#698F40" stroke-width="1.49785"/>
<path d="M128.95 39.9766C61.4668 28.5533 80.8271 90.2263 98.9427 122.491C71.0503 119.205 26.8814 130.98 73.3452 204.37C119.809 277.761 125.907 198.199 123.148 149.245C130.008 184.982 159.677 236.993 223.473 159.141C287.269 81.2895 189.525 108.765 132.678 132.235C159.553 106.242 196.433 51.3998 128.95 39.9766Z" fill="#EAEAEA"/>
<path d="M119.449 77.1354C90.7063 72.7326 93.0106 109.661 100.527 123.273C88.6375 122.064 83.207 142.197 102.55 173.124C121.894 204.05 123.605 166.328 122.76 145.506C125.446 160.673 139.198 186.423 166.976 152.845C194.753 119.267 154.696 129.317 131.132 133.697C139.726 117.452 148.192 81.5381 119.449 77.1354Z" fill="#CBC5EA"/>
<path d="M118.771 115.653C111.825 115.071 111.771 123.894 113.38 127.047C110.496 126.954 108.838 131.927 113.047 139.054C117.256 146.181 118.589 137.961 118.729 132.96C119.132 136.568 121.775 141.648 129.117 133.098C136.459 124.548 127.549 125.562 121.409 128.468C124.442 125.565 125.717 116.235 118.771 115.653Z" fill="#73628A"/>
<path d="M111.284 86.0168L110.841 94.8878L115.72 86.2386L115.276 95.1096L120.155 86.4605L119.712 95.3315" stroke="#73628A" stroke-width="1.49785"/>
<path d="M104.136 148.293L97.6811 154.395L107.186 151.521L100.732 157.623L110.237 154.748L103.783 160.85" stroke="#73628A" stroke-width="1.49785"/>
<path d="M162.472 150.534L156.212 144.234L159.322 153.665L153.061 147.364L156.171 156.795L149.911 150.494" stroke="#73628A" stroke-width="1.49785"/>
</svg>
