<svg width="344" height="343" viewBox="0 0 344 343" fill="none" xmlns="http://www.w3.org/2000/svg">
<path d="M171.773 52.7226C81.7949 37.4917 107.609 119.722 131.763 162.741C94.5729 158.36 35.6811 174.06 97.6328 271.914C159.584 369.768 167.716 263.686 164.037 198.414C173.183 246.063 212.741 315.412 297.803 211.609C382.865 107.807 252.539 144.441 176.743 175.733C212.577 141.076 261.751 67.9536 171.773 52.7226Z" fill="#EAEAEA"/>
<path d="M159.106 102.263C120.782 96.3922 123.854 145.63 133.876 163.779C118.023 162.168 110.783 189.012 136.574 230.247C162.365 271.482 164.646 221.186 163.52 193.424C167.101 213.646 185.438 247.979 222.474 203.209C259.51 158.438 206.101 171.838 174.683 177.678C186.142 156.018 197.43 108.133 159.106 102.263Z" fill="#CBC5EA"/>
<path d="M158.2 153.624C148.939 152.848 148.867 164.612 151.012 168.817C147.168 168.693 144.956 175.323 150.568 184.826C156.18 194.329 157.957 183.368 158.144 176.7C158.682 181.511 162.206 188.284 171.995 176.884C181.785 165.484 169.905 166.836 161.717 170.712C165.762 166.841 167.461 154.4 158.2 153.624Z" fill="#73628A"/>
<path d="M148.218 114.108L147.626 125.936L154.132 114.404L153.54 126.232L160.046 114.7L159.454 126.528" stroke="#73628A" stroke-width="1.99713"/>
<path d="M138.687 197.145L130.081 205.281L142.755 201.448L134.149 209.584L146.823 205.751L138.217 213.887" stroke="#73628A" stroke-width="1.99713"/>
<path d="M216.469 200.136L208.122 191.735L212.269 204.309L203.921 195.908L208.068 208.483L199.721 200.082" stroke="#73628A" stroke-width="1.99713"/>
</svg>
