<svg width="345" height="675" viewBox="0 0 345 675" fill="none" xmlns="http://www.w3.org/2000/svg">
<path d="M221.551 391.629C203.498 382.914 175.034 366.649 172.046 375.613C169.058 384.577 201.008 390.384 221.551 391.629C231.511 382.914 259.521 367.908 255.039 355.956C250.557 344.004 227.776 372.954 221.551 391.629Z" fill="#698F40"/>
<path d="M214.998 365.198C203.171 355.86 176.804 338.71 166.346 344.686C155.888 350.662 194.456 360.84 214.998 365.198C222.468 355.86 247.436 336.605 239.966 324.653C232.496 312.7 216.243 345.9 214.998 365.198Z" fill="#698F40"/>
<circle cx="14.94" cy="14.94" r="14.94" transform="matrix(-1 0 0 1 218.324 309.336)" fill="#698F40"/>
<path d="M165.258 180.547C162.346 214.763 177.678 272.551 201.658 322.509C227.866 377.109 246.551 575.127 251.89 674.865" stroke="#698F40" stroke-width="2"/>
<path d="M171.802 52.3877C81.6953 37.1348 107.546 119.484 131.735 162.565C94.4917 158.177 35.5152 173.9 97.5559 271.894C159.597 369.889 167.739 263.655 164.056 198.288C173.215 246.006 212.83 315.454 298.014 211.502C383.198 107.551 252.685 144.238 176.78 175.575C212.665 140.868 261.909 67.6405 171.802 52.3877Z" fill="#EAEAEA"/>
<path d="M159.116 102.002C120.736 96.1235 123.813 145.432 133.85 163.607C117.974 161.993 110.723 188.876 136.551 230.171C162.379 271.465 164.664 221.097 163.537 193.294C167.123 213.546 185.485 247.928 222.575 203.094C259.665 158.259 206.179 171.678 174.715 177.526C186.191 155.835 197.495 107.881 159.116 102.002Z" fill="#CBC5EA"/>
<path d="M158.21 153.433C148.936 152.656 148.863 164.437 151.011 168.648C147.161 168.523 144.947 175.163 150.567 184.68C156.187 194.196 157.966 183.22 158.154 176.542C158.693 181.36 162.221 188.143 172.025 176.726C181.828 165.31 169.931 166.664 161.732 170.545C165.783 166.668 167.484 154.21 158.21 153.433Z" fill="#73628A"/>
<path d="M148.213 113.862L147.62 125.707L154.135 114.158L153.543 126.003L160.058 114.454L159.465 126.299" stroke="#73628A" stroke-width="2"/>
<path d="M138.67 197.017L130.052 205.164L142.744 201.326L134.125 209.473L146.817 205.635L138.199 213.782" stroke="#73628A" stroke-width="2"/>
<path d="M216.563 200.011L208.204 191.598L212.356 204.191L203.997 195.778L208.15 208.37L199.791 199.957" stroke="#73628A" stroke-width="2"/>
</svg>
