<svg width="93" height="494" viewBox="0 0 93 494" fill="none" xmlns="http://www.w3.org/2000/svg">
<path d="M58.2321 211.064C40.2055 202.362 11.7823 186.12 8.79855 195.071C5.81483 204.022 37.719 209.821 58.2321 211.064C68.1778 202.362 96.1485 187.378 91.673 175.443C87.1974 163.508 64.4482 192.416 58.2321 211.064Z" fill="#698F40"/>
<path d="M51.6894 184.671C39.8789 175.347 13.5499 158.221 3.10692 164.189C-7.3361 170.156 31.1764 180.32 51.6894 184.671C59.1487 175.347 84.08 156.119 76.6207 144.184C69.1614 132.249 52.9326 165.401 51.6894 184.671Z" fill="#698F40"/>
<circle cx="14.9186" cy="14.9186" r="14.9186" transform="matrix(-1 0 0 1 55.0078 128.891)" fill="#698F40"/>
<path d="M2.02105 0.285156C-0.886499 34.4525 14.4236 92.1572 38.3686 142.043C64.539 196.565 83.198 394.3 88.5291 493.894" stroke="#698F40" stroke-width="1.99713"/>
</svg>
