<svg width="410" height="71" viewBox="0 0 410 71" fill="none" xmlns="http://www.w3.org/2000/svg">
<path d="M114.268 59.7122C114.694 59.2329 115.099 58.7564 115.477 58.2887C117.158 54.369 119.461 48.0628 121.161 41.3648C122.292 36.91 123.156 32.2819 123.392 28.0673C121.963 24.8437 116.687 21.5395 107.012 34.1116C97.3368 46.6837 107.818 56.417 114.268 59.7122Z" fill="#73628A"/>
<path d="M10.5357 22.0231C9.18061 26.9472 8.86725 33.2825 10.2613 41.3648C11.0066 45.6853 11.991 49.2771 13.1483 52.2445C17.243 58.2888 36.8688 58.2888 32.0314 31.6939C28.1614 10.418 16.0884 16.3817 10.5357 22.0231Z" fill="#73628A"/>
<path d="M104.593 13.561C102.174 13.561 80.4058 28.0673 87.662 55.871C90.5263 66.8464 95.6677 69.6395 100.965 68.6363C105.81 67.7188 110.785 63.6255 114.268 59.7122C107.818 56.417 97.3368 46.6837 107.012 34.1116C116.687 21.5395 121.963 24.8437 123.392 28.0673C123.532 25.5762 123.452 23.2296 123.079 21.1486C122.983 20.6161 122.869 20.101 122.733 19.6053C122.362 18.2447 121.868 17.0938 121.279 16.1261C121.146 15.9082 121.009 15.6996 120.867 15.5C119.561 13.6654 117.874 12.5906 116.047 12.0424C112.053 10.8442 107.392 12.1622 104.593 13.561Z" fill="#EAEAEA"/>
<path d="M36.8688 61.9153C42.1094 59.0947 51.623 49.1014 47.7531 31.6939C44.6298 17.6448 41.001 11.1548 36.8688 8.31937C34.6011 6.76326 32.1817 6.30791 29.6111 6.30791C27.2103 6.30791 24.226 6.87178 21.2925 8.31937C20.707 8.60832 20.1234 8.93249 19.547 9.29442C18.3718 10.0322 17.2261 10.9269 16.1525 12C15.6865 12.4658 14.9823 13.4652 14.547 14C13.8163 14.8976 13.3856 15.3948 12.7677 16.5C12.4997 16.9794 12.2438 17.4792 12.0014 18C11.4326 19.2224 10.9382 20.5605 10.5357 22.0231C16.0884 16.3817 28.1614 10.418 32.0314 31.6939C36.8688 58.2888 17.243 58.2888 13.1483 52.2445C17.7082 63.9364 24.9518 65.9347 30.822 64.6197C33.133 64.102 35.2311 63.0708 36.8688 61.9153Z" fill="#EAEAEA"/>
<path d="M0.0469772 3.5C1.64698 12.9463 9.01661 18.0386 12.0014 18C12.2438 17.4792 12.4997 16.9794 12.7677 16.5C2.9884 14.5 -0.453023 1.69209 0.0469772 3.5Z" fill="#CBC5EA"/>
<path d="M6.54698 1.5C6.94698 7.80315 11.6297 12.9193 14.547 14C14.9823 13.4652 15.6865 12.4658 16.1525 12C10.047 11.5 6.04698 -0.5 6.54698 1.5Z" fill="#CBC5EA"/>
<path d="M13.547 1C13.547 5.70315 17.4141 8.9489 19.547 9.29442C20.1234 8.93249 20.707 8.60832 21.2925 8.31937C17.489 8.31937 14.6769 2.98014 13.547 1Z" fill="#CBC5EA"/>
<path d="M116.047 12.0424C116.714 12.2426 117.363 12.5129 117.981 12.8648C121.981 11.5003 122.714 5.69628 123.047 3.5C121.047 9.1 117.88 11.8616 116.047 12.0424Z" fill="#CBC5EA"/>
<path d="M120.867 15.5C121.002 15.6942 121.279 16.1261 121.279 16.1261C121.522 16.5458 121.775 17.0056 121.994 17.5C127.047 14.5 130.047 7 130.547 3.5C128.547 9 123.594 14.5 120.867 15.5Z" fill="#CBC5EA"/>
<path d="M123.079 21.1486C123.129 21.4277 123.174 21.7116 123.214 22C134.547 16 136.047 7 136.547 3.5C134.147 12.7 127.047 18.5 122.927 20.3893C123.007 20.7702 123.029 20.8694 123.079 21.1486Z" fill="#CBC5EA"/>
<path d="M273.141 2.5C274.741 11.9463 282.11 17.0386 285.095 17C285.338 16.4792 285.593 15.9794 285.861 15.5C276.082 13.5 272.641 0.692094 273.141 2.5Z" fill="#CBC5EA"/>
<path d="M279.641 0.5C280.041 6.80315 284.723 11.9193 287.641 13C288.076 12.4652 288.78 11.4658 289.246 11C283.141 10.5 279.141 -1.5 279.641 0.5Z" fill="#CBC5EA"/>
<path d="M286.641 0C286.641 4.70315 290.508 7.9489 292.641 8.29442C293.217 7.93249 293.801 7.60832 294.386 7.31937C290.583 7.31937 287.771 1.98014 286.641 0Z" fill="#CBC5EA"/>
<path d="M389.141 11.0424C389.808 11.2426 390.456 11.5129 391.074 11.8648C395.074 10.5003 395.807 4.69628 396.141 2.5C394.141 8.1 390.974 10.8616 389.141 11.0424Z" fill="#CBC5EA"/>
<path d="M393.961 14.5C394.095 14.6942 394.373 15.1261 394.373 15.1261C394.616 15.5458 394.869 16.0056 395.088 16.5C400.141 13.5 403.141 6 403.641 2.5C401.641 8 396.687 13.5 393.961 14.5Z" fill="#CBC5EA"/>
<path d="M396.173 20.1486C396.223 20.4277 396.268 20.7116 396.307 21C407.64 15 409.141 6 409.641 2.5C407.241 11.7 400.141 17.5 396.021 19.3893C396.027 19.4174 396.032 19.4441 396.038 19.4693C396.078 19.661 396.102 19.7748 396.125 19.8921C396.14 19.9686 396.154 20.0465 396.173 20.1486Z" fill="#CBC5EA"/>
<path d="M309.963 60.9153C315.203 58.0947 324.717 48.1014 320.847 30.6939C317.724 16.6448 314.095 10.1548 309.963 7.31937C307.695 5.76326 305.275 5.30791 302.705 5.30791C300.304 5.30791 297.32 5.87178 294.386 7.31937C293.801 7.60832 293.217 7.93249 292.641 8.29442C291.466 9.0322 290.32 9.92688 289.246 11C288.78 11.4658 288.076 12.4652 287.641 13C286.91 13.8976 286.479 14.3948 285.861 15.5C285.593 15.9794 285.338 16.4792 285.095 17C284.526 18.2224 284.032 19.5605 283.629 21.0231C282.274 25.9472 281.961 32.2825 283.355 40.3648C284.1 44.6853 285.085 48.2771 286.242 51.2445C290.802 62.9364 298.046 64.9347 303.916 63.6197C306.227 63.102 308.325 62.0708 309.963 60.9153Z" fill="#EAEAEA"/>
<path d="M377.687 12.561C375.268 12.561 353.5 27.0673 360.756 54.871C363.62 65.8464 368.761 68.6395 374.059 67.6363C378.904 66.7188 383.879 62.6255 387.362 58.7122V58.7122C388.186 57.7863 388.823 56.7144 389.287 55.565C390.866 51.6492 392.786 46.1533 394.255 40.3648C395.386 35.91 396.25 31.2819 396.486 27.0673C396.607 24.9104 396.563 22.8617 396.307 21C396.268 20.7116 396.223 20.4277 396.173 20.1486C396.157 20.0626 396.141 19.9771 396.125 19.8921C396.102 19.7748 396.078 19.661 396.038 19.4693L396.021 19.3893C395.962 19.123 395.897 18.8615 395.827 18.6053C395.618 17.8385 395.37 17.1383 395.088 16.5C394.869 16.0056 394.616 15.5458 394.373 15.1261C394.373 15.1261 394.095 14.6942 393.961 14.5C393.132 13.3352 392.149 12.4767 391.074 11.8648C390.456 11.5129 389.808 11.2426 389.141 11.0424C385.147 9.84423 380.486 11.1622 377.687 12.561Z" fill="#EAEAEA"/>
<path d="M321.587 34.5007C322.589 42.9965 319.515 51.493 317.593 53.9998C314.004 58.6829 313.598 58.9974 309.098 61.4974C303.21 65.8135 285.305 60.104 298.801 36.6829C309.598 17.9461 318.254 27.321 321.587 34.5007Z" fill="#73628A"/>
<path d="M394.619 37.0857C394.84 41.5528 390.619 55.026 387.594 58.5001C384.494 62.0612 384.005 62.934 379.355 65.6228C372.396 68.1999 355.614 59.607 372.618 38.5943C386.222 21.7841 392.454 29.4719 394.619 37.0857Z" fill="#73628A"/>
<path d="M136.594 3.5C138.194 12.9463 145.563 18.0386 148.548 18C148.791 17.4792 149.047 16.9794 149.315 16.5C139.535 14.5 136.094 1.69209 136.594 3.5Z" fill="#CBC5EA"/>
<path d="M143.094 1.5C143.494 7.80315 148.177 12.9193 151.094 14C151.529 13.4652 152.233 12.4658 152.699 12C146.594 11.5 142.594 -0.5 143.094 1.5Z" fill="#CBC5EA"/>
<path d="M150.094 1C150.094 5.70315 153.961 8.9489 156.094 9.29442C156.67 8.93249 157.254 8.60832 157.839 8.31937C154.036 8.31937 151.224 2.98014 150.094 1Z" fill="#CBC5EA"/>
<path d="M252.594 12.0424C253.261 12.2426 253.909 12.5129 254.527 12.8648C258.527 11.5003 259.261 5.69628 259.594 3.5C257.594 9.1 254.427 11.8616 252.594 12.0424Z" fill="#CBC5EA"/>
<path d="M257.414 15.5C257.549 15.6942 257.826 16.1261 257.826 16.1261C258.069 16.5458 258.322 17.0056 258.541 17.5C263.594 14.5 266.594 7 267.094 3.5C265.094 9 260.14 14.5 257.414 15.5Z" fill="#CBC5EA"/>
<path d="M259.626 21.1486C259.676 21.4277 259.721 21.7116 259.76 22C271.094 16 272.594 7 273.094 3.5C270.694 12.7 263.594 18.5 259.474 20.3893C259.48 20.4174 259.485 20.4441 259.491 20.4693C259.531 20.661 259.555 20.7748 259.578 20.8921C259.593 20.9686 259.608 21.0465 259.626 21.1486Z" fill="#CBC5EA"/>
<path d="M173.416 61.9153C178.656 59.0947 188.17 49.1014 184.3 31.6939C181.177 17.6448 177.548 11.1548 173.416 8.31937C171.148 6.76326 168.729 6.30791 166.158 6.30791C163.757 6.30791 160.773 6.87178 157.839 8.31937C157.254 8.60832 156.67 8.93249 156.094 9.29442C154.919 10.0322 153.773 10.9269 152.699 12C152.233 12.4658 151.529 13.4652 151.094 14C150.363 14.8976 149.932 15.3948 149.315 16.5C149.047 16.9794 148.791 17.4792 148.548 18C147.979 19.2224 147.485 20.5605 147.083 22.0231C145.727 26.9472 145.414 33.2825 146.808 41.3648C147.553 45.6853 148.538 49.2771 149.695 52.2445C154.255 63.9364 161.499 65.9347 167.369 64.6197C169.68 64.102 171.778 63.0708 173.416 61.9153Z" fill="#EAEAEA"/>
<path d="M241.14 13.561C238.721 13.561 216.953 28.0673 224.209 55.871C227.073 66.8464 232.215 69.6395 237.512 68.6363C242.357 67.7188 247.332 63.6255 250.815 59.7122V59.7122C251.639 58.7863 252.277 57.7144 252.74 56.565C254.319 52.6492 256.239 47.1533 257.708 41.3648C258.839 36.91 259.703 32.2819 259.939 28.0673C260.06 25.9104 260.017 23.8617 259.76 22C259.721 21.7116 259.676 21.4277 259.626 21.1486C259.61 21.0626 259.594 20.9771 259.578 20.8921C259.555 20.7748 259.531 20.661 259.491 20.4693L259.474 20.3893C259.415 20.123 259.35 19.8615 259.28 19.6053C259.071 18.8385 258.823 18.1383 258.541 17.5C258.322 17.0056 258.069 16.5458 257.826 16.1261C257.826 16.1261 257.549 15.6942 257.414 15.5C256.585 14.3352 255.602 13.4767 254.527 12.8648C253.909 12.5129 253.261 12.2426 252.594 12.0424C248.6 10.8442 243.939 12.1622 241.14 13.561Z" fill="#EAEAEA"/>
<path d="M146.036 36.0051C146.415 41.0981 148.605 52.0942 151.047 56C153.55 60.0035 154.533 61.5067 159.033 64.0067C164.922 68.3227 183.424 61.7912 169.928 38.3702C159.131 19.6335 149.369 28.8254 146.036 36.0051Z" fill="#73628A"/>
<path d="M224.05 35.5014C222.047 39.5 222.683 52.0965 224.05 56.4953C225.452 61.0043 225.547 62 228.718 66.3358C234.047 71.5 252.869 70.4039 245.782 44.3184C240.111 23.45 229.102 29.4071 224.05 35.5014Z" fill="#73628A"/>
</svg>
