<svg width="381" height="42" viewBox="0 0 381 42" fill="none" xmlns="http://www.w3.org/2000/svg">
<path d="M150.714 18.3275C150.483 18.6336 149.751 18.8194 149.414 18.8741C150.165 19.0053 150.473 19.1201 150.714 19.3934C151.003 19.7214 151.132 20.4958 151.196 20.9239C151.22 20.5504 151.345 19.7214 151.653 19.3934C151.961 19.0654 152.648 18.9105 152.953 18.8741C152.64 18.9014 151.871 18.575 151.653 18.3275C151.364 17.9995 151.244 17.3071 151.172 16.8789C151.124 17.2342 151.003 17.9448 150.714 18.3275Z" fill="#EAEAEA"/>
<path d="M307.703 35.5189C307.471 35.825 306.739 36.0108 306.402 36.0655C307.154 36.1967 307.462 36.3115 307.703 36.5848C307.991 36.9128 308.12 37.6872 308.184 38.1154C308.208 37.7418 308.333 36.9128 308.642 36.5848C308.95 36.2568 309.637 36.1019 309.942 36.0655C309.629 36.0928 308.86 35.7664 308.642 35.5189C308.353 35.1909 308.232 34.4985 308.16 34.0703C308.112 34.4256 307.991 35.1362 307.703 35.5189Z" fill="#EAEAEA"/>
<path d="M378.757 18.8275C378.526 19.1336 377.794 19.3194 377.457 19.3741C378.208 19.5053 378.516 19.6201 378.757 19.8934C379.046 20.2214 379.175 20.9958 379.239 21.4239C379.263 21.0504 379.388 20.2214 379.696 19.8934C380.004 19.5654 380.691 19.4105 380.996 19.3741C380.683 19.4014 379.914 19.075 379.696 18.8275C379.407 18.4995 379.287 17.8071 379.215 17.3789C379.167 17.7342 379.046 18.4448 378.757 18.8275Z" fill="#EAEAEA"/>
<path d="M90.2952 13.436C89.7504 14.2587 88.025 14.7581 87.2305 14.905C89.0012 15.2576 89.7277 15.5661 90.2952 16.3006C90.9763 17.1821 91.2789 19.2633 91.4303 20.414C91.487 19.4102 91.7822 17.1821 92.5086 16.3006C93.2351 15.4192 94.8545 15.003 95.5734 14.905C94.8356 14.9785 93.0226 14.1011 92.5086 13.436C91.8276 12.5545 91.5438 10.6937 91.3735 9.54297C91.26 10.4979 90.9763 12.4076 90.2952 13.436Z" fill="#EAEAEA"/>
<path d="M272.123 16.4162C271.793 16.7988 270.747 17.0311 270.266 17.0995C271.339 17.2634 271.779 17.4069 272.123 17.7486C272.536 18.1585 272.719 19.1265 272.811 19.6618C272.845 19.1949 273.024 18.1585 273.465 17.7486C273.905 17.3386 274.886 17.145 275.322 17.0995C274.875 17.1336 273.776 16.7255 273.465 16.4162C273.052 16.0062 272.88 15.1407 272.777 14.6055C272.708 15.0496 272.536 15.9379 272.123 16.4162Z" fill="#EAEAEA"/>
<path d="M358.576 37.1427C358.246 37.5254 357.2 37.7577 356.719 37.826C357.792 37.99 358.232 38.1335 358.576 38.4751C358.989 38.8851 359.172 39.8531 359.264 40.3883C359.298 39.9214 359.477 38.8851 359.918 38.4751C360.358 38.0652 361.339 37.8716 361.775 37.826C361.328 37.8602 360.229 37.4521 359.918 37.1427C359.505 36.7328 359.333 35.8673 359.23 35.332C359.161 35.7762 358.989 36.6644 358.576 37.1427Z" fill="#EAEAEA"/>
<path d="M186.454 32.5938C185.893 33.2443 184.116 33.6392 183.297 33.7554C185.121 34.0342 185.87 34.2781 186.454 34.8589C187.156 35.5559 187.468 37.2014 187.624 38.1113C187.682 37.3176 187.987 35.5559 188.735 34.8589C189.483 34.162 191.152 33.8328 191.893 33.7554C191.132 33.8135 189.264 33.1197 188.735 32.5938C188.033 31.8969 187.741 30.4255 187.565 29.5156C187.449 30.2707 187.156 31.7807 186.454 32.5938Z" fill="#EAEAEA"/>
<path d="M1.30019 5.97615C1.06905 6.39705 0.337087 6.6526 0 6.72776C0.751222 6.90815 1.05942 7.06599 1.30019 7.44179C1.58912 7.89276 1.71754 8.95754 1.78174 9.54631C1.80582 9.0327 1.93103 7.89276 2.23922 7.44179C2.54741 6.99082 3.23443 6.77787 3.53941 6.72776C3.2264 6.76534 2.45725 6.31645 2.23922 5.97615C1.95029 5.52518 1.8299 4.57314 1.75767 3.98438C1.70951 4.47292 1.58912 5.45002 1.30019 5.97615Z" fill="#EAEAEA"/>
<path d="M244.383 35.1722C243.722 35.9375 241.631 36.4021 240.668 36.5388C242.814 36.8667 243.695 37.1537 244.383 37.837C245.208 38.6569 245.575 40.5929 245.759 41.6634C245.827 40.7296 246.185 38.6569 247.066 37.837C247.946 37.0171 249.909 36.6299 250.781 36.5388C249.886 36.6071 247.689 35.7909 247.066 35.1722C246.24 34.3522 245.896 32.6213 245.69 31.5508C245.552 32.4391 245.208 34.2156 244.383 35.1722Z" fill="#EAEAEA"/>
<path d="M212.198 8.51113C211.373 9.46773 208.759 10.0485 207.555 10.2193C210.238 10.6293 211.338 10.988 212.198 11.8421C213.23 12.8671 213.689 15.287 213.918 16.6251C214.004 15.4578 214.451 12.8671 215.552 11.8421C216.653 10.8172 219.106 10.3332 220.195 10.2193C219.078 10.3048 216.331 9.28456 215.552 8.51113C214.52 7.4862 214.09 5.32247 213.832 3.98438C213.66 5.09471 213.23 7.31538 212.198 8.51113Z" fill="#EAEAEA"/>
<path d="M329.657 12.1839C328.716 13.2745 325.736 13.9366 324.363 14.1313C327.422 14.5987 328.677 15.0076 329.657 15.9813C330.833 17.1497 331.356 19.9085 331.618 21.4339C331.716 20.1032 332.225 17.1497 333.48 15.9813C334.735 14.8129 337.532 14.2611 338.774 14.1313C337.499 14.2287 334.368 13.0656 333.48 12.1839C332.304 11.0155 331.814 8.54887 331.519 7.02344C331.323 8.28922 330.833 10.8208 329.657 12.1839Z" fill="#EAEAEA"/>
<path d="M47.6815 3.57864C47.2027 4.13347 45.6865 4.47033 44.9883 4.56941C46.5444 4.80719 47.1828 5.01525 47.6815 5.51063C48.28 6.10509 48.546 7.50867 48.679 8.28476C48.7289 7.60774 48.9883 6.10509 49.6267 5.51063C50.2651 4.91617 51.6882 4.63546 52.3199 4.56941C51.6715 4.61894 50.0783 4.02723 49.6267 3.57864C49.0282 2.98419 48.7788 1.72922 48.6292 0.953125C48.5294 1.59712 48.28 2.88511 47.6815 3.57864Z" fill="#EAEAEA"/>
</svg>
