<svg width="575" height="855" viewBox="0 0 575 855" fill="none" xmlns="http://www.w3.org/2000/svg">
<path d="M60.5374 433.714C54.4536 432.132 52.68 433.639 52.2002 435.484C43.9278 437.916 49.1683 442.998 53.126 445.445C51.3753 444.464 48.5399 443.912 48.842 448.395C49.0555 451.562 51.5724 452.654 54.0603 452.862C53.6294 453.399 53.2387 454.204 52.9361 455.367C51.7848 459.794 61.6537 462.23 66.732 462.894C65.9573 463.349 64.216 464.997 63.4484 467.948C62.6808 470.899 67.7272 471.686 70.3464 471.711C69.195 476.138 77.2443 475.474 81.4129 474.59C80.0234 474.885 77.4213 476.308 78.1293 479.643C78.6195 481.952 82.1092 482.65 85.3363 482.718C84.6524 483.144 84.2657 483.924 84.5475 485.251C85.0669 487.697 92.9245 489.368 99.8703 490.293C98.7908 490.674 98.9796 491.755 101.941 494.088C108.478 499.239 120.65 500.392 125.919 500.325C140.694 511.091 156.523 521.985 172.648 532.652C165.045 529.077 145.916 521.864 130.226 521.618C119.08 521.444 124.401 524.188 132.158 526.795C128.393 526.052 124.351 525.722 121.08 526.498C116.591 527.563 120.692 530.775 126.025 533.684C122.901 532.868 118.826 532.263 113.686 532.214C101.701 532.1 108.712 537.845 114.363 541.135C110.982 539.37 103.374 537.017 94.2074 538.963C88.049 540.27 91.008 542.606 96.1243 544.711C88.6148 542.871 80.5954 542.283 78.418 546.671C75.4259 552.701 85.4938 553.458 92.444 553.012C83.9512 553.874 69.8515 556.894 68.0873 563.676C66.1684 571.054 76.8546 565.3 82.4375 561.501C75.9199 566.37 63.4306 577.037 65.6141 580.756C67.7976 584.474 81.6985 574.437 88.376 568.953C85.5721 572.162 80.975 579.237 85.0178 581.864C88.3758 584.046 95.0095 576.303 99.39 570.059C97.3738 573.48 95.685 577.603 97.5236 579.209C99.618 581.039 106.046 573.599 110.633 567.472C110.032 569.53 110.719 571.904 114.678 573.825C120.133 576.473 123.041 568.953 124.308 562.155C124.606 563.537 125.216 565.158 126.299 567.002C128.823 571.301 133.63 564.728 137.142 558.257C137.719 558.979 138.57 559.778 139.764 560.658C145.047 564.55 149.41 557.47 151.847 551.018C152.407 551.241 153.091 551.461 153.915 551.675C161.293 553.594 169.478 539.793 172.648 532.652C178.792 536.717 184.979 540.749 191.168 544.728C206.626 554.668 222.091 564.281 236.915 573.264C224.184 567.698 217.237 570.684 215.355 572.873C210.312 572.074 198.83 571.295 193.252 574.571C187.674 577.846 200.715 583.732 207.933 586.266C201.17 584.507 186.154 582.176 180.192 586.927C175.507 590.661 182.134 593.607 188.547 595.253C180.777 593.96 170.527 593.801 168.977 599.764C167.799 604.292 172.397 605.624 177.731 605.637C170.364 606.768 162.705 608.734 161.929 611.715C161.2 614.518 164.782 614.916 168.763 614.49C164.504 615.988 160.03 619.02 158.571 624.626C156.269 633.479 163.44 631.144 167.314 628.869C165.125 632.238 161.661 640.002 165.32 644.104C168.402 647.56 174.231 637.947 177.97 630.244C177.121 633.345 177.704 636.576 182.954 636.876C190.716 637.319 192.165 624.174 191.92 617.547L197.379 626.843C199.562 630.562 202.716 616.416 204.021 608.879C204.156 610.883 205.068 615.453 207.635 617.696C209.953 619.721 213.308 610.353 215.115 603.989C215.332 605.04 216.093 606.532 217.891 608.548C221.299 612.369 224.312 601.51 225.633 594.409C225.386 596.929 226.04 600.147 229.992 599.88C234.802 599.556 236.611 582.001 236.915 573.264C242.113 576.414 247.232 579.486 252.243 582.468C258.704 586.311 264.986 590.004 271.03 593.519C277.063 580.418 287.558 554.202 281.272 554.142C273.415 554.068 281.644 545.142 275.317 539.184C272.778 536.792 271.327 536.059 270.545 536.112C274.741 526.816 279.877 510.457 271.538 508.288C267.144 507.145 264.676 507.796 263.377 509.083C265.731 498.776 268.036 484.362 263.904 484.641C259.094 484.965 256.022 487.185 255.087 488.255C258.715 479.353 263.936 461.806 255.79 462.838C247.645 463.871 244.649 467.817 244.17 469.662C244.219 464.424 243.212 453.659 238.785 452.508C234.359 451.356 232.783 468.013 232.549 476.485C230.274 472.612 225.437 465.971 224.286 470.398C223.135 474.824 227.986 486.457 230.555 491.72C227.666 487.687 221.408 481.464 219.489 488.842C217.809 495.3 230.139 505.905 238.888 512.119C233.052 508.434 225.171 504.849 223.913 509.685C222.378 515.587 235.151 527.049 241.729 532.042C237.745 529.693 229.394 526.47 227.858 532.372C226.323 538.274 238.776 550.966 245.194 556.573C241.37 553.61 233.435 548.789 232.283 553.215C231.132 557.642 245.11 574.561 252.243 582.468C247.232 579.486 242.113 576.414 236.915 573.264C222.091 564.281 206.626 554.668 191.168 544.728C197.534 535.396 207.783 517.191 197.851 519.035C185.437 521.338 214.286 501.273 200.895 499.759C187.505 498.246 213.07 483.234 199.2 483.565C185.33 483.896 205.842 465.6 196.62 463.202C187.398 460.803 197.654 451.655 190.276 449.736C182.898 447.817 190.905 432.177 184.412 434.427C177.919 436.676 170.393 450.472 177.216 462.093C184.039 473.714 167.183 447.668 165.67 461.059C164.372 472.537 178.026 474.119 176.587 479.652C172.763 476.689 165.196 471.964 165.521 476.774C165.926 482.787 170.02 489.759 180.607 494.482C191.194 499.205 158.474 488.726 171.31 499.941C181.579 508.914 183.187 514.846 182.707 516.69C178.293 510.947 169.451 501.033 169.391 507.319C169.331 513.605 183.884 534.877 191.168 544.728C184.979 540.749 178.792 536.717 172.648 532.652C156.523 521.985 140.694 511.091 125.919 500.325C132.191 494.379 125.274 490.186 121.031 488.833C126.609 485.557 120.945 481.59 117.416 480.016C120.043 475.973 113.003 474.273 109.154 473.928C112.165 468.41 106.769 465.431 103.695 464.631C105.614 457.254 99.3061 456.269 95.9122 456.699C96.3556 448.938 90.9083 448.178 88.1292 448.768C88.5727 441.006 83.1254 440.246 80.3464 440.836C78.5466 435.641 73.7682 435.843 71.6039 436.592C63.821 428.66 64.2263 434.673 60.5374 433.714Z" fill="#698F40"/>
<path d="M288.184 241.084C281.272 361.152 332.977 473.928 307.294 614.079M288.184 800.122C294.368 729.167 300.659 668.359 307.294 614.079M307.294 614.079C296.839 608.325 284.528 601.367 271.03 593.519M52.2002 435.484C52.68 433.639 54.4536 432.132 60.5374 433.714C64.2263 434.673 63.821 428.66 71.604 436.592C73.7682 435.843 78.5466 435.641 80.3463 440.836C83.1254 440.246 88.5727 441.006 88.1293 448.768C90.9083 448.178 96.3556 448.938 95.9122 456.699C99.306 456.269 105.614 457.254 103.695 464.631C106.769 465.431 112.165 468.41 109.154 473.928C113.003 474.273 120.043 475.973 117.416 480.016C120.945 481.59 126.609 485.557 121.031 488.833C125.274 490.186 132.191 494.379 125.919 500.325M52.2002 435.484C66.6092 454.078 93.7738 476.902 125.919 500.325M52.2002 435.484C43.6711 437.992 49.5065 443.316 53.4904 445.665C51.8059 444.571 48.5179 443.584 48.8421 448.395C49.1662 453.205 54.8054 453.228 57.5844 452.638C56.5147 451.703 54.0875 450.941 52.9361 455.367C51.7847 459.794 61.6537 462.23 66.732 462.894C65.9573 463.349 64.216 464.997 63.4484 467.948C62.6808 470.899 67.7272 471.686 70.3464 471.711C69.195 476.138 77.2443 475.474 81.4129 474.59C80.0234 474.885 77.4213 476.308 78.1293 479.643C78.8372 482.978 85.802 482.952 89.1958 482.521C87.3514 482.042 83.8395 481.916 84.5475 485.251C85.2555 488.586 99.5979 490.478 106.681 491.008C102.377 489.888 95.4039 488.937 101.941 494.088C108.478 499.239 120.65 500.392 125.919 500.325M125.919 500.325C140.694 511.091 156.523 521.985 172.648 532.652M271.03 593.519C277.063 580.418 287.558 554.202 281.272 554.142C273.415 554.068 281.644 545.142 275.317 539.184C270.255 534.416 269.519 536.238 269.784 537.744C274.057 528.885 280.391 510.59 271.538 508.288C262.685 505.985 261.651 510.967 262.241 513.746C264.8 503.909 268.714 484.317 263.904 484.641C259.094 484.965 256.022 487.185 255.087 488.255C258.715 479.353 263.936 461.806 255.79 462.838C247.645 463.871 244.649 467.817 244.17 469.662C244.219 464.424 243.212 453.659 238.785 452.508C234.359 451.356 232.783 468.013 232.549 476.485C230.274 472.612 225.437 465.971 224.286 470.398C223.135 474.824 227.986 486.457 230.555 491.72C227.666 487.687 221.408 481.464 219.489 488.842C217.57 496.22 233.935 509.01 242.358 514.482C236.849 510.424 225.449 503.783 223.913 509.685C222.378 515.587 235.151 527.049 241.729 532.042C237.745 529.693 229.394 526.47 227.858 532.372C226.323 538.274 238.776 550.966 245.194 556.573C241.37 553.61 233.435 548.789 232.283 553.215C231.132 557.642 245.11 574.561 252.243 582.468M271.03 593.519C264.986 590.004 258.704 586.311 252.243 582.468M252.243 582.468C247.232 579.486 242.113 576.414 236.915 573.264M191.168 544.728C197.534 535.396 207.783 517.191 197.851 519.034C185.437 521.338 214.286 501.273 200.895 499.759C187.505 498.246 213.07 483.234 199.2 483.565C185.33 483.896 205.842 465.6 196.62 463.202C187.398 460.803 197.654 451.655 190.276 449.736C182.898 447.817 190.905 432.177 184.412 434.427C177.919 436.676 170.393 450.472 177.216 462.093C184.039 473.714 167.183 447.668 165.67 461.059C164.372 472.537 178.026 474.119 176.587 479.652C172.763 476.689 165.196 471.964 165.521 476.774C165.926 482.787 170.02 489.759 180.607 494.482C191.194 499.205 158.474 488.726 171.31 499.941C181.579 508.914 183.187 514.846 182.707 516.69C178.293 510.947 169.451 501.033 169.391 507.319C169.331 513.605 183.884 534.878 191.168 544.728ZM191.168 544.728C206.626 554.668 222.091 564.281 236.915 573.264M191.168 544.728C184.979 540.749 178.792 536.717 172.648 532.652M236.915 573.264C236.611 582.001 234.802 599.556 229.992 599.88C225.181 600.204 225.258 595.367 225.898 592.908C224.753 599.83 221.55 612.651 217.891 608.548C214.232 604.446 214.867 602.51 215.641 602.055C214.042 608.203 210.202 619.939 207.635 617.696C205.068 615.453 204.156 610.883 204.021 608.879C202.716 616.416 199.562 630.562 197.379 626.843C195.195 623.125 192.83 619.096 191.92 617.547C192.165 624.174 190.716 637.319 182.954 636.876C175.193 636.432 177.63 629.583 179.819 626.214C176.511 633.887 168.979 648.207 165.32 644.104C161.661 640.002 165.125 632.238 167.314 628.869C163.44 631.144 156.269 633.479 158.571 624.626C160.874 615.773 170.697 613.339 175.32 613.229C170.377 614.569 160.778 616.142 161.929 611.715C163.081 607.289 179.403 605.101 187.421 604.561C180.473 606.036 167.058 607.141 168.976 599.764C170.895 592.386 186.131 594.379 193.508 596.298C186.585 595.154 174.23 591.678 180.192 586.927C186.154 582.176 201.17 584.507 207.933 586.266C200.715 583.732 187.674 577.846 193.252 574.571C198.83 571.295 210.312 572.074 215.355 572.873C217.237 570.684 224.184 567.698 236.915 573.264ZM172.648 532.652C169.478 539.793 161.293 553.594 153.915 551.675C146.538 549.756 150.433 547.397 153.304 546.457C151.545 553.22 146.374 565.528 139.764 560.658C133.154 555.788 137.059 553.391 139.838 552.801C136.69 559.859 129.574 572.58 126.299 567.002C123.023 561.424 124.074 557.89 125.008 556.82C124.479 563.903 121.672 577.22 114.678 573.825C107.684 570.431 110.903 565.623 113.388 563.644C109.169 569.767 100.091 581.453 97.5236 579.209C94.9563 576.966 99.2664 569.817 101.742 566.522C97.852 572.731 89.0607 584.491 85.0179 581.864C80.975 579.237 85.5721 572.162 88.376 568.953C81.6985 574.437 67.7976 584.474 65.6141 580.756C63.4306 577.037 75.9199 566.37 82.4375 561.501C76.8546 565.3 66.1684 571.054 68.0873 563.676C70.0063 556.298 86.5207 553.374 94.5381 552.833C87.7853 553.559 75.1074 553.343 78.418 546.671C81.7286 540 98.5452 544.829 106.54 548.078C98.2604 545.925 84.2028 541.087 94.2074 538.963C104.212 536.839 112.359 539.837 115.183 541.601C109.445 538.422 101.114 532.095 113.686 532.214C126.258 532.333 132.45 535.782 133.974 537.491C126.878 534.491 114.364 528.092 121.08 526.498C127.796 524.904 137.763 527.974 141.906 529.708C131.476 526.909 114.536 521.373 130.226 521.618C145.916 521.864 165.045 529.077 172.648 532.652Z" stroke="#698F40" stroke-width="1.99713"/>
<path d="M290.389 28.59C325.616 13.1987 328.651 95.9337 325.765 139.225C352.248 111.058 411.762 62.2915 437.951 92.5651C464.141 122.839 389.992 182.162 349.644 208.04C401.935 206.798 500.848 217.101 478.18 268.25C455.512 319.399 372.198 269.775 328.615 252.286C358.254 293.151 417.489 384.672 375.487 404.741C299.809 440.899 310.901 314.233 286.133 260.241C282.805 301.173 287.254 387.551 241.409 393.205C195.564 398.859 237.67 294.967 237.458 254.699C211.784 293.708 153.092 359.908 123.72 312.642C94.3482 265.375 162.68 227.173 200.518 213.98C160.104 206.89 84.7194 186.562 106.496 161.964C128.273 137.365 176.784 152.466 198.317 163.092C178.189 133.881 115.407 92.1378 153.646 61.5249C191.886 30.912 242.435 98.642 262.929 136.334C264.706 106.686 255.162 43.9813 290.389 28.59Z" fill="#EAEAEA"/>
<path d="M304.515 201.833C321.508 198.651 322.804 208.18 321.328 213.342C320.81 217.103 316.236 225.289 302.075 227.941C284.374 231.255 283.274 205.811 304.515 201.833Z" fill="#73628A"/>
<path d="M294.756 185.339C301.881 184.004 302.693 189.436 302.209 192.319C302.093 194.434 300.376 198.944 294.439 200.056C287.016 201.446 285.849 187.007 294.756 185.339Z" fill="#73628A"/>
<path d="M283.688 210.718C276.984 213.476 275.082 208.324 274.969 205.403C274.652 203.308 275.414 198.544 281 196.246C287.984 193.373 292.068 207.271 283.688 210.718Z" fill="#73628A"/>
<path d="M271.452 186.417C267.062 180.648 271.551 177.485 274.345 176.624C276.288 175.778 281.088 175.288 284.746 180.095C289.319 186.104 276.94 193.628 271.452 186.417Z" fill="#73628A"/>
<path d="M247.214 183.346C240.762 174.868 247.36 170.218 251.466 168.953C254.321 167.71 261.376 166.99 266.753 174.055C273.474 182.887 255.28 193.944 247.214 183.346Z" fill="#73628A"/>
<path d="M273.293 199.139C274.192 206.333 268.721 206.813 265.873 206.155C263.768 205.91 259.372 203.923 258.623 197.929C257.686 190.436 272.169 190.148 273.293 199.139Z" fill="#73628A"/>
</svg>
