<svg width="616" height="855" viewBox="0 0 616 855" fill="none" xmlns="http://www.w3.org/2000/svg">
<path d="M331.02 28.0359C366.298 12.6225 369.337 95.4764 366.446 138.83C392.968 110.622 452.567 61.7859 478.794 92.1029C505.021 122.42 430.766 181.829 390.36 207.744C442.726 206.5 541.781 216.818 519.08 268.04C496.38 319.263 412.947 269.567 369.301 252.053C398.982 292.977 458.303 384.63 416.24 404.727C340.454 440.937 351.561 314.089 326.757 260.02C323.424 301.01 327.881 387.513 281.97 393.175C236.059 398.837 278.225 294.796 278.013 254.47C252.301 293.534 193.526 359.83 164.111 312.496C134.697 265.161 203.128 226.904 241.019 213.692C200.547 206.593 125.055 186.235 146.863 161.601C168.671 136.967 217.251 152.09 238.815 162.731C218.659 133.478 155.786 91.6751 194.081 61.0182C232.375 30.3613 282.997 98.1886 303.52 135.934C305.3 106.244 295.742 43.4494 331.02 28.0359Z" fill="#EAEAEA"/>
<path d="M345.167 201.529C362.184 198.342 363.482 207.885 362.004 213.054C361.486 216.821 356.905 225.018 342.723 227.674C324.997 230.993 323.895 205.512 345.167 201.529Z" fill="#73628A"/>
<path d="M335.391 185.012C342.526 183.676 343.34 189.116 342.855 192.002C342.738 194.121 341.02 198.637 335.073 199.75C327.641 201.142 326.471 186.683 335.391 185.012Z" fill="#73628A"/>
<path d="M324.31 210.422C317.596 213.184 315.692 208.024 315.579 205.099C315.261 203.001 316.024 198.23 321.619 195.928C328.612 193.051 332.702 206.97 324.31 210.422Z" fill="#73628A"/>
<path d="M312.057 186.092C307.661 180.315 312.157 177.147 314.954 176.285C316.9 175.438 321.707 174.948 325.37 179.762C329.95 185.779 317.553 193.313 312.057 186.092Z" fill="#73628A"/>
<path d="M287.781 183.018C281.32 174.527 287.928 169.871 292.039 168.604C294.899 167.359 301.963 166.638 307.348 173.713C314.079 182.558 295.858 193.631 287.781 183.018Z" fill="#73628A"/>
<path d="M313.901 198.829C314.801 206.033 309.323 206.514 306.471 205.855C304.363 205.61 299.96 203.62 299.21 197.617C298.272 190.113 312.776 189.825 313.901 198.829Z" fill="#73628A"/>
<path d="M100.839 433.737C94.7464 432.152 92.9702 433.662 92.4898 435.509C84.2056 437.945 89.4534 443.035 93.4169 445.485C91.6636 444.502 88.8242 443.949 89.1268 448.439C89.3405 451.61 91.8611 452.703 94.3526 452.912C93.921 453.45 93.5297 454.256 93.2267 455.421C92.0737 459.854 101.957 462.293 107.042 462.959C106.267 463.414 104.523 465.064 103.754 468.02C102.985 470.975 108.039 471.763 110.662 471.788C109.509 476.221 117.57 475.557 121.744 474.671C120.353 474.966 117.747 476.392 118.456 479.732C118.947 482.044 122.442 482.743 125.674 482.811C124.989 483.238 124.601 484.018 124.884 485.348C125.404 487.798 133.273 489.47 140.228 490.397C139.147 490.778 139.336 491.861 142.302 494.198C148.848 499.356 161.038 500.51 166.314 500.443C181.111 511.225 196.962 522.134 213.11 532.817C205.496 529.236 186.34 522.013 170.628 521.767C159.465 521.593 164.795 524.34 172.562 526.951C168.792 526.207 164.744 525.877 161.469 526.654C156.973 527.721 161.08 530.937 166.421 533.85C163.292 533.033 159.212 532.427 154.064 532.378C142.062 532.264 149.083 538.017 154.742 541.312C151.356 539.545 143.737 537.188 134.557 539.137C128.39 540.446 131.353 542.785 136.477 544.893C128.957 543.05 120.926 542.462 118.745 546.856C115.749 552.894 125.831 553.652 132.791 553.206C124.287 554.07 110.166 557.093 108.4 563.886C106.478 571.274 117.18 565.512 122.771 561.707C116.244 566.583 103.736 577.266 105.923 580.99C108.11 584.714 122.03 574.662 128.718 569.17C125.91 572.384 121.306 579.469 125.355 582.1C128.717 584.285 135.361 576.53 139.747 570.277C137.728 573.704 136.037 577.832 137.878 579.441C139.976 581.274 146.413 573.823 151.006 567.687C150.405 569.747 151.092 572.125 155.057 574.049C160.52 576.701 163.433 569.17 164.701 562.362C164.999 563.746 165.61 565.369 166.695 567.216C169.223 571.522 174.036 564.939 177.554 558.459C178.131 559.182 178.983 559.982 180.179 560.863C185.469 564.761 189.839 557.671 192.28 551.209C192.841 551.432 193.525 551.653 194.351 551.868C201.739 553.789 209.936 539.968 213.11 532.817C219.264 536.888 225.46 540.925 231.657 544.91C247.137 554.864 262.625 564.491 277.47 573.487C264.721 567.913 257.764 570.904 255.879 573.096C250.828 572.296 239.33 571.516 233.744 574.796C228.158 578.076 241.218 583.97 248.446 586.508C241.674 584.746 226.636 582.412 220.666 587.17C215.974 590.909 222.61 593.859 229.032 595.508C221.252 594.212 210.987 594.053 209.434 600.025C208.254 604.559 212.859 605.894 218.201 605.907C210.823 607.039 203.153 609.008 202.377 611.994C201.647 614.801 205.234 615.199 209.22 614.772C204.955 616.272 200.474 619.309 199.014 624.923C196.708 633.789 203.889 631.45 207.769 629.172C205.576 632.546 202.108 640.321 205.772 644.429C208.859 647.89 214.696 638.263 218.44 630.549C217.59 633.655 218.174 636.89 223.431 637.19C231.204 637.634 232.656 624.471 232.41 617.833L237.877 627.143C240.064 630.867 243.222 616.702 244.528 609.153C244.664 611.16 245.577 615.736 248.148 617.983C250.469 620.011 253.829 610.63 255.638 604.257C255.856 605.309 256.618 606.803 258.419 608.822C261.832 612.648 264.848 601.774 266.172 594.662C265.924 597.186 266.579 600.408 270.537 600.142C275.354 599.817 277.166 582.236 277.47 573.487C282.675 576.641 287.801 579.718 292.82 582.704C299.29 586.553 305.581 590.252 311.634 593.771C317.676 580.652 328.186 554.398 321.891 554.338C314.022 554.263 322.263 545.325 315.927 539.358C313.384 536.963 311.931 536.228 311.148 536.282C315.35 526.972 320.494 510.59 312.143 508.417C307.742 507.273 305.271 507.926 303.97 509.214C306.327 498.893 308.635 484.458 304.498 484.737C299.68 485.061 296.604 487.285 295.668 488.356C299.302 479.441 304.529 461.869 296.372 462.903C288.215 463.937 285.215 467.889 284.735 469.736C284.785 464.49 283.776 453.71 279.343 452.557C274.91 451.404 273.332 468.085 273.097 476.569C270.82 472.69 265.976 466.04 264.823 470.473C263.67 474.906 268.528 486.556 271.101 491.826C268.208 487.787 261.94 481.556 260.019 488.944C258.336 495.411 270.684 506.031 279.446 512.254C273.601 508.564 265.709 504.974 264.45 509.817C262.912 515.727 275.703 527.205 282.291 532.206C278.301 529.853 269.938 526.626 268.4 532.537C266.863 538.447 279.334 551.157 285.761 556.773C281.932 553.805 273.985 548.977 272.831 553.41C271.678 557.843 285.677 574.786 292.82 582.704C287.801 579.718 282.675 576.641 277.47 573.487C262.625 564.491 247.137 554.864 231.657 544.91C238.032 535.564 248.296 517.334 238.35 519.18C225.918 521.487 254.809 501.393 241.399 499.877C227.989 498.361 253.591 483.328 239.701 483.659C225.81 483.99 246.352 465.669 237.117 463.267C227.881 460.865 238.152 451.704 230.764 449.782C223.376 447.86 231.394 432.198 224.892 434.45C218.389 436.703 210.852 450.519 217.685 462.157C224.518 473.794 207.638 447.711 206.122 461.121C204.823 472.615 218.497 474.2 217.055 479.741C213.226 476.773 205.648 472.041 205.973 476.859C206.379 482.88 210.479 489.863 221.081 494.592C231.683 499.322 198.916 488.827 211.771 500.059C222.055 509.044 223.665 514.985 223.184 516.832C218.764 511.081 209.909 501.152 209.849 507.447C209.789 513.742 224.363 535.046 231.657 544.91C225.46 540.925 219.264 536.888 213.11 532.817C196.962 522.134 181.111 511.225 166.314 500.443C172.596 494.489 165.668 490.29 161.419 488.935C167.005 485.655 161.334 481.681 157.8 480.105C160.43 476.056 153.38 474.354 149.525 474.009C152.54 468.482 147.137 465.499 144.059 464.699C145.98 457.31 139.663 456.325 136.265 456.755C136.709 448.983 131.253 448.221 128.47 448.812C128.914 441.039 123.459 440.278 120.676 440.868C118.874 435.667 114.089 435.868 111.921 436.619C104.127 428.676 104.533 434.698 100.839 433.737Z" fill="#698F40"/>
<path d="M328.812 240.83C321.891 361.07 373.67 474.009 347.95 614.361M328.813 800.671C335.005 729.614 341.305 668.719 347.95 614.361M347.95 614.361C337.48 608.598 325.152 601.631 311.634 593.771M92.4898 435.509C92.9702 433.662 94.7464 432.152 100.839 433.737C104.533 434.698 104.127 428.676 111.921 436.619C114.089 435.868 118.874 435.667 120.676 440.868C123.459 440.278 128.914 441.039 128.47 448.812C131.253 448.221 136.709 448.983 136.265 456.755C139.663 456.325 145.98 457.31 144.059 464.699C147.137 465.499 152.54 468.482 149.525 474.009C153.38 474.354 160.43 476.056 157.8 480.105C161.334 481.681 167.005 485.655 161.419 488.935C165.668 490.29 172.596 494.489 166.314 500.443M92.4898 435.509C106.919 454.13 134.123 476.987 166.314 500.443M92.4898 435.509C83.9485 438.02 89.7922 443.353 93.7818 445.705C92.0949 444.609 88.8022 443.621 89.1268 448.439C89.4514 453.256 95.0987 453.279 97.8818 452.688C96.8105 451.752 94.3798 450.988 93.2267 455.421C92.0737 459.854 101.957 462.293 107.042 462.959C106.267 463.414 104.523 465.064 103.754 468.02C102.985 470.975 108.039 471.764 110.662 471.788C109.509 476.221 117.57 475.557 121.744 474.671C120.353 474.966 117.747 476.392 118.456 479.732C119.165 483.071 126.14 483.045 129.539 482.614C127.691 482.134 124.175 482.008 124.884 485.348C125.593 488.687 139.956 490.583 147.048 491.113C142.739 489.992 135.756 489.039 142.302 494.198C148.848 499.356 161.038 500.511 166.314 500.443M166.314 500.443C181.111 511.225 196.962 522.134 213.11 532.817M311.634 593.771C317.676 580.652 328.186 554.398 321.891 554.338C314.022 554.263 322.263 545.325 315.927 539.358C310.858 534.584 310.121 536.408 310.386 537.916C314.666 529.044 321.008 510.724 312.143 508.417C303.277 506.111 302.242 511.101 302.833 513.884C305.395 504.033 309.315 484.412 304.498 484.737C299.68 485.061 296.604 487.285 295.668 488.356C299.302 479.441 304.529 461.869 296.372 462.903C288.215 463.937 285.215 467.889 284.735 469.736C284.785 464.49 283.776 453.71 279.343 452.557C274.91 451.404 273.332 468.085 273.097 476.569C270.82 472.69 265.976 466.04 264.823 470.473C263.67 474.906 268.528 486.556 271.101 491.826C268.208 487.787 261.94 481.556 260.019 488.944C258.097 496.332 274.486 509.14 282.92 514.621C277.404 510.557 265.987 503.906 264.45 509.817C262.912 515.727 275.703 527.205 282.291 532.206C278.301 529.853 269.938 526.626 268.4 532.537C266.863 538.447 279.334 551.157 285.761 556.773C281.932 553.805 273.985 548.977 272.831 553.41C271.678 557.843 285.677 574.786 292.82 582.704M311.634 593.771C305.581 590.252 299.29 586.553 292.82 582.704M292.82 582.704C287.801 579.718 282.675 576.641 277.47 573.487M231.657 544.91C238.032 535.564 248.296 517.334 238.35 519.18C225.918 521.487 254.809 501.393 241.399 499.877C227.989 498.361 253.591 483.328 239.701 483.659C225.81 483.99 246.352 465.669 237.117 463.267C227.881 460.865 238.152 451.704 230.764 449.782C223.376 447.86 231.394 432.198 224.892 434.45C218.389 436.703 210.852 450.519 217.685 462.157C224.518 473.794 207.638 447.711 206.122 461.121C204.823 472.615 218.497 474.2 217.055 479.741C213.226 476.773 205.648 472.041 205.973 476.859C206.379 482.88 210.479 489.863 221.081 494.592C231.683 499.322 198.916 488.827 211.771 500.059C222.055 509.044 223.665 514.985 223.184 516.832C218.764 511.081 209.909 501.152 209.849 507.447C209.789 513.742 224.363 535.046 231.657 544.91ZM231.657 544.91C247.137 554.864 262.625 564.491 277.47 573.487M231.657 544.91C225.46 540.925 219.264 536.888 213.11 532.817M277.47 573.487C277.166 582.236 275.354 599.817 270.537 600.142C265.719 600.466 265.796 595.622 266.437 593.159C265.291 600.092 262.083 612.93 258.419 608.822C254.754 604.714 255.39 602.775 256.166 602.32C254.564 608.477 250.719 620.229 248.148 617.983C245.577 615.736 244.664 611.16 244.528 609.153C243.222 616.702 240.064 630.867 237.877 627.143C235.69 623.419 233.321 619.385 232.41 617.833C232.656 624.471 231.204 637.634 223.431 637.19C215.659 636.746 218.1 629.888 220.292 626.514C216.979 634.197 209.437 648.538 205.772 644.429C202.108 640.321 205.576 632.546 207.769 629.172C203.889 631.45 196.708 633.789 199.014 624.923C201.32 616.057 211.157 613.62 215.787 613.51C210.836 614.851 201.224 616.427 202.377 611.994C203.53 607.561 219.876 605.37 227.905 604.829C220.947 606.306 207.512 607.413 209.434 600.025C211.356 592.637 226.613 594.633 234.001 596.555C227.068 595.409 214.695 591.928 220.666 587.17C226.636 582.412 241.674 584.746 248.446 586.508C241.218 583.97 228.158 578.076 233.744 574.796C239.33 571.516 250.828 572.296 255.879 573.096C257.764 570.904 264.721 567.913 277.47 573.487ZM213.11 532.817C209.936 539.968 201.739 553.789 194.351 551.868C186.963 549.946 190.864 547.583 193.738 546.642C191.977 553.414 186.799 565.74 180.179 560.863C173.56 555.986 177.471 553.585 180.254 552.994C177.101 560.062 169.975 572.802 166.695 567.216C163.415 561.63 164.467 558.091 165.403 557.02C164.872 564.113 162.061 577.449 155.057 574.049C148.053 570.65 151.277 565.835 153.765 563.853C149.541 569.985 140.449 581.688 137.878 579.441C135.307 577.195 139.624 570.035 142.103 566.736C138.207 572.953 129.403 584.731 125.355 582.1C121.306 579.469 125.91 572.384 128.718 569.17C122.03 574.662 108.11 584.714 105.923 580.99C103.736 577.266 116.244 566.583 122.771 561.707C117.18 565.512 106.478 571.274 108.4 563.886C110.321 556.497 126.86 553.568 134.888 553.027C128.126 553.754 115.43 553.537 118.745 546.856C122.061 540.175 138.901 545.012 146.907 548.265C138.616 546.108 124.538 541.264 134.557 539.137C144.576 537.01 152.735 540.012 155.563 541.779C149.817 538.595 141.474 532.259 154.064 532.378C166.654 532.497 172.855 535.951 174.381 537.663C167.275 534.658 154.743 528.25 161.469 526.654C168.194 525.058 178.175 528.132 182.325 529.869C171.879 527.066 154.915 521.521 170.628 521.767C186.34 522.013 205.496 529.236 213.11 532.817Z" stroke="#698F40" stroke-width="2"/>
</svg>
