<svg width="536" height="640" viewBox="0 0 536 640" fill="none" xmlns="http://www.w3.org/2000/svg">
<path d="M149.835 324.573C145.272 323.386 143.942 324.517 143.582 325.9C137.378 327.724 141.308 331.536 144.277 333.371C142.964 332.635 140.837 332.221 141.064 335.583C141.224 337.958 143.111 338.777 144.977 338.933C144.654 339.337 144.361 339.94 144.134 340.813C143.271 344.133 150.672 345.959 154.481 346.458C153.9 346.799 152.594 348.035 152.018 350.248C151.443 352.461 155.228 353.052 157.192 353.07C156.328 356.39 162.365 355.893 165.492 355.229C164.45 355.45 162.498 356.518 163.029 359.019C163.397 360.751 166.014 361.274 168.434 361.325C167.921 361.645 167.631 362.23 167.843 363.225C168.232 365.06 174.125 366.313 179.335 367.007C178.525 367.292 178.667 368.103 180.888 369.853C185.791 373.716 194.919 374.581 198.871 374.531C209.953 382.606 221.824 390.776 233.918 398.776C228.216 396.095 213.869 390.685 202.102 390.501C193.742 390.37 197.733 392.428 203.551 394.383C200.727 393.826 197.695 393.578 195.242 394.161C191.876 394.96 194.951 397.368 198.951 399.55C196.608 398.938 193.552 398.484 189.696 398.448C180.708 398.362 185.966 402.671 190.205 405.139C187.668 403.815 181.963 402.05 175.088 403.509C170.469 404.49 172.688 406.242 176.525 407.82C170.893 406.44 164.879 406 163.246 409.29C161.002 413.813 168.553 414.38 173.765 414.046C167.396 414.693 156.821 416.957 155.498 422.044C154.058 427.578 162.073 423.262 166.26 420.413C161.372 424.065 152.005 432.065 153.643 434.854C155.28 437.643 165.706 430.115 170.714 426.002C168.611 428.409 165.163 433.715 168.195 435.685C170.714 437.322 175.689 431.514 178.975 426.831C177.462 429.397 176.196 432.489 177.575 433.694C179.146 435.067 183.966 429.487 187.407 424.891C186.956 426.434 187.471 428.215 190.44 429.656C194.532 431.642 196.713 426.002 197.663 420.903C197.886 421.94 198.344 423.155 199.156 424.538C201.05 427.763 204.655 422.833 207.289 417.98C207.721 418.522 208.359 419.121 209.255 419.781C213.217 422.7 216.49 417.39 218.317 412.551C218.738 412.718 219.25 412.883 219.869 413.044C225.402 414.483 231.54 404.132 233.918 398.776C238.526 401.825 243.167 404.849 247.808 407.833C259.401 415.288 271.001 422.498 282.118 429.235C272.57 425.061 267.36 427.3 265.948 428.942C262.166 428.343 253.555 427.759 249.371 430.215C245.188 432.671 254.969 437.086 260.382 438.987C255.31 437.667 244.048 435.919 239.576 439.483C236.062 442.283 241.033 444.492 245.842 445.727C240.015 444.757 232.328 444.638 231.164 449.11C230.281 452.506 233.73 453.505 237.731 453.515C232.205 454.363 226.461 455.837 225.879 458.074C225.332 460.176 228.019 460.474 231.004 460.154C227.81 461.278 224.454 463.552 223.361 467.757C221.634 474.397 227.012 472.645 229.917 470.939C228.276 473.466 225.678 479.289 228.422 482.365C230.734 484.957 235.105 477.747 237.91 471.97C237.273 474.296 237.71 476.719 241.648 476.944C247.469 477.277 248.556 467.418 248.372 462.447L252.466 469.42C254.104 472.209 256.469 461.599 257.448 455.946C257.549 457.449 258.233 460.877 260.158 462.559C261.897 464.078 264.413 457.052 265.768 452.279C265.931 453.067 266.502 454.186 267.85 455.698C270.406 458.564 272.666 450.42 273.657 445.093C273.472 446.984 273.962 449.397 276.926 449.197C280.534 448.954 281.891 435.788 282.118 429.235C286.017 431.597 289.856 433.902 293.615 436.138C298.46 439.021 303.172 441.79 307.705 444.426C312.23 434.601 320.101 414.938 315.386 414.894C309.493 414.838 315.665 408.144 310.92 403.675C309.015 401.881 307.927 401.331 307.341 401.371C310.488 394.399 314.34 382.13 308.086 380.503C304.79 379.646 302.939 380.134 301.965 381.099C303.73 373.369 305.459 362.559 302.36 362.768C298.752 363.011 296.448 364.676 295.747 365.478C298.469 358.802 302.384 345.642 296.275 346.416C290.166 347.19 287.919 350.15 287.559 351.533C287.597 347.605 286.841 339.531 283.521 338.668C280.201 337.804 279.02 350.297 278.844 356.651C277.138 353.746 273.51 348.765 272.647 352.085C271.783 355.405 275.421 364.13 277.349 368.077C275.182 365.052 270.488 360.385 269.049 365.919C267.789 370.762 277.036 378.716 283.598 383.376C279.221 380.612 273.311 377.924 272.367 381.551C271.216 385.977 280.795 394.574 285.729 398.318C282.741 396.557 276.477 394.14 275.326 398.566C274.175 402.993 283.514 412.511 288.328 416.717C285.46 414.494 279.508 410.879 278.645 414.199C277.781 417.519 288.265 430.208 293.615 436.138C289.856 433.902 286.017 431.597 282.118 429.235C271.001 422.498 259.401 415.288 247.808 407.833C252.583 400.834 260.269 387.181 252.82 388.563C243.51 390.291 265.147 375.242 255.104 374.107C245.061 372.971 264.235 361.713 253.832 361.961C243.429 362.209 258.814 348.487 251.897 346.688C244.98 344.889 252.672 338.029 247.139 336.589C241.606 335.15 247.611 323.42 242.741 325.107C237.872 326.794 232.227 337.141 237.344 345.857C242.462 354.573 229.82 335.038 228.684 345.081C227.711 353.69 237.952 354.876 236.873 359.026C234.005 356.804 228.329 353.26 228.573 356.868C228.876 361.377 231.947 366.607 239.887 370.149C247.827 373.691 223.287 365.831 232.915 374.243C240.617 380.972 241.822 385.421 241.463 386.805C238.152 382.497 231.52 375.062 231.475 379.776C231.431 384.491 242.345 400.445 247.808 407.833C243.167 404.849 238.526 401.825 233.918 398.776C221.824 390.776 209.953 382.606 198.871 374.531C203.575 370.071 198.387 366.927 195.205 365.912C199.389 363.455 195.141 360.48 192.494 359.299C194.465 356.267 189.184 354.992 186.297 354.733C188.556 350.594 184.509 348.36 182.203 347.761C183.643 342.227 178.912 341.489 176.366 341.812C176.699 335.991 172.613 335.42 170.529 335.863C170.862 330.042 166.776 329.471 164.692 329.914C163.342 326.018 159.758 326.169 158.135 326.731C152.298 320.782 152.602 325.292 149.835 324.573Z" fill="#698F40"/>
<path d="M320.57 180.1C315.386 270.151 354.165 354.733 334.903 459.846M320.57 599.378C325.208 546.162 329.926 500.557 334.903 459.846M334.903 459.846C327.062 455.531 317.828 450.312 307.705 444.426M143.582 325.9C143.942 324.517 145.272 323.386 149.835 324.573C152.602 325.292 152.298 320.782 158.135 326.731C159.758 326.169 163.342 326.018 164.692 329.914C166.776 329.471 170.862 330.042 170.529 335.863C172.613 335.42 176.699 335.991 176.366 341.812C178.912 341.489 183.643 342.227 182.203 347.761C184.509 348.36 188.556 350.594 186.297 354.733C189.184 354.992 194.465 356.267 192.494 359.299C195.141 360.48 199.389 363.455 195.205 365.912C198.387 366.927 203.575 370.071 198.871 374.531M143.582 325.9C154.389 339.846 174.762 356.963 198.871 374.531M143.582 325.9C137.185 327.781 141.562 331.774 144.55 333.536C143.287 332.715 140.821 331.975 141.064 335.583C141.307 339.191 145.536 339.208 147.62 338.766C146.818 338.065 144.998 337.493 144.134 340.813C143.271 344.133 150.672 345.959 154.481 346.458C153.9 346.799 152.594 348.035 152.018 350.248C151.443 352.461 155.228 353.052 157.192 353.07C156.328 356.39 162.365 355.893 165.492 355.229C164.45 355.45 162.498 356.518 163.029 359.019C163.56 361.521 168.784 361.501 171.329 361.178C169.946 360.818 167.312 360.724 167.843 363.225C168.374 365.726 179.131 367.146 184.443 367.543C181.215 366.703 175.985 365.99 180.888 369.853C185.791 373.716 194.919 374.581 198.871 374.531M198.871 374.531C209.953 382.606 221.824 390.776 233.918 398.776M307.705 444.426C312.23 434.601 320.101 414.938 315.386 414.894C309.493 414.838 315.665 408.144 310.92 403.675C307.124 400.099 306.572 401.465 306.77 402.595C309.975 395.951 314.725 382.23 308.086 380.503C301.446 378.776 300.671 382.513 301.113 384.597C303.032 377.219 305.968 362.525 302.36 362.768C298.752 363.011 296.448 364.676 295.747 365.478C298.469 358.802 302.384 345.642 296.275 346.416C290.166 347.19 287.919 350.15 287.559 351.533C287.597 347.605 286.841 339.531 283.521 338.668C280.201 337.804 279.02 350.297 278.844 356.651C277.138 353.746 273.51 348.765 272.647 352.085C271.783 355.405 275.421 364.13 277.349 368.077C275.182 365.052 270.488 360.385 269.049 365.919C267.609 371.452 279.883 381.044 286.2 385.149C282.069 382.105 273.519 377.124 272.367 381.551C271.216 385.977 280.795 394.574 285.729 398.318C282.741 396.557 276.477 394.14 275.326 398.566C274.175 402.993 283.514 412.511 288.328 416.717C285.46 414.494 279.508 410.879 278.645 414.199C277.781 417.519 288.265 430.208 293.615 436.138M307.705 444.426C303.172 441.79 298.46 439.021 293.615 436.138M293.615 436.138C289.856 433.902 286.017 431.597 282.118 429.235M247.808 407.833C252.583 400.834 260.269 387.181 252.82 388.563C243.51 390.291 265.147 375.242 255.104 374.107C245.061 372.971 264.235 361.713 253.832 361.961C243.429 362.209 258.814 348.487 251.897 346.688C244.98 344.889 252.672 338.029 247.139 336.589C241.606 335.15 247.611 323.42 242.741 325.107C237.872 326.794 232.227 337.141 237.344 345.857C242.462 354.573 229.82 335.038 228.684 345.081C227.711 353.69 237.952 354.876 236.873 359.026C234.005 356.804 228.329 353.26 228.573 356.868C228.876 361.377 231.947 366.607 239.887 370.149C247.827 373.691 223.287 365.831 232.915 374.243C240.617 380.972 241.822 385.421 241.463 386.805C238.152 382.497 231.52 375.062 231.475 379.776C231.431 384.491 242.345 400.445 247.808 407.833ZM247.808 407.833C259.401 415.288 271.001 422.498 282.118 429.235M247.808 407.833C243.167 404.849 238.526 401.825 233.918 398.776M282.118 429.235C281.891 435.788 280.534 448.954 276.926 449.197C273.318 449.44 273.376 445.812 273.855 443.968C272.997 449.16 270.595 458.775 267.85 455.698C265.106 452.621 265.582 451.17 266.163 450.829C264.964 455.44 262.084 464.241 260.158 462.559C258.233 460.877 257.549 457.449 257.448 455.946C256.469 461.599 254.104 472.209 252.466 469.42C250.829 466.631 249.054 463.609 248.372 462.447C248.556 467.418 247.469 477.277 241.648 476.944C235.827 476.611 237.655 471.475 239.297 468.948C236.815 474.702 231.167 485.442 228.422 482.365C225.678 479.289 228.276 473.466 229.917 470.939C227.012 472.645 221.634 474.397 223.361 467.757C225.088 461.117 232.455 459.291 235.922 459.209C232.215 460.214 225.016 461.393 225.879 458.074C226.743 454.754 238.985 453.113 244.998 452.708C239.787 453.814 229.725 454.643 231.164 449.11C232.604 443.577 244.03 445.072 249.563 446.511C244.371 445.653 235.105 443.046 239.576 439.483C244.048 435.919 255.31 437.667 260.382 438.987C254.969 437.086 245.188 432.671 249.371 430.215C253.555 427.759 262.166 428.343 265.948 428.942C267.36 427.3 272.57 425.061 282.118 429.235ZM233.918 398.776C231.54 404.132 225.402 414.483 219.869 413.044C214.335 411.604 217.257 409.835 219.41 409.13C218.091 414.202 214.213 423.433 209.255 419.781C204.297 416.128 207.227 414.33 209.311 413.888C206.949 419.181 201.612 428.722 199.156 424.538C196.7 420.355 197.487 417.705 198.188 416.902C197.791 422.214 195.686 432.202 190.44 429.656C185.195 427.11 187.61 423.504 189.473 422.02C186.309 426.612 179.5 435.377 177.575 433.694C175.649 432.012 178.882 426.65 180.739 424.179C177.821 428.835 171.228 437.656 168.196 435.685C165.163 433.715 168.611 428.409 170.714 426.002C165.706 430.115 155.28 437.643 153.643 434.854C152.005 432.065 161.372 424.065 166.26 420.413C162.073 423.262 154.058 427.578 155.498 422.044C156.937 416.511 169.323 414.317 175.336 413.912C170.271 414.456 160.763 414.294 163.246 409.29C165.729 404.287 178.341 407.909 184.337 410.346C178.127 408.731 167.584 405.102 175.088 403.509C182.591 401.916 188.702 404.165 190.819 405.488C186.516 403.104 180.267 398.358 189.696 398.448C199.125 398.537 203.769 401.123 204.913 402.405C199.591 400.155 190.205 395.356 195.242 394.161C200.279 392.965 207.754 395.268 210.862 396.568C203.039 394.469 190.334 390.317 202.102 390.501C213.869 390.685 228.216 396.095 233.918 398.776Z" stroke="#698F40" stroke-width="1.49785"/>
<path d="M322.224 20.7306C348.644 9.1871 350.92 71.2384 348.755 103.707C368.618 82.5815 413.253 46.0067 432.895 68.7119C452.537 91.417 396.926 135.91 366.665 155.318C405.883 154.387 480.067 162.114 463.066 200.476C446.065 238.837 383.58 201.619 350.893 188.503C373.122 219.151 417.548 287.792 386.047 302.844C329.289 329.962 337.607 234.963 319.031 194.469C316.535 225.168 319.872 289.952 285.488 294.192C251.105 298.432 282.684 220.514 282.525 190.312C263.269 219.569 219.251 269.219 197.222 233.769C175.193 198.319 226.442 169.668 254.82 159.773C224.509 154.456 167.971 139.21 184.304 120.761C200.637 102.312 237.02 113.638 253.169 121.607C238.074 99.6986 190.987 68.3915 219.666 45.4318C248.346 22.4721 286.258 73.2696 301.628 101.538C302.961 79.3026 295.803 32.2741 322.224 20.7306Z" fill="#EAEAEA"/>
<path d="M332.817 150.661C345.562 148.274 346.534 155.421 345.427 159.293C345.039 162.114 341.608 168.253 330.988 170.242C317.712 172.728 316.886 153.644 332.817 150.661Z" fill="#73628A"/>
<path d="M325.498 138.291C330.842 137.29 331.451 141.364 331.088 143.526C331.001 145.113 329.714 148.495 325.261 149.329C319.694 150.371 318.818 139.542 325.498 138.291Z" fill="#73628A"/>
<path d="M317.199 157.326C312.171 159.394 310.744 155.53 310.66 153.339C310.422 151.768 310.993 148.195 315.183 146.471C320.42 144.317 323.484 154.74 317.199 157.326Z" fill="#73628A"/>
<path d="M308.021 139.102C304.728 134.775 308.095 132.402 310.19 131.757C311.647 131.123 315.247 130.755 317.991 134.361C321.421 138.867 312.136 144.51 308.021 139.102Z" fill="#73628A"/>
<path d="M289.842 136.798C285.003 130.439 289.952 126.952 293.031 126.003C295.173 125.071 300.464 124.531 304.497 129.83C309.537 136.453 295.892 144.746 289.842 136.798Z" fill="#73628A"/>
<path d="M309.402 148.644C310.077 154.039 305.973 154.399 303.837 153.905C302.259 153.722 298.961 152.231 298.4 147.736C297.697 142.116 308.56 141.9 309.402 148.644Z" fill="#73628A"/>
</svg>
