<svg width="36" height="37" viewBox="0 0 36 37" fill="none" xmlns="http://www.w3.org/2000/svg">
<path d="M16.8907 6.98889L17.4065 0C17.4753 2.50093 17.6747 7.48222 17.9223 7.4C18.2318 7.29722 21.5329 2.67222 23.0803 0.102778C22.2894 2.46667 20.7695 7.215 21.0171 7.29722C21.2647 7.37944 23.2522 5.41296 24.2151 4.41944C23.5961 5.61852 22.4407 8.01667 22.7708 8.01667C23.1009 8.01667 24.9716 5.55 25.8656 4.31667C25.1091 5.96111 23.8024 9.22944 24.6277 9.14722C25.453 9.065 28.9604 5.89259 30.611 4.31667C28.9948 6.37222 25.845 10.5244 26.1751 10.6889C26.5052 10.8533 30.0264 8.56481 31.7457 7.4C30.1983 8.66759 27.1861 11.2233 27.5162 11.3056C27.8463 11.3878 31.0924 10.4491 32.6742 9.96944C30.9892 10.8602 27.7225 12.6828 28.1351 12.8472C28.5478 13.0117 32.571 12.8472 34.531 12.7444C32.1927 13.3954 27.5574 14.7589 27.7225 15.0056C27.8875 15.2522 32.7429 16.1361 35.15 16.5472C32.8461 16.513 28.2796 16.65 28.4446 17.4722C28.6922 17.7189 31.1612 18.0546 32.3647 18.1917C31.1268 18.1574 28.6716 18.1506 28.7541 18.3972C28.8366 18.6439 32.5022 19.9389 34.3247 20.5556C31.8833 19.9731 27.1448 19.0344 27.7225 19.9389C28.3002 20.8433 32.5022 22.8509 34.531 23.7417C32.3303 23.0222 27.9701 21.6861 28.1351 22.0972C28.3002 22.5083 30.7485 24.6667 31.952 25.6944C30.4734 24.7694 27.4543 23.0017 27.2067 23.3306C26.9591 23.6594 29.5794 26.825 30.9204 28.3667C29.373 26.9278 26.1338 24.1117 25.5561 24.3583C24.9784 24.605 27.4474 27.2704 28.7541 28.5722C27.6537 27.5444 25.3911 25.5094 25.1435 25.5917C24.8959 25.6739 28.0664 30.0796 29.6825 32.2722C27.86 30.0796 24.1738 25.9617 24.0087 27.0306C23.8861 27.8248 24.2874 28.7438 24.6711 29.3745C24.8068 29.5649 24.9316 29.7459 25.0403 29.9083C24.9343 29.7763 24.8037 29.5926 24.6711 29.3745C23.7763 28.1198 22.407 26.4594 22.0487 27.0306C21.6361 27.6883 23.0459 32.375 23.8024 34.6361C22.6677 31.6898 20.1918 25.9206 19.3665 26.4139C18.5413 26.9072 18.3349 30.1824 18.3349 31.7583C18.2662 29.7713 17.9842 25.8383 17.4065 26.0028C16.1686 26.3317 14.4836 33.4713 13.7959 37C14.4149 33.5398 15.4465 26.7222 14.6212 27.1333C13.7959 27.5444 12.6268 31.0046 12.1453 32.6833C12.6955 30.7306 13.7134 26.7428 13.3833 26.4139C13.0917 26.1234 12.5642 27.3614 12.2554 28.2446C12.2171 28.3619 12.18 28.4721 12.1453 28.5722C12.1775 28.4721 12.2145 28.3615 12.2554 28.2446C12.5969 27.1984 13.0322 25.5917 12.6611 25.5917C12.2485 25.5917 9.73828 29.0861 8.53474 30.8333C9.84144 28.538 12.2485 23.9883 11.4232 24.1528C10.5979 24.5639 8.1221 27.4074 6.98734 28.7778C8.53474 26.7565 11.3407 22.8372 10.1853 23.3306C9.02991 23.8239 5.09608 26.0028 3.27359 27.0306C5.33679 25.3519 9.05054 21.9533 7.39998 21.7889C5.74943 21.6244 2.44831 22.7481 1.00407 23.3306C3.17043 22.2343 7.35872 19.9183 6.78102 19.425C6.20333 19.2606 4.68344 19.4935 3.99571 19.6306C5.16485 19.3222 7.27619 18.6439 6.36839 18.3972C5.46058 18.1506 2.27638 18.5 0.79775 18.7056C3.72061 18.0546 8.80296 16.6911 5.74943 16.4444C2.69589 16.1978 0.763363 15.862 0.17879 15.725C4.2708 15.8278 11.1137 15.6222 5.74943 13.9778C0.38511 12.3333 -0.268236 11.9907 0.0756301 12.025C3.99568 12.6417 10.5979 13.9264 7.19359 11.9222C3.56236 9.78444 2.92965 9.25 3.06719 9.25C4.68337 10.2093 7.99824 12.025 8.32835 11.6139C8.65846 11.2028 7.43435 9.52407 6.78102 8.73611C7.46873 9.55833 8.96794 11.1 9.46311 10.6889C9.90143 10.325 7.78549 8.05513 6.29215 6.58824C6.09734 6.40119 5.91425 6.22419 5.74943 6.06389C5.91524 6.22122 6.09846 6.39797 6.29215 6.58824C7.80427 8.04017 10.022 10.0981 9.87575 9.66111C9.71069 9.16778 9.11924 8.1537 8.84415 7.70833C9.32556 8.25648 10.2678 9.18833 10.1852 8.53056C10.1027 7.87278 8.7066 6.13241 8.01887 5.34444C9.42872 6.88611 12.3103 9.82556 12.5579 9.25C12.8055 8.67444 11.0793 5.58426 10.1852 4.11111C11.2512 5.61852 13.4657 8.57167 13.7958 8.325C14.1259 8.07833 12.9018 4.24815 12.2484 2.36389C12.9705 4.24815 14.4767 7.955 14.7243 7.70833C14.9718 7.46167 14.346 2.9463 14.0021 0.719444C14.7931 2.98056 16.4781 7.4 16.8907 6.98889Z" fill="#CBC5EA"/>
</svg>
