<svg width="57" height="60" viewBox="0 0 57 60" fill="none" xmlns="http://www.w3.org/2000/svg">
<path d="M27.3903 11.3333L28.2268 0C28.3383 4.05556 28.6617 12.1333 29.0632 12C29.565 11.8333 34.9182 4.33333 37.4275 0.166667C36.145 4 33.6803 11.7 34.0818 11.8333C34.4833 11.9667 37.7063 8.77778 39.2677 7.16667C38.2639 9.11111 36.3903 13 36.9256 13C37.461 13 40.4944 9 41.9442 7C40.7175 9.66667 38.5985 14.9667 39.9368 14.8333C41.2751 14.7 46.9628 9.55556 49.6394 7C47.0186 10.3333 41.9108 17.0667 42.4461 17.3333C42.9814 17.6 48.6914 13.8889 51.4796 12C48.9703 14.0556 44.0855 18.2 44.6208 18.3333C45.1561 18.4667 50.4201 16.9444 52.9851 16.1667C50.2528 17.6111 44.9554 20.5667 45.6245 20.8333C46.2937 21.1 52.8178 20.8333 55.9963 20.6667C52.2045 21.7222 44.6877 23.9333 44.9554 24.3333C45.223 24.7333 53.0967 26.1667 57 26.8333C53.2639 26.7778 45.8587 27 46.1264 28.3333C46.5279 28.7333 50.5316 29.2778 52.4833 29.5C50.4758 29.4444 46.4944 29.4333 46.6282 29.8333C46.7621 30.2333 52.7063 32.3333 55.6617 33.3333C51.7026 32.3889 44.0186 30.8667 44.9554 32.3333C45.8922 33.8 52.7063 37.0556 55.9963 38.5C52.4275 37.3333 45.3569 35.1667 45.6245 35.8333C45.8922 36.5 49.8624 40 51.8141 41.6667C49.4164 40.1667 44.5204 37.3 44.119 37.8333C43.7175 38.3667 47.9665 43.5 50.1413 46C47.632 43.6667 42.3792 39.1 41.4424 39.5C40.5056 39.9 44.5093 44.2222 46.6282 46.3333C44.8439 44.6667 41.1747 41.3667 40.7732 41.5C40.3717 41.6333 45.513 48.7778 48.1338 52.3333C45.1784 48.7778 39.2007 42.1 38.9331 43.8333C38.7342 45.1212 39.385 46.6115 40.0071 47.6343C40.2272 47.943 40.4296 48.2365 40.6059 48.5C40.434 48.2858 40.2222 47.988 40.0071 47.6343C38.5561 45.5997 36.3356 42.9072 35.7546 43.8333C35.0855 44.9 37.3717 52.5 38.5985 56.1667C36.7584 51.3889 32.7435 42.0333 31.4052 42.8333C30.0669 43.6333 29.7323 48.9444 29.7323 51.5C29.6208 48.2778 29.1636 41.9 28.2268 42.1667C26.2193 42.7 23.487 54.2778 22.3717 60C23.3754 54.3889 25.0483 43.3333 23.71 44C22.3717 44.6667 20.4758 50.2778 19.6951 53C20.5873 49.8333 22.2379 43.3667 21.7026 42.8333C21.2298 42.3623 20.3743 44.3699 19.8735 45.8022C19.8115 45.9923 19.7513 46.171 19.6951 46.3333C19.7473 46.1711 19.8073 45.9917 19.8735 45.8022C20.4274 44.1056 21.1333 41.5 20.5316 41.5C19.8624 41.5 15.7918 47.1667 13.8401 50C15.9591 46.2778 19.8624 38.9 18.5241 39.1667C17.1859 39.8333 13.171 44.4444 11.3308 46.6667C13.8401 43.3889 18.3903 37.0333 16.5167 37.8333C14.6431 38.6333 8.26391 42.1667 5.30852 43.8333C8.65425 41.1111 14.6766 35.6 12 35.3333C9.32339 35.0667 3.97023 36.8889 1.62822 37.8333C5.14123 36.0556 11.9331 32.3 10.9963 31.5C10.0595 31.2333 7.59477 31.6111 6.47953 31.8333C8.37544 31.3333 11.7992 30.2333 10.3271 29.8333C8.85499 29.4333 3.69142 30 1.29365 30.3333C6.03343 29.2778 14.2751 27.0667 9.32339 26.6667C4.37172 26.2667 1.23789 25.7222 0.28993 25.5C6.92562 25.6667 18.0223 25.3333 9.32339 22.6667C0.624503 20 -0.434978 19.4444 0.122643 19.5C6.47949 20.5 17.1857 22.5833 11.6653 19.3333C5.7768 15.8667 4.75078 15 4.97383 15C7.59465 16.5556 12.9701 19.5 13.5054 18.8333C14.0407 18.1667 12.0557 15.4444 10.9963 14.1667C12.1115 15.5 14.5426 18 15.3456 17.3333C16.0564 16.7432 12.6251 13.0624 10.2035 10.6836C9.88758 10.3803 9.59067 10.0933 9.32339 9.83333C9.59228 10.0885 9.88938 10.3751 10.2035 10.6836C12.6556 13.0381 16.2518 16.3754 16.0147 15.6667C15.7471 14.8667 14.788 13.2222 14.3419 12.5C15.1225 13.3889 16.6504 14.9 16.5166 13.8333C16.3828 12.7667 14.1188 9.94444 13.0036 8.66667C15.2898 11.1667 19.9627 15.9333 20.3642 15C20.7657 14.0667 17.9664 9.05556 16.5166 6.66667C18.2452 9.11111 21.8363 13.9 22.3716 13.5C22.9069 13.1 20.9218 6.88889 19.8623 3.83333C21.0333 6.88889 23.4757 12.9 23.8772 12.5C24.2787 12.1 23.2638 4.77778 22.7062 1.16667C23.9888 4.83333 26.7213 12 27.3903 11.3333Z" fill="#73628A"/>
</svg>
