<svg width="230" height="379" viewBox="0 0 230 379" fill="none" xmlns="http://www.w3.org/2000/svg">
<path d="M97.5289 248.314C108.716 245.977 131.311 236.136 132.196 215.466C133.082 194.797 109.454 228.753 97.5289 248.314Z" fill="#698F40"/>
<path d="M100.996 277.372C91.0068 273.465 69.8665 261.355 65.2188 244.175C60.5711 226.995 87.1338 259.148 100.996 277.372Z" fill="#698F40"/>
<path d="M95.1015 175.049C94.5433 190.353 94.7616 218.205 97.5289 248.314M97.5289 248.314C108.716 245.977 131.311 236.136 132.196 215.466C133.082 194.797 109.454 228.753 97.5289 248.314ZM97.5289 248.314C98.4083 257.883 99.545 267.679 100.996 277.372M100.996 277.372C103.05 291.094 105.734 304.61 109.208 316.985C114.583 335.109 128.824 366.241 128.824 369.439M100.996 277.372C91.0068 273.465 69.8665 261.355 65.2188 244.175C60.5711 226.995 87.1338 259.148 100.996 277.372Z" stroke="#698F40" stroke-width="1.49785"/>
<path fill-rule="evenodd" clip-rule="evenodd" d="M57.7776 106.432C55.9307 104.861 54.1606 103.188 52.6786 101.268C42.7917 88.4648 33.79 68.2383 63.9949 71.7272C104.674 76.426 60.3709 52.8555 77.1673 45.9409C93.9638 39.0263 110.061 42.6716 110.04 77.641C110.019 112.61 126.931 56.8899 138.622 48.5749C150.053 40.4453 186.925 42.0257 172.355 88.9313C167.326 102.835 152.942 129.325 135.633 124.052C113.998 117.46 154.548 141.516 157.086 146.397C161.409 154.709 149.097 189.151 80.7278 169.721C75.9238 168.633 70.5681 161.995 82.926 144.226C86.0911 139.675 89.9503 131.187 84.4442 131.828C83.418 131.948 82.1453 132.318 80.5769 133.02C70.5334 137.515 53.2206 156.825 47.1667 131.096C42.3235 110.512 55.5433 109.83 62.7586 112.062C63.8304 112.471 64.0629 111.778 57.7776 106.432ZM99.9649 134.59C88.7436 134.583 81.6305 108.438 88.3941 88.5342C90.8242 77.8025 128.547 105.524 129.063 110.718C129.579 115.912 117.45 134.601 99.9649 134.59Z" fill="#EAEAEA"/>
<path d="M88.3941 88.5342C81.6305 108.438 88.7436 134.583 99.9649 134.59C117.45 134.601 129.579 115.912 129.063 110.718C128.547 105.524 90.8242 77.8025 88.3941 88.5342Z" fill="#73628A"/>
<path fill-rule="evenodd" clip-rule="evenodd" d="M59.3279 59.9523C69.8346 60.1185 61.3514 34.5748 72.1562 30.7035C85.6622 25.8644 96.3833 45.7793 120.986 11.8635C126.89 5.26415 141.523 -0.152209 155.299 26.8592C157.227 30.6413 159.204 34.7041 162.973 36.6583C167.062 38.7781 173.552 39.8422 184.678 37.004C203.42 34.3337 202.354 63.5707 187.248 80.4577C176.681 91.4153 161.189 117.316 183.754 133.256C202.558 146.54 168.971 188.575 129.365 184.119C124.056 183.481 115.377 184.111 123.128 191.732C132.422 200.871 70.0283 217.135 61.1313 180.242C60.3467 176.989 61.0235 172.307 57.7897 171.445C56.1468 171.007 53.5505 171.239 49.565 172.818C37.7903 177.485 13.5632 162.409 30.5423 139.741C31.5818 138.473 32.9724 129.01 24.8323 135.064C15.0602 142.332 -7.6964 106.826 42.8544 105.299C46.3743 105.532 51.1301 104.127 41.9941 96.6426C30.5741 87.2874 13.7988 59.2322 59.3279 59.9523ZM63.9949 71.7272C33.79 68.2383 42.7917 88.4648 52.6786 101.268C54.1606 103.188 55.9307 104.861 57.7776 106.432C64.0629 111.778 63.8304 112.471 62.7586 112.062C55.5433 109.83 42.3235 110.512 47.1667 131.096C53.2206 156.825 70.5334 137.515 80.5769 133.02C82.1453 132.318 83.418 131.948 84.4442 131.828C89.9503 131.187 86.0911 139.675 82.926 144.226C70.5681 161.995 75.9238 168.633 80.7278 169.721C149.097 189.151 161.409 154.709 157.086 146.397C154.548 141.516 113.998 117.46 135.633 124.052C152.942 129.325 167.326 102.835 172.355 88.9313C186.925 42.0257 150.053 40.4453 138.622 48.5749C126.931 56.8899 110.019 112.61 110.04 77.641C110.061 42.6716 93.9638 39.0263 77.1673 45.9409C60.3709 52.8555 104.674 76.426 63.9949 71.7272Z" fill="#CBC5EA"/>
<path d="M103.127 133.471C99.4317 137.335 93.3204 147.383 98.439 156.666" stroke="#73628A" stroke-width="1.49785"/>
<path d="M111.609 130.875L113.158 146.456" stroke="#73628A" stroke-width="1.49785"/>
<path d="M116.287 125.168C123.556 127.942 137.4 137.057 134.622 151.32" stroke="#73628A" stroke-width="1.49785"/>
<path d="M91.5342 122.38C86.5698 125.204 74.1141 130.056 64.0061 126.864" stroke="#73628A" stroke-width="1.49785"/>
<path d="M89.1134 115.631L71.9728 119.083" stroke="#73628A" stroke-width="1.49785"/>
<path d="M86.1766 103.68C78.6171 103.848 62.184 101.519 56.9277 90.8516" stroke="#73628A" stroke-width="1.49785"/>
<path d="M88.7819 94.6796C85.495 90.9268 77.5361 83.5588 71.9961 84.1094" stroke="#73628A" stroke-width="1.49785"/>
<path d="M97.0931 90.3573C98.6558 82.6257 100.121 64.5302 94.168 60.9258" stroke="#73628A" stroke-width="1.49785"/>
<path d="M125.125 108.553C134.243 106.481 152.62 100.226 153.18 91.778" stroke="#73628A" stroke-width="1.49785"/>
<path d="M140.502 72.3805C139.494 73.5386 138.144 75.7884 140.815 75.523C144.152 75.1913 142.21 70.6262 140.502 72.3805Z" fill="#73628A" stroke="#73628A" stroke-width="1.49785"/>
<path d="M93.7698 59.5406C92.7614 60.6987 91.412 62.9486 94.0822 62.6832C97.4199 62.3515 95.4773 57.7863 93.7698 59.5406Z" fill="#73628A" stroke="#73628A" stroke-width="1.49785"/>
<path d="M73.0518 83.1335C71.5633 82.7556 68.9467 82.5658 70.3878 84.8294C72.189 87.6589 75.3875 83.8663 73.0518 83.1335Z" fill="#73628A" stroke="#73628A" stroke-width="1.49785"/>
<path d="M54.4079 90.5105C55.752 91.2532 58.2351 92.0999 57.4146 89.545C56.3891 86.3514 52.334 89.2097 54.4079 90.5105Z" fill="#73628A" stroke="#73628A" stroke-width="1.49785"/>
<path d="M71.525 118.183C70.9244 119.597 70.3376 122.154 72.7945 121.075C75.8658 119.726 72.6056 115.987 71.525 118.183Z" fill="#73628A" stroke="#73628A" stroke-width="1.49785"/>
<path d="M62.3429 128.823C63.821 128.406 66.1825 127.264 63.8033 126.023C60.8293 124.471 59.9533 129.355 62.3429 128.823Z" fill="#73628A" stroke="#73628A" stroke-width="1.49785"/>
<path d="M95.8298 155.602C96.5719 156.946 98.2225 158.985 98.8889 156.386C99.7219 153.137 94.7675 153.396 95.8298 155.602Z" fill="#73628A" stroke="#73628A" stroke-width="1.49785"/>
<path d="M113.147 148.234C114.656 147.952 117.11 147.024 114.851 145.576C112.027 143.766 110.719 148.552 113.147 148.234Z" fill="#73628A" stroke="#73628A" stroke-width="1.49785"/>
<path d="M136.804 151.663C135.73 150.565 133.596 149.04 133.646 151.722C133.709 155.076 138.416 153.506 136.804 151.663Z" fill="#73628A" stroke="#73628A" stroke-width="1.49785"/>
<path d="M154.258 91.3305C154.639 89.8427 154.833 87.2265 152.567 88.6635C149.734 90.4598 153.521 93.665 154.258 91.3305Z" fill="#73628A" stroke="#73628A" stroke-width="1.49785"/>
<path d="M131.081 92.5082C132.067 93.6852 134.078 95.3696 134.233 92.6907C134.427 89.3422 129.615 90.5476 131.081 92.5082Z" fill="#73628A" stroke="#73628A" stroke-width="1.49785"/>
<path d="M117.17 98.8541C122.196 90.7784 133.978 74.4549 140.903 73.7667M121.149 103.704L132.236 92.1117" stroke="#73628A" stroke-width="1.49785"/>
</svg>
