<svg width="2133" height="1011" viewBox="0 0 2133 1011" fill="none" xmlns="http://www.w3.org/2000/svg">
<path d="M128.864 331.092C143.78 327.977 173.907 314.855 175.088 287.295C176.269 259.735 144.764 305.01 128.864 331.092Z" fill="#698F40"/>
<path d="M133.487 369.836C120.168 364.626 91.9811 348.479 85.7842 325.573C79.5873 302.667 115.004 345.538 133.487 369.836Z" fill="#698F40"/>
<path d="M125.628 233.406C124.884 253.81 125.175 290.947 128.864 331.092M128.864 331.092C143.78 327.977 173.907 314.855 175.088 287.295C176.269 259.735 144.764 305.01 128.864 331.092ZM128.864 331.092C130.037 343.85 131.553 356.911 133.487 369.836M133.487 369.836C136.226 388.131 139.804 406.153 144.437 422.653C151.604 446.819 170.591 488.327 170.591 492.592M133.487 369.836C120.168 364.626 91.9811 348.479 85.7842 325.573C79.5873 302.667 115.004 345.538 133.487 369.836Z" stroke="#698F40" stroke-width="1.99713"/>
<path fill-rule="evenodd" clip-rule="evenodd" d="M75.8617 141.914C73.3992 139.819 71.039 137.589 69.0631 135.03C55.8805 117.958 43.8782 90.9896 84.1514 95.6415C138.391 101.907 79.3194 70.4792 101.715 61.2597C124.11 52.0403 145.573 56.9007 145.545 103.527C145.517 150.153 168.066 75.8584 183.654 64.7717C198.895 53.9323 248.059 56.0395 228.632 118.58C221.927 137.119 202.747 172.438 179.669 165.407C150.822 156.619 204.888 188.693 208.273 195.201C214.037 206.284 197.621 252.207 106.462 226.3C100.057 224.849 92.9157 215.998 109.393 192.307C113.613 186.239 118.759 174.922 111.417 175.776C110.049 175.936 108.352 176.43 106.261 177.366C92.8695 183.359 69.7857 209.106 61.7138 174.8C55.2562 147.355 72.8827 146.446 82.5031 149.422C83.9321 149.967 84.2421 149.043 75.8617 141.914ZM132.111 179.459C117.15 179.45 107.666 144.59 116.684 118.051C119.924 103.742 170.221 140.704 170.909 147.629C171.597 154.554 155.424 179.473 132.111 179.459Z" fill="#EAEAEA"/>
<path d="M116.684 118.051C107.666 144.59 117.15 179.45 132.111 179.459C155.424 179.473 171.597 154.554 170.909 147.629C170.221 140.704 119.924 103.742 116.684 118.051Z" fill="#73628A"/>
<path fill-rule="evenodd" clip-rule="evenodd" d="M77.9288 79.9417C91.9377 80.1633 80.6268 46.1049 95.0332 40.9432C113.041 34.4911 127.336 61.0443 160.14 15.8231C168.011 7.02406 187.522 -0.197746 205.89 35.8175C208.461 40.8603 211.097 46.2773 216.123 48.8829C221.574 51.7094 230.227 53.1282 245.062 49.3439C270.051 45.7835 268.63 84.7662 248.489 107.282C234.4 121.892 213.744 156.426 243.83 177.68C268.902 195.391 224.119 251.438 171.311 245.497C164.233 244.647 152.661 245.486 162.995 255.649C175.387 267.834 92.196 289.519 80.3333 240.328C79.2872 235.99 80.1895 229.748 75.8779 228.599C73.6873 228.015 70.2256 228.323 64.9116 230.43C49.2119 236.652 16.9091 216.551 39.5479 186.327C40.9339 184.635 42.7881 172.018 31.9346 180.09C18.9051 189.781 -11.437 142.44 55.9641 140.404C60.6573 140.714 66.9983 138.841 54.817 128.862C39.5903 116.388 17.2233 78.9814 77.9288 79.9417ZM84.1514 95.6415C43.8782 90.9896 55.8805 117.958 69.0631 135.03C71.039 137.589 73.3992 139.819 75.8617 141.914C84.2421 149.043 83.9321 149.967 82.5031 149.422C72.8827 146.446 55.2562 147.355 61.7138 174.8C69.7857 209.106 92.8695 183.359 106.261 177.366C108.352 176.43 110.049 175.936 111.417 175.776C118.759 174.922 113.613 186.239 109.393 192.307C92.9157 215.998 100.057 224.849 106.462 226.3C197.621 252.207 214.037 206.284 208.273 195.201C204.888 188.693 150.822 156.619 179.669 165.407C202.747 172.438 221.927 137.119 228.632 118.58C248.059 56.0395 198.895 53.9323 183.654 64.7717C168.066 75.8584 145.517 150.153 145.545 103.527C145.573 56.9007 124.11 52.0403 101.715 61.2597C79.3194 70.4792 138.391 101.907 84.1514 95.6415Z" fill="#CBC5EA"/>
<path d="M136.326 177.965C131.399 183.117 123.25 196.515 130.075 208.891" stroke="#73628A" stroke-width="1.99713"/>
<path d="M147.638 174.504L149.702 195.279" stroke="#73628A" stroke-width="1.99713"/>
<path d="M153.875 166.898C163.567 170.597 182.026 182.75 178.321 201.767" stroke="#73628A" stroke-width="1.99713"/>
<path d="M120.871 163.181C114.252 166.947 97.6443 173.415 84.1669 169.16" stroke="#73628A" stroke-width="1.99713"/>
<path d="M117.643 154.182L94.789 158.785" stroke="#73628A" stroke-width="1.99713"/>
<path d="M113.728 138.245C103.649 138.47 81.7378 135.363 74.7295 121.141" stroke="#73628A" stroke-width="1.99713"/>
<path d="M117.199 126.246C112.817 121.242 102.205 111.418 94.8184 112.152" stroke="#73628A" stroke-width="1.99713"/>
<path d="M128.283 120.484C130.367 110.175 132.32 86.0481 124.383 81.2422" stroke="#73628A" stroke-width="1.99713"/>
<path d="M165.658 144.748C177.816 141.986 202.319 133.645 203.064 122.381" stroke="#73628A" stroke-width="1.99713"/>
<path d="M186.162 96.5125C184.817 98.0566 183.018 101.056 186.578 100.703C191.028 100.26 188.438 94.1734 186.162 96.5125Z" fill="#73628A" stroke="#73628A" stroke-width="1.99713"/>
<path d="M123.852 79.3914C122.507 80.9355 120.708 83.9353 124.268 83.5815C128.719 83.1392 126.129 77.0524 123.852 79.3914Z" fill="#73628A" stroke="#73628A" stroke-width="1.99713"/>
<path d="M96.2275 110.846C94.243 110.342 90.7541 110.089 92.6755 113.107C95.0773 116.88 99.3419 111.823 96.2275 110.846Z" fill="#73628A" stroke="#73628A" stroke-width="1.99713"/>
<path d="M71.3696 120.683C73.1618 121.674 76.4726 122.802 75.3787 119.396C74.0113 115.138 68.6045 118.949 71.3696 120.683Z" fill="#73628A" stroke="#73628A" stroke-width="1.99713"/>
<path d="M94.1902 157.579C93.3895 159.463 92.607 162.873 95.883 161.434C99.9779 159.636 95.6311 154.65 94.1902 157.579Z" fill="#73628A" stroke="#73628A" stroke-width="1.99713"/>
<path d="M81.9477 171.769C83.9186 171.214 87.0672 169.69 83.895 168.035C79.9297 165.967 78.7617 172.478 81.9477 171.769Z" fill="#73628A" stroke="#73628A" stroke-width="1.99713"/>
<path d="M126.597 207.474C127.587 209.267 129.788 211.986 130.676 208.52C131.787 204.188 125.181 204.533 126.597 207.474Z" fill="#73628A" stroke="#73628A" stroke-width="1.99713"/>
<path d="M149.687 197.647C151.7 197.27 154.972 196.033 151.959 194.102C148.194 191.689 146.451 198.07 149.687 197.647Z" fill="#73628A" stroke="#73628A" stroke-width="1.99713"/>
<path d="M181.23 202.225C179.799 200.761 176.953 198.727 177.021 202.304C177.104 206.776 183.379 204.682 181.23 202.225Z" fill="#73628A" stroke="#73628A" stroke-width="1.99713"/>
<path d="M204.502 121.778C205.01 119.794 205.269 116.306 202.247 118.222C198.471 120.617 203.52 124.891 204.502 121.778Z" fill="#73628A" stroke="#73628A" stroke-width="1.99713"/>
<path d="M173.6 123.349C174.915 124.919 177.597 127.165 177.804 123.593C178.062 119.128 171.645 120.735 173.6 123.349Z" fill="#73628A" stroke="#73628A" stroke-width="1.99713"/>
<path d="M155 132.484C161.7 121.717 177.462 99.281 186.696 98.3633M160.358 138.279L175.14 122.823" stroke="#73628A" stroke-width="1.99713"/>
<path d="M433.497 331.092C448.413 327.977 478.539 314.855 479.721 287.295C480.902 259.735 449.397 305.01 433.497 331.092Z" fill="#698F40"/>
<path d="M438.12 369.836C424.801 364.626 396.614 348.479 390.417 325.573C384.22 302.667 419.637 345.538 438.12 369.836Z" fill="#698F40"/>
<path d="M430.261 233.406C429.516 253.81 429.808 290.947 433.497 331.092M433.497 331.092C448.413 327.977 478.539 314.855 479.721 287.295C480.902 259.735 449.397 305.01 433.497 331.092ZM433.497 331.092C434.67 343.85 436.185 356.911 438.12 369.836M438.12 369.836C440.859 388.131 444.437 406.153 449.07 422.653C456.237 446.819 475.224 488.327 475.224 492.592M438.12 369.836C424.801 364.626 396.614 348.479 390.417 325.573C384.22 302.667 419.637 345.538 438.12 369.836Z" stroke="#698F40" stroke-width="1.99713"/>
<path fill-rule="evenodd" clip-rule="evenodd" d="M380.495 141.914C378.032 139.819 375.672 137.589 373.696 135.03C360.513 117.958 348.511 90.9896 388.784 95.6415C443.023 101.907 383.952 70.4792 406.348 61.2597C428.743 52.0403 450.206 56.9007 450.178 103.527C450.15 150.153 472.698 75.8584 488.287 64.7717C503.528 53.9323 552.691 56.0395 533.265 118.58C526.559 137.119 507.38 172.438 484.302 165.407C455.455 156.619 509.521 188.693 512.906 195.201C518.67 206.284 502.253 252.207 411.095 226.3C404.689 224.849 397.548 215.998 414.026 192.307C418.246 186.239 423.391 174.922 416.05 175.776C414.682 175.936 412.985 176.43 410.894 177.366C397.502 183.359 374.419 209.106 366.347 174.8C359.889 147.355 377.515 146.446 387.136 149.422C388.565 149.967 388.875 149.043 380.495 141.914ZM436.744 179.459C421.783 179.45 412.298 144.59 421.316 118.051C424.557 103.742 474.853 140.704 475.542 147.629C476.23 154.554 460.057 179.473 436.744 179.459Z" fill="#EAEAEA"/>
<path d="M421.316 118.051C412.298 144.59 421.783 179.45 436.744 179.459C460.057 179.473 476.23 154.554 475.542 147.629C474.853 140.704 424.557 103.742 421.316 118.051Z" fill="#73628A"/>
<path fill-rule="evenodd" clip-rule="evenodd" d="M382.562 79.9417C396.571 80.1633 385.26 46.1049 399.666 40.9432C417.674 34.4911 431.969 61.0443 464.773 15.8231C472.644 7.02406 492.155 -0.197746 510.522 35.8175C513.094 40.8603 515.73 46.2773 520.755 48.8829C526.207 51.7094 534.86 53.1282 549.695 49.3439C574.684 45.7835 573.263 84.7662 553.122 107.282C539.033 121.892 518.377 156.426 548.463 177.68C573.535 195.391 528.752 251.438 475.944 245.497C468.866 244.647 457.294 245.486 467.628 255.649C480.02 267.834 396.829 289.519 384.966 240.328C383.92 235.99 384.822 229.748 380.511 228.599C378.32 228.015 374.858 228.323 369.544 230.43C353.845 236.652 321.542 216.551 344.181 186.327C345.567 184.635 347.421 172.018 336.567 180.09C323.538 189.781 293.196 142.44 360.597 140.404C365.29 140.714 371.631 138.841 359.45 128.862C344.223 116.388 321.856 78.9814 382.562 79.9417ZM388.784 95.6415C348.511 90.9896 360.513 117.958 373.696 135.03C375.672 137.589 378.032 139.819 380.495 141.914C388.875 149.043 388.565 149.967 387.136 149.422C377.515 146.446 359.889 147.355 366.347 174.8C374.419 209.106 397.502 183.359 410.894 177.366C412.985 176.43 414.682 175.936 416.05 175.776C423.391 174.922 418.246 186.239 414.026 192.307C397.548 215.998 404.689 224.849 411.095 226.3C502.253 252.207 518.67 206.284 512.906 195.201C509.521 188.693 455.455 156.619 484.302 165.407C507.38 172.438 526.559 137.119 533.265 118.58C552.691 56.0395 503.528 53.9323 488.287 64.7717C472.698 75.8584 450.15 150.153 450.178 103.527C450.206 56.9007 428.743 52.0403 406.348 61.2597C383.952 70.4792 443.023 101.907 388.784 95.6415Z" fill="#CBC5EA"/>
<path d="M440.958 177.965C436.031 183.117 427.31 196.624 434.134 209" stroke="#73628A" stroke-width="1.99713"/>
<path d="M452.271 174.504L454.635 195.5" stroke="#73628A" stroke-width="1.99713"/>
<path d="M458.508 166.898C468.2 170.597 487.339 182.983 483.635 202" stroke="#73628A" stroke-width="1.99713"/>
<path d="M425.504 163.179C418.885 166.945 402.112 172.755 388.635 168.5" stroke="#73628A" stroke-width="1.99713"/>
<path d="M422.275 154.181L399.634 159.5" stroke="#73628A" stroke-width="1.99713"/>
<path d="M418.361 138.245C408.281 138.47 386.643 135.223 379.635 121" stroke="#73628A" stroke-width="1.99713"/>
<path d="M421.832 126.246C417.45 121.242 406.521 111.266 399.135 112" stroke="#73628A" stroke-width="1.99713"/>
<path d="M432.916 120.484C434.999 110.175 436.572 86.8059 428.635 82" stroke="#73628A" stroke-width="1.99713"/>
<path d="M470.29 144.747C482.449 141.984 506.889 133.264 507.635 122.001" stroke="#73628A" stroke-width="1.99713"/>
<path d="M490.794 97.5125C489.45 99.0566 487.651 102.056 491.211 101.703C495.661 101.26 493.071 95.1734 490.794 97.5125Z" fill="#73628A" stroke="#73628A" stroke-width="1.99713"/>
<path d="M427.485 79.3914C426.14 80.9355 424.341 83.9353 427.901 83.5815C432.352 83.1392 429.761 77.0524 427.485 79.3914Z" fill="#73628A" stroke="#73628A" stroke-width="1.99713"/>
<path d="M400.86 109.846C398.876 109.342 395.387 109.089 397.308 112.107C399.71 115.88 403.975 110.823 400.86 109.846Z" fill="#73628A" stroke="#73628A" stroke-width="1.99713"/>
<path d="M377.002 120.683C378.795 121.674 382.105 122.802 381.012 119.396C379.644 115.138 374.237 118.949 377.002 120.683Z" fill="#73628A" stroke="#73628A" stroke-width="1.99713"/>
<path d="M397.823 157.575C397.022 159.459 396.24 162.869 399.516 161.43C403.611 159.632 399.264 154.646 397.823 157.575Z" fill="#73628A" stroke="#73628A" stroke-width="1.99713"/>
<path d="M386.581 170.769C388.551 170.214 391.7 168.69 388.528 167.035C384.562 164.967 383.394 171.478 386.581 170.769Z" fill="#73628A" stroke="#73628A" stroke-width="1.99713"/>
<path d="M431.541 207.685C432.53 209.478 434.731 212.197 435.619 208.731C436.73 204.399 430.124 204.744 431.541 207.685Z" fill="#73628A" stroke="#73628A" stroke-width="1.99713"/>
<path d="M454.32 198.647C456.333 198.27 459.604 197.033 456.592 195.102C452.827 192.689 451.084 199.07 454.32 198.647Z" fill="#73628A" stroke="#73628A" stroke-width="1.99713"/>
<path d="M484.863 202.225C483.432 200.761 480.586 198.727 480.653 202.304C480.737 206.776 487.012 204.682 484.863 202.225Z" fill="#73628A" stroke="#73628A" stroke-width="1.99713"/>
<path d="M509.135 120.778C509.643 118.794 509.902 115.306 506.88 117.222C503.103 119.617 508.153 123.891 509.135 120.778Z" fill="#73628A" stroke="#73628A" stroke-width="1.99713"/>
<path d="M479.233 123.349C480.548 124.919 483.23 127.165 483.436 123.593C483.695 119.128 477.278 120.735 479.233 123.349Z" fill="#73628A" stroke="#73628A" stroke-width="1.99713"/>
<path d="M459.134 133C465.835 122.232 481.902 99.9202 491.135 99.0025M464.991 138.279L480.135 123.001" stroke="#73628A" stroke-width="1.99713"/>
<path d="M738.13 331.092C753.046 327.977 783.172 314.855 784.353 287.295C785.535 259.735 754.03 305.01 738.13 331.092Z" fill="#698F40"/>
<path d="M742.753 369.836C729.434 364.626 701.247 348.479 695.05 325.573C688.853 302.667 724.27 345.538 742.753 369.836Z" fill="#698F40"/>
<path d="M734.894 233.406C734.149 253.81 734.44 290.947 738.13 331.092M738.13 331.092C753.046 327.977 783.172 314.855 784.353 287.295C785.535 259.735 754.03 305.01 738.13 331.092ZM738.13 331.092C739.302 343.85 740.818 356.911 742.753 369.836M742.753 369.836C745.492 388.131 749.07 406.153 753.702 422.653C760.869 446.819 779.857 488.327 779.857 492.592M742.753 369.836C729.434 364.626 701.247 348.479 695.05 325.573C688.853 302.667 724.27 345.538 742.753 369.836Z" stroke="#698F40" stroke-width="1.99713"/>
<path fill-rule="evenodd" clip-rule="evenodd" d="M685.127 141.914C682.665 139.819 680.305 137.589 678.329 135.03C665.146 117.958 653.144 90.9896 693.417 95.6415C747.656 101.907 688.585 70.4792 710.98 61.2597C733.376 52.0403 754.839 56.9007 754.811 103.527C754.783 150.153 777.331 75.8584 792.92 64.7717C808.161 53.9323 857.324 56.0395 837.897 118.58C831.192 137.119 812.013 172.438 788.935 165.407C760.087 156.619 814.154 188.693 817.539 195.201C823.302 206.284 806.886 252.207 715.728 226.3C709.322 224.849 702.181 215.998 718.659 192.307C722.879 186.239 728.024 174.922 720.683 175.776C719.315 175.936 717.618 176.43 715.526 177.366C702.135 183.359 679.051 209.106 670.979 174.8C664.522 147.355 682.148 146.446 691.769 149.422C693.198 149.967 693.508 149.043 685.127 141.914ZM741.377 179.459C726.415 179.45 716.931 144.59 725.949 118.051C729.189 103.742 779.486 140.704 780.174 147.629C780.863 154.554 764.69 179.473 741.377 179.459Z" fill="#EAEAEA"/>
<path d="M725.949 118.051C716.931 144.59 726.415 179.45 741.377 179.459C764.69 179.473 780.863 154.554 780.174 147.629C779.486 140.704 729.189 103.742 725.949 118.051Z" fill="#73628A"/>
<path fill-rule="evenodd" clip-rule="evenodd" d="M687.194 79.9417C701.203 80.1633 689.892 46.1049 704.299 40.9432C722.307 34.4911 736.602 61.0443 769.406 15.8231C777.277 7.02406 796.788 -0.197746 815.155 35.8175C817.727 40.8603 820.363 46.2773 825.388 48.8829C830.839 51.7094 839.493 53.1282 854.328 49.3439C879.317 45.7835 877.896 84.7662 857.755 107.282C843.666 121.892 823.01 156.426 853.096 177.68C878.168 195.391 833.385 251.438 780.577 245.497C773.499 244.647 761.926 245.486 772.261 255.649C784.653 267.834 701.462 289.519 689.599 240.328C688.553 235.99 689.455 229.748 685.143 228.599C682.953 228.015 679.491 228.323 674.177 230.43C658.478 236.652 626.175 216.551 648.814 186.327C650.2 184.635 652.054 172.018 641.2 180.09C628.171 189.781 597.829 142.44 665.23 140.404C669.923 140.714 676.264 138.841 664.083 128.862C648.856 116.388 626.489 78.9814 687.194 79.9417ZM693.417 95.6415C653.144 90.9896 665.146 117.958 678.329 135.03C680.305 137.589 682.665 139.819 685.127 141.914C693.508 149.043 693.198 149.967 691.769 149.422C682.148 146.446 664.522 147.355 670.979 174.8C679.051 209.106 702.135 183.359 715.526 177.366C717.618 176.43 719.315 175.936 720.683 175.776C728.024 174.922 722.879 186.239 718.659 192.307C702.181 215.998 709.322 224.849 715.728 226.3C806.886 252.207 823.302 206.284 817.539 195.201C814.154 188.693 760.087 156.619 788.935 165.407C812.013 172.438 831.192 137.119 837.897 118.58C857.324 56.0395 808.161 53.9323 792.92 64.7717C777.331 75.8584 754.783 150.153 754.811 103.527C754.839 56.9007 733.376 52.0403 710.98 61.2597C688.585 70.4792 747.656 101.907 693.417 95.6415Z" fill="#CBC5EA"/>
<path d="M745.592 177.965C740.664 183.117 731.268 196.953 738.768 209" stroke="#73628A" stroke-width="1.99713"/>
<path d="M756.903 174.504L759.768 195.453" stroke="#73628A" stroke-width="1.99713"/>
<path d="M763.141 166.898C772.833 170.597 791.472 182.936 787.768 201.953" stroke="#73628A" stroke-width="1.99713"/>
<path d="M730.137 163.179C723.517 166.945 706.768 173.453 693.268 168.5" stroke="#73628A" stroke-width="1.99713"/>
<path d="M726.908 154.18L704.268 159.953" stroke="#73628A" stroke-width="1.99713"/>
<path d="M722.994 138.245C712.914 138.47 690.268 134.953 684.268 121" stroke="#73628A" stroke-width="1.99713"/>
<path d="M726.465 126.245C722.083 121.241 712.267 110.952 703.768 111.999" stroke="#73628A" stroke-width="1.99713"/>
<path d="M737.549 120.484C739.632 110.175 740.705 87.759 732.768 82.9531" stroke="#73628A" stroke-width="1.99713"/>
<path d="M774.923 144.747C787.081 141.985 812.022 133.219 812.767 121.955" stroke="#73628A" stroke-width="1.99713"/>
<path d="M795.427 98.5125C794.083 100.057 792.283 103.056 795.844 102.703C800.294 102.26 797.704 96.1734 795.427 98.5125Z" fill="#73628A" stroke="#73628A" stroke-width="1.99713"/>
<path d="M732.118 80.3914C730.773 81.9355 728.974 84.9353 732.534 84.5815C736.984 84.1392 734.394 78.0524 732.118 80.3914Z" fill="#73628A" stroke="#73628A" stroke-width="1.99713"/>
<path d="M705.493 110.846C703.509 110.342 700.02 110.089 701.941 113.107C704.343 116.88 708.608 111.823 705.493 110.846Z" fill="#73628A" stroke="#73628A" stroke-width="1.99713"/>
<path d="M682.635 120.683C684.427 121.674 687.738 122.802 686.644 119.396C685.277 115.138 679.87 118.949 682.635 120.683Z" fill="#73628A" stroke="#73628A" stroke-width="1.99713"/>
<path d="M701.456 157.575C700.655 159.459 699.873 162.869 703.149 161.43C707.244 159.632 702.897 154.646 701.456 157.575Z" fill="#73628A" stroke="#73628A" stroke-width="1.99713"/>
<path d="M692.213 170.769C694.184 170.214 697.333 168.69 694.161 167.035C690.195 164.967 689.027 171.478 692.213 170.769Z" fill="#73628A" stroke="#73628A" stroke-width="1.99713"/>
<path d="M735.174 207.685C736.163 209.478 738.364 212.197 739.252 208.731C740.363 204.399 733.757 204.744 735.174 207.685Z" fill="#73628A" stroke="#73628A" stroke-width="1.99713"/>
<path d="M759.953 198.647C761.965 198.27 765.237 197.033 762.225 195.102C758.46 192.689 756.716 199.07 759.953 198.647Z" fill="#73628A" stroke="#73628A" stroke-width="1.99713"/>
<path d="M788.496 202.225C787.065 200.761 784.219 198.727 784.286 202.304C784.37 206.776 790.645 204.682 788.496 202.225Z" fill="#73628A" stroke="#73628A" stroke-width="1.99713"/>
<path d="M814.768 120.778C815.275 118.794 815.535 115.306 812.513 117.222C808.736 119.617 813.785 123.891 814.768 120.778Z" fill="#73628A" stroke="#73628A" stroke-width="1.99713"/>
<path d="M784.865 123.349C786.181 124.919 788.862 127.165 789.069 123.593C789.328 119.128 782.911 120.735 784.865 123.349Z" fill="#73628A" stroke="#73628A" stroke-width="1.99713"/>
<path d="M762.767 133.453C769.468 122.686 786.534 100.87 795.767 99.9519M769.623 138.277L785.267 123.452" stroke="#73628A" stroke-width="1.99713"/>
<path d="M1042.76 331.092C1057.68 327.977 1087.81 314.855 1088.99 287.295C1090.17 259.735 1058.66 305.01 1042.76 331.092Z" fill="#698F40"/>
<path d="M1047.39 369.836C1034.07 364.626 1005.88 348.479 999.683 325.573C993.486 302.667 1028.9 345.538 1047.39 369.836Z" fill="#698F40"/>
<path d="M1039.53 233.406C1038.78 253.81 1039.07 290.947 1042.76 331.092M1042.76 331.092C1057.68 327.977 1087.81 314.855 1088.99 287.295C1090.17 259.735 1058.66 305.01 1042.76 331.092ZM1042.76 331.092C1043.94 343.85 1045.45 356.911 1047.39 369.836M1047.39 369.836C1050.12 388.131 1053.7 406.153 1058.34 422.653C1065.5 446.819 1084.49 488.327 1084.49 492.592M1047.39 369.836C1034.07 364.626 1005.88 348.479 999.683 325.573C993.486 302.667 1028.9 345.538 1047.39 369.836Z" stroke="#698F40" stroke-width="1.99713"/>
<path fill-rule="evenodd" clip-rule="evenodd" d="M989.76 141.914C987.298 139.819 984.937 137.589 982.961 135.03C969.779 117.958 957.777 90.9896 998.05 95.6415C1052.29 101.907 993.218 70.4792 1015.61 61.2597C1038.01 52.0403 1059.47 56.9007 1059.44 103.527C1059.42 150.153 1081.96 75.8584 1097.55 64.7717C1112.79 53.9323 1161.96 56.0395 1142.53 118.58C1135.83 137.119 1116.65 172.438 1093.57 165.407C1064.72 156.619 1118.79 188.693 1122.17 195.201C1127.94 206.284 1111.52 252.207 1020.36 226.3C1013.96 224.849 1006.81 215.998 1023.29 192.307C1027.51 186.239 1032.66 174.922 1025.32 175.776C1023.95 175.936 1022.25 176.43 1020.16 177.366C1006.77 183.359 983.684 209.106 975.612 174.8C969.155 147.355 986.781 146.446 996.402 149.422C997.831 149.967 998.141 149.043 989.76 141.914ZM1046.01 179.459C1031.05 179.45 1021.56 144.59 1030.58 118.051C1033.82 103.742 1084.12 140.704 1084.81 147.629C1085.5 154.554 1069.32 179.473 1046.01 179.459Z" fill="#EAEAEA"/>
<path d="M1030.58 118.051C1021.56 144.59 1031.05 179.45 1046.01 179.459C1069.32 179.473 1085.5 154.554 1084.81 147.629C1084.12 140.704 1033.82 103.742 1030.58 118.051Z" fill="#73628A"/>
<path fill-rule="evenodd" clip-rule="evenodd" d="M991.827 79.9417C1005.84 80.1633 994.525 46.1049 1008.93 40.9432C1026.94 34.4911 1041.23 61.0443 1074.04 15.8231C1081.91 7.02406 1101.42 -0.197746 1119.79 35.8175C1122.36 40.8603 1125 46.2773 1130.02 48.8829C1135.47 51.7094 1144.13 53.1282 1158.96 49.3439C1183.95 45.7835 1182.53 84.7662 1162.39 107.282C1148.3 121.892 1127.64 156.426 1157.73 177.68C1182.8 195.391 1138.02 251.438 1085.21 245.497C1078.13 244.647 1066.56 245.486 1076.89 255.649C1089.29 267.834 1006.09 289.519 994.232 240.328C993.186 235.99 994.088 229.748 989.776 228.599C987.586 228.015 984.124 228.323 978.81 230.43C963.11 236.652 930.808 216.551 953.446 186.327C954.832 184.635 956.687 172.018 945.833 180.09C932.804 189.781 902.461 142.44 969.863 140.404C974.556 140.714 980.897 138.841 968.715 128.862C953.489 116.388 931.122 78.9814 991.827 79.9417ZM998.05 95.6415C957.777 90.9896 969.779 117.958 982.961 135.03C984.937 137.589 987.298 139.819 989.76 141.914C998.141 149.043 997.831 149.967 996.402 149.422C986.781 146.446 969.155 147.355 975.612 174.8C983.684 209.106 1006.77 183.359 1020.16 177.366C1022.25 176.43 1023.95 175.936 1025.32 175.776C1032.66 174.922 1027.51 186.239 1023.29 192.307C1006.81 215.998 1013.96 224.849 1020.36 226.3C1111.52 252.207 1127.94 206.284 1122.17 195.201C1118.79 188.693 1064.72 156.619 1093.57 165.407C1116.65 172.438 1135.83 137.119 1142.53 118.58C1161.96 56.0395 1112.79 53.9323 1097.55 64.7717C1081.96 75.8584 1059.42 150.153 1059.44 103.527C1059.47 56.9007 1038.01 52.0403 1015.61 61.2597C993.218 70.4792 1052.29 101.907 998.05 95.6415Z" fill="#CBC5EA"/>
<path d="M1050.22 177.966C1045.3 183.118 1034.9 197.453 1043.4 209.001" stroke="#73628A" stroke-width="1.99713"/>
<path d="M1061.54 174.504L1064.9 195.953" stroke="#73628A" stroke-width="1.99713"/>
<path d="M1067.77 166.898C1077.47 170.597 1095.9 183.953 1092.4 201.953" stroke="#73628A" stroke-width="1.99713"/>
<path d="M1034.77 163.179C1028.15 166.945 1011.4 174.453 997.9 168.5" stroke="#73628A" stroke-width="1.99713"/>
<path d="M1031.54 154.182L1008.9 160.953" stroke="#73628A" stroke-width="1.99713"/>
<path d="M1027.63 138.245C1017.55 138.47 993.9 135.453 988.9 121" stroke="#73628A" stroke-width="1.99713"/>
<path d="M1031.1 126.247C1026.72 121.243 1017.9 110.953 1008.4 112.001" stroke="#73628A" stroke-width="1.99713"/>
<path d="M1042.18 120.484C1044.27 110.175 1045.34 87.759 1037.4 82.9531" stroke="#73628A" stroke-width="1.99713"/>
<path d="M1079.56 144.747C1091.71 141.985 1117.9 132.453 1117.4 121.955" stroke="#73628A" stroke-width="1.99713"/>
<path d="M1100.06 99.5125C1098.72 101.057 1096.92 104.056 1100.48 103.703C1104.93 103.26 1102.34 97.1734 1100.06 99.5125Z" fill="#73628A" stroke="#73628A" stroke-width="1.99713"/>
<path d="M1036.75 80.3914C1035.41 81.9355 1033.61 84.9353 1037.17 84.5815C1041.62 84.1392 1039.03 78.0524 1036.75 80.3914Z" fill="#73628A" stroke="#73628A" stroke-width="1.99713"/>
<path d="M1009.13 110.846C1007.14 110.342 1003.65 110.089 1005.57 113.107C1007.98 116.88 1012.24 111.823 1009.13 110.846Z" fill="#73628A" stroke="#73628A" stroke-width="1.99713"/>
<path d="M987.268 121.683C989.06 122.674 992.371 123.802 991.277 120.396C989.91 116.138 984.503 119.949 987.268 121.683Z" fill="#73628A" stroke="#73628A" stroke-width="1.99713"/>
<path d="M1007.09 157.575C1006.29 159.459 1005.51 162.869 1008.78 161.43C1012.88 159.632 1008.53 154.646 1007.09 157.575Z" fill="#73628A" stroke="#73628A" stroke-width="1.99713"/>
<path d="M997.846 170.769C999.817 170.214 1002.97 168.69 999.793 167.035C995.828 164.967 994.66 171.478 997.846 170.769Z" fill="#73628A" stroke="#73628A" stroke-width="1.99713"/>
<path d="M1040.81 207.685C1041.8 209.478 1044 212.197 1044.89 208.731C1046 204.399 1039.39 204.744 1040.81 207.685Z" fill="#73628A" stroke="#73628A" stroke-width="1.99713"/>
<path d="M1065.59 198.647C1067.6 198.27 1070.87 197.033 1067.86 195.102C1064.09 192.689 1062.35 199.07 1065.59 198.647Z" fill="#73628A" stroke="#73628A" stroke-width="1.99713"/>
<path d="M1092.13 202.225C1090.7 200.761 1087.85 198.727 1087.92 202.304C1088 206.776 1094.28 204.682 1092.13 202.225Z" fill="#73628A" stroke="#73628A" stroke-width="1.99713"/>
<path d="M1118.4 120.778C1118.91 118.794 1119.17 115.306 1116.15 117.222C1112.37 119.617 1117.42 123.891 1118.4 120.778Z" fill="#73628A" stroke="#73628A" stroke-width="1.99713"/>
<path d="M1090.5 123.349C1091.81 124.919 1094.5 127.165 1094.7 123.593C1094.96 119.128 1088.54 120.735 1090.5 123.349Z" fill="#73628A" stroke="#73628A" stroke-width="1.99713"/>
<path d="M1068.4 132.453C1075.1 121.686 1090.9 99.9538 1100.4 99.9552M1074.26 138.28L1090.4 123.454" stroke="#73628A" stroke-width="1.99713"/>
<path d="M1347.4 331.092C1362.31 327.977 1392.44 314.855 1393.62 287.295C1394.8 259.735 1363.3 305.01 1347.4 331.092Z" fill="#698F40"/>
<path d="M1352.02 369.836C1338.7 364.626 1310.51 348.479 1304.32 325.573C1298.12 302.667 1333.54 345.538 1352.02 369.836Z" fill="#698F40"/>
<path d="M1344.16 233.406C1343.41 253.81 1343.71 290.947 1347.4 331.092M1347.4 331.092C1362.31 327.977 1392.44 314.855 1393.62 287.295C1394.8 259.735 1363.3 305.01 1347.4 331.092ZM1347.4 331.092C1348.57 343.85 1350.08 356.911 1352.02 369.836M1352.02 369.836C1354.76 388.131 1358.34 406.153 1362.97 422.653C1370.14 446.819 1389.12 488.327 1389.12 492.592M1352.02 369.836C1338.7 364.626 1310.51 348.479 1304.32 325.573C1298.12 302.667 1333.54 345.538 1352.02 369.836Z" stroke="#698F40" stroke-width="1.99713"/>
<path fill-rule="evenodd" clip-rule="evenodd" d="M1294.39 141.914C1291.93 139.819 1289.57 137.589 1287.59 135.03C1274.41 117.958 1262.41 90.9896 1302.68 95.6415C1356.92 101.907 1297.85 70.4792 1320.25 61.2597C1342.64 52.0403 1364.1 56.9007 1364.08 103.527C1364.05 150.153 1386.6 75.8584 1402.19 64.7717C1417.43 53.9323 1466.59 56.0395 1447.16 118.58C1440.46 137.119 1421.28 172.438 1398.2 165.407C1369.35 156.619 1423.42 188.693 1426.8 195.201C1432.57 206.284 1416.15 252.207 1324.99 226.3C1318.59 224.849 1311.45 215.998 1327.92 192.307C1332.14 186.239 1337.29 174.922 1329.95 175.776C1328.58 175.936 1326.88 176.43 1324.79 177.366C1311.4 183.359 1288.32 209.106 1280.25 174.8C1273.79 147.355 1291.41 146.446 1301.03 149.422C1302.46 149.967 1302.77 149.043 1294.39 141.914ZM1350.64 179.459C1335.68 179.45 1326.2 144.59 1335.21 118.051C1338.46 103.742 1388.75 140.704 1389.44 147.629C1390.13 154.554 1373.96 179.473 1350.64 179.459Z" fill="#EAEAEA"/>
<path d="M1335.21 118.051C1326.2 144.59 1335.68 179.45 1350.64 179.459C1373.96 179.473 1390.13 154.554 1389.44 147.629C1388.75 140.704 1338.46 103.742 1335.21 118.051Z" fill="#73628A"/>
<path fill-rule="evenodd" clip-rule="evenodd" d="M1296.46 79.9417C1310.47 80.1633 1299.16 46.1049 1313.56 40.9432C1331.57 34.4911 1345.87 61.0443 1378.67 15.8231C1386.54 7.02406 1406.05 -0.197746 1424.42 35.8175C1426.99 40.8603 1429.63 46.2773 1434.65 48.8829C1440.1 51.7094 1448.76 53.1282 1463.59 49.3439C1488.58 45.7835 1487.16 84.7662 1467.02 107.282C1452.93 121.892 1432.28 156.426 1462.36 177.68C1487.43 195.391 1442.65 251.438 1389.84 245.497C1382.76 244.647 1371.19 245.486 1381.53 255.649C1393.92 267.834 1310.73 289.519 1298.86 240.328C1297.82 235.99 1298.72 229.748 1294.41 228.599C1292.22 228.015 1288.76 228.323 1283.44 230.43C1267.74 236.652 1235.44 216.551 1258.08 186.327C1259.47 184.635 1261.32 172.018 1250.47 180.09C1237.44 189.781 1207.09 142.44 1274.5 140.404C1279.19 140.714 1285.53 138.841 1273.35 128.862C1258.12 116.388 1235.75 78.9814 1296.46 79.9417ZM1302.68 95.6415C1262.41 90.9896 1274.41 117.958 1287.59 135.03C1289.57 137.589 1291.93 139.819 1294.39 141.914C1302.77 149.043 1302.46 149.967 1301.03 149.422C1291.41 146.446 1273.79 147.355 1280.25 174.8C1288.32 209.106 1311.4 183.359 1324.79 177.366C1326.88 176.43 1328.58 175.936 1329.95 175.776C1337.29 174.922 1332.14 186.239 1327.92 192.307C1311.45 215.998 1318.59 224.849 1324.99 226.3C1416.15 252.207 1432.57 206.284 1426.8 195.201C1423.42 188.693 1369.35 156.619 1398.2 165.407C1421.28 172.438 1440.46 137.119 1447.16 118.58C1466.59 56.0395 1417.43 53.9323 1402.19 64.7717C1386.6 75.8584 1364.05 150.153 1364.08 103.527C1364.1 56.9007 1342.64 52.0403 1320.25 61.2597C1297.85 70.4792 1356.92 101.907 1302.68 95.6415Z" fill="#CBC5EA"/>
<path d="M1354.86 177.965C1349.93 183.117 1338.53 196.453 1348.03 209" stroke="#73628A" stroke-width="1.99713"/>
<path d="M1366.17 174.504L1370.53 195.953" stroke="#73628A" stroke-width="1.99713"/>
<path d="M1372.41 166.898C1382.1 170.597 1399.53 183.953 1397.03 201.953" stroke="#73628A" stroke-width="1.99713"/>
<path d="M1339.4 163.179C1332.78 166.945 1315.53 175.453 1302.53 168.5" stroke="#73628A" stroke-width="1.99713"/>
<path d="M1336.17 154.182L1312.53 160.453" stroke="#73628A" stroke-width="1.99713"/>
<path d="M1332.26 138.245C1322.18 138.47 1297.53 135.453 1293.53 121" stroke="#73628A" stroke-width="1.99713"/>
<path d="M1335.73 126.246C1331.35 121.242 1323.53 110.953 1313.03 112" stroke="#73628A" stroke-width="1.99713"/>
<path d="M1346.81 120.484C1348.9 110.175 1350.03 86.4531 1342.03 82.9531" stroke="#73628A" stroke-width="1.99713"/>
<path d="M1384.19 144.747C1396.35 141.985 1422.53 133.453 1422.03 121.955" stroke="#73628A" stroke-width="1.99713"/>
<path d="M1404.69 98.5125C1403.35 100.057 1401.55 103.056 1405.11 102.703C1409.56 102.26 1406.97 96.1734 1404.69 98.5125Z" fill="#73628A" stroke="#73628A" stroke-width="1.99713"/>
<path d="M1341.38 81.3914C1340.04 82.9355 1338.24 85.9353 1341.8 85.5815C1346.25 85.1392 1343.66 79.0524 1341.38 81.3914Z" fill="#73628A" stroke="#73628A" stroke-width="1.99713"/>
<path d="M1313.76 110.846C1311.77 110.342 1308.29 110.089 1310.21 113.107C1312.61 116.88 1316.87 111.823 1313.76 110.846Z" fill="#73628A" stroke="#73628A" stroke-width="1.99713"/>
<path d="M1291.9 121.683C1293.69 122.674 1297 123.802 1295.91 120.396C1294.54 116.138 1289.14 119.949 1291.9 121.683Z" fill="#73628A" stroke="#73628A" stroke-width="1.99713"/>
<path d="M1311.72 157.575C1310.92 159.459 1310.14 162.869 1313.41 161.43C1317.51 159.632 1313.16 154.646 1311.72 157.575Z" fill="#73628A" stroke="#73628A" stroke-width="1.99713"/>
<path d="M1302.48 170.769C1304.45 170.214 1307.6 168.69 1304.43 167.035C1300.46 164.967 1299.29 171.478 1302.48 170.769Z" fill="#73628A" stroke="#73628A" stroke-width="1.99713"/>
<path d="M1345.44 206.685C1346.43 208.478 1348.63 211.197 1349.52 207.731C1350.63 203.399 1344.02 203.744 1345.44 206.685Z" fill="#73628A" stroke="#73628A" stroke-width="1.99713"/>
<path d="M1371.22 198.647C1373.23 198.27 1376.5 197.033 1373.49 195.102C1369.73 192.689 1367.98 199.07 1371.22 198.647Z" fill="#73628A" stroke="#73628A" stroke-width="1.99713"/>
<path d="M1397.76 202.225C1396.33 200.761 1393.48 198.727 1393.55 202.304C1393.64 206.776 1399.91 204.682 1397.76 202.225Z" fill="#73628A" stroke="#73628A" stroke-width="1.99713"/>
<path d="M1423.03 120.778C1423.54 118.794 1423.8 115.306 1420.78 117.222C1417 119.617 1422.05 123.891 1423.03 120.778Z" fill="#73628A" stroke="#73628A" stroke-width="1.99713"/>
<path d="M1394.13 123.349C1395.45 124.919 1398.13 127.165 1398.33 123.593C1398.59 119.128 1392.18 120.735 1394.13 123.349Z" fill="#73628A" stroke="#73628A" stroke-width="1.99713"/>
<path d="M1373.03 132.453C1379.73 121.686 1394.53 99.9549 1405.03 99.954M1378.89 138.279L1395.53 123.954" stroke="#73628A" stroke-width="1.99713"/>
<path d="M1652.03 331.092C1666.94 327.977 1697.07 314.855 1698.25 287.295C1699.43 259.735 1667.93 305.01 1652.03 331.092Z" fill="#698F40"/>
<path d="M1656.65 369.836C1643.33 364.626 1615.15 348.479 1608.95 325.573C1602.75 302.667 1638.17 345.538 1656.65 369.836Z" fill="#698F40"/>
<path d="M1648.79 233.406C1648.05 253.81 1648.34 290.947 1652.03 331.092M1652.03 331.092C1666.94 327.977 1697.07 314.855 1698.25 287.295C1699.43 259.735 1667.93 305.01 1652.03 331.092ZM1652.03 331.092C1653.2 343.85 1654.72 356.911 1656.65 369.836M1656.65 369.836C1659.39 388.131 1662.97 406.153 1667.6 422.653C1674.77 446.819 1693.76 488.327 1693.76 492.592M1656.65 369.836C1643.33 364.626 1615.15 348.479 1608.95 325.573C1602.75 302.667 1638.17 345.538 1656.65 369.836Z" stroke="#698F40" stroke-width="1.99713"/>
<path fill-rule="evenodd" clip-rule="evenodd" d="M1599.03 141.914C1596.56 139.819 1594.2 137.589 1592.23 135.03C1579.04 117.958 1567.04 90.9896 1607.32 95.6415C1661.55 101.907 1602.48 70.4792 1624.88 61.2597C1647.27 52.0403 1668.74 56.9007 1668.71 103.527C1668.68 150.153 1691.23 75.8584 1706.82 64.7717C1722.06 53.9323 1771.22 56.0395 1751.8 118.58C1745.09 137.119 1725.91 172.438 1702.83 165.407C1673.99 156.619 1728.05 188.693 1731.44 195.201C1737.2 206.284 1720.78 252.207 1629.63 226.3C1623.22 224.849 1616.08 215.998 1632.56 192.307C1636.78 186.239 1641.92 174.922 1634.58 175.776C1633.21 175.936 1631.52 176.43 1629.42 177.366C1616.03 183.359 1592.95 209.106 1584.88 174.8C1578.42 147.355 1596.05 146.446 1605.67 149.422C1607.1 149.967 1607.41 149.043 1599.03 141.914ZM1655.28 179.459C1640.31 179.45 1630.83 144.59 1639.85 118.051C1643.09 103.742 1693.38 140.704 1694.07 147.629C1694.76 154.554 1678.59 179.473 1655.28 179.459Z" fill="#EAEAEA"/>
<path d="M1639.85 118.051C1630.83 144.59 1640.31 179.45 1655.28 179.459C1678.59 179.473 1694.76 154.554 1694.07 147.629C1693.38 140.704 1643.09 103.742 1639.85 118.051Z" fill="#73628A"/>
<path fill-rule="evenodd" clip-rule="evenodd" d="M1601.09 79.9417C1615.1 80.1633 1603.79 46.1049 1618.2 40.9432C1636.21 34.4911 1650.5 61.0443 1683.3 15.8231C1691.18 7.02406 1710.69 -0.197746 1729.05 35.8175C1731.63 40.8603 1734.26 46.2773 1739.29 48.8829C1744.74 51.7094 1753.39 53.1282 1768.23 49.3439C1793.22 45.7835 1791.79 84.7662 1771.65 107.282C1757.56 121.892 1736.91 156.426 1766.99 177.68C1792.07 195.391 1747.28 251.438 1694.48 245.497C1687.4 244.647 1675.82 245.486 1686.16 255.649C1698.55 267.834 1615.36 289.519 1603.5 240.328C1602.45 235.99 1603.35 229.748 1599.04 228.599C1596.85 228.015 1593.39 228.323 1588.08 230.43C1572.38 236.652 1540.07 216.551 1562.71 186.327C1564.1 184.635 1565.95 172.018 1555.1 180.09C1542.07 189.781 1511.73 142.44 1579.13 140.404C1583.82 140.714 1590.16 138.841 1577.98 128.862C1562.75 116.388 1540.39 78.9814 1601.09 79.9417ZM1607.32 95.6415C1567.04 90.9896 1579.04 117.958 1592.23 135.03C1594.2 137.589 1596.56 139.819 1599.03 141.914C1607.41 149.043 1607.1 149.967 1605.67 149.422C1596.05 146.446 1578.42 147.355 1584.88 174.8C1592.95 209.106 1616.03 183.359 1629.42 177.366C1631.52 176.43 1633.21 175.936 1634.58 175.776C1641.92 174.922 1636.78 186.239 1632.56 192.307C1616.08 215.998 1623.22 224.849 1629.63 226.3C1720.78 252.207 1737.2 206.284 1731.44 195.201C1728.05 188.693 1673.99 156.619 1702.83 165.407C1725.91 172.438 1745.09 137.119 1751.8 118.58C1771.22 56.0395 1722.06 53.9323 1706.82 64.7717C1691.23 75.8584 1668.68 150.153 1668.71 103.527C1668.74 56.9007 1647.27 52.0403 1624.88 61.2597C1602.48 70.4792 1661.55 101.907 1607.32 95.6415Z" fill="#CBC5EA"/>
<path d="M1659.49 177.967C1654.56 183.119 1642.17 197.453 1652.67 209.002" stroke="#73628A" stroke-width="1.99713"/>
<path d="M1670.8 174.504L1675.17 195.953" stroke="#73628A" stroke-width="1.99713"/>
<path d="M1677.04 166.898C1686.73 170.597 1703.17 183.953 1701.67 201.953" stroke="#73628A" stroke-width="1.99713"/>
<path d="M1644.04 163.179C1637.42 166.945 1621.17 176.453 1607.17 168.5" stroke="#73628A" stroke-width="1.99713"/>
<path d="M1640.81 154.182L1617.17 160.453" stroke="#73628A" stroke-width="1.99713"/>
<path d="M1636.89 138.245C1626.81 138.47 1601.17 134.953 1598.17 121" stroke="#73628A" stroke-width="1.99713"/>
<path d="M1640.36 126.246C1635.98 121.242 1628.17 110.953 1617.67 112" stroke="#73628A" stroke-width="1.99713"/>
<path d="M1651.45 120.484C1653.53 110.175 1654.67 87.4531 1646.67 82.9531" stroke="#73628A" stroke-width="1.99713"/>
<path d="M1688.82 144.747C1700.98 141.985 1728.17 133.453 1726.67 121.955" stroke="#73628A" stroke-width="1.99713"/>
<path d="M1709.33 99.5125C1707.98 101.057 1706.18 104.056 1709.74 103.703C1714.19 103.26 1711.6 97.1734 1709.33 99.5125Z" fill="#73628A" stroke="#73628A" stroke-width="1.99713"/>
<path d="M1645.02 81.3914C1643.67 82.9355 1641.87 85.9353 1645.43 85.5815C1649.88 85.1392 1647.29 79.0524 1645.02 81.3914Z" fill="#73628A" stroke="#73628A" stroke-width="1.99713"/>
<path d="M1619.39 110.846C1617.41 110.342 1613.92 110.089 1615.84 113.107C1618.24 116.88 1622.51 111.823 1619.39 110.846Z" fill="#73628A" stroke="#73628A" stroke-width="1.99713"/>
<path d="M1596.53 121.683C1598.33 122.674 1601.64 123.802 1600.54 120.396C1599.18 116.138 1593.77 119.949 1596.53 121.683Z" fill="#73628A" stroke="#73628A" stroke-width="1.99713"/>
<path d="M1614.35 157.575C1613.55 159.459 1612.77 162.869 1616.05 161.43C1620.14 159.632 1615.8 154.646 1614.35 157.575Z" fill="#73628A" stroke="#73628A" stroke-width="1.99713"/>
<path d="M1607.11 170.769C1609.08 170.214 1612.23 168.69 1609.06 167.035C1605.09 164.967 1603.93 171.478 1607.11 170.769Z" fill="#73628A" stroke="#73628A" stroke-width="1.99713"/>
<path d="M1650.07 206.685C1651.06 208.478 1653.26 211.197 1654.15 207.731C1655.26 203.399 1648.66 203.744 1650.07 206.685Z" fill="#73628A" stroke="#73628A" stroke-width="1.99713"/>
<path d="M1675.85 197.647C1677.86 197.27 1681.14 196.033 1678.12 194.102C1674.36 191.689 1672.61 198.07 1675.85 197.647Z" fill="#73628A" stroke="#73628A" stroke-width="1.99713"/>
<path d="M1702.39 202.225C1700.96 200.761 1698.12 198.727 1698.18 202.304C1698.27 206.776 1704.54 204.682 1702.39 202.225Z" fill="#73628A" stroke="#73628A" stroke-width="1.99713"/>
<path d="M1727.67 120.778C1728.17 118.794 1728.43 115.306 1725.41 117.222C1721.63 119.617 1726.68 123.891 1727.67 120.778Z" fill="#73628A" stroke="#73628A" stroke-width="1.99713"/>
<path d="M1698.76 123.349C1700.08 124.919 1702.76 127.165 1702.97 123.593C1703.23 119.128 1696.81 120.735 1698.76 123.349Z" fill="#73628A" stroke="#73628A" stroke-width="1.99713"/>
<path d="M1677.67 132.453C1684.37 121.686 1700.17 99.9504 1709.67 99.9513M1683.52 138.276L1701.17 123.45" stroke="#73628A" stroke-width="1.99713"/>
<path d="M1956.66 331.092C1971.58 327.977 2001.7 314.855 2002.88 287.295C2004.07 259.735 1972.56 305.01 1956.66 331.092Z" fill="#698F40"/>
<path d="M1961.28 369.836C1947.97 364.626 1919.78 348.479 1913.58 325.573C1907.38 302.667 1942.8 345.538 1961.28 369.836Z" fill="#698F40"/>
<path d="M1953.42 233.406C1952.68 253.81 1952.97 290.947 1956.66 331.092M1956.66 331.092C1971.58 327.977 2001.7 314.855 2002.88 287.295C2004.07 259.735 1972.56 305.01 1956.66 331.092ZM1956.66 331.092C1957.83 343.85 1959.35 356.911 1961.28 369.836M1961.28 369.836C1964.02 388.131 1967.6 406.153 1972.23 422.653C1979.4 446.819 1998.39 488.327 1998.39 492.592M1961.28 369.836C1947.97 364.626 1919.78 348.479 1913.58 325.573C1907.38 302.667 1942.8 345.538 1961.28 369.836Z" stroke="#698F40" stroke-width="1.99713"/>
<path fill-rule="evenodd" clip-rule="evenodd" d="M1903.66 141.914C1901.2 139.819 1898.84 137.589 1896.86 135.03C1883.68 117.958 1871.68 90.9896 1911.95 95.6415C1966.19 101.907 1907.12 70.4792 1929.51 61.2597C1951.91 52.0403 1973.37 56.9007 1973.34 103.527C1973.31 150.153 1995.86 75.8584 2011.45 64.7717C2026.69 53.9323 2075.86 56.0395 2056.43 118.58C2049.72 137.119 2030.54 172.438 2007.47 165.407C1978.62 156.619 2032.69 188.693 2036.07 195.201C2041.83 206.284 2025.42 252.207 1934.26 226.3C1927.85 224.849 1920.71 215.998 1937.19 192.307C1941.41 186.239 1946.56 174.922 1939.21 175.776C1937.85 175.936 1936.15 176.43 1934.06 177.366C1920.67 183.359 1897.58 209.106 1889.51 174.8C1883.05 147.355 1900.68 146.446 1910.3 149.422C1911.73 149.967 1912.04 149.043 1903.66 141.914ZM1959.91 179.459C1944.95 179.45 1935.46 144.59 1944.48 118.051C1947.72 103.742 1998.02 140.704 1998.71 147.629C1999.39 154.554 1983.22 179.473 1959.91 179.459Z" fill="#EAEAEA"/>
<path d="M1944.48 118.051C1935.46 144.59 1944.95 179.45 1959.91 179.459C1983.22 179.473 1999.39 154.554 1998.71 147.629C1998.02 140.704 1947.72 103.742 1944.48 118.051Z" fill="#73628A"/>
<path fill-rule="evenodd" clip-rule="evenodd" d="M1905.73 79.9417C1919.73 80.1633 1908.42 46.1049 1922.83 40.9432C1940.84 34.4911 1955.13 61.0443 1987.94 15.8231C1995.81 7.02406 2015.32 -0.197746 2033.69 35.8175C2036.26 40.8603 2038.89 46.2773 2043.92 48.8829C2049.37 51.7094 2058.02 53.1282 2072.86 49.3439C2097.85 45.7835 2096.43 84.7662 2076.29 107.282C2062.2 121.892 2041.54 156.426 2071.63 177.68C2096.7 195.391 2051.92 251.438 1999.11 245.497C1992.03 244.647 1980.46 245.486 1990.79 255.649C2003.18 267.834 1919.99 289.519 1908.13 240.328C1907.08 235.99 1907.99 229.748 1903.67 228.599C1901.48 228.015 1898.02 228.323 1892.71 230.43C1877.01 236.652 1844.71 216.551 1867.34 186.327C1868.73 184.635 1870.58 172.018 1859.73 180.09C1846.7 189.781 1816.36 142.44 1883.76 140.404C1888.45 140.714 1894.8 138.841 1882.61 128.862C1867.39 116.388 1845.02 78.9814 1905.73 79.9417ZM1911.95 95.6415C1871.68 90.9896 1883.68 117.958 1896.86 135.03C1898.84 137.589 1901.2 139.819 1903.66 141.914C1912.04 149.043 1911.73 149.967 1910.3 149.422C1900.68 146.446 1883.05 147.355 1889.51 174.8C1897.58 209.106 1920.67 183.359 1934.06 177.366C1936.15 176.43 1937.85 175.936 1939.21 175.776C1946.56 174.922 1941.41 186.239 1937.19 192.307C1920.71 215.998 1927.85 224.849 1934.26 226.3C2025.42 252.207 2041.83 206.284 2036.07 195.201C2032.69 188.693 1978.62 156.619 2007.47 165.407C2030.54 172.438 2049.72 137.119 2056.43 118.58C2075.86 56.0395 2026.69 53.9323 2011.45 64.7717C1995.86 75.8584 1973.31 150.153 1973.34 103.527C1973.37 56.9007 1951.91 52.0403 1929.51 61.2597C1907.12 70.4792 1966.19 101.907 1911.95 95.6415Z" fill="#CBC5EA"/>
<path d="M1964.12 177.965C1959.2 183.117 1945.8 196.453 1957.3 209" stroke="#73628A" stroke-width="1.99713"/>
<path d="M1975.43 174.504L1979.8 195.953" stroke="#73628A" stroke-width="1.99713"/>
<path d="M1981.67 166.898C1991.36 170.597 2006.8 183.953 2006.3 201.953" stroke="#73628A" stroke-width="1.99713"/>
<path d="M1948.67 163.179C1942.05 166.945 1926.8 177.453 1911.8 168.5" stroke="#73628A" stroke-width="1.99713"/>
<path d="M1945.44 154.181L1920.8 160.953" stroke="#73628A" stroke-width="1.99713"/>
<path d="M1941.52 138.245C1931.45 138.47 1905.8 135.953 1902.8 121" stroke="#73628A" stroke-width="1.99713"/>
<path d="M1945 126.246C1940.61 121.242 1932.8 110.953 1922.3 112" stroke="#73628A" stroke-width="1.99713"/>
<path d="M1956.08 120.484C1958.16 110.175 1958.8 88.4531 1951.3 82.9531" stroke="#73628A" stroke-width="1.99713"/>
<path d="M1993.45 144.747C2005.61 141.985 2033.8 133.453 2031.3 121.955" stroke="#73628A" stroke-width="1.99713"/>
<path d="M2013.96 99.5125C2012.61 101.057 2010.81 104.056 2014.37 103.703C2018.82 103.26 2016.23 97.1734 2013.96 99.5125Z" fill="#73628A" stroke="#73628A" stroke-width="1.99713"/>
<path d="M1948.65 81.3914C1947.3 82.9355 1945.51 85.9353 1949.07 85.5815C1953.52 85.1392 1950.93 79.0524 1948.65 81.3914Z" fill="#73628A" stroke="#73628A" stroke-width="1.99713"/>
<path d="M1925.02 110.846C1923.04 110.342 1919.55 110.089 1921.47 113.107C1923.87 116.88 1928.14 111.823 1925.02 110.846Z" fill="#73628A" stroke="#73628A" stroke-width="1.99713"/>
<path d="M1901.17 121.683C1902.96 122.674 1906.27 123.802 1905.18 120.396C1903.81 116.138 1898.4 119.949 1901.17 121.683Z" fill="#73628A" stroke="#73628A" stroke-width="1.99713"/>
<path d="M1918.99 158.575C1918.19 160.459 1917.4 163.869 1920.68 162.43C1924.77 160.632 1920.43 155.646 1918.99 158.575Z" fill="#73628A" stroke="#73628A" stroke-width="1.99713"/>
<path d="M1911.74 170.769C1913.72 170.214 1916.86 168.69 1913.69 167.035C1909.73 164.967 1908.56 171.478 1911.74 170.769Z" fill="#73628A" stroke="#73628A" stroke-width="1.99713"/>
<path d="M1954.7 206.685C1955.69 208.478 1957.89 211.197 1958.78 207.731C1959.89 203.399 1953.29 203.744 1954.7 206.685Z" fill="#73628A" stroke="#73628A" stroke-width="1.99713"/>
<path d="M1979.48 197.647C1981.5 197.27 1984.77 196.033 1981.76 194.102C1977.99 191.689 1976.25 198.07 1979.48 197.647Z" fill="#73628A" stroke="#73628A" stroke-width="1.99713"/>
<path d="M2007.03 202.225C2005.6 200.761 2002.75 198.727 2002.82 202.304C2002.9 206.776 2009.18 204.682 2007.03 202.225Z" fill="#73628A" stroke="#73628A" stroke-width="1.99713"/>
<path d="M2032.3 120.778C2032.81 118.794 2033.07 115.306 2030.04 117.222C2026.27 119.617 2031.32 123.891 2032.3 120.778Z" fill="#73628A" stroke="#73628A" stroke-width="1.99713"/>
<path d="M2003.4 124.349C2004.71 125.919 2007.39 128.165 2007.6 124.593C2007.86 120.128 2001.44 121.735 2003.4 124.349Z" fill="#73628A" stroke="#73628A" stroke-width="1.99713"/>
<path d="M1982.3 132.453C1989 121.686 2005.8 100.453 2014.3 99.9513M1988.15 138.276L2006.8 124.453" stroke="#73628A" stroke-width="1.99713"/>
<path d="M128.862 835.456C143.778 832.34 173.905 819.218 175.086 791.658C176.267 764.099 144.762 809.373 128.862 835.456Z" fill="#698F40"/>
<path d="M133.485 874.2C120.166 868.989 91.9792 852.843 85.7823 829.937C79.5853 807.03 115.002 849.901 133.485 874.2Z" fill="#698F40"/>
<path d="M125.626 737.769C124.882 758.174 125.173 795.31 128.862 835.456M128.862 835.456C143.778 832.34 173.905 819.218 175.086 791.658C176.267 764.099 144.762 809.373 128.862 835.456ZM128.862 835.456C130.035 848.213 131.551 861.275 133.485 874.2M133.485 874.2C136.224 892.495 139.802 910.517 144.435 927.016C151.602 951.182 170.589 992.691 170.589 996.955M133.485 874.2C120.166 868.989 91.9792 852.843 85.7823 829.937C79.5853 807.03 115.002 849.901 133.485 874.2Z" stroke="#698F40" stroke-width="1.99713"/>
<path fill-rule="evenodd" clip-rule="evenodd" d="M75.8597 646.277C73.3972 644.183 71.037 641.952 69.0611 639.393C55.8785 622.322 43.8763 595.353 84.1495 600.005C138.389 606.27 79.3175 574.842 101.713 565.623C124.108 556.404 145.571 561.264 145.543 607.89C145.515 654.516 168.064 580.222 183.652 569.135C198.893 558.296 248.057 560.403 228.63 622.944C221.925 641.482 202.745 676.802 179.667 669.771C150.82 660.982 204.886 693.056 208.271 699.564C214.035 710.647 197.619 756.57 106.46 730.663C100.055 729.213 92.9137 720.361 109.391 696.67C113.611 690.602 118.757 679.285 111.415 680.14C110.047 680.299 108.35 680.793 106.259 681.729C92.8675 687.722 69.7838 713.469 61.7118 679.163C55.2543 651.718 72.8807 650.809 82.5011 653.785C83.9301 654.331 84.2401 653.406 75.8597 646.277ZM132.11 683.822C117.148 683.813 107.664 648.953 116.682 622.414C119.922 608.105 170.219 645.067 170.907 651.992C171.595 658.917 155.422 683.836 132.11 683.822Z" fill="#EAEAEA"/>
<path d="M116.682 622.414C107.664 648.953 117.148 683.813 132.11 683.822C155.422 683.836 171.595 658.917 170.907 651.992C170.219 645.067 119.922 608.105 116.682 622.414Z" fill="#73628A"/>
<path fill-rule="evenodd" clip-rule="evenodd" d="M77.9268 584.305C91.9358 584.527 80.6248 550.468 95.0312 545.307C113.039 538.854 127.334 565.408 160.138 520.186C168.009 511.387 187.521 504.166 205.888 540.181C208.459 545.224 211.095 550.641 216.121 553.246C221.572 556.073 230.225 557.491 245.06 553.707C270.049 550.147 268.629 589.129 248.487 611.645C234.398 626.256 213.742 660.789 243.828 682.043C268.9 699.755 224.117 755.802 171.309 749.861C164.231 749.01 152.659 749.849 162.993 760.012C175.385 772.197 92.194 793.882 80.3314 744.691C79.2853 740.353 80.1876 734.111 75.8759 732.962C73.6854 732.378 70.2236 732.687 64.9096 734.793C49.21 741.015 16.9072 720.914 39.546 690.691C40.9319 688.999 42.7862 676.382 31.9327 684.454C18.9032 694.144 -11.439 646.804 55.9621 644.767C60.6553 645.078 66.9964 643.204 54.815 633.225C39.5884 620.752 17.2213 583.345 77.9268 584.305ZM84.1495 600.005C43.8763 595.353 55.8785 622.322 69.0611 639.393C71.037 641.952 73.3972 644.183 75.8597 646.277C84.2401 653.406 83.9301 654.331 82.5011 653.785C72.8807 650.809 55.2543 651.718 61.7118 679.163C69.7838 713.469 92.8675 687.722 106.259 681.729C108.35 680.793 110.047 680.299 111.415 680.14C118.757 679.285 113.611 690.602 109.391 696.67C92.9137 720.361 100.055 729.213 106.46 730.663C197.619 756.57 214.035 710.647 208.271 699.564C204.886 693.056 150.82 660.982 179.667 669.771C202.745 676.802 221.925 641.482 228.63 622.944C248.057 560.403 198.893 558.296 183.652 569.135C168.064 580.222 145.515 654.516 145.543 607.89C145.571 561.264 124.108 556.404 101.713 565.623C79.3175 574.842 138.389 606.27 84.1495 600.005Z" fill="#CBC5EA"/>
<path d="M136.324 682.33C131.397 687.482 117 699.816 129.501 713.365" stroke="#73628A" stroke-width="1.99713"/>
<path d="M147.636 678.867L152 700.316" stroke="#73628A" stroke-width="1.99713"/>
<path d="M153.873 671.262C163.565 674.961 178 688.316 177.5 706.316" stroke="#73628A" stroke-width="1.99713"/>
<path d="M120.87 667.545C114.251 671.311 100.001 682.77 85.0007 673.816" stroke="#73628A" stroke-width="1.99713"/>
<path d="M117.641 658.546L94 664.816" stroke="#73628A" stroke-width="1.99713"/>
<path d="M113.726 642.608C103.647 642.833 78 641.77 75 626.816" stroke="#73628A" stroke-width="1.99713"/>
<path d="M117.198 630.609C112.815 625.606 105 615.316 94.5 616.363" stroke="#73628A" stroke-width="1.99713"/>
<path d="M128.281 624.847C130.365 614.539 131 593.816 123.5 587.316" stroke="#73628A" stroke-width="1.99713"/>
<path d="M165.655 649.11C177.813 646.348 207 638.816 203.5 626.318" stroke="#73628A" stroke-width="1.99713"/>
<path d="M186.16 603.876C184.815 605.42 183.016 608.42 186.576 608.066C191.026 607.624 188.436 601.537 186.16 603.876Z" fill="#73628A" stroke="#73628A" stroke-width="1.99713"/>
<path d="M120.85 585.755C119.505 587.299 117.706 590.299 121.266 589.945C125.717 589.502 123.127 583.416 120.85 585.755Z" fill="#73628A" stroke="#73628A" stroke-width="1.99713"/>
<path d="M96.2256 615.209C94.241 614.705 90.7522 614.452 92.6736 617.47C95.0753 621.243 99.34 616.186 96.2256 615.209Z" fill="#73628A" stroke="#73628A" stroke-width="1.99713"/>
<path d="M73.3677 626.047C75.1598 627.037 78.4707 628.166 77.3768 624.759C76.0094 620.501 70.6025 624.312 73.3677 626.047Z" fill="#73628A" stroke="#73628A" stroke-width="1.99713"/>
<path d="M91.1882 662.938C90.3875 664.823 89.605 668.232 92.881 666.794C96.976 664.996 92.6291 660.009 91.1882 662.938Z" fill="#73628A" stroke="#73628A" stroke-width="1.99713"/>
<path d="M83.9457 675.132C85.9166 674.577 89.0653 673.053 85.893 671.399C81.9277 669.33 80.7597 675.842 83.9457 675.132Z" fill="#73628A" stroke="#73628A" stroke-width="1.99713"/>
<path d="M126.906 711.048C127.895 712.841 130.096 715.56 130.985 712.094C132.095 707.762 125.489 708.108 126.906 711.048Z" fill="#73628A" stroke="#73628A" stroke-width="1.99713"/>
<path d="M151.685 701.011C153.698 700.633 156.97 699.396 153.957 697.465C150.192 695.052 148.449 701.433 151.685 701.011Z" fill="#73628A" stroke="#73628A" stroke-width="1.99713"/>
<path d="M179.229 706.589C177.797 705.125 174.951 703.091 175.019 706.668C175.102 711.139 181.377 709.046 179.229 706.589Z" fill="#73628A" stroke="#73628A" stroke-width="1.99713"/>
<path d="M204.5 625.141C205.008 623.157 205.267 619.669 202.246 621.585C198.469 623.98 203.518 628.254 204.5 625.141Z" fill="#73628A" stroke="#73628A" stroke-width="1.99713"/>
<path d="M175.599 628.713C176.914 630.282 179.596 632.528 179.803 628.956C180.061 624.491 173.644 626.099 175.599 628.713Z" fill="#73628A" stroke="#73628A" stroke-width="1.99713"/>
<path d="M154.5 636.818C161.201 626.051 179 604.816 186.5 604.316M160.356 642.641L178 629.316" stroke="#73628A" stroke-width="1.99713"/>
<path d="M433.495 835.456C448.411 832.34 478.537 819.218 479.719 791.658C480.9 764.099 449.395 809.373 433.495 835.456Z" fill="#698F40"/>
<path d="M438.118 874.2C424.799 868.989 396.612 852.843 390.415 829.937C384.218 807.03 419.635 849.901 438.118 874.2Z" fill="#698F40"/>
<path d="M430.259 737.769C429.514 758.174 429.806 795.31 433.495 835.456M433.495 835.456C448.411 832.34 478.537 819.218 479.719 791.658C480.9 764.099 449.395 809.373 433.495 835.456ZM433.495 835.456C434.668 848.213 436.183 861.275 438.118 874.2M438.118 874.2C440.857 892.495 444.435 910.517 449.068 927.016C456.235 951.182 475.222 992.691 475.222 996.955M438.118 874.2C424.799 868.989 396.612 852.843 390.415 829.937C384.218 807.03 419.635 849.901 438.118 874.2Z" stroke="#698F40" stroke-width="1.99713"/>
<path fill-rule="evenodd" clip-rule="evenodd" d="M380.493 646.277C378.03 644.183 375.67 641.952 373.694 639.393C360.511 622.322 348.509 595.353 388.782 600.005C443.022 606.27 383.95 574.842 406.346 565.623C428.741 556.404 450.204 561.264 450.176 607.89C450.148 654.516 472.696 580.222 488.285 569.135C503.526 558.296 552.689 560.403 533.263 622.944C526.558 641.482 507.378 676.802 484.3 669.771C455.453 660.982 509.519 693.056 512.904 699.564C518.668 710.647 502.252 756.57 411.093 730.663C404.687 729.213 397.547 720.361 414.024 696.67C418.244 690.602 423.39 679.285 416.048 680.14C414.68 680.299 412.983 680.793 410.892 681.729C397.5 687.722 374.417 713.469 366.345 679.163C359.887 651.718 377.514 650.809 387.134 653.785C388.563 654.331 388.873 653.406 380.493 646.277ZM436.742 683.822C421.781 683.813 412.296 648.953 421.315 622.414C424.555 608.105 474.851 645.067 475.54 651.992C476.228 658.917 460.055 683.836 436.742 683.822Z" fill="#EAEAEA"/>
<path d="M421.315 622.414C412.296 648.953 421.781 683.813 436.742 683.822C460.055 683.836 476.228 658.917 475.54 651.992C474.851 645.067 424.555 608.105 421.315 622.414Z" fill="#73628A"/>
<path fill-rule="evenodd" clip-rule="evenodd" d="M382.56 584.305C396.569 584.527 385.258 550.468 399.664 545.307C417.672 538.854 431.967 565.408 464.771 520.186C472.642 511.387 492.153 504.166 510.52 540.181C513.092 545.224 515.728 550.641 520.753 553.246C526.205 556.073 534.858 557.491 549.693 553.707C574.682 550.147 573.261 589.129 553.12 611.645C539.031 626.256 518.375 660.789 548.461 682.043C573.533 699.755 528.75 755.802 475.942 749.861C468.864 749.01 457.292 749.849 467.626 760.012C480.018 772.197 396.827 793.882 384.964 744.691C383.918 740.353 384.82 734.111 380.509 732.962C378.318 732.378 374.856 732.687 369.542 734.793C353.843 741.015 321.54 720.914 344.179 690.691C345.565 688.999 347.419 676.382 336.565 684.454C323.536 694.144 293.194 646.804 360.595 644.767C365.288 645.078 371.629 643.204 359.448 633.225C344.221 620.752 321.854 583.345 382.56 584.305ZM388.782 600.005C348.509 595.353 360.511 622.322 373.694 639.393C375.67 641.952 378.03 644.183 380.493 646.277C388.873 653.406 388.563 654.331 387.134 653.785C377.514 650.809 359.887 651.718 366.345 679.163C374.417 713.469 397.5 687.722 410.892 681.729C412.983 680.793 414.68 680.299 416.048 680.14C423.39 679.285 418.244 690.602 414.024 696.67C397.547 720.361 404.687 729.213 411.093 730.663C502.252 756.57 518.668 710.647 512.904 699.564C509.519 693.056 455.453 660.982 484.3 669.771C507.378 676.802 526.558 641.482 533.263 622.944C552.689 560.403 503.526 558.296 488.285 569.135C472.696 580.222 450.148 654.516 450.176 607.89C450.204 561.264 428.741 556.404 406.346 565.623C383.95 574.842 443.022 606.27 388.782 600.005Z" fill="#CBC5EA"/>
<path d="M440.957 682.33C436.029 687.482 420.632 699.267 433.132 712.816" stroke="#73628A" stroke-width="1.99713"/>
<path d="M452.269 678.867L456.633 700.316" stroke="#73628A" stroke-width="1.99713"/>
<path d="M458.506 671.262C468.198 674.961 481.633 688.316 481.133 706.316" stroke="#73628A" stroke-width="1.99713"/>
<path d="M425.502 667.542C418.883 671.308 405.133 683.77 390.133 674.816" stroke="#73628A" stroke-width="1.99713"/>
<path d="M422.274 658.546L398.633 664.816" stroke="#73628A" stroke-width="1.99713"/>
<path d="M418.359 642.608C408.279 642.833 381.633 641.816 379.633 626.816" stroke="#73628A" stroke-width="1.99713"/>
<path d="M421.83 630.609C417.448 625.606 409.633 615.316 399.133 616.363" stroke="#73628A" stroke-width="1.99713"/>
<path d="M432.914 624.847C434.997 614.539 434.633 594.316 427.133 587.816" stroke="#73628A" stroke-width="1.99713"/>
<path d="M470.288 649.107C482.446 646.345 511.633 639.313 508.133 626.815" stroke="#73628A" stroke-width="1.99713"/>
<path d="M490.792 603.876C489.448 605.42 487.649 608.42 491.209 608.066C495.659 607.624 493.069 601.537 490.792 603.876Z" fill="#73628A" stroke="#73628A" stroke-width="1.99713"/>
<path d="M425.483 585.755C424.138 587.299 422.339 590.299 425.899 589.945C430.35 589.502 427.759 583.416 425.483 585.755Z" fill="#73628A" stroke="#73628A" stroke-width="1.99713"/>
<path d="M401.858 615.209C399.874 614.705 396.385 614.452 398.306 617.47C400.708 621.243 404.973 616.186 401.858 615.209Z" fill="#73628A" stroke="#73628A" stroke-width="1.99713"/>
<path d="M378.001 626.047C379.793 627.037 383.103 628.166 382.01 624.759C380.642 620.501 375.235 624.312 378.001 626.047Z" fill="#73628A" stroke="#73628A" stroke-width="1.99713"/>
<path d="M396.821 662.938C396.02 664.823 395.238 668.232 398.514 666.794C402.609 664.996 398.262 660.009 396.821 662.938Z" fill="#73628A" stroke="#73628A" stroke-width="1.99713"/>
<path d="M388.579 675.132C390.549 674.577 393.698 673.053 390.526 671.399C386.561 669.33 385.393 675.842 388.579 675.132Z" fill="#73628A" stroke="#73628A" stroke-width="1.99713"/>
<path d="M431.539 711.048C432.528 712.841 434.729 715.56 435.618 712.094C436.728 707.762 430.122 708.108 431.539 711.048Z" fill="#73628A" stroke="#73628A" stroke-width="1.99713"/>
<path d="M456.318 700.011C458.331 699.633 461.603 698.396 458.59 696.465C454.825 694.052 453.082 700.433 456.318 700.011Z" fill="#73628A" stroke="#73628A" stroke-width="1.99713"/>
<path d="M483.861 706.589C482.43 705.125 479.584 703.091 479.651 706.668C479.735 711.139 486.01 709.046 483.861 706.589Z" fill="#73628A" stroke="#73628A" stroke-width="1.99713"/>
<path d="M509.133 626.141C509.641 624.157 509.9 620.669 506.878 622.585C503.101 624.98 508.151 629.254 509.133 626.141Z" fill="#73628A" stroke="#73628A" stroke-width="1.99713"/>
<path d="M480.232 628.713C481.547 630.282 484.229 632.528 484.435 628.956C484.694 624.491 478.277 626.099 480.232 628.713Z" fill="#73628A" stroke="#73628A" stroke-width="1.99713"/>
<path d="M459.133 636.82C465.834 626.052 483.633 605.818 491.134 605.318M464.989 642.643L481.633 628.316" stroke="#73628A" stroke-width="1.99713"/>
<path d="M738.128 836.456C753.044 833.34 783.17 820.218 784.351 792.658C785.533 765.099 754.028 810.373 738.128 836.456Z" fill="#698F40"/>
<path d="M742.751 875.2C729.432 869.989 701.245 853.843 695.048 830.937C688.851 808.03 724.268 850.901 742.751 875.2Z" fill="#698F40"/>
<path d="M734.892 738.769C734.147 759.174 734.438 796.31 738.128 836.456M738.128 836.456C753.044 833.34 783.17 820.218 784.351 792.658C785.533 765.099 754.028 810.373 738.128 836.456ZM738.128 836.456C739.301 849.213 740.816 862.275 742.751 875.2M742.751 875.2C745.49 893.495 749.068 911.517 753.7 928.016C760.867 952.182 779.855 993.691 779.855 997.955M742.751 875.2C729.432 869.989 701.245 853.843 695.048 830.937C688.851 808.03 724.268 850.901 742.751 875.2Z" stroke="#698F40" stroke-width="1.99713"/>
<path fill-rule="evenodd" clip-rule="evenodd" d="M685.125 647.277C682.663 645.183 680.303 642.952 678.327 640.393C665.144 623.322 653.142 596.353 693.415 601.005C747.654 607.27 688.583 575.842 710.978 566.623C733.374 557.404 754.837 562.264 754.809 608.89C754.781 655.516 777.329 581.222 792.918 570.135C808.159 559.296 857.322 561.403 837.895 623.944C831.19 642.482 812.011 677.802 788.933 670.771C760.086 661.982 814.152 694.056 817.537 700.564C823.301 711.647 806.884 757.57 715.726 731.663C709.32 730.213 702.179 721.361 718.657 697.67C722.877 691.602 728.022 680.285 720.681 681.14C719.313 681.299 717.616 681.793 715.524 682.729C702.133 688.722 679.049 714.469 670.977 680.163C664.52 652.718 682.146 651.809 691.767 654.785C693.196 655.331 693.506 654.406 685.125 647.277ZM741.375 684.822C726.413 684.813 716.929 649.953 725.947 623.414C729.188 609.105 779.484 646.067 780.172 652.992C780.861 659.917 764.688 684.836 741.375 684.822Z" fill="#EAEAEA"/>
<path d="M725.947 623.414C716.929 649.953 726.413 684.813 741.375 684.822C764.688 684.836 780.861 659.917 780.172 652.992C779.484 646.067 729.188 609.105 725.947 623.414Z" fill="#73628A"/>
<path fill-rule="evenodd" clip-rule="evenodd" d="M687.192 585.305C701.201 585.527 689.89 551.468 704.297 546.307C722.305 539.854 736.6 566.408 769.404 521.186C777.275 512.387 796.786 505.166 815.153 541.181C817.725 546.224 820.361 551.641 825.386 554.246C830.837 557.073 839.491 558.491 854.326 554.707C879.315 551.147 877.894 590.129 857.753 612.645C843.664 627.256 823.008 661.789 853.094 683.043C878.166 700.755 833.383 756.802 780.575 750.861C773.497 750.01 761.924 750.849 772.259 761.012C784.651 773.197 701.46 794.882 689.597 745.691C688.551 741.353 689.453 735.111 685.142 733.962C682.951 733.378 679.489 733.687 674.175 735.793C658.476 742.015 626.173 721.914 648.812 691.691C650.198 689.999 652.052 677.382 641.198 685.454C628.169 695.144 597.827 647.804 665.228 645.767C669.921 646.078 676.262 644.204 664.081 634.225C648.854 621.752 626.487 584.345 687.192 585.305ZM693.415 601.005C653.142 596.353 665.144 623.322 678.327 640.393C680.303 642.952 682.663 645.183 685.125 647.277C693.506 654.406 693.196 655.331 691.767 654.785C682.146 651.809 664.52 652.718 670.977 680.163C679.049 714.469 702.133 688.722 715.524 682.729C717.616 681.793 719.313 681.299 720.681 681.14C728.022 680.285 722.877 691.602 718.657 697.67C702.179 721.361 709.32 730.213 715.726 731.663C806.884 757.57 823.301 711.647 817.537 700.564C814.152 694.056 760.086 661.982 788.933 670.771C812.011 677.802 831.19 642.482 837.895 623.944C857.322 561.403 808.159 559.296 792.918 570.135C777.329 581.222 754.781 655.516 754.809 608.89C754.837 562.264 733.374 557.404 710.978 566.623C688.583 575.842 747.654 607.27 693.415 601.005Z" fill="#CBC5EA"/>
<path d="M745.59 683.329C740.662 688.481 725.766 699.767 738.266 713.316" stroke="#73628A" stroke-width="1.99713"/>
<path d="M756.901 679.867L761.266 701.316" stroke="#73628A" stroke-width="1.99713"/>
<path d="M763.139 672.262C772.831 675.961 785.266 689.316 785.766 707.316" stroke="#73628A" stroke-width="1.99713"/>
<path d="M730.136 668.542C723.517 672.308 708.766 684.269 693.766 675.316" stroke="#73628A" stroke-width="1.99713"/>
<path d="M726.907 659.546L703.266 665.816" stroke="#73628A" stroke-width="1.99713"/>
<path d="M722.992 643.608C712.912 643.833 686.266 641.816 684.266 626.816" stroke="#73628A" stroke-width="1.99713"/>
<path d="M726.463 631.609C722.081 626.606 714.266 616.316 703.766 617.363" stroke="#73628A" stroke-width="1.99713"/>
<path d="M737.547 625.847C739.63 615.539 740.266 594.816 731.766 588.816" stroke="#73628A" stroke-width="1.99713"/>
<path d="M774.92 650.107C787.079 647.345 817.266 639.816 812.766 627.815" stroke="#73628A" stroke-width="1.99713"/>
<path d="M795.425 604.876C794.081 606.42 792.281 609.42 795.842 609.066C800.292 608.624 797.702 602.537 795.425 604.876Z" fill="#73628A" stroke="#73628A" stroke-width="1.99713"/>
<path d="M730.116 586.755C728.771 588.299 726.972 591.299 730.532 590.945C734.982 590.502 732.392 584.416 730.116 586.755Z" fill="#73628A" stroke="#73628A" stroke-width="1.99713"/>
<path d="M707.491 616.209C705.507 615.705 702.018 615.452 703.939 618.47C706.341 622.243 710.606 617.186 707.491 616.209Z" fill="#73628A" stroke="#73628A" stroke-width="1.99713"/>
<path d="M682.633 627.047C684.425 628.037 687.736 629.166 686.642 625.759C685.275 621.501 679.868 625.312 682.633 627.047Z" fill="#73628A" stroke="#73628A" stroke-width="1.99713"/>
<path d="M702.454 663.938C701.653 665.823 700.871 669.232 704.147 667.794C708.242 665.996 703.895 661.009 702.454 663.938Z" fill="#73628A" stroke="#73628A" stroke-width="1.99713"/>
<path d="M693.211 676.132C695.182 675.577 698.331 674.053 695.159 672.399C691.193 670.33 690.025 676.842 693.211 676.132Z" fill="#73628A" stroke="#73628A" stroke-width="1.99713"/>
<path d="M736.172 712.048C737.161 713.841 739.362 716.56 740.25 713.094C741.361 708.762 734.755 709.108 736.172 712.048Z" fill="#73628A" stroke="#73628A" stroke-width="1.99713"/>
<path d="M760.951 701.011C762.963 700.633 766.235 699.396 763.223 697.465C759.458 695.052 757.714 701.433 760.951 701.011Z" fill="#73628A" stroke="#73628A" stroke-width="1.99713"/>
<path d="M788.494 707.589C787.063 706.125 784.217 704.091 784.284 707.668C784.368 712.139 790.643 710.046 788.494 707.589Z" fill="#73628A" stroke="#73628A" stroke-width="1.99713"/>
<path d="M813.766 627.141C814.273 625.157 814.533 621.669 811.511 623.585C807.734 625.98 812.784 630.254 813.766 627.141Z" fill="#73628A" stroke="#73628A" stroke-width="1.99713"/>
<path d="M784.864 629.713C786.18 631.282 788.861 633.528 789.068 629.956C789.327 625.491 782.91 627.099 784.864 629.713Z" fill="#73628A" stroke="#73628A" stroke-width="1.99713"/>
<path d="M763.765 637.818C770.466 627.05 787.266 606.816 795.766 606.317M770.266 644.316L786.91 629.99" stroke="#73628A" stroke-width="1.99713"/>
<path d="M1042.76 836.456C1057.68 833.34 1087.8 820.218 1088.98 792.658C1090.17 765.099 1058.66 810.373 1042.76 836.456Z" fill="#698F40"/>
<path d="M1047.38 875.2C1034.06 869.989 1005.88 853.843 999.681 830.937C993.484 808.03 1028.9 850.901 1047.38 875.2Z" fill="#698F40"/>
<path d="M1039.52 738.769C1038.78 759.174 1039.07 796.31 1042.76 836.456M1042.76 836.456C1057.68 833.34 1087.8 820.218 1088.98 792.658C1090.17 765.099 1058.66 810.373 1042.76 836.456ZM1042.76 836.456C1043.93 849.213 1045.45 862.275 1047.38 875.2M1047.38 875.2C1050.12 893.495 1053.7 911.517 1058.33 928.016C1065.5 952.182 1084.49 993.691 1084.49 997.955M1047.38 875.2C1034.06 869.989 1005.88 853.843 999.681 830.937C993.484 808.03 1028.9 850.901 1047.38 875.2Z" stroke="#698F40" stroke-width="1.99713"/>
<path fill-rule="evenodd" clip-rule="evenodd" d="M989.758 647.277C987.296 645.183 984.935 642.952 982.96 640.393C969.777 623.322 957.775 596.353 998.048 601.005C1052.29 607.27 993.216 575.842 1015.61 566.623C1038.01 557.404 1059.47 562.264 1059.44 608.89C1059.41 655.516 1081.96 581.222 1097.55 570.135C1112.79 559.296 1161.96 561.403 1142.53 623.944C1135.82 642.482 1116.64 677.802 1093.57 670.771C1064.72 661.982 1118.78 694.056 1122.17 700.564C1127.93 711.647 1111.52 757.57 1020.36 731.663C1013.95 730.213 1006.81 721.361 1023.29 697.67C1027.51 691.602 1032.66 680.285 1025.31 681.14C1023.95 681.299 1022.25 681.793 1020.16 682.729C1006.77 688.722 983.682 714.469 975.61 680.163C969.153 652.718 986.779 651.809 996.4 654.785C997.829 655.331 998.139 654.406 989.758 647.277ZM1046.01 684.822C1031.05 684.813 1021.56 649.953 1030.58 623.414C1033.82 609.105 1084.12 646.067 1084.81 652.992C1085.49 659.917 1069.32 684.836 1046.01 684.822Z" fill="#EAEAEA"/>
<path d="M1030.58 623.414C1021.56 649.953 1031.05 684.813 1046.01 684.822C1069.32 684.836 1085.49 659.917 1084.81 652.992C1084.12 646.067 1033.82 609.105 1030.58 623.414Z" fill="#73628A"/>
<path fill-rule="evenodd" clip-rule="evenodd" d="M991.825 585.305C1005.83 585.527 994.523 551.468 1008.93 546.307C1026.94 539.854 1041.23 566.408 1074.04 521.186C1081.91 512.387 1101.42 505.166 1119.79 541.181C1122.36 546.224 1124.99 551.641 1130.02 554.246C1135.47 557.073 1144.12 558.491 1158.96 554.707C1183.95 551.147 1182.53 590.129 1162.39 612.645C1148.3 627.256 1127.64 661.789 1157.73 683.043C1182.8 700.755 1138.02 756.802 1085.21 750.861C1078.13 750.01 1066.56 750.849 1076.89 761.012C1089.28 773.197 1006.09 794.882 994.23 745.691C993.184 741.353 994.086 735.111 989.774 733.962C987.584 733.378 984.122 733.687 978.808 735.793C963.108 742.015 930.806 721.914 953.444 691.691C954.83 689.999 956.685 677.382 945.831 685.454C932.802 695.144 902.459 647.804 969.861 645.767C974.554 646.078 980.895 644.204 968.713 634.225C953.487 621.752 931.12 584.345 991.825 585.305ZM998.048 601.005C957.775 596.353 969.777 623.322 982.96 640.393C984.935 642.952 987.296 645.183 989.758 647.277C998.139 654.406 997.829 655.331 996.4 654.785C986.779 651.809 969.153 652.718 975.61 680.163C983.682 714.469 1006.77 688.722 1020.16 682.729C1022.25 681.793 1023.95 681.299 1025.31 681.14C1032.66 680.285 1027.51 691.602 1023.29 697.67C1006.81 721.361 1013.95 730.213 1020.36 731.663C1111.52 757.57 1127.93 711.647 1122.17 700.564C1118.78 694.056 1064.72 661.982 1093.57 670.771C1116.64 677.802 1135.82 642.482 1142.53 623.944C1161.96 561.403 1112.79 559.296 1097.55 570.135C1081.96 581.222 1059.41 655.516 1059.44 608.89C1059.47 562.264 1038.01 557.404 1015.61 566.623C993.216 575.842 1052.29 607.27 998.048 601.005Z" fill="#CBC5EA"/>
<path d="M1050.22 683.329C1045.29 688.481 1029.9 699.316 1042.9 713.317" stroke="#73628A" stroke-width="1.99713"/>
<path d="M1061.53 679.867L1065.9 701.316" stroke="#73628A" stroke-width="1.99713"/>
<path d="M1067.77 672.262C1077.46 675.961 1089.9 688.316 1090.4 707.316" stroke="#73628A" stroke-width="1.99713"/>
<path d="M1034.77 668.542C1028.15 672.308 1013.9 684.816 998.399 675.316" stroke="#73628A" stroke-width="1.99713"/>
<path d="M1031.54 659.546L1007.9 665.816" stroke="#73628A" stroke-width="1.99713"/>
<path d="M1027.62 643.608C1017.54 643.832 989.898 641.816 988.898 626.816" stroke="#73628A" stroke-width="1.99713"/>
<path d="M1031.1 631.609C1026.71 626.606 1018.9 616.316 1008.4 617.363" stroke="#73628A" stroke-width="1.99713"/>
<path d="M1042.18 625.847C1044.26 615.539 1045.9 593.816 1036.4 588.816" stroke="#73628A" stroke-width="1.99713"/>
<path d="M1079.55 650.11C1091.71 647.348 1120.9 639.817 1116.4 627.816" stroke="#73628A" stroke-width="1.99713"/>
<path d="M1099.06 604.876C1097.71 606.42 1095.91 609.42 1099.47 609.066C1103.92 608.624 1101.33 602.537 1099.06 604.876Z" fill="#73628A" stroke="#73628A" stroke-width="1.99713"/>
<path d="M1034.75 586.755C1033.4 588.299 1031.6 591.299 1035.16 590.945C1039.62 590.502 1037.03 584.416 1034.75 586.755Z" fill="#73628A" stroke="#73628A" stroke-width="1.99713"/>
<path d="M1013.12 616.209C1011.14 615.705 1007.65 615.452 1009.57 618.47C1011.97 622.243 1016.24 617.186 1013.12 616.209Z" fill="#73628A" stroke="#73628A" stroke-width="1.99713"/>
<path d="M987.266 627.047C989.058 628.037 992.369 629.166 991.275 625.759C989.908 621.501 984.501 625.312 987.266 627.047Z" fill="#73628A" stroke="#73628A" stroke-width="1.99713"/>
<path d="M1008.09 663.938C1007.29 665.823 1006.5 669.232 1009.78 667.794C1013.87 665.996 1009.53 661.009 1008.09 663.938Z" fill="#73628A" stroke="#73628A" stroke-width="1.99713"/>
<path d="M997.844 677.132C999.815 676.577 1002.96 675.053 999.791 673.399C995.826 671.33 994.658 677.842 997.844 677.132Z" fill="#73628A" stroke="#73628A" stroke-width="1.99713"/>
<path d="M1040.8 712.048C1041.79 713.841 1043.99 716.56 1044.88 713.094C1045.99 708.762 1039.39 709.108 1040.8 712.048Z" fill="#73628A" stroke="#73628A" stroke-width="1.99713"/>
<path d="M1064.58 701.011C1066.6 700.633 1069.87 699.396 1066.86 697.465C1063.09 695.052 1061.35 701.433 1064.58 701.011Z" fill="#73628A" stroke="#73628A" stroke-width="1.99713"/>
<path d="M1093.13 707.589C1091.7 706.125 1088.85 704.091 1088.92 707.668C1089 712.139 1095.28 710.046 1093.13 707.589Z" fill="#73628A" stroke="#73628A" stroke-width="1.99713"/>
<path d="M1118.4 627.141C1118.91 625.157 1119.17 621.669 1116.14 623.585C1112.37 625.98 1117.42 630.254 1118.4 627.141Z" fill="#73628A" stroke="#73628A" stroke-width="1.99713"/>
<path d="M1089.5 630.713C1090.81 632.282 1093.49 634.528 1093.7 630.956C1093.96 626.491 1087.54 628.099 1089.5 630.713Z" fill="#73628A" stroke="#73628A" stroke-width="1.99713"/>
<path d="M1068.4 637.817C1075.1 627.049 1091.9 607.815 1100.4 607.315M1074.9 644.315L1091.54 629.989" stroke="#73628A" stroke-width="1.99713"/>
<path d="M1347.39 836.456C1362.31 833.34 1392.44 820.218 1393.62 792.658C1394.8 765.099 1363.29 810.373 1347.39 836.456Z" fill="#698F40"/>
<path d="M1352.02 875.2C1338.7 869.989 1310.51 853.843 1304.31 830.937C1298.12 808.03 1333.53 850.901 1352.02 875.2Z" fill="#698F40"/>
<path d="M1344.16 738.769C1343.41 759.174 1343.7 796.31 1347.39 836.456M1347.39 836.456C1362.31 833.34 1392.44 820.218 1393.62 792.658C1394.8 765.099 1363.29 810.373 1347.39 836.456ZM1347.39 836.456C1348.57 849.213 1350.08 862.275 1352.02 875.2M1352.02 875.2C1354.76 893.495 1358.33 911.517 1362.97 928.016C1370.13 952.182 1389.12 993.691 1389.12 997.955M1352.02 875.2C1338.7 869.989 1310.51 853.843 1304.31 830.937C1298.12 808.03 1333.53 850.901 1352.02 875.2Z" stroke="#698F40" stroke-width="1.99713"/>
<path fill-rule="evenodd" clip-rule="evenodd" d="M1294.39 647.277C1291.93 645.183 1289.57 642.952 1287.59 640.393C1274.41 623.322 1262.41 596.353 1302.68 601.005C1356.92 607.27 1297.85 575.842 1320.24 566.623C1342.64 557.404 1364.1 562.264 1364.07 608.89C1364.05 655.516 1386.59 581.222 1402.18 570.135C1417.42 559.296 1466.59 561.403 1447.16 623.944C1440.46 642.482 1421.28 677.802 1398.2 670.771C1369.35 661.982 1423.42 694.056 1426.8 700.564C1432.57 711.647 1416.15 757.57 1324.99 731.663C1318.59 730.213 1311.44 721.361 1327.92 697.67C1332.14 691.602 1337.29 680.285 1329.95 681.14C1328.58 681.299 1326.88 681.793 1324.79 682.729C1311.4 688.722 1288.32 714.469 1280.24 680.163C1273.79 652.718 1291.41 651.809 1301.03 654.785C1302.46 655.331 1302.77 654.406 1294.39 647.277ZM1350.64 684.822C1335.68 684.813 1326.19 649.953 1335.21 623.414C1338.45 609.105 1388.75 646.067 1389.44 652.992C1390.13 659.917 1373.95 684.836 1350.64 684.822Z" fill="#EAEAEA"/>
<path d="M1335.21 623.414C1326.19 649.953 1335.68 684.813 1350.64 684.822C1373.95 684.836 1390.13 659.917 1389.44 652.992C1388.75 646.067 1338.45 609.105 1335.21 623.414Z" fill="#73628A"/>
<path fill-rule="evenodd" clip-rule="evenodd" d="M1296.46 585.305C1310.47 585.527 1299.16 551.468 1313.56 546.307C1331.57 539.854 1345.87 566.408 1378.67 521.186C1386.54 512.387 1406.05 505.166 1424.42 541.181C1426.99 546.224 1429.63 551.641 1434.65 554.246C1440.1 557.073 1448.76 558.491 1463.59 554.707C1488.58 551.147 1487.16 590.129 1467.02 612.645C1452.93 627.256 1432.27 661.789 1462.36 683.043C1487.43 700.755 1442.65 756.802 1389.84 750.861C1382.76 750.01 1371.19 750.849 1381.52 761.012C1393.92 773.197 1310.73 794.882 1298.86 745.691C1297.82 741.353 1298.72 735.111 1294.41 733.962C1292.22 733.378 1288.75 733.687 1283.44 735.793C1267.74 742.015 1235.44 721.914 1258.08 691.691C1259.46 689.999 1261.32 677.382 1250.46 685.454C1237.43 695.144 1207.09 647.804 1274.49 645.767C1279.19 646.078 1285.53 644.204 1273.35 634.225C1258.12 621.752 1235.75 584.345 1296.46 585.305ZM1302.68 601.005C1262.41 596.353 1274.41 623.322 1287.59 640.393C1289.57 642.952 1291.93 645.183 1294.39 647.277C1302.77 654.406 1302.46 655.331 1301.03 654.785C1291.41 651.809 1273.79 652.718 1280.24 680.163C1288.32 714.469 1311.4 688.722 1324.79 682.729C1326.88 681.793 1328.58 681.299 1329.95 681.14C1337.29 680.285 1332.14 691.602 1327.92 697.67C1311.44 721.361 1318.59 730.213 1324.99 731.663C1416.15 757.57 1432.57 711.647 1426.8 700.564C1423.42 694.056 1369.35 661.982 1398.2 670.771C1421.28 677.802 1440.46 642.482 1447.16 623.944C1466.59 561.403 1417.42 559.296 1402.18 570.135C1386.59 581.222 1364.05 655.516 1364.07 608.89C1364.1 562.264 1342.64 557.404 1320.24 566.623C1297.85 575.842 1356.92 607.27 1302.68 601.005Z" fill="#CBC5EA"/>
<path d="M1354.86 683.33C1349.93 688.482 1334.53 698.316 1347.53 712.316" stroke="#73628A" stroke-width="1.99713"/>
<path d="M1366.17 679.867L1370.53 701.316" stroke="#73628A" stroke-width="1.99713"/>
<path d="M1372.4 672.262C1382.1 675.961 1395.03 688.816 1395.53 707.816" stroke="#73628A" stroke-width="1.99713"/>
<path d="M1339.4 668.543C1332.78 672.309 1319.03 685.316 1303.53 675.816" stroke="#73628A" stroke-width="1.99713"/>
<path d="M1336.17 659.546L1312.53 665.816" stroke="#73628A" stroke-width="1.99713"/>
<path d="M1332.26 643.609C1322.18 643.834 1293.53 641.82 1292.53 626.82" stroke="#73628A" stroke-width="1.99713"/>
<path d="M1335.73 631.609C1331.35 626.606 1323.53 616.316 1313.03 617.363" stroke="#73628A" stroke-width="1.99713"/>
<path d="M1346.81 625.847C1348.9 615.539 1349.03 593.816 1339.53 588.816" stroke="#73628A" stroke-width="1.99713"/>
<path d="M1384.19 650.11C1396.34 647.348 1426.03 639.318 1421.53 627.316" stroke="#73628A" stroke-width="1.99713"/>
<path d="M1403.69 604.876C1402.35 606.42 1400.55 609.42 1404.11 609.066C1408.56 608.624 1405.97 602.537 1403.69 604.876Z" fill="#73628A" stroke="#73628A" stroke-width="1.99713"/>
<path d="M1339.38 586.755C1338.04 588.299 1336.24 591.299 1339.8 590.945C1344.25 590.502 1341.66 584.416 1339.38 586.755Z" fill="#73628A" stroke="#73628A" stroke-width="1.99713"/>
<path d="M1317.76 616.209C1315.77 615.705 1312.28 615.452 1314.2 618.47C1316.61 622.243 1320.87 617.186 1317.76 616.209Z" fill="#73628A" stroke="#73628A" stroke-width="1.99713"/>
<path d="M1291.9 627.047C1293.69 628.037 1297 629.166 1295.91 625.759C1294.54 621.501 1289.13 625.312 1291.9 627.047Z" fill="#73628A" stroke="#73628A" stroke-width="1.99713"/>
<path d="M1313.72 663.938C1312.92 665.823 1312.14 669.232 1315.41 667.794C1319.51 665.996 1315.16 661.009 1313.72 663.938Z" fill="#73628A" stroke="#73628A" stroke-width="1.99713"/>
<path d="M1302.48 677.132C1304.45 676.577 1307.6 675.053 1304.42 673.399C1300.46 671.33 1299.29 677.842 1302.48 677.132Z" fill="#73628A" stroke="#73628A" stroke-width="1.99713"/>
<path d="M1345.44 712.048C1346.43 713.841 1348.63 716.56 1349.52 713.094C1350.63 708.762 1344.02 709.108 1345.44 712.048Z" fill="#73628A" stroke="#73628A" stroke-width="1.99713"/>
<path d="M1369.22 701.011C1371.23 700.633 1374.5 699.396 1371.49 697.465C1367.72 695.052 1365.98 701.433 1369.22 701.011Z" fill="#73628A" stroke="#73628A" stroke-width="1.99713"/>
<path d="M1397.76 707.589C1396.33 706.125 1393.48 704.091 1393.55 707.668C1393.63 712.139 1399.91 710.046 1397.76 707.589Z" fill="#73628A" stroke="#73628A" stroke-width="1.99713"/>
<path d="M1423.03 627.141C1423.54 625.157 1423.8 621.669 1420.78 623.585C1417 625.98 1422.05 630.254 1423.03 627.141Z" fill="#73628A" stroke="#73628A" stroke-width="1.99713"/>
<path d="M1394.13 630.713C1395.45 632.282 1398.13 634.528 1398.33 630.956C1398.59 626.491 1392.18 628.099 1394.13 630.713Z" fill="#73628A" stroke="#73628A" stroke-width="1.99713"/>
<path d="M1373.03 637.82C1379.73 627.052 1395.03 607.818 1403.53 607.318M1379.53 644.318L1396.03 630.816" stroke="#73628A" stroke-width="1.99713"/>
<path d="M1652.03 836.456C1666.94 833.34 1697.07 820.218 1698.25 792.658C1699.43 765.099 1667.93 810.373 1652.03 836.456Z" fill="#698F40"/>
<path d="M1656.65 875.2C1643.33 869.989 1615.14 853.843 1608.95 830.937C1602.75 808.03 1638.17 850.901 1656.65 875.2Z" fill="#698F40"/>
<path d="M1648.79 738.769C1648.05 759.174 1648.34 796.31 1652.03 836.456M1652.03 836.456C1666.94 833.34 1697.07 820.218 1698.25 792.658C1699.43 765.099 1667.93 810.373 1652.03 836.456ZM1652.03 836.456C1653.2 849.213 1654.71 862.275 1656.65 875.2M1656.65 875.2C1659.39 893.495 1662.97 911.517 1667.6 928.016C1674.77 952.182 1693.75 993.691 1693.75 997.955M1656.65 875.2C1643.33 869.989 1615.14 853.843 1608.95 830.937C1602.75 808.03 1638.17 850.901 1656.65 875.2Z" stroke="#698F40" stroke-width="1.99713"/>
<path fill-rule="evenodd" clip-rule="evenodd" d="M1599.02 647.277C1596.56 645.183 1594.2 642.952 1592.23 640.393C1579.04 623.322 1567.04 596.353 1607.31 601.005C1661.55 607.27 1602.48 575.842 1624.88 566.623C1647.27 557.404 1668.74 562.264 1668.71 608.89C1668.68 655.516 1691.23 581.222 1706.82 570.135C1722.06 559.296 1771.22 561.403 1751.79 623.944C1745.09 642.482 1725.91 677.802 1702.83 670.771C1673.98 661.982 1728.05 694.056 1731.44 700.564C1737.2 711.647 1720.78 757.57 1629.62 731.663C1623.22 730.213 1616.08 721.361 1632.55 697.67C1636.78 691.602 1641.92 680.285 1634.58 681.14C1633.21 681.299 1631.51 681.793 1629.42 682.729C1616.03 688.722 1592.95 714.469 1584.88 680.163C1578.42 652.718 1596.04 651.809 1605.67 654.785C1607.09 655.331 1607.4 654.406 1599.02 647.277ZM1655.27 684.822C1640.31 684.813 1630.83 649.953 1639.85 623.414C1643.09 609.105 1693.38 646.067 1694.07 652.992C1694.76 659.917 1678.59 684.836 1655.27 684.822Z" fill="#EAEAEA"/>
<path d="M1639.85 623.414C1630.83 649.953 1640.31 684.813 1655.27 684.822C1678.59 684.836 1694.76 659.917 1694.07 652.992C1693.38 646.067 1643.09 609.105 1639.85 623.414Z" fill="#73628A"/>
<path fill-rule="evenodd" clip-rule="evenodd" d="M1601.09 585.305C1615.1 585.527 1603.79 551.468 1618.2 546.307C1636.2 539.854 1650.5 566.408 1683.3 521.186C1691.17 512.387 1710.68 505.166 1729.05 541.181C1731.62 546.224 1734.26 551.641 1739.28 554.246C1744.74 557.073 1753.39 558.491 1768.22 554.707C1793.21 551.147 1791.79 590.129 1771.65 612.645C1757.56 627.256 1736.91 661.789 1766.99 683.043C1792.06 700.755 1747.28 756.802 1694.47 750.861C1687.4 750.01 1675.82 750.849 1686.16 761.012C1698.55 773.197 1615.36 794.882 1603.5 745.691C1602.45 741.353 1603.35 735.111 1599.04 733.962C1596.85 733.378 1593.39 733.687 1588.07 735.793C1572.37 742.015 1540.07 721.914 1562.71 691.691C1564.1 689.999 1565.95 677.382 1555.1 685.454C1542.07 695.144 1511.73 647.804 1579.13 645.767C1583.82 646.078 1590.16 644.204 1577.98 634.225C1562.75 621.752 1540.39 584.345 1601.09 585.305ZM1607.31 601.005C1567.04 596.353 1579.04 623.322 1592.23 640.393C1594.2 642.952 1596.56 645.183 1599.02 647.277C1607.4 654.406 1607.09 655.331 1605.67 654.785C1596.04 651.809 1578.42 652.718 1584.88 680.163C1592.95 714.469 1616.03 688.722 1629.42 682.729C1631.51 681.793 1633.21 681.299 1634.58 681.14C1641.92 680.285 1636.78 691.602 1632.55 697.67C1616.08 721.361 1623.22 730.213 1629.62 731.663C1720.78 757.57 1737.2 711.647 1731.44 700.564C1728.05 694.056 1673.98 661.982 1702.83 670.771C1725.91 677.802 1745.09 642.482 1751.79 623.944C1771.22 561.403 1722.06 559.296 1706.82 570.135C1691.23 581.222 1668.68 655.516 1668.71 608.89C1668.74 562.264 1647.27 557.404 1624.88 566.623C1602.48 575.842 1661.55 607.27 1607.31 601.005Z" fill="#CBC5EA"/>
<path d="M1659.49 683.33C1654.56 688.482 1639.16 698.316 1652.16 712.316" stroke="#73628A" stroke-width="1.99713"/>
<path d="M1670.8 679.867L1675.16 697.816" stroke="#73628A" stroke-width="1.99713"/>
<path d="M1677.04 672.262C1686.73 675.961 1699.66 688.816 1700.16 707.816" stroke="#73628A" stroke-width="1.99713"/>
<path d="M1644.03 668.545C1637.41 672.311 1623.16 685.316 1607.66 675.816" stroke="#73628A" stroke-width="1.99713"/>
<path d="M1640.8 659.546L1617.66 666.817" stroke="#73628A" stroke-width="1.99713"/>
<path d="M1636.89 643.609C1626.81 643.834 1599.17 641.82 1598.16 626.82" stroke="#73628A" stroke-width="1.99713"/>
<path d="M1640.36 631.609C1635.98 626.606 1631.16 616.769 1620.66 617.816" stroke="#73628A" stroke-width="1.99713"/>
<path d="M1651.45 625.847C1653.53 615.539 1654.66 592.816 1644.16 588.816" stroke="#73628A" stroke-width="1.99713"/>
<path d="M1688.82 650.111C1700.98 647.348 1731.16 640.316 1726.16 627.317" stroke="#73628A" stroke-width="1.99713"/>
<path d="M1707.32 604.876C1705.98 606.42 1704.18 609.42 1707.74 609.066C1712.19 608.624 1709.6 602.537 1707.32 604.876Z" fill="#73628A" stroke="#73628A" stroke-width="1.99713"/>
<path d="M1644.01 586.755C1642.67 588.299 1640.87 591.299 1644.43 590.945C1648.88 590.502 1646.29 584.416 1644.01 586.755Z" fill="#73628A" stroke="#73628A" stroke-width="1.99713"/>
<path d="M1623.39 616.209C1621.41 615.705 1617.92 615.452 1619.84 618.47C1622.24 622.243 1626.5 617.186 1623.39 616.209Z" fill="#73628A" stroke="#73628A" stroke-width="1.99713"/>
<path d="M1596.53 627.047C1598.32 628.037 1601.63 629.166 1600.54 625.759C1599.17 621.501 1593.77 625.312 1596.53 627.047Z" fill="#73628A" stroke="#73628A" stroke-width="1.99713"/>
<path d="M1618.35 663.938C1617.55 665.823 1616.77 669.232 1620.05 667.794C1624.14 665.996 1619.79 661.009 1618.35 663.938Z" fill="#73628A" stroke="#73628A" stroke-width="1.99713"/>
<path d="M1607.11 677.132C1609.08 676.577 1612.23 675.053 1609.06 673.399C1605.09 671.33 1603.92 677.842 1607.11 677.132Z" fill="#73628A" stroke="#73628A" stroke-width="1.99713"/>
<path d="M1649.07 712.048C1650.06 713.841 1652.26 716.56 1653.15 713.094C1654.26 708.762 1647.65 709.108 1649.07 712.048Z" fill="#73628A" stroke="#73628A" stroke-width="1.99713"/>
<path d="M1673.85 699.011C1675.86 698.633 1679.13 697.396 1676.12 695.465C1672.36 693.052 1670.61 699.433 1673.85 699.011Z" fill="#73628A" stroke="#73628A" stroke-width="1.99713"/>
<path d="M1702.39 706.589C1700.96 705.125 1698.12 703.091 1698.18 706.668C1698.27 711.139 1704.54 709.046 1702.39 706.589Z" fill="#73628A" stroke="#73628A" stroke-width="1.99713"/>
<path d="M1727.66 627.141C1728.17 625.157 1728.43 621.669 1725.41 623.585C1721.63 625.98 1726.68 630.254 1727.66 627.141Z" fill="#73628A" stroke="#73628A" stroke-width="1.99713"/>
<path d="M1698.76 630.713C1700.08 632.282 1702.76 634.528 1702.97 630.956C1703.23 626.491 1696.81 628.099 1698.76 630.713Z" fill="#73628A" stroke="#73628A" stroke-width="1.99713"/>
<path d="M1677.66 637.82C1684.36 627.052 1699.66 607.818 1708.16 607.318M1684.16 644.318L1699.66 630.816" stroke="#73628A" stroke-width="1.99713"/>
<path d="M1956.66 836.456C1971.57 833.34 2001.7 820.218 2002.88 792.658C2004.06 765.099 1972.56 810.373 1956.66 836.456Z" fill="#698F40"/>
<path d="M1961.28 875.2C1947.96 869.989 1919.78 853.843 1913.58 830.937C1907.38 808.03 1942.8 850.901 1961.28 875.2Z" fill="#698F40"/>
<path d="M1953.42 738.769C1952.68 759.174 1952.97 796.31 1956.66 836.456M1956.66 836.456C1971.57 833.34 2001.7 820.218 2002.88 792.658C2004.06 765.099 1972.56 810.373 1956.66 836.456ZM1956.66 836.456C1957.83 849.213 1959.35 862.275 1961.28 875.2M1961.28 875.2C1964.02 893.495 1967.6 911.517 1972.23 928.016C1979.4 952.182 1998.39 993.691 1998.39 997.955M1961.28 875.2C1947.96 869.989 1919.78 853.843 1913.58 830.937C1907.38 808.03 1942.8 850.901 1961.28 875.2Z" stroke="#698F40" stroke-width="1.99713"/>
<path fill-rule="evenodd" clip-rule="evenodd" d="M1903.66 647.277C1901.19 645.183 1898.83 642.952 1896.86 640.393C1883.68 623.322 1871.67 596.353 1911.95 601.005C1966.19 607.27 1907.11 575.842 1929.51 566.623C1951.9 557.404 1973.37 562.264 1973.34 608.89C1973.31 655.516 1995.86 581.222 2011.45 570.135C2026.69 559.296 2075.85 561.403 2056.43 623.944C2049.72 642.482 2030.54 677.802 2007.46 670.771C1978.62 661.982 2032.68 694.056 2036.07 700.564C2041.83 711.647 2025.42 757.57 1934.26 731.663C1927.85 730.213 1920.71 721.361 1937.19 697.67C1941.41 691.602 1946.55 680.285 1939.21 681.14C1937.84 681.299 1936.15 681.793 1934.06 682.729C1920.66 688.722 1897.58 714.469 1889.51 680.163C1883.05 652.718 1900.68 651.809 1910.3 654.785C1911.73 655.331 1912.04 654.406 1903.66 647.277ZM1959.91 684.822C1944.94 684.813 1935.46 649.953 1944.48 623.414C1947.72 609.105 1998.02 646.067 1998.7 652.992C1999.39 659.917 1983.22 684.836 1959.91 684.822Z" fill="#EAEAEA"/>
<path d="M1944.48 623.414C1935.46 649.953 1944.94 684.813 1959.91 684.822C1983.22 684.836 1999.39 659.917 1998.7 652.992C1998.02 646.067 1947.72 609.105 1944.48 623.414Z" fill="#73628A"/>
<path fill-rule="evenodd" clip-rule="evenodd" d="M1905.72 585.305C1919.73 585.527 1908.42 551.468 1922.83 546.307C1940.84 539.854 1955.13 566.408 1987.93 521.186C1995.81 512.387 2015.32 505.166 2033.68 541.181C2036.26 546.224 2038.89 551.641 2043.92 554.246C2049.37 557.073 2058.02 558.491 2072.86 554.707C2097.85 551.147 2096.43 590.129 2076.28 612.645C2062.2 627.256 2041.54 661.789 2071.63 683.043C2096.7 700.755 2051.91 756.802 1999.11 750.861C1992.03 750.01 1980.46 750.849 1990.79 761.012C2003.18 773.197 1919.99 794.882 1908.13 745.691C1907.08 741.353 1907.98 735.111 1903.67 733.962C1901.48 733.378 1898.02 733.687 1892.71 735.793C1877.01 742.015 1844.7 721.914 1867.34 691.691C1868.73 689.999 1870.58 677.382 1859.73 685.454C1846.7 695.144 1816.36 647.804 1883.76 645.767C1888.45 646.078 1894.79 644.204 1882.61 634.225C1867.39 621.752 1845.02 584.345 1905.72 585.305ZM1911.95 601.005C1871.67 596.353 1883.68 623.322 1896.86 640.393C1898.83 642.952 1901.19 645.183 1903.66 647.277C1912.04 654.406 1911.73 655.331 1910.3 654.785C1900.68 651.809 1883.05 652.718 1889.51 680.163C1897.58 714.469 1920.66 688.722 1934.06 682.729C1936.15 681.793 1937.84 681.299 1939.21 681.14C1946.55 680.285 1941.41 691.602 1937.19 697.67C1920.71 721.361 1927.85 730.213 1934.26 731.663C2025.42 757.57 2041.83 711.647 2036.07 700.564C2032.68 694.056 1978.62 661.982 2007.46 670.771C2030.54 677.802 2049.72 642.482 2056.43 623.944C2075.85 561.403 2026.69 559.296 2011.45 570.135C1995.86 581.222 1973.31 655.516 1973.34 608.89C1973.37 562.264 1951.9 557.404 1929.51 566.623C1907.11 575.842 1966.19 607.27 1911.95 601.005Z" fill="#CBC5EA"/>
<path d="M1964.12 683.329C1959.19 688.481 1942.8 697.316 1955.8 711.316" stroke="#73628A" stroke-width="1.99713"/>
<path d="M1975.43 679.867L1980.8 696.816" stroke="#73628A" stroke-width="1.99713"/>
<path d="M1981.67 672.262C1991.36 675.961 2004.3 687.816 2004.8 706.816" stroke="#73628A" stroke-width="1.99713"/>
<path d="M1948.67 668.543C1942.05 672.309 1927.8 684.316 1912.3 674.816" stroke="#73628A" stroke-width="1.99713"/>
<path d="M1945.44 659.543L1923.3 666.816" stroke="#73628A" stroke-width="1.99713"/>
<path d="M1941.52 643.607C1931.44 643.832 1903.8 640.816 1902.8 625.816" stroke="#73628A" stroke-width="1.99713"/>
<path d="M1944.99 631.609C1940.61 626.606 1935.8 616.769 1925.3 617.816" stroke="#73628A" stroke-width="1.99713"/>
<path d="M1956.08 625.847C1958.16 615.539 1959.3 593.816 1948.8 589.816" stroke="#73628A" stroke-width="1.99713"/>
<path d="M1993.45 650.108C2005.61 647.345 2035.8 639.314 2030.8 626.315" stroke="#73628A" stroke-width="1.99713"/>
<path d="M2011.96 604.876C2010.61 606.42 2008.81 609.42 2012.37 609.066C2016.82 608.624 2014.23 602.537 2011.96 604.876Z" fill="#73628A" stroke="#73628A" stroke-width="1.99713"/>
<path d="M1948.65 586.755C1947.3 588.299 1945.5 591.299 1949.06 590.945C1953.51 590.502 1950.92 584.416 1948.65 586.755Z" fill="#73628A" stroke="#73628A" stroke-width="1.99713"/>
<path d="M1927.02 616.209C1925.04 615.705 1921.55 615.452 1923.47 618.47C1925.87 622.243 1930.14 617.186 1927.02 616.209Z" fill="#73628A" stroke="#73628A" stroke-width="1.99713"/>
<path d="M1901.16 627.047C1902.96 628.037 1906.27 629.166 1905.17 625.759C1903.81 621.501 1898.4 625.312 1901.16 627.047Z" fill="#73628A" stroke="#73628A" stroke-width="1.99713"/>
<path d="M1922.99 663.938C1922.18 665.823 1921.4 669.232 1924.68 667.794C1928.77 665.996 1924.43 661.009 1922.99 663.938Z" fill="#73628A" stroke="#73628A" stroke-width="1.99713"/>
<path d="M1911.74 677.132C1913.71 676.577 1916.86 675.053 1913.69 673.399C1909.72 671.33 1908.56 677.842 1911.74 677.132Z" fill="#73628A" stroke="#73628A" stroke-width="1.99713"/>
<path d="M1953.7 712.048C1954.69 713.841 1956.89 716.56 1957.78 713.094C1958.89 708.762 1952.29 709.108 1953.7 712.048Z" fill="#73628A" stroke="#73628A" stroke-width="1.99713"/>
<path d="M1978.48 699.011C1980.49 698.633 1983.77 697.396 1980.75 695.465C1976.99 693.052 1975.25 699.433 1978.48 699.011Z" fill="#73628A" stroke="#73628A" stroke-width="1.99713"/>
<path d="M2007.03 706.589C2005.6 705.125 2002.75 703.091 2002.82 706.668C2002.9 711.139 2009.18 709.046 2007.03 706.589Z" fill="#73628A" stroke="#73628A" stroke-width="1.99713"/>
<path d="M2032.3 627.141C2032.8 625.157 2033.06 621.669 2030.04 623.585C2026.27 625.98 2031.31 630.254 2032.3 627.141Z" fill="#73628A" stroke="#73628A" stroke-width="1.99713"/>
<path d="M2003.4 630.713C2004.71 632.282 2007.39 634.528 2007.6 630.956C2007.86 626.491 2001.44 628.099 2003.4 630.713Z" fill="#73628A" stroke="#73628A" stroke-width="1.99713"/>
<path d="M1982.3 637.818C1989 627.05 2003.3 607.318 2011.8 606.818M1988.8 644.316L2004.8 630.816" stroke="#73628A" stroke-width="1.99713"/>
</svg>
