<svg width="306" height="506" viewBox="0 0 306 506" fill="none" xmlns="http://www.w3.org/2000/svg">
<path d="M129.583 331.57C144.52 328.449 174.69 315.309 175.873 287.709C177.056 260.11 145.506 305.45 129.583 331.57Z" fill="#698F40"/>
<path d="M134.212 370.369C120.874 365.151 92.6465 348.981 86.4407 326.042C80.2349 303.103 115.703 346.036 134.212 370.369Z" fill="#698F40"/>
<path d="M126.342 233.742C125.596 254.176 125.888 291.366 129.583 331.57M129.583 331.57C144.52 328.449 174.69 315.309 175.873 287.709C177.056 260.11 145.506 305.45 129.583 331.57ZM129.583 331.57C130.757 344.345 132.275 357.426 134.212 370.369M134.212 370.369C136.955 388.691 140.538 406.738 145.178 423.261C152.355 447.462 171.369 489.03 171.369 493.301M134.212 370.369C120.874 365.151 92.6465 348.981 86.4407 326.042C80.2349 303.103 115.703 346.036 134.212 370.369Z" stroke="#698F40" stroke-width="2"/>
<path fill-rule="evenodd" clip-rule="evenodd" d="M76.5058 142.12C74.0398 140.022 71.6762 137.788 69.6974 135.225C56.4959 118.129 44.4764 91.122 84.8075 95.7806C139.125 102.055 79.9685 70.5821 102.396 61.3494C124.823 52.1167 146.318 56.9841 146.289 103.677C146.261 150.37 168.842 75.9691 184.453 64.8665C199.716 54.0115 248.95 56.1217 229.495 118.752C222.781 137.318 203.574 172.688 180.462 165.647C151.574 156.845 205.718 188.965 209.107 195.483C214.879 206.582 198.44 252.571 107.15 226.627C100.735 225.174 93.5843 216.31 110.085 192.585C114.311 186.508 119.464 175.175 112.112 176.031C110.742 176.19 109.043 176.685 106.949 177.622C93.538 183.624 70.4211 209.408 62.3376 175.052C55.8708 147.568 73.5225 146.658 83.1568 149.638C84.5878 150.184 84.8982 149.259 76.5058 142.12ZM132.836 179.718C117.853 179.709 108.355 144.799 117.386 118.222C120.631 103.893 171 140.908 171.689 147.843C172.379 154.778 156.183 179.732 132.836 179.718Z" fill="#EAEAEA"/>
<path d="M117.386 118.222C108.355 144.799 117.853 179.709 132.836 179.718C156.183 179.732 172.379 154.778 171.689 147.843C171 140.908 120.631 103.893 117.386 118.222Z" fill="#73628A"/>
<path fill-rule="evenodd" clip-rule="evenodd" d="M78.5759 80.0582C92.6049 80.2801 81.2778 46.1728 95.7049 41.0037C113.739 34.5424 128.054 61.1337 160.905 15.8476C168.788 7.03587 188.327 -0.196316 206.721 35.8706C209.296 40.9207 211.936 46.3455 216.968 48.9549C222.427 51.7854 231.093 53.2062 245.949 49.4165C270.974 45.851 269.552 84.8897 249.381 107.438C235.272 122.069 214.586 156.652 244.716 177.937C269.823 195.674 224.977 251.801 172.092 245.852C165.004 245 153.415 245.84 163.765 256.017C176.174 268.22 92.8636 289.937 80.9839 240.675C79.9363 236.331 80.8399 230.08 76.522 228.929C74.3283 228.344 70.8616 228.653 65.54 230.762C49.8178 236.994 17.4686 216.864 40.1399 186.597C41.5279 184.902 43.3847 172.267 32.5156 180.351C19.4674 190.055 -10.9183 142.647 56.5796 140.607C61.2796 140.918 67.6297 139.042 55.4309 129.049C40.1824 116.557 17.7832 79.0966 78.5759 80.0582ZM84.8075 95.7806C44.4764 91.122 56.4959 118.129 69.6974 135.225C71.6762 137.788 74.0398 140.022 76.5058 142.12C84.8982 149.259 84.5878 150.184 83.1568 149.638C73.5225 146.658 55.8708 147.568 62.3376 175.052C70.4211 209.408 93.538 183.624 106.949 177.622C109.043 176.685 110.742 176.19 112.112 176.031C119.464 175.175 114.311 186.508 110.085 192.585C93.5843 216.31 100.735 225.174 107.15 226.627C198.44 252.571 214.879 206.582 209.107 195.483C205.718 188.965 151.574 156.845 180.462 165.647C203.574 172.688 222.781 137.318 229.495 118.752C248.95 56.1217 199.716 54.0115 184.453 64.8665C168.842 75.9691 146.261 150.37 146.289 103.677C146.318 56.9841 124.823 52.1167 102.396 61.3494C79.9685 70.5821 139.125 102.055 84.8075 95.7806Z" fill="#CBC5EA"/>
<path d="M137.058 178.221C132.123 183.381 123.963 196.798 130.798 209.192" stroke="#73628A" stroke-width="2"/>
<path d="M148.385 174.758L150.453 195.563" stroke="#73628A" stroke-width="2"/>
<path d="M154.631 167.137C164.337 170.841 182.822 183.011 179.112 202.056" stroke="#73628A" stroke-width="2"/>
<path d="M121.579 163.414C114.95 167.185 98.3183 173.663 84.8215 169.402" stroke="#73628A" stroke-width="2"/>
<path d="M118.347 154.402L95.4602 159.011" stroke="#73628A" stroke-width="2"/>
<path d="M114.426 138.445C104.332 138.67 82.3895 135.56 75.3711 121.316" stroke="#73628A" stroke-width="2"/>
<path d="M117.904 126.43C113.515 121.419 102.888 111.581 95.4902 112.316" stroke="#73628A" stroke-width="2"/>
<path d="M129.001 120.658C131.088 110.334 133.044 86.1722 125.096 81.3594" stroke="#73628A" stroke-width="2"/>
<path d="M166.432 144.954C178.608 142.188 203.146 133.835 203.892 122.555" stroke="#73628A" stroke-width="2"/>
<path d="M186.964 96.6535C185.618 98.1998 183.816 101.204 187.381 100.85C191.838 100.407 189.244 94.311 186.964 96.6535Z" fill="#73628A" stroke="#73628A" stroke-width="2"/>
<path d="M124.564 79.5089C123.217 81.0553 121.415 84.0594 124.981 83.705C129.438 83.2621 126.844 77.1665 124.564 79.5089Z" fill="#73628A" stroke="#73628A" stroke-width="2"/>
<path d="M96.9014 111.009C94.914 110.504 91.4201 110.251 93.3443 113.273C95.7495 117.051 100.02 111.987 96.9014 111.009Z" fill="#73628A" stroke="#73628A" stroke-width="2"/>
<path d="M72.0071 120.86C73.8018 121.852 77.1174 122.982 76.0219 119.571C74.6525 115.307 69.2379 119.123 72.0071 120.86Z" fill="#73628A" stroke="#73628A" stroke-width="2"/>
<path d="M94.861 157.809C94.0591 159.696 93.2755 163.11 96.5562 161.67C100.657 159.869 96.304 154.876 94.861 157.809Z" fill="#73628A" stroke="#73628A" stroke-width="2"/>
<path d="M82.6007 172.017C84.5744 171.461 87.7276 169.935 84.5508 168.278C80.5798 166.207 79.4101 172.727 82.6007 172.017Z" fill="#73628A" stroke="#73628A" stroke-width="2"/>
<path d="M127.315 207.772C128.306 209.568 130.51 212.29 131.4 208.82C132.512 204.481 125.897 204.827 127.315 207.772Z" fill="#73628A" stroke="#73628A" stroke-width="2"/>
<path d="M150.437 197.934C152.453 197.556 155.729 196.318 152.713 194.384C148.942 191.967 147.196 198.358 150.437 197.934Z" fill="#73628A" stroke="#73628A" stroke-width="2"/>
<path d="M182.026 202.517C180.592 201.051 177.743 199.014 177.81 202.596C177.894 207.074 184.178 204.978 182.026 202.517Z" fill="#73628A" stroke="#73628A" stroke-width="2"/>
<path d="M205.332 121.955C205.84 119.968 206.099 116.475 203.074 118.394C199.291 120.792 204.348 125.072 205.332 121.955Z" fill="#73628A" stroke="#73628A" stroke-width="2"/>
<path d="M174.383 123.53C175.7 125.102 178.385 127.351 178.593 123.774C178.851 119.303 172.425 120.912 174.383 123.53Z" fill="#73628A" stroke="#73628A" stroke-width="2"/>
<path d="M155.809 132.001C162.519 121.218 178.251 99.4219 187.497 98.5029M161.122 138.476L175.925 122.998" stroke="#73628A" stroke-width="2"/>
</svg>
