<svg width="1830" height="504" viewBox="0 0 1830 504" fill="none" xmlns="http://www.w3.org/2000/svg">
<path d="M129.055 330.087C143.992 326.968 174.164 313.833 175.347 286.244C176.53 258.656 144.978 303.978 129.055 330.087Z" fill="#698F40"/>
<path d="M133.684 368.871C120.345 363.656 92.1162 347.492 85.91 324.562C79.7038 301.632 115.174 344.547 133.684 368.871Z" fill="#698F40"/>
<path d="M125.813 232.299C125.068 252.725 125.359 289.9 129.055 330.087M129.055 330.087C143.992 326.968 174.164 313.833 175.347 286.244C176.53 258.656 144.978 303.978 129.055 330.087ZM129.055 330.087C130.229 342.858 131.747 355.933 133.684 368.871M133.684 368.871C136.427 387.185 140.011 405.226 144.65 421.742C151.828 445.933 170.844 487.485 170.844 491.754M133.684 368.871C120.345 363.656 92.1162 347.492 85.91 324.562C79.7038 301.632 115.174 344.547 133.684 368.871Z" stroke="#698F40" stroke-width="1.99713"/>
<path fill-rule="evenodd" clip-rule="evenodd" d="M75.9688 141.605C73.5054 139.51 71.1444 137.28 69.1675 134.721C55.964 117.632 43.9385 90.6308 84.2752 95.2879C138.595 101.559 79.436 70.0995 101.865 60.8705C124.293 51.6415 145.789 56.507 145.761 103.181C145.732 149.855 168.315 75.4843 183.927 64.3861C199.19 53.5355 248.427 55.6449 228.971 118.251C222.256 136.808 203.048 172.164 179.936 165.126C151.045 156.328 205.193 188.436 208.582 194.95C214.355 206.045 197.914 252.016 106.619 226.082C100.203 224.63 93.0506 215.767 109.561 192.043C113.784 185.976 118.937 174.659 111.593 175.505C110.221 175.663 108.518 176.157 106.418 177.097C93.0063 183.096 69.888 208.87 61.804 174.528C55.3368 147.055 72.9896 146.145 82.6244 149.124C84.0558 149.67 84.3661 148.744 75.9688 141.605Z" fill="#EAEAEA"/>
<path fill-rule="evenodd" clip-rule="evenodd" d="M78.0432 79.5718C92.0731 79.7937 80.7453 45.7 95.1732 40.5329C113.208 34.0742 127.524 60.6548 160.377 15.3868C168.261 6.57811 187.803 -0.651509 206.198 35.408C208.772 40.452 211.41 45.8694 216.436 48.477C221.895 51.3089 230.562 52.7323 245.426 48.9423C270.453 45.3782 269.03 84.4013 248.859 106.941C234.749 121.566 214.061 156.136 244.192 177.411C269.302 195.141 224.452 251.246 171.565 245.299C164.477 244.448 152.887 245.288 163.237 255.461C175.648 267.659 92.3272 289.368 80.4504 240.12C79.4038 235.781 80.307 229.537 75.9941 228.384C73.8006 227.798 70.3325 228.106 65.0066 230.216C49.2835 236.445 16.9324 216.323 39.6051 186.068C40.9931 184.374 42.8501 171.744 31.9804 179.824C18.9314 189.525 -11.456 142.135 56.0457 140.097C60.7459 140.408 67.0964 138.532 54.8969 128.543C39.6475 116.056 17.2471 78.6106 78.0432 79.5718ZM84.2752 95.2879C43.9385 90.6308 55.964 117.632 69.1675 134.721C71.1444 137.28 73.5054 139.51 75.9688 141.605C84.3661 148.744 84.0558 149.67 82.6244 149.124C72.9896 146.145 55.3368 147.055 61.804 174.528C69.888 208.87 93.0063 183.096 106.418 177.097C108.518 176.157 110.221 175.663 111.593 175.505C118.937 174.659 113.784 185.976 109.561 192.043C93.0506 215.767 100.203 224.63 106.619 226.082C197.914 252.016 214.355 206.045 208.582 194.95C205.193 188.436 151.045 156.328 179.936 165.126C203.048 172.164 222.256 136.808 228.971 118.251C248.427 55.6449 199.19 53.5355 183.927 64.3861C168.315 75.4843 145.732 149.855 145.761 103.181C145.789 56.507 124.293 51.6415 101.865 60.8705C79.436 70.0995 138.595 101.559 84.2752 95.2879Z" fill="#CBC5EA"/>
<path d="M119.559 112.999C110.539 139.561 120.025 174.451 134.989 174.46C158.305 174.474 174.48 149.534 173.791 142.603C173.103 135.672 122.799 98.6775 119.559 112.999Z" fill="#73628A"/>
<path d="M139.202 172.964C134.274 178.121 126.124 191.53 132.95 203.917" stroke="#73628A" stroke-width="1.99713"/>
<path d="M150.518 169.5L152.583 190.293" stroke="#73628A" stroke-width="1.99713"/>
<path d="M156.754 161.891C166.448 165.593 184.909 177.756 181.203 196.79" stroke="#73628A" stroke-width="1.99713"/>
<path d="M123.746 158.17C117.125 161.939 100.515 168.413 87.0361 164.154" stroke="#73628A" stroke-width="1.99713"/>
<path d="M120.517 149.161L97.6591 153.767" stroke="#73628A" stroke-width="1.99713"/>
<path d="M116.602 133.209C106.521 133.434 84.607 130.325 77.5977 116.09" stroke="#73628A" stroke-width="1.99713"/>
<path d="M120.074 121.2C115.691 116.192 105.077 106.359 97.6895 107.094" stroke="#73628A" stroke-width="1.99713"/>
<path d="M131.159 115.436C133.242 105.119 135.195 80.9703 127.258 76.1602" stroke="#73628A" stroke-width="1.99713"/>
<path d="M168.539 139.721C180.699 136.956 205.205 128.608 205.951 117.335" stroke="#73628A" stroke-width="1.99713"/>
<path d="M189.047 91.4424C187.703 92.9879 185.904 95.9902 189.464 95.6361C193.914 95.1935 191.324 89.1014 189.047 91.4424Z" fill="#73628A" stroke="#73628A" stroke-width="1.99713"/>
<path d="M127.03 76.3096C125.685 77.8551 123.886 80.8574 127.446 80.5033C131.897 80.0607 129.306 73.9686 127.03 76.3096Z" fill="#73628A" stroke="#73628A" stroke-width="1.99713"/>
<path d="M99.0977 105.789C97.113 105.285 93.624 105.031 95.5456 108.052C97.9476 111.828 102.212 106.767 99.0977 105.789Z" fill="#73628A" stroke="#73628A" stroke-width="1.99713"/>
<path d="M75.2338 116.635C77.0261 117.626 80.337 118.756 79.243 115.346C77.8754 111.085 72.4686 114.899 75.2338 116.635Z" fill="#73628A" stroke="#73628A" stroke-width="1.99713"/>
<path d="M97.0613 152.559C96.2606 154.445 95.4783 157.857 98.7543 156.418C102.849 154.619 98.5022 149.628 97.0613 152.559Z" fill="#73628A" stroke="#73628A" stroke-width="1.99713"/>
<path d="M84.8178 166.764C86.7888 166.208 89.9376 164.683 86.7653 163.027C82.7998 160.958 81.6316 167.474 84.8178 166.764Z" fill="#73628A" stroke="#73628A" stroke-width="1.99713"/>
<path d="M129.472 202.5C130.462 204.294 132.663 207.015 133.551 203.546C134.662 199.21 128.056 199.557 129.472 202.5Z" fill="#73628A" stroke="#73628A" stroke-width="1.99713"/>
<path d="M152.566 192.666C154.579 192.288 157.851 191.05 154.839 189.118C151.073 186.703 149.329 193.089 152.566 192.666Z" fill="#73628A" stroke="#73628A" stroke-width="1.99713"/>
<path d="M184.114 197.247C182.683 195.781 179.837 193.745 179.904 197.326C179.988 201.801 186.263 199.706 184.114 197.247Z" fill="#73628A" stroke="#73628A" stroke-width="1.99713"/>
<path d="M207.389 116.728C207.896 114.742 208.155 111.251 205.134 113.169C201.357 115.566 206.406 119.843 207.389 116.728Z" fill="#73628A" stroke="#73628A" stroke-width="1.99713"/>
<path d="M176.482 118.301C177.797 119.872 180.479 122.119 180.685 118.544C180.944 114.076 174.527 115.684 176.482 118.301Z" fill="#73628A" stroke="#73628A" stroke-width="1.99713"/>
<path d="M156.859 128.215C163.56 117.438 180.344 94.2098 189.579 93.2914M163.237 133.242L178.021 117.773" stroke="#73628A" stroke-width="1.99713"/>
<path d="M434.055 330.087C448.992 326.968 479.164 313.833 480.347 286.244C481.53 258.656 449.978 303.978 434.055 330.087Z" fill="#698F40"/>
<path d="M438.684 368.871C425.345 363.656 397.116 347.492 390.91 324.562C384.704 301.632 420.174 344.547 438.684 368.871Z" fill="#698F40"/>
<path d="M430.813 232.299C430.068 252.725 430.359 289.9 434.055 330.087M434.055 330.087C448.992 326.968 479.164 313.833 480.347 286.244C481.53 258.656 449.978 303.978 434.055 330.087ZM434.055 330.087C435.229 342.858 436.747 355.933 438.684 368.871M438.684 368.871C441.427 387.185 445.011 405.226 449.65 421.742C456.828 445.933 475.844 487.485 475.844 491.754M438.684 368.871C425.345 363.656 397.116 347.492 390.91 324.562C384.704 301.632 420.174 344.547 438.684 368.871Z" stroke="#698F40" stroke-width="1.99713"/>
<path fill-rule="evenodd" clip-rule="evenodd" d="M380.969 141.605C378.505 139.51 376.144 137.28 374.168 134.721C360.964 117.632 348.939 90.6308 389.275 95.2879C443.595 101.559 384.436 70.0995 406.865 60.8705C429.293 51.6415 450.789 56.507 450.761 103.181C450.732 149.855 473.315 75.4843 488.927 64.3861C504.19 53.5355 553.427 55.6449 533.971 118.251C527.256 136.808 508.048 172.164 484.936 165.126C456.045 156.328 510.193 188.436 513.582 194.95C519.355 206.045 502.914 252.016 411.619 226.082C405.203 224.63 398.051 215.767 414.561 192.043C418.784 185.976 423.937 174.659 416.593 175.505C415.221 175.663 413.518 176.157 411.418 177.097C398.006 183.096 374.888 208.87 366.804 174.528C360.337 147.055 377.99 146.145 387.624 149.124C389.056 149.67 389.366 148.744 380.969 141.605Z" fill="#EAEAEA"/>
<path fill-rule="evenodd" clip-rule="evenodd" d="M383.043 79.5718C397.073 79.7937 385.745 45.7 400.173 40.5329C418.208 34.0742 432.524 60.6548 465.377 15.3868C473.261 6.57811 492.803 -0.651509 511.198 35.408C513.772 40.452 516.41 45.8694 521.436 48.477C526.895 51.3089 535.562 52.7323 550.426 48.9423C575.453 45.3782 574.03 84.4013 553.859 106.941C539.749 121.566 519.061 156.136 549.192 177.411C574.302 195.141 529.452 251.246 476.565 245.299C469.477 244.448 457.887 245.288 468.237 255.461C480.648 267.659 397.327 289.368 385.45 240.12C384.404 235.781 385.307 229.537 380.994 228.384C378.801 227.798 375.332 228.106 370.007 230.216C354.284 236.445 321.932 216.323 344.605 186.068C345.993 184.374 347.85 171.744 336.98 179.824C323.931 189.525 293.544 142.135 361.046 140.097C365.746 140.408 372.096 138.532 359.897 128.543C344.648 116.056 322.247 78.6106 383.043 79.5718ZM389.275 95.2879C348.939 90.6308 360.964 117.632 374.168 134.721C376.144 137.28 378.505 139.51 380.969 141.605C389.366 148.744 389.056 149.67 387.624 149.124C377.99 146.145 360.337 147.055 366.804 174.528C374.888 208.87 398.006 183.096 411.418 177.097C413.518 176.157 415.221 175.663 416.593 175.505C423.937 174.659 418.784 185.976 414.561 192.043C398.051 215.767 405.203 224.63 411.619 226.082C502.914 252.016 519.355 206.045 513.582 194.95C510.193 188.436 456.045 156.328 484.936 165.126C508.048 172.164 527.256 136.808 533.971 118.251C553.427 55.6449 504.19 53.5355 488.927 64.3861C473.315 75.4843 450.732 149.855 450.761 103.181C450.789 56.507 429.293 51.6415 406.865 60.8705C384.436 70.0995 443.595 101.559 389.275 95.2879Z" fill="#CBC5EA"/>
<path d="M424.583 113.347C415.565 139.886 425.049 174.745 440.011 174.754C463.324 174.769 479.496 149.85 478.808 142.925C478.12 136 427.823 99.0377 424.583 113.347Z" fill="#73628A"/>
<path d="M444.224 173.26C439.297 178.412 434.545 189.496 437.045 204.496" stroke="#73628A" stroke-width="1.99713"/>
<path d="M455.537 169.799L458.545 190.496" stroke="#73628A" stroke-width="1.99713"/>
<path d="M461.773 162.193C471.466 165.892 487.545 178.996 487.045 196.496" stroke="#73628A" stroke-width="1.99713"/>
<path d="M428.768 158.478C422.149 162.244 405.543 165.998 392.064 165.457" stroke="#73628A" stroke-width="1.99713"/>
<path d="M425.54 149.479L402.542 154.498" stroke="#73628A" stroke-width="1.99713"/>
<path d="M421.625 133.54C411.546 133.765 388.545 131.496 382.627 116.436" stroke="#73628A" stroke-width="1.99713"/>
<path d="M425.098 121.541C420.715 116.537 409.043 110.496 402.717 107.447" stroke="#73628A" stroke-width="1.99713"/>
<path d="M436.182 115.782C438.265 105.474 441.98 86.8051 434.043 81.9992" stroke="#73628A" stroke-width="1.99713"/>
<path d="M473.556 140.043C485.714 137.281 509.627 125.816 512.545 117.996" stroke="#73628A" stroke-width="1.99713"/>
<path d="M492.061 91.8074C490.716 93.3516 488.917 96.3514 492.477 95.9975C496.928 95.5552 494.338 89.4684 492.061 91.8074Z" fill="#73628A" stroke="#73628A" stroke-width="1.99713"/>
<path d="M432.051 79.6863C430.707 81.2305 428.907 84.2303 432.468 83.8764C436.918 83.4341 434.328 77.3473 432.051 79.6863Z" fill="#73628A" stroke="#73628A" stroke-width="1.99713"/>
<path d="M405.125 105.145C403.14 104.641 399.652 104.388 401.573 107.406C403.975 111.179 408.239 106.122 405.125 105.145Z" fill="#73628A" stroke="#73628A" stroke-width="1.99713"/>
<path d="M379.265 117.978C381.057 118.968 384.368 120.097 383.274 116.691C381.907 112.433 376.5 116.244 379.265 117.978Z" fill="#73628A" stroke="#73628A" stroke-width="1.99713"/>
<path d="M402.089 151.87C401.288 153.754 400.505 157.164 403.781 155.725C407.876 153.927 403.53 148.941 402.089 151.87Z" fill="#73628A" stroke="#73628A" stroke-width="1.99713"/>
<path d="M390.847 167.064C392.818 166.509 395.967 164.985 392.794 163.33C388.829 161.262 387.661 167.773 390.847 167.064Z" fill="#73628A" stroke="#73628A" stroke-width="1.99713"/>
<path d="M434.496 203.769C435.485 205.562 437.686 208.28 438.575 204.815C439.685 200.483 433.079 200.828 434.496 203.769Z" fill="#73628A" stroke="#73628A" stroke-width="1.99713"/>
<path d="M457.586 194.946C459.598 194.569 462.87 193.332 459.858 191.401C456.093 188.988 454.349 195.369 457.586 194.946Z" fill="#73628A" stroke="#73628A" stroke-width="1.99713"/>
<path d="M489.13 196.52C487.699 195.056 484.853 193.022 484.92 196.599C485.004 201.071 491.279 198.977 489.13 196.52Z" fill="#73628A" stroke="#73628A" stroke-width="1.99713"/>
<path d="M514.401 117.077C514.908 115.093 515.167 111.605 512.146 113.521C508.369 115.916 513.418 120.189 514.401 117.077Z" fill="#73628A" stroke="#73628A" stroke-width="1.99713"/>
<path d="M482.587 117.683C483.902 119.253 486.584 121.499 486.791 117.927C487.049 113.462 480.633 115.069 482.587 117.683Z" fill="#73628A" stroke="#73628A" stroke-width="1.99713"/>
<path d="M461.877 128.551C468.577 117.784 489.543 97.498 492.543 92.9994M468.254 133.574L484.043 116.998" stroke="#73628A" stroke-width="1.99713"/>
<path d="M739.055 330.087C753.992 326.968 784.164 313.833 785.347 286.244C786.53 258.656 754.978 303.978 739.055 330.087Z" fill="#698F40"/>
<path d="M743.684 368.871C730.345 363.656 702.116 347.492 695.91 324.562C689.704 301.632 725.174 344.547 743.684 368.871Z" fill="#698F40"/>
<path d="M735.813 232.299C735.068 252.725 735.359 289.9 739.055 330.087M739.055 330.087C753.992 326.968 784.164 313.833 785.347 286.244C786.53 258.656 754.978 303.978 739.055 330.087ZM739.055 330.087C740.229 342.858 741.747 355.933 743.684 368.871M743.684 368.871C746.427 387.185 750.011 405.226 754.65 421.742C761.828 445.933 780.844 487.485 780.844 491.754M743.684 368.871C730.345 363.656 702.116 347.492 695.91 324.562C689.704 301.632 725.174 344.547 743.684 368.871Z" stroke="#698F40" stroke-width="1.99713"/>
<path fill-rule="evenodd" clip-rule="evenodd" d="M685.969 141.605C683.505 139.51 681.144 137.28 679.168 134.721C665.964 117.632 653.939 90.6308 694.275 95.2879C748.595 101.559 689.436 70.0995 711.865 60.8705C734.293 51.6415 755.789 56.507 755.761 103.181C755.732 149.855 778.315 75.4843 793.927 64.3861C809.19 53.5355 858.427 55.6449 838.971 118.251C832.256 136.808 813.048 172.164 789.936 165.126C761.045 156.328 815.193 188.436 818.582 194.95C824.355 206.045 807.914 252.016 716.619 226.082C710.203 224.63 703.051 215.767 719.561 192.043C723.784 185.976 728.937 174.659 721.593 175.505C720.221 175.663 718.518 176.157 716.418 177.097C703.006 183.096 679.888 208.87 671.804 174.528C665.337 147.055 682.99 146.145 692.624 149.124C694.056 149.67 694.366 148.744 685.969 141.605Z" fill="#EAEAEA"/>
<path fill-rule="evenodd" clip-rule="evenodd" d="M688.043 79.5718C702.073 79.7937 690.745 45.7 705.173 40.5329C723.208 34.0742 737.524 60.6548 770.377 15.3868C778.261 6.57811 797.803 -0.651509 816.198 35.408C818.772 40.452 821.41 45.8694 826.436 48.477C831.895 51.3089 840.562 52.7323 855.426 48.9423C880.453 45.3782 879.03 84.4013 858.859 106.941C844.749 121.566 824.061 156.136 854.192 177.411C879.302 195.141 834.452 251.246 781.565 245.299C774.477 244.448 762.887 245.288 773.237 255.461C785.648 267.659 702.327 289.368 690.45 240.12C689.404 235.781 690.307 229.537 685.994 228.384C683.801 227.798 680.332 228.106 675.007 230.216C659.284 236.445 626.932 216.323 649.605 186.068C650.993 184.374 652.85 171.744 641.98 179.824C628.931 189.525 598.544 142.135 666.046 140.097C670.746 140.408 677.096 138.532 664.897 128.543C649.648 116.056 627.247 78.6106 688.043 79.5718ZM694.275 95.2879C653.939 90.6308 665.964 117.632 679.168 134.721C681.144 137.28 683.505 139.51 685.969 141.605C694.366 148.744 694.056 149.67 692.624 149.124C682.99 146.145 665.337 147.055 671.804 174.528C679.888 208.87 703.006 183.096 716.418 177.097C718.518 176.157 720.221 175.663 721.593 175.505C728.937 174.659 723.784 185.976 719.561 192.043C703.051 215.767 710.203 224.63 716.619 226.082C807.914 252.016 824.355 206.045 818.582 194.95C815.193 188.436 761.045 156.328 789.936 165.126C813.048 172.164 832.256 136.808 838.971 118.251C858.427 55.6449 809.19 53.5355 793.927 64.3861C778.315 75.4843 755.732 149.855 755.761 103.181C755.789 56.507 734.293 51.6415 711.865 60.8705C689.436 70.0995 748.595 101.559 694.275 95.2879Z" fill="#CBC5EA"/>
<path d="M729.54 113.347C720.522 139.886 730.006 174.745 744.968 174.754C768.281 174.769 784.453 149.85 783.765 142.925C783.077 136 732.78 99.0377 729.54 113.347Z" fill="#73628A"/>
<path d="M749.181 173.26C744.254 178.412 738.5 187.496 741 202.496" stroke="#73628A" stroke-width="1.99713"/>
<path d="M760.494 169.799L763 191.996" stroke="#73628A" stroke-width="1.99713"/>
<path d="M766.73 162.193C776.423 165.892 790.5 179.496 792.002 196.496" stroke="#73628A" stroke-width="1.99713"/>
<path d="M733.726 158.476C727.107 162.242 711 167.996 698 165.496" stroke="#73628A" stroke-width="1.99713"/>
<path d="M730.498 149.478L707.5 152.996" stroke="#73628A" stroke-width="1.99713"/>
<path d="M726.582 133.542C716.503 133.767 693.418 133.059 687.5 117.998" stroke="#73628A" stroke-width="1.99713"/>
<path d="M730.055 121.543C725.672 116.539 714.5 109.998 708.5 108.998" stroke="#73628A" stroke-width="1.99713"/>
<path d="M741.137 115.781C743.221 105.472 747.437 89.8046 739.5 84.9987" stroke="#73628A" stroke-width="1.99713"/>
<path d="M778.513 140.046C790.672 137.284 821.498 120.499 817.5 117.499" stroke="#73628A" stroke-width="1.99713"/>
<path d="M795.018 91.8074C793.673 93.3516 791.874 96.3514 795.434 95.9975C799.885 95.5552 797.295 89.4684 795.018 91.8074Z" fill="#73628A" stroke="#73628A" stroke-width="1.99713"/>
<path d="M737.008 81.6863C735.664 83.2305 733.864 86.2303 737.425 85.8764C741.875 85.4341 739.285 79.3473 737.008 81.6863Z" fill="#73628A" stroke="#73628A" stroke-width="1.99713"/>
<path d="M709.082 106.141C707.097 105.637 703.609 105.384 705.53 108.402C707.932 112.175 712.196 107.118 709.082 106.141Z" fill="#73628A" stroke="#73628A" stroke-width="1.99713"/>
<path d="M684.222 118.822C686.014 119.812 689.325 120.941 688.231 117.535C686.864 113.276 681.457 117.088 684.222 118.822Z" fill="#73628A" stroke="#73628A" stroke-width="1.99713"/>
<path d="M706.981 151.46C706.18 153.344 705.398 156.754 708.674 155.315C712.769 153.517 708.422 148.531 706.981 151.46Z" fill="#73628A" stroke="#73628A" stroke-width="1.99713"/>
<path d="M696.467 167.15C698.128 165.954 700.565 163.444 697.018 162.976C692.584 162.391 693.716 168.908 696.467 167.15Z" fill="#73628A" stroke="#73628A" stroke-width="1.99713"/>
<path d="M739.663 203.024C739.864 205.062 740.812 208.429 742.997 205.596C745.729 202.055 739.524 199.763 739.663 203.024Z" fill="#73628A" stroke="#73628A" stroke-width="1.99713"/>
<path d="M762.062 194.656C764.098 194.875 767.587 194.634 765.26 191.917C762.35 188.521 758.841 194.128 762.062 194.656Z" fill="#73628A" stroke="#73628A" stroke-width="1.99713"/>
<path d="M793.985 196.18C792.308 195.005 789.136 193.531 789.862 197.034C790.77 201.413 796.551 198.198 793.985 196.18Z" fill="#73628A" stroke="#73628A" stroke-width="1.99713"/>
<path d="M817.504 116.612C818.012 114.628 818.271 111.14 815.249 113.056C811.473 115.451 816.522 119.725 817.504 116.612Z" fill="#73628A" stroke="#73628A" stroke-width="1.99713"/>
<path d="M789.544 117.68C790.859 119.249 793.541 121.495 793.748 117.923C794.006 113.458 787.59 115.065 789.544 117.68Z" fill="#73628A" stroke="#73628A" stroke-width="1.99713"/>
<path d="M766.835 128.55C773.536 117.783 789.501 91.4977 794.5 92.998M773.213 133.573L790 117.998" stroke="#73628A" stroke-width="1.99713"/>
<path d="M1044.05 330.087C1058.99 326.968 1089.16 313.833 1090.35 286.244C1091.53 258.656 1059.98 303.978 1044.05 330.087Z" fill="#698F40"/>
<path d="M1048.68 368.871C1035.35 363.656 1007.12 347.492 1000.91 324.562C994.704 301.632 1030.17 344.547 1048.68 368.871Z" fill="#698F40"/>
<path d="M1040.81 232.299C1040.07 252.725 1040.36 289.9 1044.05 330.087M1044.05 330.087C1058.99 326.968 1089.16 313.833 1090.35 286.244C1091.53 258.656 1059.98 303.978 1044.05 330.087ZM1044.05 330.087C1045.23 342.858 1046.75 355.933 1048.68 368.871M1048.68 368.871C1051.43 387.185 1055.01 405.226 1059.65 421.742C1066.83 445.933 1085.84 487.485 1085.84 491.754M1048.68 368.871C1035.35 363.656 1007.12 347.492 1000.91 324.562C994.704 301.632 1030.17 344.547 1048.68 368.871Z" stroke="#698F40" stroke-width="1.99713"/>
<path fill-rule="evenodd" clip-rule="evenodd" d="M990.969 141.605C988.505 139.51 986.144 137.28 984.168 134.721C970.964 117.632 958.939 90.6308 999.275 95.2879C1053.6 101.559 994.436 70.0995 1016.86 60.8705C1039.29 51.6415 1060.79 56.507 1060.76 103.181C1060.73 149.855 1083.31 75.4843 1098.93 64.3861C1114.19 53.5355 1163.43 55.6449 1143.97 118.251C1137.26 136.808 1118.05 172.164 1094.94 165.126C1066.05 156.328 1120.19 188.436 1123.58 194.95C1129.35 206.045 1112.91 252.016 1021.62 226.082C1015.2 224.63 1008.05 215.767 1024.56 192.043C1028.78 185.976 1033.94 174.659 1026.59 175.505C1025.22 175.663 1023.52 176.157 1021.42 177.097C1008.01 183.096 984.888 208.87 976.804 174.528C970.337 147.055 987.99 146.145 997.624 149.124C999.056 149.67 999.366 148.744 990.969 141.605Z" fill="#EAEAEA"/>
<path fill-rule="evenodd" clip-rule="evenodd" d="M993.043 79.5718C1007.07 79.7937 995.745 45.7 1010.17 40.5329C1028.21 34.0742 1042.52 60.6548 1075.38 15.3868C1083.26 6.57811 1102.8 -0.651509 1121.2 35.408C1123.77 40.452 1126.41 45.8694 1131.44 48.477C1136.89 51.3089 1145.56 52.7323 1160.43 48.9423C1185.45 45.3782 1184.03 84.4013 1163.86 106.941C1149.75 121.566 1129.06 156.136 1159.19 177.411C1184.3 195.141 1139.45 251.246 1086.57 245.299C1079.48 244.448 1067.89 245.288 1078.24 255.461C1090.65 267.659 1007.33 289.368 995.45 240.12C994.404 235.781 995.307 229.537 990.994 228.384C988.801 227.798 985.332 228.106 980.007 230.216C964.284 236.445 931.932 216.323 954.605 186.068C955.993 184.374 957.85 171.744 946.98 179.824C933.931 189.525 903.544 142.135 971.046 140.097C975.746 140.408 982.096 138.532 969.897 128.543C954.648 116.056 932.247 78.6106 993.043 79.5718ZM999.275 95.2879C958.939 90.6308 970.964 117.632 984.168 134.721C986.144 137.28 988.505 139.51 990.969 141.605C999.366 148.744 999.056 149.67 997.624 149.124C987.99 146.145 970.337 147.055 976.804 174.528C984.888 208.87 1008.01 183.096 1021.42 177.097C1023.52 176.157 1025.22 175.663 1026.59 175.505C1033.94 174.659 1028.78 185.976 1024.56 192.043C1008.05 215.767 1015.2 224.63 1021.62 226.082C1112.91 252.016 1129.35 206.045 1123.58 194.95C1120.19 188.436 1066.05 156.328 1094.94 165.126C1118.05 172.164 1137.26 136.808 1143.97 118.251C1163.43 55.6449 1114.19 53.5355 1098.93 64.3861C1083.31 75.4843 1060.73 149.855 1060.76 103.181C1060.79 56.507 1039.29 51.6415 1016.86 60.8705C994.436 70.0995 1053.6 101.559 999.275 95.2879Z" fill="#CBC5EA"/>
<path d="M1034.56 113.347C1025.54 139.886 1035.03 174.745 1049.99 174.754C1073.3 174.769 1089.47 149.85 1088.79 142.925C1088.1 136 1037.8 99.0377 1034.56 113.347Z" fill="#73628A"/>
<path d="M1054.2 173.262C1049.28 178.414 1042.52 186.998 1045.02 201.998" stroke="#73628A" stroke-width="1.99713"/>
<path d="M1065.52 169.802L1066.52 192" stroke="#73628A" stroke-width="1.99713"/>
<path d="M1071.75 162.193C1081.44 165.892 1095.52 176.996 1097.02 193.996" stroke="#73628A" stroke-width="1.99713"/>
<path d="M1038.75 158.476C1032.13 162.242 1015.52 166.498 1002.52 163.998" stroke="#73628A" stroke-width="1.99713"/>
<path d="M1035.52 149.479L1014.52 152.998" stroke="#73628A" stroke-width="1.99713"/>
<path d="M1031.6 133.542C1021.52 133.767 998.439 134.559 992.521 119.498" stroke="#73628A" stroke-width="1.99713"/>
<path d="M1035.08 121.543C1030.69 116.539 1019 110.498 1013 109.498" stroke="#73628A" stroke-width="1.99713"/>
<path d="M1046.16 115.782C1048.24 105.473 1052.44 91.3059 1044.5 86.5" stroke="#73628A" stroke-width="1.99713"/>
<path d="M1083.53 140.046C1095.69 137.284 1126.52 118.499 1122.52 115.499" stroke="#73628A" stroke-width="1.99713"/>
<path d="M1102.03 91.6863C1100.69 93.2305 1098.89 96.2303 1102.45 95.8764C1106.9 95.4341 1104.31 89.3473 1102.03 91.6863Z" fill="#73628A" stroke="#73628A" stroke-width="1.99713"/>
<path d="M1042.01 83.6863C1040.66 85.2305 1038.86 88.2303 1042.42 87.8764C1046.88 87.4341 1044.28 81.3473 1042.01 83.6863Z" fill="#73628A" stroke="#73628A" stroke-width="1.99713"/>
<path d="M1013.61 107.895C1011.63 107.391 1008.14 107.138 1010.06 110.156C1012.46 113.929 1016.73 108.872 1013.61 107.895Z" fill="#73628A" stroke="#73628A" stroke-width="1.99713"/>
<path d="M990.171 119.85C992.217 119.932 995.683 119.457 993.178 116.902C990.047 113.708 986.922 119.539 990.171 119.85Z" fill="#73628A" stroke="#73628A" stroke-width="1.99713"/>
<path d="M1011 151.46C1010.2 153.344 1009.42 156.754 1012.7 155.315C1016.79 153.517 1012.44 148.531 1011 151.46Z" fill="#73628A" stroke="#73628A" stroke-width="1.99713"/>
<path d="M1001.72 165.522C1003.38 164.325 1005.82 161.815 1002.27 161.347C997.836 160.762 998.968 167.279 1001.72 165.522Z" fill="#73628A" stroke="#73628A" stroke-width="1.99713"/>
<path d="M1043.57 202.368C1043.77 204.405 1044.72 207.772 1046.9 204.94C1049.63 201.399 1043.43 199.107 1043.57 202.368Z" fill="#73628A" stroke="#73628A" stroke-width="1.99713"/>
<path d="M1066.08 194.656C1068.12 194.875 1071.61 194.634 1069.28 191.917C1066.37 188.521 1062.86 194.128 1066.08 194.656Z" fill="#73628A" stroke="#73628A" stroke-width="1.99713"/>
<path d="M1099.01 195.184C1097.33 194.009 1094.16 192.535 1094.88 196.038C1095.79 200.417 1101.57 197.202 1099.01 195.184Z" fill="#73628A" stroke="#73628A" stroke-width="1.99713"/>
<path d="M1122.53 115.612C1123.03 113.628 1123.29 110.14 1120.27 112.056C1116.49 114.451 1121.54 118.725 1122.53 115.612Z" fill="#73628A" stroke="#73628A" stroke-width="1.99713"/>
<path d="M1094.57 117.681C1095.88 119.25 1097.31 121.192 1098.77 117.924C1100.52 113.998 1092.61 115.067 1094.57 117.681Z" fill="#73628A" stroke="#73628A" stroke-width="1.99713"/>
<path d="M1071.86 128.549C1078.56 117.781 1097.02 92.9953 1101.02 92.9961M1078.23 133.572L1095.02 117.997" stroke="#73628A" stroke-width="1.99713"/>
<path d="M1349.05 330.087C1363.99 326.968 1394.16 313.833 1395.35 286.244C1396.53 258.656 1364.98 303.978 1349.05 330.087Z" fill="#698F40"/>
<path d="M1353.68 368.871C1340.35 363.656 1312.12 347.492 1305.91 324.562C1299.7 301.632 1335.17 344.547 1353.68 368.871Z" fill="#698F40"/>
<path d="M1345.81 232.299C1345.07 252.725 1345.36 289.9 1349.05 330.087M1349.05 330.087C1363.99 326.968 1394.16 313.833 1395.35 286.244C1396.53 258.656 1364.98 303.978 1349.05 330.087ZM1349.05 330.087C1350.23 342.858 1351.75 355.933 1353.68 368.871M1353.68 368.871C1356.43 387.185 1360.01 405.226 1364.65 421.742C1371.83 445.933 1390.84 487.485 1390.84 491.754M1353.68 368.871C1340.35 363.656 1312.12 347.492 1305.91 324.562C1299.7 301.632 1335.17 344.547 1353.68 368.871Z" stroke="#698F40" stroke-width="1.99713"/>
<path fill-rule="evenodd" clip-rule="evenodd" d="M1295.97 141.605C1293.51 139.51 1291.14 137.28 1289.17 134.721C1275.96 117.632 1263.94 90.6308 1304.28 95.2879C1358.6 101.559 1299.44 70.0995 1321.86 60.8705C1344.29 51.6415 1365.79 56.507 1365.76 103.181C1365.73 149.855 1388.31 75.4843 1403.93 64.3861C1419.19 53.5355 1468.43 55.6449 1448.97 118.251C1442.26 136.808 1423.05 172.164 1399.94 165.126C1371.05 156.328 1425.19 188.436 1428.58 194.95C1434.35 206.045 1417.91 252.016 1326.62 226.082C1320.2 224.63 1313.05 215.767 1329.56 192.043C1333.78 185.976 1338.94 174.659 1331.59 175.505C1330.22 175.663 1328.52 176.157 1326.42 177.097C1313.01 183.096 1289.89 208.87 1281.8 174.528C1275.34 147.055 1292.99 146.145 1302.62 149.124C1304.06 149.67 1304.37 148.744 1295.97 141.605Z" fill="#EAEAEA"/>
<path fill-rule="evenodd" clip-rule="evenodd" d="M1298.04 79.5718C1312.07 79.7937 1300.75 45.7 1315.17 40.5329C1333.21 34.0742 1347.52 60.6548 1380.38 15.3868C1388.26 6.57811 1407.8 -0.651509 1426.2 35.408C1428.77 40.452 1431.41 45.8694 1436.44 48.477C1441.89 51.3089 1450.56 52.7323 1465.43 48.9423C1490.45 45.3782 1489.03 84.4013 1468.86 106.941C1454.75 121.566 1434.06 156.136 1464.19 177.411C1489.3 195.141 1444.45 251.246 1391.57 245.299C1384.48 244.448 1372.89 245.288 1383.24 255.461C1395.65 267.659 1312.33 289.368 1300.45 240.12C1299.4 235.781 1300.31 229.537 1295.99 228.384C1293.8 227.798 1290.33 228.106 1285.01 230.216C1269.28 236.445 1236.93 216.323 1259.61 186.068C1260.99 184.374 1262.85 171.744 1251.98 179.824C1238.93 189.525 1208.54 142.135 1276.05 140.097C1280.75 140.408 1287.1 138.532 1274.9 128.543C1259.65 116.056 1237.25 78.6106 1298.04 79.5718ZM1304.28 95.2879C1263.94 90.6308 1275.96 117.632 1289.17 134.721C1291.14 137.28 1293.51 139.51 1295.97 141.605C1304.37 148.744 1304.06 149.67 1302.62 149.124C1292.99 146.145 1275.34 147.055 1281.8 174.528C1289.89 208.87 1313.01 183.096 1326.42 177.097C1328.52 176.157 1330.22 175.663 1331.59 175.505C1338.94 174.659 1333.78 185.976 1329.56 192.043C1313.05 215.767 1320.2 224.63 1326.62 226.082C1417.91 252.016 1434.35 206.045 1428.58 194.95C1425.19 188.436 1371.05 156.328 1399.94 165.126C1423.05 172.164 1442.26 136.808 1448.97 118.251C1468.43 55.6449 1419.19 53.5355 1403.93 64.3861C1388.31 75.4843 1365.73 149.855 1365.76 103.181C1365.79 56.507 1344.29 51.6415 1321.86 60.8705C1299.44 70.0995 1358.6 101.559 1304.28 95.2879Z" fill="#CBC5EA"/>
<path d="M1339.56 113.347C1330.54 139.886 1340.03 174.745 1354.99 174.754C1378.3 174.769 1394.47 149.85 1393.79 142.925C1393.1 136 1342.8 99.0377 1339.56 113.347Z" fill="#73628A"/>
<path d="M1359.2 173.263C1354.27 178.415 1346.5 187.5 1350.02 201.999" stroke="#73628A" stroke-width="1.99713"/>
<path d="M1370.52 169.801L1372.5 191.498" stroke="#73628A" stroke-width="1.99713"/>
<path d="M1376.75 162.193C1386.44 165.892 1401.5 176.996 1402.02 193.996" stroke="#73628A" stroke-width="1.99713"/>
<path d="M1343.75 158.476C1337.13 162.242 1314.5 164.998 1307.52 163.998" stroke="#73628A" stroke-width="1.99713"/>
<path d="M1340.52 149.479L1319.52 152.998" stroke="#73628A" stroke-width="1.99713"/>
<path d="M1336.6 133.542C1326.52 133.767 1303.42 133.559 1297.5 118.498" stroke="#73628A" stroke-width="1.99713"/>
<path d="M1340.08 121.543C1335.69 116.539 1325 106.999 1318 108.997" stroke="#73628A" stroke-width="1.99713"/>
<path d="M1351.16 115.782C1353.24 105.473 1354.5 83.9997 1348.5 83.9997" stroke="#73628A" stroke-width="1.99713"/>
<path d="M1388.53 140.042C1400.69 137.28 1427.52 123.996 1427.52 115.495" stroke="#73628A" stroke-width="1.99713"/>
<path d="M1408.03 91.6863C1406.69 93.2305 1404.89 96.2303 1408.45 95.8764C1412.9 95.4341 1410.31 89.3473 1408.03 91.6863Z" fill="#73628A" stroke="#73628A" stroke-width="1.99713"/>
<path d="M1346.01 80.6863C1344.66 82.2305 1342.86 85.2303 1346.42 84.8764C1350.88 84.4341 1348.28 78.3473 1346.01 80.6863Z" fill="#73628A" stroke="#73628A" stroke-width="1.99713"/>
<path d="M1319.61 106.895C1317.63 106.391 1314.14 106.138 1316.06 109.156C1318.46 112.929 1322.73 107.872 1319.61 106.895Z" fill="#73628A" stroke="#73628A" stroke-width="1.99713"/>
<path d="M1296.17 120.85C1298.22 120.932 1301.68 120.457 1299.18 117.902C1296.05 114.708 1292.92 120.539 1296.17 120.85Z" fill="#73628A" stroke="#73628A" stroke-width="1.99713"/>
<path d="M1315.98 152.464C1315.18 154.348 1314.4 157.757 1317.67 156.319C1321.77 154.521 1317.42 149.535 1315.98 152.464Z" fill="#73628A" stroke="#73628A" stroke-width="1.99713"/>
<path d="M1306.7 166.522C1308.36 165.325 1310.8 162.815 1307.25 162.347C1302.81 161.762 1303.95 168.279 1306.7 166.522Z" fill="#73628A" stroke="#73628A" stroke-width="1.99713"/>
<path d="M1348.57 202.368C1348.77 204.405 1349.72 207.772 1351.9 204.94C1354.63 201.399 1348.43 199.107 1348.57 202.368Z" fill="#73628A" stroke="#73628A" stroke-width="1.99713"/>
<path d="M1371.08 194.656C1373.12 194.875 1376.61 194.634 1374.28 191.917C1371.37 188.521 1367.86 194.128 1371.08 194.656Z" fill="#73628A" stroke="#73628A" stroke-width="1.99713"/>
<path d="M1404.01 195.18C1402.33 194.005 1399.16 192.531 1399.88 196.034C1400.79 200.413 1406.57 197.198 1404.01 195.18Z" fill="#73628A" stroke="#73628A" stroke-width="1.99713"/>
<path d="M1427.53 115.612C1428.03 113.628 1428.29 110.14 1425.27 112.056C1421.49 114.451 1426.54 118.725 1427.53 115.612Z" fill="#73628A" stroke="#73628A" stroke-width="1.99713"/>
<path d="M1398.57 118.681C1399.88 120.25 1401.31 122.192 1402.77 118.924C1404.52 114.998 1396.61 116.067 1398.57 118.681Z" fill="#73628A" stroke="#73628A" stroke-width="1.99713"/>
<path d="M1376.86 128.552C1383.56 117.784 1402.5 92.9989 1406.5 92.9997M1383.23 133.575L1399 118.499" stroke="#73628A" stroke-width="1.99713"/>
<path d="M1654.05 330.087C1668.99 326.968 1699.16 313.833 1700.35 286.244C1701.53 258.656 1669.98 303.978 1654.05 330.087Z" fill="#698F40"/>
<path d="M1658.68 368.871C1645.35 363.656 1617.12 347.492 1610.91 324.562C1604.7 301.632 1640.17 344.547 1658.68 368.871Z" fill="#698F40"/>
<path d="M1650.81 232.299C1650.07 252.725 1650.36 289.9 1654.05 330.087M1654.05 330.087C1668.99 326.968 1699.16 313.833 1700.35 286.244C1701.53 258.656 1669.98 303.978 1654.05 330.087ZM1654.05 330.087C1655.23 342.858 1656.75 355.933 1658.68 368.871M1658.68 368.871C1661.43 387.185 1665.01 405.226 1669.65 421.742C1676.83 445.933 1695.84 487.485 1695.84 491.754M1658.68 368.871C1645.35 363.656 1617.12 347.492 1610.91 324.562C1604.7 301.632 1640.17 344.547 1658.68 368.871Z" stroke="#698F40" stroke-width="1.99713"/>
<path fill-rule="evenodd" clip-rule="evenodd" d="M1600.97 141.605C1598.51 139.51 1596.14 137.28 1594.17 134.721C1580.96 117.632 1568.94 90.6308 1609.28 95.2879C1663.6 101.559 1604.44 70.0995 1626.86 60.8705C1649.29 51.6415 1670.79 56.507 1670.76 103.181C1670.73 149.855 1693.31 75.4843 1708.93 64.3861C1724.19 53.5355 1773.43 55.6449 1753.97 118.251C1747.26 136.808 1728.05 172.164 1704.94 165.126C1676.05 156.328 1730.19 188.436 1733.58 194.95C1739.35 206.045 1722.91 252.016 1631.62 226.082C1625.2 224.63 1618.05 215.767 1634.56 192.043C1638.78 185.976 1643.94 174.659 1636.59 175.505C1635.22 175.663 1633.52 176.157 1631.42 177.097C1618.01 183.096 1594.89 208.87 1586.8 174.528C1580.34 147.055 1597.99 146.145 1607.62 149.124C1609.06 149.67 1609.37 148.744 1600.97 141.605Z" fill="#EAEAEA"/>
<path fill-rule="evenodd" clip-rule="evenodd" d="M1603.04 79.5718C1617.07 79.7937 1605.75 45.7 1620.17 40.5329C1638.21 34.0742 1652.52 60.6548 1685.38 15.3868C1693.26 6.57811 1712.8 -0.651509 1731.2 35.408C1733.77 40.452 1736.41 45.8694 1741.44 48.477C1746.89 51.3089 1755.56 52.7323 1770.43 48.9423C1795.45 45.3782 1794.03 84.4013 1773.86 106.941C1759.75 121.566 1739.06 156.136 1769.19 177.411C1794.3 195.141 1749.45 251.246 1696.57 245.299C1689.48 244.448 1677.89 245.288 1688.24 255.461C1700.65 267.659 1617.33 289.368 1605.45 240.12C1604.4 235.781 1605.31 229.537 1600.99 228.384C1598.8 227.798 1595.33 228.106 1590.01 230.216C1574.28 236.445 1541.93 216.323 1564.61 186.068C1565.99 184.374 1567.85 171.744 1556.98 179.824C1543.93 189.525 1513.54 142.135 1581.05 140.097C1585.75 140.408 1592.1 138.532 1579.9 128.543C1564.65 116.056 1542.25 78.6106 1603.04 79.5718ZM1609.28 95.2879C1568.94 90.6308 1580.96 117.632 1594.17 134.721C1596.14 137.28 1598.51 139.51 1600.97 141.605C1609.37 148.744 1609.06 149.67 1607.62 149.124C1597.99 146.145 1580.34 147.055 1586.8 174.528C1594.89 208.87 1618.01 183.096 1631.42 177.097C1633.52 176.157 1635.22 175.663 1636.59 175.505C1643.94 174.659 1638.78 185.976 1634.56 192.043C1618.05 215.767 1625.2 224.63 1631.62 226.082C1722.91 252.016 1739.35 206.045 1733.58 194.95C1730.19 188.436 1676.05 156.328 1704.94 165.126C1728.05 172.164 1747.26 136.808 1753.97 118.251C1773.43 55.6449 1724.19 53.5355 1708.93 64.3861C1693.31 75.4843 1670.73 149.855 1670.76 103.181C1670.79 56.507 1649.29 51.6415 1626.86 60.8705C1604.44 70.0995 1663.6 101.559 1609.28 95.2879Z" fill="#CBC5EA"/>
<path d="M1644.56 113.347C1635.54 139.886 1645.03 174.745 1659.99 174.754C1683.3 174.769 1699.47 149.85 1698.79 142.925C1698.1 136 1647.8 99.0377 1644.56 113.347Z" fill="#73628A"/>
<path d="M1664.2 173.263C1659.27 178.415 1653.5 187.5 1655.02 201.999" stroke="#73628A" stroke-width="1.99713"/>
<path d="M1675.52 169.801L1677.5 191.498" stroke="#73628A" stroke-width="1.99713"/>
<path d="M1681.75 162.193C1691.44 165.892 1707.5 177.496 1706.5 194.996" stroke="#73628A" stroke-width="1.99713"/>
<path d="M1648.75 158.476C1642.13 162.242 1619 167.498 1612.52 163.998" stroke="#73628A" stroke-width="1.99713"/>
<path d="M1645.52 149.479L1624.52 152.998" stroke="#73628A" stroke-width="1.99713"/>
<path d="M1641.6 133.542C1631.52 133.767 1609.5 131.998 1602.5 117.498" stroke="#73628A" stroke-width="1.99713"/>
<path d="M1645.08 121.543C1640.69 116.539 1630 106.999 1623 108.997" stroke="#73628A" stroke-width="1.99713"/>
<path d="M1656.16 115.78C1658.24 105.471 1658.5 82.9984 1653 81.4972" stroke="#73628A" stroke-width="1.99713"/>
<path d="M1693.53 140.042C1705.69 137.28 1732.52 125.996 1732.52 115.495" stroke="#73628A" stroke-width="1.99713"/>
<path d="M1714.03 91.6903C1712.69 93.2344 1710.89 96.2342 1714.45 95.8803C1718.9 95.438 1716.31 89.3512 1714.03 91.6903Z" fill="#73628A" stroke="#73628A" stroke-width="1.99713"/>
<path d="M1651.01 78.6863C1649.66 80.2305 1647.86 83.2303 1651.42 82.8764C1655.88 82.4341 1653.28 76.3473 1651.01 78.6863Z" fill="#73628A" stroke="#73628A" stroke-width="1.99713"/>
<path d="M1624.61 105.895C1622.63 105.391 1619.14 105.138 1621.06 108.156C1623.46 111.929 1627.73 106.872 1624.61 105.895Z" fill="#73628A" stroke="#73628A" stroke-width="1.99713"/>
<path d="M1600.17 118.85C1602.22 118.932 1605.68 118.457 1603.18 115.902C1600.05 112.708 1596.92 118.539 1600.17 118.85Z" fill="#73628A" stroke="#73628A" stroke-width="1.99713"/>
<path d="M1621.98 152.464C1621.18 154.348 1620.4 157.757 1623.67 156.319C1627.77 154.521 1623.42 149.535 1621.98 152.464Z" fill="#73628A" stroke="#73628A" stroke-width="1.99713"/>
<path d="M1610.7 166.522C1612.36 165.325 1614.8 162.815 1611.25 162.347C1606.81 161.762 1607.95 168.279 1610.7 166.522Z" fill="#73628A" stroke="#73628A" stroke-width="1.99713"/>
<path d="M1654.57 202.368C1654.77 204.405 1655.72 207.772 1657.9 204.94C1660.63 201.399 1654.43 199.107 1654.57 202.368Z" fill="#73628A" stroke="#73628A" stroke-width="1.99713"/>
<path d="M1677.08 193.656C1679.12 193.875 1682.61 193.634 1680.28 190.917C1677.37 187.521 1673.86 193.128 1677.08 193.656Z" fill="#73628A" stroke="#73628A" stroke-width="1.99713"/>
<path d="M1709.01 196.184C1707.33 195.009 1704.16 193.535 1704.88 197.038C1705.79 201.417 1711.57 198.202 1709.01 196.184Z" fill="#73628A" stroke="#73628A" stroke-width="1.99713"/>
<path d="M1732.53 116.612C1733.03 114.628 1733.29 111.14 1730.27 113.056C1726.49 115.451 1731.54 119.725 1732.53 116.612Z" fill="#73628A" stroke="#73628A" stroke-width="1.99713"/>
<path d="M1701.57 118.681C1702.88 120.25 1704.31 122.192 1705.77 118.924C1707.52 114.998 1699.61 116.067 1701.57 118.681Z" fill="#73628A" stroke="#73628A" stroke-width="1.99713"/>
<path d="M1681.86 128.552C1688.56 117.784 1708.5 92.9981 1712.5 92.9989M1688.23 133.575L1704 118.499" stroke="#73628A" stroke-width="1.99713"/>
</svg>
