<svg width="161" height="193" viewBox="0 0 161 193" fill="none" xmlns="http://www.w3.org/2000/svg">
<path d="M89.2495 103.295C89.0038 98.6267 87.3329 87.6677 82.6151 81.1807C80.9398 78.8771 79.5024 76.6331 78.4721 74.5499C77.8899 73.3728 77.4376 72.2472 77.1458 71.1911C76.9094 70.3357 76.7782 69.526 76.7685 68.7717C76.7571 67.8829 76.9144 67.0711 77.2667 66.3522C77.6354 65.6 78.2178 64.9494 79.0441 64.4187C79.6207 64.0484 80.3162 63.7364 81.1408 63.489C82.2506 63.1561 83.2601 62.89 84.197 62.736C86.1231 62.4194 87.7425 62.5766 89.2956 63.6009C90.1088 64.1372 90.9038 64.9113 91.7151 65.9795C92.1945 66.6108 92.6796 67.3447 93.1775 68.193C93.6903 69.0668 94.2168 70.0619 94.7646 71.1911C95.784 73.2923 96.8775 75.8577 98.0951 78.9693C100.798 84.8664 106.204 97.3978 106.204 100.346C102.31 104.315 93.2786 103.966 89.2495 103.295Z" fill="#73628A"/>
<path d="M82.6151 81.1807C80.9398 78.8771 79.5024 76.6331 78.4721 74.5499C63.8569 79.8033 31.4946 89.5843 18.4844 86.8703C37.0588 90.8146 66.0971 85.6274 82.6151 81.1807Z" fill="#EAEAEA"/>
<path d="M2.19418 76.0302C4.49658 81.7862 10.4562 85.1357 18.3144 86.8339L18.4844 86.8703C31.4946 89.5843 63.8569 79.8033 78.4721 74.5499C77.8899 73.3728 77.4376 72.2472 77.1458 71.1911C63.5094 76.2676 30.1709 81.7523 5.90834 63.0792C3.07781 66.6034 1.54237 69.998 1.60307 73.0846C1.62308 74.1021 1.81652 75.0861 2.19418 76.0302Z" fill="#698F40"/>
<path d="M5.90834 63.0792C30.1709 81.7523 63.5094 76.2676 77.1458 71.1911C76.9094 70.3357 76.7782 69.526 76.7685 68.7717C61.0649 69.1633 27.6373 66.1999 19.5553 51.2131C13.7056 55.1668 9.02294 59.2014 5.90834 63.0792Z" fill="#EAEAEA"/>
<path d="M19.5553 51.2131C27.6373 66.1999 61.0649 69.1633 76.7685 68.7717C76.7571 67.8829 76.9144 67.0711 77.2667 66.3522C65.4503 62.3197 40.5165 51.8353 35.313 42.1574C29.4696 45.0491 24.1521 48.1061 19.5553 51.2131Z" fill="#698F40"/>
<path d="M35.313 42.1574C40.5165 51.8353 65.4503 62.3197 77.2667 66.3522C77.6354 65.6 78.2178 64.9494 79.0441 64.4187C74.3963 61.8186 63.1652 52.0269 55.4229 33.6612C48.2836 36.2164 41.5032 39.0941 35.313 42.1574Z" fill="#EAEAEA"/>
<path d="M79.0441 64.4187C79.6207 64.0484 80.3162 63.7364 81.1408 63.489C82.2506 63.1561 83.2601 62.89 84.197 62.736C85.9422 58.0015 86.9995 44.2658 77.2667 27.1989C69.7855 28.9556 62.4313 31.153 55.4229 33.6612C63.1652 52.0269 74.3963 61.8186 79.0441 64.4187Z" fill="#698F40"/>
<path d="M77.2667 27.1989C86.9995 44.2658 85.9422 58.0015 84.197 62.736C86.1231 62.4194 87.7425 62.5766 89.2956 63.6009C93.328 61.739 100.909 51.1067 98.9735 23.4721C91.75 24.2316 84.4499 25.5121 77.2667 27.1989Z" fill="#EAEAEA"/>
<path d="M98.9735 23.4721C100.909 51.1067 93.328 61.739 89.2956 63.6009C90.1088 64.1372 90.9038 64.9113 91.7151 65.9795C103.006 58.2263 125.104 38.7925 123.168 23.0828C115.397 22.4164 107.235 22.6035 98.9735 23.4721Z" fill="#698F40"/>
<path d="M123.168 23.0828C125.104 38.7925 103.006 58.2263 91.7151 65.9795C92.1945 66.6108 92.6796 67.3447 93.1775 68.193C112.042 63.0675 150.499 48.6053 153.407 31.7604C144.708 26.7632 134.342 24.0409 123.168 23.0828Z" fill="#EAEAEA"/>
<path d="M154.621 32.4796C154.22 32.2348 153.815 31.9951 153.407 31.7604C150.499 48.6053 112.042 63.0675 93.1775 68.193C93.6903 69.0668 94.2168 70.0619 94.7646 71.1911C105.416 69.8995 129.752 65.768 141.88 59.5757C154.153 51.7296 162.752 43.2673 160.439 37.3185C159.698 35.4135 157.838 33.7663 154.621 32.4796Z" fill="#698F40"/>
<path d="M94.7646 71.1911C95.784 73.2923 96.8775 75.8577 98.0951 78.9693C110.817 75.9243 128.524 68.1149 141.88 59.5757C129.752 65.768 105.416 69.8995 94.7646 71.1911Z" fill="#EAEAEA"/>
<path fill-rule="evenodd" clip-rule="evenodd" d="M1.60307 73.0846C1.54237 69.998 3.07781 66.6034 5.90834 63.0792C9.02294 59.2014 13.7056 55.1668 19.5553 51.2131C24.1521 48.1061 29.4696 45.0491 35.313 42.1574C41.5032 39.0941 48.2836 36.2164 55.4229 33.6612C62.4313 31.153 69.7855 28.9556 77.2667 27.1989C84.4499 25.5121 91.75 24.2316 98.9735 23.4721C107.235 22.6035 115.397 22.4164 123.168 23.0828C134.342 24.0409 144.708 26.7632 153.407 31.7604C153.815 31.9951 154.22 32.2348 154.621 32.4796C157.838 33.7663 159.698 35.4135 160.439 37.3185C160.347 34.176 153.297 26.7782 149.783 23.4721C148.351 29.1892 137.685 20.3821 142.524 17.9626C130.911 8.28472 113.431 5.03814 106.143 4.62459C106.127 6.06113 105.326 7.52787 103.813 8.28459C98.9737 10.7041 91.7153 8.28446 94.1348 3.44564C74.7789 3.44564 59.6465 8.28459 54.4998 10.7041C55.077 11.3805 55.4229 12.2089 55.4229 13.1237C55.4231 17.9629 48.1647 20.3818 43.3257 15.5432C31.7122 19.4143 19.6793 30.3913 15.1145 35.3959C15.7702 35.9013 16.3266 36.5487 16.7115 37.3185C19.131 42.1574 14.7755 46.0286 7.03335 42.1574C0.292988 52.268 0.398595 65.5571 1.60307 73.0846ZM113.491 13.1237C115.91 12.3172 120.749 11.672 120.749 15.5432C120.749 20.3821 106.232 15.5433 113.491 13.1237ZM84.197 15.5432C86.7031 13.1237 91.7153 9.73641 91.7153 15.5432C91.7153 22.8016 80.3098 18.3335 84.197 15.5432ZM67.5205 13.1237C66.714 12.3172 66.0688 10.7042 69.94 10.7042C74.7789 10.7042 72.3595 15.5432 67.5205 13.1237ZM45.7452 25.2211C48.1647 23.6081 53.0036 21.3499 53.0036 25.2211C53.0036 30.06 40.9063 27.6405 45.7452 25.2211ZM35.9195 33.6612C35.8012 30.7355 31.1298 30.0414 28.8089 30.06C28.0024 30.06 26.8733 31.0278 28.8089 34.899C31.2283 39.7379 36.0673 37.3185 35.9195 33.6612ZM14.292 46.9964C13.634 46.2358 11.957 46.5173 10.6182 47.6407C8.19872 50.0601 10.7299 51.2131 13.3011 51.2131C15.8722 51.2131 15.1145 47.9471 14.292 46.9964Z" fill="#CBC5EA"/>
<path d="M10.6182 47.6407C11.957 46.5173 13.634 46.2358 14.292 46.9964C15.1145 47.9471 15.8722 51.2131 13.3011 51.2131C10.7299 51.2131 8.19872 50.0601 10.6182 47.6407Z" fill="#EAEAEA"/>
<path d="M7.03335 42.1574C14.7755 46.0286 19.131 42.1574 16.7115 37.3185C16.3266 36.5487 15.7702 35.9013 15.1145 35.3959C11.6484 32.7244 5.40584 34.0191 7.03335 42.1574Z" fill="#EAEAEA"/>
<path d="M28.8089 30.06C31.1298 30.0414 35.8012 30.7355 35.9195 33.6612C36.0673 37.3185 31.2283 39.7379 28.8089 34.899C26.8733 31.0278 28.0024 30.06 28.8089 30.06Z" fill="#EAEAEA"/>
<path d="M45.7452 25.2211C48.1647 23.6081 53.0036 21.3499 53.0036 25.2211C53.0036 30.06 40.9063 27.6405 45.7452 25.2211Z" fill="#EAEAEA"/>
<path d="M43.3257 15.5432C48.1647 20.3818 55.4231 17.9629 55.4229 13.1237C55.4229 12.2089 55.077 11.3805 54.4998 10.7041C52.0234 7.80185 45.2879 7.69464 43.3257 15.5432Z" fill="#EAEAEA"/>
<path d="M67.5205 13.1237C66.714 12.3172 66.0688 10.7042 69.94 10.7042C74.7789 10.7042 72.3595 15.5432 67.5205 13.1237Z" fill="#EAEAEA"/>
<path d="M84.197 15.5432C86.7031 13.1237 91.7153 9.73641 91.7153 15.5432C91.7153 22.8016 80.3098 18.3335 84.197 15.5432Z" fill="#EAEAEA"/>
<path d="M94.1348 3.44564C91.7153 8.28446 98.9737 10.7041 103.813 8.28459C105.326 7.52787 106.127 6.06113 106.143 4.62459C106.179 1.46806 102.429 -1.54263 94.1348 3.44564Z" fill="#EAEAEA"/>
<path d="M113.491 13.1237C115.91 12.3172 120.749 11.672 120.749 15.5432C120.749 20.3821 106.232 15.5433 113.491 13.1237Z" fill="#EAEAEA"/>
<path d="M142.524 17.9626C145.421 17.8934 150.928 18.8984 149.783 23.4721C148.351 29.1892 137.685 20.3821 142.524 17.9626Z" fill="#EAEAEA"/>
<path d="M98.8305 116.569C97.651 118.928 93.4249 117.552 91.4592 116.569C94.7698 124.833 99.9392 141.361 94.1325 141.361H115.908C113.119 136.748 107.997 125.195 109.013 114.77C108.414 116.881 106.012 115.951 104.728 115.095C104.728 118.043 100.796 117.306 98.8305 116.569Z" fill="#73628A"/>
<path d="M89.2477 103.3C87.282 109.197 84.9722 120.107 91.4592 116.569C93.4249 117.552 97.651 118.928 98.8305 116.569C100.796 117.306 104.728 118.043 104.728 115.095C106.012 115.951 108.414 116.881 109.013 114.77C109.05 114.385 109.096 114.002 109.151 113.62C111.854 114.603 116.522 115.095 113.574 109.197C110.625 103.3 107.431 100.843 106.202 100.352C105.727 100.768 105.007 101.258 104.063 101.738C103.195 102.18 102.136 102.613 100.905 102.97C99.7223 103.313 98.3796 103.586 96.8915 103.729C95.4516 103.868 93.8755 103.886 92.1764 103.729C91.237 103.643 90.2601 103.503 89.2477 103.3Z" fill="#698F40"/>
<path d="M96.6181 153.416C92.6866 148.502 87.1825 138.821 96.6181 139.411C106.054 140 113.818 139.656 116.521 139.411C119.715 138.673 124.188 141.18 116.521 157.102C115.076 160.025 102.65 155.863 96.6181 153.416Z" fill="#73628A"/>
<path d="M86.3011 170.376C83.8439 177.256 80.9936 191.163 89.2497 191.753C99.5699 192.49 110.627 195.439 114.313 188.067C117.75 181.193 121.828 174.319 115.787 173.423C115.35 173.358 114.86 173.324 114.313 173.324C107.826 173.324 97.3585 170.376 92.9355 168.901C92.5241 168.795 92.0146 168.693 91.4612 168.623C89.4619 168.369 86.89 168.528 86.3011 170.376Z" fill="#73628A"/>
<path d="M92.9355 168.901C97.3585 170.376 107.826 173.324 114.313 173.324C114.86 173.324 115.35 173.358 115.787 173.423C122.422 164.675 125.37 156.37 115.787 157.107C108.121 157.697 100.799 154.895 98.0956 153.421C88.66 152.242 89.7412 163.064 91.4612 168.623C92.0146 168.693 92.5241 168.795 92.9355 168.901Z" fill="#73628A"/>
</svg>
