<svg width="427" height="256" viewBox="0 0 427 256" fill="none" xmlns="http://www.w3.org/2000/svg">
<path d="M118.438 136.554C118.11 130.335 115.884 115.735 109.597 107.093C107.365 104.024 105.449 101.035 104.076 98.2594C103.301 96.6914 102.698 95.1917 102.309 93.7849C101.994 92.6453 101.819 91.5665 101.806 90.5617C101.791 89.3777 102.001 88.2962 102.47 87.3384C102.962 86.3363 103.738 85.4696 104.839 84.7626C105.607 84.2692 106.534 83.8536 107.633 83.5241C109.111 83.0806 110.457 82.7261 111.705 82.5209C114.272 82.0991 116.43 82.3085 118.499 83.6731C119.583 84.3876 120.642 85.4188 121.723 86.842C122.362 87.6829 123.008 88.6607 123.672 89.7908C124.355 90.9548 125.057 92.2806 125.787 93.7849C127.145 96.5841 128.602 100.002 130.225 104.147C133.827 112.003 141.03 128.698 141.03 132.626C135.842 137.912 123.807 137.448 118.438 136.554Z" fill="#73628A"/>
<path d="M109.597 107.093C107.365 104.024 105.449 101.035 104.076 98.2594C84.6012 105.258 41.477 118.288 24.1405 114.673C48.8915 119.927 87.5863 113.017 109.597 107.093Z" fill="#EAEAEA"/>
<path d="M2.43307 100.232C5.50111 107.9 13.4425 112.362 23.9139 114.624L24.1405 114.673C41.477 118.288 84.6012 105.258 104.076 98.2594C103.301 96.6914 102.698 95.1917 102.309 93.7849C84.138 100.548 39.7132 107.855 7.38233 82.9782C3.61054 87.673 1.56451 92.1953 1.64539 96.3074C1.67206 97.6628 1.92983 98.9737 2.43307 100.232Z" fill="#698F40"/>
<path d="M7.38233 82.9782C39.7132 107.855 84.138 100.548 102.309 93.7849C101.994 92.6453 101.819 91.5665 101.806 90.5617C80.8807 91.0834 36.337 87.1355 25.5674 67.17C17.7725 72.4372 11.5327 77.8121 7.38233 82.9782Z" fill="#EAEAEA"/>
<path d="M25.5674 67.17C36.337 87.1355 80.8807 91.0834 101.806 90.5617C101.791 89.3777 102.001 88.2962 102.47 87.3384C86.7244 81.9663 53.4991 67.9989 46.5652 55.106C38.7786 58.9583 31.6929 63.0309 25.5674 67.17Z" fill="#698F40"/>
<path d="M46.5652 55.106C53.4991 67.9989 86.7244 81.9663 102.47 87.3384C102.962 86.3363 103.738 85.4696 104.839 84.7626C98.6454 81.2987 83.6795 68.2541 73.3625 43.7873C63.8491 47.1913 54.8139 51.0251 46.5652 55.106Z" fill="#EAEAEA"/>
<path d="M104.839 84.7626C105.607 84.2692 106.534 83.8536 107.633 83.5241C109.111 83.0806 110.457 82.7261 111.705 82.5209C114.031 76.2136 115.44 57.9147 102.47 35.1781C92.5013 37.5184 82.7015 40.4458 73.3625 43.7873C83.6795 68.2541 98.6454 81.2987 104.839 84.7626Z" fill="#698F40"/>
<path d="M102.47 35.1781C115.44 57.9147 114.031 76.2136 111.705 82.5209C114.272 82.0991 116.43 82.3085 118.499 83.6731C123.873 81.1928 133.975 67.0283 131.395 30.2133C121.77 31.2251 112.042 32.931 102.47 35.1781Z" fill="#EAEAEA"/>
<path d="M131.395 30.2133C133.975 67.0283 123.873 81.1928 118.499 83.6731C119.583 84.3876 120.642 85.4188 121.723 86.842C136.769 76.5131 166.215 50.6232 163.636 29.6947C153.28 28.8069 142.405 29.0561 131.395 30.2133Z" fill="#698F40"/>
<path d="M163.636 29.6947C166.215 50.6232 136.769 76.5131 121.723 86.842C122.362 87.6829 123.008 88.6607 123.672 89.7908C148.81 82.9626 200.056 63.696 203.93 41.255C192.339 34.5978 178.525 30.9711 163.636 29.6947Z" fill="#EAEAEA"/>
<path d="M205.548 42.2132C205.014 41.887 204.474 41.5677 203.93 41.255C200.056 63.696 148.81 82.9626 123.672 89.7908C124.355 90.9548 125.057 92.2806 125.787 93.7849C139.981 92.0641 172.408 86.5602 188.57 78.3108C204.924 67.8581 216.383 56.5845 213.3 48.6595C212.313 46.1217 209.835 43.9273 205.548 42.2132Z" fill="#698F40"/>
<path d="M125.787 93.7849C127.145 96.5841 128.602 100.002 130.225 104.147C147.178 100.09 170.772 89.6868 188.57 78.3108C172.408 86.5602 139.981 92.0641 125.787 93.7849Z" fill="#EAEAEA"/>
<path fill-rule="evenodd" clip-rule="evenodd" d="M1.64539 96.3074C1.56451 92.1953 3.61054 87.673 7.38233 82.9782C11.5327 77.8121 17.7725 72.4372 25.5674 67.17C31.6929 63.0309 38.7786 58.9583 46.5652 55.106C54.8139 51.0251 63.8491 47.1913 73.3625 43.7873C82.7015 40.4458 92.5013 37.5184 102.47 35.1781C112.042 32.931 121.77 31.2251 131.395 30.2133C142.405 29.0561 153.28 28.8069 163.636 29.6947C178.525 30.9711 192.339 34.5978 203.93 41.255C204.474 41.5677 205.014 41.887 205.548 42.2132C209.835 43.9273 212.313 46.1217 213.3 48.6595C213.178 44.4731 203.783 34.6177 199.101 30.2133C197.193 37.8297 182.981 26.0968 189.429 22.8735C173.953 9.98057 150.661 5.65545 140.949 5.10451C140.927 7.01828 139.861 8.97228 137.844 9.98039C131.396 13.2036 121.724 9.98022 124.948 3.5339C99.1552 3.5339 78.9907 9.98039 72.1324 13.2036C72.9016 14.1048 73.3624 15.2083 73.3625 16.4271C73.3628 22.8739 63.6906 26.0964 57.2425 19.6503C41.7671 24.8075 25.7327 39.4311 19.6499 46.0983C20.5237 46.7716 21.2651 47.634 21.778 48.6595C25.002 55.106 19.1982 60.2632 8.88146 55.106C-0.100349 68.5753 0.0403769 86.2792 1.64539 96.3074ZM150.74 16.4271C153.964 15.3526 160.412 14.4931 160.412 19.6503C160.412 26.0968 141.068 19.6505 150.74 16.4271ZM111.705 19.6503C115.045 16.4271 121.724 11.9145 121.724 19.6503C121.724 29.32 106.525 23.3676 111.705 19.6503ZM89.483 16.4271C88.4084 15.3526 87.5486 13.2038 92.7071 13.2038C99.1552 13.2038 95.9311 19.6503 89.483 16.4271ZM60.4666 32.5433C63.6906 30.3944 70.1387 27.3861 70.1387 32.5433C70.1387 38.9898 54.0185 35.7665 60.4666 32.5433ZM47.3734 43.7873C47.2157 39.8896 40.9909 38.9649 37.8982 38.9898C36.8235 38.9898 35.319 40.2791 37.8982 45.4362C41.1223 51.8827 47.5704 48.6595 47.3734 43.7873ZM18.5539 61.5525C17.6771 60.5392 15.4424 60.9142 13.6584 62.4108C10.4344 65.634 13.8073 67.17 17.2335 67.17C20.6596 67.17 19.6499 62.819 18.5539 61.5525Z" fill="#CBC5EA"/>
<path d="M13.6584 62.4108C15.4424 60.9142 17.6771 60.5392 18.5539 61.5525C19.6499 62.819 20.6596 67.17 17.2335 67.17C13.8073 67.17 10.4344 65.634 13.6584 62.4108Z" fill="#EAEAEA"/>
<path d="M8.88146 55.106C19.1982 60.2632 25.002 55.106 21.778 48.6595C21.2651 47.634 20.5237 46.7716 19.6499 46.0983C15.0312 42.5393 6.71273 44.2641 8.88146 55.106Z" fill="#EAEAEA"/>
<path d="M37.8982 38.9898C40.9909 38.9649 47.2157 39.8896 47.3734 43.7873C47.5704 48.6595 41.1223 51.8827 37.8982 45.4362C35.319 40.2791 36.8235 38.9898 37.8982 38.9898Z" fill="#EAEAEA"/>
<path d="M60.4666 32.5433C63.6906 30.3944 70.1387 27.3861 70.1387 32.5433C70.1387 38.9898 54.0185 35.7665 60.4666 32.5433Z" fill="#EAEAEA"/>
<path d="M57.2425 19.6503C63.6906 26.0964 73.3628 22.8739 73.3625 16.4271C73.3624 15.2083 72.9016 14.1048 72.1324 13.2036C68.8325 9.33728 59.8571 9.19445 57.2425 19.6503Z" fill="#EAEAEA"/>
<path d="M89.483 16.4271C88.4084 15.3526 87.5486 13.2038 92.7071 13.2038C99.1552 13.2038 95.9311 19.6503 89.483 16.4271Z" fill="#EAEAEA"/>
<path d="M111.705 19.6503C115.045 16.4271 121.724 11.9145 121.724 19.6503C121.724 29.32 106.525 23.3676 111.705 19.6503Z" fill="#EAEAEA"/>
<path d="M124.948 3.5339C121.724 9.98022 131.396 13.2036 137.844 9.98039C139.861 8.97228 140.927 7.01828 140.949 5.10451C140.997 0.899365 136 -3.1115 124.948 3.5339Z" fill="#EAEAEA"/>
<path d="M150.74 16.4271C153.964 15.3526 160.412 14.4931 160.412 19.6503C160.412 26.0968 141.068 19.6505 150.74 16.4271Z" fill="#EAEAEA"/>
<path d="M189.429 22.8735C193.289 22.7813 200.627 24.1202 199.101 30.2133C197.193 37.8297 182.981 26.0968 189.429 22.8735Z" fill="#EAEAEA"/>
<path d="M131.206 154.23C129.634 157.372 124.002 155.539 121.383 154.23C125.794 165.239 132.683 187.258 124.945 187.258H153.962C150.246 181.112 143.421 165.722 144.774 151.834C143.976 154.646 140.775 153.406 139.064 152.266C139.064 156.194 133.825 155.212 131.206 154.23Z" fill="#73628A"/>
<path d="M118.436 136.553C115.817 144.41 112.739 158.944 121.383 154.23C124.002 155.539 129.634 157.372 131.206 154.23C133.825 155.212 139.064 156.194 139.064 152.266C140.775 153.406 143.976 154.646 144.774 151.834C144.824 151.321 144.885 150.81 144.958 150.302C148.559 151.611 154.78 152.266 150.851 144.41C146.922 136.553 142.666 133.28 141.028 132.625C140.395 133.179 139.436 133.833 138.178 134.473C137.021 135.061 135.611 135.638 133.97 136.114C132.394 136.57 130.605 136.934 128.622 137.125C126.703 137.31 124.603 137.334 122.339 137.125C121.087 137.009 119.785 136.823 118.436 136.553Z" fill="#698F40"/>
<path d="M128.255 203.334C123.016 196.787 115.682 183.889 128.255 184.675C140.828 185.461 151.175 185.002 154.776 184.675C159.033 183.693 164.992 187.032 154.776 208.244C152.851 212.138 136.293 206.593 128.255 203.334Z" fill="#73628A"/>
<path d="M114.508 225.916C111.234 235.082 107.436 253.61 118.437 254.396C132.189 255.378 146.924 259.306 151.835 249.485C156.415 240.328 161.849 231.17 153.8 229.976C153.217 229.889 152.564 229.845 151.835 229.845C143.191 229.845 129.243 225.916 123.349 223.952C122.801 223.81 122.122 223.675 121.384 223.581C118.72 223.243 115.293 223.455 114.508 225.916Z" fill="#73628A"/>
<path d="M123.349 223.952C129.243 225.916 143.191 229.845 151.835 229.845C152.564 229.845 153.217 229.889 153.8 229.976C162.64 218.322 166.57 207.258 153.8 208.24C143.584 209.026 133.827 205.294 130.225 203.33C117.652 201.758 119.092 216.176 121.384 223.581C122.122 223.675 122.801 223.81 123.349 223.952Z" fill="#73628A"/>
<path d="M331.635 136.554C331.308 130.335 329.081 115.735 322.795 107.093C320.562 104.024 318.647 101.035 317.274 98.2594C316.498 96.6914 315.895 95.1917 315.506 93.7849C315.191 92.6453 315.017 91.5665 315.004 90.5617C314.988 89.3777 315.198 88.2962 315.668 87.3384C316.159 86.3363 316.935 85.4696 318.036 84.7626C318.804 84.2692 319.731 83.8536 320.83 83.5241C322.309 83.0806 323.654 82.7261 324.902 82.5209C327.469 82.0991 329.627 82.3085 331.696 83.6731C332.78 84.3876 333.839 85.4188 334.921 86.842C335.559 87.6829 336.206 88.6607 336.869 89.7908C337.553 90.9548 338.254 92.2806 338.984 93.7849C340.343 96.5841 341.8 100.002 343.422 104.147C347.024 112.003 354.227 128.698 354.227 132.626C349.039 137.912 337.004 137.448 331.635 136.554Z" fill="#73628A"/>
<path d="M322.795 107.093C320.562 104.024 318.647 101.035 317.274 98.2594C297.798 105.258 254.674 118.288 237.338 114.673C262.089 119.927 300.784 113.017 322.795 107.093Z" fill="#698F40"/>
<path d="M215.63 100.232C218.698 107.9 226.64 112.362 237.111 114.624L237.338 114.673C254.674 118.288 297.798 105.258 317.274 98.2594C316.498 96.6914 315.895 95.1917 315.506 93.7849C297.335 100.548 252.91 107.855 220.58 82.9782C216.808 87.673 214.762 92.1953 214.843 96.3074C214.869 97.6629 215.127 98.9737 215.63 100.232Z" fill="#EAEAEA"/>
<path d="M220.58 82.9782C252.91 107.855 297.335 100.548 315.506 93.7849C315.191 92.6453 315.017 91.5665 315.004 90.5617C294.078 91.0834 249.534 87.1355 238.765 67.17C230.97 72.4372 224.73 77.8121 220.58 82.9782Z" fill="#698F40"/>
<path d="M238.765 67.17C249.534 87.1355 294.078 91.0834 315.004 90.5617C314.988 89.3777 315.198 88.2962 315.668 87.3384C299.922 81.9663 266.696 67.999 259.763 55.106C251.976 58.9583 244.89 63.0309 238.765 67.17Z" fill="#EAEAEA"/>
<path d="M259.763 55.106C266.696 67.999 299.922 81.9663 315.668 87.3384C316.159 86.3363 316.935 85.4696 318.036 84.7626C311.843 81.2987 296.877 68.2541 286.56 43.7873C277.046 47.1913 268.011 51.0251 259.763 55.106Z" fill="#698F40"/>
<path d="M318.036 84.7626C318.804 84.2692 319.731 83.8536 320.83 83.5241C322.309 83.0806 323.654 82.7261 324.902 82.5209C327.228 76.2136 328.637 57.9147 315.668 35.1781C305.699 37.5184 295.899 40.4458 286.56 43.7873C296.877 68.2541 311.843 81.2987 318.036 84.7626Z" fill="#EAEAEA"/>
<path d="M315.668 35.1781C328.637 57.9147 327.228 76.2136 324.902 82.5209C327.469 82.0991 329.627 82.3085 331.696 83.6731C337.07 81.1928 347.172 67.0283 344.593 30.2133C334.967 31.2251 325.239 32.931 315.668 35.1781Z" fill="#698F40"/>
<path d="M344.593 30.2133C347.172 67.0283 337.07 81.1928 331.696 83.6731C332.78 84.3876 333.839 85.4188 334.921 86.842C349.966 76.5131 379.412 50.6232 376.833 29.6947C366.478 28.8069 355.602 29.0561 344.593 30.2133Z" fill="#EAEAEA"/>
<path d="M376.833 29.6947C379.412 50.6232 349.966 76.5131 334.921 86.842C335.559 87.6829 336.206 88.6607 336.869 89.7908C362.008 82.9626 413.253 63.696 417.127 41.255C405.536 34.5978 391.722 30.9711 376.833 29.6947Z" fill="#698F40"/>
<path d="M418.746 42.2132C418.211 41.887 417.672 41.5677 417.127 41.255C413.253 63.696 362.008 82.9626 336.869 89.7908C337.553 90.9548 338.254 92.2806 338.984 93.7849C353.178 92.0641 385.606 86.5602 401.768 78.3108C418.121 67.8581 429.581 56.5845 426.498 48.6595C425.511 46.1217 423.032 43.9273 418.746 42.2132Z" fill="#EAEAEA"/>
<path d="M338.984 93.7849C340.343 96.5841 341.8 100.002 343.422 104.147C360.375 100.09 383.97 89.6868 401.768 78.3108C385.606 86.5602 353.178 92.0641 338.984 93.7849Z" fill="#698F40"/>
<path fill-rule="evenodd" clip-rule="evenodd" d="M214.843 96.3074C214.762 92.1953 216.808 87.673 220.58 82.9782C224.73 77.8121 230.97 72.4372 238.765 67.17C244.89 63.0309 251.976 58.9583 259.763 55.106C268.011 51.0251 277.046 47.1913 286.56 43.7873C295.899 40.4458 305.699 37.5184 315.668 35.1781C325.239 32.931 334.967 31.2251 344.593 30.2133C355.602 29.0561 366.478 28.8069 376.833 29.6947C391.722 30.9711 405.536 34.5978 417.127 41.255C417.672 41.5677 418.211 41.887 418.746 42.2132C423.032 43.9273 425.511 46.1217 426.498 48.6595C426.375 44.4731 416.98 34.6177 412.298 30.2133C410.39 37.8297 396.178 26.0968 402.626 22.8735C387.15 9.98057 363.858 5.65545 354.147 5.10451C354.125 7.01828 353.058 8.97228 351.041 9.98039C344.593 13.2036 334.921 9.98022 338.145 3.53391C312.352 3.53391 292.188 9.98039 285.33 13.2036C286.099 14.1048 286.56 15.2083 286.56 16.4271C286.56 22.8739 276.888 26.0964 270.44 19.6503C254.964 24.8075 238.93 39.4311 232.847 46.0983C233.721 46.7716 234.462 47.634 234.975 48.6595C238.199 55.106 232.395 60.2632 222.079 55.106C213.097 68.5753 213.238 86.2792 214.843 96.3074ZM363.937 16.4271C367.161 15.3526 373.609 14.4931 373.609 19.6503C373.609 26.0968 354.265 19.6505 363.937 16.4271ZM324.902 19.6503C328.242 16.4271 334.921 11.9145 334.921 19.6503C334.921 29.32 319.723 23.3676 324.902 19.6503ZM302.68 16.4271C301.606 15.3526 300.746 13.2038 305.904 13.2038C312.352 13.2038 309.128 19.6503 302.68 16.4271ZM273.664 32.5433C276.888 30.3944 283.336 27.3861 283.336 32.5433C283.336 38.9898 267.216 35.7665 273.664 32.5433ZM260.571 43.7873C260.413 39.8896 254.188 38.9649 251.095 38.9898C250.021 38.9898 248.516 40.2791 251.095 45.4362C254.32 51.8827 260.768 48.6595 260.571 43.7873ZM231.751 61.5525C230.874 60.5392 228.64 60.9142 226.856 62.4108C223.632 65.634 227.005 67.17 230.431 67.17C233.857 67.17 232.847 62.819 231.751 61.5525Z" fill="#CBC5EA"/>
<path d="M226.856 62.4108C228.64 60.9142 230.874 60.5392 231.751 61.5525C232.847 62.819 233.857 67.17 230.431 67.17C227.005 67.17 223.632 65.634 226.856 62.4108Z" fill="#EAEAEA"/>
<path d="M222.079 55.106C232.395 60.2632 238.199 55.106 234.975 48.6595C234.462 47.634 233.721 46.7716 232.847 46.0983C228.228 42.5393 219.91 44.2641 222.079 55.106Z" fill="#EAEAEA"/>
<path d="M251.095 38.9898C254.188 38.9649 260.413 39.8896 260.571 43.7873C260.768 48.6595 254.32 51.8827 251.095 45.4362C248.516 40.2791 250.021 38.9898 251.095 38.9898Z" fill="#EAEAEA"/>
<path d="M273.664 32.5433C276.888 30.3944 283.336 27.3861 283.336 32.5433C283.336 38.9898 267.216 35.7665 273.664 32.5433Z" fill="#EAEAEA"/>
<path d="M270.44 19.6503C276.888 26.0964 286.56 22.8739 286.56 16.4271C286.56 15.2083 286.099 14.1048 285.33 13.2036C282.03 9.33728 273.054 9.19445 270.44 19.6503Z" fill="#EAEAEA"/>
<path d="M302.68 16.4271C301.606 15.3526 300.746 13.2038 305.904 13.2038C312.352 13.2038 309.128 19.6503 302.68 16.4271Z" fill="#EAEAEA"/>
<path d="M324.902 19.6503C328.242 16.4271 334.921 11.9145 334.921 19.6503C334.921 29.32 319.723 23.3676 324.902 19.6503Z" fill="#EAEAEA"/>
<path d="M338.145 3.53391C334.921 9.98022 344.593 13.2036 351.041 9.98039C353.058 8.97228 354.125 7.01828 354.147 5.10451C354.195 0.899365 349.197 -3.1115 338.145 3.53391Z" fill="#EAEAEA"/>
<path d="M363.937 16.4271C367.161 15.3526 373.609 14.4931 373.609 19.6503C373.609 26.0968 354.265 19.6505 363.937 16.4271Z" fill="#EAEAEA"/>
<path d="M402.626 22.8735C406.486 22.7813 413.825 24.1202 412.298 30.2133C410.39 37.8297 396.178 26.0968 402.626 22.8735Z" fill="#EAEAEA"/>
<path d="M344.403 154.23C342.831 157.372 337.2 155.539 334.58 154.23C338.992 165.239 345.88 187.258 338.143 187.258H367.159C363.443 181.112 356.618 165.722 357.971 151.834C357.173 154.646 353.972 153.406 352.261 152.266C352.261 156.194 347.022 155.212 344.403 154.23Z" fill="#73628A"/>
<path d="M331.633 136.553C329.014 144.41 325.936 158.944 334.58 154.23C337.2 155.539 342.831 157.372 344.403 154.23C347.022 155.212 352.261 156.194 352.261 152.266C353.972 153.406 357.173 154.646 357.971 151.834C358.021 151.321 358.082 150.81 358.155 150.302C361.757 151.611 367.978 152.266 364.049 144.41C360.119 136.553 355.863 133.28 354.226 132.625C353.592 133.179 352.633 133.833 351.376 134.473C350.218 135.061 348.808 135.638 347.167 136.114C345.591 136.57 343.802 136.934 341.819 137.125C339.9 137.31 337.8 137.334 335.536 137.125C334.284 137.009 332.982 136.823 331.633 136.553Z" fill="#698F40"/>
<path d="M341.452 203.334C336.213 196.787 328.879 183.889 341.452 184.675C354.025 185.461 364.372 185.002 367.974 184.675C372.23 183.693 378.19 187.032 367.974 208.244C366.048 212.138 349.49 206.593 341.452 203.334Z" fill="#73628A"/>
<path d="M327.705 225.916C324.431 235.082 320.633 253.61 331.635 254.396C345.387 255.378 360.121 259.306 365.032 249.485C369.612 240.328 375.047 231.17 366.997 229.976C366.415 229.889 365.762 229.845 365.032 229.845C356.388 229.845 342.44 225.916 336.546 223.952C335.998 223.81 335.319 223.675 334.582 223.581C331.917 223.243 328.49 223.455 327.705 225.916Z" fill="#73628A"/>
<path d="M336.546 223.952C342.44 225.916 356.388 229.845 365.032 229.845C365.762 229.845 366.415 229.889 366.997 229.976C375.838 218.322 379.767 207.258 366.997 208.24C356.781 209.026 347.024 205.294 343.422 203.33C330.849 201.758 332.29 216.176 334.582 223.581C335.319 223.675 335.998 223.81 336.546 223.952Z" fill="#73628A"/>
</svg>
