<svg width="214" height="257" viewBox="0 0 214 257" fill="none" xmlns="http://www.w3.org/2000/svg">
<path d="M117.874 136.866C117.546 130.632 115.315 115.999 109.016 107.338C106.779 104.262 104.859 101.265 103.484 98.4838C102.706 96.9122 102.102 95.4091 101.713 93.9991C101.397 92.8569 101.222 91.7757 101.209 90.7685C101.194 89.5818 101.404 88.4978 101.874 87.5379C102.367 86.5335 103.144 85.6648 104.247 84.9562C105.017 84.4617 105.946 84.0452 107.047 83.7148C108.529 83.2703 109.877 82.915 111.128 82.7094C113.7 82.2866 115.862 82.4965 117.936 83.8642C119.022 84.5804 120.083 85.6139 121.166 87.0403C121.806 87.8832 122.454 88.8632 123.119 89.9959C123.804 91.1626 124.507 92.4913 125.238 93.9991C126.599 96.8047 128.059 100.23 129.685 104.385C133.294 112.259 140.512 128.992 140.512 132.929C135.313 138.227 123.254 137.762 117.874 136.866Z" fill="#73628A"/>
<path d="M109.016 107.338C106.779 104.262 104.859 101.265 103.484 98.4838C83.9688 105.498 40.757 118.559 23.3852 114.935C48.1866 120.201 86.96 113.275 109.016 107.338Z" fill="#EAEAEA"/>
<path d="M1.63365 100.46C4.70793 108.146 12.6655 112.619 23.1581 114.886L23.3852 114.935C40.757 118.559 83.9688 105.498 103.484 98.4838C102.706 96.9122 102.102 95.4091 101.713 93.9991C83.5047 100.777 38.9895 108.101 6.59297 83.1677C2.81352 87.8733 0.763323 92.4059 0.844371 96.5273C0.871088 97.8859 1.12938 99.1998 1.63365 100.46Z" fill="#698F40"/>
<path d="M6.59297 83.1677C38.9895 108.101 83.5047 100.777 101.713 93.9991C101.397 92.8569 101.222 91.7757 101.209 90.7685C80.2408 91.2914 35.6065 87.3346 24.8151 67.3234C17.0043 72.6026 10.7517 77.9899 6.59297 83.1677Z" fill="#EAEAEA"/>
<path d="M24.8151 67.3234C35.6065 87.3346 80.2408 91.2914 101.209 90.7685C101.194 89.5818 101.404 88.4978 101.874 87.5379C86.0963 82.1535 52.8035 68.1543 45.8555 55.2318C38.0531 59.093 30.9529 63.1748 24.8151 67.3234Z" fill="#698F40"/>
<path d="M45.8555 55.2318C52.8035 68.1543 86.0963 82.1535 101.874 87.5379C102.367 86.5335 103.144 85.6648 104.247 84.9562C98.0415 81.4844 83.0452 68.41 72.7073 43.8873C63.1745 47.2991 54.1209 51.1416 45.8555 55.2318Z" fill="#EAEAEA"/>
<path d="M104.247 84.9562C105.017 84.4617 105.946 84.0452 107.047 83.7148C108.529 83.2703 109.877 82.915 111.128 82.7094C113.458 76.3876 114.87 58.047 101.874 35.2584C91.8849 37.6041 82.0652 40.5382 72.7073 43.8873C83.0452 68.41 98.0415 81.4844 104.247 84.9562Z" fill="#698F40"/>
<path d="M101.874 35.2584C114.87 58.047 113.458 76.3876 111.128 82.7094C113.7 82.2866 115.862 82.4965 117.936 83.8642C123.32 81.3782 133.443 67.1814 130.858 30.2823C121.213 31.2964 111.465 33.0062 101.874 35.2584Z" fill="#EAEAEA"/>
<path d="M130.858 30.2823C133.443 67.1814 123.32 81.3782 117.936 83.8642C119.022 84.5804 120.083 85.6139 121.166 87.0403C136.242 76.6878 165.749 50.7388 163.164 29.7625C152.788 28.8727 141.89 29.1224 130.858 30.2823Z" fill="#698F40"/>
<path d="M163.164 29.7625C165.749 50.7388 136.242 76.6878 121.166 87.0403C121.806 87.8832 122.454 88.8632 123.119 89.9959C148.309 83.1521 199.658 63.8414 203.54 41.3492C191.926 34.6768 178.083 31.0418 163.164 29.7625Z" fill="#EAEAEA"/>
<path d="M205.162 42.3096C204.626 41.9827 204.086 41.6626 203.54 41.3492C199.658 63.8414 148.309 83.1521 123.119 89.9959C123.804 91.1626 124.507 92.4913 125.238 93.9991C139.461 92.2744 171.954 86.7579 188.149 78.4896C204.536 68.0131 216.019 56.7138 212.93 48.7706C211.94 46.227 209.457 44.0276 205.162 42.3096Z" fill="#698F40"/>
<path d="M125.238 93.9991C126.599 96.8047 128.059 100.23 129.685 104.385C146.673 100.319 170.315 89.8916 188.149 78.4896C171.954 86.7579 139.461 92.2744 125.238 93.9991Z" fill="#EAEAEA"/>
<path fill-rule="evenodd" clip-rule="evenodd" d="M0.844371 96.5273C0.763323 92.4059 2.81352 87.8733 6.59297 83.1677C10.7517 77.9899 17.0043 72.6026 24.8151 67.3234C30.9529 63.1748 38.0531 59.093 45.8555 55.2318C54.1209 51.1416 63.1745 47.2991 72.7073 43.8873C82.0652 40.5382 91.8849 37.6041 101.874 35.2584C111.465 33.0062 121.213 31.2964 130.858 30.2823C141.89 29.1224 152.788 28.8727 163.164 29.7625C178.083 31.0418 191.926 34.6768 203.54 41.3492C204.086 41.6626 204.626 41.9827 205.162 42.3096C209.457 44.0276 211.94 46.227 212.93 48.7706C212.807 44.5747 203.393 34.6968 198.701 30.2823C196.789 37.9161 182.548 26.1564 189.009 22.9258C173.502 10.0034 150.163 5.66837 140.431 5.11617C140.41 7.03431 139.34 8.99277 137.32 10.0032C130.858 13.2338 121.167 10.003 124.397 3.54198C98.5524 3.54198 78.3469 10.0032 71.4747 13.2338C72.2454 14.137 72.7072 15.2431 72.7073 16.4646C72.7075 22.9261 63.0157 26.156 56.5545 19.6952C41.0476 24.8641 24.9806 39.5212 18.8855 46.2036C19.7611 46.8784 20.5039 47.7427 21.0179 48.7706C24.2485 55.2318 18.4328 60.4008 8.09514 55.2318C-0.904919 68.7319 -0.763907 86.4762 0.844371 96.5273ZM150.242 16.4646C153.473 15.3877 159.934 14.5262 159.934 19.6952C159.934 26.1564 140.55 19.6954 150.242 16.4646ZM111.128 19.6952C114.474 16.4646 121.167 11.9417 121.167 19.6952C121.167 29.387 105.937 23.4209 111.128 19.6952ZM88.8606 16.4646C87.7837 15.3877 86.9222 13.234 92.0912 13.234C98.5524 13.234 95.3218 19.6952 88.8606 16.4646ZM59.7851 32.6176C63.0157 30.4639 69.4769 27.4486 69.4769 32.6176C69.4769 39.0788 53.3239 35.8482 59.7851 32.6176ZM46.6653 43.8873C46.5074 39.9807 40.2699 39.0539 37.1709 39.0788C36.094 39.0788 34.5864 40.371 37.1709 45.54C40.4015 52.0012 46.8627 48.7706 46.6653 43.8873ZM17.7873 61.693C16.9087 60.6775 14.6695 61.0533 12.8818 62.5533C9.65121 65.7839 13.031 67.3234 16.4641 67.3234C19.8973 67.3234 18.8855 62.9625 17.7873 61.693Z" fill="#CBC5EA"/>
<path d="M12.8818 62.5533C14.6695 61.0533 16.9087 60.6775 17.7873 61.693C18.8855 62.9625 19.8973 67.3234 16.4641 67.3234C13.031 67.3234 9.65121 65.7839 12.8818 62.5533Z" fill="#EAEAEA"/>
<path d="M8.09514 55.2318C18.4328 60.4008 24.2485 55.2318 21.0179 48.7706C20.5039 47.7427 19.7611 46.8784 18.8855 46.2036C14.2574 42.6365 5.92201 44.3652 8.09514 55.2318Z" fill="#EAEAEA"/>
<path d="M37.1709 39.0788C40.2699 39.0539 46.5074 39.9807 46.6653 43.8873C46.8627 48.7706 40.4015 52.0012 37.1709 45.54C34.5864 40.371 36.094 39.0788 37.1709 39.0788Z" fill="#EAEAEA"/>
<path d="M59.7851 32.6176C63.0157 30.4639 69.4769 27.4486 69.4769 32.6176C69.4769 39.0788 53.3239 35.8482 59.7851 32.6176Z" fill="#EAEAEA"/>
<path d="M56.5545 19.6952C63.0157 26.156 72.7075 22.9261 72.7073 16.4646C72.7072 15.2431 72.2454 14.137 71.4747 13.2338C68.1681 9.3586 59.1745 9.21545 56.5545 19.6952Z" fill="#EAEAEA"/>
<path d="M88.8606 16.4646C87.7837 15.3877 86.9222 13.234 92.0912 13.234C98.5524 13.234 95.3218 19.6952 88.8606 16.4646Z" fill="#EAEAEA"/>
<path d="M111.128 19.6952C114.474 16.4646 121.167 11.9417 121.167 19.6952C121.167 29.387 105.937 23.4209 111.128 19.6952Z" fill="#EAEAEA"/>
<path d="M124.397 3.54198C121.167 10.003 130.858 13.2338 137.32 10.0032C139.34 8.99277 140.41 7.03431 140.431 5.11617C140.48 0.901419 135.472 -3.1186 124.397 3.54198Z" fill="#EAEAEA"/>
<path d="M150.242 16.4646C153.473 15.3877 159.934 14.5262 159.934 19.6952C159.934 26.1564 140.55 19.6954 150.242 16.4646Z" fill="#EAEAEA"/>
<path d="M189.009 22.9258C192.877 22.8334 200.231 24.1753 198.701 30.2823C196.789 37.9161 182.548 26.1564 189.009 22.9258Z" fill="#EAEAEA"/>
<path d="M130.667 154.588C129.092 157.738 123.449 155.9 120.824 154.588C125.245 165.622 132.147 187.691 124.394 187.691H153.469C149.745 181.532 142.907 166.106 144.262 152.186C143.463 155.005 140.255 153.762 138.541 152.619C138.541 156.556 133.292 155.572 130.667 154.588Z" fill="#73628A"/>
<path d="M117.871 136.871C115.247 144.745 112.163 159.312 120.824 154.588C123.449 155.9 129.092 157.738 130.667 154.588C133.292 155.572 138.541 156.556 138.541 152.619C140.255 153.762 143.463 155.005 144.262 152.186C144.313 151.672 144.374 151.16 144.447 150.651C148.056 151.963 154.29 152.619 150.352 144.745C146.415 136.871 142.15 133.59 140.51 132.934C139.875 133.489 138.914 134.145 137.654 134.785C136.494 135.376 135.081 135.954 133.437 136.43C131.857 136.888 130.065 137.252 128.078 137.444C126.155 137.629 124.051 137.653 121.782 137.444C120.528 137.328 119.223 137.141 117.871 136.871Z" fill="#698F40"/>
<path d="M127.714 203.791C122.465 197.229 115.115 184.302 127.714 185.089C140.313 185.877 150.681 185.417 154.29 185.089C158.555 184.105 164.526 187.452 154.29 208.712C152.361 212.615 135.769 207.057 127.714 203.791Z" fill="#73628A"/>
<path d="M113.937 226.437C110.656 235.624 106.85 254.194 117.874 254.981C131.654 255.966 146.418 259.903 151.34 250.06C155.929 240.881 161.374 231.703 153.308 230.506C152.725 230.419 152.07 230.374 151.34 230.374C142.678 230.374 128.701 226.437 122.796 224.469C122.246 224.326 121.566 224.19 120.827 224.096C118.157 223.757 114.723 223.97 113.937 226.437Z" fill="#73628A"/>
<path d="M122.796 224.469C128.701 226.437 142.678 230.374 151.34 230.374C152.07 230.374 152.725 230.419 153.308 230.506C162.167 218.825 166.104 207.736 153.308 208.72C143.072 209.508 133.295 205.767 129.686 203.799C117.087 202.224 118.53 216.674 120.827 224.096C121.566 224.19 122.246 224.326 122.796 224.469Z" fill="#73628A"/>
</svg>
