<svg width="214" height="258" viewBox="0 0 214 258" fill="none" xmlns="http://www.w3.org/2000/svg">
<path d="M118.506 137.478C118.178 131.254 115.95 116.642 109.66 107.992C107.426 104.921 105.51 101.929 104.136 99.1511C103.36 97.5818 102.757 96.0809 102.368 94.6728C102.052 93.5323 101.877 92.4526 101.865 91.4469C101.849 90.2619 102.059 89.1795 102.529 88.2209C103.02 87.2179 103.797 86.3505 104.899 85.6429C105.668 85.1491 106.595 84.7332 107.694 84.4033C109.174 83.9594 110.52 83.6046 111.769 83.3993C114.337 82.9772 116.497 83.1868 118.567 84.5525C119.652 85.2676 120.712 86.2997 121.793 87.724C122.432 88.5657 123.079 89.5443 123.743 90.6753C124.427 91.8404 125.129 93.1672 125.859 94.6728C127.219 97.4744 128.677 100.895 130.3 105.044C133.904 112.907 141.112 129.615 141.112 133.547C135.92 138.838 123.878 138.372 118.506 137.478Z" fill="#73628A"/>
<path d="M109.66 107.992C107.426 104.921 105.51 101.929 104.136 99.1511C84.6491 106.156 41.4993 119.197 24.1524 115.578C48.9182 120.838 87.636 113.921 109.66 107.992Z" fill="#EAEAEA"/>
<path d="M2.43209 101.125C5.50196 108.8 13.4481 113.266 23.9257 115.53L24.1524 115.578C41.4993 119.197 84.6491 106.156 104.136 99.1511C103.36 97.5818 102.757 96.0809 102.368 94.6728C84.1857 101.441 39.7344 108.754 7.3843 83.857C3.61026 88.5558 1.56301 93.0819 1.64394 97.1975C1.67062 98.5541 1.92854 99.8661 2.43209 101.125Z" fill="#698F40"/>
<path d="M7.3843 83.857C39.7344 108.754 84.1857 101.441 102.368 94.6728C102.052 93.5323 101.877 92.4526 101.865 91.4469C80.9265 91.9691 36.3562 88.0179 25.5802 68.0354C17.7807 73.3071 11.5371 78.6866 7.3843 83.857Z" fill="#EAEAEA"/>
<path d="M25.5802 68.0354C36.3562 88.0179 80.9265 91.9691 101.865 91.4469C101.849 90.2619 102.059 89.1795 102.529 88.2209C86.7736 82.8443 53.5285 68.8651 46.5905 55.9612C38.7993 59.8168 31.7093 63.8928 25.5802 68.0354Z" fill="#698F40"/>
<path d="M46.5905 55.9612C53.5285 68.8651 86.7736 82.8443 102.529 88.2209C103.02 87.2179 103.797 86.3505 104.899 85.6429C98.7017 82.1761 83.7268 69.1205 73.4037 44.633C63.8846 48.0398 54.8441 51.8768 46.5905 55.9612Z" fill="#EAEAEA"/>
<path d="M104.899 85.6429C105.668 85.1491 106.595 84.7332 107.694 84.4033C109.174 83.9594 110.52 83.6046 111.769 83.3993C114.096 77.0866 115.506 58.7723 102.529 36.0165C92.5539 38.3588 82.7483 41.2886 73.4037 44.633C83.7268 69.1205 98.7017 82.1761 104.899 85.6429Z" fill="#698F40"/>
<path d="M102.529 36.0165C115.506 58.7723 114.096 77.0866 111.769 83.3993C114.337 82.9772 116.497 83.1868 118.567 84.5525C123.944 82.07 134.052 67.8936 131.471 31.0475C121.84 32.0601 112.106 33.7675 102.529 36.0165Z" fill="#EAEAEA"/>
<path d="M131.471 31.0475C134.052 67.8936 123.944 82.07 118.567 84.5525C119.652 85.2676 120.712 86.2997 121.793 87.724C136.848 77.3864 166.312 51.4746 163.731 30.5284C153.369 29.6399 142.487 29.8893 131.471 31.0475Z" fill="#698F40"/>
<path d="M163.731 30.5284C166.312 51.4746 136.848 77.3864 121.793 87.724C122.432 88.5657 123.079 89.5443 123.743 90.6753C148.897 83.8414 200.172 64.5584 204.049 42.0985C192.451 35.4356 178.629 31.8059 163.731 30.5284Z" fill="#EAEAEA"/>
<path d="M205.668 43.0575C205.133 42.7311 204.594 42.4114 204.049 42.0985C200.172 64.5584 148.897 83.8414 123.743 90.6753C124.427 91.8404 125.129 93.1672 125.859 94.6728C140.062 92.9506 172.509 87.442 188.68 79.1856C205.043 68.7241 216.51 57.441 213.425 49.5093C212.437 46.9693 209.957 44.773 205.668 43.0575Z" fill="#698F40"/>
<path d="M125.859 94.6728C127.219 97.4744 128.677 100.895 130.3 105.044C147.263 100.984 170.872 90.5712 188.68 79.1856C172.509 87.442 140.062 92.9506 125.859 94.6728Z" fill="#EAEAEA"/>
<path fill-rule="evenodd" clip-rule="evenodd" d="M1.64394 97.1975C1.56301 93.0819 3.61026 88.5558 7.3843 83.857C11.5371 78.6866 17.7807 73.3071 25.5802 68.0354C31.7093 63.8928 38.7993 59.8168 46.5905 55.9612C54.8441 51.8768 63.8846 48.0398 73.4037 44.633C82.7483 41.2886 92.5539 38.3588 102.529 36.0165C112.106 33.7675 121.84 32.0601 131.471 31.0475C142.487 29.8893 153.369 29.6399 163.731 30.5284C178.629 31.8059 192.451 35.4356 204.049 42.0985C204.594 42.4114 205.133 42.7311 205.668 43.0575C209.957 44.773 212.437 46.9693 213.425 49.5093C213.303 45.3194 203.902 35.4556 199.217 31.0475C197.308 38.6703 183.087 26.9275 189.539 23.7015C174.054 10.7976 150.748 6.46883 141.031 5.91742C141.009 7.83281 139.941 9.78847 137.923 10.7974C131.472 14.0234 121.794 10.7973 125.02 4.34549C99.2118 4.34549 79.0353 10.7974 72.173 14.0234C72.9426 14.9254 73.4037 16.0298 73.4037 17.2495C73.404 23.7018 63.7261 26.9271 57.2742 20.4755C41.7895 25.6371 25.7456 40.2731 19.6592 46.9459C20.5335 47.6197 21.2753 48.4829 21.7885 49.5093C25.0145 55.9612 19.2072 61.1227 8.88431 55.9612C-0.10284 69.4419 0.0379699 87.1608 1.64394 97.1975ZM150.827 17.2495C154.053 16.1742 160.505 15.314 160.505 20.4755C160.505 26.9275 141.149 20.4757 150.827 17.2495ZM111.769 20.4755C115.111 17.2495 121.794 12.7332 121.794 20.4755C121.794 30.1534 106.586 24.1959 111.769 20.4755ZM89.5339 17.2495C88.4586 16.1742 87.5983 14.0236 92.7599 14.0236C99.2118 14.0236 95.9858 20.4755 89.5339 17.2495ZM60.5001 33.3794C63.7261 31.2288 70.1781 28.2178 70.1781 33.3794C70.1781 39.8313 54.0482 36.6054 60.5001 33.3794ZM47.3991 44.633C47.2414 40.7319 41.0129 39.8065 37.9183 39.8313C36.843 39.8313 35.3376 41.1217 37.9183 46.2833C41.1443 52.7352 47.5963 49.5093 47.3991 44.633ZM18.5625 62.4131C17.6852 61.399 15.4492 61.7743 13.6641 63.2722C10.4381 66.4982 13.8131 68.0354 17.2413 68.0354C20.6695 68.0354 19.6592 63.6808 18.5625 62.4131Z" fill="#CBC5EA"/>
<path d="M13.6641 63.2722C15.4492 61.7743 17.6852 61.399 18.5625 62.4131C19.6592 63.6808 20.6695 68.0354 17.2413 68.0354C13.8131 68.0354 10.4381 66.4982 13.6641 63.2722Z" fill="#EAEAEA"/>
<path d="M8.88431 55.9612C19.2072 61.1227 25.0145 55.9612 21.7885 49.5093C21.2753 48.4829 20.5335 47.6197 19.6592 46.9459C15.0377 43.3839 6.7143 45.1101 8.88431 55.9612Z" fill="#EAEAEA"/>
<path d="M37.9183 39.8313C41.0129 39.8065 47.2414 40.7319 47.3991 44.633C47.5963 49.5093 41.1443 52.7352 37.9183 46.2833C35.3376 41.1217 36.843 39.8313 37.9183 39.8313Z" fill="#EAEAEA"/>
<path d="M60.5001 33.3794C63.7261 31.2288 70.1781 28.2178 70.1781 33.3794C70.1781 39.8313 54.0482 36.6054 60.5001 33.3794Z" fill="#EAEAEA"/>
<path d="M57.2742 20.4755C63.7261 26.9271 73.404 23.7018 73.4037 17.2495C73.4037 16.0298 72.9426 14.9254 72.173 14.0234C68.8711 10.1538 59.8904 10.0108 57.2742 20.4755Z" fill="#EAEAEA"/>
<path d="M89.5339 17.2495C88.4586 16.1742 87.5983 14.0236 92.7599 14.0236C99.2118 14.0236 95.9858 20.4755 89.5339 17.2495Z" fill="#EAEAEA"/>
<path d="M111.769 20.4755C115.111 17.2495 121.794 12.7332 121.794 20.4755C121.794 30.1534 106.586 24.1959 111.769 20.4755Z" fill="#EAEAEA"/>
<path d="M125.02 4.34549C121.794 10.7973 131.472 14.0234 137.923 10.7974C139.941 9.78847 141.009 7.83281 141.031 5.91742C141.079 1.70872 136.079 -2.30554 125.02 4.34549Z" fill="#EAEAEA"/>
<path d="M150.827 17.2495C154.053 16.1742 160.505 15.314 160.505 20.4755C160.505 26.9275 141.149 20.4757 150.827 17.2495Z" fill="#EAEAEA"/>
<path d="M189.539 23.7015C193.401 23.6092 200.744 24.9492 199.217 31.0475C197.308 38.6703 183.087 26.9275 189.539 23.7015Z" fill="#EAEAEA"/>
<path d="M131.281 155.17C129.709 158.315 124.074 156.481 121.453 155.17C125.867 166.189 132.759 188.226 125.017 188.226H154.051C150.332 182.075 143.504 166.672 144.857 152.772C144.059 155.586 140.856 154.346 139.144 153.204C139.144 157.136 133.902 156.153 131.281 155.17Z" fill="#73628A"/>
<path d="M118.504 137.478C115.883 145.341 112.803 159.888 121.453 155.17C124.074 156.481 129.709 158.315 131.281 155.17C133.902 156.153 139.144 157.136 139.144 153.204C140.856 154.346 144.059 155.586 144.857 152.772C144.907 152.258 144.969 151.747 145.041 151.239C148.645 152.549 154.87 153.204 150.939 145.341C147.007 137.478 142.748 134.202 141.11 133.547C140.476 134.102 139.516 134.756 138.258 135.396C137.1 135.985 135.689 136.563 134.047 137.038C132.47 137.496 130.68 137.859 128.696 138.051C126.776 138.236 124.675 138.26 122.409 138.051C121.157 137.935 119.854 137.748 118.504 137.478Z" fill="#698F40"/>
<path d="M128.329 204.314C123.087 197.762 115.749 184.854 128.329 185.64C140.91 186.426 151.263 185.967 154.867 185.64C159.126 184.657 165.089 187.999 154.867 209.229C152.94 213.126 136.372 207.577 128.329 204.314Z" fill="#73628A"/>
<path d="M114.575 226.916C111.298 236.09 107.498 254.633 118.506 255.419C132.266 256.402 147.01 260.334 151.924 250.505C156.507 241.34 161.944 232.174 153.89 230.979C153.307 230.892 152.653 230.848 151.924 230.848C143.275 230.848 129.318 226.916 123.421 224.95C122.872 224.808 122.193 224.672 121.455 224.579C118.789 224.24 115.36 224.453 114.575 226.916Z" fill="#73628A"/>
<path d="M123.421 224.95C129.318 226.916 143.275 230.848 151.924 230.848C152.653 230.848 153.307 230.892 153.89 230.979C162.735 219.315 166.667 208.242 153.89 209.225C143.668 210.011 133.905 206.276 130.301 204.31C117.72 202.738 119.161 217.167 121.455 224.579C122.193 224.672 122.872 224.808 123.421 224.95Z" fill="#73628A"/>
</svg>
