<svg width="236" height="272" viewBox="0 0 236 272" fill="none" xmlns="http://www.w3.org/2000/svg">
<path d="M3.61463 43.0079C-2.80994 36.5833 13.2515 23.7345 16.4638 26.9464C22.1155 32.5976 10.0392 46.2201 3.61463 43.0079Z" fill="#CBC5EA"/>
<path d="M35.7375 26.9453C34.5168 25.7246 42.1621 20.5207 42.1621 23.733C42.1621 26.9453 38.9498 30.1575 35.7375 26.9453Z" fill="#CBC5EA"/>
<path d="M22.8884 49.4324C16.4638 51.5739 0.402344 55.857 0.402344 62.2813C56.9386 90.5492 91.6402 94.798 101.924 93.3889C101.787 92.0177 101.674 90.739 101.591 89.58C101.495 88.2308 101.552 87.0246 101.74 85.9482C87.5976 85.5547 54.7067 77.0581 36.2822 46.2201C30.8828 47.0551 26.202 48.107 22.8884 49.4324Z" fill="#698F40"/>
<path d="M0.402344 62.2813C0.402344 72.2531 14.712 96.1621 58.2235 104.233C68.5028 104.386 92.0295 100.554 102.508 98.619C102.285 96.7754 102.087 95.0169 101.924 93.3889C91.6402 94.798 56.9386 90.5492 0.402344 62.2813Z" fill="#EAEAEA"/>
<path d="M103.547 106.547C103.167 103.823 102.814 101.141 102.508 98.619C92.0295 100.554 68.5028 104.386 58.2235 104.233C70.78 106.562 85.7684 107.572 103.547 106.547Z" fill="#698F40"/>
<path d="M107.463 131.664H138.782C138.782 122.387 137.609 113.891 135.82 106.547C135.334 104.554 134.803 102.645 134.237 100.829C133.78 99.3584 133.299 97.9483 132.802 96.6027C131.967 94.342 131.085 92.2632 130.184 90.3851C128.969 87.8508 127.719 85.6818 126.503 83.9238C125.744 82.8261 124.998 81.8887 124.283 81.1227C123.145 79.9047 122.083 79.1203 121.165 78.8142C120.105 78.4609 118.72 78.1369 117.174 77.934C114.159 77.5382 110.535 77.6038 107.536 78.8142C105.98 79.442 104.593 80.3777 103.547 81.7167C102.676 82.8301 102.041 84.2223 101.74 85.9482C101.552 87.0246 101.495 88.2308 101.591 89.58C101.674 90.739 101.787 92.0177 101.924 93.3889C102.087 95.0169 102.285 96.7754 102.508 98.619C102.814 101.141 103.167 103.823 103.547 106.547C104.865 116.02 106.49 126.016 107.463 131.664Z" fill="#CBC5EA"/>
<path d="M100.691 43.5645C98.6881 59.4288 104.42 73.6744 107.536 78.8142C110.535 77.6038 114.159 77.5382 117.174 77.934C119.141 73.3224 122.692 60.3839 121.165 45.5228C112.523 44.9359 105.698 44.1077 100.691 43.5645Z" fill="#EAEAEA"/>
<path d="M93.5587 43.0079C91.0302 43.0079 82.0337 43.0079 71.0727 43.3996C83.9218 66.8414 98.0757 78.7117 103.547 81.7167C104.593 80.3777 105.98 79.442 107.536 78.8142C104.42 73.6744 98.6881 59.4288 100.691 43.5645C97.6378 43.2332 96.771 43.0079 93.5587 43.0079Z" fill="#698F40"/>
<path d="M36.2822 46.2201C54.7067 77.0581 87.5976 85.5547 101.74 85.9482C102.041 84.2223 102.676 82.8301 103.547 81.7167C98.0757 78.7117 83.9218 66.8414 71.0727 43.3996C59.9287 43.7978 46.7541 44.6008 36.2822 46.2201Z" fill="#EAEAEA"/>
<path d="M55.0112 33.3698C53.001 31.3596 53.0839 26.9453 58.2235 26.9453C64.6481 26.9453 71.0727 36.5821 64.6481 36.5821C59.5084 36.5821 56.082 34.4406 55.0112 33.3698Z" fill="#CBC5EA"/>
<path fill-rule="evenodd" clip-rule="evenodd" d="M0.402344 62.2813C0.402344 55.857 16.4638 51.5739 22.8884 49.4324C26.202 48.107 30.8828 47.0551 36.2822 46.2201C46.7541 44.6008 59.9287 43.7978 71.0727 43.3996C82.0337 43.0079 91.0302 43.0079 93.5587 43.0079C96.771 43.0079 97.6378 43.2332 100.691 43.5645C105.698 44.1077 112.523 44.9359 121.165 45.5228C127.152 45.9294 134.011 46.2201 141.743 46.2201C143.302 46.2201 144.801 46.2083 146.245 46.1861C167.198 45.864 176.467 43.3558 184.997 43.0404C185.572 43.0191 186.144 43.0079 186.715 43.0079C192.095 43.0079 205.483 46.011 216.821 50.3409C224.517 53.2803 231.269 56.8311 233.929 60.4688C234.369 61.0711 234.698 61.6769 234.899 62.2816C234.628 54.0356 226.757 42.9796 222.855 38.4829C222.659 39.0054 222.391 39.454 222.05 39.7944C218.838 43.0067 205.989 33.3698 212.413 30.1575C191.855 14.7386 163.158 8.74328 151.38 7.67302C151.38 14.0967 128.894 14.0977 128.894 4.46047C110.905 1.89064 89.2756 3.68297 80.7095 4.90036C81.163 5.71847 81.2183 6.65545 80.7095 7.67302C77.4973 14.0976 64.6481 14.0978 64.6481 7.67302C46.6593 7.67302 25.0299 20.5219 16.4638 26.9464C22.1155 32.5976 10.0392 46.2201 3.61463 43.0079C1.0448 50.7173 0.402344 59.0691 0.402344 62.2813ZM35.7375 26.9453C34.5168 25.7246 42.1621 20.5207 42.1621 23.733C42.1621 26.9453 38.9498 30.1575 35.7375 26.9453ZM26.1006 36.5821C29.1314 35.2493 35.3018 33.3834 35.7375 36.5821C36.2822 40.5805 19.6761 39.7944 26.1006 36.5821ZM58.2235 26.9453C53.0839 26.9453 53.001 31.3596 55.0112 33.3698C56.082 34.4406 59.5084 36.5821 64.6481 36.5821C71.0727 36.5821 64.6481 26.9453 58.2235 26.9453ZM90.3464 26.9453C90.3464 23.733 92.9162 17.9509 103.196 20.5207C116.045 23.733 90.3464 36.5821 90.3464 26.9453ZM128.894 30.1575C135.318 29.9716 146.883 30.9962 141.743 36.5821C135.318 43.5645 119.257 30.1575 128.894 30.1575ZM164.229 26.9453C164.229 23.733 166.156 17.9509 173.866 20.5207C183.503 23.733 164.229 36.5821 164.229 26.9453Z" fill="#73628A"/>
<path d="M26.1006 36.5821C29.1314 35.2493 35.3018 33.3834 35.7375 36.5821C36.2822 40.5805 19.6761 39.7944 26.1006 36.5821Z" fill="#CBC5EA"/>
<path d="M64.6481 7.67302C64.6481 14.0978 77.4973 14.0976 80.7095 7.67302C81.2183 6.65545 81.163 5.71847 80.7095 4.90036C78.2999 0.553212 64.6481 -0.437494 64.6481 7.67302Z" fill="#CBC5EA"/>
<path d="M90.3464 26.9453C90.3464 23.733 92.9162 17.9509 103.196 20.5207C116.045 23.733 90.3464 36.5821 90.3464 26.9453Z" fill="#CBC5EA"/>
<path d="M128.894 30.1575C135.318 29.9716 146.883 30.9962 141.743 36.5821C135.318 43.5645 119.257 30.1575 128.894 30.1575Z" fill="#CBC5EA"/>
<path d="M128.894 4.46047C132.106 -5.17762 151.38 3.13034 151.38 7.67302C151.38 14.0967 128.894 14.0977 128.894 4.46047Z" fill="#CBC5EA"/>
<path d="M164.229 26.9453C164.229 23.733 166.156 17.9509 173.866 20.5207C183.503 23.733 164.229 36.5821 164.229 26.9453Z" fill="#CBC5EA"/>
<path d="M212.413 30.1575C205.989 33.3698 218.838 43.0067 222.05 39.7944C222.391 39.454 222.659 39.0054 222.855 38.4829C224.51 34.0753 221.029 24.4138 212.413 30.1575Z" fill="#CBC5EA"/>
<path d="M233.929 60.4688C222.873 89.8564 161.904 96.8029 132.802 96.6027C133.299 97.9483 133.78 99.3584 134.237 100.829C144.705 101.735 164.576 103.013 174.158 102.232C175.704 101.963 177.25 101.68 178.794 101.384C211.016 95.2096 241.866 83.182 234.899 62.2816C234.698 61.6769 234.369 61.0711 233.929 60.4688Z" fill="#698F40"/>
<path d="M134.237 100.829C134.803 102.645 135.334 104.554 135.82 106.547C146.632 105.995 160.36 104.635 174.158 102.232C164.576 103.013 144.705 101.735 134.237 100.829Z" fill="#EAEAEA"/>
<path d="M216.821 50.3409C210.067 76.766 156.249 88.0475 130.184 90.3851C131.085 92.2632 131.967 94.342 132.802 96.6027C161.904 96.8029 222.873 89.8564 233.929 60.4688C231.269 56.8311 224.517 53.2803 216.821 50.3409Z" fill="#EAEAEA"/>
<path d="M186.715 43.0079C186.144 43.0079 185.572 43.0191 184.997 43.0404C181.053 66.1949 144.358 79.9437 126.503 83.9238C127.719 85.6818 128.969 87.8508 130.184 90.3851C156.249 88.0475 210.067 76.766 216.821 50.3409C205.483 46.011 192.095 43.0079 186.715 43.0079Z" fill="#698F40"/>
<path d="M146.245 46.1861C144.708 59.0081 130.963 74.8196 124.283 81.1227C124.998 81.8887 125.744 82.8261 126.503 83.9238C144.358 79.9437 181.053 66.1949 184.997 43.0404C176.467 43.3558 167.198 45.864 146.245 46.1861Z" fill="#EAEAEA"/>
<path d="M117.174 77.934C118.72 78.1369 120.105 78.4609 121.165 78.8142C122.083 79.1203 123.145 79.9047 124.283 81.1227C130.963 74.8196 144.708 59.0081 146.245 46.1861C144.801 46.2083 143.302 46.2201 141.743 46.2201C134.011 46.2201 127.152 45.9294 121.165 45.5228C122.692 60.3839 119.141 73.3224 117.174 77.934Z" fill="#698F40"/>
<path d="M107.463 131.664C100.687 140.66 91.631 158.008 109.62 155.438C112.833 136.164 119.257 158.65 125.682 155.438C129.313 153.622 133.874 138.798 138.782 149.013C144.956 161.863 151.38 152.226 151.38 149.013C151.38 145.801 151.882 143.226 138.782 131.664H107.463Z" fill="#73628A"/>
<path d="M99.982 222.896C99.1391 223.18 98.3699 223.341 97.668 223.391C84.2404 226.487 87.1328 230.469 87.1328 251.807C87.1328 274.293 106.407 271.08 132.105 271.08C157.803 271.08 154.591 255.019 157.803 242.17C160.373 231.89 152.451 227.179 148.168 226.108C132.105 222.093 109.619 220.754 99.982 222.896Z" fill="#CBC5EA"/>
<path d="M141.743 197.198C136.594 197.198 106.408 193.985 103.196 193.985C97.842 193.985 90.3469 195.496 90.3467 203.622C90.3464 212.416 90.3466 223.914 97.668 223.391C98.391 223.224 99.1613 223.06 99.982 222.896C109.619 220.754 132.105 222.093 148.168 226.108C151.38 222.896 167.443 199.338 141.743 197.198Z" fill="#CBC5EA"/>
<path d="M138.531 177.924C133.177 176.853 117.116 174.712 109.62 174.712C104.267 174.712 96.7712 174.712 96.7712 181.136C96.7712 186.49 96.7712 193.985 103.196 193.985C106.408 193.985 136.594 197.198 141.743 197.198C144.956 197.198 148.168 193.985 151.38 187.561C153.95 182.421 143.885 178.995 138.531 177.924Z" fill="#CBC5EA"/>
<path d="M125.682 155.438C119.257 158.65 112.833 136.164 109.62 155.438L109.62 174.712C117.116 174.712 133.177 176.853 138.531 177.924L138.782 149.013C133.874 138.798 129.313 153.622 125.682 155.438Z" fill="#CBC5EA"/>
</svg>
