<svg width="236" height="272" viewBox="0 0 236 272" fill="none" xmlns="http://www.w3.org/2000/svg">
<path d="M3.92057 43.1376C-2.49479 36.7222 13.5436 23.8918 16.7513 27.0992C22.3949 32.7422 10.3359 46.3452 3.92057 43.1376Z" fill="#CBC5EA"/>
<path d="M35.9974 27.098C34.7784 25.8791 42.4127 20.6827 42.4127 23.8903C42.4127 27.098 39.205 30.3057 35.9974 27.098Z" fill="#CBC5EA"/>
<path d="M23.1666 49.5529C16.7513 51.6913 0.712891 55.9683 0.712891 62.3834C57.1681 90.6107 91.8198 94.8534 102.089 93.4464C101.952 92.0771 101.839 90.8002 101.757 89.6429C101.66 88.2956 101.718 87.0912 101.905 86.0164C87.7831 85.6234 54.9394 77.139 36.5413 46.3452C31.1497 47.179 26.4755 48.2294 23.1666 49.5529Z" fill="#698F40"/>
<path d="M0.712891 62.3834C0.712891 72.3409 15.002 96.2156 58.4511 104.275C68.7157 104.428 92.2086 100.601 102.672 98.6689C102.449 96.828 102.252 95.072 102.089 93.4464C91.8198 94.8534 57.1681 90.6107 0.712891 62.3834Z" fill="#EAEAEA"/>
<path d="M103.709 106.586C103.33 103.865 102.977 101.187 102.672 98.6689C92.2086 100.601 68.7157 104.428 58.4511 104.275C70.9896 106.6 85.9565 107.609 103.709 106.586Z" fill="#698F40"/>
<path d="M107.62 131.667H138.894C138.894 122.403 137.723 113.919 135.936 106.586C135.451 104.595 134.921 102.689 134.356 100.876C133.899 99.4073 133.419 97.9992 132.923 96.6555C132.089 94.3981 131.208 92.3223 130.309 90.4468C129.095 87.9162 127.847 85.7503 126.633 83.9949C125.875 82.8987 125.13 81.9626 124.416 81.1977C123.279 79.9815 122.219 79.1982 121.303 78.8926C120.244 78.5398 118.86 78.2162 117.317 78.0136C114.306 77.6184 110.687 77.6839 107.693 78.8926C106.14 79.5194 104.754 80.4538 103.709 81.7909C102.84 82.9027 102.206 84.2929 101.905 86.0164C101.718 87.0912 101.66 88.2956 101.757 89.6429C101.839 90.8002 101.952 92.0771 102.089 93.4464C102.252 95.072 102.449 96.828 102.672 98.6689C102.977 101.187 103.33 103.865 103.709 106.586C105.025 116.045 106.648 126.027 107.62 131.667Z" fill="#CBC5EA"/>
<path d="M100.858 43.6934C98.8576 59.5349 104.581 73.7601 107.693 78.8926C110.687 77.6839 114.306 77.6184 117.317 78.0136C119.281 73.4086 122.827 60.4887 121.303 45.6489C112.673 45.0629 105.858 44.2359 100.858 43.6934Z" fill="#EAEAEA"/>
<path d="M93.7356 43.1376C91.2108 43.1376 82.2271 43.1376 71.2818 43.5287C84.1126 66.9369 98.2461 78.7902 103.709 81.7909C104.754 80.4538 106.14 79.5194 107.693 78.8926C104.581 73.7601 98.8576 59.5349 100.858 43.6934C97.8089 43.3626 96.9433 43.1376 93.7356 43.1376Z" fill="#698F40"/>
<path d="M36.5413 46.3452C54.9394 77.139 87.7831 85.6234 101.905 86.0164C102.206 84.2929 102.84 82.9027 103.709 81.7909C98.2461 78.7902 84.1126 66.9369 71.2818 43.5287C60.1538 43.9263 46.9982 44.7282 36.5413 46.3452Z" fill="#EAEAEA"/>
<path d="M55.2434 33.5134C53.2361 31.506 53.3188 27.098 58.4511 27.098C64.8665 27.098 71.2818 36.721 64.8665 36.721C59.7342 36.721 56.3127 34.5826 55.2434 33.5134Z" fill="#CBC5EA"/>
<path fill-rule="evenodd" clip-rule="evenodd" d="M0.712891 62.3834C0.712891 55.9683 16.7513 51.6913 23.1666 49.5529C26.4755 48.2294 31.1497 47.179 36.5413 46.3452C46.9982 44.7282 60.1538 43.9263 71.2818 43.5287C82.2271 43.1376 91.2108 43.1376 93.7356 43.1376C96.9433 43.1376 97.8089 43.3626 100.858 43.6934C105.858 44.2359 112.673 45.0629 121.303 45.6489C127.281 46.0549 134.13 46.3452 141.851 46.3452C143.407 46.3452 144.905 46.3334 146.347 46.3113C167.27 45.9896 176.525 43.485 185.043 43.1701C185.617 43.1488 186.188 43.1376 186.758 43.1376C192.13 43.1376 205.499 46.1364 216.821 50.4601C224.506 53.3952 231.248 56.941 233.904 60.5734C234.344 61.1749 234.672 61.7798 234.874 62.3837C234.602 54.1495 226.742 43.1093 222.846 38.6191C222.651 39.1408 222.383 39.5888 222.043 39.9287C218.835 43.1364 206.004 33.5134 212.42 30.3057C191.891 14.9088 163.235 8.92215 151.474 7.85342C151.474 14.2679 129.02 14.2688 129.02 4.64548C111.057 2.07933 89.4587 3.86909 80.9049 5.08473C81.3577 5.90167 81.4129 6.83731 80.9049 7.85342C77.6972 14.2688 64.8665 14.269 64.8665 7.85342C46.9035 7.85342 25.3051 20.6839 16.7513 27.0992C22.3949 32.7422 10.3359 46.3452 3.92057 43.1376C1.35443 50.836 0.712891 59.1758 0.712891 62.3834ZM35.9974 27.098C34.7784 25.8791 42.4127 20.6827 42.4127 23.8903C42.4127 27.098 39.205 30.3057 35.9974 27.098ZM26.3743 36.721C29.4007 35.3902 35.5623 33.5269 35.9974 36.721C36.5413 40.7137 19.959 39.9287 26.3743 36.721ZM58.4511 27.098C53.3188 27.098 53.2361 31.506 55.2434 33.5134C56.3127 34.5826 59.7342 36.721 64.8665 36.721C71.2818 36.721 64.8665 27.098 58.4511 27.098ZM90.5279 27.098C90.5279 23.8903 93.0941 18.1165 103.359 20.6827C116.189 23.8903 90.5279 36.721 90.5279 27.098ZM129.02 30.3057C135.435 30.12 146.983 31.1432 141.851 36.721C135.435 43.6934 119.397 30.3057 129.02 30.3057ZM164.305 27.098C164.305 23.8903 166.229 18.1165 173.928 20.6827C183.551 23.8903 164.305 36.721 164.305 27.098Z" fill="#73628A"/>
<path d="M26.3743 36.721C29.4007 35.3902 35.5623 33.5269 35.9974 36.721C36.5413 40.7137 19.959 39.9287 26.3743 36.721Z" fill="#CBC5EA"/>
<path d="M64.8665 7.85342C64.8665 14.269 77.6972 14.2688 80.9049 7.85342C81.4129 6.83731 81.3577 5.90167 80.9049 5.08473C78.4987 0.743825 64.8665 -0.24546 64.8665 7.85342Z" fill="#CBC5EA"/>
<path d="M90.5279 27.098C90.5279 23.8903 93.0941 18.1165 103.359 20.6827C116.189 23.8903 90.5279 36.721 90.5279 27.098Z" fill="#CBC5EA"/>
<path d="M129.02 30.3057C135.435 30.12 146.983 31.1432 141.851 36.721C135.435 43.6934 119.397 30.3057 129.02 30.3057Z" fill="#CBC5EA"/>
<path d="M129.02 4.64548C132.228 -4.97878 151.474 3.31725 151.474 7.85342C151.474 14.2679 129.02 14.2688 129.02 4.64548Z" fill="#CBC5EA"/>
<path d="M164.305 27.098C164.305 23.8903 166.229 18.1165 173.928 20.6827C183.551 23.8903 164.305 36.721 164.305 27.098Z" fill="#CBC5EA"/>
<path d="M212.42 30.3057C206.004 33.5134 218.835 43.1364 222.043 39.9287C222.383 39.5888 222.651 39.1408 222.846 38.6191C224.499 34.2178 221.023 24.5702 212.42 30.3057Z" fill="#CBC5EA"/>
<path d="M233.904 60.5734C222.864 89.9189 161.983 96.8554 132.923 96.6555C133.419 97.9992 133.899 99.4073 134.356 100.876C144.809 101.781 164.651 103.057 174.219 102.277C175.763 102.008 177.307 101.726 178.849 101.43C211.024 95.2644 241.83 83.2541 234.874 62.3837C234.672 61.7798 234.344 61.1749 233.904 60.5734Z" fill="#698F40"/>
<path d="M134.356 100.876C134.921 102.689 135.451 104.595 135.936 106.586C146.732 106.034 160.442 104.676 174.219 102.277C164.651 103.057 144.809 101.781 134.356 100.876Z" fill="#EAEAEA"/>
<path d="M216.821 50.4601C210.077 76.8473 156.336 88.1126 130.309 90.4468C131.208 92.3223 132.089 94.3981 132.923 96.6555C161.983 96.8554 222.864 89.9189 233.904 60.5734C231.248 56.941 224.506 53.3952 216.821 50.4601Z" fill="#EAEAEA"/>
<path d="M186.758 43.1376C186.188 43.1376 185.617 43.1488 185.043 43.1701C181.105 66.2914 144.462 80.0205 126.633 83.9949C127.847 85.7503 129.095 87.9162 130.309 90.4468C156.336 88.1126 210.077 76.8473 216.821 50.4601C205.499 46.1364 192.13 43.1376 186.758 43.1376Z" fill="#698F40"/>
<path d="M146.347 46.3113C144.811 59.1148 131.086 74.9037 124.416 81.1977C125.13 81.9626 125.875 82.8987 126.633 83.9949C144.462 80.0205 181.105 66.2914 185.043 43.1701C176.525 43.485 167.27 45.9896 146.347 46.3113Z" fill="#EAEAEA"/>
<path d="M117.317 78.0136C118.86 78.2162 120.244 78.5398 121.303 78.8926C122.219 79.1982 123.279 79.9815 124.416 81.1977C131.086 74.9037 144.811 59.1148 146.347 46.3113C144.905 46.3334 143.407 46.3452 141.851 46.3452C134.13 46.3452 127.281 46.0549 121.303 45.6489C122.827 60.4887 119.281 73.4086 117.317 78.0136Z" fill="#698F40"/>
<path d="M107.62 131.667C100.854 140.649 91.8106 157.973 109.774 155.406C112.982 136.16 119.397 158.614 125.813 155.406C129.439 153.593 133.993 138.79 138.894 148.991C145.059 161.822 151.474 152.199 151.474 148.991C151.474 145.783 151.976 143.212 138.894 131.667H107.62Z" fill="#73628A"/>
<path d="M100.15 222.768C99.308 223.051 98.5399 223.212 97.839 223.262C84.4307 226.353 87.319 230.33 87.319 251.637C87.319 274.09 106.565 270.883 132.226 270.883C157.888 270.883 154.68 254.844 157.888 242.014C160.454 231.749 152.543 227.045 148.266 225.975C132.226 221.965 109.773 220.629 100.15 222.768Z" fill="#CBC5EA"/>
<path d="M141.851 197.106C136.709 197.106 106.567 193.899 103.359 193.899C98.0128 193.899 90.5284 195.407 90.5282 203.522C90.5279 212.303 90.5281 223.785 97.839 223.262C98.561 223.095 99.3302 222.932 100.15 222.768C109.773 220.629 132.226 221.965 148.266 225.975C151.474 222.768 167.514 199.243 141.851 197.106Z" fill="#CBC5EA"/>
<path d="M138.643 177.86C133.297 176.791 117.259 174.652 109.774 174.652C104.428 174.652 96.9435 174.652 96.9435 181.068C96.9435 186.414 96.9435 193.899 103.359 193.899C106.567 193.899 136.709 197.106 141.851 197.106C145.059 197.106 148.266 193.899 151.474 187.483C154.04 182.351 143.989 178.929 138.643 177.86Z" fill="#CBC5EA"/>
<path d="M125.813 155.406C119.397 158.614 112.982 136.16 109.774 155.406L109.774 174.652C117.259 174.652 133.297 176.791 138.643 177.86L138.894 148.991C133.993 138.79 129.439 153.593 125.813 155.406Z" fill="#CBC5EA"/>
</svg>
