<svg width="177" height="204" viewBox="0 0 177 204" fill="none" xmlns="http://www.w3.org/2000/svg">
<path d="M2.56201 32.5338C-2.24951 27.7223 9.77929 18.0995 12.185 20.505C16.4178 24.7373 7.37353 34.9396 2.56201 32.5338Z" fill="#CBC5EA"/>
<path d="M26.6196 20.5042C25.7054 19.59 31.4311 15.6926 31.4311 18.0984C31.4311 20.5042 29.0254 22.9099 26.6196 20.5042Z" fill="#CBC5EA"/>
<path d="M16.9966 37.3454C12.185 38.9491 0.15625 42.1569 0.15625 46.9682C42.4976 68.1387 68.4864 71.3207 76.1882 70.2654C76.0854 69.2385 76.001 68.2808 75.9389 67.4128C75.8668 66.4023 75.9099 65.499 76.0505 64.6929C65.4589 64.3982 40.8261 58.0349 27.0275 34.9396C22.9838 35.5649 19.4782 36.3527 16.9966 37.3454Z" fill="#698F40"/>
<path d="M0.15625 46.9682C0.15625 54.4363 10.8731 72.3423 43.4599 78.3867C51.1583 78.5014 68.778 75.6316 76.6256 74.1823C76.4583 72.8016 76.3102 71.4847 76.1882 70.2654C68.4864 71.3207 42.4976 68.1387 0.15625 46.9682Z" fill="#EAEAEA"/>
<path d="M77.4034 80.1201C77.1194 78.0794 76.8544 76.0712 76.6256 74.1823C68.778 75.6316 51.1583 78.5014 43.4599 78.3867C52.8638 80.1309 64.0889 80.8874 77.4034 80.1201Z" fill="#698F40"/>
<path d="M80.3368 98.9307H103.792C103.792 91.9825 102.914 85.6198 101.574 80.1201C101.21 78.6271 100.812 77.1977 100.389 75.8375C100.046 74.7361 99.6858 73.6801 99.3136 72.6723C98.6882 70.9792 98.0277 69.4224 97.353 68.0158C96.4426 66.1178 95.5065 64.4934 94.5961 63.1768C94.0276 62.3547 93.4691 61.6526 92.9332 61.079C92.0811 60.1668 91.286 59.5793 90.5984 59.3501C89.8048 59.0855 88.7669 58.8428 87.6094 58.6909C85.351 58.3944 82.6369 58.4436 80.391 59.3501C79.2262 59.8202 78.1874 60.521 77.4034 61.5238C76.7515 62.3577 76.2758 63.4004 76.0505 64.6929C75.9099 65.499 75.8668 66.4023 75.9389 67.4128C76.001 68.2808 76.0854 69.2385 76.1882 70.2654C76.3102 71.4847 76.4583 72.8016 76.6256 74.1823C76.8544 76.0712 77.1194 78.0794 77.4034 80.1201C78.3906 87.2141 79.6075 94.7008 80.3368 98.9307Z" fill="#CBC5EA"/>
<path d="M75.2651 32.9507C73.7648 44.8319 78.0572 55.5008 80.391 59.3501C82.6369 58.4436 85.351 58.3944 87.6094 58.6909C89.0821 55.2371 91.7417 45.5472 90.5984 34.4173C84.1261 33.9778 79.015 33.3576 75.2651 32.9507Z" fill="#EAEAEA"/>
<path d="M69.9233 32.5338C68.0297 32.5338 61.2919 32.5339 53.083 32.8272C62.706 50.3833 73.3062 59.2733 77.4034 61.5238C78.1874 60.521 79.2262 59.8202 80.391 59.3501C78.0572 55.5008 73.7648 44.8319 75.2651 32.9507C72.9782 32.7026 72.329 32.5338 69.9233 32.5338Z" fill="#698F40"/>
<path d="M27.0275 34.9396C40.8261 58.0349 65.4589 64.3982 76.0505 64.6929C76.2758 63.4004 76.7515 62.3577 77.4034 61.5238C73.3062 59.2733 62.706 50.3833 53.083 32.8272C44.7369 33.1254 34.8702 33.7268 27.0275 34.9396Z" fill="#EAEAEA"/>
<path d="M41.0542 25.3157C39.5487 23.8102 39.6107 20.5042 43.4599 20.5042C48.2714 20.5042 53.083 27.7214 48.2714 27.7214C44.4222 27.7214 41.8561 26.1176 41.0542 25.3157Z" fill="#CBC5EA"/>
<path fill-rule="evenodd" clip-rule="evenodd" d="M0.15625 46.9682C0.15625 42.1569 12.185 38.9491 16.9966 37.3454C19.4782 36.3527 22.9838 35.5649 27.0275 34.9396C34.8702 33.7268 44.7369 33.1254 53.083 32.8272C61.2919 32.5339 68.0297 32.5338 69.9233 32.5338C72.329 32.5338 72.9782 32.7026 75.2651 32.9507C79.015 33.3576 84.1261 33.9778 90.5984 34.4173C95.0822 34.7218 100.219 34.9396 106.01 34.9396C107.177 34.9396 108.3 34.9307 109.382 34.9141C125.074 34.6729 132.015 32.7944 138.404 32.5582C138.834 32.5423 139.262 32.5338 139.69 32.5338C143.719 32.5338 153.746 34.783 162.237 38.0257C168.001 40.2271 173.058 42.8864 175.05 45.6107C175.38 46.0618 175.626 46.5155 175.777 46.9684C175.573 40.7927 169.678 32.5126 166.756 29.145C166.609 29.5363 166.409 29.8723 166.154 30.1272C163.748 32.533 154.125 25.3157 158.936 22.9099C143.54 11.3623 122.048 6.87227 113.227 6.07072C113.227 10.8816 96.3866 10.8823 96.3866 3.66477C82.9144 1.74017 66.7156 3.08248 60.3002 3.99421C60.6399 4.60691 60.6813 5.30864 60.3002 6.07072C57.8945 10.8822 48.2714 10.8824 48.2714 6.07072C34.7992 6.07072 18.6004 15.6936 12.185 20.505C16.4178 24.7373 7.37353 34.9396 2.56201 32.5338C0.637402 38.3077 0.15625 44.5625 0.15625 46.9682ZM26.6196 20.5042C25.7054 19.59 31.4311 15.6926 31.4311 18.0984C31.4311 20.5042 29.0254 22.9099 26.6196 20.5042ZM19.4023 27.7214C21.6721 26.7233 26.2933 25.3259 26.6196 27.7214C27.0275 30.7159 14.5908 30.1272 19.4023 27.7214ZM43.4599 20.5042C39.6107 20.5042 39.5487 23.8102 41.0542 25.3157C41.8561 26.1176 44.4222 27.7214 48.2714 27.7214C53.083 27.7214 48.2714 20.5042 43.4599 20.5042ZM67.5175 20.5042C67.5175 18.0984 69.4421 13.768 77.1405 15.6926C86.7636 18.0984 67.5175 27.7214 67.5175 20.5042ZM96.3866 22.9099C101.198 22.7707 109.859 23.538 106.01 27.7214C101.198 32.9507 89.1693 22.9099 96.3866 22.9099ZM122.85 20.5042C122.85 18.0984 124.293 13.768 130.067 15.6926C137.285 18.0984 122.85 27.7214 122.85 20.5042Z" fill="#73628A"/>
<path d="M19.4023 27.7214C21.6721 26.7233 26.2933 25.3259 26.6196 27.7214C27.0275 30.7159 14.5908 30.1272 19.4023 27.7214Z" fill="#CBC5EA"/>
<path d="M48.2714 6.07072C48.2714 10.8824 57.8945 10.8822 60.3002 6.07072C60.6813 5.30864 60.6399 4.60691 60.3002 3.99421C58.4956 0.738533 48.2714 -0.00343118 48.2714 6.07072Z" fill="#CBC5EA"/>
<path d="M67.5175 20.5042C67.5175 18.0984 69.4421 13.768 77.1405 15.6926C86.7636 18.0984 67.5175 27.7214 67.5175 20.5042Z" fill="#CBC5EA"/>
<path d="M96.3866 22.9099C101.198 22.7707 109.859 23.538 106.01 27.7214C101.198 32.9507 89.1693 22.9099 96.3866 22.9099Z" fill="#CBC5EA"/>
<path d="M96.3866 3.66477C98.7924 -3.55342 113.227 2.6686 113.227 6.07072C113.227 10.8816 96.3866 10.8823 96.3866 3.66477Z" fill="#CBC5EA"/>
<path d="M122.85 20.5042C122.85 18.0984 124.293 13.768 130.067 15.6926C137.285 18.0984 122.85 27.7214 122.85 20.5042Z" fill="#CBC5EA"/>
<path d="M158.936 22.9099C154.125 25.3157 163.748 32.533 166.154 30.1272C166.409 29.8723 166.609 29.5363 166.756 29.145C167.995 25.844 165.389 18.6083 158.936 22.9099Z" fill="#CBC5EA"/>
<path d="M175.05 45.6107C166.77 67.6199 121.109 72.8222 99.3136 72.6723C99.6858 73.6801 100.046 74.7361 100.389 75.8375C108.228 76.5163 123.11 77.4731 130.286 76.8881C131.444 76.6864 132.602 76.475 133.758 76.2534C157.89 71.629 180.994 62.6212 175.777 46.9684C175.626 46.5155 175.38 46.0618 175.05 45.6107Z" fill="#698F40"/>
<path d="M100.389 75.8375C100.812 77.1977 101.21 78.6271 101.574 80.1201C109.671 79.7064 119.953 78.688 130.286 76.8881C123.11 77.4731 108.228 76.5163 100.389 75.8375Z" fill="#EAEAEA"/>
<path d="M162.237 38.0257C157.179 57.8161 116.874 66.2651 97.353 68.0158C98.0277 69.4224 98.6882 70.9792 99.3136 72.6723C121.109 72.8222 166.77 67.6199 175.05 45.6107C173.058 42.8864 168.001 40.2271 162.237 38.0257Z" fill="#EAEAEA"/>
<path d="M139.69 32.5338C139.262 32.5338 138.834 32.5423 138.404 32.5582C135.45 49.8992 107.968 60.196 94.5961 63.1768C95.5065 64.4934 96.4426 66.1178 97.353 68.0158C116.874 66.2651 157.179 57.8161 162.237 38.0257C153.746 34.783 143.719 32.5338 139.69 32.5338Z" fill="#698F40"/>
<path d="M109.382 34.9141C108.23 44.5168 97.9362 56.3584 92.9332 61.079C93.4691 61.6526 94.0276 62.3547 94.5961 63.1768C107.968 60.196 135.45 49.8992 138.404 32.5582C132.015 32.7944 125.074 34.6729 109.382 34.9141Z" fill="#EAEAEA"/>
<path d="M87.6094 58.6909C88.7669 58.8428 89.8048 59.0855 90.5984 59.3501C91.286 59.5793 92.0811 60.1668 92.9332 61.079C97.9362 56.3584 108.23 44.5168 109.382 34.9141C108.3 34.9307 107.177 34.9396 106.01 34.9396C100.219 34.9396 95.0822 34.7218 90.5984 34.4173C91.7417 45.5472 89.0821 55.2371 87.6094 58.6909Z" fill="#698F40"/>
<path d="M80.3368 98.9307C75.2617 105.668 68.4795 118.66 81.9518 116.735C84.358 102.301 89.1695 119.141 93.9811 116.735C96.7007 115.376 100.116 104.273 103.792 111.924C108.416 121.547 113.227 114.33 113.227 111.924C113.227 109.518 113.603 107.589 103.792 98.9307H80.3368Z" fill="#73628A"/>
<path d="M74.7338 167.256C74.1026 167.469 73.5265 167.589 73.0008 167.627C62.9446 169.946 65.1108 172.928 65.1108 188.908C65.1108 205.748 79.5454 203.343 98.7914 203.343C118.038 203.343 115.632 191.314 118.038 181.691C119.962 173.993 114.029 170.464 110.821 169.662C98.7914 166.655 81.9511 165.653 74.7338 167.256Z" fill="#CBC5EA"/>
<path d="M106.01 148.01C102.154 148.01 79.5465 145.605 77.1407 145.605C73.1311 145.605 67.5179 146.736 67.5177 152.822C67.5175 159.408 67.5177 168.019 73.0008 167.627C73.5423 167.502 74.1192 167.379 74.7338 167.256C81.9511 165.653 98.7914 166.655 110.821 169.662C113.227 167.256 125.257 149.613 106.01 148.01Z" fill="#CBC5EA"/>
<path d="M103.604 133.576C99.5945 132.774 87.5657 131.17 81.9523 131.17C77.9427 131.17 72.3292 131.17 72.3292 135.982C72.3292 139.991 72.3292 145.605 77.1407 145.605C79.5465 145.605 102.154 148.01 106.01 148.01C108.416 148.01 110.821 145.605 113.227 140.793C115.152 136.944 107.614 134.378 103.604 133.576Z" fill="#CBC5EA"/>
<path d="M93.9811 116.735C89.1695 119.141 84.358 102.301 81.9518 116.735L81.9523 131.17C87.5657 131.17 99.5945 132.774 103.604 133.576L103.792 111.924C100.116 104.273 96.7007 115.376 93.9811 116.735Z" fill="#CBC5EA"/>
</svg>
