<svg width="471" height="271" viewBox="0 0 471 271" fill="none" xmlns="http://www.w3.org/2000/svg">
<path d="M3.91849 42.97C-2.49271 36.5511 13.5353 23.7135 16.7409 26.9227C22.3809 32.5689 10.3297 46.1794 3.91849 42.97Z" fill="#CBC5EA"/>
<path d="M35.9745 26.9215C34.7564 25.7019 42.3857 20.5026 42.3857 23.7121C42.3857 26.9215 39.1801 30.131 35.9745 26.9215Z" fill="#CBC5EA"/>
<path d="M23.1521 49.3889C16.7409 51.5284 0.712891 55.8078 0.712891 62.2265C57.1315 90.4695 91.7608 94.7145 102.023 93.3067C101.886 91.9366 101.774 90.6591 101.691 89.5011C101.595 88.153 101.652 86.948 101.84 85.8725C87.7267 85.4793 54.9042 76.9902 36.518 46.1794C31.1299 47.0136 26.4588 48.0647 23.1521 49.3889Z" fill="#698F40"/>
<path d="M0.712891 62.2265C0.712891 72.1895 14.9927 96.0774 58.4137 104.141C68.6716 104.294 92.1493 100.466 102.606 98.5321C102.383 96.6901 102.186 94.9332 102.023 93.3067C91.7608 94.7145 57.1315 90.4695 0.712891 62.2265Z" fill="#EAEAEA"/>
<path d="M103.642 106.454C103.264 103.731 102.911 101.052 102.606 98.5321C92.1493 100.466 68.6716 104.294 58.4137 104.141C70.9441 106.468 85.9012 107.477 103.642 106.454Z" fill="#698F40"/>
<path d="M107.551 131.548H138.805C138.805 122.279 137.634 113.791 135.849 106.454C135.364 104.462 134.834 102.555 134.269 100.74C133.812 99.2709 133.333 97.862 132.837 96.5176C132.004 94.2589 131.124 92.182 130.225 90.3055C129.012 87.7734 127.764 85.6063 126.551 83.8499C125.794 82.7532 125.049 81.8165 124.335 81.0512C123.2 79.8343 122.141 79.0506 121.224 78.7448C120.167 78.3918 118.784 78.068 117.242 77.8654C114.232 77.4699 110.616 77.5355 107.623 78.7448C106.071 79.372 104.687 80.3069 103.642 81.6447C102.774 82.7571 102.14 84.1482 101.84 85.8725C101.652 86.948 101.595 88.153 101.691 89.5011C101.774 90.6591 101.886 91.9366 102.023 93.3067C102.186 94.9332 102.383 96.6901 102.606 98.5321C102.911 101.052 103.264 103.731 103.642 106.454C104.958 115.917 106.579 125.905 107.551 131.548Z" fill="#CBC5EA"/>
<path d="M100.793 43.5261C98.794 59.3764 104.514 73.6095 107.623 78.7448C110.616 77.5355 114.232 77.4699 117.242 77.8654C119.204 73.2578 122.748 60.3307 121.224 45.4827C112.6 44.8963 105.79 44.0689 100.793 43.5261Z" fill="#EAEAEA"/>
<path d="M93.6753 42.97C91.1521 42.97 82.1743 42.97 71.2361 43.3613C84.0585 66.7825 98.1829 78.6424 103.642 81.6447C104.687 80.3069 106.071 79.372 107.623 78.7448C104.514 73.6095 98.794 59.3764 100.793 43.5261C97.746 43.1951 96.8809 42.97 93.6753 42.97Z" fill="#698F40"/>
<path d="M36.518 46.1794C54.9042 76.9902 87.7267 85.4793 101.84 85.8725C102.14 84.1482 102.774 82.7571 103.642 81.6447C98.1829 78.6424 84.0585 66.7825 71.2361 43.3613C60.1153 43.7592 46.9682 44.5615 36.518 46.1794Z" fill="#EAEAEA"/>
<path d="M55.2081 33.3404C53.2021 31.332 53.2848 26.9215 58.4137 26.9215C64.8249 26.9215 71.2361 36.5499 64.8249 36.5499C59.696 36.5499 56.2766 34.4103 55.2081 33.3404Z" fill="#CBC5EA"/>
<path fill-rule="evenodd" clip-rule="evenodd" d="M0.712891 62.2265C0.712891 55.8078 16.7409 51.5284 23.1521 49.3889C26.4588 48.0647 31.1299 47.0136 36.518 46.1794C46.9682 44.5615 60.1153 43.7592 71.2361 43.3613C82.1743 42.97 91.1521 42.97 93.6753 42.97C96.8809 42.97 97.746 43.1951 100.793 43.5261C105.79 44.0689 112.6 44.8963 121.224 45.4827C127.199 45.8889 134.044 46.1794 141.759 46.1794C143.315 46.1794 144.811 46.1676 146.252 46.1454C167.162 45.8236 176.411 43.3176 184.924 43.0025C185.497 42.9813 186.067 42.97 186.638 42.97C192.006 42.97 205.367 45.9705 216.681 50.2966C224.361 53.2333 231.099 56.781 233.753 60.4155C234.193 61.0173 234.52 61.6225 234.722 62.2267C234.451 53.988 226.596 42.9417 222.703 38.449C222.507 38.971 222.239 39.4192 221.899 39.7594C218.694 42.9688 205.871 33.3404 212.283 30.131C191.767 14.7256 163.13 8.73558 151.376 7.66626C151.376 14.0843 128.937 14.0852 128.937 4.45654C110.986 1.88898 89.4012 3.67972 80.8529 4.89604C81.3055 5.71343 81.3607 6.64959 80.8529 7.66626C77.6473 14.0852 64.8249 14.0854 64.8249 7.66626C46.8736 7.66626 25.2892 20.5039 16.7409 26.9227C22.3809 32.5689 10.3297 46.1794 3.91849 42.97C1.35401 50.6727 0.712891 59.0171 0.712891 62.2265ZM35.9745 26.9215C34.7564 25.7019 42.3857 20.5026 42.3857 23.7121C42.3857 26.9215 39.1801 30.131 35.9745 26.9215ZM26.3577 36.5499C29.3821 35.2183 35.5397 33.354 35.9745 36.5499C36.518 40.5447 19.9465 39.7594 26.3577 36.5499ZM58.4137 26.9215C53.2848 26.9215 53.2021 31.332 55.2081 33.3404C56.2766 34.4103 59.696 36.5499 64.8249 36.5499C71.2361 36.5499 64.8249 26.9215 58.4137 26.9215ZM90.4697 26.9215C90.4697 23.7121 93.0342 17.935 103.292 20.5026C116.115 23.7121 90.4697 36.5499 90.4697 26.9215ZM128.937 30.131C135.348 29.9452 146.888 30.9689 141.759 36.5499C135.348 43.5261 119.32 30.131 128.937 30.131ZM164.199 26.9215C164.199 23.7121 166.122 17.935 173.815 20.5026C183.432 23.7121 164.199 36.5499 164.199 26.9215Z" fill="#73628A"/>
<path d="M26.3577 36.5499C29.3821 35.2183 35.5397 33.354 35.9745 36.5499C36.518 40.5447 19.9465 39.7594 26.3577 36.5499Z" fill="#CBC5EA"/>
<path d="M64.8249 7.66626C64.8249 14.0854 77.6473 14.0852 80.8529 7.66626C81.3607 6.64959 81.3055 5.71343 80.8529 4.89604C78.4483 0.552725 64.8249 -0.437109 64.8249 7.66626Z" fill="#CBC5EA"/>
<path d="M90.4697 26.9215C90.4697 23.7121 93.0342 17.935 103.292 20.5026C116.115 23.7121 90.4697 36.5499 90.4697 26.9215Z" fill="#CBC5EA"/>
<path d="M128.937 30.131C135.348 29.9452 146.888 30.9689 141.759 36.5499C135.348 43.5261 119.32 30.131 128.937 30.131Z" fill="#CBC5EA"/>
<path d="M128.937 4.45654C132.143 -5.17306 151.376 3.12758 151.376 7.66626C151.376 14.0843 128.937 14.0852 128.937 4.45654Z" fill="#CBC5EA"/>
<path d="M164.199 26.9215C164.199 23.7121 166.122 17.935 173.815 20.5026C183.432 23.7121 164.199 36.5499 164.199 26.9215Z" fill="#CBC5EA"/>
<path d="M212.283 30.131C205.871 33.3404 218.694 42.9688 221.899 39.7594C222.239 39.4192 222.507 38.971 222.703 38.449C224.354 34.0453 220.88 24.3923 212.283 30.131Z" fill="#CBC5EA"/>
<path d="M233.753 60.4155C222.72 89.7773 161.879 96.7176 132.837 96.5176C133.333 97.862 133.812 99.2709 134.269 100.74C144.716 101.646 164.545 102.922 174.107 102.142C175.649 101.873 177.193 101.591 178.733 101.295C210.888 95.1257 241.674 83.1088 234.722 62.2267C234.52 61.6225 234.193 61.0173 233.753 60.4155Z" fill="#698F40"/>
<path d="M134.269 100.74C134.834 102.555 135.364 104.462 135.849 106.454C146.638 105.902 160.338 104.543 174.107 102.142C164.545 102.922 144.716 101.646 134.269 100.74Z" fill="#EAEAEA"/>
<path d="M216.681 50.2966C209.941 76.6984 156.235 87.9699 130.225 90.3055C131.124 92.182 132.004 94.2589 132.837 96.5176C161.879 96.7176 222.72 89.7773 233.753 60.4155C231.099 56.781 224.361 53.2333 216.681 50.2966Z" fill="#EAEAEA"/>
<path d="M186.638 42.97C186.067 42.97 185.497 42.9813 184.924 43.0025C180.988 66.1366 144.369 79.8733 126.551 83.8499C127.764 85.6063 129.012 87.7734 130.225 90.3055C156.235 87.9699 209.941 76.6984 216.681 50.2966C205.367 45.9705 192.006 42.97 186.638 42.97Z" fill="#698F40"/>
<path d="M146.252 46.1454C144.718 58.9561 131.002 74.7537 124.335 81.0512C125.049 81.8165 125.794 82.7532 126.551 83.8499C144.369 79.8733 180.988 66.1366 184.924 43.0025C176.411 43.3176 167.162 45.8236 146.252 46.1454Z" fill="#EAEAEA"/>
<path d="M117.242 77.8654C118.784 78.068 120.167 78.3918 121.224 78.7448C122.141 79.0506 123.2 79.8343 124.335 81.0512C131.002 74.7537 144.718 58.9561 146.252 46.1454C144.811 46.1676 143.315 46.1794 141.759 46.1794C134.044 46.1794 127.199 45.8889 121.224 45.4827C122.748 60.3307 119.204 73.2578 117.242 77.8654Z" fill="#698F40"/>
<path d="M107.551 131.548C100.789 140.536 91.7516 157.869 109.703 155.301C112.909 136.044 119.32 158.51 125.732 155.301C129.355 153.487 133.907 138.675 138.805 148.882C144.965 161.72 151.376 152.092 151.376 148.882C151.376 145.673 151.878 143.1 138.805 131.548H107.551Z" fill="#73628A"/>
<path d="M100.085 222.7C99.2441 222.984 98.4765 223.144 97.7761 223.194C84.3764 226.287 87.2629 230.266 87.2629 251.585C87.2629 274.051 106.496 270.841 132.141 270.841C157.786 270.841 154.58 254.794 157.786 241.956C160.351 231.686 152.445 226.979 148.171 225.909C132.141 221.897 109.702 220.56 100.085 222.7Z" fill="#CBC5EA"/>
<path d="M141.76 197.024C136.621 197.024 106.498 193.815 103.292 193.815C97.9497 193.815 90.4702 195.324 90.47 203.443C90.4698 212.229 90.4699 223.717 97.7761 223.194C98.4976 223.028 99.2663 222.864 100.085 222.7C109.702 220.56 132.141 221.897 148.171 225.909C151.376 222.7 167.406 199.162 141.76 197.024Z" fill="#CBC5EA"/>
<path d="M138.554 177.767C133.211 176.697 117.183 174.558 109.704 174.558C104.361 174.558 96.8812 174.558 96.8812 180.977C96.8812 186.326 96.8812 193.815 103.292 193.815C106.498 193.815 136.621 197.024 141.76 197.024C144.965 197.024 148.171 193.815 151.376 187.396C153.941 182.26 143.897 178.837 138.554 177.767Z" fill="#CBC5EA"/>
<path d="M125.732 155.301C119.32 158.51 112.909 136.044 109.703 155.301L109.704 174.558C117.183 174.558 133.211 176.697 138.554 177.767L138.805 148.882C133.907 138.675 129.355 153.487 125.732 155.301Z" fill="#CBC5EA"/>
<path d="M239.206 42.97C232.794 36.5511 248.822 23.7135 252.028 26.9227C257.668 32.5689 245.617 46.1794 239.206 42.97Z" fill="#CBC5EA"/>
<path d="M271.262 26.9215C270.043 25.7019 277.673 20.5026 277.673 23.7121C277.673 26.9215 274.467 30.131 271.262 26.9215Z" fill="#CBC5EA"/>
<path d="M258.439 49.3889C252.028 51.5284 236 55.8078 236 62.2265C292.419 90.4695 327.048 94.7145 337.31 93.3067C337.173 91.9366 337.061 90.6591 336.978 89.5011C336.882 88.153 336.94 86.948 337.127 85.8725C323.014 85.4793 290.191 76.9902 271.805 46.1794C266.417 47.0136 261.746 48.0647 258.439 49.3889Z" fill="#EAEAEA"/>
<path d="M236 62.2265C236 72.1895 250.28 96.0774 293.701 104.141C303.959 104.294 327.436 100.466 337.893 98.5321C337.67 96.6901 337.473 94.9332 337.31 93.3067C327.048 94.7145 292.419 90.4695 236 62.2265Z" fill="#698F40"/>
<path d="M338.929 106.454C338.551 103.731 338.198 101.052 337.893 98.5321C327.436 100.466 303.959 104.294 293.701 104.141C306.231 106.468 321.188 107.477 338.929 106.454Z" fill="#EAEAEA"/>
<path d="M342.838 131.548H374.092C374.092 122.279 372.922 113.791 371.136 106.454C370.651 104.462 370.121 102.555 369.557 100.74C369.1 99.2709 368.62 97.862 368.124 96.5176C367.291 94.2589 366.411 92.182 365.512 90.3055C364.299 87.7734 363.051 85.6063 361.838 83.8499C361.081 82.7532 360.337 81.8165 359.623 81.0512C358.487 79.8343 357.428 79.0506 356.511 78.7448C355.454 78.3918 354.071 78.068 352.529 77.8654C349.519 77.4699 345.903 77.5355 342.91 78.7448C341.358 79.372 339.974 80.3069 338.929 81.6447C338.061 82.7571 337.427 84.1482 337.127 85.8725C336.94 86.948 336.882 88.153 336.978 89.5011C337.061 90.6591 337.173 91.9366 337.31 93.3067C337.473 94.9332 337.67 96.6901 337.893 98.5321C338.198 101.052 338.551 103.731 338.929 106.454C340.245 115.917 341.866 125.905 342.838 131.548Z" fill="#CBC5EA"/>
<path d="M336.08 43.5261C334.081 59.3764 339.801 73.6095 342.91 78.7448C345.903 77.5355 349.519 77.4699 352.529 77.8654C354.491 73.2578 358.035 60.3307 356.511 45.4827C347.887 44.8963 341.077 44.0689 336.08 43.5261Z" fill="#698F40"/>
<path d="M328.962 42.97C326.439 42.97 317.461 42.97 306.523 43.3613C319.346 66.7825 333.47 78.6424 338.929 81.6447C339.974 80.3069 341.358 79.372 342.91 78.7448C339.801 73.6095 334.081 59.3764 336.08 43.5261C333.033 43.1951 332.168 42.97 328.962 42.97Z" fill="#EAEAEA"/>
<path d="M271.805 46.1794C290.191 76.9902 323.014 85.4793 337.127 85.8725C337.427 84.1482 338.061 82.7571 338.929 81.6447C333.47 78.6424 319.346 66.7825 306.523 43.3613C295.402 43.7592 282.255 44.5615 271.805 46.1794Z" fill="#698F40"/>
<path d="M290.495 33.3404C288.489 31.332 288.572 26.9215 293.701 26.9215C300.112 26.9215 306.523 36.5499 300.112 36.5499C294.983 36.5499 291.564 34.4103 290.495 33.3404Z" fill="#CBC5EA"/>
<path fill-rule="evenodd" clip-rule="evenodd" d="M236 62.2265C236 55.8078 252.028 51.5284 258.439 49.3889C261.746 48.0647 266.417 47.0136 271.805 46.1794C282.255 44.5615 295.402 43.7592 306.523 43.3613C317.461 42.97 326.439 42.97 328.962 42.97C332.168 42.97 333.033 43.1951 336.08 43.5261C341.077 44.0689 347.887 44.8963 356.511 45.4827C362.486 45.8889 369.331 46.1794 377.046 46.1794C378.602 46.1794 380.098 46.1676 381.539 46.1454C402.449 45.8236 411.698 43.3176 420.211 43.0025C420.784 42.9813 421.355 42.97 421.925 42.97C427.293 42.97 440.654 45.9705 451.968 50.2966C459.648 53.2333 466.386 56.781 469.04 60.4155C469.48 61.0173 469.808 61.6225 470.009 62.2267C469.738 53.988 461.883 42.9417 457.99 38.449C457.794 38.971 457.526 39.4192 457.187 39.7594C453.981 42.9688 441.158 33.3404 447.57 30.131C427.054 14.7256 398.417 8.73558 386.663 7.66626C386.663 14.0843 364.224 14.0852 364.224 4.45654C346.273 1.88898 324.688 3.67972 316.14 4.89604C316.593 5.71343 316.648 6.64959 316.14 7.66626C312.934 14.0852 300.112 14.0854 300.112 7.66626C282.161 7.66626 260.576 20.5039 252.028 26.9227C257.668 32.5689 245.617 46.1794 239.206 42.97C236.641 50.6727 236 59.0171 236 62.2265ZM271.262 26.9215C270.043 25.7019 277.673 20.5026 277.673 23.7121C277.673 26.9215 274.467 30.131 271.262 26.9215ZM261.645 36.5499C264.669 35.2183 270.827 33.354 271.262 36.5499C271.805 40.5447 255.234 39.7594 261.645 36.5499ZM293.701 26.9215C288.572 26.9215 288.489 31.332 290.495 33.3404C291.564 34.4103 294.983 36.5499 300.112 36.5499C306.523 36.5499 300.112 26.9215 293.701 26.9215ZM325.757 26.9215C325.757 23.7121 328.321 17.935 338.579 20.5026C351.402 23.7121 325.757 36.5499 325.757 26.9215ZM364.224 30.131C370.635 29.9452 382.175 30.9689 377.046 36.5499C370.635 43.5261 354.607 30.131 364.224 30.131ZM399.486 26.9215C399.486 23.7121 401.409 17.935 409.102 20.5026C418.719 23.7121 399.486 36.5499 399.486 26.9215Z" fill="#73628A"/>
<path d="M261.645 36.5499C264.669 35.2183 270.827 33.354 271.262 36.5499C271.805 40.5447 255.234 39.7594 261.645 36.5499Z" fill="#CBC5EA"/>
<path d="M300.112 7.66626C300.112 14.0854 312.934 14.0852 316.14 7.66626C316.648 6.64959 316.593 5.71343 316.14 4.89604C313.735 0.552725 300.112 -0.437109 300.112 7.66626Z" fill="#CBC5EA"/>
<path d="M325.757 26.9215C325.757 23.7121 328.321 17.935 338.579 20.5026C351.402 23.7121 325.757 36.5499 325.757 26.9215Z" fill="#CBC5EA"/>
<path d="M364.224 30.131C370.635 29.9452 382.175 30.9689 377.046 36.5499C370.635 43.5261 354.607 30.131 364.224 30.131Z" fill="#CBC5EA"/>
<path d="M364.224 4.45654C367.43 -5.17306 386.663 3.12758 386.663 7.66626C386.663 14.0843 364.224 14.0852 364.224 4.45654Z" fill="#CBC5EA"/>
<path d="M399.486 26.9215C399.486 23.7121 401.409 17.935 409.102 20.5026C418.719 23.7121 399.486 36.5499 399.486 26.9215Z" fill="#CBC5EA"/>
<path d="M447.57 30.131C441.158 33.3404 453.981 42.9688 457.187 39.7594C457.526 39.4192 457.794 38.971 457.99 38.449C459.641 34.0453 456.167 24.3923 447.57 30.131Z" fill="#CBC5EA"/>
<path d="M469.04 60.4155C458.007 89.7773 397.166 96.7176 368.124 96.5176C368.62 97.862 369.1 99.2709 369.557 100.74C380.003 101.646 399.832 102.922 409.394 102.142C410.936 101.873 412.48 101.591 414.02 101.295C446.175 95.1257 476.961 83.1088 470.009 62.2267C469.808 61.6225 469.48 61.0173 469.04 60.4155Z" fill="#EAEAEA"/>
<path d="M369.557 100.74C370.121 102.555 370.651 104.462 371.136 106.454C381.925 105.902 395.625 104.543 409.394 102.142C399.832 102.922 380.003 101.646 369.557 100.74Z" fill="#698F40"/>
<path d="M451.968 50.2966C445.228 76.6984 391.522 87.9699 365.512 90.3055C366.411 92.182 367.291 94.2589 368.124 96.5176C397.166 96.7176 458.007 89.7773 469.04 60.4155C466.386 56.781 459.648 53.2333 451.968 50.2966Z" fill="#698F40"/>
<path d="M421.925 42.97C421.355 42.97 420.784 42.9813 420.211 43.0025C416.275 66.1366 379.656 79.8733 361.838 83.8499C363.051 85.6063 364.299 87.7734 365.512 90.3055C391.522 87.9699 445.228 76.6984 451.968 50.2966C440.654 45.9705 427.293 42.97 421.925 42.97Z" fill="#EAEAEA"/>
<path d="M381.539 46.1454C380.005 58.9561 366.289 74.7537 359.623 81.0512C360.337 81.8165 361.081 82.7532 361.838 83.8499C379.656 79.8733 416.275 66.1366 420.211 43.0025C411.698 43.3176 402.449 45.8236 381.539 46.1454Z" fill="#698F40"/>
<path d="M352.529 77.8654C354.071 78.068 355.454 78.3918 356.511 78.7448C357.428 79.0506 358.487 79.8343 359.623 81.0512C366.289 74.7537 380.005 58.9561 381.539 46.1454C380.098 46.1676 378.602 46.1794 377.046 46.1794C369.331 46.1794 362.486 45.8889 356.511 45.4827C358.035 60.3307 354.491 73.2578 352.529 77.8654Z" fill="#EAEAEA"/>
<path d="M342.838 131.548C336.076 140.536 327.039 157.869 344.99 155.301C348.196 136.044 354.608 158.51 361.019 155.301C364.643 153.487 369.194 138.675 374.092 148.882C380.252 161.72 386.664 152.092 386.664 148.882C386.664 145.673 387.165 143.1 374.092 131.548H342.838Z" fill="#73628A"/>
<path d="M335.372 222.7C334.531 222.984 333.764 223.144 333.063 223.194C319.664 226.287 322.55 230.266 322.55 251.585C322.55 274.051 341.784 270.841 367.428 270.841C393.073 270.841 389.868 254.794 393.073 241.956C395.638 231.686 387.732 226.979 383.458 225.909C367.428 221.897 344.989 220.56 335.372 222.7Z" fill="#CBC5EA"/>
<path d="M377.047 197.024C371.908 197.024 341.785 193.815 338.58 193.815C333.237 193.815 325.757 195.324 325.757 203.443C325.757 212.229 325.757 223.717 333.063 223.194C333.785 223.028 334.553 222.864 335.372 222.7C344.989 220.56 367.428 221.897 383.458 225.909C386.663 222.7 402.693 199.162 377.047 197.024Z" fill="#CBC5EA"/>
<path d="M373.841 177.767C368.498 176.697 352.47 174.558 344.991 174.558C339.648 174.558 332.168 174.558 332.168 180.977C332.168 186.326 332.168 193.815 338.58 193.815C341.785 193.815 371.908 197.024 377.047 197.024C380.252 197.024 383.458 193.815 386.664 187.396C389.228 182.26 379.184 178.837 373.841 177.767Z" fill="#CBC5EA"/>
<path d="M361.019 155.301C354.608 158.51 348.196 136.044 344.99 155.301L344.991 174.558C352.47 174.558 368.498 176.697 373.841 177.767L374.092 148.882C369.194 138.675 364.643 153.487 361.019 155.301Z" fill="#CBC5EA"/>
</svg>
