<svg width="190" height="556" viewBox="0 0 190 556" fill="none" xmlns="http://www.w3.org/2000/svg">
<path d="M108.202 266.261C111.701 258.691 120.212 243.553 126.267 243.553C132.322 243.553 116.747 258.691 108.202 266.261C111.906 310.487 113.604 358.821 110.208 401.242C117.663 376.853 120.59 359.612 138.251 346.367C146.142 340.449 161.072 336.766 170.308 332.851C175.029 330.85 174.439 331.084 171.776 335.466C155.916 361.559 132.571 393.72 110.208 401.242C91.0351 399.717 53.2276 386.43 41.8429 346.322C40.3825 341.177 45.9918 337.582 50.3783 340.642C75.2272 357.974 110.208 386.058 110.208 401.242C113.604 358.821 111.906 310.487 108.202 266.261C99.7161 266.261 82.7448 263.99 82.7448 254.907C82.7448 245.824 99.7161 258.691 108.202 266.261Z" fill="#698F40"/>
<path d="M93.4677 152.094C98.2058 177.869 104.311 219.798 108.202 266.261M87.1601 555.147C87.1601 552.413 90.9446 524.618 106.083 435.303C107.903 424.561 109.256 413.134 110.208 401.242M108.202 266.261C111.701 258.691 120.212 243.553 126.267 243.553C132.322 243.553 116.747 258.691 108.202 266.261ZM108.202 266.261C99.7161 266.261 82.7448 263.99 82.7448 254.907C82.7448 245.824 99.7161 258.691 108.202 266.261ZM108.202 266.261C111.906 310.487 113.604 358.821 110.208 401.242M110.208 401.242C117.663 376.853 120.59 359.612 138.251 346.367C146.142 340.449 161.072 336.766 170.308 332.851C175.029 330.85 174.439 331.084 171.776 335.466C155.916 361.559 132.571 393.72 110.208 401.242ZM110.208 401.242C91.0351 399.717 53.2276 386.43 41.8429 346.322C40.3825 341.177 45.9918 337.582 50.3783 340.642C75.2272 357.974 110.208 386.058 110.208 401.242Z" stroke="#698F40" stroke-width="1.49785"/>
<path d="M107.381 12.4776C86.2043 -8.6766 64.1581 1.38257 52.4687 12.2105C49.9445 14.5486 47.3659 16.8687 44.5085 18.7853C18.2122 36.4234 6.44578 52.0614 2.39038 60.9268C0.957128 64.0599 0.963159 67.5665 1.39051 70.9854L3.78825 90.1673C4.13495 92.9408 4.14808 95.7709 3.85045 98.5501C0.914377 125.968 2.69259 121.579 6.09211 128.2C9.34771 134.541 73.9874 190.57 91.6283 190.57C114.794 190.57 126.674 173.344 137.96 170.968C163.621 163.84 179.541 141.862 184.293 131.764C188.486 122.854 189.639 81.868 189.639 78.304C189.639 74.74 187.857 15.9345 159.344 21.2805C145.597 23.8581 134.181 23.976 126.108 23.2727C118.65 22.6229 112.678 17.7684 107.381 12.4776Z" fill="#CBC5EA"/>
<circle cx="95.3606" cy="95.9582" r="40.3684" fill="#73628A"/>
<circle cx="95.36" cy="95.9576" r="20.1842" fill="#EAEAEA"/>
<circle cx="115.544" cy="60.6359" r="5.04605" fill="#EAEAEA"/>
<circle cx="95.3586" cy="55.5851" r="5.04605" fill="#EAEAEA"/>
<circle cx="75.175" cy="60.6359" r="5.04605" fill="#EAEAEA"/>
<circle cx="60.0382" cy="75.7726" r="5.04605" fill="#EAEAEA"/>
<circle cx="54.9914" cy="95.9562" r="5.04605" fill="#EAEAEA"/>
<circle cx="60.0382" cy="116.14" r="5.04605" fill="#EAEAEA"/>
<circle cx="75.175" cy="131.28" r="5.04605" fill="#EAEAEA"/>
<circle cx="95.3586" cy="136.323" r="5.04605" fill="#EAEAEA"/>
<circle cx="115.544" cy="131.28" r="5.04605" fill="#EAEAEA"/>
<circle cx="130.683" cy="116.14" r="5.04605" fill="#EAEAEA"/>
<circle cx="135.728" cy="95.9562" r="5.04605" fill="#EAEAEA"/>
<circle cx="130.683" cy="75.7726" r="5.04605" fill="#EAEAEA"/>
</svg>
