<svg width="254" height="742" viewBox="0 0 254 742" fill="none" xmlns="http://www.w3.org/2000/svg">
<path d="M144.298 355.414C148.969 345.307 160.334 325.094 168.419 325.094C176.504 325.094 155.707 345.307 144.298 355.414C149.243 414.467 151.51 479.006 146.976 535.648C156.931 503.082 160.839 480.062 184.421 462.375C194.957 454.474 214.893 449.556 227.225 444.329C233.529 441.657 232.741 441.97 229.185 447.82C208.009 482.66 176.836 525.604 146.976 535.648C121.376 533.611 70.8935 515.87 55.692 462.315C53.742 455.445 61.2318 450.646 67.0889 454.731C100.268 477.875 146.976 515.373 146.976 535.648C151.51 479.006 149.243 414.467 144.298 355.414C132.967 355.414 110.306 352.382 110.306 340.254C110.306 328.126 132.967 345.307 144.298 355.414Z" fill="#698F40"/>
<path d="M124.624 202.973C130.951 237.389 139.102 293.375 144.298 355.414M116.202 741.149C116.202 737.499 121.255 700.386 141.468 581.128C143.899 566.785 145.705 551.527 146.976 535.648M144.298 355.414C148.969 345.307 160.334 325.094 168.419 325.094C176.504 325.094 155.707 345.307 144.298 355.414ZM144.298 355.414C132.967 355.414 110.306 352.382 110.306 340.254C110.306 328.126 132.967 345.307 144.298 355.414ZM144.298 355.414C149.243 414.467 151.51 479.006 146.976 535.648M146.976 535.648C156.931 503.082 160.839 480.062 184.421 462.375C194.957 454.474 214.893 449.556 227.225 444.329C233.529 441.657 232.741 441.97 229.185 447.82C208.009 482.66 176.836 525.604 146.976 535.648ZM146.976 535.648C121.376 533.611 70.8935 515.87 55.692 462.315C53.742 455.445 61.2318 450.646 67.0889 454.731C100.268 477.875 146.976 515.373 146.976 535.648Z" stroke="#698F40" stroke-width="2"/>
<path d="M143.203 16.5512C114.926 -11.695 85.4891 1.73655 69.8809 16.1945C66.5105 19.3165 63.0675 22.4144 59.2521 24.9735C24.14 48.5248 8.42885 69.4054 3.01389 81.2428C1.10014 85.4264 1.1082 90.1086 1.67882 94.6736L4.8804 120.286C5.34332 123.99 5.36086 127.768 4.96345 131.479C1.04306 168.089 3.41741 162.228 7.95662 171.07C12.3037 179.537 98.6137 254.349 122.169 254.349C153.101 254.349 168.964 231.348 184.034 228.176C218.297 218.658 239.553 189.312 245.899 175.828C251.497 163.931 253.037 109.205 253.037 104.446C253.037 99.687 250.657 21.167 212.587 28.3053C194.231 31.747 178.987 31.9044 168.208 30.9653C158.25 30.0977 150.275 23.6157 143.203 16.5512Z" fill="#CBC5EA"/>
<circle cx="127.152" cy="128.019" r="53.9018" fill="#73628A"/>
<circle cx="127.152" cy="128.017" r="26.9509" fill="#EAEAEA"/>
<circle cx="154.101" cy="80.8549" r="6.73773" fill="#EAEAEA"/>
<circle cx="127.15" cy="74.1127" r="6.73773" fill="#EAEAEA"/>
<circle cx="100.199" cy="80.8549" r="6.73773" fill="#EAEAEA"/>
<circle cx="79.9877" cy="101.066" r="6.73773" fill="#EAEAEA"/>
<circle cx="73.2495" cy="128.015" r="6.73773" fill="#EAEAEA"/>
<circle cx="79.9877" cy="154.968" r="6.73773" fill="#EAEAEA"/>
<circle cx="100.199" cy="175.183" r="6.73773" fill="#EAEAEA"/>
<circle cx="127.15" cy="181.917" r="6.73773" fill="#EAEAEA"/>
<circle cx="154.101" cy="175.183" r="6.73773" fill="#EAEAEA"/>
<circle cx="174.316" cy="154.968" r="6.73773" fill="#EAEAEA"/>
<circle cx="181.052" cy="128.015" r="6.73773" fill="#EAEAEA"/>
<circle cx="174.316" cy="101.066" r="6.73773" fill="#EAEAEA"/>
</svg>
