<svg width="254" height="742" viewBox="0 0 254 742" fill="none" xmlns="http://www.w3.org/2000/svg">
<path d="M144.3 355.414C148.971 345.307 160.336 325.094 168.421 325.094C176.506 325.094 155.709 345.307 144.3 355.414C149.245 414.467 151.512 479.006 146.978 535.648C156.933 503.082 160.841 480.062 184.423 462.375C194.959 454.474 214.895 449.556 227.227 444.329C233.531 441.657 232.743 441.97 229.187 447.82C208.011 482.66 176.838 525.604 146.978 535.648C121.378 533.611 70.8955 515.87 55.6939 462.315C53.744 455.445 61.2338 450.646 67.0908 454.731C100.27 477.875 146.978 515.373 146.978 535.648C151.512 479.006 149.245 414.467 144.3 355.414C132.969 355.414 110.308 352.382 110.308 340.254C110.308 328.126 132.969 345.307 144.3 355.414Z" fill="#698F40"/>
<path d="M124.626 202.973C130.953 237.389 139.104 293.375 144.3 355.414M116.204 741.149C116.204 737.499 121.257 700.386 141.47 581.128C143.901 566.785 145.707 551.527 146.978 535.648M144.3 355.414C148.971 345.307 160.336 325.094 168.421 325.094C176.506 325.094 155.709 345.307 144.3 355.414ZM144.3 355.414C132.969 355.414 110.308 352.382 110.308 340.254C110.308 328.126 132.969 345.307 144.3 355.414ZM144.3 355.414C149.245 414.467 151.512 479.006 146.978 535.648M146.978 535.648C156.933 503.082 160.841 480.062 184.423 462.375C194.959 454.474 214.895 449.556 227.227 444.329C233.531 441.657 232.743 441.97 229.187 447.82C208.011 482.66 176.838 525.604 146.978 535.648ZM146.978 535.648C121.378 533.611 70.8955 515.87 55.6939 462.315C53.744 455.445 61.2338 450.646 67.0908 454.731C100.27 477.875 146.978 515.373 146.978 535.648Z" stroke="#698F40" stroke-width="1.97204"/>
<path d="M143.205 16.5512C114.928 -11.695 85.4911 1.73655 69.8829 16.1945C66.5125 19.3165 63.0694 22.4144 59.254 24.9735C24.142 48.5248 8.43081 69.4054 3.01585 81.2428C1.1021 85.4264 1.11015 90.1086 1.68077 94.6736L4.88235 120.286C5.34528 123.99 5.36281 127.768 4.9654 131.479C1.04501 168.089 3.41936 162.228 7.95857 171.07C12.3056 179.537 98.6157 254.349 122.171 254.349C153.103 254.349 168.966 231.348 184.036 228.176C218.299 218.658 239.555 189.312 245.901 175.828C251.499 163.931 253.039 109.205 253.039 104.446C253.039 99.687 250.659 21.167 212.589 28.3053C194.233 31.747 178.989 31.9044 168.21 30.9653C158.252 30.0977 150.277 23.6157 143.205 16.5512Z" fill="#CBC5EA"/>
</svg>
