<svg width="206" height="314" viewBox="0 0 206 314" fill="none" xmlns="http://www.w3.org/2000/svg">
<path d="M30.2884 5.40276C-3.37449 24.337 32.0417 58.8744 53.9577 73.7763C62.3737 82.1923 53.9576 100.073 48.6975 107.962C47.8208 95.6899 39.2296 74.3012 11.8785 86.924C-15.4726 99.5468 14.5084 130.753 32.9178 144.779C39.0543 153.544 48.6973 171.076 38.1777 171.076C27.658 171.076 19.7682 178.089 17.1383 181.595C-10.2129 211.048 30.2882 239.45 53.9577 249.969C46.9444 271.883 40.2815 315.186 69.7366 313.083C99.1917 310.979 106.555 270.13 106.555 249.969C108.309 258.734 120.757 266.273 156.524 226.301C192.291 186.329 173.18 169.323 159.154 165.817V144.779C172.303 144.779 224.902 107.962 198.603 100.073C177.563 93.7614 163.537 111.468 159.154 121.111C159.154 106.384 146.881 104.456 140.744 105.332C113.393 109.54 122.335 156.174 130.225 178.965C111.289 181.069 103.049 209.646 101.296 223.671C84.4641 206.841 69.7366 214.905 64.4768 221.041C55.7104 212.275 41.3336 193.692 53.9577 189.484C66.5818 185.277 78.5034 171.953 82.8862 165.817C110.237 119.533 82.0095 125.494 64.4768 134.26V113.222C87.2694 90.4304 127.069 41.6923 103.926 29.0695C80.7822 16.4467 67.9833 37.836 64.4768 50.1085C67.1069 27.3173 63.9514 -13.5315 30.2884 5.40276Z" fill="#698F40"/>
</svg>
