<svg width="206" height="313" viewBox="0 0 206 313" fill="none" xmlns="http://www.w3.org/2000/svg">
<path d="M30.215 4.88015C-3.39965 23.7872 31.9658 58.2751 53.8503 73.1556C62.2542 81.5595 53.8502 99.4151 48.5977 107.292C47.7222 95.0377 39.1433 73.6798 11.8314 86.2845C-15.4805 98.8892 14.4576 130.051 32.8406 144.056C38.9683 152.809 48.5975 170.316 38.0929 170.316C27.5883 170.316 19.7098 177.318 17.0837 180.82C-10.2282 210.231 30.2148 238.591 53.8503 249.095C46.847 270.978 40.1937 314.219 69.6066 312.119C99.0194 310.018 106.373 269.228 106.373 249.095C108.123 257.848 120.554 265.376 156.269 225.461C191.985 185.546 172.902 168.565 158.895 165.064V144.056C172.026 144.056 224.549 107.292 198.288 99.4144C177.278 93.112 163.272 110.794 158.895 120.422C158.895 105.717 146.64 103.791 140.512 104.666C113.201 108.868 122.129 155.435 130.008 178.194C111.1 180.295 102.871 208.83 101.12 222.835C84.313 206.029 69.6066 214.082 64.3543 220.209C55.6004 211.456 41.2443 192.899 53.8503 188.698C66.4563 184.496 78.3608 171.191 82.7373 165.064C110.049 118.847 81.8619 124.799 64.3543 133.552V112.544C87.1142 89.7858 126.857 41.1176 103.746 28.5129C80.6364 15.9082 67.8558 37.2669 64.3543 49.5218C66.9806 26.7633 63.8296 -14.0269 30.215 4.88015Z" fill="#698F40"/>
</svg>
