<svg width="154" height="236" viewBox="0 0 154 236" fill="none" xmlns="http://www.w3.org/2000/svg">
<path d="M22.0343 4.59468C-3.17669 18.775 23.3474 44.6408 39.7608 55.8013C46.0637 62.1042 39.7607 75.4958 35.8213 81.4038C35.1647 72.2129 28.7305 56.1944 8.24663 65.6479C-12.2373 75.1014 10.2162 98.4726 24.0035 108.977C28.5992 115.541 35.8211 128.671 27.9427 128.671C20.0643 128.671 14.1554 133.923 12.1858 136.549C-8.29812 158.608 22.0341 179.878 39.7608 187.756C34.5083 204.168 29.5183 236.599 51.578 235.024C73.6376 233.448 79.1525 202.855 79.1525 187.756C80.4655 194.321 89.7883 199.967 116.575 170.031C143.362 140.094 129.049 127.358 118.545 124.732V108.977C128.393 108.977 167.785 81.4038 148.089 75.4953C132.332 70.7686 121.827 84.0298 118.545 91.2512C118.545 80.2221 109.353 78.7778 104.757 79.4343C84.2734 82.5855 90.9701 117.511 96.8789 134.58C82.6978 136.155 76.5263 157.557 75.2132 168.061C62.6078 155.456 51.5779 161.496 47.6387 166.092C41.0734 159.527 30.3063 145.609 39.7608 142.458C49.2152 139.307 58.1436 129.328 61.426 124.732C81.9099 90.0695 60.7695 94.5337 47.6387 101.099V85.3427C64.7087 68.2739 94.5154 31.7728 77.1829 22.3193C59.8503 12.8657 50.2649 28.8847 47.6387 38.0759C49.6085 21.007 47.2453 -9.5856 22.0343 4.59468Z" fill="#698F40"/>
</svg>
