<svg width="820" height="312" viewBox="0 0 820 312" fill="none" xmlns="http://www.w3.org/2000/svg">
<path d="M29.4219 4.85793C-4.24142 23.7545 31.1752 58.2232 53.0914 73.0955C61.5075 81.4948 53.0913 99.3404 47.8312 107.213C46.9545 94.9656 38.3632 73.6194 11.0117 86.2171C-16.3397 98.8149 16.2713 126.5 32.0513 143.957C38.1878 152.705 47.831 170.202 37.3112 170.202C26.7914 170.202 18.9015 177.201 16.2716 180.7C-11.0799 210.095 29.4217 238.44 53.0914 248.938C46.078 270.809 39.4151 314.026 68.8705 311.926C98.3259 309.827 105.69 269.059 105.69 248.938C107.443 257.686 119.891 265.21 155.659 225.317C191.426 185.424 172.315 168.452 158.289 164.953V143.957C171.438 143.957 224.037 107.213 197.738 99.3398C176.698 93.0409 162.672 110.713 158.289 120.336C158.289 105.639 146.016 103.714 139.879 104.589C112.528 108.788 121.469 155.33 129.359 178.075C110.424 180.175 102.183 208.695 100.43 222.692C83.5982 205.895 68.8705 213.944 63.6106 220.068C54.8441 211.319 40.4672 192.773 53.0914 188.574C65.7157 184.374 77.6374 171.077 82.0202 164.953C109.372 118.761 81.1436 124.71 63.6106 133.459V112.462C86.4035 89.7165 126.203 41.0753 103.06 28.4776C79.9163 15.8799 67.1172 37.2267 63.6106 49.4748C66.2408 26.729 63.0852 -14.0386 29.4219 4.85793Z" fill="#698F40"/>
<path d="M234.549 4.85793C200.752 23.7545 224.672 56.6277 246.675 71.5C255.125 79.8993 258.312 99.3404 253.031 107.213C252.151 94.9656 243.526 73.6194 216.065 86.2171C188.605 98.8149 218.655 139.003 237.138 153C243.299 161.748 264.245 170.202 242.469 170.202C231.908 170.202 223.987 177.201 221.346 180.7C193.886 210.095 234.549 238.44 258.312 248.938C251.271 270.809 244.582 314.026 274.154 311.926C303.727 309.827 294.866 260.621 294.866 240.5C296.626 249.248 334.757 267.393 370.667 227.5C406.576 187.607 378.01 168.452 363.928 164.953L354.603 141C367.805 141 429.938 107.213 403.534 99.3398C382.411 93.0409 368.329 110.713 363.928 120.336C363.928 105.639 341.044 92.1252 334.883 93C307.423 97.1992 326.962 155.33 334.883 178.075C315.873 180.175 307.599 208.695 305.839 222.692C288.94 205.895 274.154 213.944 268.873 220.068C260.072 211.319 245.638 192.773 258.312 188.574C270.987 184.374 290.466 176.326 294.866 170.202C322.326 124.01 293.986 129.959 276.383 138.708L268.873 112.462C291.757 89.7165 344.205 38.5977 320.969 26C297.734 13.4023 272.394 37.2267 268.873 49.4748C271.514 26.729 268.346 -14.0386 234.549 4.85793Z" fill="#698F40"/>
<path d="M439.773 4.85793C406.215 23.7545 441.521 58.2232 463.369 73.0955C486.21 93 463.369 99.3404 458.126 107.213C457.252 94.9656 458.128 73.0955 421.421 86.2171C393.143 96.3254 424.042 129.959 442.395 143.957C450.974 150.5 458.125 170.202 447.638 170.202C437.151 170.202 429.684 172.5 426.664 180.7C416.425 208.5 439.773 238.44 463.369 248.938C456.378 270.809 449.736 314.026 479.099 311.926C508.463 309.827 515.804 269.059 515.804 248.938C517.552 257.686 529.962 265.21 565.618 225.317C601.274 185.424 582.908 153 568.24 164.953V143.957C583.407 159 633.784 107.213 607.566 99.3398C575.93 89.8389 572.609 110.713 568.24 120.336C568.24 105.639 556.005 103.714 549.887 104.589C510.561 107.213 531.535 155.33 539.4 178.075C532.067 178.075 512.309 208.695 510.561 222.692C493.781 205.895 479.099 213.944 473.856 220.068C465.117 211.319 450.784 192.773 463.369 188.574C475.954 184.374 501.277 171.077 505.646 164.953C532.913 118.761 491.334 124.71 473.856 133.459V112.462C496.578 89.7165 562.97 52 513.183 28.4776C489.418 17.2501 477.352 37.2267 473.856 49.4748C476.478 26.729 473.332 -14.0386 439.773 4.85793Z" fill="#698F40"/>
<path d="M643.787 4.85722C610.002 23.751 645.547 58.2147 667.542 73.0849C675.989 81.4829 667.542 99.326 662.263 107.198C661.383 94.9517 643.787 73.0849 625.311 86.2046C600.43 103.871 629.798 120.318 646.426 143.936C652.585 152.683 662.263 170.177 651.705 170.177C641.147 170.177 629.945 183.001 627.306 186.5C591.176 225.284 643.787 238.405 667.542 248.901C660.504 270.769 630.59 306.955 683.378 311.881C712.886 314.634 720.331 269.02 720.331 248.901C722.09 257.648 734.584 265.171 770.48 225.284C806.377 185.397 787.197 168.428 773.12 164.929V143.936C786.317 143.936 839.106 107.198 812.711 99.3253C780.859 89.825 777.519 110.697 773.12 120.318C773.12 105.623 760.802 103.699 754.644 104.574C701.072 107.198 736.167 155.307 744.086 178.049C708.599 178.049 716.811 208.664 715.052 222.66C692.039 188.546 683.378 213.913 678.1 220.036C673.472 233.466 635.335 227.835 667.542 188.546C675.988 178.243 690 170.177 696.576 164.929C731 129.5 695.696 124.692 678.1 133.439V112.446C700.975 89.7034 773.12 54.992 717.691 28.4735C693.852 17.0683 681.619 37.2213 678.1 49.4676C680.739 26.7251 677.572 -14.0366 643.787 4.85722Z" fill="#698F40"/>
</svg>
