<svg width="205" height="312" viewBox="0 0 205 312" fill="none" xmlns="http://www.w3.org/2000/svg">
<rect width="205" height="312" fill="#01001B"/>
<path d="M29.4216 4.85793C-4.24172 23.7545 46.954 50.0917 68.8702 64.964C77.2863 73.3633 53.091 99.3404 47.8309 107.213C46.9542 94.9656 38.3629 73.6194 11.0114 86.2171C-16.34 98.8149 13.6414 129.959 32.051 143.957C38.1875 152.705 47.8307 170.202 37.3109 170.202C26.7911 170.202 18.1233 163.113 9.01303 172.904C-18.3384 202.299 29.4214 238.44 53.0911 248.938C46.0777 270.809 39.4148 314.026 68.8702 311.926C123.178 308.055 68.8702 201.888 105.689 248.938C107.443 257.686 151.219 266.352 167.743 235.869C193.265 188.786 172.315 168.452 158.288 164.953V143.957C171.438 143.957 224.037 107.213 197.738 99.3398C176.698 93.0409 133.742 128.8 129.359 138.423C129.359 123.726 121.303 92.0736 115.167 92.9485C87.8151 97.1477 121.469 155.33 129.359 178.075C110.423 180.175 100.897 192.388 99.1434 206.386C82.3117 189.589 68.8702 213.944 63.6103 220.068C54.8438 211.319 40.4669 206.087 53.0911 201.888C65.7154 197.689 85.7475 171.077 90.1303 164.953C105.689 143.957 94.1361 120.433 63.6103 133.459V112.462C86.4032 89.7165 115.167 75.7842 115.167 49.4748C115.167 24.9861 67.1169 37.2267 63.6103 49.4748C66.2404 26.729 63.0849 -14.0386 29.4216 4.85793Z" fill="#698F40"/>
</svg>
