<svg width="93" height="555" viewBox="0 0 93 555" fill="none" xmlns="http://www.w3.org/2000/svg">
<path d="M38.7281 13.4834L39.7837 65.1209M49.7574 553.007C60.4148 554.642 81.1186 550.782 78.6754 522.266M49.7574 553.007C40.8546 553.177 23.2976 548.537 24.2926 528.614M49.7574 553.007L48.7564 504.04M48.7564 504.04C58.8052 504.776 78.1064 499.651 74.921 473.26M48.7564 504.04C40.4189 504.218 23.4612 499.409 22.3305 478.744M48.7564 504.04L47.6566 450.238M47.6566 450.238C60.4221 449.657 83.9161 441.524 75.7677 413.639M47.6566 450.238C37.8705 449.93 18.5647 443.088 19.6304 418.182M47.6566 450.238L46.4086 389.191M46.4086 389.191C56.8935 389.933 77.0822 383.752 73.9574 353.091M46.4086 389.191C36.4224 389.939 17.2554 384.861 20.477 358.561M46.4086 389.191L45.08 324.199M45.08 324.199C56.6077 325.253 77.8116 319.858 70.4054 289.847M45.08 324.199C34.9543 324.945 15.6814 320.221 19.5947 295.356M45.08 324.199L43.6786 255.646M43.6786 255.646C54.8155 256.397 75.4057 251.112 68.6709 223.959M43.6786 255.646C33.7764 254.615 15.2913 247.41 20.5677 226.836M43.6786 255.646L42.3499 190.654M42.3499 190.654C54.2161 192.899 76.285 189.177 69.6313 156.329M42.3499 190.654C31.7362 188.129 12.0057 177.94 17.994 157.376M42.3499 190.654L41.0213 125.662M41.0213 125.662C51.5616 127.888 72.2218 124.325 70.5411 92.259M41.0213 125.662C31.1242 125.521 11.9598 118.485 14.4797 91.4629M41.0213 125.662L39.7837 65.1209M39.7837 65.1209C50.4339 67.0523 70.2411 63.2393 64.2688 32.537M39.7837 65.1209C30.5645 66.4734 12.751 62.779 15.2505 37.1812" stroke="#698F40" stroke-width="1.99713"/>
<circle cx="38.8047" cy="8.13775" r="6.12085" transform="rotate(0.813581 38.8047 8.13775)" fill="#698F40" stroke="#698F40" stroke-width="1.99713"/>
<circle cx="63.4434" cy="28.0753" r="6.12085" transform="rotate(0.813581 63.4434 28.0753)" fill="#698F40" stroke="#698F40" stroke-width="1.99713"/>
<circle cx="15.3145" cy="32.7276" r="6.12085" transform="rotate(0.813581 15.3145 32.7276)" fill="#698F40" stroke="#698F40" stroke-width="1.99713"/>
<circle cx="14.5567" cy="86.1182" r="6.12085" transform="rotate(0.813581 14.5567 86.1182)" fill="#698F40" stroke="#698F40" stroke-width="1.99713"/>
<circle cx="71.5078" cy="86.9307" r="6.12085" transform="rotate(0.813581 71.5078 86.9307)" fill="#698F40" stroke="#698F40" stroke-width="1.99713"/>
<circle cx="68.8184" cy="150.974" r="6.12085" transform="rotate(0.813581 68.8184 150.974)" fill="#698F40" stroke="#698F40" stroke-width="1.99713"/>
<circle cx="20.7656" cy="150.298" r="6.12085" transform="rotate(0.813581 20.7656 150.298)" fill="#698F40" stroke="#698F40" stroke-width="1.99713"/>
<circle cx="21.5352" cy="221.509" r="6.12085" transform="rotate(0.813581 21.5352 221.509)" fill="#698F40" stroke="#698F40" stroke-width="1.99713"/>
<circle cx="20.5235" cy="292.692" r="6.12085" transform="rotate(0.813581 20.5235 292.692)" fill="#698F40" stroke="#698F40" stroke-width="1.99713"/>
<circle cx="64.2715" cy="220.337" r="6.12085" transform="rotate(0.813581 64.2715 220.337)" fill="#698F40" stroke="#698F40" stroke-width="1.99713"/>
<circle cx="66.8985" cy="286.235" r="6.12085" transform="rotate(0.813581 66.8985 286.235)" fill="#698F40" stroke="#698F40" stroke-width="1.99713"/>
<circle cx="73.1289" cy="348.626" r="6.12085" transform="rotate(0.813581 73.1289 348.626)" fill="#698F40" stroke="#698F40" stroke-width="1.99713"/>
<circle cx="21.4473" cy="353.235" r="6.12085" transform="rotate(0.813581 21.4473 353.235)" fill="#698F40" stroke="#698F40" stroke-width="1.99713"/>
<circle cx="20.584" cy="413.747" r="6.12085" transform="rotate(0.813581 20.584 413.747)" fill="#698F40" stroke="#698F40" stroke-width="1.99713"/>
<circle cx="75.8555" cy="407.411" r="6.12085" transform="rotate(0.813581 75.8555 407.411)" fill="#698F40" stroke="#698F40" stroke-width="1.99713"/>
<circle cx="21.5293" cy="472.505" r="6.12085" transform="rotate(0.813581 21.5293 472.505)" fill="#698F40" stroke="#698F40" stroke-width="1.99713"/>
<circle cx="24.3555" cy="524.161" r="6.12085" transform="rotate(0.813581 24.3555 524.161)" fill="#698F40" stroke="#698F40" stroke-width="1.99713"/>
<circle cx="77.8516" cy="517.802" r="6.12085" transform="rotate(0.813581 77.8516 517.802)" fill="#698F40" stroke="#698F40" stroke-width="1.99713"/>
<circle cx="74.9961" cy="467.919" r="6.12085" transform="rotate(0.813581 74.9961 467.919)" fill="#698F40" stroke="#698F40" stroke-width="1.99713"/>
</svg>
