<svg width="92" height="555" viewBox="0 0 92 555" fill="none" xmlns="http://www.w3.org/2000/svg">
<path d="M37.9706 12.9057L39.0277 64.6175M49.0158 553.204C59.6884 554.841 80.422 550.976 77.9753 522.419M49.0158 553.204C40.1001 553.375 22.5179 548.728 23.5143 528.776M49.0158 553.204L48.0133 504.167M48.0133 504.167C58.0765 504.904 77.4055 499.771 74.2155 473.343M48.0133 504.167C39.6638 504.346 22.6817 499.529 21.5495 478.834M48.0133 504.167L46.9119 450.288M46.9119 450.288C59.6958 449.706 83.2235 441.562 75.0634 413.636M46.9119 450.288C37.1117 449.98 17.7782 443.128 18.8454 418.186M46.9119 450.288L45.6621 389.153M45.6621 389.153C56.1621 389.897 76.3797 383.707 73.2505 353.001M45.6621 389.153C35.6616 389.902 16.467 384.817 19.6933 358.479M45.6621 389.153L44.3316 324.068M44.3316 324.068C55.8759 325.123 77.1103 319.72 69.6934 289.666M44.3316 324.068C34.1914 324.815 14.8907 320.084 18.8096 295.183M44.3316 324.068L42.9281 255.416M42.9281 255.416C54.0811 256.169 74.7008 250.876 67.9564 223.684M42.9281 255.416C33.0118 254.384 14.5001 247.169 19.7841 226.565M42.9281 255.416L41.5976 190.33M41.5976 190.33C53.4808 192.579 75.5814 188.852 68.9181 155.957M41.5976 190.33C30.9686 187.803 11.2098 177.599 17.2067 157.005M41.5976 190.33L40.2671 125.245M40.2671 125.245C50.8225 127.475 71.5124 123.906 69.8293 91.7946M40.2671 125.245C30.3557 125.104 11.1639 118.058 13.6873 90.9973M40.2671 125.245L39.0277 64.6175M39.0277 64.6175C49.6932 66.5516 69.5288 62.7332 63.5479 31.9867M39.0277 64.6175C29.7953 65.9719 11.9561 62.2721 14.4593 36.6376" stroke="#698F40" stroke-width="2"/>
<circle cx="38.0453" cy="7.55828" r="6.12964" transform="rotate(0.813581 38.0453 7.55828)" fill="#698F40" stroke="#698F40" stroke-width="2"/>
<circle cx="62.721" cy="27.5192" r="6.12964" transform="rotate(0.813581 62.721 27.5192)" fill="#698F40" stroke="#698F40" stroke-width="2"/>
<circle cx="14.5238" cy="32.1833" r="6.12964" transform="rotate(0.813581 14.5238 32.1833)" fill="#698F40" stroke="#698F40" stroke-width="2"/>
<circle cx="13.764" cy="85.652" r="6.12964" transform="rotate(0.813581 13.764 85.652)" fill="#698F40" stroke="#698F40" stroke-width="2"/>
<circle cx="70.7972" cy="86.4645" r="6.12964" transform="rotate(0.813581 70.7972 86.4645)" fill="#698F40" stroke="#698F40" stroke-width="2"/>
<circle cx="68.1019" cy="150.597" r="6.12964" transform="rotate(0.813581 68.1019 150.597)" fill="#698F40" stroke="#698F40" stroke-width="2"/>
<circle cx="19.9808" cy="149.918" r="6.12964" transform="rotate(0.813581 19.9808 149.918)" fill="#698F40" stroke="#698F40" stroke-width="2"/>
<circle cx="20.7523" cy="221.234" r="6.12964" transform="rotate(0.813581 20.7523 221.234)" fill="#698F40" stroke="#698F40" stroke-width="2"/>
<circle cx="19.7386" cy="292.523" r="6.12964" transform="rotate(0.813581 19.7386 292.523)" fill="#698F40" stroke="#698F40" stroke-width="2"/>
<circle cx="63.5511" cy="220.058" r="6.12964" transform="rotate(0.813581 63.5511 220.058)" fill="#698F40" stroke="#698F40" stroke-width="2"/>
<circle cx="66.18" cy="286.054" r="6.12964" transform="rotate(0.813581 66.18 286.054)" fill="#698F40" stroke="#698F40" stroke-width="2"/>
<circle cx="72.4222" cy="348.535" r="6.12964" transform="rotate(0.813581 72.4222 348.535)" fill="#698F40" stroke="#698F40" stroke-width="2"/>
<circle cx="20.6625" cy="353.148" r="6.12964" transform="rotate(0.813581 20.6625 353.148)" fill="#698F40" stroke="#698F40" stroke-width="2"/>
<circle cx="19.8011" cy="413.742" r="6.12964" transform="rotate(0.813581 19.8011 413.742)" fill="#698F40" stroke="#698F40" stroke-width="2"/>
<circle cx="75.1527" cy="407.402" r="6.12964" transform="rotate(0.813581 75.1527 407.402)" fill="#698F40" stroke="#698F40" stroke-width="2"/>
<circle cx="20.7484" cy="472.586" r="6.12964" transform="rotate(0.813581 20.7484 472.586)" fill="#698F40" stroke="#698F40" stroke-width="2"/>
<circle cx="23.5765" cy="524.324" r="6.12964" transform="rotate(0.813581 23.5765 524.324)" fill="#698F40" stroke="#698F40" stroke-width="2"/>
<circle cx="77.1488" cy="517.953" r="6.12964" transform="rotate(0.813581 77.1488 517.953)" fill="#698F40" stroke="#698F40" stroke-width="2"/>
<circle cx="74.2894" cy="467.996" r="6.12964" transform="rotate(0.813581 74.2894 467.996)" fill="#698F40" stroke="#698F40" stroke-width="2"/>
</svg>
