<svg width="923" height="555" viewBox="0 0 923 555" fill="none" xmlns="http://www.w3.org/2000/svg">
<path d="M74.1471 353.497C77.2738 384.159 57.0855 390.341 46.6006 389.599C36.6144 390.348 17.4471 385.271 20.6671 358.971" stroke="#698F40" stroke-width="1.99713"/>
<circle cx="73.3169" cy="349.032" r="6.12085" transform="rotate(0.81 73.3169 349.032)" fill="#698F40" stroke="#698F40" stroke-width="1.99713"/>
<circle cx="21.6372" cy="353.645" r="6.12085" transform="rotate(0.81 21.6372 353.645)" fill="#698F40" stroke="#698F40" stroke-width="1.99713"/>
<path d="M75.9576 414.047C84.1077 441.931 60.6143 450.066 47.8487 450.647C38.0626 450.34 18.7564 443.5 19.8205 418.593" stroke="#698F40" stroke-width="1.99713"/>
<circle cx="20.7739" cy="414.161" r="6.12085" transform="rotate(0.81 20.7739 414.161)" fill="#698F40" stroke="#698F40" stroke-width="1.99713"/>
<circle cx="76.0454" cy="407.821" r="6.12085" transform="rotate(0.81 76.0454 407.821)" fill="#698F40" stroke="#698F40" stroke-width="1.99713"/>
<path d="M78.8652 522.674C81.3102 551.19 60.6066 555.051 49.9492 553.417C41.0464 553.588 23.4891 548.948 24.4828 529.025" stroke="#698F40" stroke-width="1.99713"/>
<circle cx="24.5454" cy="524.571" r="6.12085" transform="rotate(0.81 24.5454 524.571)" fill="#698F40" stroke="#698F40" stroke-width="1.99713"/>
<circle cx="78.0405" cy="518.208" r="6.12085" transform="rotate(0.81 78.0405 518.208)" fill="#698F40" stroke="#698F40" stroke-width="1.99713"/>
<path d="M75.1105 473.668C78.2975 500.058 58.9966 505.185 48.9478 504.45C40.6103 504.628 23.6522 499.82 22.5203 479.155" stroke="#698F40" stroke-width="1.99713"/>
<circle cx="21.7202" cy="472.915" r="6.12085" transform="rotate(0.81 21.7202 472.915)" fill="#698F40" stroke="#698F40" stroke-width="1.99713"/>
<circle cx="75.186" cy="468.325" r="6.12085" transform="rotate(0.81 75.186 468.325)" fill="#698F40" stroke="#698F40" stroke-width="1.99713"/>
<path d="M70.5953 290.254C78.0033 320.265 56.7998 325.661 45.272 324.608C35.1464 325.355 15.8731 320.632 19.7848 295.766" stroke="#698F40" stroke-width="1.99713"/>
<circle cx="20.7124" cy="293.102" r="6.12085" transform="rotate(0.81 20.7124 293.102)" fill="#698F40" stroke="#698F40" stroke-width="1.99713"/>
<circle cx="67.0884" cy="286.641" r="6.12085" transform="rotate(0.81 67.0884 286.641)" fill="#698F40" stroke="#698F40" stroke-width="1.99713"/>
<path d="M68.8605 224.379C75.597 251.531 55.0072 256.818 43.8702 256.067C33.968 255.037 15.4824 247.833 20.7575 227.259" stroke="#698F40" stroke-width="1.99713"/>
<circle cx="21.7241" cy="221.93" r="6.12085" transform="rotate(0.81 21.7241 221.93)" fill="#698F40" stroke="#698F40" stroke-width="1.99713"/>
<circle cx="64.4604" cy="220.758" r="6.12085" transform="rotate(0.81 64.4604 220.758)" fill="#698F40" stroke="#698F40" stroke-width="1.99713"/>
<path d="M69.8212 156.736C76.4769 189.584 54.4083 193.307 42.542 191.062C31.9281 188.539 12.197 178.351 18.184 157.786" stroke="#698F40" stroke-width="1.99713"/>
<circle cx="69.0063" cy="151.38" r="6.12085" transform="rotate(0.81 69.0063 151.38)" fill="#698F40" stroke="#698F40" stroke-width="1.99713"/>
<circle cx="20.2202" cy="152.219" r="6.12085" transform="rotate(0.81 20.2202 152.219)" fill="#698F40" stroke="#698F40" stroke-width="1.99713"/>
<path d="M70.7127 92.7949C72.3954 124.86 51.7354 128.425 41.195 126.199C31.2979 126.059 12.1331 119.024 14.6512 92.0023" stroke="#698F40" stroke-width="1.99713"/>
<circle cx="14.7456" cy="86.5279" r="6.12085" transform="rotate(0.81 14.7456 86.5279)" fill="#698F40" stroke="#698F40" stroke-width="1.99713"/>
<circle cx="71.6968" cy="87.3365" r="6.12085" transform="rotate(0.81 71.6968 87.3365)" fill="#698F40" stroke="#698F40" stroke-width="1.99713"/>
<path d="M64.457 32.9483C70.4313 63.6503 50.6243 67.4645 39.974 65.5338C30.7549 66.8869 12.9411 63.1935 15.4391 37.5956" stroke="#698F40" stroke-width="1.99713"/>
<circle cx="63.6313" cy="28.485" r="6.12085" transform="rotate(0.81 63.6313 28.485)" fill="#698F40" stroke="#698F40" stroke-width="1.99713"/>
<circle cx="15.5034" cy="33.1412" r="6.12085" transform="rotate(0.81 15.5034 33.1412)" fill="#698F40" stroke="#698F40" stroke-width="1.99713"/>
<circle cx="38.9942" cy="8.54791" r="6.12085" transform="rotate(0.813581 38.9942 8.54791)" fill="#698F40" stroke="#698F40" stroke-width="1.99713"/>
<path d="M40.1611 15L41.2168 66.6376L42.4544 127.178L43.783 192.17L45.1116 257.162L46.513 325.716L47.8416 390.708L49.0896 451.755L50.1895 505.557L51.1905 554.523" stroke="#698F40" stroke-width="1.99713"/>
<path d="M166.271 352.513C169.398 383.174 149.21 389.357 138.725 388.615C128.738 389.364 109.571 384.287 112.791 357.987" stroke="#698F40" stroke-width="1.99713"/>
<circle cx="165.441" cy="348.047" r="6.12085" transform="rotate(0.81 165.441 348.047)" fill="#698F40" stroke="#698F40" stroke-width="1.99713"/>
<circle cx="113.761" cy="352.661" r="6.12085" transform="rotate(0.81 113.761 352.661)" fill="#698F40" stroke="#698F40" stroke-width="1.99713"/>
<path d="M168.08 413.062C176.23 440.947 152.736 449.081 139.971 449.663C130.185 449.356 110.878 442.515 111.943 417.609" stroke="#698F40" stroke-width="1.99713"/>
<circle cx="112.896" cy="413.176" r="6.12085" transform="rotate(0.81 112.896 413.176)" fill="#698F40" stroke="#698F40" stroke-width="1.99713"/>
<circle cx="168.167" cy="406.837" r="6.12085" transform="rotate(0.81 168.167 406.837)" fill="#698F40" stroke="#698F40" stroke-width="1.99713"/>
<path d="M170.987 521.682C173.432 550.198 152.729 554.059 142.071 552.425C133.168 552.595 115.611 547.956 116.605 528.033" stroke="#698F40" stroke-width="1.99713"/>
<circle cx="116.667" cy="523.579" r="6.12085" transform="rotate(0.81 116.667 523.579)" fill="#698F40" stroke="#698F40" stroke-width="1.99713"/>
<circle cx="170.163" cy="517.215" r="6.12085" transform="rotate(0.81 170.163 517.215)" fill="#698F40" stroke="#698F40" stroke-width="1.99713"/>
<path d="M167.234 472.676C170.422 499.066 151.121 504.193 141.072 503.458C132.734 503.636 115.776 498.828 114.644 478.163" stroke="#698F40" stroke-width="1.99713"/>
<circle cx="113.844" cy="471.922" r="6.12085" transform="rotate(0.81 113.844 471.922)" fill="#698F40" stroke="#698F40" stroke-width="1.99713"/>
<circle cx="167.31" cy="467.333" r="6.12085" transform="rotate(0.81 167.31 467.333)" fill="#698F40" stroke="#698F40" stroke-width="1.99713"/>
<path d="M162.717 289.262C170.125 319.272 148.922 324.669 137.394 323.616C127.268 324.363 107.995 319.64 111.907 294.774" stroke="#698F40" stroke-width="1.99713"/>
<circle cx="112.834" cy="292.11" r="6.12085" transform="rotate(0.81 112.834 292.11)" fill="#698F40" stroke="#698F40" stroke-width="1.99713"/>
<circle cx="159.21" cy="285.649" r="6.12085" transform="rotate(0.81 159.21 285.649)" fill="#698F40" stroke="#698F40" stroke-width="1.99713"/>
<path d="M160.983 223.386C167.719 250.539 147.129 255.826 135.992 255.075C126.09 254.045 107.604 246.841 112.88 226.267" stroke="#698F40" stroke-width="1.99713"/>
<circle cx="113.846" cy="220.938" r="6.12085" transform="rotate(0.81 113.846 220.938)" fill="#698F40" stroke="#698F40" stroke-width="1.99713"/>
<circle cx="156.583" cy="219.766" r="6.12085" transform="rotate(0.81 156.583 219.766)" fill="#698F40" stroke="#698F40" stroke-width="1.99713"/>
<path d="M161.943 155.744C168.599 188.592 146.53 192.314 134.664 190.07C124.05 187.546 104.319 177.358 110.306 156.794" stroke="#698F40" stroke-width="1.99713"/>
<circle cx="161.128" cy="150.387" r="6.12085" transform="rotate(0.81 161.128 150.387)" fill="#698F40" stroke="#698F40" stroke-width="1.99713"/>
<circle cx="112.342" cy="151.227" r="6.12085" transform="rotate(0.81 112.342 151.227)" fill="#698F40" stroke="#698F40" stroke-width="1.99713"/>
<path d="M162.835 91.8027C164.518 123.868 143.857 127.433 133.317 125.207C123.42 125.067 104.255 118.032 106.773 91.0101" stroke="#698F40" stroke-width="1.99713"/>
<circle cx="106.868" cy="85.5358" r="6.12085" transform="rotate(0.81 106.868 85.5358)" fill="#698F40" stroke="#698F40" stroke-width="1.99713"/>
<circle cx="163.819" cy="86.3443" r="6.12085" transform="rotate(0.81 163.819 86.3443)" fill="#698F40" stroke="#698F40" stroke-width="1.99713"/>
<path d="M156.58 52.9618C162.554 22.2598 142.747 18.4457 132.097 20.3763C122.878 19.0233 105.064 22.7166 107.562 48.3146" stroke="#698F40" stroke-width="1.99713"/>
<circle cx="7.11941" cy="7.11941" r="6.12085" transform="matrix(0.9999 -0.0141367 -0.0141367 -0.9999 148.736 64.6445)" fill="#698F40" stroke="#698F40" stroke-width="1.99713"/>
<circle cx="7.11941" cy="7.11941" r="6.12085" transform="matrix(0.9999 -0.0141367 -0.0141367 -0.9999 100.608 59.9883)" fill="#698F40" stroke="#698F40" stroke-width="1.99713"/>
<circle cx="131.117" cy="7.55572" r="6.12085" transform="rotate(0.813581 131.117 7.55572)" fill="#698F40" stroke="#698F40" stroke-width="1.99713"/>
<path d="M132.284 14.0078L133.34 65.6454L134.577 126.186L135.906 191.178L137.235 256.17L138.636 324.723L139.965 389.716L141.213 450.763L142.313 504.565L143.314 553.531" stroke="#698F40" stroke-width="1.99713"/>
<path d="M258.42 352.513C261.546 383.174 241.358 389.357 230.873 388.615C220.887 389.364 201.72 384.287 204.94 357.987" stroke="#698F40" stroke-width="1.99713"/>
<circle cx="257.589" cy="348.047" r="6.12085" transform="rotate(0.81 257.589 348.047)" fill="#698F40" stroke="#698F40" stroke-width="1.99713"/>
<circle cx="205.91" cy="352.661" r="6.12085" transform="rotate(0.81 205.91 352.661)" fill="#698F40" stroke="#698F40" stroke-width="1.99713"/>
<path d="M260.23 413.062C268.38 440.947 244.887 449.081 232.121 449.663C222.335 449.356 203.029 442.515 204.093 417.609" stroke="#698F40" stroke-width="1.99713"/>
<circle cx="205.046" cy="413.176" r="6.12085" transform="rotate(0.81 205.046 413.176)" fill="#698F40" stroke="#698F40" stroke-width="1.99713"/>
<circle cx="260.318" cy="406.837" r="6.12085" transform="rotate(0.81 260.318 406.837)" fill="#698F40" stroke="#698F40" stroke-width="1.99713"/>
<path d="M263.138 521.682C265.583 550.198 244.879 554.059 234.222 552.425C225.319 552.595 207.762 547.956 208.755 528.033" stroke="#698F40" stroke-width="1.99713"/>
<circle cx="208.818" cy="523.579" r="6.12085" transform="rotate(0.81 208.818 523.579)" fill="#698F40" stroke="#698F40" stroke-width="1.99713"/>
<circle cx="262.313" cy="517.215" r="6.12085" transform="rotate(0.81 262.313 517.215)" fill="#698F40" stroke="#698F40" stroke-width="1.99713"/>
<path d="M259.383 472.676C262.57 499.066 243.269 504.193 233.22 503.458C224.883 503.636 207.925 498.828 206.793 478.163" stroke="#698F40" stroke-width="1.99713"/>
<circle cx="205.993" cy="471.922" r="6.12085" transform="rotate(0.81 205.993 471.922)" fill="#698F40" stroke="#698F40" stroke-width="1.99713"/>
<circle cx="259.458" cy="467.333" r="6.12085" transform="rotate(0.81 259.458 467.333)" fill="#698F40" stroke="#698F40" stroke-width="1.99713"/>
<path d="M254.868 289.262C262.276 319.272 241.072 324.669 229.544 323.616C219.419 324.363 200.146 319.64 204.057 294.774" stroke="#698F40" stroke-width="1.99713"/>
<circle cx="204.985" cy="292.11" r="6.12085" transform="rotate(0.81 204.985 292.11)" fill="#698F40" stroke="#698F40" stroke-width="1.99713"/>
<circle cx="251.361" cy="285.649" r="6.12085" transform="rotate(0.81 251.361 285.649)" fill="#698F40" stroke="#698F40" stroke-width="1.99713"/>
<path d="M253.133 223.386C259.869 250.539 239.28 255.826 228.143 255.075C218.24 254.045 199.755 246.841 205.03 226.267" stroke="#698F40" stroke-width="1.99713"/>
<circle cx="205.997" cy="220.938" r="6.12085" transform="rotate(0.81 205.997 220.938)" fill="#698F40" stroke="#698F40" stroke-width="1.99713"/>
<circle cx="248.733" cy="219.766" r="6.12085" transform="rotate(0.81 248.733 219.766)" fill="#698F40" stroke="#698F40" stroke-width="1.99713"/>
<path d="M254.094 155.744C260.749 188.592 238.681 192.314 226.814 190.07C216.201 187.546 196.469 177.358 202.456 156.794" stroke="#698F40" stroke-width="1.99713"/>
<circle cx="253.279" cy="150.387" r="6.12085" transform="rotate(0.81 253.279 150.387)" fill="#698F40" stroke="#698F40" stroke-width="1.99713"/>
<circle cx="204.493" cy="151.227" r="6.12085" transform="rotate(0.81 204.493 151.227)" fill="#698F40" stroke="#698F40" stroke-width="1.99713"/>
<path d="M254.985 112.709C256.668 80.6436 236.008 77.0789 225.467 79.3047C215.57 79.4446 196.406 86.4799 198.924 113.502" stroke="#698F40" stroke-width="1.99713"/>
<circle cx="7.11941" cy="7.11941" r="6.12085" transform="matrix(0.9999 -0.0141367 -0.0141367 -0.9999 192 126.195)" fill="#698F40" stroke="#698F40" stroke-width="1.99713"/>
<circle cx="7.11941" cy="7.11941" r="6.12085" transform="matrix(0.9999 -0.0141367 -0.0141367 -0.9999 248.951 125.387)" fill="#698F40" stroke="#698F40" stroke-width="1.99713"/>
<path d="M248.729 52.9618C254.704 22.2598 234.897 18.4457 224.246 20.3763C215.027 19.0233 197.214 22.7166 199.712 48.3146" stroke="#698F40" stroke-width="1.99713"/>
<circle cx="7.11941" cy="7.11941" r="6.12085" transform="matrix(0.9999 -0.0141367 -0.0141367 -0.9999 240.886 64.6445)" fill="#698F40" stroke="#698F40" stroke-width="1.99713"/>
<circle cx="7.11941" cy="7.11941" r="6.12085" transform="matrix(0.9999 -0.0141367 -0.0141367 -0.9999 192.758 59.9883)" fill="#698F40" stroke="#698F40" stroke-width="1.99713"/>
<circle cx="223.267" cy="7.55572" r="6.12085" transform="rotate(0.813581 223.267 7.55572)" fill="#698F40" stroke="#698F40" stroke-width="1.99713"/>
<path d="M224.434 14.0078L225.489 65.6454L226.727 126.186L228.055 191.178L229.384 256.17L230.785 324.723L232.114 389.716L233.362 450.763L234.462 504.565L235.463 553.531" stroke="#698F40" stroke-width="1.99713"/>
<path d="M350.569 352.513C353.696 383.174 333.507 389.357 323.022 388.615C313.036 389.364 293.869 384.287 297.089 357.987" stroke="#698F40" stroke-width="1.99713"/>
<circle cx="349.739" cy="348.047" r="6.12085" transform="rotate(0.81 349.739 348.047)" fill="#698F40" stroke="#698F40" stroke-width="1.99713"/>
<circle cx="298.059" cy="352.661" r="6.12085" transform="rotate(0.81 298.059 352.661)" fill="#698F40" stroke="#698F40" stroke-width="1.99713"/>
<path d="M352.379 413.062C360.53 440.947 337.036 449.081 324.271 449.663C314.484 449.356 295.178 442.515 296.242 417.609" stroke="#698F40" stroke-width="1.99713"/>
<circle cx="297.196" cy="413.176" r="6.12085" transform="rotate(0.81 297.196 413.176)" fill="#698F40" stroke="#698F40" stroke-width="1.99713"/>
<circle cx="352.467" cy="406.837" r="6.12085" transform="rotate(0.81 352.467 406.837)" fill="#698F40" stroke="#698F40" stroke-width="1.99713"/>
<path d="M355.287 521.682C357.732 550.198 337.028 554.059 326.371 552.425C317.468 552.595 299.911 547.956 300.905 528.033" stroke="#698F40" stroke-width="1.99713"/>
<circle cx="300.967" cy="523.579" r="6.12085" transform="rotate(0.81 300.967 523.579)" fill="#698F40" stroke="#698F40" stroke-width="1.99713"/>
<circle cx="354.462" cy="517.215" r="6.12085" transform="rotate(0.81 354.462 517.215)" fill="#698F40" stroke="#698F40" stroke-width="1.99713"/>
<path d="M351.532 472.676C354.719 499.066 335.419 504.193 325.37 503.458C317.032 503.636 300.074 498.828 298.942 478.163" stroke="#698F40" stroke-width="1.99713"/>
<circle cx="298.142" cy="471.922" r="6.12085" transform="rotate(0.81 298.142 471.922)" fill="#698F40" stroke="#698F40" stroke-width="1.99713"/>
<circle cx="351.608" cy="467.333" r="6.12085" transform="rotate(0.81 351.608 467.333)" fill="#698F40" stroke="#698F40" stroke-width="1.99713"/>
<path d="M347.017 289.262C354.425 319.272 333.222 324.669 321.694 323.616C311.568 324.363 292.295 319.64 296.207 294.774" stroke="#698F40" stroke-width="1.99713"/>
<circle cx="297.134" cy="292.11" r="6.12085" transform="rotate(0.81 297.134 292.11)" fill="#698F40" stroke="#698F40" stroke-width="1.99713"/>
<circle cx="343.51" cy="285.649" r="6.12085" transform="rotate(0.81 343.51 285.649)" fill="#698F40" stroke="#698F40" stroke-width="1.99713"/>
<path d="M345.282 223.386C352.019 250.539 331.429 255.826 320.292 255.075C310.39 254.045 291.904 246.841 297.179 226.267" stroke="#698F40" stroke-width="1.99713"/>
<circle cx="298.146" cy="220.938" r="6.12085" transform="rotate(0.81 298.146 220.938)" fill="#698F40" stroke="#698F40" stroke-width="1.99713"/>
<circle cx="340.882" cy="219.766" r="6.12085" transform="rotate(0.81 340.882 219.766)" fill="#698F40" stroke="#698F40" stroke-width="1.99713"/>
<path d="M346.243 177.729C352.899 144.881 330.83 141.158 318.964 143.403C308.35 145.926 288.619 156.114 294.606 176.679" stroke="#698F40" stroke-width="1.99713"/>
<circle cx="7.11941" cy="7.11941" r="6.12085" transform="matrix(0.9999 -0.0141367 -0.0141367 -0.9999 338.41 190.305)" fill="#698F40" stroke="#698F40" stroke-width="1.99713"/>
<circle cx="7.11941" cy="7.11941" r="6.12085" transform="matrix(0.9999 -0.0141367 -0.0141367 -0.9999 289.624 189.465)" fill="#698F40" stroke="#698F40" stroke-width="1.99713"/>
<path d="M347.135 112.709C348.817 80.6436 328.157 77.0789 317.617 79.3047C307.72 79.4446 288.555 86.4799 291.073 113.502" stroke="#698F40" stroke-width="1.99713"/>
<circle cx="7.11941" cy="7.11941" r="6.12085" transform="matrix(0.9999 -0.0141367 -0.0141367 -0.9999 284.149 126.195)" fill="#698F40" stroke="#698F40" stroke-width="1.99713"/>
<circle cx="7.11941" cy="7.11941" r="6.12085" transform="matrix(0.9999 -0.0141367 -0.0141367 -0.9999 341.101 125.387)" fill="#698F40" stroke="#698F40" stroke-width="1.99713"/>
<path d="M340.879 52.9618C346.853 22.2598 327.046 18.4457 316.396 20.3763C307.177 19.0233 289.363 22.7166 291.861 48.3146" stroke="#698F40" stroke-width="1.99713"/>
<circle cx="7.11941" cy="7.11941" r="6.12085" transform="matrix(0.9999 -0.0141367 -0.0141367 -0.9999 333.035 64.6445)" fill="#698F40" stroke="#698F40" stroke-width="1.99713"/>
<circle cx="7.11941" cy="7.11941" r="6.12085" transform="matrix(0.9999 -0.0141367 -0.0141367 -0.9999 284.907 59.9883)" fill="#698F40" stroke="#698F40" stroke-width="1.99713"/>
<circle cx="315.416" cy="7.55572" r="6.12085" transform="rotate(0.813581 315.416 7.55572)" fill="#698F40" stroke="#698F40" stroke-width="1.99713"/>
<path d="M316.583 14.0078L317.639 65.6454L318.876 126.186L320.205 191.178L321.533 256.17L322.935 324.723L324.264 389.716L325.511 450.763L326.611 504.565L327.612 553.531" stroke="#698F40" stroke-width="1.99713"/>
<path d="M442.718 352.513C445.845 383.174 425.657 389.357 415.172 388.615C405.186 389.364 386.018 384.287 389.238 357.987" stroke="#698F40" stroke-width="1.99713"/>
<circle cx="441.888" cy="348.047" r="6.12085" transform="rotate(0.81 441.888 348.047)" fill="#698F40" stroke="#698F40" stroke-width="1.99713"/>
<circle cx="390.208" cy="352.661" r="6.12085" transform="rotate(0.81 390.208 352.661)" fill="#698F40" stroke="#698F40" stroke-width="1.99713"/>
<path d="M444.529 413.062C452.679 440.947 429.186 449.081 416.42 449.663C406.634 449.356 387.328 442.515 388.392 417.609" stroke="#698F40" stroke-width="1.99713"/>
<circle cx="389.345" cy="413.176" r="6.12085" transform="rotate(0.81 389.345 413.176)" fill="#698F40" stroke="#698F40" stroke-width="1.99713"/>
<circle cx="444.617" cy="406.837" r="6.12085" transform="rotate(0.81 444.617 406.837)" fill="#698F40" stroke="#698F40" stroke-width="1.99713"/>
<path d="M447.437 521.682C449.882 550.198 429.178 554.059 418.52 552.425C409.618 552.595 392.06 547.956 393.054 528.033" stroke="#698F40" stroke-width="1.99713"/>
<circle cx="393.117" cy="523.579" r="6.12085" transform="rotate(0.81 393.117 523.579)" fill="#698F40" stroke="#698F40" stroke-width="1.99713"/>
<circle cx="446.612" cy="517.215" r="6.12085" transform="rotate(0.81 446.612 517.215)" fill="#698F40" stroke="#698F40" stroke-width="1.99713"/>
<path d="M443.682 472.676C446.869 499.066 427.568 504.193 417.519 503.458C409.182 503.636 392.224 498.828 391.092 478.163" stroke="#698F40" stroke-width="1.99713"/>
<circle cx="390.292" cy="471.922" r="6.12085" transform="rotate(0.81 390.292 471.922)" fill="#698F40" stroke="#698F40" stroke-width="1.99713"/>
<circle cx="443.757" cy="467.333" r="6.12085" transform="rotate(0.81 443.757 467.333)" fill="#698F40" stroke="#698F40" stroke-width="1.99713"/>
<path d="M439.167 289.262C446.575 319.272 425.371 324.669 413.843 323.616C403.718 324.363 384.444 319.64 388.356 294.774" stroke="#698F40" stroke-width="1.99713"/>
<circle cx="389.284" cy="292.11" r="6.12085" transform="rotate(0.81 389.284 292.11)" fill="#698F40" stroke="#698F40" stroke-width="1.99713"/>
<circle cx="435.66" cy="285.649" r="6.12085" transform="rotate(0.81 435.66 285.649)" fill="#698F40" stroke="#698F40" stroke-width="1.99713"/>
<path d="M437.432 244.051C444.168 216.898 423.578 211.612 412.441 212.363C402.539 213.393 384.054 220.597 389.329 241.171" stroke="#698F40" stroke-width="1.99713"/>
<circle cx="7.11941" cy="7.11941" r="6.12085" transform="matrix(0.9999 -0.0141367 -0.0141367 -0.9999 383.277 253.719)" fill="#698F40" stroke="#698F40" stroke-width="1.99713"/>
<circle cx="7.11941" cy="7.11941" r="6.12085" transform="matrix(0.9999 -0.0141367 -0.0141367 -0.9999 426.014 254.891)" fill="#698F40" stroke="#698F40" stroke-width="1.99713"/>
<path d="M438.392 177.729C445.048 144.881 422.98 141.158 411.113 143.403C400.499 145.926 380.768 156.114 386.755 176.679" stroke="#698F40" stroke-width="1.99713"/>
<circle cx="7.11941" cy="7.11941" r="6.12085" transform="matrix(0.9999 -0.0141367 -0.0141367 -0.9999 430.56 190.305)" fill="#698F40" stroke="#698F40" stroke-width="1.99713"/>
<circle cx="7.11941" cy="7.11941" r="6.12085" transform="matrix(0.9999 -0.0141367 -0.0141367 -0.9999 381.773 189.465)" fill="#698F40" stroke="#698F40" stroke-width="1.99713"/>
<path d="M439.284 112.709C440.967 80.6436 420.307 77.0789 409.766 79.3047C399.869 79.4446 380.704 86.4799 383.223 113.502" stroke="#698F40" stroke-width="1.99713"/>
<circle cx="7.11941" cy="7.11941" r="6.12085" transform="matrix(0.9999 -0.0141367 -0.0141367 -0.9999 376.299 126.195)" fill="#698F40" stroke="#698F40" stroke-width="1.99713"/>
<circle cx="7.11941" cy="7.11941" r="6.12085" transform="matrix(0.9999 -0.0141367 -0.0141367 -0.9999 433.25 125.387)" fill="#698F40" stroke="#698F40" stroke-width="1.99713"/>
<path d="M433.028 52.9618C439.003 22.2598 419.196 18.4457 408.545 20.3763C399.326 19.0233 381.512 22.7166 384.01 48.3146" stroke="#698F40" stroke-width="1.99713"/>
<circle cx="7.11941" cy="7.11941" r="6.12085" transform="matrix(0.9999 -0.0141367 -0.0141367 -0.9999 425.185 64.6445)" fill="#698F40" stroke="#698F40" stroke-width="1.99713"/>
<circle cx="7.11941" cy="7.11941" r="6.12085" transform="matrix(0.9999 -0.0141367 -0.0141367 -0.9999 377.057 59.9883)" fill="#698F40" stroke="#698F40" stroke-width="1.99713"/>
<circle cx="407.565" cy="7.55572" r="6.12085" transform="rotate(0.813581 407.565 7.55572)" fill="#698F40" stroke="#698F40" stroke-width="1.99713"/>
<path d="M408.732 14.0078L409.788 65.6454L411.026 126.186L412.354 191.178L413.683 256.17L415.084 324.723L416.413 389.716L417.661 450.763L418.761 504.565L419.762 553.531" stroke="#698F40" stroke-width="1.99713"/>
<path d="M534.868 352.513C537.995 383.174 517.806 389.357 507.321 388.615C497.335 389.364 478.168 384.287 481.388 357.987" stroke="#698F40" stroke-width="1.99713"/>
<circle cx="534.038" cy="348.047" r="6.12085" transform="rotate(0.81 534.038 348.047)" fill="#698F40" stroke="#698F40" stroke-width="1.99713"/>
<circle cx="482.358" cy="352.661" r="6.12085" transform="rotate(0.81 482.358 352.661)" fill="#698F40" stroke="#698F40" stroke-width="1.99713"/>
<path d="M536.678 413.062C544.828 440.947 521.335 449.081 508.569 449.663C498.783 449.356 479.477 442.515 480.541 417.609" stroke="#698F40" stroke-width="1.99713"/>
<circle cx="481.495" cy="413.176" r="6.12085" transform="rotate(0.81 481.495 413.176)" fill="#698F40" stroke="#698F40" stroke-width="1.99713"/>
<circle cx="536.766" cy="406.837" r="6.12085" transform="rotate(0.81 536.766 406.837)" fill="#698F40" stroke="#698F40" stroke-width="1.99713"/>
<path d="M539.586 521.682C542.031 550.198 521.327 554.059 510.67 552.425C501.767 552.595 484.21 547.956 485.203 528.033" stroke="#698F40" stroke-width="1.99713"/>
<circle cx="485.266" cy="523.579" r="6.12085" transform="rotate(0.81 485.266 523.579)" fill="#698F40" stroke="#698F40" stroke-width="1.99713"/>
<circle cx="538.761" cy="517.215" r="6.12085" transform="rotate(0.81 538.761 517.215)" fill="#698F40" stroke="#698F40" stroke-width="1.99713"/>
<path d="M535.831 472.676C539.018 499.066 519.717 504.193 509.669 503.458C501.331 503.636 484.373 498.828 483.241 478.163" stroke="#698F40" stroke-width="1.99713"/>
<circle cx="482.441" cy="471.922" r="6.12085" transform="rotate(0.81 482.441 471.922)" fill="#698F40" stroke="#698F40" stroke-width="1.99713"/>
<circle cx="535.907" cy="467.333" r="6.12085" transform="rotate(0.81 535.907 467.333)" fill="#698F40" stroke="#698F40" stroke-width="1.99713"/>
<path d="M531.316 312.64C538.724 282.63 517.52 277.233 505.993 278.286C495.867 277.54 476.594 282.262 480.506 307.128" stroke="#698F40" stroke-width="1.99713"/>
<circle cx="7.11941" cy="7.11941" r="6.12085" transform="matrix(0.9999 -0.0141367 -0.0141367 -0.9999 474.415 317.012)" fill="#698F40" stroke="#698F40" stroke-width="1.99713"/>
<circle cx="7.11941" cy="7.11941" r="6.12085" transform="matrix(0.9999 -0.0141367 -0.0141367 -0.9999 520.791 323.473)" fill="#698F40" stroke="#698F40" stroke-width="1.99713"/>
<path d="M529.581 244.051C536.318 216.898 515.728 211.612 504.591 212.363C494.689 213.393 476.203 220.597 481.478 241.171" stroke="#698F40" stroke-width="1.99713"/>
<circle cx="7.11941" cy="7.11941" r="6.12085" transform="matrix(0.9999 -0.0141367 -0.0141367 -0.9999 475.427 253.719)" fill="#698F40" stroke="#698F40" stroke-width="1.99713"/>
<circle cx="7.11941" cy="7.11941" r="6.12085" transform="matrix(0.9999 -0.0141367 -0.0141367 -0.9999 518.163 254.891)" fill="#698F40" stroke="#698F40" stroke-width="1.99713"/>
<path d="M530.542 177.729C537.198 144.881 515.129 141.158 503.263 143.403C492.649 145.926 472.918 156.114 478.905 176.679" stroke="#698F40" stroke-width="1.99713"/>
<circle cx="7.11941" cy="7.11941" r="6.12085" transform="matrix(0.9999 -0.0141367 -0.0141367 -0.9999 522.709 190.305)" fill="#698F40" stroke="#698F40" stroke-width="1.99713"/>
<circle cx="7.11941" cy="7.11941" r="6.12085" transform="matrix(0.9999 -0.0141367 -0.0141367 -0.9999 473.923 189.465)" fill="#698F40" stroke="#698F40" stroke-width="1.99713"/>
<path d="M531.433 112.709C533.116 80.6436 512.456 77.0789 501.916 79.3047C492.019 79.4446 472.854 86.4799 475.372 113.502" stroke="#698F40" stroke-width="1.99713"/>
<circle cx="7.11941" cy="7.11941" r="6.12085" transform="matrix(0.9999 -0.0141367 -0.0141367 -0.9999 468.448 126.195)" fill="#698F40" stroke="#698F40" stroke-width="1.99713"/>
<circle cx="7.11941" cy="7.11941" r="6.12085" transform="matrix(0.9999 -0.0141367 -0.0141367 -0.9999 525.399 125.387)" fill="#698F40" stroke="#698F40" stroke-width="1.99713"/>
<path d="M525.178 52.9618C531.152 22.2598 511.345 18.4457 500.695 20.3763C491.476 19.0233 473.662 22.7166 476.16 48.3146" stroke="#698F40" stroke-width="1.99713"/>
<circle cx="7.11941" cy="7.11941" r="6.12085" transform="matrix(0.9999 -0.0141367 -0.0141367 -0.9999 517.334 64.6445)" fill="#698F40" stroke="#698F40" stroke-width="1.99713"/>
<circle cx="7.11941" cy="7.11941" r="6.12085" transform="matrix(0.9999 -0.0141367 -0.0141367 -0.9999 469.206 59.9883)" fill="#698F40" stroke="#698F40" stroke-width="1.99713"/>
<circle cx="499.715" cy="7.55572" r="6.12085" transform="rotate(0.813581 499.715 7.55572)" fill="#698F40" stroke="#698F40" stroke-width="1.99713"/>
<path d="M500.882 14.0078L501.937 65.6454L503.175 126.186L504.504 191.178L505.832 256.17L507.234 324.723L508.562 389.716L509.81 450.763L510.91 504.565L511.911 553.531" stroke="#698F40" stroke-width="1.99713"/>
<path d="M627.017 376.761C630.144 346.099 609.956 339.917 599.471 340.658C589.485 339.909 570.317 344.987 573.537 371.286" stroke="#698F40" stroke-width="1.99713"/>
<circle cx="7.11941" cy="7.11941" r="6.12085" transform="matrix(0.9999 -0.0141367 -0.0141367 -0.9999 619.169 388.445)" fill="#698F40" stroke="#698F40" stroke-width="1.99713"/>
<circle cx="7.11941" cy="7.11941" r="6.12085" transform="matrix(0.9999 -0.0141367 -0.0141367 -0.9999 567.489 383.832)" fill="#698F40" stroke="#698F40" stroke-width="1.99713"/>
<path d="M628.828 413.062C636.978 440.947 613.484 449.081 600.719 449.663C590.933 449.356 571.626 442.515 572.691 417.609" stroke="#698F40" stroke-width="1.99713"/>
<circle cx="573.644" cy="413.176" r="6.12085" transform="rotate(0.81 573.644 413.176)" fill="#698F40" stroke="#698F40" stroke-width="1.99713"/>
<circle cx="628.916" cy="406.837" r="6.12085" transform="rotate(0.81 628.916 406.837)" fill="#698F40" stroke="#698F40" stroke-width="1.99713"/>
<path d="M631.735 521.682C634.18 550.198 613.477 554.059 602.819 552.425C593.916 552.595 576.359 547.956 577.353 528.033" stroke="#698F40" stroke-width="1.99713"/>
<circle cx="577.416" cy="523.579" r="6.12085" transform="rotate(0.81 577.416 523.579)" fill="#698F40" stroke="#698F40" stroke-width="1.99713"/>
<circle cx="630.911" cy="517.215" r="6.12085" transform="rotate(0.81 630.911 517.215)" fill="#698F40" stroke="#698F40" stroke-width="1.99713"/>
<path d="M627.981 472.676C631.168 499.066 611.867 504.193 601.818 503.458C593.48 503.636 576.522 498.828 575.39 478.163" stroke="#698F40" stroke-width="1.99713"/>
<circle cx="574.59" cy="471.922" r="6.12085" transform="rotate(0.81 574.59 471.922)" fill="#698F40" stroke="#698F40" stroke-width="1.99713"/>
<circle cx="628.056" cy="467.333" r="6.12085" transform="rotate(0.81 628.056 467.333)" fill="#698F40" stroke="#698F40" stroke-width="1.99713"/>
<path d="M623.465 312.64C630.873 282.63 609.67 277.233 598.142 278.286C588.016 277.54 568.743 282.262 572.655 307.128" stroke="#698F40" stroke-width="1.99713"/>
<circle cx="7.11941" cy="7.11941" r="6.12085" transform="matrix(0.9999 -0.0141367 -0.0141367 -0.9999 566.564 317.012)" fill="#698F40" stroke="#698F40" stroke-width="1.99713"/>
<circle cx="7.11941" cy="7.11941" r="6.12085" transform="matrix(0.9999 -0.0141367 -0.0141367 -0.9999 612.94 323.473)" fill="#698F40" stroke="#698F40" stroke-width="1.99713"/>
<path d="M621.731 244.051C628.467 216.898 607.877 211.612 596.74 212.363C586.838 213.393 568.353 220.597 573.628 241.171" stroke="#698F40" stroke-width="1.99713"/>
<circle cx="7.11941" cy="7.11941" r="6.12085" transform="matrix(0.9999 -0.0141367 -0.0141367 -0.9999 567.576 253.719)" fill="#698F40" stroke="#698F40" stroke-width="1.99713"/>
<circle cx="7.11941" cy="7.11941" r="6.12085" transform="matrix(0.9999 -0.0141367 -0.0141367 -0.9999 610.312 254.891)" fill="#698F40" stroke="#698F40" stroke-width="1.99713"/>
<path d="M622.691 177.729C629.347 144.881 607.278 141.158 595.412 143.403C584.798 145.926 565.067 156.114 571.054 176.679" stroke="#698F40" stroke-width="1.99713"/>
<circle cx="7.11941" cy="7.11941" r="6.12085" transform="matrix(0.9999 -0.0141367 -0.0141367 -0.9999 614.858 190.305)" fill="#698F40" stroke="#698F40" stroke-width="1.99713"/>
<circle cx="7.11941" cy="7.11941" r="6.12085" transform="matrix(0.9999 -0.0141367 -0.0141367 -0.9999 566.072 189.465)" fill="#698F40" stroke="#698F40" stroke-width="1.99713"/>
<path d="M623.583 112.709C625.266 80.6436 604.606 77.0789 594.065 79.3047C584.168 79.4446 565.003 86.4799 567.521 113.502" stroke="#698F40" stroke-width="1.99713"/>
<circle cx="7.11941" cy="7.11941" r="6.12085" transform="matrix(0.9999 -0.0141367 -0.0141367 -0.9999 560.598 126.195)" fill="#698F40" stroke="#698F40" stroke-width="1.99713"/>
<circle cx="7.11941" cy="7.11941" r="6.12085" transform="matrix(0.9999 -0.0141367 -0.0141367 -0.9999 617.549 125.387)" fill="#698F40" stroke="#698F40" stroke-width="1.99713"/>
<path d="M617.327 52.9618C623.301 22.2598 603.494 18.4457 592.844 20.3763C583.625 19.0233 565.811 22.7166 568.309 48.3146" stroke="#698F40" stroke-width="1.99713"/>
<circle cx="7.11941" cy="7.11941" r="6.12085" transform="matrix(0.9999 -0.0141367 -0.0141367 -0.9999 609.483 64.6445)" fill="#698F40" stroke="#698F40" stroke-width="1.99713"/>
<circle cx="7.11941" cy="7.11941" r="6.12085" transform="matrix(0.9999 -0.0141367 -0.0141367 -0.9999 561.355 59.9883)" fill="#698F40" stroke="#698F40" stroke-width="1.99713"/>
<circle cx="591.864" cy="7.55572" r="6.12085" transform="rotate(0.813581 591.864 7.55572)" fill="#698F40" stroke="#698F40" stroke-width="1.99713"/>
<path d="M593.031 14.0078L594.087 65.6454L595.324 126.186L596.653 191.178L597.982 256.17L599.383 324.723L600.712 389.716L601.96 450.763L603.06 504.565L604.061 553.531" stroke="#698F40" stroke-width="1.99713"/>
<path d="M719.167 376.761C722.293 346.099 702.105 339.917 691.62 340.658C681.634 339.909 662.467 344.987 665.687 371.286" stroke="#698F40" stroke-width="1.99713"/>
<circle cx="7.11941" cy="7.11941" r="6.12085" transform="matrix(0.9999 -0.0141367 -0.0141367 -0.9999 711.318 388.445)" fill="#698F40" stroke="#698F40" stroke-width="1.99713"/>
<circle cx="7.11941" cy="7.11941" r="6.12085" transform="matrix(0.9999 -0.0141367 -0.0141367 -0.9999 659.639 383.832)" fill="#698F40" stroke="#698F40" stroke-width="1.99713"/>
<path d="M720.977 435.922C729.127 408.037 705.634 399.903 692.868 399.321C683.082 399.628 663.776 406.469 664.84 431.375" stroke="#698F40" stroke-width="1.99713"/>
<circle cx="7.11941" cy="7.11941" r="6.12085" transform="matrix(0.9999 -0.0141367 -0.0141367 -0.9999 658.775 443.027)" fill="#698F40" stroke="#698F40" stroke-width="1.99713"/>
<circle cx="7.11941" cy="7.11941" r="6.12085" transform="matrix(0.9999 -0.0141367 -0.0141367 -0.9999 714.047 449.367)" fill="#698F40" stroke="#698F40" stroke-width="1.99713"/>
<path d="M723.885 521.682C726.33 550.198 705.626 554.059 694.969 552.425C686.066 552.595 668.509 547.956 669.502 528.033" stroke="#698F40" stroke-width="1.99713"/>
<circle cx="669.565" cy="523.579" r="6.12085" transform="rotate(0.81 669.565 523.579)" fill="#698F40" stroke="#698F40" stroke-width="1.99713"/>
<circle cx="723.06" cy="517.215" r="6.12085" transform="rotate(0.81 723.06 517.215)" fill="#698F40" stroke="#698F40" stroke-width="1.99713"/>
<path d="M720.13 472.676C723.317 499.066 704.016 504.193 693.967 503.458C685.63 503.636 668.672 498.828 667.54 478.163" stroke="#698F40" stroke-width="1.99713"/>
<circle cx="666.74" cy="471.922" r="6.12085" transform="rotate(0.81 666.74 471.922)" fill="#698F40" stroke="#698F40" stroke-width="1.99713"/>
<circle cx="720.206" cy="467.333" r="6.12085" transform="rotate(0.81 720.206 467.333)" fill="#698F40" stroke="#698F40" stroke-width="1.99713"/>
<path d="M715.615 312.64C723.023 282.63 701.819 277.233 690.291 278.286C680.166 277.54 660.893 282.262 664.804 307.128" stroke="#698F40" stroke-width="1.99713"/>
<circle cx="7.11941" cy="7.11941" r="6.12085" transform="matrix(0.9999 -0.0141367 -0.0141367 -0.9999 658.714 317.012)" fill="#698F40" stroke="#698F40" stroke-width="1.99713"/>
<circle cx="7.11941" cy="7.11941" r="6.12085" transform="matrix(0.9999 -0.0141367 -0.0141367 -0.9999 705.09 323.473)" fill="#698F40" stroke="#698F40" stroke-width="1.99713"/>
<path d="M713.88 244.051C720.617 216.898 700.027 211.612 688.89 212.363C678.988 213.393 660.502 220.597 665.777 241.171" stroke="#698F40" stroke-width="1.99713"/>
<circle cx="7.11941" cy="7.11941" r="6.12085" transform="matrix(0.9999 -0.0141367 -0.0141367 -0.9999 659.726 253.719)" fill="#698F40" stroke="#698F40" stroke-width="1.99713"/>
<circle cx="7.11941" cy="7.11941" r="6.12085" transform="matrix(0.9999 -0.0141367 -0.0141367 -0.9999 702.462 254.891)" fill="#698F40" stroke="#698F40" stroke-width="1.99713"/>
<path d="M714.841 177.729C721.496 144.881 699.428 141.158 687.562 143.403C676.948 145.926 657.217 156.114 663.204 176.679" stroke="#698F40" stroke-width="1.99713"/>
<circle cx="7.11941" cy="7.11941" r="6.12085" transform="matrix(0.9999 -0.0141367 -0.0141367 -0.9999 707.008 190.305)" fill="#698F40" stroke="#698F40" stroke-width="1.99713"/>
<circle cx="7.11941" cy="7.11941" r="6.12085" transform="matrix(0.9999 -0.0141367 -0.0141367 -0.9999 658.222 189.465)" fill="#698F40" stroke="#698F40" stroke-width="1.99713"/>
<path d="M715.732 112.709C717.415 80.6436 696.755 77.0789 686.215 79.3047C676.317 79.4446 657.153 86.4799 659.671 113.502" stroke="#698F40" stroke-width="1.99713"/>
<circle cx="7.11941" cy="7.11941" r="6.12085" transform="matrix(0.9999 -0.0141367 -0.0141367 -0.9999 652.747 126.195)" fill="#698F40" stroke="#698F40" stroke-width="1.99713"/>
<circle cx="7.11941" cy="7.11941" r="6.12085" transform="matrix(0.9999 -0.0141367 -0.0141367 -0.9999 709.698 125.387)" fill="#698F40" stroke="#698F40" stroke-width="1.99713"/>
<path d="M709.477 52.9618C715.451 22.2598 695.644 18.4457 684.994 20.3763C675.774 19.0233 657.961 22.7166 660.459 48.3146" stroke="#698F40" stroke-width="1.99713"/>
<circle cx="7.11941" cy="7.11941" r="6.12085" transform="matrix(0.9999 -0.0141367 -0.0141367 -0.9999 701.633 64.6445)" fill="#698F40" stroke="#698F40" stroke-width="1.99713"/>
<circle cx="7.11941" cy="7.11941" r="6.12085" transform="matrix(0.9999 -0.0141367 -0.0141367 -0.9999 653.505 59.9883)" fill="#698F40" stroke="#698F40" stroke-width="1.99713"/>
<circle cx="684.014" cy="7.55572" r="6.12085" transform="rotate(0.813581 684.014 7.55572)" fill="#698F40" stroke="#698F40" stroke-width="1.99713"/>
<path d="M685.181 14.0078L686.236 65.6454L687.474 126.186L688.803 191.178L690.131 256.17L691.533 324.723L692.861 389.716L694.109 450.763L695.209 504.565L696.21 553.531" stroke="#698F40" stroke-width="1.99713"/>
<path d="M811.316 376.761C814.443 346.099 794.254 339.917 783.77 340.658C773.783 339.909 754.616 344.987 757.836 371.286" stroke="#698F40" stroke-width="1.99713"/>
<circle cx="7.11941" cy="7.11941" r="6.12085" transform="matrix(0.9999 -0.0141367 -0.0141367 -0.9999 803.468 388.445)" fill="#698F40" stroke="#698F40" stroke-width="1.99713"/>
<circle cx="7.11941" cy="7.11941" r="6.12085" transform="matrix(0.9999 -0.0141367 -0.0141367 -0.9999 751.788 383.832)" fill="#698F40" stroke="#698F40" stroke-width="1.99713"/>
<path d="M813.127 435.922C821.277 408.037 797.783 399.903 785.018 399.321C775.232 399.628 755.925 406.469 756.989 431.375" stroke="#698F40" stroke-width="1.99713"/>
<circle cx="7.11941" cy="7.11941" r="6.12085" transform="matrix(0.9999 -0.0141367 -0.0141367 -0.9999 750.925 443.027)" fill="#698F40" stroke="#698F40" stroke-width="1.99713"/>
<circle cx="7.11941" cy="7.11941" r="6.12085" transform="matrix(0.9999 -0.0141367 -0.0141367 -0.9999 806.196 449.367)" fill="#698F40" stroke="#698F40" stroke-width="1.99713"/>
<path d="M816.034 521.682C818.479 550.198 797.776 554.059 787.118 552.425C778.215 552.595 760.658 547.956 761.652 528.033" stroke="#698F40" stroke-width="1.99713"/>
<circle cx="761.714" cy="523.579" r="6.12085" transform="rotate(0.81 761.714 523.579)" fill="#698F40" stroke="#698F40" stroke-width="1.99713"/>
<circle cx="815.209" cy="517.215" r="6.12085" transform="rotate(0.81 815.209 517.215)" fill="#698F40" stroke="#698F40" stroke-width="1.99713"/>
<path d="M812.279 490.652C815.466 464.262 796.166 459.135 786.117 459.871C777.779 459.692 760.821 464.5 759.689 485.165" stroke="#698F40" stroke-width="1.99713"/>
<circle cx="7.11941" cy="7.11941" r="6.12085" transform="matrix(0.9999 -0.0141367 -0.0141367 -0.9999 751.871 498.625)" fill="#698F40" stroke="#698F40" stroke-width="1.99713"/>
<circle cx="7.11941" cy="7.11941" r="6.12085" transform="matrix(0.9999 -0.0141367 -0.0141367 -0.9999 805.337 503.215)" fill="#698F40" stroke="#698F40" stroke-width="1.99713"/>
<path d="M807.764 312.64C815.172 282.63 793.969 277.233 782.441 278.286C772.315 277.54 753.042 282.262 756.954 307.128" stroke="#698F40" stroke-width="1.99713"/>
<circle cx="7.11941" cy="7.11941" r="6.12085" transform="matrix(0.9999 -0.0141367 -0.0141367 -0.9999 750.863 317.012)" fill="#698F40" stroke="#698F40" stroke-width="1.99713"/>
<circle cx="7.11941" cy="7.11941" r="6.12085" transform="matrix(0.9999 -0.0141367 -0.0141367 -0.9999 797.239 323.473)" fill="#698F40" stroke="#698F40" stroke-width="1.99713"/>
<path d="M806.029 244.051C812.766 216.898 792.176 211.612 781.039 212.363C771.137 213.393 752.651 220.597 757.926 241.171" stroke="#698F40" stroke-width="1.99713"/>
<circle cx="7.11941" cy="7.11941" r="6.12085" transform="matrix(0.9999 -0.0141367 -0.0141367 -0.9999 751.875 253.719)" fill="#698F40" stroke="#698F40" stroke-width="1.99713"/>
<circle cx="7.11941" cy="7.11941" r="6.12085" transform="matrix(0.9999 -0.0141367 -0.0141367 -0.9999 794.611 254.891)" fill="#698F40" stroke="#698F40" stroke-width="1.99713"/>
<path d="M806.99 177.729C813.646 144.881 791.577 141.158 779.711 143.403C769.097 145.926 749.366 156.114 755.353 176.679" stroke="#698F40" stroke-width="1.99713"/>
<circle cx="7.11941" cy="7.11941" r="6.12085" transform="matrix(0.9999 -0.0141367 -0.0141367 -0.9999 799.157 190.305)" fill="#698F40" stroke="#698F40" stroke-width="1.99713"/>
<circle cx="7.11941" cy="7.11941" r="6.12085" transform="matrix(0.9999 -0.0141367 -0.0141367 -0.9999 750.371 189.465)" fill="#698F40" stroke="#698F40" stroke-width="1.99713"/>
<path d="M807.882 112.709C809.564 80.6436 788.904 77.0789 778.364 79.3047C768.467 79.4446 749.302 86.4799 751.82 113.502" stroke="#698F40" stroke-width="1.99713"/>
<circle cx="7.11941" cy="7.11941" r="6.12085" transform="matrix(0.9999 -0.0141367 -0.0141367 -0.9999 744.896 126.195)" fill="#698F40" stroke="#698F40" stroke-width="1.99713"/>
<circle cx="7.11941" cy="7.11941" r="6.12085" transform="matrix(0.9999 -0.0141367 -0.0141367 -0.9999 801.848 125.387)" fill="#698F40" stroke="#698F40" stroke-width="1.99713"/>
<path d="M801.626 52.9618C807.6 22.2598 787.793 18.4457 777.143 20.3763C767.924 19.0233 750.11 22.7166 752.608 48.3146" stroke="#698F40" stroke-width="1.99713"/>
<circle cx="7.11941" cy="7.11941" r="6.12085" transform="matrix(0.9999 -0.0141367 -0.0141367 -0.9999 793.782 64.6445)" fill="#698F40" stroke="#698F40" stroke-width="1.99713"/>
<circle cx="7.11941" cy="7.11941" r="6.12085" transform="matrix(0.9999 -0.0141367 -0.0141367 -0.9999 745.654 59.9883)" fill="#698F40" stroke="#698F40" stroke-width="1.99713"/>
<circle cx="776.163" cy="7.55572" r="6.12085" transform="rotate(0.813581 776.163 7.55572)" fill="#698F40" stroke="#698F40" stroke-width="1.99713"/>
<path d="M777.33 14.0078L778.386 65.6454L779.623 126.186L780.952 191.178L782.281 256.17L783.682 324.723L785.011 389.716L786.259 450.763L787.358 504.565L788.359 553.531" stroke="#698F40" stroke-width="1.99713"/>
<path d="M903.466 376.761C906.593 346.099 886.405 339.917 875.92 340.658C865.934 339.909 846.766 344.987 849.986 371.286" stroke="#698F40" stroke-width="1.99713"/>
<circle cx="7.11941" cy="7.11941" r="6.12085" transform="matrix(0.9999 -0.0141367 -0.0141367 -0.9999 895.618 388.445)" fill="#698F40" stroke="#698F40" stroke-width="1.99713"/>
<circle cx="7.11941" cy="7.11941" r="6.12085" transform="matrix(0.9999 -0.0141367 -0.0141367 -0.9999 843.938 383.832)" fill="#698F40" stroke="#698F40" stroke-width="1.99713"/>
<path d="M905.277 435.922C913.427 408.037 889.934 399.903 877.168 399.321C867.382 399.628 848.076 406.469 849.14 431.375" stroke="#698F40" stroke-width="1.99713"/>
<circle cx="7.11941" cy="7.11941" r="6.12085" transform="matrix(0.9999 -0.0141367 -0.0141367 -0.9999 843.075 443.027)" fill="#698F40" stroke="#698F40" stroke-width="1.99713"/>
<circle cx="7.11941" cy="7.11941" r="6.12085" transform="matrix(0.9999 -0.0141367 -0.0141367 -0.9999 898.347 449.367)" fill="#698F40" stroke="#698F40" stroke-width="1.99713"/>
<path d="M908.185 540.74C910.63 512.224 889.926 508.363 879.269 509.997C870.366 509.827 852.808 514.466 853.802 534.389" stroke="#698F40" stroke-width="1.99713"/>
<circle cx="7.11941" cy="7.11941" r="6.12085" transform="matrix(0.9999 -0.0141367 -0.0141367 -0.9999 846.847 546.062)" fill="#698F40" stroke="#698F40" stroke-width="1.99713"/>
<circle cx="7.11941" cy="7.11941" r="6.12085" transform="matrix(0.9999 -0.0141367 -0.0141367 -0.9999 900.342 552.426)" fill="#698F40" stroke="#698F40" stroke-width="1.99713"/>
<path d="M904.43 490.652C907.617 464.262 888.316 459.135 878.267 459.871C869.93 459.692 852.972 464.5 851.84 485.165" stroke="#698F40" stroke-width="1.99713"/>
<circle cx="7.11941" cy="7.11941" r="6.12085" transform="matrix(0.9999 -0.0141367 -0.0141367 -0.9999 844.021 498.625)" fill="#698F40" stroke="#698F40" stroke-width="1.99713"/>
<circle cx="7.11941" cy="7.11941" r="6.12085" transform="matrix(0.9999 -0.0141367 -0.0141367 -0.9999 897.487 503.215)" fill="#698F40" stroke="#698F40" stroke-width="1.99713"/>
<path d="M899.915 312.64C907.323 282.63 886.119 277.233 874.591 278.286C864.466 277.54 845.192 282.262 849.104 307.128" stroke="#698F40" stroke-width="1.99713"/>
<circle cx="7.11941" cy="7.11941" r="6.12085" transform="matrix(0.9999 -0.0141367 -0.0141367 -0.9999 843.014 317.012)" fill="#698F40" stroke="#698F40" stroke-width="1.99713"/>
<circle cx="7.11941" cy="7.11941" r="6.12085" transform="matrix(0.9999 -0.0141367 -0.0141367 -0.9999 889.39 323.473)" fill="#698F40" stroke="#698F40" stroke-width="1.99713"/>
<path d="M898.18 244.051C904.916 216.898 884.327 211.612 873.19 212.363C863.287 213.393 844.802 220.597 850.077 241.171" stroke="#698F40" stroke-width="1.99713"/>
<circle cx="7.11941" cy="7.11941" r="6.12085" transform="matrix(0.9999 -0.0141367 -0.0141367 -0.9999 844.025 253.719)" fill="#698F40" stroke="#698F40" stroke-width="1.99713"/>
<circle cx="7.11941" cy="7.11941" r="6.12085" transform="matrix(0.9999 -0.0141367 -0.0141367 -0.9999 886.762 254.891)" fill="#698F40" stroke="#698F40" stroke-width="1.99713"/>
<path d="M899.14 177.729C905.796 144.881 883.728 141.158 871.861 143.403C861.247 145.926 841.516 156.114 847.503 176.679" stroke="#698F40" stroke-width="1.99713"/>
<circle cx="7.11941" cy="7.11941" r="6.12085" transform="matrix(0.9999 -0.0141367 -0.0141367 -0.9999 891.308 190.305)" fill="#698F40" stroke="#698F40" stroke-width="1.99713"/>
<circle cx="7.11941" cy="7.11941" r="6.12085" transform="matrix(0.9999 -0.0141367 -0.0141367 -0.9999 842.521 189.465)" fill="#698F40" stroke="#698F40" stroke-width="1.99713"/>
<path d="M900.032 112.709C901.715 80.6436 881.055 77.0789 870.514 79.3047C860.617 79.4446 841.452 86.4799 843.971 113.502" stroke="#698F40" stroke-width="1.99713"/>
<circle cx="7.11941" cy="7.11941" r="6.12085" transform="matrix(0.9999 -0.0141367 -0.0141367 -0.9999 837.047 126.195)" fill="#698F40" stroke="#698F40" stroke-width="1.99713"/>
<circle cx="7.11941" cy="7.11941" r="6.12085" transform="matrix(0.9999 -0.0141367 -0.0141367 -0.9999 893.998 125.387)" fill="#698F40" stroke="#698F40" stroke-width="1.99713"/>
<path d="M893.776 52.9618C899.751 22.2598 879.944 18.4457 869.293 20.3763C860.074 19.0233 842.26 22.7166 844.758 48.3146" stroke="#698F40" stroke-width="1.99713"/>
<circle cx="7.11941" cy="7.11941" r="6.12085" transform="matrix(0.9999 -0.0141367 -0.0141367 -0.9999 885.933 64.6445)" fill="#698F40" stroke="#698F40" stroke-width="1.99713"/>
<circle cx="7.11941" cy="7.11941" r="6.12085" transform="matrix(0.9999 -0.0141367 -0.0141367 -0.9999 837.805 59.9883)" fill="#698F40" stroke="#698F40" stroke-width="1.99713"/>
<circle cx="868.313" cy="7.55572" r="6.12085" transform="rotate(0.813581 868.313 7.55572)" fill="#698F40" stroke="#698F40" stroke-width="1.99713"/>
<path d="M869.48 14.0078L870.536 65.6454L871.774 126.186L873.102 191.178L874.431 256.17L875.832 324.723L877.161 389.716L878.409 450.763L879.509 504.565L880.51 553.531" stroke="#698F40" stroke-width="1.99713"/>
</svg>
