<svg width="70" height="416" viewBox="0 0 70 416" fill="none" xmlns="http://www.w3.org/2000/svg">
<path d="M28.9176 10.0452L29.7094 48.7733M37.1897 414.688C45.1826 415.914 60.7105 413.019 58.8781 391.632M37.1897 414.688C30.5125 414.815 17.3448 411.335 18.091 396.393M37.1897 414.688L36.4389 377.963M36.4389 377.963C43.9755 378.515 58.4514 374.671 56.0623 354.878M36.4389 377.963C30.1857 378.096 17.4674 374.489 16.6195 358.99M36.4389 377.963L35.614 337.611M35.614 337.611C45.1882 337.175 62.8087 331.076 56.6973 310.162M35.614 337.611C28.2744 337.38 13.7951 332.249 14.5944 313.569M35.614 337.611L34.678 291.826M34.678 291.826C42.5417 292.383 57.6832 287.747 55.3396 264.75M34.678 291.826C27.1884 292.387 12.8131 288.578 15.2293 268.854M34.678 291.826L33.6816 243.082M33.6816 243.082C42.3274 243.872 58.2303 239.826 52.6756 217.318M33.6816 243.082C26.0873 243.642 11.6326 240.099 14.5676 221.449M33.6816 243.082L32.6305 191.667M32.6305 191.667C40.9832 192.23 56.4258 188.267 51.3747 167.902M32.6305 191.667C25.2039 190.894 11.3401 185.49 15.2973 170.06M32.6305 191.667L31.634 142.923M31.634 142.923C40.5337 144.607 57.0853 141.816 52.095 117.18M31.634 142.923C23.6737 141.03 8.87588 133.388 13.3671 117.965M31.634 142.923L30.6376 94.1787M30.6376 94.1787C38.5427 95.8486 54.0379 93.176 52.7774 69.1269M30.6376 94.1787C23.2147 94.0733 8.84146 88.796 10.7313 68.5298M30.6376 94.1787L29.7094 48.7733M29.7094 48.7733C37.697 50.2218 52.5524 47.3621 48.0731 24.3354M29.7094 48.7733C22.795 49.7877 9.43483 47.0168 11.3095 27.8185" stroke="#698F40" stroke-width="1.49785"/>
<circle cx="28.9741" cy="6.03984" r="4.59063" transform="rotate(0.813581 28.9741 6.03984)" fill="#698F40" stroke="#698F40" stroke-width="1.49785"/>
<circle cx="47.4527" cy="20.9891" r="4.59063" transform="rotate(0.813581 47.4527 20.9891)" fill="#698F40" stroke="#698F40" stroke-width="1.49785"/>
<circle cx="11.357" cy="24.4812" r="4.59063" transform="rotate(0.813581 11.357 24.4812)" fill="#698F40" stroke="#698F40" stroke-width="1.49785"/>
<circle cx="10.7886" cy="64.5281" r="4.59063" transform="rotate(0.813581 10.7886 64.5281)" fill="#698F40" stroke="#698F40" stroke-width="1.49785"/>
<circle cx="53.5015" cy="65.1336" r="4.59063" transform="rotate(0.813581 53.5015 65.1336)" fill="#698F40" stroke="#698F40" stroke-width="1.49785"/>
<circle cx="51.4839" cy="113.165" r="4.59063" transform="rotate(0.813581 51.4839 113.165)" fill="#698F40" stroke="#698F40" stroke-width="1.49785"/>
<circle cx="15.4448" cy="112.657" r="4.59063" transform="rotate(0.813581 15.4448 112.657)" fill="#698F40" stroke="#698F40" stroke-width="1.49785"/>
<circle cx="16.023" cy="166.067" r="4.59063" transform="rotate(0.813581 16.023 166.067)" fill="#698F40" stroke="#698F40" stroke-width="1.49785"/>
<circle cx="15.2632" cy="219.458" r="4.59063" transform="rotate(0.813581 15.2632 219.458)" fill="#698F40" stroke="#698F40" stroke-width="1.49785"/>
<circle cx="48.0757" cy="165.188" r="4.59063" transform="rotate(0.813581 48.0757 165.188)" fill="#698F40" stroke="#698F40" stroke-width="1.49785"/>
<circle cx="50.0445" cy="214.614" r="4.59063" transform="rotate(0.813581 50.0445 214.614)" fill="#698F40" stroke="#698F40" stroke-width="1.49785"/>
<circle cx="54.7183" cy="261.407" r="4.59063" transform="rotate(0.813581 54.7183 261.407)" fill="#698F40" stroke="#698F40" stroke-width="1.49785"/>
<circle cx="15.9546" cy="264.86" r="4.59063" transform="rotate(0.813581 15.9546 264.86)" fill="#698F40" stroke="#698F40" stroke-width="1.49785"/>
<circle cx="15.3101" cy="310.239" r="4.59063" transform="rotate(0.813581 15.3101 310.239)" fill="#698F40" stroke="#698F40" stroke-width="1.49785"/>
<circle cx="56.7632" cy="305.493" r="4.59063" transform="rotate(0.813581 56.7632 305.493)" fill="#698F40" stroke="#698F40" stroke-width="1.49785"/>
<circle cx="16.0191" cy="354.309" r="4.59063" transform="rotate(0.813581 16.0191 354.309)" fill="#698F40" stroke="#698F40" stroke-width="1.49785"/>
<circle cx="18.1382" cy="393.059" r="4.59063" transform="rotate(0.813581 18.1382 393.059)" fill="#698F40" stroke="#698F40" stroke-width="1.49785"/>
<circle cx="58.2593" cy="388.286" r="4.59063" transform="rotate(0.813581 58.2593 388.286)" fill="#698F40" stroke="#698F40" stroke-width="1.49785"/>
<circle cx="56.1167" cy="350.872" r="4.59063" transform="rotate(0.813581 56.1167 350.872)" fill="#698F40" stroke="#698F40" stroke-width="1.49785"/>
</svg>
