<svg width="144" height="223" viewBox="0 0 144 223" fill="none" xmlns="http://www.w3.org/2000/svg">
<path d="M24.5014 102.752C24.5014 88.5299 8.52922 87.9373 0.543105 89.4188C1.394 102.998 13.6392 111.819 24.5014 116.46V102.752Z" fill="#73628A"/>
<path d="M48.6802 14.7218C43.0019 23.6728 31.187 40.5376 20.2141 50.513C19.5191 51.1448 18.8453 51.7889 18.1923 52.4428C24.7397 57.361 40.501 65.4195 51.1673 58.3086C76.0555 40.5314 59.8793 21.8436 48.6802 14.7218Z" fill="#73628A"/>
<path d="M111.473 43.8957C107.667 50.1814 103.61 64.5306 117.832 71.6415C132.054 78.7524 136.345 72.4921 136.713 68.4731C129.873 58.5645 119.305 50.1317 111.473 43.8957Z" fill="#73628A"/>
<path d="M33.7544 119.571L101.458 118.217C113.194 117.765 135.581 114.966 142.08 96.551C145.657 86.4185 142.537 76.9108 136.713 68.4731C136.345 72.4921 132.054 78.7524 117.832 71.6415C103.61 64.5306 107.667 50.1814 111.473 43.8957L111.378 43.82C110.762 43.3288 110.162 42.8514 109.583 42.3881C96.0421 31.5556 89.2717 16.6612 74.3769 4.47458C62.4611 -5.27473 53.1632 5.82865 50.0037 12.599C49.6108 13.2419 49.1681 13.9527 48.6802 14.7218C59.8793 21.8436 76.0555 40.5314 51.1673 58.3086C40.501 65.4195 24.7397 57.361 18.1923 52.4428C7.6496 63.0012 2.53214 76.1312 1.25703 81.6566C0.604075 84.399 0.390615 86.9853 0.543105 89.4188C8.52922 87.9373 24.5014 88.5299 24.5014 102.752V116.46C27.8401 117.886 31.0481 118.917 33.7544 119.571Z" fill="#CBC5EA"/>
<path d="M33.7544 119.571C26.0814 129.5 13.4437 148.006 35.1085 143.944C40.5251 141.236 48.3798 132.84 52.7121 137.174C56.3228 141.687 64.6276 150.443 68.9606 149.36C74.3769 148.006 82.5007 141.236 86.5632 138.528C93.3337 144.395 107.958 153.964 112.291 145.298C116.624 136.632 106.875 123.633 101.458 118.217L33.7544 119.571Z" fill="#73628A"/>
<path d="M52.7121 137.174C50.0039 147.103 41.8795 169.942 31.047 181.858C17.5062 196.753 25.6301 222.48 52.7121 222.48C64.8981 222.48 92.2504 224.917 104.166 213.002C119.061 198.107 105.52 176.442 93.3336 162.901C83.5843 152.068 84.7578 142.138 86.5632 138.528C82.5007 141.236 74.3769 148.006 68.9606 149.36C64.6276 150.443 56.3228 141.687 52.7121 137.174Z" fill="#EAEAEA"/>
<path d="M71.6044 49.5215C73.6355 45.4594 81.4176 39.1362 87.9171 47.8022C96.0416 58.6346 67.5422 57.6459 71.6044 49.5215Z" fill="#73628A"/>
<path d="M116.044 98.413C116.044 94.3508 122.656 87.5799 131.322 92.9962C142.154 99.7665 114.69 107.892 116.044 98.413Z" fill="#73628A"/>
<path d="M68.9602 82.9997C70.7656 75.3266 77.6262 63.2302 90.6253 76.2293C106.874 92.4782 63.5439 106.018 68.9602 82.9997Z" fill="#73628A"/>
<path d="M39.1651 73.5265C38.7137 79.3941 39.9775 89.5045 48.6436 83.005C59.4761 74.8805 40.5189 64.048 39.1651 73.5265Z" fill="#73628A"/>
<path d="M56.7726 108.732C58.269 116.182 68.9592 117.939 68.9592 106.023C68.9592 91.1286 55.0989 100.398 56.7726 108.732Z" fill="#73628A"/>
<path d="M68.8371 17.0787C69.7393 13.4678 74.0018 9.74892 80.4981 18.415C88.6186 29.2476 67.484 22.4955 68.8371 17.0787Z" fill="#73628A"/>
</svg>
