<svg width="109" height="167" viewBox="0 0 109 167" fill="none" xmlns="http://www.w3.org/2000/svg">
<path d="M18.9352 76.9529C18.9352 66.3019 6.97323 65.8581 0.992239 66.9676C1.62949 77.1371 10.8002 83.7435 18.9352 87.219V76.9529Z" fill="#73628A"/>
<path d="M37.0433 11.0252C32.7907 17.7288 23.9422 30.3593 15.7243 37.8301C15.2038 38.3033 14.6992 38.7857 14.2102 39.2754C19.1136 42.9587 30.9176 48.9939 38.9059 43.6684C57.5453 30.3546 45.4305 16.3589 37.0433 11.0252Z" fill="#73628A"/>
<path d="M84.0706 32.8742C81.22 37.5818 78.1816 48.3282 88.8327 53.6538C99.4837 58.9793 102.697 54.2908 102.973 51.2808C97.8507 43.8601 89.936 37.5445 84.0706 32.8742Z" fill="#73628A"/>
<path d="M25.865 89.549L76.57 88.5349C85.3589 88.1968 102.125 86.1007 106.993 72.309C109.671 64.7206 107.335 57.6 102.973 51.2808C102.697 54.2908 99.4837 58.9793 88.8327 53.6538C78.1816 48.3282 81.22 37.5818 84.0706 32.8742L83.9994 32.8175C83.5374 32.4497 83.0884 32.0922 82.6547 31.7452C72.5137 23.6324 67.4432 12.4777 56.2882 3.35083C47.3641 -3.95066 40.4007 4.36493 38.0344 9.43541C37.7402 9.9169 37.4087 10.4492 37.0433 11.0252C45.4305 16.3589 57.5453 30.3546 38.9059 43.6684C30.9176 48.9939 19.1136 42.9587 14.2102 39.2754C6.31447 47.1828 2.48188 57.0162 1.52691 61.1543C1.0379 63.2082 0.878036 65.1451 0.992239 66.9676C6.97323 65.8581 18.9352 66.3019 18.9352 76.9529V87.219C21.4356 88.2873 23.8382 89.0598 25.865 89.549Z" fill="#CBC5EA"/>
<path d="M25.865 89.549C20.1185 96.9857 10.6538 110.845 26.8791 107.803C30.9357 105.775 36.8183 99.4872 40.0628 102.732C42.767 106.113 48.9866 112.67 52.2317 111.859C56.2881 110.845 62.3723 105.775 65.4148 103.746C70.4853 108.141 81.4377 115.307 84.6828 108.817C87.9279 102.327 80.6264 92.5913 76.57 88.5349L25.865 89.549Z" fill="#73628A"/>
<path d="M40.0628 102.732C38.0347 110.169 31.9501 127.273 23.8373 136.197C13.6963 147.353 19.7805 166.62 40.0628 166.62C49.1892 166.62 69.674 168.446 78.5981 159.522C89.7531 148.367 79.6121 132.141 70.4852 122C63.1838 113.887 64.0626 106.451 65.4148 103.746C62.3723 105.775 56.2881 110.845 52.2317 111.859C48.9866 112.67 42.767 106.113 40.0628 102.732Z" fill="#EAEAEA"/>
<path d="M54.2111 37.0868C55.7323 34.0446 61.5605 29.3089 66.4282 35.7991C72.5127 43.9118 51.1689 43.1713 54.2111 37.0868Z" fill="#73628A"/>
<path d="M87.4928 73.7031C87.4928 70.6608 92.4445 65.5899 98.9347 69.6463C107.047 74.7168 86.4787 80.8021 87.4928 73.7031Z" fill="#73628A"/>
<path d="M52.2323 62.1601C53.5845 56.4136 58.7225 47.3543 68.4579 57.0897C80.627 69.2588 48.1759 79.3994 52.2323 62.1601Z" fill="#73628A"/>
<path d="M29.9167 55.0647C29.5786 59.4591 30.5251 67.0311 37.0154 62.1634C45.1281 56.0788 30.9306 47.966 29.9167 55.0647Z" fill="#73628A"/>
<path d="M43.1047 81.4298C44.2254 87.0098 52.2316 88.3257 52.2316 79.4016C52.2316 68.2466 41.8512 75.1889 43.1047 81.4298Z" fill="#73628A"/>
<path d="M52.1399 12.791C52.8157 10.0868 56.0079 7.30163 60.8732 13.7919C66.9548 21.9046 51.1266 16.8478 52.1399 12.791Z" fill="#73628A"/>
</svg>
