<svg width="144" height="223" viewBox="0 0 144 223" fill="none" xmlns="http://www.w3.org/2000/svg">
<path d="M24.7541 102.355C24.7541 88.1538 8.80481 87.5621 0.830147 89.0414C1.67982 102.601 13.9075 111.409 24.7541 116.043V102.355Z" fill="#73628A"/>
<path d="M48.8982 14.4516C43.2281 23.3898 31.4301 40.2304 20.4729 50.1914C19.7789 50.8224 19.1061 51.4655 18.454 52.1185C24.992 57.0296 40.7307 65.0766 51.3817 57.9759C76.2342 40.2241 60.0812 21.5632 48.8982 14.4516Z" fill="#73628A"/>
<path d="M111.601 43.5836C107.801 49.8603 103.749 64.189 117.951 71.2897C132.152 78.3904 136.437 72.139 136.804 68.1258C129.975 58.2314 119.422 49.8107 111.601 43.5836Z" fill="#73628A"/>
<path d="M33.9938 119.15L101.601 117.798C113.319 117.347 135.674 114.552 142.164 96.1634C145.736 86.0455 142.62 76.5513 136.804 68.1258C136.437 72.139 132.152 78.3904 117.951 71.2897C103.749 64.189 107.801 49.8603 111.601 43.5836L111.506 43.508C110.89 43.0176 110.292 42.5409 109.713 42.0782C96.1921 31.2612 89.4315 16.3882 74.5581 4.21908C62.6593 -5.51625 53.3747 5.5712 50.2197 12.3318C49.8274 12.9738 49.3854 13.6836 48.8982 14.4516C60.0812 21.5632 76.2342 40.2241 51.3817 57.9759C40.7307 65.0766 24.992 57.0296 18.454 52.1185C7.92645 62.6618 2.81633 75.7729 1.54304 81.2904C0.891029 84.0289 0.677876 86.6114 0.830147 89.0414C8.80481 87.5621 24.7541 88.1538 24.7541 102.355V116.043C28.088 117.468 31.2914 118.498 33.9938 119.15Z" fill="#CBC5EA"/>
<path d="M33.9938 119.15C26.3318 129.066 13.7122 147.545 35.346 143.488C40.7548 140.784 48.5983 132.401 52.9243 136.728C56.5299 141.235 64.8227 149.979 69.1495 148.897C74.558 147.545 82.6702 140.784 86.7269 138.08C93.4876 143.939 108.091 153.494 112.418 144.84C116.744 136.187 107.009 123.206 101.601 117.798L33.9938 119.15Z" fill="#73628A"/>
<path d="M52.9243 136.728C50.22 146.643 42.1073 169.449 31.2902 181.348C17.769 196.221 25.8811 221.912 52.9243 221.912C65.0928 221.912 92.4059 224.346 104.305 212.447C119.178 197.573 105.657 175.939 93.4875 162.418C83.7522 151.601 84.924 141.685 86.7269 138.08C82.6702 140.784 74.558 147.545 69.1495 148.897C64.8227 149.979 56.5299 141.235 52.9243 136.728Z" fill="#EAEAEA"/>
<path d="M71.7874 49.2003C73.8156 45.1441 81.5865 38.8299 88.0767 47.4834C96.1895 58.3004 67.731 57.3131 71.7874 49.2003Z" fill="#73628A"/>
<path d="M116.165 98.0234C116.165 93.967 122.767 87.2059 131.421 92.6144C142.238 99.375 114.813 107.489 116.165 98.0234Z" fill="#73628A"/>
<path d="M69.149 82.6341C70.9518 74.972 77.8026 62.893 90.783 75.8734C107.009 92.099 63.7404 105.62 69.149 82.6341Z" fill="#73628A"/>
<path d="M39.3974 73.1696C38.9467 79.0288 40.2086 89.1247 48.8623 82.6345C59.6793 74.5217 40.7493 63.7047 39.3974 73.1696Z" fill="#73628A"/>
<path d="M56.9775 108.326C58.4717 115.766 69.1466 117.52 69.1466 105.621C69.1466 90.748 55.3062 100.004 56.9775 108.326Z" fill="#73628A"/>
<path d="M69.0264 16.8073C69.9274 13.2016 74.1837 9.48811 80.6708 18.1417C88.7796 28.9588 67.6753 22.2164 69.0264 16.8073Z" fill="#73628A"/>
</svg>
