<svg width="174" height="445" viewBox="0 0 174 445" fill="none" xmlns="http://www.w3.org/2000/svg">
<path d="M105.359 339.719C112.358 329.921 127.195 314.524 130.554 331.321" stroke="#698F40" stroke-width="2"/>
<path d="M101.16 301.925C105.359 272.531 117.117 223.821 130.554 264.133" stroke="#698F40" stroke-width="2"/>
<path d="M105.357 331.32C105.357 314.521 93.5994 271.694 80.1621 285.132" stroke="#698F40" stroke-width="2"/>
<path d="M96.959 192.752C102.558 178.755 115.435 156.64 122.154 180.155" stroke="#698F40" stroke-width="2"/>
<path d="M105.355 45.7835C88.5585 28.9868 80.1635 66.7784 84.3624 87.772C70.9246 60.8974 60.5673 75.1745 59.168 83.5729M92.7613 150.759C85.7627 136.762 70.0858 114.647 63.3671 138.162" stroke="#698F40" stroke-width="2"/>
<path d="M109.556 377.509C101.158 373.309 84.3612 339.723 75.9629 369.113" stroke="#698F40" stroke-width="2"/>
<path d="M38.1719 20.5833C51.0867 -14.1873 74.8599 -16.1006 92.3766 149.061M109.558 444.699C105.657 312.09 99.5402 216.604 92.3766 149.061M92.3766 149.061C98.1036 125.831 112.077 86.0903 122.155 112.965" stroke="#698F40" stroke-width="2"/>
<path d="M18.3499 69.4412C4.73476 45.668 22.7662 20.2007 36.1033 8.00688C37.6699 6.57459 40.0549 6.49151 41.6538 7.88761C63.4458 26.9154 41.6424 55.5082 24.7394 70.3969C22.7458 72.1529 19.6702 71.7466 18.3499 69.4412Z" fill="#EAEAEA"/>
<path d="M37.3733 130.472C25.4319 109.038 41.4732 86.1733 53.5399 75.0385C55.0999 73.599 57.4889 73.5198 59.0735 74.9322C78.4033 92.1615 59.0286 117.836 43.7272 131.432C41.7411 133.196 38.6663 132.792 37.3733 130.472Z" fill="#EAEAEA"/>
<path d="M37.5557 189.473C24.8622 167.899 43.269 144.055 56.6325 132.598C58.1571 131.29 60.3923 131.197 61.9526 132.462C82.9634 149.485 60.745 176.368 43.7833 190.431C41.8097 192.068 38.8557 191.683 37.5557 189.473Z" fill="#EAEAEA"/>
<path d="M101.16 255.739C101.16 234.745 81.8436 185.195 71.7656 205.351" stroke="#698F40" stroke-width="2"/>
<path d="M45.9184 257.639C32.7817 234.891 50.8169 210.244 64.0752 198.413C65.6261 197.029 67.9543 196.942 69.538 198.288C90.8475 216.406 69.0567 244.123 52.2441 258.597C50.2577 260.307 47.2292 259.908 45.9184 257.639Z" fill="#EAEAEA"/>
<path d="M47.4325 337.309C33.1255 313.862 53.9927 287.606 68.832 275.185C70.3501 273.915 72.5332 273.819 74.0958 275.035C97.6746 293.378 72.4775 322.999 53.6491 338.261C51.6757 339.861 48.7556 339.478 47.4325 337.309Z" fill="#EAEAEA"/>
<path d="M47.4325 422.727C33.1255 399.28 53.9927 373.024 68.832 360.603C70.3501 359.333 72.5332 359.237 74.0958 360.453C97.6746 378.796 72.4775 408.417 53.6491 423.679C51.6757 425.279 48.7556 424.896 47.4325 422.727Z" fill="#EAEAEA"/>
<path d="M139.414 394.751C114.562 383.052 117.529 349.645 123.08 331.107C123.648 329.21 125.418 327.929 127.392 328.084C157.174 330.417 152.444 369.016 145.127 392.123C144.36 394.545 141.712 395.832 139.414 394.751Z" fill="#EAEAEA"/>
<path d="M136.059 319.757C114.802 309.684 118.12 280.036 123.412 263.342C123.988 261.525 125.686 260.281 127.589 260.398C153.556 261.99 148.618 296.329 141.66 317.2C140.876 319.552 138.3 320.819 136.059 319.757Z" fill="#EAEAEA"/>
<path d="M143.733 236.444C118.071 231.578 113.175 199.51 114.074 180.714C114.167 178.77 115.534 177.116 117.448 176.763C145.595 171.57 150.063 208.967 148.576 232.518C148.418 235.026 146.202 236.912 143.733 236.444Z" fill="#EAEAEA"/>
<path d="M143.703 169.26C118.042 164.394 113.146 132.327 114.045 113.53C114.138 111.586 115.505 109.932 117.419 109.579C145.565 104.386 150.034 141.783 148.547 165.335C148.388 167.842 146.172 169.728 143.703 169.26Z" fill="#EAEAEA"/>
<path d="M130.388 91.78C108.207 89.1455 101.486 62.233 100.735 45.8285C100.647 43.8841 101.873 42.0992 103.756 41.6063C127.42 35.4118 134.228 66.8879 134.847 87.4863C134.922 89.998 132.883 92.0764 130.388 91.78Z" fill="#EAEAEA"/>
</svg>
