<svg width="131" height="333" viewBox="0 0 131 333" fill="none" xmlns="http://www.w3.org/2000/svg">
<path d="M79.459 253.938C84.7004 246.6 95.8122 235.068 98.3281 247.648" stroke="#698F40" stroke-width="1.49785"/>
<path d="M76.3145 225.63C79.4593 203.616 88.2649 167.136 98.3284 197.326" stroke="#698F40" stroke-width="1.49785"/>
<path d="M79.457 247.645C79.457 235.064 70.6514 202.99 60.5879 213.053" stroke="#698F40" stroke-width="1.49785"/>
<path d="M73.168 143.87C77.3611 133.387 87.0053 116.824 92.0371 134.435" stroke="#698F40" stroke-width="1.49785"/>
<path d="M79.4559 33.7989C66.8765 21.2195 60.5893 49.5225 63.7339 65.2452C53.6701 45.1181 45.9132 55.8106 44.8652 62.1003M70.0241 112.418C64.7826 101.935 53.0419 85.3722 48.0101 102.983" stroke="#698F40" stroke-width="1.49785"/>
<path d="M82.6022 282.238C76.3125 279.094 63.7331 253.94 57.4434 275.951" stroke="#698F40" stroke-width="1.49785"/>
<path d="M29.1406 14.9269C38.8128 -11.1136 56.6172 -12.5465 69.7359 111.147M82.6031 332.557C79.6821 233.244 75.1008 161.732 69.7359 111.147M69.7359 111.147C74.025 93.7495 84.49 63.9867 92.0377 84.1137" stroke="#698F40" stroke-width="1.49785"/>
<path d="M14.2951 51.5162C4.09835 33.7118 17.6026 14.6388 27.591 5.50654C28.7643 4.43387 30.5504 4.37164 31.7479 5.41722C48.0685 19.6676 31.7393 41.0814 19.0803 52.2319C17.5872 53.547 15.2839 53.2428 14.2951 51.5162Z" fill="#EAEAEA"/>
<path d="M28.542 97.2238C19.5988 81.172 31.6125 64.0479 40.6496 55.7087C41.8179 54.6306 43.6071 54.5714 44.7938 55.6291C59.2704 68.5325 44.7603 87.7612 33.3006 97.943C31.8132 99.2645 29.5104 98.962 28.542 97.2238Z" fill="#EAEAEA"/>
<path d="M28.6786 141.414C19.1722 125.257 32.9575 107.4 42.9657 98.8188C44.1075 97.8398 45.7815 97.7701 46.9501 98.717C62.6856 111.467 46.0457 131.6 33.3426 142.132C31.8646 143.357 29.6522 143.069 28.6786 141.414Z" fill="#EAEAEA"/>
<path d="M76.3128 191.042C76.3128 175.319 61.8465 138.21 54.2988 153.305" stroke="#698F40" stroke-width="1.49785"/>
<path d="M34.9424 192.461C25.1041 175.425 38.6111 156.966 48.5405 148.106C49.702 147.069 51.4457 147.004 52.6317 148.013C68.5909 161.582 52.2713 182.339 39.6799 193.179C38.1923 194.46 35.9241 194.161 34.9424 192.461Z" fill="#EAEAEA"/>
<path d="M36.0749 252.131C25.36 234.571 40.988 214.907 52.1015 205.605C53.2384 204.653 54.8734 204.582 56.0436 205.492C73.7024 219.23 54.8317 241.413 40.7306 252.844C39.2528 254.042 37.0658 253.755 36.0749 252.131Z" fill="#EAEAEA"/>
<path d="M36.0749 316.104C25.36 298.544 40.988 278.88 52.1015 269.577C53.2384 268.626 54.8734 268.555 56.0436 269.465C73.7024 283.203 54.8317 305.386 40.7306 316.816C39.2528 318.014 37.0658 317.728 36.0749 316.104Z" fill="#EAEAEA"/>
<path d="M104.963 295.151C86.3514 286.39 88.5736 261.371 92.7306 247.487C93.1559 246.066 94.4816 245.107 95.9597 245.223C118.265 246.971 114.722 275.878 109.242 293.183C108.668 294.997 106.684 295.961 104.963 295.151Z" fill="#EAEAEA"/>
<path d="M102.45 238.986C86.5304 231.442 89.0154 209.238 92.9789 196.736C93.4104 195.374 94.6819 194.443 96.1072 194.531C115.554 195.723 111.856 221.44 106.645 237.071C106.058 238.833 104.128 239.781 102.45 238.986Z" fill="#EAEAEA"/>
<path d="M108.197 176.591C88.9792 172.946 85.3123 148.93 85.9855 134.853C86.0551 133.397 87.0789 132.159 88.5124 131.894C109.592 128.005 112.939 156.013 111.825 173.651C111.706 175.529 110.046 176.942 108.197 176.591Z" fill="#EAEAEA"/>
<path d="M108.176 126.275C88.9577 122.63 85.2908 98.614 85.964 84.537C86.0337 83.0809 87.0574 81.8423 88.4909 81.5778C109.57 77.6887 112.917 105.696 111.803 123.334C111.685 125.213 110.025 126.625 108.176 126.275Z" fill="#EAEAEA"/>
<path d="M98.2031 68.2491C81.5915 66.276 76.5576 46.1206 75.9955 33.8349C75.9289 32.3787 76.8473 31.042 78.2575 30.6728C95.9803 26.0336 101.079 49.6068 101.542 65.0335C101.599 66.9145 100.072 68.471 98.2031 68.2491Z" fill="#EAEAEA"/>
</svg>
