<svg width="174" height="444" viewBox="0 0 174 444" fill="none" xmlns="http://www.w3.org/2000/svg">
<path d="M105.117 338.669C112.106 328.885 126.922 313.51 130.276 330.283" stroke="#698F40" stroke-width="1.99713"/>
<path d="M100.926 300.931C105.119 271.579 116.86 222.939 130.278 263.193" stroke="#698F40" stroke-width="1.99713"/>
<path d="M105.116 330.282C105.116 313.507 93.3751 270.741 79.957 284.159" stroke="#698F40" stroke-width="1.99713"/>
<path d="M96.7266 191.915C102.317 177.938 115.176 155.854 121.885 179.335" stroke="#698F40" stroke-width="1.99713"/>
<path d="M105.113 45.1525C88.3406 28.3799 79.9576 66.1173 84.1505 87.0808C70.732 60.2447 60.3895 74.5014 58.9922 82.8877M92.5373 149.978C85.5487 136.001 69.8944 113.917 63.1853 137.398" stroke="#698F40" stroke-width="1.99713"/>
<path d="M109.307 376.405C100.921 372.212 84.148 338.673 75.7617 368.022" stroke="#698F40" stroke-width="1.99713"/>
<path d="M38.0273 19.9898C50.9236 -14.7309 74.6627 -16.6414 92.1544 148.283M109.311 443.497C105.416 311.079 99.3076 215.73 92.1544 148.283M92.1544 148.283C97.8731 125.087 111.827 85.4028 121.89 112.239" stroke="#698F40" stroke-width="1.99713"/>
<path d="M18.2326 68.7742C4.63699 45.0351 22.6426 19.6043 35.9606 7.428C37.5249 5.99776 39.9064 5.91479 41.5031 7.30889C63.2638 26.3094 41.4916 54.8612 24.6129 69.7285C22.6222 71.482 19.5511 71.0763 18.2326 68.7742Z" fill="#EAEAEA"/>
<path d="M37.2273 129.726C25.303 108.323 41.3213 85.4909 53.3707 74.372C54.9284 72.9346 57.314 72.8556 58.8963 74.2659C78.1984 91.4705 58.8516 117.109 43.5721 130.684C41.5889 132.446 38.5184 132.043 37.2273 129.726Z" fill="#EAEAEA"/>
<path d="M37.4094 188.641C24.7342 167.098 43.1146 143.288 56.4589 131.847C57.9813 130.542 60.2133 130.449 61.7714 131.711C82.752 148.711 60.5654 175.555 43.6281 189.598C41.6574 191.232 38.7075 190.848 37.4094 188.641Z" fill="#EAEAEA"/>
<path d="M100.922 254.808C100.922 233.845 81.6338 184.365 71.5703 204.492" stroke="#698F40" stroke-width="1.99713"/>
<path d="M45.7592 256.705C32.6413 233.99 50.6507 209.378 63.8899 197.564C65.4387 196.182 67.7635 196.096 69.3449 197.44C90.6239 215.532 68.8643 243.209 52.0759 257.662C50.0923 259.37 47.0681 258.972 45.7592 256.705Z" fill="#EAEAEA"/>
<path d="M47.2744 336.265C32.9879 312.851 53.8252 286.633 68.6431 274.23C70.1591 272.961 72.339 272.866 73.8994 274.08C97.4443 292.397 72.2835 321.974 53.482 337.215C51.5115 338.812 48.5956 338.43 47.2744 336.265Z" fill="#EAEAEA"/>
<path d="M47.2744 421.557C32.9879 398.144 53.8252 371.926 68.6431 359.523C70.1591 358.254 72.339 358.159 73.8994 359.372C97.4443 377.69 72.2835 407.267 53.482 422.508C51.5115 424.105 48.5956 423.723 47.2744 421.557Z" fill="#EAEAEA"/>
<path d="M139.12 393.622C114.304 381.94 117.267 348.582 122.81 330.07C123.377 328.176 125.145 326.896 127.116 327.051C156.855 329.381 152.132 367.925 144.826 390.998C144.06 393.417 141.415 394.703 139.12 393.622Z" fill="#EAEAEA"/>
<path d="M135.774 318.737C114.548 308.678 117.861 279.072 123.146 262.403C123.721 260.588 125.416 259.346 127.317 259.463C153.246 261.053 148.315 295.342 141.367 316.183C140.584 318.532 138.012 319.797 135.774 318.737Z" fill="#EAEAEA"/>
<path d="M143.435 235.544C117.811 230.685 112.922 198.664 113.819 179.894C113.912 177.953 115.277 176.301 117.188 175.949C145.294 170.763 149.757 208.107 148.272 231.624C148.113 234.129 145.9 236.012 143.435 235.544Z" fill="#EAEAEA"/>
<path d="M143.404 168.455C117.78 163.595 112.89 131.574 113.788 112.805C113.881 110.863 115.246 109.212 117.157 108.859C145.263 103.673 149.726 141.017 148.24 164.535C148.082 167.039 145.869 168.922 143.404 168.455Z" fill="#EAEAEA"/>
<path d="M130.111 91.0808C107.962 88.4501 101.251 61.5762 100.501 45.1952C100.412 43.2536 101.637 41.4713 103.517 40.9791C127.148 34.7935 133.946 66.2244 134.564 86.7933C134.639 89.3014 132.603 91.3768 130.111 91.0808Z" fill="#EAEAEA"/>
</svg>
