<svg width="1348" height="121" viewBox="0 0 1348 121" fill="none" xmlns="http://www.w3.org/2000/svg">
<path d="M446.906 51.588C446.222 52.4948 444.053 53.0454 443.055 53.2073C445.28 53.5959 446.193 53.936 446.906 54.7456C447.762 55.7172 448.143 58.0112 448.333 59.2797C448.404 58.1731 448.775 55.7172 449.688 54.7456C450.601 53.7741 452.636 53.3153 453.54 53.2073C452.612 53.2883 450.334 52.3212 449.688 51.588C448.832 50.6164 448.475 48.5653 448.261 47.2969C448.119 48.3494 447.762 50.4545 446.906 51.588Z" fill="#EAEAEA"/>
<path d="M911.988 102.514C911.304 103.421 909.135 103.971 908.137 104.133C910.362 104.522 911.275 104.862 911.988 105.671C912.844 106.643 913.225 108.937 913.415 110.205C913.486 109.099 913.857 106.643 914.77 105.671C915.683 104.7 917.718 104.241 918.622 104.133C917.694 104.214 915.416 103.247 914.77 102.514C913.914 101.542 913.558 99.4911 913.344 98.2227C913.201 99.2752 912.844 101.38 911.988 102.514Z" fill="#EAEAEA"/>
<path d="M1122.44 53.0841C1121.75 53.9909 1119.58 54.5415 1118.58 54.7034C1120.81 55.092 1121.72 55.4321 1122.44 56.2417C1123.29 57.2133 1123.67 59.5073 1123.86 60.7758C1123.93 59.6692 1124.3 57.2133 1125.22 56.2417C1126.13 55.2701 1128.17 54.8113 1129.07 54.7034C1128.14 54.7844 1125.86 53.8173 1125.22 53.0841C1124.36 52.1125 1124 50.0614 1123.79 48.793C1123.65 49.8455 1123.29 51.9506 1122.44 53.0841Z" fill="#EAEAEA"/>
<path d="M267.899 37.1105C266.285 39.5476 261.174 41.0272 258.82 41.4624C264.066 42.5068 266.218 43.4207 267.899 45.5967C269.917 48.2078 270.813 54.3729 271.262 57.7819C271.43 54.8081 272.304 48.2078 274.456 45.5967C276.608 42.9855 281.405 41.7525 283.535 41.4624C281.349 41.68 275.978 39.0809 274.456 37.1105C272.439 34.4994 271.598 28.9871 271.093 25.5781C270.757 28.4068 269.917 34.0642 267.899 37.1105Z" fill="#EAEAEA"/>
<path d="M362.462 90.9778C360.946 93.2448 356.145 94.6212 353.934 95.0261C358.861 95.9976 360.883 96.8478 362.462 98.8719C364.357 101.301 365.2 107.036 365.621 110.207C365.779 107.441 366.6 101.301 368.622 98.8719C370.643 96.443 375.15 95.296 377.15 95.0261C375.097 95.2285 370.052 92.8107 368.622 90.9778C366.726 88.5489 365.937 83.4211 365.463 80.25C365.147 82.8814 364.357 88.1441 362.462 90.9778Z" fill="#EAEAEA"/>
<path d="M806.543 45.9186C805.565 47.0521 802.468 47.7403 801.041 47.9427C804.22 48.4285 805.524 48.8536 806.543 49.8656C807.766 51.0801 808.309 53.9476 808.581 55.5332C808.683 54.15 809.213 51.0801 810.517 49.8656C811.821 48.6512 814.729 48.0777 816.019 47.9427C814.695 48.0439 811.44 46.8351 810.517 45.9186C809.294 44.7041 808.785 42.1402 808.479 40.5547C808.276 41.8704 807.766 44.5017 806.543 45.9186Z" fill="#EAEAEA"/>
<path d="M1062.68 107.333C1061.7 108.466 1058.6 109.154 1057.17 109.357C1060.35 109.843 1061.66 110.268 1062.68 111.28C1063.9 112.494 1064.44 115.362 1064.71 116.947C1064.82 115.564 1065.35 112.494 1066.65 111.28C1067.95 110.065 1070.86 109.492 1072.15 109.357C1070.83 109.458 1067.57 108.249 1066.65 107.333C1065.43 106.118 1064.92 103.554 1064.61 101.969C1064.41 103.284 1063.9 105.916 1062.68 107.333Z" fill="#EAEAEA"/>
<path d="M552.766 93.8608C551.103 95.7878 545.837 96.9577 543.412 97.3018C548.817 98.1277 551.034 98.8503 552.766 100.571C554.845 102.635 555.769 107.51 556.23 110.206C556.404 107.854 557.304 102.635 559.522 100.571C561.739 98.5062 566.681 97.5312 568.876 97.3018C566.624 97.4739 561.09 95.4188 559.522 93.8608C557.443 91.7962 556.577 87.4376 556.057 84.7422C555.711 86.9788 554.845 91.4521 552.766 93.8608Z" fill="#EAEAEA"/>
<path d="M1247.92 101.462C1245.96 103.729 1239.77 105.106 1236.91 105.51C1243.27 106.482 1245.88 107.332 1247.92 109.356C1250.36 111.785 1251.45 117.52 1251.99 120.691C1252.2 117.925 1253.26 111.785 1255.87 109.356C1258.47 106.927 1264.29 105.78 1266.87 105.51C1264.22 105.713 1257.71 103.295 1255.87 101.462C1253.42 99.0333 1252.4 93.9055 1251.79 90.7344C1251.38 93.3657 1250.36 98.6284 1247.92 101.462Z" fill="#EAEAEA"/>
<path d="M4.29302 15.0019C3.60828 16.2487 1.43997 17.0057 0.441406 17.2284C2.66678 17.7628 3.57975 18.2303 4.29302 19.3436C5.14893 20.6795 5.52933 23.8338 5.71954 25.5779C5.79086 24.0564 6.16176 20.6795 7.07473 19.3436C7.98771 18.0077 10.0229 17.3768 10.9263 17.2284C9.9991 17.3397 7.72062 16.01 7.07473 15.0019C6.21882 13.666 5.86219 10.8457 5.64821 9.10156C5.50556 10.5488 5.14893 13.4433 4.29302 15.0019Z" fill="#EAEAEA"/>
<path d="M1341.12 53.9433C1340.44 55.1901 1338.27 55.9472 1337.27 56.1698C1339.5 56.7042 1340.41 57.1717 1341.12 58.285C1341.98 59.6209 1342.36 62.7752 1342.55 64.5193C1342.62 62.9978 1342.99 59.6209 1343.9 58.285C1344.82 56.9491 1346.85 56.3182 1347.76 56.1698C1346.83 56.2811 1344.55 54.9514 1343.9 53.9433C1343.05 52.6074 1342.69 49.7871 1342.48 48.043C1342.34 49.4902 1341.98 52.3847 1341.12 53.9433Z" fill="#EAEAEA"/>
<path d="M724.423 101.462C722.466 103.729 716.271 105.106 713.418 105.51C719.776 106.482 722.385 107.332 724.423 109.356C726.868 111.785 727.955 117.52 728.498 120.691C728.702 117.925 729.762 111.785 732.37 109.356C734.979 106.927 740.794 105.78 743.375 105.51C740.726 105.713 734.216 103.295 732.37 101.462C729.925 99.0333 728.906 93.9055 728.295 90.7344C727.887 93.3657 726.868 98.6284 724.423 101.462Z" fill="#EAEAEA"/>
<path d="M1202.48 17.1474C1201.01 18.8477 1196.37 19.88 1194.23 20.1836C1199 20.9123 1200.95 21.5499 1202.48 23.068C1204.31 24.8897 1205.13 29.1909 1205.54 31.5693C1205.69 29.4946 1206.48 24.8897 1208.44 23.068C1210.4 21.2463 1214.76 20.386 1216.69 20.1836C1214.71 20.3354 1209.82 18.5221 1208.44 17.1474C1206.61 15.3257 1205.84 11.4799 1205.38 9.10156C1205.08 11.0751 1204.31 15.0221 1202.48 17.1474Z" fill="#EAEAEA"/>
<path d="M629.064 22.5114C626.619 25.3451 618.875 27.0656 615.309 27.5716C623.256 28.7861 626.517 29.8488 629.064 32.3789C632.121 35.4151 633.48 42.5839 634.159 46.5478C634.414 43.0899 635.738 35.4151 638.999 32.3789C642.26 29.3428 649.528 27.909 652.755 27.5716C649.443 27.8247 641.306 24.8025 638.999 22.5114C635.942 19.4752 634.669 13.0655 633.904 9.10156C633.395 12.3908 632.121 18.9691 629.064 22.5114Z" fill="#EAEAEA"/>
<path d="M976.992 33.3731C974.204 36.6036 965.376 38.565 961.311 39.1418C970.371 40.5263 974.088 41.7378 976.992 44.6221C980.477 48.0834 982.026 56.2558 982.8 60.7746C983.09 56.8326 984.601 48.0834 988.318 44.6221C992.035 41.1609 1000.32 39.5264 1004 39.1418C1000.22 39.4303 990.947 35.985 988.318 33.3731C984.833 29.9119 983.381 22.6048 982.51 18.0859C981.929 21.8356 980.477 29.335 976.992 33.3731Z" fill="#EAEAEA"/>
<path d="M141.728 7.89096C140.31 9.53454 135.818 10.5324 133.75 10.8259C138.36 11.5303 140.251 12.1467 141.728 13.6142C143.501 15.3751 144.289 19.533 144.683 21.8321C144.831 19.8265 145.599 15.3751 147.49 13.6142C149.382 11.8532 153.597 11.0216 155.469 10.8259C153.548 10.9727 148.828 9.21982 147.49 7.89096C145.717 6.12997 144.979 2.41234 144.536 0.113281C144.24 2.02101 143.501 5.83648 141.728 7.89096Z" fill="#EAEAEA"/>
</svg>
