<svg width="1301" height="234" viewBox="0 0 1301 234" fill="none" xmlns="http://www.w3.org/2000/svg">
<path d="M424.137 91.1661C423.452 92.0729 421.284 92.6235 420.285 92.7854C422.511 93.1741 423.424 93.5141 424.137 94.3238C424.993 95.2953 425.373 97.5893 425.563 98.8578C425.635 97.7513 426.006 95.2953 426.918 94.3238C427.831 93.3522 429.867 92.8934 430.77 92.7854C429.843 92.8664 427.564 91.8993 426.918 91.1661C426.063 90.1946 425.706 88.1434 425.492 86.875C425.349 87.9275 424.993 90.0326 424.137 91.1661Z" fill="#EAEAEA"/>
<path d="M238.389 11.5324C236.775 13.9695 231.664 15.4491 229.311 15.8843C234.556 16.9287 236.708 17.8426 238.389 20.0185C240.407 22.6296 241.304 28.7948 241.752 32.2037C241.92 29.23 242.794 22.6296 244.946 20.0185C247.098 17.4074 251.895 16.1744 254.025 15.8843C251.839 16.1019 246.469 13.5028 244.946 11.5324C242.929 8.9213 242.088 3.40895 241.584 0C241.247 2.82871 240.407 8.48612 238.389 11.5324Z" fill="#EAEAEA"/>
<path d="M1146.25 108.715C1145.27 109.849 1142.18 110.537 1140.75 110.74C1143.93 111.225 1145.23 111.65 1146.25 112.663C1147.48 113.877 1148.02 116.744 1148.29 118.33C1148.39 116.947 1148.92 113.877 1150.23 112.663C1151.53 111.448 1154.44 110.875 1155.73 110.74C1154.4 110.841 1151.15 109.632 1150.23 108.715C1149 107.501 1148.49 104.937 1148.19 103.352C1147.98 104.667 1147.48 107.299 1146.25 108.715Z" fill="#EAEAEA"/>
<path d="M4.74028 5.90031C4.05555 7.14716 1.88724 7.90418 0.888672 8.12684C3.11405 8.6612 4.02702 9.12878 4.74028 10.242C5.59619 11.578 5.9766 14.7322 6.1668 16.4763C6.23813 14.9549 6.60902 11.578 7.522 10.242C8.43497 8.90612 10.4701 8.27527 11.3736 8.12684C10.4464 8.23816 8.16788 6.90841 7.522 5.90031C6.66609 4.56439 6.30945 1.74412 6.09548 0C5.95282 1.44725 5.59619 4.34173 4.74028 5.90031Z" fill="#EAEAEA"/>
<path d="M811.24 107.651C809.772 109.352 805.126 110.384 802.986 110.688C807.755 111.416 809.711 112.054 811.24 113.572C813.074 115.394 813.889 119.695 814.297 122.073C814.449 119.998 815.244 115.394 817.201 113.572C819.157 111.75 823.518 110.89 825.454 110.688C823.467 110.839 818.585 109.026 817.201 107.651C815.366 105.83 814.602 101.984 814.144 99.6055C813.838 101.579 813.074 105.526 811.24 107.651Z" fill="#EAEAEA"/>
<path d="M1277.05 166.673C1274.66 169.45 1267.07 171.136 1263.57 171.632C1271.36 172.822 1274.56 173.864 1277.05 176.343C1280.05 179.319 1281.38 186.344 1282.05 190.229C1282.3 186.84 1283.6 179.319 1286.79 176.343C1289.99 173.368 1297.11 171.963 1300.27 171.632C1297.03 171.88 1289.05 168.918 1286.79 166.673C1283.8 163.697 1282.55 157.416 1281.8 153.531C1281.3 156.755 1280.05 163.201 1277.05 166.673Z" fill="#EAEAEA"/>
<path d="M984.945 28.1641C983.086 30.3178 977.201 31.6253 974.49 32.0099C980.531 32.9329 983.009 33.7405 984.945 35.6635C987.268 37.971 988.3 43.4192 988.817 46.4318C989.01 43.8038 990.017 37.971 992.495 35.6635C994.973 33.356 1000.5 32.2663 1002.95 32.0099C1000.43 32.2022 994.248 29.9054 992.495 28.1641C990.172 25.8566 989.204 20.9852 988.623 17.9727C988.236 20.4724 987.268 25.472 984.945 28.1641Z" fill="#EAEAEA"/>
<path d="M638.513 175.326C636.997 177.083 632.195 178.149 629.984 178.463C634.912 179.216 636.934 179.875 638.513 181.444C640.408 183.326 641.251 187.771 641.672 190.228C641.83 188.084 642.651 183.326 644.672 181.444C646.694 179.561 651.2 178.672 653.201 178.463C651.148 178.62 646.103 176.746 644.672 175.326C642.777 173.443 641.988 169.469 641.514 167.012C641.198 169.051 640.408 173.13 638.513 175.326Z" fill="#EAEAEA"/>
<path d="M575.588 36.6246C573.142 39.4584 565.398 41.1789 561.832 41.6849C569.78 42.8994 573.04 43.9621 575.588 46.4922C578.645 49.5284 580.003 56.6971 580.682 60.661C580.937 57.2032 582.262 49.5284 585.522 46.4922C588.783 43.456 596.052 42.0223 599.278 41.6849C595.967 41.9379 587.829 38.9158 585.522 36.6246C582.466 33.5885 581.192 27.1787 580.428 23.2148C579.918 26.504 578.645 33.0824 575.588 36.6246Z" fill="#EAEAEA"/>
<path d="M957.967 206.264C955.179 209.494 946.351 211.456 942.285 212.032C951.346 213.417 955.063 214.628 957.967 217.513C961.451 220.974 963 229.146 963.775 233.665C964.065 229.723 965.575 220.974 969.292 217.513C973.009 214.052 981.295 212.417 984.974 212.032C981.199 212.321 971.922 208.876 969.292 206.264C965.807 202.802 964.355 195.495 963.484 190.977C962.903 194.726 961.451 202.226 957.967 206.264Z" fill="#EAEAEA"/>
<path d="M1260.92 9.1646C1259.79 10.4681 1256.23 11.2596 1254.59 11.4923C1258.24 12.051 1259.74 12.5398 1260.92 13.7037C1262.32 15.1003 1262.95 18.398 1263.26 20.2213C1263.38 18.6307 1263.99 15.1003 1265.49 13.7037C1266.99 12.307 1270.33 11.6475 1271.81 11.4923C1270.29 11.6087 1266.55 10.2185 1265.49 9.1646C1264.08 7.76795 1263.49 4.81949 1263.14 2.99609C1262.91 4.50912 1262.32 7.53518 1260.92 9.1646Z" fill="#EAEAEA"/>
<path d="M106.226 138.84C104.808 140.484 100.317 141.482 98.248 141.775C102.858 142.48 104.749 143.096 106.226 144.563C107.999 146.324 108.787 150.482 109.181 152.781C109.329 150.776 110.097 146.324 111.989 144.563C113.88 142.802 118.095 141.971 119.967 141.775C118.046 141.922 113.326 140.169 111.989 138.84C110.216 137.079 109.477 133.362 109.034 131.062C108.738 132.97 107.999 136.786 106.226 138.84Z" fill="#EAEAEA"/>
<path d="M324.302 186.736C321.66 189.797 313.297 191.655 309.445 192.202C318.029 193.513 321.55 194.661 324.302 197.393C327.603 200.673 329.07 208.415 329.804 212.696C330.079 208.961 331.51 200.673 335.031 197.393C338.552 194.114 346.402 192.566 349.887 192.202C346.311 192.475 337.522 189.211 335.031 186.736C331.73 183.457 330.354 176.535 329.529 172.254C328.978 175.806 327.603 182.911 324.302 186.736Z" fill="#EAEAEA"/>
</svg>
