<svg width="67" height="255" viewBox="0 0 67 255" fill="none" xmlns="http://www.w3.org/2000/svg">
<path d="M50.8446 254.394C41.375 197.576 24.3298 74.472 31.9054 36.5938" stroke="#698F40" stroke-width="1.49785"/>
<path d="M15.3322 5.82074C3.96876 22.8659 20.067 42.9099 29.5366 50.8012C40.5844 40.5423 60.786 18.1306 53.2104 10.555C45.6347 2.97931 35.8495 20.0249 31.9038 29.4946C31.1147 14.5012 26.6957 -11.2245 15.3322 5.82074Z" fill="#73628A"/>
<path d="M3.49432 50.7944C-7.35905 68.1689 22.1289 96.2547 31.8282 103.862C46.1072 95.7751 63.3736 72.3468 55.5768 64.999C47.78 57.6512 37.2263 72.9121 33.563 82.4946C32.3299 67.5311 14.3477 33.4199 3.49432 50.7944Z" fill="#73628A"/>
<path d="M3.49477 105.25C-7.35861 122.625 26.6245 144.99 36.3237 152.597C50.6028 144.511 69.8439 121.991 62.0471 114.643C54.2503 107.295 39.987 119.357 36.3237 128.939C35.0907 113.976 14.3481 87.8756 3.49477 105.25Z" fill="#73628A"/>
<path d="M13.1511 164.263C2.29769 181.638 33.8569 199.611 43.5561 207.218C57.8352 199.132 70.4773 171.611 62.6805 164.263C54.8837 156.915 42.6697 171.431 39.0064 181.014C34.2716 166.808 24.0044 146.889 13.1511 164.263Z" fill="#73628A"/>
</svg>
