<svg width="193" height="253" viewBox="0 0 193 253" fill="none" xmlns="http://www.w3.org/2000/svg">
<path d="M110.665 26.1558C112.131 27.3523 115.864 29.6644 119.06 29.3402C123.055 28.9349 126.644 24.5347 114.254 21.7556C104.342 19.5323 107.731 23.7627 110.665 26.1558Z" fill="#698F40"/>
<path d="M111.88 38.1405C108.291 42.5407 108.696 46.5356 124.676 44.9146C129.952 44.3794 115.47 33.7403 111.88 38.1405Z" fill="#698F40"/>
<path d="M127.455 32.5246C131.139 30.412 139.162 28.2565 141.781 36.535C145.056 46.8832 119.87 37.33 127.455 32.5246Z" fill="#698F40"/>
<path fill-rule="evenodd" clip-rule="evenodd" d="M170.646 60.4321C141.003 6.9348 85.131 2.95759 63.2272 13.4036C37.9456 25.4606 11.7301 45.5387 8.07023 89.0325C11.0813 86.8372 14.6939 84.5257 18.8426 82.2209C26.7558 77.8249 36.6195 73.4537 47.9794 69.9621C56.6281 67.3037 66.1441 65.1552 76.327 63.8936C83.4087 63.0162 90.8128 62.5678 98.4721 62.6753C106.294 62.785 114.382 63.4744 122.665 64.8787C130.046 66.1302 137.581 67.9493 145.22 70.4318C152.715 72.8674 160.309 75.9416 167.954 79.7446C170.678 81.0992 173.408 82.5463 176.142 84.09C177.26 77.5023 175.771 69.6805 170.646 60.4321ZM111.88 38.1405C108.291 42.5407 108.696 46.5356 124.676 44.9146C129.952 44.3794 115.47 33.7403 111.88 38.1405ZM127.455 32.5246C131.139 30.412 139.162 28.2565 141.781 36.535C145.056 46.8832 119.87 37.33 127.455 32.5246ZM119.06 29.3402C115.864 29.6644 112.131 27.3523 110.665 26.1558C107.731 23.7627 104.342 19.5323 114.254 21.7556C126.644 24.5347 123.055 28.9349 119.06 29.3402Z" fill="#73628A"/>
<path d="M122.665 64.8787C120.408 74.4582 107.463 96.86 101.272 106.863C102.98 107.846 104.494 109.059 105.828 110.411C116.533 101.84 139.399 81.8439 145.22 70.4318C137.581 67.9493 130.046 66.1302 122.665 64.8787Z" fill="#CBC5EA"/>
<path d="M145.22 70.4318C139.399 81.8439 116.533 101.84 105.828 110.411C106.784 111.38 107.649 112.422 108.426 113.502C128.455 106.104 168.401 88.9945 167.954 79.7446C160.309 75.9416 152.715 72.8674 145.22 70.4318Z" fill="#698F40"/>
<path d="M110.186 116.253C133.73 115.646 172.088 107.988 176.142 84.09C173.408 82.5463 170.678 81.0992 167.954 79.7446C168.401 88.9945 128.455 106.104 108.426 113.502C109.071 114.398 109.657 115.322 110.186 116.253Z" fill="#CBC5EA"/>
<path d="M98.4721 62.6753C98.5115 75.5983 98.2113 102.149 96.6953 104.965C98.3557 105.413 99.8786 106.062 101.272 106.863C107.463 96.86 120.408 74.4582 122.665 64.8787C114.382 63.4744 106.294 62.785 98.4721 62.6753Z" fill="#698F40"/>
<path d="M88.7144 104.784C90.3954 104.317 92.2822 104.185 94.3951 104.491C95.1896 104.607 95.9561 104.766 96.6953 104.965C98.2113 102.149 98.5115 75.5983 98.4721 62.6753C90.8128 62.5678 83.4087 63.0162 76.327 63.8936C79.2964 77.012 85.9311 103.556 88.7144 104.784Z" fill="#CBC5EA"/>
<path d="M47.9794 69.9621C58.1825 82.6069 79.7172 107.743 84.2306 107.128C85.5293 106.073 87.017 105.257 88.7144 104.784C85.9311 103.556 79.2964 77.012 76.327 63.8936C66.1441 65.1552 56.6281 67.3037 47.9794 69.9621Z" fill="#698F40"/>
<path d="M18.8426 82.2209C34.5259 91.6048 68.8238 110.583 80.549 111.427C81.5591 109.791 82.7765 108.309 84.2306 107.128C79.7172 107.743 58.1825 82.6069 47.9794 69.9621C36.6195 73.4537 26.7558 77.8249 18.8426 82.2209Z" fill="#CBC5EA"/>
<path d="M8.07023 89.0325C12.7775 99.3234 33.37 119.272 78.0818 116.738C78.7109 114.91 79.523 113.089 80.549 111.427C68.8238 110.583 34.5259 91.6048 18.8426 82.2209C14.6939 84.5257 11.0813 86.8372 8.07023 89.0325Z" fill="#698F40"/>
<path d="M104.492 129.261C106.033 128.285 110.112 126.477 114.106 127.056C113.643 124.244 112.415 120.176 110.186 116.253C109.657 115.322 109.071 114.398 108.426 113.502C107.649 112.422 106.784 111.38 105.828 110.411C104.494 109.059 102.98 107.846 101.272 106.863C99.8786 106.062 98.3557 105.413 96.6953 104.965C95.9561 104.766 95.1896 104.607 94.3951 104.491C92.2822 104.185 90.3954 104.317 88.7144 104.784C87.017 105.257 85.5293 106.073 84.2306 107.128C82.7765 108.309 81.5591 109.791 80.549 111.427C79.523 113.089 78.7109 114.91 78.0818 116.738C77.0329 119.786 76.4929 122.853 76.3189 125.232C78.6276 124.512 81.012 125.735 82.0897 126.615C86.662 123.2 90.5687 125.345 91.9504 126.844C98.3714 122.258 102.987 126.544 104.492 129.261Z" fill="#EAEAEA"/>
<path d="M74.6633 126.138C71.9397 128.382 60.6513 145.595 55.3475 153.921C53.2835 157.819 53.195 164.223 69.3534 158.648C70.6936 153.878 75.1172 140.793 82.0897 126.615C81.012 125.735 78.6276 124.512 76.3189 125.232C75.7559 125.407 75.1973 125.698 74.6633 126.138Z" fill="#73628A"/>
<path d="M91.9504 126.844C90.5687 125.345 86.662 123.2 82.0897 126.615C75.1172 140.793 70.6936 153.878 69.3534 158.648C73.2107 160.307 81.8957 161.065 85.7765 150.834C86.7494 147.625 89.3463 138.334 91.9504 126.844Z" fill="#73628A"/>
<path d="M104.492 129.261C102.987 126.544 98.3714 122.258 91.9504 126.844C89.3463 138.334 86.7494 147.625 85.7765 150.834C92.0327 155.938 105.978 163.295 111.707 151.893C113.965 148.913 107.838 135.563 104.492 129.261Z" fill="#73628A"/>
<path d="M119.627 157.238C123.567 159.707 132.127 164.085 134.85 161.842C138.255 159.037 119.098 127.779 114.106 127.056C110.112 126.477 106.033 128.285 104.492 129.261C107.838 135.563 113.965 148.913 111.707 151.893L119.627 157.238Z" fill="#73628A"/>
<path d="M69.3534 158.648C62.944 188.401 58.6948 247.529 92.9726 246.019C127.25 244.509 125.025 186.202 119.627 157.238L111.707 151.893C105.978 163.295 92.0327 155.938 85.7765 150.834C81.8957 161.065 73.2107 160.307 69.3534 158.648Z" fill="#EAEAEA"/>
</svg>
