<svg width="192" height="254" viewBox="0 0 192 254" fill="none" xmlns="http://www.w3.org/2000/svg">
<path d="M110.089 26.5023C111.554 27.6971 115.281 30.0058 118.472 29.6821C122.461 29.2774 126.046 24.8836 113.674 22.1084C103.776 19.8883 107.16 24.1126 110.089 26.5023Z" fill="#698F40"/>
<path d="M111.303 38.4698C107.719 42.8637 108.123 46.8529 124.08 45.2342C129.349 44.6997 114.888 34.076 111.303 38.4698Z" fill="#698F40"/>
<path d="M126.855 32.8619C130.534 30.7524 138.546 28.6 141.161 36.8666C144.431 47.2 119.281 37.6605 126.855 32.8619Z" fill="#698F40"/>
<path fill-rule="evenodd" clip-rule="evenodd" d="M169.985 60.7295C140.384 7.30887 84.5921 3.33737 62.7196 13.7684C37.4743 25.8081 11.2965 45.8574 7.6418 89.2888C10.6485 87.0967 14.2559 84.7884 18.3987 82.487C26.3006 78.0973 36.1501 73.7324 47.4937 70.2457C56.13 67.5912 65.6324 65.4457 75.8007 64.186C82.8722 63.3099 90.2657 62.8621 97.914 62.9694C105.725 63.079 113.802 63.7674 122.072 65.1697C129.443 66.4193 136.967 68.2359 144.595 70.7148C152.079 73.1469 159.662 76.2167 167.297 80.0142C170.016 81.3669 172.742 82.8119 175.473 84.3534C176.589 77.7751 175.102 69.9645 169.985 60.7295ZM111.303 38.4698C107.719 42.8637 108.123 46.8529 124.08 45.2342C129.349 44.6997 114.888 34.076 111.303 38.4698ZM126.855 32.8619C130.534 30.7524 138.546 28.6 141.161 36.8666C144.431 47.2 119.281 37.6605 126.855 32.8619ZM118.472 29.6821C115.281 30.0058 111.554 27.6971 110.089 26.5023C107.16 24.1126 103.776 19.8883 113.674 22.1084C126.046 24.8836 122.461 29.2774 118.472 29.6821Z" fill="#73628A"/>
<path d="M122.072 65.1697C119.818 74.7354 106.892 97.105 100.71 107.094C102.416 108.075 103.927 109.286 105.26 110.637C115.949 102.078 138.782 82.1105 144.595 70.7148C136.967 68.2359 129.443 66.4193 122.072 65.1697Z" fill="#CBC5EA"/>
<path d="M144.595 70.7148C138.782 82.1105 115.949 102.078 105.26 110.637C106.214 111.605 107.077 112.644 107.854 113.723C127.854 106.335 167.742 89.2508 167.297 80.0142C159.662 76.2167 152.079 73.1469 144.595 70.7148Z" fill="#698F40"/>
<path d="M109.611 116.47C133.122 115.864 171.424 108.217 175.473 84.3534C172.742 82.8119 170.016 81.3669 167.297 80.0142C167.742 89.2508 127.854 106.335 107.854 113.723C108.498 114.618 109.083 115.54 109.611 116.47Z" fill="#CBC5EA"/>
<path d="M97.914 62.9694C97.9533 75.8739 97.6536 102.386 96.1398 105.199C97.7978 105.645 99.3185 106.293 100.71 107.094C106.892 97.105 119.818 74.7354 122.072 65.1697C113.802 63.7674 105.725 63.079 97.914 62.9694Z" fill="#698F40"/>
<path d="M88.1703 105.018C89.8489 104.551 91.7329 104.42 93.8428 104.726C94.6362 104.84 95.4016 105 96.1398 105.199C97.6536 102.386 97.9533 75.8739 97.914 62.9694C90.2657 62.8621 82.8722 63.3099 75.8007 64.186C78.7658 77.2856 85.391 103.791 88.1703 105.018Z" fill="#CBC5EA"/>
<path d="M47.4937 70.2457C57.6822 82.8724 79.186 107.972 83.6929 107.358C84.9898 106.304 86.4753 105.49 88.1703 105.018C85.391 103.791 78.7658 77.2856 75.8007 64.186C65.6324 65.4457 56.13 67.5912 47.4937 70.2457Z" fill="#698F40"/>
<path d="M18.3987 82.487C34.0595 91.8574 68.3082 110.809 80.0166 111.651C81.0252 110.017 82.2409 108.538 83.6929 107.358C79.186 107.972 57.6822 82.8724 47.4937 70.2457C36.1501 73.7324 26.3006 78.0973 18.3987 82.487Z" fill="#CBC5EA"/>
<path d="M7.6418 89.2888C12.3423 99.5649 32.9053 119.485 77.553 116.954C78.1811 115.129 78.9921 113.31 80.0166 111.651C68.3082 110.809 34.0595 91.8574 18.3987 82.487C14.2559 84.7884 10.6485 87.0967 7.6418 89.2888Z" fill="#698F40"/>
<path d="M103.926 129.459C105.464 128.484 109.538 126.68 113.526 127.257C113.063 124.45 111.837 120.388 109.611 116.47C109.083 115.54 108.498 114.618 107.854 113.723C107.077 112.644 106.214 111.605 105.26 110.637C103.927 109.286 102.416 108.075 100.71 107.094C99.3185 106.293 97.7978 105.645 96.1398 105.199C95.4016 105 94.6362 104.84 93.8428 104.726C91.7329 104.42 89.8489 104.551 88.1703 105.018C86.4753 105.49 84.9898 106.304 83.6929 107.358C82.2409 108.538 81.0252 110.017 80.0166 111.651C78.9921 113.31 78.1811 115.129 77.553 116.954C76.5055 119.998 75.9663 123.061 75.7926 125.436C78.098 124.717 80.4789 125.939 81.5551 126.817C86.1209 123.407 90.0219 125.549 91.4017 127.046C97.8134 122.466 102.423 126.747 103.926 129.459Z" fill="#EAEAEA"/>
<path d="M74.1394 126.341C71.4197 128.582 60.1474 145.77 54.8512 154.084C52.7902 157.977 52.7019 164.371 68.837 158.805C70.1753 154.042 74.5926 140.975 81.5551 126.817C80.4789 125.939 78.098 124.717 75.7926 125.436C75.2303 125.611 74.6726 125.902 74.1394 126.341Z" fill="#73628A"/>
<path d="M91.4017 127.046C90.0219 125.549 86.1209 123.407 81.5551 126.817C74.5926 140.975 70.1753 154.042 68.837 158.805C72.6889 160.461 81.3613 161.218 85.2366 151.002C86.2081 147.797 88.8013 138.52 91.4017 127.046Z" fill="#73628A"/>
<path d="M103.926 129.459C102.423 126.747 97.8134 122.466 91.4017 127.046C88.8013 138.52 86.2081 147.797 85.2366 151.002C91.4839 156.098 105.409 163.445 111.13 152.059C113.385 149.084 107.267 135.753 103.926 129.459Z" fill="#73628A"/>
<path d="M119.039 157.396C122.973 159.862 131.52 164.234 134.24 161.993C137.64 159.193 118.51 127.98 113.526 127.257C109.538 126.68 105.464 128.484 103.926 129.459C107.267 135.753 113.385 149.084 111.13 152.059L119.039 157.396Z" fill="#73628A"/>
<path d="M68.837 158.805C62.4369 188.515 58.1938 247.558 92.4224 246.05C126.651 244.542 124.429 186.319 119.039 157.396L111.13 152.059C105.409 163.445 91.4839 156.098 85.2366 151.002C81.3613 161.218 72.6889 160.461 68.837 158.805Z" fill="#EAEAEA"/>
</svg>
