<svg width="144" height="191" viewBox="0 0 144 191" fill="none" xmlns="http://www.w3.org/2000/svg">
<path d="M82.4389 20.3201C83.5373 21.2162 86.3326 22.9477 88.7261 22.7049C91.718 22.4014 94.4064 19.106 85.1272 17.0247C77.7039 15.3596 80.2419 18.5278 82.4389 20.3201Z" fill="#698F40"/>
<path d="M83.3494 29.2957C80.661 32.5911 80.9645 35.583 92.9321 34.369C96.8835 33.9681 86.0378 26.0003 83.3494 29.2957Z" fill="#698F40"/>
<path d="M95.0134 25.0898C97.7726 23.5077 103.781 21.8933 105.743 28.0933C108.195 35.8433 89.3332 28.6887 95.0134 25.0898Z" fill="#698F40"/>
<path fill-rule="evenodd" clip-rule="evenodd" d="M127.36 45.9905C105.16 5.92502 63.3161 2.94639 46.9118 10.7697C27.9778 19.7994 8.34442 34.8364 5.60342 67.4099C7.85846 65.7659 10.564 64.0347 13.6711 62.3086C19.5975 59.0163 26.9846 55.7426 35.4923 53.1276C41.9696 51.1367 49.0964 49.5277 56.7226 48.5828C62.0262 47.9257 67.5713 47.5899 73.3075 47.6704C79.1657 47.7526 85.2232 48.2689 91.4261 49.3206C96.954 50.2579 102.597 51.6203 108.318 53.4795C113.931 55.3036 119.618 57.6058 125.344 60.454C127.384 61.4685 129.429 62.5523 131.476 63.7084C132.314 58.7747 131.198 52.9168 127.36 45.9905ZM83.3494 29.2957C80.661 32.5911 80.9645 35.583 92.9321 34.369C96.8835 33.9681 86.0378 26.0003 83.3494 29.2957ZM95.0134 25.0898C97.7726 23.5077 103.781 21.8933 105.743 28.0933C108.195 35.8433 89.3332 28.6887 95.0134 25.0898ZM88.7261 22.7049C86.3326 22.9477 83.5373 21.2162 82.4389 20.3201C80.2419 18.5278 77.7039 15.3596 85.1272 17.0247C94.4064 19.106 91.718 22.4014 88.7261 22.7049Z" fill="#73628A"/>
<path d="M91.4261 49.3206C89.7358 56.4949 80.0408 73.2721 75.4046 80.7639C76.6838 81.5 77.8175 82.408 78.8169 83.4211C86.8341 77.0017 103.958 62.0263 108.318 53.4795C102.597 51.6203 96.954 50.2579 91.4261 49.3206Z" fill="#CBC5EA"/>
<path d="M108.318 53.4795C103.958 62.0263 86.8341 77.0017 78.8169 83.4211C79.5329 84.1469 80.18 84.9266 80.7623 85.7357C95.7623 80.1949 125.679 67.3815 125.344 60.454C119.618 57.6058 113.931 55.3036 108.318 53.4795Z" fill="#698F40"/>
<path d="M82.0804 87.7962C99.7132 87.3415 128.44 81.6061 131.476 63.7084C129.429 62.5523 127.384 61.4685 125.344 60.454C125.679 67.3815 95.7623 80.1949 80.7623 85.7357C81.2455 86.407 81.6841 87.0986 82.0804 87.7962Z" fill="#CBC5EA"/>
<path d="M73.3075 47.6704C73.3371 57.3488 73.1123 77.2329 71.9769 79.3422C73.2204 79.6774 74.3609 80.1634 75.4046 80.7639C80.0408 73.2721 89.7358 56.4949 91.4261 49.3206C85.2232 48.2689 79.1657 47.7526 73.3075 47.6704Z" fill="#698F40"/>
<path d="M65.9998 79.207C67.2587 78.8565 68.6718 78.7582 70.2542 78.9875C70.8492 79.0737 71.4232 79.193 71.9769 79.3422C73.1123 77.2329 73.3371 57.3488 73.3075 47.6704C67.5713 47.5899 62.0262 47.9257 56.7226 48.5828C58.9464 58.4075 63.9153 78.287 65.9998 79.207Z" fill="#CBC5EA"/>
<path d="M35.4923 53.1276C43.1337 62.5976 59.2615 81.4225 62.6417 80.9619C63.6144 80.1717 64.7285 79.5608 65.9998 79.207C63.9153 78.287 58.9464 58.4075 56.7226 48.5828C49.0964 49.5277 41.9696 51.1367 35.4923 53.1276Z" fill="#698F40"/>
<path d="M13.6711 62.3086C25.4167 69.3364 51.1032 83.55 59.8845 84.1815C60.641 82.9562 61.5527 81.8466 62.6417 80.9619C59.2615 81.4225 43.1337 62.5976 35.4923 53.1276C26.9846 55.7426 19.5975 59.0163 13.6711 62.3086Z" fill="#CBC5EA"/>
<path d="M5.60342 67.4099C9.1288 75.117 24.551 90.0568 58.0368 88.1592C58.5079 86.7901 59.1161 85.4261 59.8845 84.1815C51.1032 83.55 25.4167 69.3364 13.6711 62.3086C10.564 64.0347 7.85846 65.7659 5.60342 67.4099Z" fill="#698F40"/>
<path d="M77.8163 97.5377C78.97 96.8067 82.0253 95.4531 85.0162 95.8864C84.6694 93.781 83.7495 90.7343 82.0804 87.7962C81.6841 87.0986 81.2455 86.407 80.7623 85.7357C80.18 84.9266 79.5329 84.1469 78.8169 83.4211C77.8175 82.408 76.6838 81.5 75.4046 80.7639C74.3609 80.1634 73.2204 79.6774 71.9769 79.3422C71.4232 79.193 70.8492 79.0737 70.2542 78.9875C68.6718 78.7582 67.2587 78.8565 65.9998 79.207C64.7285 79.5608 63.6144 80.1717 62.6417 80.9619C61.5527 81.8466 60.641 82.9562 59.8845 84.1815C59.1161 85.4261 58.5079 86.7901 58.0368 88.1592C57.2512 90.4421 56.8468 92.7392 56.7165 94.5203C58.4455 93.9812 60.2312 94.8976 61.0384 95.5562C64.4627 92.9987 67.3885 94.6051 68.4233 95.728C73.2321 92.2932 76.6889 95.5033 77.8163 97.5377Z" fill="#EAEAEA"/>
<path d="M55.4766 95.1994C53.4368 96.8799 44.9826 109.771 41.0105 116.006C39.4647 118.926 39.3985 123.722 51.4998 119.547C52.5036 115.974 55.8165 106.175 61.0384 95.5562C60.2312 94.8976 58.4455 93.9812 56.7165 94.5203C56.2948 94.6518 55.8765 94.8699 55.4766 95.1994Z" fill="#73628A"/>
<path d="M68.4233 95.728C67.3885 94.6051 64.4627 92.9987 61.0384 95.5562C55.8165 106.175 52.5036 115.974 51.4998 119.547C54.3887 120.789 60.8931 121.357 63.7995 113.695C64.5282 111.291 66.473 104.333 68.4233 95.728Z" fill="#73628A"/>
<path d="M77.8163 97.5377C76.6889 95.5033 73.2321 92.2932 68.4233 95.728C66.473 104.333 64.5282 111.291 63.7995 113.695C68.485 117.517 78.9286 123.027 83.2196 114.487C84.9108 112.256 80.322 102.258 77.8163 97.5377Z" fill="#73628A"/>
<path d="M89.1511 118.49C92.1015 120.34 98.5124 123.619 100.552 121.938C103.102 119.838 88.7549 96.4281 85.0162 95.8864C82.0253 95.4531 78.97 96.8067 77.8163 97.5377C80.322 102.258 84.9108 112.256 83.2196 114.487L89.1511 118.49Z" fill="#73628A"/>
<path d="M51.4998 119.547C46.6997 141.829 43.5174 186.112 69.1889 184.981C94.8604 183.85 93.1935 140.183 89.1511 118.49L83.2196 114.487C78.9286 123.027 68.485 117.517 63.7995 113.695C60.8931 121.357 54.3887 120.789 51.4998 119.547Z" fill="#EAEAEA"/>
</svg>
