<svg width="351" height="250" viewBox="0 0 351 250" fill="none" xmlns="http://www.w3.org/2000/svg">
<path d="M102.726 24.9632C104.19 26.158 107.917 28.4668 111.109 28.143C115.098 27.7384 118.683 23.3445 106.31 20.5693C96.4125 18.3492 99.7965 22.5735 102.726 24.9632Z" fill="#698F40"/>
<path d="M103.94 36.9308C100.355 41.3246 100.76 45.3138 116.717 43.6951C121.985 43.1607 107.524 32.5369 103.94 36.9308Z" fill="#698F40"/>
<path d="M119.492 31.3229C123.171 29.2133 131.182 27.0609 133.798 35.3276C137.067 45.6609 111.918 36.1214 119.492 31.3229Z" fill="#698F40"/>
<path fill-rule="evenodd" clip-rule="evenodd" d="M162.621 59.1904C133.021 5.76981 77.2288 1.7983 55.3563 12.2294C30.111 24.269 3.93319 44.3183 0.278524 87.7497C3.28524 85.5576 6.89266 83.2494 11.0354 80.9479C18.9373 76.5582 28.7868 72.1933 40.1304 68.7067C48.7668 66.0521 58.2691 63.9067 68.4374 62.6469C75.5089 61.7708 82.9024 61.323 90.5507 61.4303C98.3616 61.5399 106.438 62.2283 114.709 63.6306C122.079 64.8803 129.604 66.6968 137.232 69.1757C144.715 71.6079 152.299 74.6776 159.933 78.4751C162.653 79.8278 165.379 81.2729 168.109 82.8143C169.225 76.2361 167.738 68.4255 162.621 59.1904ZM103.94 36.9308C100.355 41.3246 100.76 45.3138 116.717 43.6951C121.985 43.1607 107.524 32.5369 103.94 36.9308ZM119.492 31.3229C123.171 29.2133 131.182 27.0609 133.798 35.3276C137.067 45.6609 111.918 36.1214 119.492 31.3229ZM111.109 28.143C107.917 28.4668 104.19 26.158 102.726 24.9632C99.7965 22.5735 96.4125 18.3492 106.31 20.5693C118.683 23.3445 115.098 27.7384 111.109 28.143Z" fill="#73628A"/>
<path d="M114.709 63.6306C112.455 73.1963 99.5284 95.566 93.3468 105.555C95.0524 106.536 96.5639 107.747 97.8965 109.098C108.586 100.539 131.419 80.5715 137.232 69.1757C129.604 66.6968 122.079 64.8803 114.709 63.6306Z" fill="#CBC5EA"/>
<path d="M137.232 69.1757C131.419 80.5715 108.586 100.539 97.8965 109.098C98.8512 110.066 99.714 111.105 100.49 112.184C120.49 104.796 160.379 87.7118 159.933 78.4751C152.299 74.6776 144.715 71.6079 137.232 69.1757Z" fill="#698F40"/>
<path d="M102.248 114.931C125.758 114.325 164.061 106.678 168.109 82.8143C165.379 81.2729 162.653 79.8278 159.933 78.4751C160.379 87.7118 120.49 104.796 100.49 112.184C101.135 113.079 101.719 114.001 102.248 114.931Z" fill="#CBC5EA"/>
<path d="M90.5507 61.4303C90.5901 74.3348 90.2903 100.847 88.7765 103.659C90.4345 104.106 91.9552 104.754 93.3468 105.555C99.5284 95.566 112.455 73.1963 114.709 63.6306C106.438 62.2283 98.3616 61.5399 90.5507 61.4303Z" fill="#698F40"/>
<path d="M80.807 103.479C82.4856 103.012 84.3697 102.881 86.4796 103.186C87.2729 103.301 88.0383 103.46 88.7765 103.659C90.2903 100.847 90.5901 74.3348 90.5507 61.4303C82.9024 61.323 75.5089 61.7708 68.4374 62.6469C71.4026 75.7465 78.0277 102.252 80.807 103.479Z" fill="#CBC5EA"/>
<path d="M40.1304 68.7067C50.3189 81.3333 71.8227 106.433 76.3296 105.819C77.6265 104.765 79.112 103.951 80.807 103.479C78.0277 102.252 71.4026 75.7465 68.4374 62.6469C58.2691 63.9067 48.7668 66.0521 40.1304 68.7067Z" fill="#698F40"/>
<path d="M11.0354 80.9479C26.6962 90.3184 60.9449 109.27 72.6533 110.112C73.662 108.478 74.8776 106.999 76.3296 105.819C71.8227 106.433 50.3189 81.3333 40.1304 68.7067C28.7868 72.1933 18.9373 76.5582 11.0354 80.9479Z" fill="#CBC5EA"/>
<path d="M0.278524 87.7497C4.97903 98.0259 25.542 117.946 70.1897 115.415C70.8179 113.59 71.6288 111.771 72.6533 110.112C60.9449 109.27 26.6962 90.3184 11.0354 80.9479C6.89266 83.2494 3.28524 85.5576 0.278524 87.7497Z" fill="#698F40"/>
<path d="M96.5623 127.92C98.1007 126.945 102.174 125.141 106.162 125.718C105.7 122.911 104.473 118.849 102.248 114.931C101.719 114.001 101.135 113.079 100.49 112.184C99.714 111.105 98.8512 110.066 97.8965 109.098C96.5639 107.747 95.0524 106.536 93.3468 105.555C91.9552 104.754 90.4345 104.106 88.7765 103.659C88.0383 103.46 87.2729 103.301 86.4796 103.186C84.3697 102.881 82.4856 103.012 80.807 103.479C79.112 103.951 77.6265 104.765 76.3296 105.819C74.8776 106.999 73.662 108.478 72.6533 110.112C71.6288 111.771 70.8179 113.59 70.1897 115.415C69.1423 118.459 68.6031 121.522 68.4293 123.897C70.7347 123.178 73.1156 124.4 74.1919 125.278C78.7576 121.868 82.6586 124.01 84.0384 125.507C90.4501 120.927 95.0592 125.208 96.5623 127.92Z" fill="#EAEAEA"/>
<path d="M66.7761 124.802C64.0564 127.043 52.7841 144.231 47.488 152.545C45.4269 156.438 45.3386 162.832 61.4737 157.266C62.812 152.502 67.2293 139.436 74.1919 125.278C73.1156 124.4 70.7347 123.178 68.4293 123.897C67.8671 124.072 67.3093 124.363 66.7761 124.802Z" fill="#73628A"/>
<path d="M84.0384 125.507C82.6586 124.01 78.7576 121.868 74.1919 125.278C67.2293 139.436 62.812 152.502 61.4737 157.266C65.3256 158.922 73.9981 159.679 77.8733 149.463C78.8448 146.258 81.438 136.981 84.0384 125.507Z" fill="#73628A"/>
<path d="M96.5623 127.92C95.0592 125.208 90.4501 120.927 84.0384 125.507C81.438 136.981 78.8448 146.258 77.8733 149.463C84.1206 154.559 98.0455 161.906 103.767 150.52C106.022 147.545 99.9033 134.214 96.5623 127.92Z" fill="#73628A"/>
<path d="M111.675 155.857C115.609 158.323 124.157 162.695 126.877 160.454C130.276 157.654 111.147 126.441 106.162 125.718C102.174 125.141 98.1007 126.945 96.5623 127.92C99.9033 134.214 106.022 147.545 103.767 150.52L111.675 155.857Z" fill="#73628A"/>
<path d="M61.4737 157.266C55.0736 186.976 50.8305 246.019 85.0591 244.511C119.288 243.003 117.065 184.78 111.675 155.857L103.767 150.52C98.0455 161.906 84.1206 154.559 77.8733 149.463C73.9981 159.679 65.3256 158.922 61.4737 157.266Z" fill="#EAEAEA"/>
<path d="M277.726 24.963C279.19 26.1578 282.917 28.4666 286.109 28.1428C290.098 27.7382 293.683 23.3443 281.31 20.5691C271.412 18.349 274.797 22.5733 277.726 24.963Z" fill="#698F40"/>
<path d="M278.94 36.9306C275.355 41.3244 275.76 45.3136 291.717 43.6949C296.985 43.1605 282.524 32.5367 278.94 36.9306Z" fill="#698F40"/>
<path d="M294.492 31.3227C298.171 29.2131 306.182 27.0607 308.798 35.3274C312.067 45.6607 286.918 36.1212 294.492 31.3227Z" fill="#698F40"/>
<path fill-rule="evenodd" clip-rule="evenodd" d="M337.621 59.1902C308.021 5.76958 252.229 1.79807 230.356 12.2291C205.111 24.2688 178.933 44.3181 175.279 87.7496C178.285 85.5575 181.893 83.2492 186.035 80.9478C193.937 76.558 203.787 72.1931 215.13 68.7065C223.767 66.052 233.269 63.9065 243.437 62.6467C250.509 61.7706 257.902 61.3229 265.551 61.4302C273.362 61.5397 281.438 62.2282 289.709 63.6304C297.079 64.8801 304.604 66.6966 312.232 69.1756C319.715 71.6077 327.299 74.6774 334.933 78.475C337.653 79.8277 340.379 81.2727 343.109 82.8142C344.225 76.2359 342.738 68.4253 337.621 59.1902ZM278.94 36.9306C275.355 41.3244 275.76 45.3136 291.717 43.6949C296.985 43.1605 282.524 32.5367 278.94 36.9306ZM294.492 31.3227C298.171 29.2131 306.182 27.0607 308.798 35.3274C312.067 45.6607 286.918 36.1212 294.492 31.3227ZM286.109 28.1428C282.917 28.4666 279.19 26.1578 277.726 24.963C274.797 22.5733 271.412 18.349 281.31 20.5691C293.683 23.3443 290.098 27.7382 286.109 28.1428Z" fill="#73628A"/>
<path d="M289.709 63.6304C287.455 73.1962 274.528 95.5658 268.347 105.555C270.052 106.536 271.564 107.747 272.896 109.098C283.586 100.539 306.418 80.5713 312.232 69.1756C304.604 66.6966 297.079 64.8801 289.709 63.6304Z" fill="#698F40"/>
<path d="M312.232 69.1756C306.418 80.5713 283.586 100.539 272.896 109.098C273.851 110.066 274.714 111.105 275.49 112.184C295.49 104.796 335.379 87.7116 334.933 78.475C327.299 74.6774 319.715 71.6077 312.232 69.1756Z" fill="#CBC5EA"/>
<path d="M277.248 114.931C300.758 114.325 339.061 106.678 343.109 82.8142C340.379 81.2727 337.653 79.8277 334.933 78.475C335.379 87.7116 295.49 104.796 275.49 112.184C276.135 113.079 276.719 114.001 277.248 114.931Z" fill="#698F40"/>
<path d="M265.551 61.4302C265.59 74.3347 265.29 100.847 263.776 103.659C265.434 104.106 266.955 104.754 268.347 105.555C274.528 95.5658 287.455 73.1962 289.709 63.6304C281.438 62.2282 273.362 61.5397 265.551 61.4302Z" fill="#CBC5EA"/>
<path d="M255.807 103.479C257.486 103.012 259.37 102.881 261.48 103.186C262.273 103.301 263.038 103.46 263.776 103.659C265.29 100.847 265.59 74.3347 265.551 61.4302C257.902 61.3229 250.509 61.7706 243.437 62.6467C246.403 75.7464 253.028 102.252 255.807 103.479Z" fill="#698F40"/>
<path d="M215.13 68.7065C225.319 81.3332 246.823 106.433 251.33 105.819C252.626 104.765 254.112 103.951 255.807 103.479C253.028 102.252 246.403 75.7464 243.437 62.6467C233.269 63.9065 223.767 66.052 215.13 68.7065Z" fill="#CBC5EA"/>
<path d="M186.035 80.9478C201.696 90.3182 235.945 109.27 247.653 110.112C248.662 108.478 249.878 106.999 251.33 105.819C246.823 106.433 225.319 81.3332 215.13 68.7065C203.787 72.1931 193.937 76.558 186.035 80.9478Z" fill="#698F40"/>
<path d="M175.279 87.7496C179.979 98.0257 200.542 117.945 245.19 115.415C245.818 113.59 246.629 111.771 247.653 110.112C235.945 109.27 201.696 90.3182 186.035 80.9478C181.893 83.2492 178.285 85.5575 175.279 87.7496Z" fill="#CBC5EA"/>
<path d="M271.562 127.92C273.101 126.945 277.174 125.14 281.162 125.718C280.7 122.911 279.473 118.849 277.248 114.931C276.719 114.001 276.135 113.079 275.49 112.184C274.714 111.105 273.851 110.066 272.896 109.098C271.564 107.747 270.052 106.536 268.347 105.555C266.955 104.754 265.434 104.106 263.776 103.659C263.038 103.46 262.273 103.301 261.48 103.186C259.37 102.881 257.486 103.012 255.807 103.479C254.112 103.951 252.626 104.765 251.33 105.819C249.878 106.999 248.662 108.478 247.653 110.112C246.629 111.771 245.818 113.59 245.19 115.415C244.142 118.459 243.603 121.522 243.429 123.897C245.735 123.178 248.116 124.4 249.192 125.278C253.758 121.868 257.659 124.01 259.038 125.507C265.45 120.927 270.059 125.207 271.562 127.92Z" fill="#EAEAEA"/>
<path d="M241.776 124.802C239.056 127.043 227.784 144.231 222.488 152.545C220.427 156.438 220.339 162.832 236.474 157.266C237.812 152.502 242.229 139.436 249.192 125.278C248.116 124.4 245.735 123.178 243.429 123.897C242.867 124.072 242.309 124.363 241.776 124.802Z" fill="#73628A"/>
<path d="M259.038 125.507C257.659 124.01 253.758 121.868 249.192 125.278C242.229 139.436 237.812 152.502 236.474 157.266C240.326 158.922 248.998 159.679 252.873 149.463C253.845 146.258 256.438 136.981 259.038 125.507Z" fill="#73628A"/>
<path d="M271.562 127.92C270.059 125.207 265.45 120.927 259.038 125.507C256.438 136.981 253.845 146.258 252.873 149.463C259.121 154.559 273.045 161.906 278.767 150.52C281.022 147.545 274.903 134.214 271.562 127.92Z" fill="#73628A"/>
<path d="M286.675 155.857C290.609 158.323 299.157 162.695 301.877 160.454C305.276 157.654 286.147 126.44 281.162 125.718C277.174 125.14 273.101 126.945 271.562 127.92C274.903 134.214 281.022 147.545 278.767 150.52L286.675 155.857Z" fill="#73628A"/>
<path d="M236.474 157.266C230.074 186.976 225.83 246.019 260.059 244.511C294.288 243.003 292.065 184.78 286.675 155.857L278.767 150.52C273.045 161.906 259.121 154.559 252.873 149.463C248.998 159.679 240.326 158.922 236.474 157.266Z" fill="#EAEAEA"/>
</svg>
