<svg width="349" height="340" viewBox="0 0 349 340" fill="none" xmlns="http://www.w3.org/2000/svg">
<path d="M66.8123 338.931C54.1862 263.175 31.4592 99.0356 41.5601 48.5312" stroke="#698F40" stroke-width="1.99713"/>
<path d="M19.4671 7.50057C4.31577 30.2275 25.7801 56.9527 38.4062 67.4745C53.1366 53.796 80.0721 23.9137 69.9712 13.8129C59.8704 3.71199 46.8234 26.4394 41.5625 39.0658C40.5104 19.0745 34.6184 -15.2264 19.4671 7.50057Z" fill="#73628A"/>
<path d="M3.67993 67.4641C-10.7912 90.6301 28.5261 128.078 41.4584 138.221C60.4972 127.438 83.519 96.2007 73.1233 86.4036C62.7275 76.6065 48.6559 96.9544 43.7715 109.731C42.1274 89.7797 18.1511 44.2982 3.67993 67.4641Z" fill="#73628A"/>
<path d="M3.68053 140.073C-10.7906 163.239 34.5201 193.06 47.4525 203.203C66.4912 192.42 92.1461 162.394 81.7503 152.597C71.3546 142.8 52.3369 158.882 47.4525 171.658C45.8084 151.707 18.1517 116.907 3.68053 140.073Z" fill="#73628A"/>
<path d="M16.5556 218.755C2.08442 241.921 44.1633 265.885 57.0957 276.028C76.1344 265.246 92.9906 228.551 82.5948 218.754C72.1991 208.957 55.9138 228.312 51.0294 241.088C44.7163 222.147 31.0268 195.589 16.5556 218.755Z" fill="#73628A"/>
<path d="M153.99 338.931C141.364 263.175 118.637 99.0356 128.738 48.5312" stroke="#698F40" stroke-width="1.99713"/>
<path d="M106.645 7.50057C91.4935 30.2275 112.958 56.9527 125.584 67.4745C140.314 53.796 167.25 23.9137 157.149 13.8129C147.048 3.71199 134.001 26.4394 128.74 39.0658C127.688 19.0745 121.796 -15.2264 106.645 7.50057Z" fill="#CBC5EA"/>
<path d="M90.8577 67.4641C76.3865 90.6301 115.704 128.078 128.636 138.221C147.675 127.438 170.697 96.2007 160.301 86.4036C149.905 76.6065 135.834 96.9544 130.949 109.731C129.305 89.7797 105.329 44.2982 90.8577 67.4641Z" fill="#73628A"/>
<path d="M90.8583 140.073C76.3871 163.239 121.698 193.06 134.63 203.203C153.669 192.42 179.324 162.394 168.928 152.597C158.532 142.8 139.515 158.882 134.63 171.658C132.986 151.707 105.329 116.907 90.8583 140.073Z" fill="#CBC5EA"/>
<path d="M103.733 218.755C89.2622 241.921 131.341 265.885 144.273 276.028C163.312 265.246 180.168 228.551 169.773 218.754C159.377 208.957 143.092 228.312 138.207 241.088C131.894 222.147 118.204 195.589 103.733 218.755Z" fill="#73628A"/>
<path d="M241.168 338.931C228.542 263.175 205.815 99.0356 215.916 48.5312" stroke="#698F40" stroke-width="1.99713"/>
<path d="M193.823 7.50057C178.671 30.2275 200.136 56.9527 212.762 67.4745C227.492 53.796 254.428 23.9137 244.327 13.8129C234.226 3.712 221.179 26.4395 215.918 39.0658C214.866 19.0745 208.974 -15.2264 193.823 7.50057Z" fill="#CBC5EA"/>
<path d="M178.035 67.4641C163.564 90.6301 202.882 128.078 215.814 138.221C234.853 127.438 257.874 96.2007 247.479 86.4036C237.083 76.6065 223.011 96.9544 218.127 109.731C216.483 89.7797 192.507 44.2982 178.035 67.4641Z" fill="#EAEAEA"/>
<path d="M178.036 140.073C163.565 163.239 208.876 193.06 221.808 203.203C240.847 192.42 266.502 162.394 256.106 152.597C245.71 142.8 226.692 158.882 221.808 171.658C220.164 151.707 192.507 116.907 178.036 140.073Z" fill="#CBC5EA"/>
<path d="M190.911 218.754C176.44 241.92 218.519 265.885 231.451 276.028C250.49 265.246 267.346 228.551 256.95 218.754C246.555 208.957 230.269 228.311 225.385 241.088C219.072 222.147 205.382 195.588 190.911 218.754Z" fill="#EAEAEA"/>
<path d="M328.345 338.931C315.719 263.175 292.992 99.0356 303.093 48.5312" stroke="#698F40" stroke-width="1.99713"/>
<path d="M281 7.50057C265.849 30.2275 287.313 56.9527 299.939 67.4745C314.67 53.796 341.605 23.9137 331.504 13.8129C321.404 3.71199 308.357 26.4394 303.096 39.0658C302.044 19.0745 296.152 -15.2264 281 7.50057Z" fill="#73628A"/>
<path d="M265.213 67.4641C250.742 90.6301 290.059 128.078 302.992 138.221C322.03 127.438 345.052 96.2007 334.656 86.4036C324.261 76.6065 310.189 96.9544 305.305 109.731C303.661 89.7797 279.684 44.2982 265.213 67.4641Z" fill="#EAEAEA"/>
<path d="M265.214 140.073C250.743 163.239 296.053 193.06 308.986 203.203C328.024 192.42 353.679 162.394 343.284 152.597C332.888 142.8 313.87 158.882 308.986 171.658C307.342 151.707 279.685 116.907 265.214 140.073Z" fill="#73628A"/>
<path d="M278.089 218.755C263.618 241.921 305.697 265.885 318.629 276.028C337.668 265.246 354.524 228.551 344.128 218.754C333.732 208.957 317.447 228.312 312.563 241.088C306.249 222.147 292.56 195.589 278.089 218.755Z" fill="#EAEAEA"/>
</svg>
