<svg width="88" height="341" viewBox="0 0 88 341" fill="none" xmlns="http://www.w3.org/2000/svg">
<path d="M67.36 340.18C54.7158 264.315 31.9562 99.9402 42.0715 49.3633" stroke="#698F40" stroke-width="2"/>
<path d="M19.9433 8.27307C4.77024 31.0327 26.2654 57.7963 38.9096 68.3331C53.6612 54.635 80.6354 24.7098 70.52 14.5944C60.4046 4.47905 47.3389 27.2391 42.0705 39.8836C41.0169 19.8636 35.1164 -14.4865 19.9433 8.27307Z" fill="#73628A"/>
<path d="M4.13639 68.3244C-10.3556 91.5236 29.0182 129.025 41.9691 139.183C61.0352 128.385 84.0902 97.1022 73.6795 87.2911C63.2688 77.4799 49.177 97.857 44.2856 110.652C42.6391 90.672 18.6283 45.1251 4.13639 68.3244Z" fill="#73628A"/>
<path d="M4.13648 141.037C-10.3555 164.236 35.0204 194.099 47.9713 204.257C67.0374 193.459 92.7291 163.39 82.3184 153.579C71.9077 143.767 52.8627 159.872 47.9713 172.667C46.3249 152.687 18.6284 117.837 4.13648 141.037Z" fill="#73628A"/>
<path d="M17.0314 219.833C2.53943 243.033 44.6788 267.032 57.6297 277.189C76.6958 266.391 93.5762 229.644 83.1655 219.833C72.7548 210.022 56.4461 229.404 51.5547 242.199C45.2325 223.231 31.5233 196.634 17.0314 219.833Z" fill="#73628A"/>
</svg>
