<svg width="88" height="340" viewBox="0 0 88 340" fill="none" xmlns="http://www.w3.org/2000/svg">
<path d="M67.2947 339.607C54.6686 263.85 31.9417 99.7114 42.0425 49.207" stroke="#698F40" stroke-width="1.99713"/>
<path d="M19.9495 8.17635C4.79819 30.9033 26.2625 57.6285 38.8886 68.1503C53.619 54.4717 80.5545 24.5895 70.4537 14.4886C60.3528 4.38778 47.3058 27.1152 42.045 39.7416C40.9928 19.7503 35.1008 -14.5506 19.9495 8.17635Z" fill="#73628A"/>
<path d="M4.16235 68.1399C-10.3088 91.3059 29.0085 128.754 41.9408 138.897C60.9796 128.114 84.0014 96.8765 73.6057 87.0794C63.2099 77.2823 49.1383 97.6302 44.2539 110.407C42.6099 90.4555 18.6335 44.974 4.16235 68.1399Z" fill="#73628A"/>
<path d="M4.16295 140.749C-10.3082 163.915 35.0026 193.736 47.9349 203.879C66.9737 193.096 92.6285 163.07 82.2327 153.273C71.837 143.476 52.8193 159.558 47.9349 172.334C46.2908 152.383 18.6341 117.583 4.16295 140.749Z" fill="#73628A"/>
<path d="M17.038 219.43C2.56684 242.596 44.6458 266.561 57.5781 276.704C76.6169 265.922 93.473 229.227 83.0772 219.43C72.6815 209.633 56.3962 228.987 51.5118 241.764C45.1987 222.823 31.5092 196.265 17.038 219.43Z" fill="#73628A"/>
</svg>
