<svg width="162" height="160" viewBox="0 0 162 160" fill="none" xmlns="http://www.w3.org/2000/svg">
<path d="M68.6443 151.622C98.021 170.869 102.833 148.667 101.566 135.161C127.904 137.187 134.489 121.654 134.488 113.635C158.8 113.635 154.748 94.2194 149.683 84.5116C168.93 67.2909 160.235 57.0765 153.482 54.1219C132.209 45.005 130.268 59.6088 131.956 68.0503C106.631 63.9982 113.807 86.6217 120.56 98.44C106.378 98.44 100.3 110.258 99.0339 116.167C104.099 89.8298 88.4819 88.3103 80.0403 90.8428C91.1832 67.544 78.7741 61.7193 71.1767 61.7193C73.2026 54.6284 76.2416 42.7257 77.5079 37.6606C80.5468 20.4397 57.6702 23.732 45.852 27.5308C61.0468 1.90974 43.7416 -0.871968 33.1896 0.939808C4.82586 16.1346 21.3714 31.7515 33.1896 37.6606C1.78698 48.8035 28.5468 62.5633 45.852 68.0503C21.5403 89.3231 43.3195 97.1737 57.2481 98.44C45.0922 108.57 53.8715 122.076 59.7806 127.563C45.5987 114.395 34.4559 119.544 30.6572 123.765C29.391 111.524 22.8066 90.8426 6.59878 106.037C-9.60904 121.232 10.8196 134.317 23.0598 138.96C29.1378 166.31 55.982 158.797 68.6443 151.622Z" fill="#698F40"/>
</svg>
