<svg width="216" height="212" viewBox="0 0 216 212" fill="none" xmlns="http://www.w3.org/2000/svg">
<path d="M91.6977 201.915C130.867 227.578 137.282 197.976 135.594 179.967C170.711 182.668 179.49 161.958 179.49 151.266C211.906 151.266 206.503 125.378 199.75 112.435C225.412 89.4739 213.819 75.8547 204.815 71.9152C176.451 59.7593 173.862 79.231 176.113 90.4864C142.347 85.0835 151.914 115.248 160.918 131.006C142.009 131.006 133.905 146.764 132.217 154.643C138.97 119.526 118.148 117.5 106.892 120.876C121.75 89.8113 105.204 82.0451 95.0742 82.0451C97.7753 72.5905 101.827 56.7202 103.516 49.9668C107.568 27.0055 77.0655 31.3953 61.3079 36.4603C81.5676 2.29892 58.494 -1.41002 44.4247 1.00568C6.60636 21.2655 28.6671 42.088 44.4247 49.9668C2.55451 64.824 38.2342 83.1703 61.3079 90.4864C28.8922 118.85 57.9312 129.318 76.5027 131.006C60.2949 144.512 72.0005 162.521 79.8793 169.837C60.9702 152.279 46.113 159.145 41.0481 164.772C39.3598 148.452 30.5807 120.876 8.97025 141.136C-12.6402 161.396 14.598 178.842 30.9183 185.032C39.0223 221.5 74.8145 211.482 91.6977 201.915Z" fill="#698F40"/>
</svg>
