<svg width="825" height="213" viewBox="0 0 825 213" fill="none" xmlns="http://www.w3.org/2000/svg">
<path d="M90.7289 201.501C129.898 227.163 136.313 197.562 134.625 179.553C169.742 182.254 178.521 161.544 178.521 150.852C210.937 150.852 205.534 124.964 198.781 112.021C224.443 89.0598 212.85 75.4406 203.846 71.5011C175.482 59.3452 172.893 78.817 175.145 90.0723C141.378 84.6695 150.945 114.834 159.95 130.592C141.041 130.592 132.937 146.35 131.248 154.229C138.002 119.112 117.179 117.086 105.924 120.462C120.781 89.3973 104.235 81.631 94.1054 81.631C96.8066 72.1764 100.859 56.3061 102.547 49.5527C106.599 26.5914 76.0967 30.9812 60.3391 36.0462C80.5989 1.88486 57.5253 -1.82408 43.456 0.59162C5.63761 20.8514 27.6983 41.6739 43.456 49.5527C1.58576 64.4099 37.2655 82.7563 60.3391 90.0723C27.9235 118.436 56.9625 128.904 75.5339 130.592C59.3261 144.098 71.0318 162.107 78.9106 169.423C60.0014 151.865 45.1443 158.73 40.0793 164.358C38.3911 148.038 29.6119 120.462 8.0015 140.722C-13.6089 160.982 13.6292 178.427 29.9496 184.618C38.0535 221.086 73.8458 211.068 90.7289 201.501Z" fill="#698F40"/>
<path d="M512.249 202.79C551.418 228.453 557.833 198.851 556.145 180.842C556.145 157.289 600.041 162.833 600.041 152.141C600.041 131.881 627.054 126.254 620.301 113.31C608.85 91.3614 635.021 76.0034 613.521 66.7891C585.157 54.6333 594.413 80.1061 596.664 91.3614C562.898 85.9586 572.465 116.123 581.47 131.881C562.56 131.881 554.457 147.639 552.768 155.518C559.521 120.401 542.776 128.909 531.521 132.285C546.378 101.22 524.65 108.285 514.521 108.285C515.974 99.1297 528.925 58.7448 530.613 51.9915C534.665 29.0302 488.778 35.2201 473.021 40.2852C493.28 6.12379 477.521 -4.84398 464.976 1.88073C427.157 22.1405 459.263 46.9089 475.021 54.7877C433.15 69.6448 459.357 79.0069 482.43 86.3229C450.015 114.687 481.859 124.597 500.43 126.285C484.223 139.792 492.552 163.396 500.43 170.712C481.521 153.154 463.062 179.789 461.599 165.647C459.911 149.327 457.131 129.529 435.52 149.789C413.91 170.049 447.444 167.789 451.469 185.907C459.573 222.375 492.521 189.865 512.249 202.79Z" fill="#698F40"/>
<path d="M304.623 202.001C330.894 185.118 295.894 154.729 348.519 180.053C383.636 182.754 392.415 162.044 392.415 151.352C392.415 127.129 373.844 120.962 412.675 112.521C438.337 89.5598 426.744 75.9407 417.74 72.0012C389.376 59.8453 419.899 90.5724 389.039 90.5724C355.272 85.1695 342.899 112.521 373.844 131.092C354.935 131.092 346.831 146.85 345.142 154.729C340.899 169.923 304.623 141.222 319.818 120.962C334.675 89.8973 302.143 102.629 307.999 82.1311C310.701 72.6765 314.753 56.8062 316.441 50.0528C330.954 -7.99992 289.991 31.4813 274.233 36.5463C248.764 44.8617 271.419 -1.324 257.35 1.0917C219.532 21.3515 241.592 42.174 257.35 50.0528C215.48 64.91 251.16 83.2563 274.233 90.5724C301.894 99.3429 301.584 120.962 289.428 131.092C273.22 144.598 284.926 162.607 292.805 169.923C273.896 152.365 259.038 159.231 253.973 164.858C228.286 177.129 259.4 101.629 221.896 141.222C201.525 162.727 227.523 178.928 243.844 185.118C251.948 221.586 287.74 211.568 304.623 202.001Z" fill="#698F40"/>
<path d="M712.512 204.988C738.783 188.105 703.783 157.715 756.408 183.04C783.813 196.228 800.304 165.031 800.304 154.339C800.304 130.116 781.732 123.949 820.564 115.508C830.813 113.279 820.564 58.9869 808.313 58.9869C740.639 58.9869 825.813 98.1812 796.927 93.5592C763.161 88.1564 750.788 115.508 781.732 134.079C737.813 125.487 742.813 148.987 753.031 157.715C766.313 169.062 712.512 144.209 727.706 123.949C742.564 92.8842 759.813 43.4869 715.888 85.1179C708.751 91.8819 679.297 84.934 713.813 58.9869C761.645 23.03 697.571 42.4357 681.813 47.5007C656.345 55.8161 679.308 1.66287 665.239 4.07857C627.42 24.3383 649.481 60.1081 665.239 67.9869C684.313 77.5242 700.505 56.4869 675.313 93.5592C659.004 117.56 712.973 131.791 697.317 134.079C660.313 139.487 692.815 165.594 700.693 172.91C709.813 181.379 670.813 163.569 661.862 167.845C610.813 192.23 667.289 104.616 629.784 144.209C609.413 165.714 635.412 181.914 651.732 188.105C678.313 198.187 695.629 214.555 712.512 204.988Z" fill="#698F40"/>
</svg>
