<svg width="216" height="213" viewBox="0 0 216 213" fill="none" xmlns="http://www.w3.org/2000/svg">
<path d="M91.4022 202.103C130.627 227.802 137.052 198.158 135.361 180.123C170.529 182.828 179.321 162.089 179.321 151.381C211.783 151.381 206.372 125.456 199.609 112.494C225.309 89.5002 213.699 75.8615 204.682 71.9163C176.277 59.743 173.685 79.2427 175.939 90.5142C142.124 85.1036 151.705 115.312 160.722 131.092C141.786 131.092 133.671 146.872 131.98 154.763C138.743 119.595 117.89 117.566 106.619 120.948C121.497 89.8382 104.928 82.0608 94.7836 82.0608C97.4886 72.5926 101.546 56.6995 103.237 49.9364C107.295 26.9421 76.749 31.3382 60.9688 36.4105C81.2576 2.20006 58.1509 -1.5142 44.0614 0.90497C6.18867 21.1938 28.2811 42.0463 44.0614 49.9364C2.13101 64.8149 37.862 83.1877 60.9688 90.5142C28.5066 118.919 57.5873 129.401 76.1854 131.092C59.9543 144.618 71.6768 162.652 79.5669 169.979C60.6306 152.395 45.7521 159.271 40.6799 164.907C38.9892 148.563 30.1974 120.948 8.55596 141.236C-13.0855 161.525 14.1918 178.996 30.5356 185.196C38.6511 221.716 74.4948 211.684 91.4022 202.103Z" fill="#698F40"/>
</svg>
