<svg width="856" height="212" viewBox="0 0 856 212" fill="none" xmlns="http://www.w3.org/2000/svg">
<path d="M90.5492 201.952C129.64 227.671 136.043 198.003 134.358 179.954C169.406 182.662 178.167 161.906 178.167 151.189C210.519 151.189 205.127 125.244 198.387 112.271C223.999 89.2589 212.429 75.6093 203.442 71.661C175.135 59.4779 172.551 78.9932 174.798 90.2737C141.098 84.8588 150.646 115.091 159.633 130.884C140.761 130.884 132.673 146.677 130.988 154.573C137.728 119.378 116.947 117.347 105.714 120.732C120.541 89.5971 104.029 81.8135 93.919 81.8135C96.6148 72.3378 100.659 56.432 102.344 49.6635C106.388 26.6509 75.946 31.0505 60.2196 36.1268C80.4392 1.88907 57.4113 -1.82816 43.3699 0.592943C5.62644 20.898 27.6434 41.7671 43.3699 49.6635C1.58262 64.5539 37.1917 82.9413 60.2196 90.2737C27.8681 118.701 56.8496 129.192 75.3843 130.884C59.2086 144.421 70.891 162.47 78.7542 169.802C59.8826 152.204 45.0548 159.085 39.9999 164.726C38.315 148.369 29.5533 120.731 7.98565 141.036C-13.582 161.341 13.6022 178.826 29.8903 185.031C37.9781 221.58 73.6995 211.54 90.5492 201.952Z" fill="#698F40"/>
<path d="M520.585 202.012C563.793 227.576 570.87 198.088 569.008 180.149C569.008 156.686 617.431 162.209 617.431 151.558C617.43 131.375 647.229 125.769 639.78 112.875C627.147 91.0111 656.017 75.712 632.3 66.5331C601.011 54.4238 611.222 79.7989 613.706 91.0111C576.457 85.629 587.011 115.678 596.944 131.375C576.085 131.375 567.145 147.073 565.283 154.921C572.732 119.939 554.26 128.414 541.844 131.778C558.233 100.832 534.265 107.87 523.091 107.87C524.694 98.7496 538.98 58.5196 540.843 51.7921C545.313 28.9189 494.694 35.0851 477.311 40.1307C499.66 6.10039 482.275 -4.82532 468.437 1.8736C426.718 22.0557 462.135 46.7291 479.517 54.5776C433.329 69.3778 462.238 78.704 487.691 85.9919C451.933 114.247 487.061 124.119 507.548 125.801C489.668 139.256 498.856 162.77 507.548 170.058C486.688 152.566 466.326 179.1 464.712 165.012C462.849 148.754 459.782 129.033 435.943 149.215C412.104 169.397 449.096 167.146 453.537 185.194C462.477 221.522 498.822 189.137 520.585 202.012Z" fill="#698F40"/>
<path d="M304.243 202.992C330.527 185.941 295.51 155.251 348.161 180.826C383.295 183.554 392.079 162.639 392.079 151.841C392.078 127.378 373.498 121.15 412.348 112.625C438.023 89.4368 426.425 75.6828 417.416 71.7043C389.038 59.428 419.576 90.4594 388.7 90.4594C354.917 85.003 342.538 112.625 373.498 131.38C354.579 131.38 346.471 147.294 344.782 155.251C340.537 170.596 304.243 141.61 319.445 121.15C334.31 89.7776 301.762 102.635 307.621 81.9345C310.324 72.3863 314.378 56.3588 316.067 49.5386C330.587 -9.08904 289.603 30.7831 273.838 35.8983C248.357 44.296 271.023 -2.34701 256.947 0.09261C219.109 20.553 241.181 41.5818 256.947 49.5386C215.056 64.5429 250.753 83.0709 273.838 90.4594C301.513 99.3167 301.202 121.15 289.04 131.38C272.825 145.02 284.536 163.208 292.419 170.596C273.5 152.864 258.636 159.797 253.568 165.481C227.868 177.873 258.997 101.625 221.474 141.61C201.093 163.329 227.105 179.69 243.433 185.941C251.541 222.77 287.351 212.654 304.243 202.992Z" fill="#698F40"/>
<path d="M737.346 208.99C765.116 191.435 728.118 159.835 783.747 186.168C812.716 199.881 830.148 167.442 830.148 156.324C830.148 131.137 810.516 124.725 851.564 115.947C862.398 113.63 851.564 57.176 838.614 57.176C767.078 57.176 857.113 97.9308 826.578 93.1248C790.885 87.5069 777.806 115.947 810.516 135.258C764.091 126.324 769.377 150.759 780.177 159.835C794.218 171.634 737.346 145.791 753.407 124.725C769.112 92.4229 787.347 41.0589 740.915 84.3475C733.371 91.3808 702.236 84.1562 738.722 57.176C789.283 19.7877 721.552 39.9659 704.895 45.2326C677.973 53.879 702.247 -2.43018 687.375 0.0816973C647.398 21.1481 670.718 58.3419 687.375 66.5344C707.538 76.4514 724.654 54.5765 698.025 93.1248C680.784 118.081 737.834 132.878 721.283 135.258C682.169 140.881 716.524 168.027 724.853 175.635C734.493 184.441 693.268 165.922 683.806 170.368C629.844 195.724 689.542 104.622 649.897 145.791C628.364 168.153 655.846 184.998 673.098 191.435C701.196 201.918 719.499 218.938 737.346 208.99Z" fill="#698F40"/>
</svg>
