<svg width="144" height="332" viewBox="0 0 144 332" fill="none" xmlns="http://www.w3.org/2000/svg">
<path fill-rule="evenodd" clip-rule="evenodd" d="M6.16885 3.20376C0.632111 10.4378 -6.09715 33.8419 11.2797 69.5865C20.4793 90.0119 21.0756 107.033 20.2238 112.991C19.2131 119.807 21.2904 129.229 31.8983 132.354C36.8549 131.111 46.768 96.455 31.8983 76.646C7.11547 44.4565 4.63719 27.1237 6.16885 3.20376Z" fill="#73628A"/>
<path d="M94.7508 112.991C104.366 123.986 122.108 154.891 116.16 190.548C108.725 215.309 101.29 215.309 93.8555 230.165C84.386 249.088 71.5509 269.783 91.3772 324.258C94.7965 331.191 106.743 338.619 118.638 316.83C133.508 289.592 121.117 274.736 118.638 259.879C116.16 245.022 133.508 220.261 138.465 210.356C141.969 203.353 156.927 166.898 108.725 101.963C104.633 105.781 99.9832 109.485 94.7508 112.991Z" fill="#CBC5EA"/>
<path d="M6.16885 3.20376C7.31048 14.4786 13.2758 44.1205 36.8549 61.7893C56.6812 76.646 61.8906 87.3428 65.4816 127.803C66.1449 127.555 66.8173 127.299 67.499 127.033C77.9217 122.969 86.9788 118.198 94.7508 112.991C99.9832 109.485 104.633 105.781 108.725 101.963C111.425 99.4439 113.882 96.8745 116.104 94.279C112.039 98.7151 70.5166 81.491 61.6378 59.3132C51.7246 34.552 21.3541 11.1771 6.16885 3.20376Z" fill="#73628A"/>
<path d="M39.3894 12.1399C29.8103 5.75726 9.75593 -4.96642 6.16885 3.20376C21.3541 7.87557 54.0513 27.7658 67.499 44.4565C81.464 61.7893 115.559 58.4878 132.606 56.8371C132.715 53.1551 132.298 49.7117 131.384 46.6078C128.458 36.6659 119.761 35.8325 106.223 34.535C90.2085 33.0003 67.4191 30.8163 39.3894 12.1399Z" fill="#73628A"/>
<path d="M6.16885 3.20376C21.3541 11.1771 51.7246 34.552 61.6378 59.3132C70.5166 81.491 112.039 98.7151 116.104 94.279L116.16 94.2131C127.072 81.4382 132.273 68.0342 132.606 56.8371C115.559 58.4878 81.464 61.7893 67.499 44.4565C54.0513 27.7658 21.3541 7.87557 6.16885 3.20376Z" fill="#EAEAEA"/>
<path d="M6.16885 3.20376C4.63719 27.1237 7.11547 44.4565 31.8983 76.646C46.768 96.455 36.8549 131.111 31.8983 132.354C38.8801 134.411 49.5573 133.74 65.4816 127.803C61.8906 87.3428 56.6812 76.646 36.8549 61.7893C13.2758 44.1205 7.31048 14.4786 6.16885 3.20376Z" fill="#EAEAEA"/>
</svg>
