<svg width="109" height="250" viewBox="0 0 109 250" fill="none" xmlns="http://www.w3.org/2000/svg">
<path fill-rule="evenodd" clip-rule="evenodd" d="M5.49675 3.08739C1.3442 8.5129 -3.70274 26.066 9.32987 52.8744C16.2296 68.1935 16.6768 80.9594 16.0379 85.4275C15.2799 90.5397 16.8379 97.6063 24.7939 99.9501C28.5113 99.0181 35.9461 73.0258 24.7939 58.1691C6.20672 34.0269 4.34801 21.0273 5.49675 3.08739Z" fill="#73628A"/>
<path d="M71.9332 85.4275C79.1442 93.6742 92.451 116.853 87.9901 143.595C82.414 162.166 76.8378 162.166 71.2617 173.309C64.1596 187.5 54.5333 203.022 69.403 243.878C71.9675 249.078 80.927 254.649 89.8488 238.307C101.001 217.879 91.7075 206.736 89.8488 195.594C87.9901 184.451 101.001 165.88 104.719 158.452C107.347 153.199 118.565 125.858 82.414 77.157C79.345 80.0206 75.8575 82.7982 71.9332 85.4275Z" fill="#CBC5EA"/>
<path d="M5.49675 3.08739C6.35298 11.5435 10.827 33.7749 28.5113 47.0266C43.381 58.1691 47.2881 66.1916 49.9813 96.5365C50.4788 96.351 50.9831 96.1587 51.4943 95.9594C59.3114 92.9115 66.1042 89.333 71.9332 85.4275C75.8575 82.7982 79.345 80.0206 82.414 77.157C84.439 75.2675 86.2819 73.3404 87.9478 71.3938C84.8996 74.7208 53.7576 61.8028 47.0984 45.1695C39.6636 26.5986 16.8857 9.06736 5.49675 3.08739Z" fill="#73628A"/>
<path d="M30.4122 9.78949C23.2278 5.00251 8.18706 -3.04024 5.49675 3.08739C16.8857 6.59125 41.4086 21.5089 51.4943 34.0269C61.9681 47.0266 87.539 44.5504 100.324 43.3124C100.406 40.5509 100.094 37.9684 99.4084 35.6404C97.2134 28.184 90.6911 27.5589 80.5372 26.5858C68.5265 25.4348 51.4344 23.7968 30.4122 9.78949Z" fill="#73628A"/>
<path d="M5.49675 3.08739C16.8857 9.06736 39.6636 26.5986 47.0984 45.1695C53.7576 61.8028 84.8996 74.7208 87.9478 71.3938L87.9901 71.3444C96.1738 61.7632 100.075 51.7102 100.324 43.3124C87.539 44.5504 61.9681 47.0266 51.4943 34.0269C41.4086 21.5089 16.8857 6.59125 5.49675 3.08739Z" fill="#EAEAEA"/>
<path d="M5.49675 3.08739C4.34801 21.0273 6.20672 34.0269 24.7939 58.1691C35.9461 73.0258 28.5113 99.0181 24.7939 99.9501C30.0302 101.493 38.0381 100.989 49.9813 96.5365C47.2881 66.1916 43.381 58.1691 28.5113 47.0266C10.827 33.7749 6.35298 11.5435 5.49675 3.08739Z" fill="#EAEAEA"/>
</svg>
