<svg width="144" height="333" viewBox="0 0 144 333" fill="none" xmlns="http://www.w3.org/2000/svg">
<path fill-rule="evenodd" clip-rule="evenodd" d="M6.49589 3.69628C0.951204 10.9407 -5.78772 34.3785 11.6141 70.1744C20.8269 90.6292 21.424 107.675 20.571 113.641C19.5589 120.467 21.6392 129.903 32.2623 133.032C37.226 131.788 47.1534 97.0815 32.2623 77.2441C7.44388 45.0083 4.96204 27.6505 6.49589 3.69628Z" fill="#73628A"/>
<path d="M95.2051 113.641C104.834 124.652 122.602 155.602 116.645 191.309C109.2 216.106 101.754 216.106 94.3085 230.984C84.8254 249.934 71.9719 270.659 91.8266 325.212C95.2509 332.155 107.214 339.594 119.127 317.773C134.018 290.496 121.609 275.618 119.127 260.74C116.645 245.862 134.018 221.065 138.982 211.147C142.492 204.133 157.47 167.626 109.2 102.598C105.102 106.421 100.445 110.13 95.2051 113.641Z" fill="#CBC5EA"/>
<path d="M6.49589 3.69628C7.63917 14.9873 13.613 44.6717 37.226 62.366C57.0808 77.2441 62.2977 87.9562 65.8939 128.474C66.5581 128.226 67.2315 127.97 67.9141 127.703C78.3518 123.634 87.4219 118.856 95.2051 113.641C100.445 110.13 105.102 106.421 109.2 102.598C111.903 100.075 114.364 97.5016 116.589 94.9024C112.519 99.3448 70.9361 82.0959 62.0445 59.8863C52.1171 35.0896 21.703 11.681 6.49589 3.69628Z" fill="#73628A"/>
<path d="M39.7642 12.6453C30.1713 6.25344 10.0881 -4.48564 6.49589 3.69628C21.703 8.3748 54.4471 28.2936 67.9141 45.0083C81.8992 62.366 116.043 59.0598 133.115 57.4066C133.224 53.7194 132.806 50.2711 131.891 47.1627C128.96 37.2064 120.252 36.3718 106.694 35.0725C90.6563 33.5356 67.8341 31.3485 39.7642 12.6453Z" fill="#73628A"/>
<path d="M6.49589 3.69628C21.703 11.681 52.1171 35.0896 62.0445 59.8863C70.9361 82.0959 112.519 99.3448 116.589 94.9024L116.645 94.8364C127.572 82.0431 132.781 68.6199 133.115 57.4066C116.043 59.0598 81.8992 62.366 67.9141 45.0083C54.4471 28.2936 21.703 8.3748 6.49589 3.69628Z" fill="#EAEAEA"/>
<path d="M6.49589 3.69628C4.96204 27.6505 7.44388 45.0083 32.2623 77.2441C47.1534 97.0815 37.226 131.788 32.2623 133.032C39.2542 135.092 49.9467 134.42 65.8939 128.474C62.2977 87.9562 57.0808 77.2441 37.226 62.366C13.613 44.6717 7.63917 14.9873 6.49589 3.69628Z" fill="#EAEAEA"/>
</svg>
