<svg width="32" height="32" viewBox="0 0 32 32" fill="none" xmlns="http://www.w3.org/2000/svg">
<path d="M15.377 6.04444L15.8466 0C15.9092 2.16296 16.0908 6.47111 16.3162 6.4C16.5979 6.31111 19.6032 2.31111 21.0119 0.0888889C20.2919 2.13333 18.9082 6.24 19.1336 6.31111C19.359 6.38222 21.1685 4.68148 22.045 3.82222C21.4815 4.85926 20.4297 6.93333 20.7302 6.93333C21.0307 6.93333 22.7337 4.8 23.5476 3.73333C22.8589 5.15556 21.6693 7.98222 22.4207 7.91111C23.172 7.84 26.3651 5.0963 27.8677 3.73333C26.3964 5.51111 23.5289 9.10222 23.8294 9.24444C24.1299 9.38667 27.3355 7.40741 28.9008 6.4C27.4921 7.4963 24.7498 9.70667 25.0503 9.77778C25.3508 9.84889 28.306 9.03704 29.746 8.62222C28.2121 9.39259 25.2381 10.9689 25.6138 11.1111C25.9894 11.2533 29.6521 11.1111 31.4365 11.0222C29.3078 11.5852 25.0878 12.7644 25.2381 12.9778C25.3884 13.1911 29.8086 13.9556 32 14.3111C29.9026 14.2815 25.7453 14.4 25.8955 15.1111C26.1209 15.3244 28.3686 15.6148 29.4643 15.7333C28.3373 15.7037 26.1021 15.6978 26.1773 15.9111C26.2524 16.1244 29.5895 17.2444 31.2487 17.7778C29.026 17.2741 24.7122 16.4622 25.2381 17.2444C25.764 18.0267 29.5895 19.763 31.4365 20.5333C29.433 19.9111 25.4635 18.7556 25.6138 19.1111C25.764 19.4667 27.993 21.3333 29.0886 22.2222C27.7425 21.4222 24.9939 19.8933 24.7685 20.1778C24.5431 20.4622 26.9286 23.2 28.1495 24.5333C26.7408 23.2889 23.7918 20.8533 23.2659 21.0667C22.74 21.28 24.9877 23.5852 26.1773 24.7111C25.1755 23.8222 23.1156 22.0622 22.8902 22.1333C22.6648 22.2044 25.5512 26.0148 27.0225 27.9111C25.3633 26.0148 22.0074 22.4533 21.8572 23.3778C21.7455 24.0647 22.1109 24.8595 22.4601 25.405C22.5837 25.5696 22.6973 25.7262 22.7963 25.8667C22.6998 25.7525 22.5809 25.5936 22.4601 25.405C21.6456 24.3199 20.399 22.8838 20.0728 23.3778C19.6971 23.9467 20.9806 28 21.6693 29.9556C20.6363 27.4074 18.3823 22.4178 17.631 22.8444C16.8797 23.2711 16.6918 26.1037 16.6918 27.4667C16.6292 25.7481 16.3725 22.3467 15.8466 22.4889C14.7196 22.7733 13.1857 28.9481 12.5596 32C13.1231 29.0074 14.0622 23.1111 13.3109 23.4667C12.5596 23.8222 11.4952 26.8148 11.0569 28.2667C11.5578 26.5778 12.4844 23.1289 12.1839 22.8444C11.9185 22.5932 11.4382 23.6639 11.1571 24.4278C11.1222 24.5292 11.0885 24.6245 11.0569 24.7111C11.0862 24.6246 11.1199 24.5289 11.1571 24.4278C11.468 23.523 11.8643 22.1333 11.5265 22.1333C11.1508 22.1333 8.86557 25.1556 7.76989 26.6667C8.95949 24.6815 11.1508 20.7467 10.3995 20.8889C9.6482 21.2444 7.39423 23.7037 6.36117 24.8889C7.76989 23.1407 10.3244 19.7511 9.27254 20.1778C8.22069 20.6044 4.63939 22.4889 2.98022 23.3778C4.85852 21.9259 8.23947 18.9867 6.73683 18.8444C5.23418 18.7022 2.2289 19.6741 0.914089 20.1778C2.88631 19.2296 6.69926 17.2267 6.17334 16.8C5.64741 16.6578 4.26373 16.8593 3.63763 16.9778C4.702 16.7111 6.62413 16.1244 5.79768 15.9111C4.97122 15.6978 2.07238 16 0.726258 16.1778C3.38719 15.6148 8.01407 14.4356 5.23419 14.2222C2.4543 14.0089 0.694953 13.7185 0.162768 13.6C3.88807 13.6889 10.1178 13.5111 5.23419 12.0889C0.350598 10.6667 -0.244198 10.3704 0.0688524 10.4C3.63761 10.9333 9.64813 12.0444 6.54893 10.3111C3.24312 8.46222 2.6671 8 2.79232 8C4.26366 8.82963 7.28147 10.4 7.582 10.0444C7.88253 9.68889 6.76811 8.23704 6.17334 7.55556C6.79942 8.26667 8.16427 9.6 8.61506 9.24444C9.0141 8.92971 7.08779 6.9666 5.72827 5.69793C5.55092 5.53616 5.38424 5.38309 5.23419 5.24444C5.38514 5.38052 5.55194 5.53338 5.72827 5.69793C7.10489 6.95366 9.12384 8.73353 8.99072 8.35556C8.84046 7.92889 8.30201 7.05185 8.05157 6.66667C8.48984 7.14074 9.3476 7.94667 9.27247 7.37778C9.19734 6.80889 7.92635 5.3037 7.30025 4.62222C8.58376 5.95556 11.2071 8.49778 11.4325 8C11.6579 7.50222 10.0864 4.82963 9.27247 3.55556C10.2429 4.85926 12.259 7.41333 12.5595 7.2C12.86 6.98667 11.7456 3.67407 11.1508 2.04444C11.8082 3.67407 13.1793 6.88 13.4047 6.66667C13.6301 6.45333 13.0604 2.54815 12.7473 0.622222C13.4674 2.57778 15.0014 6.4 15.377 6.04444Z" fill="#EAEAEA"/>
</svg>
