<svg width="425" height="416" viewBox="0 0 425 416" fill="none" xmlns="http://www.w3.org/2000/svg">
<path d="M217.852 160.049C224.114 198.12 233.788 279.686 222.39 301.38" stroke="#698F40" stroke-width="2"/>
<path d="M200.125 202.908C199.464 218.354 204.625 262.235 222.389 301.38" stroke="#698F40" stroke-width="2"/>
<path d="M182.835 119.291C171.018 147.864 162.384 224.283 222.39 301.38" stroke="#698F40" stroke-width="2"/>
<path d="M143.846 171.209C147.088 202.193 167.336 271.604 222.39 301.38C291.208 338.601 373.823 213.777 366.808 195.718" stroke="#698F40" stroke-width="2"/>
<path d="M109.713 138.905C108.298 174.362 128.852 256.498 222.391 301.383C315.929 346.268 369.336 279.743 386.97 241.449" stroke="#698F40" stroke-width="2"/>
<path d="M68.0703 165.472C92.2273 222.172 156.27 329.144 219.186 303.425C282.101 277.707 274.002 163.287 262.087 109.292" stroke="#698F40" stroke-width="2"/>
<path d="M72.2743 270.961C89.3049 297.654 143.458 337.32 219.186 303.427C294.914 269.534 309.643 155.573 307.541 102.829" stroke="#698F40" stroke-width="2"/>
<path d="M114.25 280.234C129.42 294.593 171.647 319.333 219.187 303.424C266.727 287.515 285.033 208.831 289.265 173.079" stroke="#698F40" stroke-width="2"/>
<ellipse cx="64.0986" cy="258.147" rx="7.59919" ry="15.1984" transform="rotate(-32.5385 64.0986 258.147)" fill="#73628A"/>
<ellipse cx="108.015" cy="267.144" rx="7.59919" ry="15.1984" transform="rotate(-25.5721 108.015 267.144)" fill="#73628A"/>
<ellipse cx="63.801" cy="151.894" rx="7.59919" ry="15.1984" transform="rotate(-17.4035 63.801 151.894)" fill="#73628A"/>
<ellipse cx="108.449" cy="132.823" rx="7.59919" ry="15.1984" transform="rotate(-5.91323 108.449 132.823)" fill="#73628A"/>
<ellipse cx="141.701" cy="156.678" rx="7.59919" ry="15.1984" transform="rotate(-5.91323 141.701 156.678)" fill="#73628A"/>
<ellipse cx="186.254" cy="109.596" rx="7.59919" ry="15.1984" transform="rotate(8.37565 186.254 109.596)" fill="#73628A"/>
<ellipse cx="200.953" cy="190.819" rx="7.59919" ry="15.1984" transform="rotate(1.44958 200.953 190.819)" fill="#73628A"/>
<ellipse cx="216.633" cy="144.755" rx="7.59919" ry="15.1984" transform="rotate(-4.9056 216.633 144.755)" fill="#73628A"/>
<ellipse cx="258.93" cy="99.9122" rx="7.59919" ry="15.1984" transform="rotate(-13.5128 258.93 99.9122)" fill="#73628A"/>
<ellipse cx="304.077" cy="88.9616" rx="7.59919" ry="15.1984" transform="rotate(-14.19 304.077 88.9616)" fill="#73628A"/>
<ellipse cx="289.537" cy="161.492" rx="7.59919" ry="15.1984" transform="rotate(-3.25794 289.537 161.492)" fill="#73628A"/>
<ellipse cx="331.731" cy="223.473" rx="7.59919" ry="15.1984" transform="rotate(14.3815 331.731 223.473)" fill="#73628A"/>
<ellipse cx="367.873" cy="183.338" rx="7.59919" ry="15.1984" transform="rotate(4.01922 367.873 183.338)" fill="#73628A"/>
<ellipse cx="390.616" cy="230.503" rx="7.59919" ry="15.1984" transform="rotate(17.9292 390.616 230.503)" fill="#73628A"/>
</svg>
