<svg width="240" height="218" viewBox="0 0 240 218" fill="none" xmlns="http://www.w3.org/2000/svg">
<path d="M143.129 80.1055C131.747 106.664 104.998 162.059 89.0625 171.165" stroke="#698F40" stroke-width="1.49785"/>
<path d="M114.673 100.023C108.033 109.509 93.6155 139.293 89.0625 171.164" stroke="#698F40" stroke-width="1.49785"/>
<path d="M137.439 40.2656C118.469 53.5451 82.2345 98.316 89.064 171.164" stroke="#698F40" stroke-width="1.49785"/>
<path d="M91.9108 57.3398C81.4769 78.2076 66.3003 130.187 89.0652 171.164C117.521 222.385 219.963 176.855 222.809 162.627" stroke="#698F40" stroke-width="1.49785"/>
<path d="M83.3694 23.1953C68.1928 45.0116 48.0838 105.149 89.0606 171.167C130.037 237.185 190.554 216.697 217.113 199.623" stroke="#698F40" stroke-width="1.49785"/>
<path d="M46.379 23.1914C38.7907 68.7211 36.1348 162.057 86.2176 171.163C136.3 180.269 177.277 104.766 191.505 65.8755" stroke="#698F40" stroke-width="1.49785"/>
<path d="M6.53906 91.4879C6.53906 115.201 24.751 162.059 86.2161 171.165C147.681 180.271 202.886 114.253 222.805 80.1055" stroke="#698F40" stroke-width="1.49785"/>
<path d="M29.3047 114.254C33.0988 129.43 49.7931 162.06 86.2169 171.166C122.641 180.272 165.894 137.967 182.968 117.1" stroke="#698F40" stroke-width="1.49785"/>
<ellipse cx="6.53887" cy="80.1051" rx="5.69122" ry="11.3824" fill="#73628A"/>
<ellipse cx="30.6417" cy="103.477" rx="5.69122" ry="11.3824" transform="rotate(6.96644 30.6417 103.477)" fill="#73628A"/>
<ellipse cx="49.1528" cy="12.8993" rx="5.69122" ry="11.3824" transform="rotate(15.135 49.1528 12.8993)" fill="#73628A"/>
<ellipse cx="85.0237" cy="18.8431" rx="5.69122" ry="11.3824" transform="rotate(26.6253 85.0237 18.8431)" fill="#73628A"/>
<ellipse cx="96.4085" cy="47.3002" rx="5.69122" ry="11.3824" transform="rotate(26.6253 96.4085 47.3002)" fill="#73628A"/>
<ellipse cx="143.502" cy="35.5243" rx="5.69122" ry="11.3824" transform="rotate(40.9142 143.502 35.5243)" fill="#73628A"/>
<ellipse cx="120.067" cy="92.7248" rx="5.69122" ry="11.3824" transform="rotate(33.9881 120.067 92.7248)" fill="#73628A"/>
<ellipse cx="148.519" cy="69.9581" rx="5.69122" ry="11.3824" transform="rotate(27.6329 148.519 69.9581)" fill="#73628A"/>
<ellipse cx="193.289" cy="58.6862" rx="5.69122" ry="11.3824" transform="rotate(19.0257 193.289 58.6862)" fill="#73628A"/>
<ellipse cx="226.205" cy="69.9547" rx="5.69122" ry="11.3824" transform="rotate(18.3485 226.205 69.9547)" fill="#73628A"/>
<ellipse cx="187.807" cy="109.891" rx="5.69122" ry="11.3824" transform="rotate(29.2806 187.807 109.891)" fill="#73628A"/>
<ellipse cx="189.48" cy="166.021" rx="5.69122" ry="11.3824" transform="rotate(46.92 189.48 166.021)" fill="#73628A"/>
<ellipse cx="228.466" cy="155.24" rx="5.69122" ry="11.3824" transform="rotate(36.5577 228.466 155.24)" fill="#73628A"/>
<ellipse cx="223.826" cy="194.181" rx="5.69122" ry="11.3824" transform="rotate(50.4677 223.826 194.181)" fill="#73628A"/>
</svg>
