<svg width="411" height="415" viewBox="0 0 411 415" fill="none" xmlns="http://www.w3.org/2000/svg">
<path d="M204.353 159.077C210.606 197.094 220.266 278.542 208.884 300.206" stroke="#698F40" stroke-width="1.99713"/>
<path d="M186.649 201.872C185.988 217.295 191.141 261.113 208.88 300.203" stroke="#698F40" stroke-width="1.99713"/>
<path d="M169.384 118.369C157.584 146.901 148.963 223.211 208.883 300.196" stroke="#698F40" stroke-width="1.99713"/>
<path d="M130.451 170.217C133.689 201.156 153.907 270.467 208.883 300.201C277.602 337.368 360.099 212.724 353.094 194.69" stroke="#698F40" stroke-width="1.99713"/>
<path d="M96.3668 137.963C94.9534 173.37 115.478 255.388 208.883 300.208C302.287 345.028 355.617 278.599 373.226 240.36" stroke="#698F40" stroke-width="1.99713"/>
<path d="M54.7822 164.488C78.9046 221.107 142.856 327.925 205.681 302.244C268.506 276.562 260.418 162.306 248.521 108.389" stroke="#698F40" stroke-width="1.99713"/>
<path d="M58.9813 269.826C75.9875 296.48 130.063 336.09 205.682 302.245C281.302 268.4 296.009 154.603 293.91 101.935" stroke="#698F40" stroke-width="1.99713"/>
<path d="M100.896 279.082C116.045 293.42 158.211 318.125 205.683 302.239C253.155 286.353 271.434 207.781 275.661 172.081" stroke="#698F40" stroke-width="1.99713"/>
<ellipse cx="50.8179" cy="257.033" rx="7.58829" ry="15.1766" transform="rotate(-32.5385 50.8179 257.033)" fill="#73628A"/>
<ellipse cx="94.6713" cy="266.012" rx="7.58829" ry="15.1766" transform="rotate(-25.5721 94.6713 266.012)" fill="#73628A"/>
<ellipse cx="50.5224" cy="150.931" rx="7.58829" ry="15.1766" transform="rotate(-17.4035 50.5224 150.931)" fill="#73628A"/>
<ellipse cx="95.1036" cy="131.884" rx="7.58829" ry="15.1766" transform="rotate(-5.91323 95.1036 131.884)" fill="#73628A"/>
<ellipse cx="128.311" cy="155.705" rx="7.58829" ry="15.1766" transform="rotate(-5.91323 128.311 155.705)" fill="#73628A"/>
<ellipse cx="172.799" cy="108.694" rx="7.58829" ry="15.1766" transform="rotate(8.37565 172.799 108.694)" fill="#73628A"/>
<ellipse cx="187.477" cy="189.797" rx="7.58829" ry="15.1766" transform="rotate(1.44958 187.477 189.797)" fill="#73628A"/>
<ellipse cx="203.134" cy="143.8" rx="7.58829" ry="15.1766" transform="rotate(-4.9056 203.134 143.8)" fill="#73628A"/>
<ellipse cx="245.372" cy="99.0263" rx="7.58829" ry="15.1766" transform="rotate(-13.5128 245.372 99.0263)" fill="#73628A"/>
<ellipse cx="290.45" cy="88.0838" rx="7.58829" ry="15.1766" transform="rotate(-14.19 290.45 88.0838)" fill="#73628A"/>
<ellipse cx="275.935" cy="160.514" rx="7.58829" ry="15.1766" transform="rotate(-3.25794 275.935 160.514)" fill="#73628A"/>
<ellipse cx="318.067" cy="222.406" rx="7.58829" ry="15.1766" transform="rotate(14.3815 318.067 222.406)" fill="#73628A"/>
<ellipse cx="354.156" cy="182.327" rx="7.58829" ry="15.1766" transform="rotate(4.01922 354.156 182.327)" fill="#73628A"/>
<ellipse cx="376.868" cy="229.428" rx="7.58829" ry="15.1766" transform="rotate(17.9292 376.868 229.428)" fill="#73628A"/>
</svg>
