<svg width="4240" height="415" viewBox="0 0 4240 415" fill="none" xmlns="http://www.w3.org/2000/svg">
<path d="M217.074 155.906C223.326 193.922 232.986 277.371 221.605 299.034" stroke="#698F40" stroke-width="1.99713"/>
<path d="M199.37 201.699C198.709 217.122 203.863 260.941 221.602 300.03" stroke="#698F40" stroke-width="1.99713"/>
<path d="M182.106 118.195C170.306 146.727 161.685 223.037 221.605 300.023C250.237 297.514 311.601 280.698 328.001 233.498" stroke="#698F40" stroke-width="1.99713"/>
<path d="M143.172 170.047C146.41 200.986 166.628 270.297 221.603 300.031C290.322 337.198 372.819 212.554 365.814 194.52" stroke="#698F40" stroke-width="1.99713"/>
<path d="M109.086 137.789C107.673 173.196 128.197 255.214 221.602 300.034C315.007 344.854 368.337 278.425 385.946 240.187" stroke="#698F40" stroke-width="1.99713"/>
<path d="M67.502 164.318C91.6244 220.937 155.575 327.755 218.401 302.074C281.226 276.392 273.138 162.136 261.241 108.219" stroke="#698F40" stroke-width="1.99713"/>
<path d="M71.7012 269.653C88.7074 296.308 142.782 335.917 218.402 302.072C294.022 268.228 308.729 154.43 306.63 101.762" stroke="#698F40" stroke-width="1.99713"/>
<path d="M113.617 278.911C128.766 293.249 170.931 317.954 218.404 302.068C265.876 286.182 284.155 207.61 288.381 171.91" stroke="#698F40" stroke-width="1.99713"/>
<path d="M71.7016 269.656C75.2347 267.401 74.4441 259.846 69.9358 252.78C65.4275 245.714 58.9087 241.813 55.3757 244.067C51.8426 246.321 52.6332 253.877 57.1415 260.943C61.6498 268.009 68.1686 271.91 71.7016 269.656Z" fill="#73628A"/>
<path d="M113.943 279.53C117.723 277.721 117.855 270.126 114.237 262.565C110.619 255.004 104.621 250.341 100.841 252.15C97.0607 253.959 96.929 261.555 100.547 269.116C104.165 276.676 110.163 281.339 113.943 279.53Z" fill="#73628A"/>
<path d="M67.7824 165.241C71.7815 163.987 72.991 156.488 70.484 148.489C67.977 140.491 62.7028 135.024 58.7038 136.277C54.7048 137.531 53.4952 145.031 56.0022 153.029C58.5092 161.027 63.7834 166.494 67.7824 165.241Z" fill="#73628A"/>
<path d="M109.388 146.808C113.556 146.377 116.236 139.268 115.372 130.931C114.509 122.594 110.429 116.185 106.261 116.617C102.092 117.048 99.4129 124.157 100.276 132.494C101.14 140.831 105.219 147.24 109.388 146.808Z" fill="#73628A"/>
<path d="M142.595 170.629C146.763 170.197 149.443 163.088 148.579 154.751C147.716 146.414 143.636 140.005 139.468 140.437C135.299 140.869 132.62 147.977 133.483 156.315C134.347 164.652 138.426 171.06 142.595 170.629Z" fill="#73628A"/>
<path d="M183.309 123.537C187.455 124.148 191.806 117.92 193.027 109.628C194.248 101.335 191.876 94.1181 187.73 93.5077C183.584 92.8972 179.233 99.1247 178.012 107.417C176.791 115.709 179.162 122.927 183.309 123.537Z" fill="#73628A"/>
<path d="M199.814 204.797C204.004 204.903 207.572 198.197 207.784 189.817C207.996 181.438 204.772 174.56 200.582 174.454C196.392 174.348 192.824 181.054 192.612 189.433C192.4 197.813 195.625 204.691 199.814 204.797Z" fill="#73628A"/>
<path d="M217.152 159.749C221.328 159.391 224.132 152.331 223.415 143.979C222.698 135.628 218.732 129.149 214.557 129.507C210.381 129.866 207.577 136.926 208.294 145.277C209.011 153.628 212.977 160.108 217.152 159.749Z" fill="#73628A"/>
<path d="M261.639 113.611C265.713 112.632 267.429 105.231 265.471 97.0814C263.512 88.9316 258.621 83.1187 254.546 84.098C250.471 85.0772 248.756 92.4778 250.714 100.628C252.673 108.777 257.564 114.59 261.639 113.611Z" fill="#73628A"/>
<path d="M306.891 102.625C310.954 101.598 312.582 94.1778 310.528 86.0518C308.473 77.9257 303.514 72.1711 299.451 73.1984C295.387 74.2258 293.759 81.6461 295.814 89.7721C297.869 97.8982 302.828 103.653 306.891 102.625Z" fill="#73628A"/>
<path d="M289.518 175.494C293.702 175.256 296.708 168.279 296.231 159.911C295.755 151.542 291.977 144.952 287.793 145.19C283.609 145.428 280.603 152.405 281.079 160.773C281.556 169.141 285.334 175.732 289.518 175.494Z" fill="#73628A"/>
<path d="M327.018 236.935C331.078 237.976 336.057 232.238 338.139 224.119C340.22 216 338.617 208.574 334.558 207.533C330.498 206.492 325.519 212.23 323.438 220.349C321.356 228.469 322.959 235.894 327.018 236.935Z" fill="#73628A"/>
<path d="M365.813 197.295C369.994 197.589 373.859 191.049 374.447 182.687C375.034 174.326 372.121 167.31 367.941 167.016C363.76 166.723 359.895 173.262 359.307 181.624C358.72 189.985 361.633 197.001 365.813 197.295Z" fill="#73628A"/>
<path d="M384.917 243.696C388.904 244.986 394.228 239.567 396.809 231.592C399.389 223.617 398.248 216.107 394.261 214.816C390.273 213.526 384.949 218.945 382.369 226.92C379.789 234.895 380.929 242.405 384.917 243.696Z" fill="#73628A"/>
<path d="M641.074 153.906C647.326 191.922 656.986 276.371 645.605 298.034" stroke="#698F40" stroke-width="1.99713"/>
<path d="M625.369 201.699C624.708 217.122 627.862 260.941 645.601 300.03" stroke="#698F40" stroke-width="1.99713"/>
<path d="M608.106 118.195C596.306 146.727 585.685 223.037 645.605 300.023C674.237 297.514 736 278 749.001 231.498" stroke="#698F40" stroke-width="1.99713"/>
<path d="M568.172 168.047C569.5 197.5 590.628 270.297 645.603 300.031C714.322 337.198 793.819 210.554 786.814 192.52" stroke="#698F40" stroke-width="1.99713"/>
<path d="M535.086 137.789C533.5 173 552.197 255.214 645.602 300.034C739.007 344.854 789.337 276.425 806.946 238.187" stroke="#698F40" stroke-width="1.99713"/>
<path d="M493.502 161.318C515.5 219.5 579.575 327.755 642.401 302.074C705.226 276.392 697.5 161.318 683.241 108.219" stroke="#698F40" stroke-width="1.99713"/>
<path d="M497.701 265.653C514.707 292.308 566.782 335.917 642.402 302.072C718.022 268.228 734.5 152.5 728.63 99.7617" stroke="#698F40" stroke-width="1.99713"/>
<path d="M539.617 275.911C554.766 290.249 594.931 317.954 642.404 302.068C689.876 286.182 706.155 207.61 710.381 171.91" stroke="#698F40" stroke-width="1.99713"/>
<path d="M497.702 267.656C501.235 265.401 500.444 257.846 495.936 250.78C491.428 243.714 484.909 239.813 481.376 242.067C477.843 244.321 478.633 251.877 483.141 258.943C487.65 266.009 494.169 269.91 497.702 267.656Z" fill="#73628A"/>
<path d="M539.943 277.53C543.723 275.721 543.855 268.126 540.237 260.565C536.619 253.004 530.621 248.341 526.841 250.15C523.061 251.959 522.929 259.555 526.547 267.116C530.165 274.676 536.163 279.339 539.943 277.53Z" fill="#73628A"/>
<path d="M493.782 163.241C497.781 161.987 498.991 154.488 496.484 146.489C493.977 138.491 488.703 133.024 484.704 134.277C480.705 135.531 479.495 143.031 482.002 151.029C484.509 159.027 489.783 164.494 493.782 163.241Z" fill="#73628A"/>
<path d="M535.388 144.808C539.556 144.377 542.236 137.268 541.372 128.931C540.509 120.594 536.429 114.185 532.261 114.617C528.092 115.048 525.413 122.157 526.276 130.494C527.14 138.831 531.219 145.24 535.388 144.808Z" fill="#73628A"/>
<path d="M568.595 168.629C572.763 168.197 575.443 161.088 574.579 152.751C573.716 144.414 569.636 138.005 565.468 138.437C561.299 138.869 558.62 145.977 559.483 154.315C560.347 162.652 564.426 169.06 568.595 168.629Z" fill="#73628A"/>
<path d="M609.309 121.537C613.455 122.148 617.806 115.92 619.027 107.628C620.248 99.3353 617.876 92.1181 613.73 91.5077C609.584 90.8972 605.233 97.1247 604.012 105.417C602.791 113.709 605.162 120.927 609.309 121.537Z" fill="#73628A"/>
<path d="M625.814 202.797C630.004 202.903 633.572 196.197 633.784 187.817C633.996 179.438 630.772 172.56 626.582 172.454C622.392 172.348 618.824 179.054 618.612 187.433C618.4 195.813 621.625 202.691 625.814 202.797Z" fill="#73628A"/>
<path d="M641.152 155.749C645.328 155.391 648.132 148.331 647.415 139.979C646.698 131.628 642.732 125.149 638.557 125.507C634.381 125.866 631.577 132.926 632.294 141.277C633.011 149.628 636.977 156.108 641.152 155.749Z" fill="#73628A"/>
<path d="M683.639 111.611C687.713 110.632 689.429 103.231 687.471 95.0814C685.512 86.9316 680.621 81.1187 676.546 82.098C672.471 83.0772 670.756 90.4778 672.714 98.6276C674.673 106.777 679.564 112.59 683.639 111.611Z" fill="#73628A"/>
<path d="M728.891 100.625C732.954 99.5981 734.582 92.1778 732.528 84.0518C730.473 75.9257 725.514 70.1711 721.451 71.1984C717.387 72.2258 715.759 79.6461 717.814 87.7721C719.869 95.8982 724.828 101.653 728.891 100.625Z" fill="#73628A"/>
<path d="M711.518 173.494C715.702 173.256 718.708 166.279 718.231 157.911C717.755 149.542 713.977 142.952 709.793 143.19C705.609 143.428 702.603 150.405 703.079 158.773C703.556 167.141 707.334 173.732 711.518 173.494Z" fill="#73628A"/>
<path d="M749.018 234.935C753.078 235.976 758.057 230.238 760.139 222.119C762.22 214 760.617 206.574 756.558 205.533C752.498 204.492 747.519 210.23 745.438 218.349C743.356 226.469 744.959 233.894 749.018 234.935Z" fill="#73628A"/>
<path d="M787.813 195.295C791.994 195.589 795.859 189.049 796.447 180.687C797.034 172.326 794.121 165.31 789.941 165.016C785.76 164.723 781.895 171.262 781.307 179.624C780.72 187.985 783.633 195.001 787.813 195.295Z" fill="#73628A"/>
<path d="M806.917 241.696C810.904 242.986 816.228 237.567 818.809 229.592C821.389 221.617 820.248 214.107 816.261 212.816C812.273 211.526 806.949 216.945 804.369 224.92C801.789 232.895 802.929 240.405 806.917 241.696Z" fill="#73628A"/>
<path d="M1065 149.5C1071.25 187.516 1080.99 278.371 1069.61 300.034" stroke="#698F40" stroke-width="1.99713"/>
<path d="M1050 199.5C1049.34 214.923 1051.86 260.941 1069.6 300.03" stroke="#698F40" stroke-width="1.99713"/>
<path d="M1035.5 116C1023.7 144.532 1009.68 223.037 1069.6 300.023C1098.24 297.514 1159.5 276.002 1172.5 229.5" stroke="#698F40" stroke-width="1.99713"/>
<path d="M994 164C995.328 193.453 1014.63 270.297 1069.6 300.031C1138.32 337.198 1217.01 209.034 1210 191" stroke="#698F40" stroke-width="1.99713"/>
<path d="M960.5 136.5C958.914 171.711 976.199 255.214 1069.6 300.034C1163.01 344.854 1212.39 274.238 1230 236" stroke="#698F40" stroke-width="1.99713"/>
<path d="M918.5 159.5C940.498 217.682 1003.58 327.755 1066.4 302.074C1129.23 276.392 1118.76 160.599 1104.5 107.5" stroke="#698F40" stroke-width="1.99713"/>
<path d="M922.701 261.653C939.707 288.308 990.782 335.917 1066.4 302.072C1142.02 268.228 1155.87 150.738 1150 98" stroke="#698F40" stroke-width="1.99713"/>
<path d="M962.596 270.934C976.096 286.434 1017.53 316.888 1065 301.002C1112.47 285.116 1128.75 206.544 1132.98 170.844" stroke="#698F40" stroke-width="1.99713"/>
<path d="M923.702 264.656C927.235 262.401 926.444 254.846 921.936 247.78C917.428 240.714 910.909 236.813 907.376 239.067C903.843 241.321 904.633 248.877 909.141 255.943C913.65 263.009 920.169 266.91 923.702 264.656Z" fill="#73628A"/>
<path d="M965.943 274.53C969.723 272.721 969.855 265.126 966.237 257.565C962.619 250.004 956.621 245.341 952.841 247.15C949.061 248.959 948.929 256.555 952.547 264.116C956.165 271.676 962.163 276.339 965.943 274.53Z" fill="#73628A"/>
<path d="M919.782 161.241C923.781 159.987 924.991 152.488 922.484 144.489C919.977 136.491 914.703 131.024 910.704 132.277C906.705 133.531 905.495 141.031 908.002 149.029C910.509 157.027 915.783 162.494 919.782 161.241Z" fill="#73628A"/>
<path d="M961.388 142.808C965.556 142.377 968.236 135.268 967.372 126.931C966.509 118.594 962.429 112.185 958.261 112.617C954.092 113.048 951.413 120.157 952.276 128.494C953.14 136.831 957.219 143.24 961.388 142.808Z" fill="#73628A"/>
<path d="M994.595 166.629C998.763 166.197 1001.44 159.088 1000.58 150.751C999.716 142.414 995.636 136.005 991.468 136.437C987.299 136.869 984.62 143.977 985.483 152.315C986.347 160.652 990.426 167.06 994.595 166.629Z" fill="#73628A"/>
<path d="M1035.31 119.537C1039.45 120.148 1043.81 113.92 1045.03 105.628C1046.25 97.3353 1043.88 90.1181 1039.73 89.5077C1035.58 88.8972 1031.23 95.1247 1030.01 103.417C1028.79 111.709 1031.16 118.927 1035.31 119.537Z" fill="#73628A"/>
<path d="M1049.81 201.797C1054 201.903 1057.57 195.197 1057.78 186.817C1058 178.438 1054.77 171.56 1050.58 171.454C1046.39 171.348 1042.82 178.054 1042.61 186.433C1042.4 194.813 1045.62 201.691 1049.81 201.797Z" fill="#73628A"/>
<path d="M1065.15 154.749C1069.33 154.391 1072.13 147.331 1071.41 138.979C1070.7 130.628 1066.73 124.149 1062.56 124.507C1058.38 124.866 1055.58 131.926 1056.29 140.277C1057.01 148.628 1060.98 155.108 1065.15 154.749Z" fill="#73628A"/>
<path d="M1105.64 111.611C1109.71 110.632 1111.43 103.231 1109.47 95.0814C1107.51 86.9316 1102.62 81.1187 1098.55 82.098C1094.47 83.0772 1092.76 90.4778 1094.71 98.6276C1096.67 106.777 1101.56 112.59 1105.64 111.611Z" fill="#73628A"/>
<path d="M1150.89 100.625C1154.95 99.5981 1156.58 92.1778 1154.53 84.0518C1152.47 75.9257 1147.51 70.1711 1143.45 71.1984C1139.39 72.2258 1137.76 79.6461 1139.81 87.7721C1141.87 95.8982 1146.83 101.653 1150.89 100.625Z" fill="#73628A"/>
<path d="M1133.52 173.494C1137.7 173.256 1140.71 166.279 1140.23 157.911C1139.75 149.542 1135.98 142.952 1131.79 143.19C1127.61 143.428 1124.6 150.405 1125.08 158.773C1125.56 167.141 1129.33 173.732 1133.52 173.494Z" fill="#73628A"/>
<path d="M1171.02 234.935C1175.08 235.976 1180.06 230.238 1182.14 222.119C1184.22 214 1182.62 206.574 1178.56 205.533C1174.5 204.492 1169.52 210.23 1167.44 218.349C1165.36 226.469 1166.96 233.894 1171.02 234.935Z" fill="#73628A"/>
<path d="M1209.81 195.295C1213.99 195.589 1217.86 189.049 1218.45 180.687C1219.03 172.326 1216.12 165.31 1211.94 165.016C1207.76 164.723 1203.89 171.262 1203.31 179.624C1202.72 187.985 1205.63 195.001 1209.81 195.295Z" fill="#73628A"/>
<path d="M1228.92 241.696C1232.9 242.986 1238.23 237.567 1240.81 229.592C1243.39 221.617 1242.25 214.107 1238.26 212.816C1234.27 211.526 1228.95 216.945 1226.37 224.92C1223.79 232.895 1224.93 240.405 1228.92 241.696Z" fill="#73628A"/>
<path d="M1488.5 149.5C1494.75 187.516 1504.99 278.371 1493.61 300.034" stroke="#698F40" stroke-width="1.99713"/>
<path d="M1473 199.5C1472.34 214.923 1475.86 260.941 1493.6 300.03" stroke="#698F40" stroke-width="1.99713"/>
<path d="M1462.5 116C1450.7 144.532 1434.68 223.037 1494.6 300.023C1523.24 297.514 1582.5 276.002 1595.5 229.5" stroke="#698F40" stroke-width="1.99713"/>
<path d="M1421 162C1422.33 191.453 1438.63 270.297 1493.6 300.031C1562.32 337.198 1639.01 207.034 1632 189" stroke="#698F40" stroke-width="1.99713"/>
<path d="M1386.5 136.5C1384.91 171.711 1400.2 255.214 1493.6 300.034C1587.01 344.854 1634.39 274.238 1652 236" stroke="#698F40" stroke-width="1.99713"/>
<path d="M1345.5 157.5C1367.5 215.682 1427.58 327.755 1490.4 302.074C1553.23 276.392 1540.76 159.599 1526.5 106.5" stroke="#698F40" stroke-width="1.99713"/>
<path d="M1348.7 259.653C1365.71 286.308 1414.78 335.917 1490.4 302.072C1566.02 268.228 1577.87 149.738 1572 97" stroke="#698F40" stroke-width="1.99713"/>
<path d="M1388.6 268.934C1402.1 284.434 1441.53 316.888 1489 301.002C1536.47 285.116 1550.75 206.544 1554.98 170.844" stroke="#698F40" stroke-width="1.99713"/>
<path d="M1351.7 262.656C1355.23 260.401 1354.44 252.846 1349.94 245.78C1345.43 238.714 1338.91 234.813 1335.38 237.067C1331.84 239.321 1332.63 246.877 1337.14 253.943C1341.65 261.009 1348.17 264.91 1351.7 262.656Z" fill="#73628A"/>
<path d="M1393.94 272.53C1397.72 270.721 1397.85 263.126 1394.24 255.565C1390.62 248.004 1384.62 243.341 1380.84 245.15C1377.06 246.959 1376.93 254.555 1380.55 262.116C1384.16 269.676 1390.16 274.339 1393.94 272.53Z" fill="#73628A"/>
<path d="M1347.78 161.241C1351.78 159.987 1352.99 152.488 1350.48 144.489C1347.98 136.491 1342.7 131.024 1338.7 132.277C1334.7 133.531 1333.5 141.031 1336 149.029C1338.51 157.027 1343.78 162.494 1347.78 161.241Z" fill="#73628A"/>
<path d="M1388.39 143.808C1392.56 143.377 1395.24 136.268 1394.37 127.931C1393.51 119.594 1389.43 113.185 1385.26 113.617C1381.09 114.048 1378.41 121.157 1379.28 129.494C1380.14 137.831 1384.22 144.24 1388.39 143.808Z" fill="#73628A"/>
<path d="M1422.59 166.629C1426.76 166.197 1429.44 159.088 1428.58 150.751C1427.72 142.414 1423.64 136.005 1419.47 136.437C1415.3 136.869 1412.62 143.977 1413.48 152.315C1414.35 160.652 1418.43 167.06 1422.59 166.629Z" fill="#73628A"/>
<path d="M1462.31 119.537C1466.45 120.148 1470.81 113.92 1472.03 105.628C1473.25 97.3353 1470.88 90.1181 1466.73 89.5077C1462.58 88.8972 1458.23 95.1247 1457.01 103.417C1455.79 111.709 1458.16 118.927 1462.31 119.537Z" fill="#73628A"/>
<path d="M1473.81 200.797C1478 200.903 1481.57 194.197 1481.78 185.817C1482 177.438 1478.77 170.56 1474.58 170.454C1470.39 170.348 1466.82 177.054 1466.61 185.433C1466.4 193.813 1469.62 200.691 1473.81 200.797Z" fill="#73628A"/>
<path d="M1489.15 153.749C1493.33 153.391 1496.13 146.331 1495.41 137.979C1494.7 129.628 1490.73 123.149 1486.56 123.507C1482.38 123.866 1479.58 130.926 1480.29 139.277C1481.01 147.628 1484.98 154.108 1489.15 153.749Z" fill="#73628A"/>
<path d="M1527.64 111.611C1531.71 110.632 1533.43 103.231 1531.47 95.0814C1529.51 86.9316 1524.62 81.1187 1520.55 82.098C1516.47 83.0772 1514.76 90.4778 1516.71 98.6276C1518.67 106.777 1523.56 112.59 1527.64 111.611Z" fill="#73628A"/>
<path d="M1574.89 100.625C1578.95 99.5981 1580.58 92.1778 1578.53 84.0518C1576.47 75.9257 1571.51 70.1711 1567.45 71.1984C1563.39 72.2258 1561.76 79.6461 1563.81 87.7721C1565.87 95.8982 1570.83 101.653 1574.89 100.625Z" fill="#73628A"/>
<path d="M1555.52 173.494C1559.7 173.256 1562.71 166.279 1562.23 157.911C1561.75 149.542 1557.98 142.952 1553.79 143.19C1549.61 143.428 1546.6 150.405 1547.08 158.773C1547.56 167.141 1551.33 173.732 1555.52 173.494Z" fill="#73628A"/>
<path d="M1595.02 234.935C1599.08 235.976 1604.06 230.238 1606.14 222.119C1608.22 214 1606.62 206.574 1602.56 205.533C1598.5 204.492 1593.52 210.23 1591.44 218.349C1589.36 226.469 1590.96 233.894 1595.02 234.935Z" fill="#73628A"/>
<path d="M1633.81 195.295C1637.99 195.589 1641.86 189.049 1642.45 180.687C1643.03 172.326 1640.12 165.31 1635.94 165.016C1631.76 164.723 1627.89 171.262 1627.31 179.624C1626.72 187.985 1629.63 195.001 1633.81 195.295Z" fill="#73628A"/>
<path d="M1652.92 241.696C1656.9 242.986 1662.23 237.567 1664.81 229.592C1667.39 221.617 1666.25 214.107 1662.26 212.816C1658.27 211.526 1652.95 216.945 1650.37 224.92C1647.79 232.895 1648.93 240.405 1652.92 241.696Z" fill="#73628A"/>
<path d="M1912 148C1918.25 186.016 1928.99 278.371 1917.61 300.034" stroke="#698F40" stroke-width="1.99713"/>
<path d="M1897 194C1896.34 209.423 1899.86 260.941 1917.6 300.03" stroke="#698F40" stroke-width="1.99713"/>
<path d="M1888.5 116C1876.7 144.532 1858.68 223.037 1918.6 300.023C1947.24 297.514 2004.5 274.002 2017.5 227.5" stroke="#698F40" stroke-width="1.99713"/>
<path d="M1847 162C1848.33 191.453 1862.63 270.297 1917.6 300.031C1986.32 337.198 2063.01 205.034 2056 187" stroke="#698F40" stroke-width="1.99713"/>
<path d="M1812.5 136.5C1810.91 171.711 1824.2 255.214 1917.6 300.034C2011.01 344.854 2056.39 272.238 2074 234" stroke="#698F40" stroke-width="1.99713"/>
<path d="M1772.5 157.5C1794.5 215.682 1851.58 327.755 1914.4 302.074C1977.23 276.392 1962.76 159.599 1948.5 106.5" stroke="#698F40" stroke-width="1.99713"/>
<path d="M1774.7 257.653C1791.71 284.308 1838.78 335.917 1914.4 302.072C1990.02 268.228 1999.87 149.738 1994 97" stroke="#698F40" stroke-width="1.99713"/>
<path d="M1813.6 269.934C1827.1 285.434 1863.53 317.888 1911 302.002C1958.47 286.116 1972.75 207.544 1976.98 171.844" stroke="#698F40" stroke-width="1.99713"/>
<path d="M1777.7 262.656C1781.23 260.401 1780.44 252.846 1775.94 245.78C1771.43 238.714 1764.91 234.813 1761.38 237.067C1757.84 239.321 1758.63 246.877 1763.14 253.943C1767.65 261.009 1774.17 264.91 1777.7 262.656Z" fill="#73628A"/>
<path d="M1819.94 272.53C1823.72 270.721 1823.85 263.126 1820.24 255.565C1816.62 248.004 1810.62 243.341 1806.84 245.15C1803.06 246.959 1802.93 254.555 1806.55 262.116C1810.16 269.676 1816.16 274.339 1819.94 272.53Z" fill="#73628A"/>
<path d="M1773.78 161.241C1777.78 159.987 1778.99 152.488 1776.48 144.489C1773.98 136.491 1768.7 131.024 1764.7 132.277C1760.7 133.531 1759.5 141.031 1762 149.029C1764.51 157.027 1769.78 162.494 1773.78 161.241Z" fill="#73628A"/>
<path d="M1814.39 143.808C1818.56 143.377 1821.24 136.268 1820.37 127.931C1819.51 119.594 1815.43 113.185 1811.26 113.617C1807.09 114.048 1804.41 121.157 1805.28 129.494C1806.14 137.831 1810.22 144.24 1814.39 143.808Z" fill="#73628A"/>
<path d="M1848.59 166.629C1852.76 166.197 1855.44 159.088 1854.58 150.751C1853.72 142.414 1849.64 136.005 1845.47 136.437C1841.3 136.869 1838.62 143.977 1839.48 152.315C1840.35 160.652 1844.43 167.06 1848.59 166.629Z" fill="#73628A"/>
<path d="M1888.31 119.537C1892.45 120.148 1896.81 113.92 1898.03 105.628C1899.25 97.3353 1896.88 90.1181 1892.73 89.5077C1888.58 88.8972 1884.23 95.1247 1883.01 103.417C1881.79 111.709 1884.16 118.927 1888.31 119.537Z" fill="#73628A"/>
<path d="M1897.81 199.797C1902 199.903 1905.57 193.197 1905.78 184.817C1906 176.438 1902.77 169.56 1898.58 169.454C1894.39 169.348 1890.82 176.054 1890.61 184.433C1890.4 192.813 1893.62 199.691 1897.81 199.797Z" fill="#73628A"/>
<path d="M1913.15 153.749C1917.33 153.391 1920.13 146.331 1919.41 137.979C1918.7 129.628 1914.73 123.149 1910.56 123.507C1906.38 123.866 1903.58 130.926 1904.29 139.277C1905.01 147.628 1908.98 154.108 1913.15 153.749Z" fill="#73628A"/>
<path d="M1949.64 111.611C1953.71 110.632 1955.43 103.231 1953.47 95.0814C1951.51 86.9316 1946.62 81.1187 1942.55 82.098C1938.47 83.0772 1936.76 90.4778 1938.71 98.6276C1940.67 106.777 1945.56 112.59 1949.64 111.611Z" fill="#73628A"/>
<path d="M1996.89 100.625C2000.95 99.5981 2002.58 92.1778 2000.53 84.0518C1998.47 75.9257 1993.51 70.1711 1989.45 71.1984C1985.39 72.2258 1983.76 79.6461 1985.81 87.7721C1987.87 95.8982 1992.83 101.653 1996.89 100.625Z" fill="#73628A"/>
<path d="M1977.52 173.494C1981.7 173.256 1984.71 166.279 1984.23 157.911C1983.75 149.542 1979.98 142.952 1975.79 143.19C1971.61 143.428 1968.6 150.405 1969.08 158.773C1969.56 167.141 1973.33 173.732 1977.52 173.494Z" fill="#73628A"/>
<path d="M2017.02 232.935C2021.08 233.976 2026.06 228.238 2028.14 220.119C2030.22 212 2028.62 204.574 2024.56 203.533C2020.5 202.492 2015.52 208.23 2013.44 216.349C2011.36 224.469 2012.96 231.894 2017.02 232.935Z" fill="#73628A"/>
<path d="M2055.81 193.295C2059.99 193.589 2063.86 187.049 2064.45 178.687C2065.03 170.326 2062.12 163.31 2057.94 163.016C2053.76 162.723 2049.89 169.262 2049.31 177.624C2048.72 185.985 2051.63 193.001 2055.81 193.295Z" fill="#73628A"/>
<path d="M2074.92 239.696C2078.9 240.986 2084.23 235.567 2086.81 227.592C2089.39 219.617 2088.25 212.107 2084.26 210.816C2080.27 209.526 2074.95 214.945 2072.37 222.92C2069.79 230.895 2070.93 238.405 2074.92 239.696Z" fill="#73628A"/>
<path d="M2336.5 147C2342.75 185.016 2352.99 278.371 2341.61 300.034" stroke="#698F40" stroke-width="1.99713"/>
<path d="M2322 196.5C2321.34 211.923 2323.86 260.941 2341.6 300.03" stroke="#698F40" stroke-width="1.99713"/>
<path d="M2314.5 114C2302.7 142.532 2282.68 223.037 2342.6 300.023C2371.23 297.514 2426.5 272.002 2439.5 225.5" stroke="#698F40" stroke-width="1.99713"/>
<path d="M2273 160C2274.33 189.453 2286.63 270.297 2341.6 300.031C2410.32 337.198 2485.01 203.034 2478 185" stroke="#698F40" stroke-width="1.99713"/>
<path d="M2239.5 135.5C2237.91 170.711 2248.2 255.214 2341.6 300.034C2435.01 344.854 2478.39 270.238 2496 232" stroke="#698F40" stroke-width="1.99713"/>
<path d="M2199.5 155.5C2221.5 213.682 2275.58 327.755 2338.4 302.074C2401.23 276.392 2384.76 157.599 2370.5 104.5" stroke="#698F40" stroke-width="1.99713"/>
<path d="M2201.7 255.653C2218.71 282.308 2262.78 335.917 2338.4 302.072C2414.02 268.228 2421.87 147.738 2416 95" stroke="#698F40" stroke-width="1.99713"/>
<path d="M2241.6 266.934C2255.1 282.434 2287.53 317.888 2335 302.002C2382.47 286.116 2394.75 205.544 2398.98 169.844" stroke="#698F40" stroke-width="1.99713"/>
<path d="M2203.7 260.656C2207.23 258.401 2206.44 250.846 2201.94 243.78C2197.43 236.714 2190.91 232.813 2187.38 235.067C2183.84 237.321 2184.63 244.877 2189.14 251.943C2193.65 259.009 2200.17 262.91 2203.7 260.656Z" fill="#73628A"/>
<path d="M2245.94 270.53C2249.72 268.721 2249.85 261.126 2246.24 253.565C2242.62 246.004 2236.62 241.341 2232.84 243.15C2229.06 244.959 2228.93 252.555 2232.55 260.116C2236.16 267.676 2242.16 272.339 2245.94 270.53Z" fill="#73628A"/>
<path d="M2199.78 159.241C2203.78 157.987 2204.99 150.488 2202.48 142.489C2199.98 134.491 2194.7 129.024 2190.7 130.277C2186.7 131.531 2185.5 139.031 2188 147.029C2190.51 155.027 2195.78 160.494 2199.78 159.241Z" fill="#73628A"/>
<path d="M2240.39 141.808C2244.56 141.377 2247.24 134.268 2246.37 125.931C2245.51 117.594 2241.43 111.185 2237.26 111.617C2233.09 112.048 2230.41 119.157 2231.28 127.494C2232.14 135.831 2236.22 142.24 2240.39 141.808Z" fill="#73628A"/>
<path d="M2274.59 164.629C2278.76 164.197 2281.44 157.088 2280.58 148.751C2279.72 140.414 2275.64 134.005 2271.47 134.437C2267.3 134.869 2264.62 141.977 2265.48 150.315C2266.35 158.652 2270.43 165.06 2274.59 164.629Z" fill="#73628A"/>
<path d="M2314.31 117.537C2318.45 118.148 2322.81 111.92 2324.03 103.628C2325.25 95.3353 2322.88 88.1181 2318.73 87.5077C2314.58 86.8972 2310.23 93.1247 2309.01 101.417C2307.79 109.709 2310.16 116.927 2314.31 117.537Z" fill="#73628A"/>
<path d="M2321.81 198.797C2326 198.903 2329.57 192.197 2329.78 183.817C2330 175.438 2326.77 168.56 2322.58 168.454C2318.39 168.348 2314.82 175.054 2314.61 183.433C2314.4 191.813 2317.62 198.691 2321.81 198.797Z" fill="#73628A"/>
<path d="M2337.15 151.749C2341.33 151.391 2344.13 144.331 2343.41 135.979C2342.7 127.628 2338.73 121.149 2334.56 121.507C2330.38 121.866 2327.58 128.926 2328.29 137.277C2329.01 145.628 2332.98 152.108 2337.15 151.749Z" fill="#73628A"/>
<path d="M2371.64 109.611C2375.71 108.632 2377.43 101.231 2375.47 93.0814C2373.51 84.9316 2368.62 79.1187 2364.55 80.098C2360.47 81.0772 2358.76 88.4778 2360.71 96.6276C2362.67 104.777 2367.56 110.59 2371.64 109.611Z" fill="#73628A"/>
<path d="M2418.89 98.6255C2422.95 97.5981 2424.58 90.1778 2422.53 82.0518C2420.47 73.9257 2415.51 68.1711 2411.45 69.1984C2407.39 70.2258 2405.76 77.6461 2407.81 85.7721C2409.87 93.8982 2414.83 99.6528 2418.89 98.6255Z" fill="#73628A"/>
<path d="M2399.52 171.494C2403.7 171.256 2406.71 164.279 2406.23 155.911C2405.75 147.542 2401.98 140.952 2397.79 141.19C2393.61 141.428 2390.6 148.405 2391.08 156.773C2391.56 165.141 2395.33 171.732 2399.52 171.494Z" fill="#73628A"/>
<path d="M2439.02 230.935C2443.08 231.976 2448.06 226.238 2450.14 218.119C2452.22 210 2450.62 202.574 2446.56 201.533C2442.5 200.492 2437.52 206.23 2435.44 214.349C2433.36 222.469 2434.96 229.894 2439.02 230.935Z" fill="#73628A"/>
<path d="M2477.81 191.295C2481.99 191.589 2485.86 185.049 2486.45 176.687C2487.03 168.326 2484.12 161.31 2479.94 161.016C2475.76 160.723 2471.89 167.262 2471.31 175.624C2470.72 183.985 2473.63 191.001 2477.81 191.295Z" fill="#73628A"/>
<path d="M2496.92 237.696C2500.9 238.986 2506.23 233.567 2508.81 225.592C2511.39 217.617 2510.25 210.107 2506.26 208.816C2502.27 207.526 2496.95 212.945 2494.37 220.92C2491.79 228.895 2492.93 236.405 2496.92 237.696Z" fill="#73628A"/>
<path d="M2761.5 147C2767.75 185.016 2776.99 278.371 2765.61 300.034" stroke="#698F40" stroke-width="1.99713"/>
<path d="M2746 196C2745.34 211.423 2747.86 260.941 2765.6 300.03" stroke="#698F40" stroke-width="1.99713"/>
<path d="M2740.5 112C2728.7 140.532 2706.68 223.037 2766.6 300.023C2795.24 297.514 2848.5 270.002 2861.5 223.5" stroke="#698F40" stroke-width="1.99713"/>
<path d="M2700 158C2701.33 187.453 2710.63 270.297 2765.6 300.031C2834.32 337.198 2907.01 201.034 2900 183" stroke="#698F40" stroke-width="1.99713"/>
<path d="M2665.5 133.5C2663.91 168.711 2672.2 255.214 2765.6 300.034C2859.01 344.854 2900.39 268.238 2918 230" stroke="#698F40" stroke-width="1.99713"/>
<path d="M2626.5 152.5C2648.5 210.682 2699.58 327.755 2762.4 302.074C2825.23 276.392 2806.76 155.599 2792.5 102.5" stroke="#698F40" stroke-width="1.99713"/>
<path d="M2627.7 253.653C2644.71 280.308 2686.78 335.917 2762.4 302.072C2838.02 268.228 2843.87 145.738 2838 93" stroke="#698F40" stroke-width="1.99713"/>
<path d="M2667.6 264.934C2681.1 280.434 2711.53 317.888 2759 302.002C2806.47 286.116 2815.75 203.544 2819.98 167.844" stroke="#698F40" stroke-width="1.99713"/>
<path d="M2629.7 258.656C2633.23 256.401 2632.44 248.846 2627.94 241.78C2623.43 234.714 2616.91 230.813 2613.38 233.067C2609.84 235.321 2610.63 242.877 2615.14 249.943C2619.65 257.009 2626.17 260.91 2629.7 258.656Z" fill="#73628A"/>
<path d="M2671.94 268.53C2675.72 266.721 2675.85 259.126 2672.24 251.565C2668.62 244.004 2662.62 239.341 2658.84 241.15C2655.06 242.959 2654.93 250.555 2658.55 258.116C2662.16 265.676 2668.16 270.339 2671.94 268.53Z" fill="#73628A"/>
<path d="M2625.78 157.241C2629.78 155.987 2630.99 148.488 2628.48 140.489C2625.98 132.491 2620.7 127.024 2616.7 128.277C2612.7 129.531 2611.5 137.031 2614 145.029C2616.51 153.027 2621.78 158.494 2625.78 157.241Z" fill="#73628A"/>
<path d="M2666.39 139.808C2670.56 139.377 2673.24 132.268 2672.37 123.931C2671.51 115.594 2667.43 109.185 2663.26 109.617C2659.09 110.048 2656.41 117.157 2657.28 125.494C2658.14 133.831 2662.22 140.24 2666.39 139.808Z" fill="#73628A"/>
<path d="M2700.59 162.629C2704.76 162.197 2707.44 155.088 2706.58 146.751C2705.72 138.414 2701.64 132.005 2697.47 132.437C2693.3 132.869 2690.62 139.977 2691.48 148.315C2692.35 156.652 2696.43 163.06 2700.59 162.629Z" fill="#73628A"/>
<path d="M2740.31 115.537C2744.45 116.148 2748.81 109.92 2750.03 101.628C2751.25 93.3353 2748.88 86.1181 2744.73 85.5077C2740.58 84.8972 2736.23 91.1247 2735.01 99.4171C2733.79 107.709 2736.16 114.927 2740.31 115.537Z" fill="#73628A"/>
<path d="M2745.81 197.797C2750 197.903 2753.57 191.197 2753.78 182.817C2754 174.438 2750.77 167.56 2746.58 167.454C2742.39 167.348 2738.82 174.054 2738.61 182.433C2738.4 190.813 2741.62 197.691 2745.81 197.797Z" fill="#73628A"/>
<path d="M2761.15 151.749C2765.33 151.391 2768.13 144.331 2767.41 135.979C2766.7 127.628 2762.73 121.149 2758.56 121.507C2754.38 121.866 2751.58 128.926 2752.29 137.277C2753.01 145.628 2756.98 152.108 2761.15 151.749Z" fill="#73628A"/>
<path d="M2793.64 107.611C2797.71 106.632 2799.43 99.2311 2797.47 91.0814C2795.51 82.9316 2790.62 77.1187 2786.55 78.098C2782.47 79.0772 2780.76 86.4778 2782.71 94.6276C2784.67 102.777 2789.56 108.59 2793.64 107.611Z" fill="#73628A"/>
<path d="M2840.89 96.6255C2844.95 95.5981 2846.58 88.1778 2844.53 80.0518C2842.47 71.9257 2837.51 66.1711 2833.45 67.1984C2829.39 68.2258 2827.76 75.6461 2829.81 83.7721C2831.87 91.8982 2836.83 97.6528 2840.89 96.6255Z" fill="#73628A"/>
<path d="M2821.52 169.494C2825.7 169.256 2828.71 162.279 2828.23 153.911C2827.75 145.542 2823.98 138.952 2819.79 139.19C2815.61 139.428 2812.6 146.405 2813.08 154.773C2813.56 163.141 2817.33 169.732 2821.52 169.494Z" fill="#73628A"/>
<path d="M2861.02 228.935C2865.08 229.976 2870.06 224.238 2872.14 216.119C2874.22 208 2872.62 200.574 2868.56 199.533C2864.5 198.492 2859.52 204.23 2857.44 212.349C2855.36 220.469 2856.96 227.894 2861.02 228.935Z" fill="#73628A"/>
<path d="M2899.81 189.295C2903.99 189.589 2907.86 183.049 2908.45 174.687C2909.03 166.326 2906.12 159.31 2901.94 159.016C2897.76 158.723 2893.89 165.262 2893.31 173.624C2892.72 181.985 2895.63 189.001 2899.81 189.295Z" fill="#73628A"/>
<path d="M2918.92 235.696C2922.9 236.986 2928.23 231.567 2930.81 223.592C2933.39 215.617 2932.25 208.107 2928.26 206.816C2924.27 205.526 2918.95 210.945 2916.37 218.92C2913.79 226.895 2914.93 234.405 2918.92 235.696Z" fill="#73628A"/>
<path d="M3184 144.5C3190.25 182.516 3200.99 278.371 3189.61 300.034" stroke="#698F40" stroke-width="1.99713"/>
<path d="M3169.5 194C3168.84 209.423 3171.86 260.941 3189.6 300.03" stroke="#698F40" stroke-width="1.99713"/>
<path d="M3166.5 109C3154.7 137.532 3130.68 223.037 3190.6 300.023C3219.23 297.514 3270.5 268.002 3283.5 221.5" stroke="#698F40" stroke-width="1.99713"/>
<path d="M3126 156C3127.33 185.453 3134.63 270.297 3189.6 300.031C3258.32 337.198 3329.01 199.034 3322 181" stroke="#698F40" stroke-width="1.99713"/>
<path d="M3091.5 133.5C3089.91 168.711 3096.2 255.214 3189.6 300.034C3283.01 344.854 3325.39 266.238 3343 228" stroke="#698F40" stroke-width="1.99713"/>
<path d="M3051.5 150.5C3077 204 3123.58 327.755 3186.4 302.074C3249.23 276.392 3228.76 152.599 3214.5 99.5" stroke="#698F40" stroke-width="1.99713"/>
<path d="M3053.7 251.653C3070.71 278.308 3110.78 335.917 3186.4 302.072C3262.02 268.228 3265.87 143.738 3260 91" stroke="#698F40" stroke-width="1.99713"/>
<path d="M3093.6 262.934C3107.1 278.434 3135.53 317.888 3183 302.002C3230.47 286.116 3237.75 201.544 3241.98 165.844" stroke="#698F40" stroke-width="1.99713"/>
<path d="M3055.7 256.656C3059.23 254.401 3058.44 246.846 3053.94 239.78C3049.43 232.714 3042.91 228.813 3039.38 231.067C3035.84 233.321 3036.63 240.877 3041.14 247.943C3045.65 255.009 3052.17 258.91 3055.7 256.656Z" fill="#73628A"/>
<path d="M3097.94 266.53C3101.72 264.721 3101.85 257.126 3098.24 249.565C3094.62 242.004 3088.62 237.341 3084.84 239.15C3081.06 240.959 3080.93 248.555 3084.55 256.116C3088.16 263.676 3094.16 268.339 3097.94 266.53Z" fill="#73628A"/>
<path d="M3051.78 155.241C3055.78 153.987 3056.99 146.488 3054.48 138.489C3051.98 130.491 3046.7 125.024 3042.7 126.277C3038.7 127.531 3037.5 135.031 3040 143.029C3042.51 151.027 3047.78 156.494 3051.78 155.241Z" fill="#73628A"/>
<path d="M3092.39 137.808C3096.56 137.377 3099.24 130.268 3098.37 121.931C3097.51 113.594 3093.43 107.185 3089.26 107.617C3085.09 108.048 3082.41 115.157 3083.28 123.494C3084.14 131.831 3088.22 138.24 3092.39 137.808Z" fill="#73628A"/>
<path d="M3126.59 160.629C3130.76 160.197 3133.44 153.088 3132.58 144.751C3131.72 136.414 3127.64 130.005 3123.47 130.437C3119.3 130.869 3116.62 137.977 3117.48 146.315C3118.35 154.652 3122.43 161.06 3126.59 160.629Z" fill="#73628A"/>
<path d="M3166.31 113.537C3170.45 114.148 3174.81 107.92 3176.03 99.6277C3177.25 91.3353 3174.88 84.1181 3170.73 83.5077C3166.58 82.8972 3162.23 89.1247 3161.01 97.4171C3159.79 105.709 3162.16 112.927 3166.31 113.537Z" fill="#73628A"/>
<path d="M3169.81 196.797C3174 196.903 3177.57 190.197 3177.78 181.817C3178 173.438 3174.77 166.56 3170.58 166.454C3166.39 166.348 3162.82 173.054 3162.61 181.433C3162.4 189.813 3165.62 196.691 3169.81 196.797Z" fill="#73628A"/>
<path d="M3185.15 148.749C3189.33 148.391 3192.13 141.331 3191.41 132.979C3190.7 124.628 3186.73 118.149 3182.56 118.507C3178.38 118.866 3175.58 125.926 3176.29 134.277C3177.01 142.628 3180.98 149.108 3185.15 148.749Z" fill="#73628A"/>
<path d="M3215.64 105.611C3219.71 104.632 3221.43 97.2311 3219.47 89.0814C3217.51 80.9316 3212.62 75.1187 3208.55 76.098C3204.47 77.0772 3202.76 84.4778 3204.71 92.6276C3206.67 100.777 3211.56 106.59 3215.64 105.611Z" fill="#73628A"/>
<path d="M3262.89 94.6255C3266.95 93.5981 3268.58 86.1778 3266.53 78.0518C3264.47 69.9257 3259.51 64.1711 3255.45 65.1984C3251.39 66.2258 3249.76 73.6461 3251.81 81.7721C3253.87 89.8982 3258.83 95.6528 3262.89 94.6255Z" fill="#73628A"/>
<path d="M3243.52 167.494C3247.7 167.256 3250.71 160.279 3250.23 151.911C3249.75 143.542 3245.98 136.952 3241.79 137.19C3237.61 137.428 3234.6 144.405 3235.08 152.773C3235.56 161.141 3239.33 167.732 3243.52 167.494Z" fill="#73628A"/>
<path d="M3283.02 226.935C3287.08 227.976 3292.06 222.238 3294.14 214.119C3296.22 206 3294.62 198.574 3290.56 197.533C3286.5 196.492 3281.52 202.23 3279.44 210.349C3277.36 218.469 3278.96 225.894 3283.02 226.935Z" fill="#73628A"/>
<path d="M3321.81 187.295C3325.99 187.589 3329.86 181.049 3330.45 172.687C3331.03 164.326 3328.12 157.31 3323.94 157.016C3319.76 156.723 3315.89 163.262 3315.31 171.624C3314.72 179.985 3317.63 187.001 3321.81 187.295Z" fill="#73628A"/>
<path d="M3340.92 233.696C3344.9 234.986 3350.23 229.567 3352.81 221.592C3355.39 213.617 3354.25 206.107 3350.26 204.816C3346.27 203.526 3340.95 208.945 3338.37 216.92C3335.79 224.895 3336.93 232.405 3340.92 233.696Z" fill="#73628A"/>
<path d="M3609 145C3615.25 183.016 3624.99 278.371 3613.61 300.034" stroke="#698F40" stroke-width="1.99713"/>
<path d="M3592.5 195C3591.84 210.423 3595.86 260.941 3613.6 300.03" stroke="#698F40" stroke-width="1.99713"/>
<path d="M3592.5 107C3580.7 135.532 3554.68 223.037 3614.6 300.023C3643.24 297.514 3692.5 266.002 3705.5 219.5" stroke="#698F40" stroke-width="1.99713"/>
<path d="M3552 154C3553.33 183.453 3558.63 270.297 3613.6 300.031C3682.32 337.198 3751.01 197.034 3744 179" stroke="#698F40" stroke-width="1.99713"/>
<path d="M3517.5 131.5C3515.91 166.711 3520.2 255.214 3613.6 300.034C3707.01 344.854 3747.39 264.238 3765 226" stroke="#698F40" stroke-width="1.99713"/>
<path d="M3477.5 148.5C3503 202 3547.58 327.755 3610.4 302.074C3673.23 276.392 3650.76 150.599 3636.5 97.5" stroke="#698F40" stroke-width="1.99713"/>
<path d="M3479.7 249.653C3496.71 276.308 3534.78 335.917 3610.4 302.072C3686.02 268.228 3687.87 141.738 3682 89" stroke="#698F40" stroke-width="1.99713"/>
<path d="M3519.6 260.934C3533.1 276.434 3559.53 317.888 3607 302.002C3654.47 286.116 3659.75 199.544 3663.98 163.844" stroke="#698F40" stroke-width="1.99713"/>
<path d="M3481.7 254.656C3485.23 252.401 3484.44 244.846 3479.94 237.78C3475.43 230.714 3468.91 226.813 3465.38 229.067C3461.84 231.321 3462.63 238.877 3467.14 245.943C3471.65 253.009 3478.17 256.91 3481.7 254.656Z" fill="#73628A"/>
<path d="M3523.94 264.53C3527.72 262.721 3527.85 255.126 3524.24 247.565C3520.62 240.004 3514.62 235.341 3510.84 237.15C3507.06 238.959 3506.93 246.555 3510.55 254.116C3514.16 261.676 3520.16 266.339 3523.94 264.53Z" fill="#73628A"/>
<path d="M3477.78 153.241C3481.78 151.987 3482.99 144.488 3480.48 136.489C3477.98 128.491 3472.7 123.024 3468.7 124.277C3464.7 125.531 3463.5 133.031 3466 141.029C3468.51 149.027 3473.78 154.494 3477.78 153.241Z" fill="#73628A"/>
<path d="M3518.39 135.808C3522.56 135.377 3525.24 128.268 3524.37 119.931C3523.51 111.594 3519.43 105.185 3515.26 105.617C3511.09 106.048 3508.41 113.157 3509.28 121.494C3510.14 129.831 3514.22 136.24 3518.39 135.808Z" fill="#73628A"/>
<path d="M3552.59 158.629C3556.76 158.197 3559.44 151.088 3558.58 142.751C3557.72 134.414 3553.64 128.005 3549.47 128.437C3545.3 128.869 3542.62 135.977 3543.48 144.315C3544.35 152.652 3548.43 159.06 3552.59 158.629Z" fill="#73628A"/>
<path d="M3592.31 111.537C3596.45 112.148 3600.81 105.92 3602.03 97.6277C3603.25 89.3353 3600.88 82.1181 3596.73 81.5077C3592.58 80.8972 3588.23 87.1247 3587.01 95.4171C3585.79 103.709 3588.16 110.927 3592.31 111.537Z" fill="#73628A"/>
<path d="M3593.81 196.797C3598 196.903 3601.57 190.197 3601.78 181.817C3602 173.438 3598.77 166.56 3594.58 166.454C3590.39 166.348 3586.82 173.054 3586.61 181.433C3586.4 189.813 3589.62 196.691 3593.81 196.797Z" fill="#73628A"/>
<path d="M3609.15 148.749C3613.33 148.391 3616.13 141.331 3615.41 132.979C3614.7 124.628 3610.73 118.149 3606.56 118.507C3602.38 118.866 3599.58 125.926 3600.29 134.277C3601.01 142.628 3604.98 149.108 3609.15 148.749Z" fill="#73628A"/>
<path d="M3637.64 103.611C3641.71 102.632 3643.43 95.2311 3641.47 87.0814C3639.51 78.9316 3634.62 73.1187 3630.55 74.098C3626.47 75.0772 3624.76 82.4778 3626.71 90.6276C3628.67 98.7773 3633.56 104.59 3637.64 103.611Z" fill="#73628A"/>
<path d="M3684.89 92.6255C3688.95 91.5981 3690.58 84.1778 3688.53 76.0518C3686.47 67.9257 3681.51 62.1711 3677.45 63.1984C3673.39 64.2258 3671.76 71.6461 3673.81 79.7721C3675.87 87.8982 3680.83 93.6528 3684.89 92.6255Z" fill="#73628A"/>
<path d="M3665.52 165.494C3669.7 165.256 3672.71 158.279 3672.23 149.911C3671.75 141.542 3667.98 134.952 3663.79 135.19C3659.61 135.428 3656.6 142.405 3657.08 150.773C3657.56 159.141 3661.33 165.732 3665.52 165.494Z" fill="#73628A"/>
<path d="M3705.02 224.935C3709.08 225.976 3714.06 220.238 3716.14 212.119C3718.22 204 3716.62 196.574 3712.56 195.533C3708.5 194.492 3703.52 200.23 3701.44 208.349C3699.36 216.469 3700.96 223.894 3705.02 224.935Z" fill="#73628A"/>
<path d="M3743.81 185.295C3747.99 185.589 3751.86 179.049 3752.45 170.687C3753.03 162.326 3750.12 155.31 3745.94 155.016C3741.76 154.723 3737.89 161.262 3737.31 169.624C3736.72 177.985 3739.63 185.001 3743.81 185.295Z" fill="#73628A"/>
<path d="M3762.92 231.696C3766.9 232.986 3772.23 227.567 3774.81 219.592C3777.39 211.617 3776.25 204.107 3772.26 202.816C3768.27 201.526 3762.95 206.945 3760.37 214.92C3757.79 222.895 3758.93 230.405 3762.92 231.696Z" fill="#73628A"/>
<path d="M4032 143.5C4038.25 181.516 4048.99 278.371 4037.61 300.034" stroke="#698F40" stroke-width="1.99713"/>
<path d="M4016.5 190C4015.84 205.423 4019.86 260.941 4037.6 300.03" stroke="#698F40" stroke-width="1.99713"/>
<path d="M4018.5 105C4006.7 133.532 3978.68 223.037 4038.6 300.023C4067.23 297.514 4114.5 264.002 4127.5 217.5" stroke="#698F40" stroke-width="1.99713"/>
<path d="M3978 153C3979.33 182.453 3982.63 270.297 4037.6 300.031C4106.32 337.198 4173.01 195.034 4166 177" stroke="#698F40" stroke-width="1.99713"/>
<path d="M3943.5 129.5C3941.91 164.711 3944.2 255.214 4037.6 300.034C4131.01 344.854 4169.39 262.238 4187 224" stroke="#698F40" stroke-width="1.99713"/>
<path d="M3903.5 146.5C3929 200 3971.58 327.755 4034.4 302.074C4097.23 276.392 4072.76 148.599 4058.5 95.5" stroke="#698F40" stroke-width="1.99713"/>
<path d="M3905.7 247.653C3922.71 274.308 3958.78 335.917 4034.4 302.072C4110.02 268.228 4109.87 139.738 4104 87" stroke="#698F40" stroke-width="1.99713"/>
<path d="M3945.6 258.934C3959.1 274.434 3983.53 317.888 4031 302.002C4078.47 286.116 4081.75 197.544 4085.98 161.844" stroke="#698F40" stroke-width="1.99713"/>
<path d="M3907.7 252.656C3911.23 250.401 3910.44 242.846 3905.94 235.78C3901.43 228.714 3894.91 224.813 3891.38 227.067C3887.84 229.321 3888.63 236.877 3893.14 243.943C3897.65 251.009 3904.17 254.91 3907.7 252.656Z" fill="#73628A"/>
<path d="M3949.94 262.53C3953.72 260.721 3953.85 253.126 3950.24 245.565C3946.62 238.004 3940.62 233.341 3936.84 235.15C3933.06 236.959 3932.93 244.555 3936.55 252.116C3940.16 259.676 3946.16 264.339 3949.94 262.53Z" fill="#73628A"/>
<path d="M3903.78 151.241C3907.78 149.987 3908.99 142.488 3906.48 134.489C3903.98 126.491 3898.7 121.024 3894.7 122.277C3890.7 123.531 3889.5 131.031 3892 139.029C3894.51 147.027 3899.78 152.494 3903.78 151.241Z" fill="#73628A"/>
<path d="M3944.39 133.808C3948.56 133.377 3951.24 126.268 3950.37 117.931C3949.51 109.594 3945.43 103.185 3941.26 103.617C3937.09 104.048 3934.41 111.157 3935.28 119.494C3936.14 127.831 3940.22 134.24 3944.39 133.808Z" fill="#73628A"/>
<path d="M3978.59 156.629C3982.76 156.197 3985.44 149.088 3984.58 140.751C3983.72 132.414 3979.64 126.005 3975.47 126.437C3971.3 126.869 3968.62 133.977 3969.48 142.315C3970.35 150.652 3974.43 157.06 3978.59 156.629Z" fill="#73628A"/>
<path d="M4018.31 109.537C4022.45 110.148 4026.81 103.92 4028.03 95.6277C4029.25 87.3353 4026.88 80.1181 4022.73 79.5077C4018.58 78.8972 4014.23 85.1247 4013.01 93.4171C4011.79 101.709 4014.16 108.927 4018.31 109.537Z" fill="#73628A"/>
<path d="M4017.81 194.797C4022 194.903 4025.57 188.197 4025.78 179.817C4026 171.438 4022.77 164.56 4018.58 164.454C4014.39 164.348 4010.82 171.054 4010.61 179.433C4010.4 187.813 4013.62 194.691 4017.81 194.797Z" fill="#73628A"/>
<path d="M4033.15 147.749C4037.33 147.391 4040.13 140.331 4039.41 131.979C4038.7 123.628 4034.73 117.149 4030.56 117.507C4026.38 117.866 4023.58 124.926 4024.29 133.277C4025.01 141.628 4028.98 148.108 4033.15 147.749Z" fill="#73628A"/>
<path d="M4059.64 101.611C4063.71 100.632 4065.43 93.2311 4063.47 85.0814C4061.51 76.9316 4056.62 71.1187 4052.55 72.098C4048.47 73.0772 4046.76 80.4778 4048.71 88.6276C4050.67 96.7773 4055.56 102.59 4059.64 101.611Z" fill="#73628A"/>
<path d="M4106.89 90.6255C4110.95 89.5981 4112.58 82.1778 4110.53 74.0518C4108.47 65.9257 4103.51 60.1711 4099.45 61.1984C4095.39 62.2258 4093.76 69.6461 4095.81 77.7721C4097.87 85.8982 4102.83 91.6528 4106.89 90.6255Z" fill="#73628A"/>
<path d="M4087.52 163.494C4091.7 163.256 4094.71 156.279 4094.23 147.911C4093.75 139.542 4089.98 132.952 4085.79 133.19C4081.61 133.428 4078.6 140.405 4079.08 148.773C4079.56 157.141 4083.33 163.732 4087.52 163.494Z" fill="#73628A"/>
<path d="M4127.02 222.935C4131.08 223.976 4136.06 218.238 4138.14 210.119C4140.22 202 4138.62 194.574 4134.56 193.533C4130.5 192.492 4125.52 198.23 4123.44 206.349C4121.36 214.469 4122.96 221.894 4127.02 222.935Z" fill="#73628A"/>
<path d="M4165.81 183.295C4169.99 183.589 4173.86 177.049 4174.45 168.687C4175.03 160.326 4172.12 153.31 4167.94 153.016C4163.76 152.723 4159.89 159.262 4159.31 167.624C4158.72 175.985 4161.63 183.001 4165.81 183.295Z" fill="#73628A"/>
<path d="M4184.92 229.696C4188.9 230.986 4194.23 225.567 4196.81 217.592C4199.39 209.617 4198.25 202.107 4194.26 200.816C4190.27 199.526 4184.95 204.945 4182.37 212.92C4179.79 220.895 4180.93 228.405 4184.92 229.696Z" fill="#73628A"/>
</svg>
