<svg width="14" height="523" viewBox="0 0 14 523" fill="none" xmlns="http://www.w3.org/2000/svg">
<path d="M6.86889 1.13663C2.82138 4.52965 -2.83268 13.5401 6.93113 22.4379C16.6949 31.3357 11.0389 39.67 6.9904 42.7249C3.61917 46.1159 -1.08871 54.9208 7.04968 63.0118C15.1881 71.1029 10.4802 79.9077 7.10895 83.2988C3.39762 86.0146 -1.78639 93.8741 7.16822 103.586C16.1228 113.297 10.9448 123.186 7.23639 126.916C4.20327 130.306 -0.0312516 139.109 7.29566 147.203C14.6226 155.296 10.394 166.128 7.36383 170.533C4.66586 172.907 0.900551 180.289 7.4231 190.82C13.9456 201.35 10.1823 209.408 7.48534 212.121C4.78934 215.172 1.0268 223.501 7.54461 232.408C14.0624 241.315 10.3019 250.32 7.60685 253.709C4.90986 256.422 1.14594 264.277 7.66612 273.996C14.1863 283.715 10.4263 292.923 7.73132 296.312C4.12358 299.703 -0.913619 309.118 7.79948 319.642C16.5126 330.166 11.4714 338.228 7.86172 340.943C4.253 343.997 -0.788552 351.923 7.91507 359.201C16.6187 366.479 11.587 377.787 7.98323 382.531C5.05173 385.921 0.960063 394.927 8.04547 403.833C15.1309 412.738 11.0432 423.097 8.11363 427.163C4.84599 431.23 0.285507 441.792 8.18476 451.507C16.084 461.222 11.5216 471.108 8.25293 474.837C5.32339 478.903 1.23509 489.058 8.31813 497.153C15.4012 505.247 8.31813 519.005 8.31813 522.49" stroke="#698F40" stroke-width="1.49785"/>
</svg>
