<svg width="18" height="698" viewBox="0 0 18 698" fill="none" xmlns="http://www.w3.org/2000/svg">
<path d="M8.21831 1.16652C2.81387 5.69704 -4.73572 17.7283 8.30141 29.6091C21.3385 41.4899 13.7863 52.6181 8.38055 56.6972C3.87911 61.2251 -2.40708 72.9817 8.4597 83.7853C19.3265 94.5889 13.0403 106.346 8.53884 110.873C3.58329 114.5 -3.33865 124.994 8.61799 137.962C20.5746 150.929 13.6606 164.132 8.709 169.113C4.65903 173.639 -0.995108 185.394 8.78815 196.201C18.5714 207.008 12.9252 221.471 8.87916 227.352C5.2767 230.523 0.24908 240.38 8.95831 254.441C17.6675 268.501 12.6426 279.261 9.04141 282.883C5.44158 286.957 0.417658 298.078 9.12055 309.971C17.8234 321.865 12.8022 333.889 9.20366 338.414C5.60251 342.036 0.576738 352.525 9.2828 365.502C17.9889 378.479 12.9684 390.774 9.36986 395.299C4.55263 399.828 -2.17329 412.398 9.46088 426.45C21.095 440.502 14.3638 451.267 9.54398 454.893C4.72543 458.97 -2.00629 469.554 9.61521 479.272C21.2367 488.99 14.5182 504.089 9.70622 510.423C5.79193 514.95 0.328544 526.975 9.78933 538.866C19.2501 550.757 13.792 564.588 9.88034 570.017C5.51722 575.448 -0.572157 589.551 9.97532 602.523C20.5228 615.495 14.4308 628.695 10.0663 633.674C6.15468 639.103 0.695774 652.664 10.1534 663.471C19.611 674.279 10.1534 692.65 10.1534 697.303" stroke="#698F40" stroke-width="2"/>
</svg>
