<svg width="18" height="697" viewBox="0 0 18 697" fill="none" xmlns="http://www.w3.org/2000/svg">
<path d="M8.66504 1.60015C3.26836 6.12417 -4.2704 18.1381 8.74802 30.0019C21.7664 41.8656 14.2251 52.978 8.82705 57.0512C4.33207 61.5725 -1.94511 73.3123 8.90608 84.1004C19.7573 94.8885 13.4801 106.628 8.98511 111.15C4.03667 114.771 -2.87534 125.25 9.06415 138.199C21.0036 151.148 14.0995 164.332 9.15503 169.306C5.11087 173.826 -0.535159 185.564 9.23406 196.355C19.0033 207.146 13.3652 221.589 9.32495 227.462C5.72765 230.628 0.707244 240.471 9.40398 254.511C18.1007 268.551 13.0829 279.296 9.48696 282.913C5.8923 286.981 0.875581 298.086 9.56599 309.962C18.2564 321.838 13.2423 333.845 9.64898 338.364C6.053 341.981 1.03443 352.455 9.72801 365.413C18.4216 378.371 13.4083 390.648 9.81494 395.167C5.00462 399.689 -1.71165 412.242 9.90583 426.274C21.5233 440.306 14.8018 451.055 9.98881 454.676C5.17717 458.747 -1.54489 469.316 10.0599 479.02C21.6648 488.724 14.9559 503.801 10.1508 510.127C6.24215 514.646 0.786594 526.654 10.2338 538.528C19.681 550.402 14.2307 564.214 10.3247 569.635C5.96783 575.058 -0.112814 589.141 10.4195 602.094C20.9519 615.047 14.8686 628.229 10.5104 633.201C6.60437 638.622 1.1533 652.163 10.5973 662.955C20.0414 673.747 10.5973 692.091 10.5973 696.738" stroke="#698F40" stroke-width="1.99713"/>
</svg>
