<svg width="18" height="697" viewBox="0 0 18 697" fill="none" xmlns="http://www.w3.org/2000/svg">
<path d="M9.09863 1.20171C3.70195 5.72573 -3.83681 17.7397 9.18162 29.6035C22.2 41.4672 14.6586 52.5795 9.26065 56.6527C4.76566 61.1741 -1.51152 72.9139 9.33968 83.702C20.1909 94.4901 13.9137 106.23 9.41871 110.751C4.47027 114.372 -2.44175 124.852 9.49774 137.801C21.4372 150.749 14.5331 163.934 9.58863 168.907C5.54446 173.427 -0.101565 185.165 9.66766 195.956C19.4369 206.748 13.7988 221.191 9.75854 227.063C6.16125 230.229 1.14084 240.072 9.83757 254.112C18.5343 268.153 13.5165 278.897 9.92056 282.514C6.32589 286.582 1.30917 297.687 9.99959 309.563C18.69 321.44 13.6759 333.446 10.0826 337.965C6.48659 341.582 1.46803 352.056 10.1616 365.014C18.8552 377.973 13.8419 390.25 10.2485 394.769C5.43821 399.291 -1.27805 411.844 10.3394 425.875C21.9569 439.907 15.2354 450.656 10.4224 454.277C5.61077 458.349 -1.1113 468.918 10.4935 478.621C22.0984 488.325 15.3895 503.402 10.5844 509.728C6.67574 514.248 1.22019 526.256 10.6674 538.13C20.1146 550.004 14.6643 563.815 10.7583 569.237C6.40142 574.659 0.320779 588.743 10.8531 601.696C21.3855 614.649 15.3022 627.83 10.944 632.802C7.03796 638.224 1.58689 651.764 11.0309 662.556C20.475 673.349 11.0309 691.693 11.0309 696.34" stroke="#698F40" stroke-width="1.99713"/>
</svg>
