<svg width="14" height="523" viewBox="0 0 14 523" fill="none" xmlns="http://www.w3.org/2000/svg">
<path d="M6.94507 1.08976C2.89756 4.48277 -2.75651 13.4933 7.0073 22.3911C16.7711 31.2889 11.1151 39.6231 7.06658 42.678C3.69534 46.069 -1.01254 54.8739 7.12585 62.965C15.2642 71.056 10.5564 79.8609 7.18512 83.2519C3.47379 85.9677 -1.71022 93.8272 7.2444 103.539C16.199 113.251 11.0209 123.139 7.31256 126.869C4.27944 130.259 0.0449202 139.062 7.37183 147.156C14.6987 155.249 10.4702 166.081 7.44 170.486C4.74203 172.86 0.976723 180.242 7.49927 190.773C14.0218 201.303 10.2585 209.361 7.56151 212.074C4.86551 215.125 1.10297 223.454 7.62078 232.361C14.1386 241.268 10.378 250.273 7.68302 253.662C4.98604 256.375 1.22211 264.23 7.74229 273.949C14.2625 283.668 10.5025 292.876 7.80749 296.265C4.19975 299.657 -0.837447 309.071 7.87566 319.595C16.5888 330.119 11.5476 338.181 7.93789 340.896C4.32917 343.95 -0.71238 351.876 7.99124 359.154C16.6949 366.432 11.6632 377.74 8.0594 382.484C5.1279 385.874 1.03623 394.88 8.12164 403.786C15.207 412.691 11.1193 423.05 8.18981 427.116C4.92216 431.183 0.361678 441.745 8.26093 451.46C16.1602 461.175 11.5977 471.061 8.3291 474.79C5.39957 478.856 1.31126 489.011 8.3943 497.106C15.4773 505.2 8.3943 518.958 8.3943 522.443" stroke="#698F40" stroke-width="1.49785"/>
</svg>
