<svg width="18" height="698" viewBox="0 0 18 698" fill="none" xmlns="http://www.w3.org/2000/svg">
<path d="M8.37065 1.16652C2.96621 5.69704 -4.58338 17.7283 8.45375 29.6091C21.4909 41.4899 13.9387 52.6181 8.5329 56.6972C4.03145 61.2251 -2.25474 72.9817 8.61204 83.7853C19.4788 94.5889 13.1926 106.346 8.69119 110.873C3.73563 114.5 -3.18631 124.994 8.77033 137.962C20.727 150.929 13.8129 164.132 8.86135 169.113C4.81137 173.639 -0.842764 185.394 8.94049 196.201C18.7237 207.008 13.0775 221.471 9.03151 227.352C5.42904 230.523 0.401424 240.38 9.11065 254.441C17.8199 268.501 12.7949 279.261 9.19375 282.883C5.59393 286.957 0.570002 298.078 9.2729 309.971C17.9758 321.865 12.9545 333.889 9.356 338.414C5.75486 342.036 0.729082 352.525 9.43514 365.502C18.1412 378.479 13.1207 390.774 9.5222 395.299C4.70497 399.828 -2.02094 412.398 9.61322 426.45C21.2474 440.502 14.5162 451.267 9.69632 454.893C4.87777 458.97 -1.85395 469.554 9.76755 479.272C21.3891 488.99 14.6705 504.089 9.85857 510.423C5.94428 514.95 0.480887 526.975 9.94167 538.866C19.4025 550.757 13.9443 564.588 10.0327 570.017C5.66956 575.448 -0.419813 589.551 10.1277 602.523C20.6751 615.495 14.5831 628.695 10.2187 633.674C6.30702 639.103 0.848118 652.664 10.3057 663.471C19.7634 674.279 10.3057 692.65 10.3057 697.303" stroke="#698F40" stroke-width="2"/>
</svg>
