<svg width="167" height="641" viewBox="0 0 167 641" fill="none" xmlns="http://www.w3.org/2000/svg">
<path d="M166.75 1.45962C165.207 1.23681 162.642 3.31848 161.855 11.7872C161.194 18.8968 161.369 26.8405 155.769 31.2698C152.796 33.6211 148.604 35.5009 142.889 35.8094C129.459 36.5344 130.446 54.819 129.688 63.4614C129.839 66.2601 128.021 71.2109 121.172 74.6569C113.36 78.5866 105.562 78.0645 101.015 85.5334V85.5334C95.6898 94.2798 98.4069 110.101 89.4205 115.01C86.8828 116.396 83.7582 117.37 79.9548 117.576C71.2046 118.048 67.8431 127.146 66.8974 135.813C66.1309 142.837 66.4125 150.828 60.5262 154.736C58.0433 156.385 54.7106 157.754 50.3191 158.36C38.6506 159.969 37.9244 171.839 37.8772 177.399C37.8486 180.767 36.5727 185.937 32.8018 190.294C24.0323 200.426 4.94541 202.493 5.66772 215.874V215.874C6.14227 224.664 3.20532 502.951 1.67752 640.995" stroke="#698F40" stroke-width="1.49785"/>
</svg>
