<svg width="222" height="855" viewBox="0 0 222 855" fill="none" xmlns="http://www.w3.org/2000/svg">
<path d="M221.842 1.70006C219.785 1.40298 216.365 4.17854 215.316 15.4701C214.435 24.9496 214.668 35.5413 207.201 41.4469C203.237 44.582 197.648 47.0885 190.028 47.4998C172.121 48.4665 173.437 72.8459 172.426 84.3691C172.627 88.1007 170.204 94.7018 161.071 99.2964C150.656 104.536 140.259 103.84 134.196 113.798V113.798C127.095 125.46 130.718 146.555 118.736 153.1C115.353 154.949 111.187 156.248 106.115 156.522C94.4485 157.151 89.9666 169.281 88.7056 180.837C87.6836 190.203 88.0591 200.858 80.2106 206.069C76.9001 208.267 72.4565 210.093 66.6012 210.901C51.0432 213.047 50.0749 228.872 50.012 236.286C49.9739 240.777 48.2727 247.67 43.2448 253.479C31.5522 266.988 6.10295 269.745 7.06604 287.585V287.585C7.69877 299.307 3.78284 670.355 1.74577 854.415" stroke="#698F40" stroke-width="1.99713"/>
</svg>
