<svg width="222" height="855" viewBox="0 0 222 855" fill="none" xmlns="http://www.w3.org/2000/svg">
<path d="M221.738 1.03996C219.679 0.742455 216.253 3.522 215.203 14.8298C214.321 24.3229 214.554 34.9298 207.076 40.8439C203.106 43.9835 197.51 46.4936 189.879 46.9055C171.946 47.8736 173.264 72.288 172.252 83.8278C172.453 87.5647 170.027 94.1753 160.88 98.7765C150.45 104.024 140.038 103.327 133.966 113.299V113.299C126.856 124.978 130.484 146.103 118.485 152.658C115.096 154.509 110.924 155.81 105.846 156.084C94.162 156.715 89.6737 168.862 88.4108 180.435C87.3873 189.813 87.7634 200.484 79.9037 205.702C76.5884 207.903 72.1384 209.732 66.2746 210.541C50.6944 212.69 49.7247 228.538 49.6617 235.963C49.6235 240.46 47.9199 247.363 42.8847 253.18C31.1753 266.709 5.68952 269.47 6.65399 287.336V287.336C7.28764 299.074 3.36608 670.656 1.32609 854.98" stroke="#698F40" stroke-width="2"/>
</svg>
