<svg width="167" height="641" viewBox="0 0 167 641" fill="none" xmlns="http://www.w3.org/2000/svg">
<path d="M0.5394 1.41274C2.0818 1.18993 4.64737 3.2716 5.43415 11.7403C6.09465 18.8499 5.92012 26.7936 11.5205 31.2229C14.4935 33.5742 18.685 35.4541 24.3999 35.7626C37.8304 36.4876 36.8434 54.7721 37.6014 63.4145C37.4503 66.2132 39.2676 71.1641 46.1175 74.61C53.9291 78.5397 61.7268 78.0176 66.2741 85.4865V85.4865C71.5993 94.2329 68.8821 110.054 77.8686 114.963C80.4062 116.349 83.5309 117.324 87.3343 117.529C96.0845 118.001 99.4459 127.099 100.392 135.766C101.158 142.79 100.877 150.781 106.763 154.689C109.246 156.338 112.579 157.707 116.97 158.313C128.638 159.923 129.365 171.792 129.412 177.352C129.44 180.72 130.716 185.89 134.487 190.247C143.257 200.379 162.344 202.446 161.621 215.827V215.827C161.147 224.618 164.084 502.904 165.612 640.949" stroke="#698F40" stroke-width="1.49785"/>
</svg>
