<svg width="222" height="855" viewBox="0 0 222 855" fill="none" xmlns="http://www.w3.org/2000/svg">
<path d="M0.558393 1.29772C2.61493 1.00064 6.03569 3.7762 7.08472 15.0678C7.9654 24.5472 7.73268 35.1389 15.1998 41.0446C19.1638 44.1797 24.7525 46.6861 32.3724 47.0975C50.2798 48.0642 48.9637 72.4436 49.9744 83.9668C49.7729 87.6983 52.196 94.2995 61.3293 98.8941C71.7447 104.134 82.1416 103.438 88.2047 113.396V113.396C95.3049 125.058 91.6821 146.152 103.664 152.698C107.048 154.546 111.214 155.845 116.285 156.119C127.952 156.749 132.434 168.879 133.695 180.435C134.717 189.8 134.341 200.455 142.19 205.666C145.5 207.864 149.944 209.691 155.799 210.498C171.357 212.644 172.325 228.47 172.388 235.884C172.427 240.374 174.128 247.267 179.156 253.077C190.848 266.586 216.297 269.342 215.334 287.183V287.183C214.702 298.904 218.618 669.953 220.655 854.012" stroke="#698F40" stroke-width="1.99713"/>
</svg>
