<svg width="283" height="152" viewBox="0 0 283 152" fill="none" xmlns="http://www.w3.org/2000/svg">
<path d="M30.6265 26.333L27.0947 25.1649L32.6464 8.37917L23.8358 5.46516L18.2841 22.2509L14.7522 21.0828L21.2836 1.33485L37.1579 6.58511L30.6265 26.333ZM63.1645 26.1827C63.9265 23.8788 63.943 21.9181 63.214 20.3007C62.485 18.6833 61.1711 17.5606 59.2723 16.9326C58.2089 16.5809 57.3609 16.3426 56.7281 16.2176C56.1207 16.1009 55.623 16.0346 55.2351 16.0187L51.1152 28.475C51.4284 28.9719 51.9356 29.5188 52.637 30.1159C53.3383 30.713 54.17 31.1706 55.1321 31.4888C56.1448 31.8238 57.0642 31.9312 57.8903 31.8112C58.7501 31.6743 59.5126 31.3647 60.1776 30.8825C60.8511 30.375 61.4314 29.7243 61.9187 28.9305C62.4143 28.1113 62.8296 27.1954 63.1645 26.1827ZM66.8483 27.4011C66.3542 28.8948 65.6953 30.2077 64.8715 31.3396C64.0731 32.4799 63.1434 33.3801 62.0824 34.0404C61.0214 34.7006 59.8502 35.0997 58.5687 35.2376C57.3126 35.3839 55.9756 35.2226 54.5578 34.7536C53.4185 34.3768 52.456 33.89 51.6704 33.2931C50.9101 32.7046 50.3608 32.1999 50.0225 31.779L47.4099 39.6782L43.8781 38.5101L52.5322 12.3441C53.4347 12.4179 54.5439 12.546 55.8598 12.7284C57.2095 12.8939 58.7071 13.2488 60.3528 13.7931C61.8718 14.2955 63.1594 14.9882 64.2156 15.8712C65.2718 16.7542 66.0837 17.7811 66.6514 18.9519C67.2192 20.1227 67.5174 21.4291 67.546 22.871C67.6084 24.296 67.3758 25.806 66.8483 27.4011ZM98.7563 37.9122C98.2371 39.4819 97.5403 40.8243 96.6659 41.9395C95.7915 43.0547 94.7859 43.9298 93.6489 44.5649C92.5373 45.2084 91.3281 45.5949 90.0213 45.7245C88.7229 45.8287 87.4028 45.6589 86.0609 45.2151C84.7191 44.7713 83.5581 44.1205 82.5779 43.2626C81.606 42.3794 80.8531 41.344 80.3191 40.1562C79.8103 38.9768 79.5375 37.6788 79.5004 36.2622C79.4634 34.8456 79.7044 33.3524 80.2236 31.7827C80.7344 30.2383 81.427 28.9085 82.3014 27.7934C83.1842 26.6529 84.1814 25.7609 85.293 25.1174C86.4299 24.4823 87.6476 24.1126 88.946 24.0084C90.2528 23.8788 91.5771 24.036 92.9189 24.4798C94.2608 24.9236 95.4176 25.5871 96.3894 26.4702C97.3697 27.3281 98.1141 28.3467 98.6228 29.5261C99.1569 30.7139 99.4382 32.0287 99.4669 33.4707C99.5039 34.8873 99.2671 36.3678 98.7563 37.9122ZM95.0725 36.6938C95.8094 34.4658 95.885 32.5388 95.2994 30.9126C94.7474 29.2695 93.6106 28.1633 91.889 27.5939C90.1674 27.0245 88.5825 27.2305 87.1343 28.2121C85.7199 29.1768 84.6442 30.7731 83.9074 33.001C83.1705 35.229 83.078 37.1646 83.63 38.8077C84.2156 40.4338 85.3693 41.5316 87.0909 42.101C88.8125 42.6704 90.3805 42.4728 91.795 41.5081C93.2431 40.5266 94.3356 38.9218 95.0725 36.6938ZM120.724 44.2087C121.325 45.0253 121.938 46.0147 122.565 47.177C123.2 48.3139 123.785 49.5185 124.319 50.7906C124.879 52.071 125.366 53.3559 125.783 54.6451C126.207 55.909 126.539 57.072 126.777 58.134L122.6 56.7523C122.328 55.7073 121.958 54.6161 121.492 53.4788C121.059 52.3245 120.576 51.1956 120.042 50.0922C119.508 48.9887 118.941 47.9444 118.34 46.9592C117.739 45.974 117.151 45.1194 116.575 44.3955L113.486 53.7378L109.954 52.5697L116.485 32.8218L120.017 33.9899L117.216 42.4587C118.016 42.0774 118.934 41.6367 119.97 41.1368C121.015 40.6115 122.059 40.0862 123.104 39.561C124.182 39.0187 125.18 38.5062 126.098 38.0234C127.024 37.5153 127.782 37.0919 128.372 36.7532L132.473 38.1097C131.715 38.5331 130.827 39.0116 129.808 39.5453C128.822 40.062 127.791 40.5914 126.712 41.1337C125.66 41.6843 124.607 42.2348 123.554 42.7854C122.51 43.3107 121.566 43.7851 120.724 44.2087ZM153.087 48.2137C152.811 49.0492 152.488 49.9396 152.119 50.8849C151.784 51.8133 151.407 52.7418 150.987 53.6704C150.576 54.5736 150.127 55.4643 149.64 56.3425C149.162 57.1953 148.649 57.9808 148.103 58.6988C147.556 59.4169 146.95 60.0592 146.286 60.6257C145.646 61.2007 144.93 61.6661 144.138 62.0222C143.355 62.3529 142.495 62.5741 141.56 62.6859C140.632 62.7724 139.607 62.6863 138.485 62.4275L138.971 59.302C140.296 59.4591 141.425 59.3131 142.36 58.864C143.32 58.4233 144.179 57.7804 144.936 56.9353C145.601 56.2001 146.201 55.3175 146.739 54.2874C147.276 53.2574 147.775 52.1726 148.236 51.0331C148.706 49.8683 149.137 48.6909 149.531 47.501C149.95 46.3194 150.335 45.197 150.687 44.1336L163.827 48.4795L157.295 68.2274L153.764 67.0593L159.315 50.2736L153.087 48.2137ZM183.555 68.4021C183.175 68.2765 182.808 68.1551 182.454 68.0378C182.108 67.8953 181.774 67.7569 181.453 67.6227C180.241 68.57 179.025 69.6143 177.805 70.7556C176.619 71.8799 175.538 72.9408 174.562 73.9381L170.992 72.7574C171.539 72.1237 172.14 71.4941 172.796 70.8685C173.461 70.2176 174.117 69.5921 174.765 68.9918C175.438 68.4 176.099 67.8461 176.747 67.3302C177.395 66.8142 177.997 66.3533 178.553 65.9472C177.928 65.4595 177.446 64.9631 177.107 64.458C176.777 63.9275 176.548 63.3883 176.421 62.8405C176.293 62.2926 176.249 61.7446 176.29 61.1964C176.365 60.6312 176.49 60.0828 176.666 59.5511C177.034 58.4371 177.559 57.5294 178.241 56.8279C178.947 56.1347 179.756 55.6438 180.666 55.3549C181.584 55.0408 182.583 54.9077 183.663 54.9558C184.768 55.0122 185.915 55.2372 187.105 55.6308C188.776 56.1835 190.169 56.7283 191.283 57.2654C192.397 57.8025 193.313 58.3021 194.031 58.7643L187.588 78.2463L184.094 77.0908L186.631 69.4195L183.555 68.4021ZM189.759 59.9633C189.497 59.8205 189.045 59.615 188.404 59.3466C187.788 59.0866 187.062 58.8185 186.226 58.5422C184.783 58.0649 183.518 57.9835 182.431 58.298C181.352 58.5873 180.599 59.3775 180.172 60.6687C179.754 61.9346 179.92 62.9588 180.673 63.7413C181.425 64.5238 182.523 65.1537 183.966 65.631L187.498 66.7991L189.759 59.9633ZM223.622 68.256L222.642 71.2182L216.224 69.0955L210.672 85.8812L207.14 84.7131L212.692 67.9274L206.274 65.8046L207.254 62.8425L223.622 68.256ZM238.524 92.3544C240.018 92.8484 241.291 92.9466 242.345 92.649C243.398 92.3514 244.138 91.557 244.565 90.2658C244.775 89.6329 244.828 89.0467 244.726 88.5072C244.623 87.9677 244.39 87.4834 244.026 87.0542C243.697 86.608 243.261 86.2253 242.721 85.9062C242.189 85.5617 241.594 85.2805 240.935 85.0628C240.252 84.8367 239.535 84.6276 238.784 84.4354C238.066 84.2263 237.434 84.1012 236.885 84.0604L234.637 90.8582C234.781 90.9338 235 91.0344 235.295 91.1602C235.591 91.286 235.912 91.4202 236.258 91.5628C236.638 91.6884 237.013 91.8266 237.384 91.9776C237.79 92.1115 238.169 92.2371 238.524 92.3544ZM230.364 91.9307L236.757 72.6005L240.289 73.7687L237.79 81.326C238.009 81.3424 238.292 81.3797 238.637 81.4379C239.009 81.5045 239.392 81.5753 239.789 81.6502C240.211 81.7336 240.641 81.8338 241.08 81.9508C241.519 82.0678 241.928 82.1892 242.308 82.3148C243.396 82.6748 244.38 83.1405 245.258 83.7119C246.145 84.258 246.855 84.9141 247.388 85.6802C247.955 86.4294 248.315 87.2929 248.469 88.2708C248.632 89.2233 248.524 90.2692 248.148 91.4085C247.754 92.5984 247.217 93.5442 246.535 94.2457C245.854 94.9472 245.045 95.4382 244.11 95.7186C243.175 95.9991 242.138 96.0774 240.999 95.9536C239.877 95.8635 238.671 95.6049 237.379 95.1778C236.113 94.7591 234.898 94.2729 233.733 93.719C232.56 93.1905 231.437 92.5944 230.364 91.9307ZM261.936 91.9243C262.514 90.1773 263.269 88.742 264.203 87.6182C265.144 86.4692 266.175 85.6024 267.296 85.0179C268.416 84.4335 269.591 84.1061 270.822 84.0357C272.053 83.9654 273.239 84.1186 274.378 84.4954C277.036 85.3747 278.798 86.8842 279.663 89.0241C280.537 91.1387 280.412 93.8923 279.29 97.2849C279.24 97.4368 279.173 97.6393 279.089 97.8925C279.014 98.1204 278.93 98.3314 278.838 98.5256L265.318 94.0541C264.792 96.155 264.872 97.9089 265.558 99.3155C266.244 100.722 267.689 101.79 269.892 102.518C271.132 102.929 272.204 103.171 273.106 103.244C274.042 103.301 274.759 103.3 275.257 103.239L274.771 106.365C274.265 106.45 273.426 106.44 272.253 106.333C271.106 106.234 269.849 105.959 268.482 105.507C266.76 104.937 265.35 104.19 264.252 103.265C263.187 102.323 262.4 101.262 261.892 100.083C261.383 98.9037 261.131 97.6267 261.136 96.2521C261.175 94.8606 261.442 93.418 261.936 91.9243ZM276.134 94.4715C276.687 92.8849 276.713 91.447 276.213 90.158C275.746 88.852 274.791 87.9603 273.348 87.483C272.538 87.2151 271.762 87.141 271.02 87.2608C270.312 87.3636 269.659 87.5971 269.061 87.9611C268.463 88.3251 267.928 88.7943 267.458 89.3689C267.012 89.9518 266.638 90.5725 266.336 91.2309L276.134 94.4715ZM16.4858 70.1068L12.954 68.9387L15.8429 60.204L6.72848 57.1895L3.83958 65.9242L0.307737 64.7561L6.83916 45.0081L10.371 46.1763L7.70819 54.2273L16.8226 57.2418L19.4854 49.1908L23.0173 50.3589L16.4858 70.1068ZM34.2058 65.0556C34.7836 63.3086 35.5391 61.8733 36.4726 60.7496C37.4143 59.6005 38.4453 58.7337 39.5655 58.1493C40.6857 57.5648 41.8613 57.2374 43.0923 57.167C44.3234 57.0967 45.5085 57.2499 46.6478 57.6267C49.3062 58.506 51.068 60.0155 51.9331 62.1554C52.8066 64.27 52.6823 67.0236 51.5603 70.4162C51.51 70.5681 51.443 70.7707 51.3593 71.0238C51.2839 71.2517 51.2001 71.4627 51.1078 71.6569L37.5881 67.1854C37.0617 69.2864 37.1417 71.0402 37.828 72.4469C38.5144 73.8535 39.9589 74.9211 42.1615 75.6496C43.4021 76.0599 44.4736 76.302 45.3761 76.3758C46.3123 76.4326 47.0291 76.4309 47.5265 76.3707L47.0404 79.4962C46.5347 79.5817 45.6956 79.571 44.5232 79.4641C43.3761 79.3656 42.119 79.0903 40.7518 78.6381C39.0302 78.0687 37.6202 77.3215 36.5218 76.3964C35.457 75.4545 34.6703 74.3938 34.1616 73.2144C33.6529 72.035 33.4011 70.758 33.4063 69.3834C33.4453 67.9919 33.7117 66.5493 34.2058 65.0556ZM48.4041 67.6028C48.9569 66.0162 48.9831 64.5783 48.4825 63.2893C48.0157 61.9833 47.0607 61.0916 45.6176 60.6143C44.8074 60.3464 44.0314 60.2723 43.2896 60.3921C42.5815 60.495 41.9285 60.7284 41.3306 61.0924C40.7328 61.4564 40.1984 61.9257 39.7275 62.5002C39.2819 63.0831 38.9081 63.7038 38.6061 64.3622L48.4041 67.6028ZM67.0969 83.8967C67.2404 83.9723 67.4472 84.0688 67.7173 84.1862C67.9875 84.3036 68.2956 84.4336 68.6416 84.5761C68.9961 84.6934 69.359 84.8275 69.7304 84.9784C70.1355 85.1124 70.5153 85.238 70.8697 85.3552C71.6039 85.598 72.3169 85.7777 73.0087 85.8941C73.7257 86.0189 74.3667 86.0343 74.9315 85.9402C75.5215 85.8545 76.0228 85.6552 76.4353 85.3422C76.8815 85.0123 77.2134 84.5182 77.4311 83.8599C77.6405 83.227 77.6729 82.6619 77.5284 82.1647C77.4175 81.6506 77.1761 81.1915 76.8041 80.7876C76.4322 80.3837 75.9464 80.0265 75.347 79.7159C74.7728 79.4136 74.1313 79.1453 73.4224 78.9108L69.207 77.5166L67.0969 83.8967ZM73.8334 76.1397C74.517 76.3658 75.1498 76.533 75.7319 76.6412C76.3477 76.7325 76.8959 76.7313 77.3763 76.6374C77.8821 76.5519 78.3117 76.3569 78.6651 76.0525C79.0439 75.7565 79.3296 75.3173 79.5222 74.735C79.7232 74.1274 79.7304 73.5961 79.5438 73.1412C79.3572 72.6862 79.04 72.2864 78.5923 71.9417C78.1782 71.5801 77.6631 71.2693 77.0469 71.0093C76.4644 70.7324 75.8567 70.4892 75.2237 70.2799C74.6414 70.0873 74.0423 69.9032 73.4263 69.7275C72.8356 69.5602 72.3335 69.4223 71.9201 69.3136L70.0737 74.8962L73.8334 76.1397ZM69.7883 88.1152C68.2946 87.6212 66.9399 87.0889 65.7242 86.5183C64.5002 85.973 63.5504 85.4903 62.8748 85.0703L69.2304 65.854C70.0232 65.9196 71.0735 66.0985 72.3812 66.3906C73.6974 66.6574 75.1023 67.0378 76.5961 67.5318C77.6341 67.8751 78.6175 68.2987 79.5463 68.8025C80.4751 69.3063 81.2481 69.899 81.8652 70.5806C82.4908 71.2369 82.91 72.0075 83.1229 72.8925C83.3695 73.7605 83.3169 74.7261 82.9652 75.7895C82.647 76.7516 82.1344 77.4948 81.4273 78.0193C80.7201 78.5438 79.8987 78.862 78.9629 78.9738C79.926 79.7136 80.5984 80.568 80.9801 81.5368C81.3955 82.4888 81.3813 83.6356 80.9375 84.9775C80.544 86.1674 79.9769 87.0753 79.2363 87.701C78.521 88.3352 77.666 88.7546 76.6714 88.9593C75.7022 89.1724 74.6312 89.1833 73.4586 88.9921C72.2777 88.8262 71.0542 88.5339 69.7883 88.1152ZM95.2134 85.2332C95.7912 83.4863 96.5468 82.0509 97.4802 80.9272C98.422 79.7781 99.453 78.9114 100.573 78.3269C101.693 77.7424 102.869 77.415 104.1 77.3447C105.331 77.2743 106.516 77.4276 107.655 77.8044C110.314 78.6836 112.076 80.1932 112.941 82.3331C113.814 84.4477 113.69 87.2012 112.568 90.5938C112.518 90.7457 112.451 90.9483 112.367 91.2015C112.292 91.4293 112.208 91.6403 112.115 91.8345L98.5957 87.363C98.0693 89.464 98.1493 91.2178 98.8357 92.6245C99.522 94.0312 100.967 95.0987 103.169 95.8272C104.41 96.2376 105.481 96.4796 106.384 96.5534C107.32 96.6102 108.037 96.6086 108.534 96.5484L108.048 99.6738C107.542 99.7593 106.703 99.7487 105.531 99.6418C104.384 99.5433 103.127 99.2679 101.759 98.8157C100.038 98.2463 98.6278 97.4991 97.5294 96.5741C96.4647 95.6321 95.6779 94.5714 95.1692 93.392C94.6605 92.2126 94.4087 90.9356 94.414 89.5611C94.4529 88.1696 94.7194 86.7269 95.2134 85.2332ZM109.412 87.7805C109.965 86.1938 109.991 84.756 109.49 83.4669C109.023 82.1609 108.068 81.2693 106.625 80.792C105.815 80.524 105.039 80.4499 104.297 80.5697C103.589 80.6726 102.936 80.906 102.338 81.27C101.74 81.634 101.206 82.1033 100.735 82.6778C100.29 83.2607 99.9157 83.8814 99.6137 84.5399L109.412 87.7805ZM132.201 108.884C130.606 108.357 129.285 107.639 128.237 106.73C127.215 105.83 126.436 104.787 125.902 103.599C125.394 102.419 125.142 101.142 125.147 99.7679C125.161 98.368 125.419 96.9085 125.921 95.3895C126.424 93.8704 127.099 92.5491 127.948 91.4256C128.823 90.3104 129.816 89.4311 130.927 88.7876C132.047 88.1188 133.274 87.7238 134.606 87.6026C135.971 87.4645 137.376 87.6341 138.819 88.1114C139.705 88.4045 140.566 88.7735 141.402 89.2185C142.238 89.6635 143.006 90.1845 143.708 90.7816L141.918 93.518C141.47 93.089 140.917 92.6813 140.258 92.2949C139.625 91.9169 138.916 91.5981 138.131 91.3385C136.156 90.6854 134.432 90.8033 132.958 91.6921C131.51 92.5894 130.392 94.228 129.605 96.6078C129.253 97.6712 129.045 98.6836 128.98 99.6451C128.94 100.615 129.068 101.5 129.365 102.301C129.688 103.109 130.195 103.825 130.888 104.447C131.589 105.044 132.522 105.536 133.687 105.921C134.624 106.231 135.501 106.422 136.319 106.496C137.138 106.57 137.795 106.577 138.293 106.517L137.807 109.643C137.562 109.702 137.229 109.732 136.808 109.733C136.394 109.709 135.935 109.655 135.429 109.572C134.914 109.514 134.37 109.419 133.796 109.285C133.239 109.185 132.708 109.052 132.201 108.884ZM171.942 99.6142L170.962 102.576L164.544 100.454L158.993 117.239L155.461 116.071L161.012 99.2856L154.594 97.1628L155.574 94.2007L171.942 99.6142ZM189.028 116.346C188.344 116.12 187.665 115.923 186.99 115.756C186.349 115.572 185.754 115.459 185.206 115.419L182.957 122.216C183.101 122.292 183.308 122.388 183.578 122.506C183.873 122.632 184.182 122.762 184.502 122.896C184.857 123.013 185.207 123.143 185.553 123.286C185.908 123.403 186.224 123.507 186.502 123.6C188.047 124.11 189.333 124.213 190.361 123.907C191.389 123.601 192.117 122.802 192.544 121.511C192.753 120.878 192.794 120.288 192.666 119.74C192.564 119.2 192.331 118.716 191.967 118.287C191.637 117.841 191.215 117.462 190.7 117.151C190.193 116.815 189.636 116.547 189.028 116.346ZM185.078 103.959L188.61 105.127L186.11 112.684C186.574 112.725 187.228 112.829 188.071 112.996C188.94 113.171 189.755 113.384 190.514 113.635C191.552 113.979 192.498 114.432 193.351 114.995C194.212 115.532 194.909 116.184 195.443 116.95C195.984 117.691 196.319 118.546 196.448 119.516C196.61 120.468 196.503 121.514 196.126 122.654C195.733 123.844 195.195 124.789 194.514 125.491C193.832 126.192 193.037 126.688 192.127 126.976C191.217 127.265 190.205 127.352 189.091 127.236C187.97 127.146 186.788 126.896 185.548 126.486C184.358 126.092 183.18 125.618 182.015 125.065C180.842 124.536 179.732 123.944 178.685 123.289L185.078 103.959ZM201.257 131.218L197.725 130.05L204.256 110.302L207.788 111.47L201.257 131.218Z" fill="#EAEAEA"/>
</svg>
